<?xml version="1.0" encoding="utf-8" standalone="no"?>
<!DOCTYPE svg PUBLIC "-//W3C//DTD SVG 1.1//EN"
  "http://www.w3.org/Graphics/SVG/1.1/DTD/svg11.dtd">
<!-- Created with matplotlib (https://matplotlib.org/) -->
<svg height="345.6pt" version="1.1" viewBox="0 0 460.8 345.6" width="460.8pt" xmlns="http://www.w3.org/2000/svg" xmlns:xlink="http://www.w3.org/1999/xlink">
 <defs>
  <style type="text/css">
*{stroke-linecap:butt;stroke-linejoin:round;}
  </style>
 </defs>
 <g id="figure_1">
  <g id="patch_1">
   <path d="M 0 345.6 
L 460.8 345.6 
L 460.8 0 
L 0 0 
z
" style="fill:#ffffff;"/>
  </g>
  <g id="axes_1">
   <g id="patch_2">
    <path d="M 69.12 96.768 
L 414.72 96.768 
L 414.72 44.928 
L 69.12 44.928 
z
" style="fill:#ffffff;"/>
   </g>
   <g id="matplotlib.axis_1">
    <g id="xtick_1">
     <g id="line2d_1">
      <defs>
       <path d="M 0 0 
L 0 3.5 
" id="m3e0ef5f4b9" style="stroke:#000000;stroke-width:0.8;"/>
      </defs>
      <g>
       <use style="stroke:#000000;stroke-width:0.8;" x="75.766154" xlink:href="#m3e0ef5f4b9" y="96.768"/>
      </g>
     </g>
    </g>
    <g id="xtick_2">
     <g id="line2d_2">
      <g>
       <use style="stroke:#000000;stroke-width:0.8;" x="146.469918" xlink:href="#m3e0ef5f4b9" y="96.768"/>
      </g>
     </g>
    </g>
    <g id="xtick_3">
     <g id="line2d_3">
      <g>
       <use style="stroke:#000000;stroke-width:0.8;" x="217.173682" xlink:href="#m3e0ef5f4b9" y="96.768"/>
      </g>
     </g>
    </g>
    <g id="xtick_4">
     <g id="line2d_4">
      <g>
       <use style="stroke:#000000;stroke-width:0.8;" x="287.877447" xlink:href="#m3e0ef5f4b9" y="96.768"/>
      </g>
     </g>
    </g>
    <g id="xtick_5">
     <g id="line2d_5">
      <g>
       <use style="stroke:#000000;stroke-width:0.8;" x="358.581211" xlink:href="#m3e0ef5f4b9" y="96.768"/>
      </g>
     </g>
    </g>
   </g>
   <g id="matplotlib.axis_2">
    <g id="ytick_1">
     <g id="line2d_6">
      <defs>
       <path d="M 0 0 
L -3.5 0 
" id="m983cd3f787" style="stroke:#000000;stroke-width:0.8;"/>
      </defs>
      <g>
       <use style="stroke:#000000;stroke-width:0.8;" x="69.12" xlink:href="#m983cd3f787" y="93.718332"/>
      </g>
     </g>
     <g id="text_1">
      <!-- −2.5 -->
      <defs>
       <path d="M 10.59375 35.5 
L 73.1875 35.5 
L 73.1875 27.203125 
L 10.59375 27.203125 
z
" id="DejaVuSans-8722"/>
       <path d="M 19.1875 8.296875 
L 53.609375 8.296875 
L 53.609375 0 
L 7.328125 0 
L 7.328125 8.296875 
Q 12.9375 14.109375 22.625 23.890625 
Q 32.328125 33.6875 34.8125 36.53125 
Q 39.546875 41.84375 41.421875 45.53125 
Q 43.3125 49.21875 43.3125 52.78125 
Q 43.3125 58.59375 39.234375 62.25 
Q 35.15625 65.921875 28.609375 65.921875 
Q 23.96875 65.921875 18.8125 64.3125 
Q 13.671875 62.703125 7.8125 59.421875 
L 7.8125 69.390625 
Q 13.765625 71.78125 18.9375 73 
Q 24.125 74.21875 28.421875 74.21875 
Q 39.75 74.21875 46.484375 68.546875 
Q 53.21875 62.890625 53.21875 53.421875 
Q 53.21875 48.921875 51.53125 44.890625 
Q 49.859375 40.875 45.40625 35.40625 
Q 44.1875 33.984375 37.640625 27.21875 
Q 31.109375 20.453125 19.1875 8.296875 
z
" id="DejaVuSans-50"/>
       <path d="M 10.6875 12.40625 
L 21 12.40625 
L 21 0 
L 10.6875 0 
z
" id="DejaVuSans-46"/>
       <path d="M 10.796875 72.90625 
L 49.515625 72.90625 
L 49.515625 64.59375 
L 19.828125 64.59375 
L 19.828125 46.734375 
Q 21.96875 47.46875 24.109375 47.828125 
Q 26.265625 48.1875 28.421875 48.1875 
Q 40.625 48.1875 47.75 41.5 
Q 54.890625 34.8125 54.890625 23.390625 
Q 54.890625 11.625 47.5625 5.09375 
Q 40.234375 -1.421875 26.90625 -1.421875 
Q 22.3125 -1.421875 17.546875 -0.640625 
Q 12.796875 0.140625 7.71875 1.703125 
L 7.71875 11.625 
Q 12.109375 9.234375 16.796875 8.0625 
Q 21.484375 6.890625 26.703125 6.890625 
Q 35.15625 6.890625 40.078125 11.328125 
Q 45.015625 15.765625 45.015625 23.390625 
Q 45.015625 31 40.078125 35.4375 
Q 35.15625 39.890625 26.703125 39.890625 
Q 22.75 39.890625 18.8125 39.015625 
Q 14.890625 38.140625 10.796875 36.28125 
z
" id="DejaVuSans-53"/>
      </defs>
      <g transform="translate(37.837187 97.517551)scale(0.1 -0.1)">
       <use xlink:href="#DejaVuSans-8722"/>
       <use x="83.789062" xlink:href="#DejaVuSans-50"/>
       <use x="147.412109" xlink:href="#DejaVuSans-46"/>
       <use x="179.199219" xlink:href="#DejaVuSans-53"/>
      </g>
     </g>
    </g>
    <g id="ytick_2">
     <g id="line2d_7">
      <g>
       <use style="stroke:#000000;stroke-width:0.8;" x="69.12" xlink:href="#m983cd3f787" y="74.549951"/>
      </g>
     </g>
    </g>
    <g id="ytick_3">
     <g id="line2d_8">
      <g>
       <use style="stroke:#000000;stroke-width:0.8;" x="69.12" xlink:href="#m983cd3f787" y="55.381569"/>
      </g>
     </g>
     <g id="text_2">
      <!-- 2.5 -->
      <g transform="translate(46.216875 59.180788)scale(0.1 -0.1)">
       <use xlink:href="#DejaVuSans-50"/>
       <use x="63.623047" xlink:href="#DejaVuSans-46"/>
       <use x="95.410156" xlink:href="#DejaVuSans-53"/>
      </g>
     </g>
    </g>
    <g id="text_3">
     <!-- Studentized -->
     <defs>
      <path d="M 53.515625 70.515625 
L 53.515625 60.890625 
Q 47.90625 63.578125 42.921875 64.890625 
Q 37.9375 66.21875 33.296875 66.21875 
Q 25.25 66.21875 20.875 63.09375 
Q 16.5 59.96875 16.5 54.203125 
Q 16.5 49.359375 19.40625 46.890625 
Q 22.3125 44.4375 30.421875 42.921875 
L 36.375 41.703125 
Q 47.40625 39.59375 52.65625 34.296875 
Q 57.90625 29 57.90625 20.125 
Q 57.90625 9.515625 50.796875 4.046875 
Q 43.703125 -1.421875 29.984375 -1.421875 
Q 24.8125 -1.421875 18.96875 -0.25 
Q 13.140625 0.921875 6.890625 3.21875 
L 6.890625 13.375 
Q 12.890625 10.015625 18.65625 8.296875 
Q 24.421875 6.59375 29.984375 6.59375 
Q 38.421875 6.59375 43.015625 9.90625 
Q 47.609375 13.234375 47.609375 19.390625 
Q 47.609375 24.75 44.3125 27.78125 
Q 41.015625 30.8125 33.5 32.328125 
L 27.484375 33.5 
Q 16.453125 35.6875 11.515625 40.375 
Q 6.59375 45.0625 6.59375 53.421875 
Q 6.59375 63.09375 13.40625 68.65625 
Q 20.21875 74.21875 32.171875 74.21875 
Q 37.3125 74.21875 42.625 73.28125 
Q 47.953125 72.359375 53.515625 70.515625 
z
" id="DejaVuSans-83"/>
      <path d="M 18.3125 70.21875 
L 18.3125 54.6875 
L 36.8125 54.6875 
L 36.8125 47.703125 
L 18.3125 47.703125 
L 18.3125 18.015625 
Q 18.3125 11.328125 20.140625 9.421875 
Q 21.96875 7.515625 27.59375 7.515625 
L 36.8125 7.515625 
L 36.8125 0 
L 27.59375 0 
Q 17.1875 0 13.234375 3.875 
Q 9.28125 7.765625 9.28125 18.015625 
L 9.28125 47.703125 
L 2.6875 47.703125 
L 2.6875 54.6875 
L 9.28125 54.6875 
L 9.28125 70.21875 
z
" id="DejaVuSans-116"/>
      <path d="M 8.5 21.578125 
L 8.5 54.6875 
L 17.484375 54.6875 
L 17.484375 21.921875 
Q 17.484375 14.15625 20.5 10.265625 
Q 23.53125 6.390625 29.59375 6.390625 
Q 36.859375 6.390625 41.078125 11.03125 
Q 45.3125 15.671875 45.3125 23.6875 
L 45.3125 54.6875 
L 54.296875 54.6875 
L 54.296875 0 
L 45.3125 0 
L 45.3125 8.40625 
Q 42.046875 3.421875 37.71875 1 
Q 33.40625 -1.421875 27.6875 -1.421875 
Q 18.265625 -1.421875 13.375 4.4375 
Q 8.5 10.296875 8.5 21.578125 
z
M 31.109375 56 
z
" id="DejaVuSans-117"/>
      <path d="M 45.40625 46.390625 
L 45.40625 75.984375 
L 54.390625 75.984375 
L 54.390625 0 
L 45.40625 0 
L 45.40625 8.203125 
Q 42.578125 3.328125 38.25 0.953125 
Q 33.9375 -1.421875 27.875 -1.421875 
Q 17.96875 -1.421875 11.734375 6.484375 
Q 5.515625 14.40625 5.515625 27.296875 
Q 5.515625 40.1875 11.734375 48.09375 
Q 17.96875 56 27.875 56 
Q 33.9375 56 38.25 53.625 
Q 42.578125 51.265625 45.40625 46.390625 
z
M 14.796875 27.296875 
Q 14.796875 17.390625 18.875 11.75 
Q 22.953125 6.109375 30.078125 6.109375 
Q 37.203125 6.109375 41.296875 11.75 
Q 45.40625 17.390625 45.40625 27.296875 
Q 45.40625 37.203125 41.296875 42.84375 
Q 37.203125 48.484375 30.078125 48.484375 
Q 22.953125 48.484375 18.875 42.84375 
Q 14.796875 37.203125 14.796875 27.296875 
z
" id="DejaVuSans-100"/>
      <path d="M 56.203125 29.59375 
L 56.203125 25.203125 
L 14.890625 25.203125 
Q 15.484375 15.921875 20.484375 11.0625 
Q 25.484375 6.203125 34.421875 6.203125 
Q 39.59375 6.203125 44.453125 7.46875 
Q 49.3125 8.734375 54.109375 11.28125 
L 54.109375 2.78125 
Q 49.265625 0.734375 44.1875 -0.34375 
Q 39.109375 -1.421875 33.890625 -1.421875 
Q 20.796875 -1.421875 13.15625 6.1875 
Q 5.515625 13.8125 5.515625 26.8125 
Q 5.515625 40.234375 12.765625 48.109375 
Q 20.015625 56 32.328125 56 
Q 43.359375 56 49.78125 48.890625 
Q 56.203125 41.796875 56.203125 29.59375 
z
M 47.21875 32.234375 
Q 47.125 39.59375 43.09375 43.984375 
Q 39.0625 48.390625 32.421875 48.390625 
Q 24.90625 48.390625 20.390625 44.140625 
Q 15.875 39.890625 15.1875 32.171875 
z
" id="DejaVuSans-101"/>
      <path d="M 54.890625 33.015625 
L 54.890625 0 
L 45.90625 0 
L 45.90625 32.71875 
Q 45.90625 40.484375 42.875 44.328125 
Q 39.84375 48.1875 33.796875 48.1875 
Q 26.515625 48.1875 22.3125 43.546875 
Q 18.109375 38.921875 18.109375 30.90625 
L 18.109375 0 
L 9.078125 0 
L 9.078125 54.6875 
L 18.109375 54.6875 
L 18.109375 46.1875 
Q 21.34375 51.125 25.703125 53.5625 
Q 30.078125 56 35.796875 56 
Q 45.21875 56 50.046875 50.171875 
Q 54.890625 44.34375 54.890625 33.015625 
z
" id="DejaVuSans-110"/>
      <path d="M 9.421875 54.6875 
L 18.40625 54.6875 
L 18.40625 0 
L 9.421875 0 
z
M 9.421875 75.984375 
L 18.40625 75.984375 
L 18.40625 64.59375 
L 9.421875 64.59375 
z
" id="DejaVuSans-105"/>
      <path d="M 5.515625 54.6875 
L 48.1875 54.6875 
L 48.1875 46.484375 
L 14.40625 7.171875 
L 48.1875 7.171875 
L 48.1875 0 
L 4.296875 0 
L 4.296875 8.203125 
L 38.09375 47.515625 
L 5.515625 47.515625 
z
" id="DejaVuSans-122"/>
     </defs>
     <g transform="translate(20.559687 100.794875)rotate(-90)scale(0.1 -0.1)">
      <use xlink:href="#DejaVuSans-83"/>
      <use x="63.476562" xlink:href="#DejaVuSans-116"/>
      <use x="102.685547" xlink:href="#DejaVuSans-117"/>
      <use x="166.064453" xlink:href="#DejaVuSans-100"/>
      <use x="229.541016" xlink:href="#DejaVuSans-101"/>
      <use x="291.064453" xlink:href="#DejaVuSans-110"/>
      <use x="354.443359" xlink:href="#DejaVuSans-116"/>
      <use x="393.652344" xlink:href="#DejaVuSans-105"/>
      <use x="421.435547" xlink:href="#DejaVuSans-122"/>
      <use x="473.925781" xlink:href="#DejaVuSans-101"/>
      <use x="535.449219" xlink:href="#DejaVuSans-100"/>
     </g>
     <!-- Residuals -->
     <defs>
      <path d="M 44.390625 34.1875 
Q 47.5625 33.109375 50.5625 29.59375 
Q 53.5625 26.078125 56.59375 19.921875 
L 66.609375 0 
L 56 0 
L 46.6875 18.703125 
Q 43.0625 26.03125 39.671875 28.421875 
Q 36.28125 30.8125 30.421875 30.8125 
L 19.671875 30.8125 
L 19.671875 0 
L 9.8125 0 
L 9.8125 72.90625 
L 32.078125 72.90625 
Q 44.578125 72.90625 50.734375 67.671875 
Q 56.890625 62.453125 56.890625 51.90625 
Q 56.890625 45.015625 53.6875 40.46875 
Q 50.484375 35.9375 44.390625 34.1875 
z
M 19.671875 64.796875 
L 19.671875 38.921875 
L 32.078125 38.921875 
Q 39.203125 38.921875 42.84375 42.21875 
Q 46.484375 45.515625 46.484375 51.90625 
Q 46.484375 58.296875 42.84375 61.546875 
Q 39.203125 64.796875 32.078125 64.796875 
z
" id="DejaVuSans-82"/>
      <path d="M 44.28125 53.078125 
L 44.28125 44.578125 
Q 40.484375 46.53125 36.375 47.5 
Q 32.28125 48.484375 27.875 48.484375 
Q 21.1875 48.484375 17.84375 46.4375 
Q 14.5 44.390625 14.5 40.28125 
Q 14.5 37.15625 16.890625 35.375 
Q 19.28125 33.59375 26.515625 31.984375 
L 29.59375 31.296875 
Q 39.15625 29.25 43.1875 25.515625 
Q 47.21875 21.78125 47.21875 15.09375 
Q 47.21875 7.46875 41.1875 3.015625 
Q 35.15625 -1.421875 24.609375 -1.421875 
Q 20.21875 -1.421875 15.453125 -0.5625 
Q 10.6875 0.296875 5.421875 2 
L 5.421875 11.28125 
Q 10.40625 8.6875 15.234375 7.390625 
Q 20.0625 6.109375 24.8125 6.109375 
Q 31.15625 6.109375 34.5625 8.28125 
Q 37.984375 10.453125 37.984375 14.40625 
Q 37.984375 18.0625 35.515625 20.015625 
Q 33.0625 21.96875 24.703125 23.78125 
L 21.578125 24.515625 
Q 13.234375 26.265625 9.515625 29.90625 
Q 5.8125 33.546875 5.8125 39.890625 
Q 5.8125 47.609375 11.28125 51.796875 
Q 16.75 56 26.8125 56 
Q 31.78125 56 36.171875 55.265625 
Q 40.578125 54.546875 44.28125 53.078125 
z
" id="DejaVuSans-115"/>
      <path d="M 34.28125 27.484375 
Q 23.390625 27.484375 19.1875 25 
Q 14.984375 22.515625 14.984375 16.5 
Q 14.984375 11.71875 18.140625 8.90625 
Q 21.296875 6.109375 26.703125 6.109375 
Q 34.1875 6.109375 38.703125 11.40625 
Q 43.21875 16.703125 43.21875 25.484375 
L 43.21875 27.484375 
z
M 52.203125 31.203125 
L 52.203125 0 
L 43.21875 0 
L 43.21875 8.296875 
Q 40.140625 3.328125 35.546875 0.953125 
Q 30.953125 -1.421875 24.3125 -1.421875 
Q 15.921875 -1.421875 10.953125 3.296875 
Q 6 8.015625 6 15.921875 
Q 6 25.140625 12.171875 29.828125 
Q 18.359375 34.515625 30.609375 34.515625 
L 43.21875 34.515625 
L 43.21875 35.40625 
Q 43.21875 41.609375 39.140625 45 
Q 35.0625 48.390625 27.6875 48.390625 
Q 23 48.390625 18.546875 47.265625 
Q 14.109375 46.140625 10.015625 43.890625 
L 10.015625 52.203125 
Q 14.9375 54.109375 19.578125 55.046875 
Q 24.21875 56 28.609375 56 
Q 40.484375 56 46.34375 49.84375 
Q 52.203125 43.703125 52.203125 31.203125 
z
" id="DejaVuSans-97"/>
      <path d="M 9.421875 75.984375 
L 18.40625 75.984375 
L 18.40625 0 
L 9.421875 0 
z
" id="DejaVuSans-108"/>
     </defs>
     <g transform="translate(31.7575 94.790188)rotate(-90)scale(0.1 -0.1)">
      <use xlink:href="#DejaVuSans-82"/>
      <use x="69.419922" xlink:href="#DejaVuSans-101"/>
      <use x="130.943359" xlink:href="#DejaVuSans-115"/>
      <use x="183.042969" xlink:href="#DejaVuSans-105"/>
      <use x="210.826172" xlink:href="#DejaVuSans-100"/>
      <use x="274.302734" xlink:href="#DejaVuSans-117"/>
      <use x="337.681641" xlink:href="#DejaVuSans-97"/>
      <use x="398.960938" xlink:href="#DejaVuSans-108"/>
      <use x="426.744141" xlink:href="#DejaVuSans-115"/>
     </g>
    </g>
   </g>
   <g id="LineCollection_1">
    <path clip-path="url(#p1a6a574348)" d="M 75.766154 82.84383 
L 75.766154 67.509125 
" style="fill:none;stroke:#0000ff;stroke-width:1.5;"/>
    <path clip-path="url(#p1a6a574348)" d="M 82.83653 74.356886 
L 82.83653 59.022181 
" style="fill:none;stroke:#0000ff;stroke-width:1.5;"/>
    <path clip-path="url(#p1a6a574348)" d="M 89.906907 85.167711 
L 89.906907 69.833006 
" style="fill:none;stroke:#0000ff;stroke-width:1.5;"/>
    <path clip-path="url(#p1a6a574348)" d="M 96.977283 82.437975 
L 96.977283 67.10327 
" style="fill:none;stroke:#0000ff;stroke-width:1.5;"/>
    <path clip-path="url(#p1a6a574348)" d="M 104.04766 77.030603 
L 104.04766 61.695898 
" style="fill:none;stroke:#0000ff;stroke-width:1.5;"/>
    <path clip-path="url(#p1a6a574348)" d="M 111.118036 94.411636 
L 111.118036 79.076931 
" style="fill:none;stroke:#0000ff;stroke-width:1.5;"/>
    <path clip-path="url(#p1a6a574348)" d="M 118.188412 92.269768 
L 118.188412 76.935062 
" style="fill:none;stroke:#0000ff;stroke-width:1.5;"/>
    <path clip-path="url(#p1a6a574348)" d="M 125.258789 76.502526 
L 125.258789 61.16782 
" style="fill:none;stroke:#0000ff;stroke-width:1.5;"/>
    <path clip-path="url(#p1a6a574348)" d="M 132.329165 91.712242 
L 132.329165 76.377537 
" style="fill:none;stroke:#0000ff;stroke-width:1.5;"/>
    <path clip-path="url(#p1a6a574348)" d="M 139.399542 67.202316 
L 139.399542 51.867611 
" style="fill:none;stroke:#0000ff;stroke-width:1.5;"/>
    <path clip-path="url(#p1a6a574348)" d="M 146.469918 65.215056 
L 146.469918 49.88035 
" style="fill:none;stroke:#0000ff;stroke-width:1.5;"/>
    <path clip-path="url(#p1a6a574348)" d="M 153.540295 84.589127 
L 153.540295 69.254422 
" style="fill:none;stroke:#0000ff;stroke-width:1.5;"/>
    <path clip-path="url(#p1a6a574348)" d="M 160.610671 93.720591 
L 160.610671 78.385885 
" style="fill:none;stroke:#0000ff;stroke-width:1.5;"/>
    <path clip-path="url(#p1a6a574348)" d="M 167.681047 79.681992 
L 167.681047 64.347287 
" style="fill:none;stroke:#0000ff;stroke-width:1.5;"/>
    <path clip-path="url(#p1a6a574348)" d="M 174.751424 78.476343 
L 174.751424 63.141637 
" style="fill:none;stroke:#0000ff;stroke-width:1.5;"/>
    <path clip-path="url(#p1a6a574348)" d="M 181.8218 88.791492 
L 181.8218 73.456787 
" style="fill:none;stroke:#0000ff;stroke-width:1.5;"/>
    <path clip-path="url(#p1a6a574348)" d="M 188.892177 74.70407 
L 188.892177 59.369365 
" style="fill:none;stroke:#0000ff;stroke-width:1.5;"/>
    <path clip-path="url(#p1a6a574348)" d="M 195.962553 79.682331 
L 195.962553 64.347625 
" style="fill:none;stroke:#0000ff;stroke-width:1.5;"/>
    <path clip-path="url(#p1a6a574348)" d="M 203.03293 93.562801 
L 203.03293 78.228096 
" style="fill:none;stroke:#0000ff;stroke-width:1.5;"/>
    <path clip-path="url(#p1a6a574348)" d="M 210.103306 80.901119 
L 210.103306 65.566414 
" style="fill:none;stroke:#0000ff;stroke-width:1.5;"/>
    <path clip-path="url(#p1a6a574348)" d="M 217.173682 62.619069 
L 217.173682 47.284364 
" style="fill:none;stroke:#0000ff;stroke-width:1.5;"/>
    <path clip-path="url(#p1a6a574348)" d="M 224.244059 94.123455 
L 224.244059 78.78875 
" style="fill:none;stroke:#0000ff;stroke-width:1.5;"/>
    <path clip-path="url(#p1a6a574348)" d="M 231.314435 81.817856 
L 231.314435 66.483151 
" style="fill:none;stroke:#0000ff;stroke-width:1.5;"/>
    <path clip-path="url(#p1a6a574348)" d="M 238.384812 90.279106 
L 238.384812 74.944401 
" style="fill:none;stroke:#0000ff;stroke-width:1.5;"/>
    <path clip-path="url(#p1a6a574348)" d="M 245.455188 85.47455 
L 245.455188 70.139845 
" style="fill:none;stroke:#0000ff;stroke-width:1.5;"/>
    <path clip-path="url(#p1a6a574348)" d="M 252.525565 73.612317 
L 252.525565 58.277612 
" style="fill:none;stroke:#0000ff;stroke-width:1.5;"/>
    <path clip-path="url(#p1a6a574348)" d="M 259.595941 87.785991 
L 259.595941 72.451285 
" style="fill:none;stroke:#0000ff;stroke-width:1.5;"/>
    <path clip-path="url(#p1a6a574348)" d="M 266.666318 74.710638 
L 266.666318 59.375933 
" style="fill:none;stroke:#0000ff;stroke-width:1.5;"/>
    <path clip-path="url(#p1a6a574348)" d="M 273.736694 85.083876 
L 273.736694 69.749171 
" style="fill:none;stroke:#0000ff;stroke-width:1.5;"/>
    <path clip-path="url(#p1a6a574348)" d="M 280.80707 78.203357 
L 280.80707 62.868652 
" style="fill:none;stroke:#0000ff;stroke-width:1.5;"/>
    <path clip-path="url(#p1a6a574348)" d="M 287.877447 74.618051 
L 287.877447 59.283346 
" style="fill:none;stroke:#0000ff;stroke-width:1.5;"/>
    <path clip-path="url(#p1a6a574348)" d="M 294.947823 94.321823 
L 294.947823 78.987117 
" style="fill:none;stroke:#0000ff;stroke-width:1.5;"/>
    <path clip-path="url(#p1a6a574348)" d="M 302.0182 69.710568 
L 302.0182 54.375863 
" style="fill:none;stroke:#0000ff;stroke-width:1.5;"/>
    <path clip-path="url(#p1a6a574348)" d="M 309.088576 91.268223 
L 309.088576 75.933518 
" style="fill:none;stroke:#0000ff;stroke-width:1.5;"/>
    <path clip-path="url(#p1a6a574348)" d="M 316.158953 88.328716 
L 316.158953 72.994011 
" style="fill:none;stroke:#0000ff;stroke-width:1.5;"/>
    <path clip-path="url(#p1a6a574348)" d="M 323.229329 69.165187 
L 323.229329 53.830482 
" style="fill:none;stroke:#0000ff;stroke-width:1.5;"/>
    <path clip-path="url(#p1a6a574348)" d="M 330.299705 90.241439 
L 330.299705 74.906733 
" style="fill:none;stroke:#0000ff;stroke-width:1.5;"/>
    <path clip-path="url(#p1a6a574348)" d="M 337.370082 85.281487 
L 337.370082 69.946781 
" style="fill:none;stroke:#0000ff;stroke-width:1.5;"/>
    <path clip-path="url(#p1a6a574348)" d="M 344.440458 83.358838 
L 344.440458 68.024133 
" style="fill:none;stroke:#0000ff;stroke-width:1.5;"/>
    <path clip-path="url(#p1a6a574348)" d="M 351.510835 77.935662 
L 351.510835 62.600956 
" style="fill:none;stroke:#0000ff;stroke-width:1.5;"/>
    <path clip-path="url(#p1a6a574348)" d="M 358.581211 87.253288 
L 358.581211 71.918583 
" style="fill:none;stroke:#0000ff;stroke-width:1.5;"/>
    <path clip-path="url(#p1a6a574348)" d="M 365.651588 76.649976 
L 365.651588 61.315271 
" style="fill:none;stroke:#0000ff;stroke-width:1.5;"/>
    <path clip-path="url(#p1a6a574348)" d="M 372.721964 77.86322 
L 372.721964 62.528515 
" style="fill:none;stroke:#0000ff;stroke-width:1.5;"/>
    <path clip-path="url(#p1a6a574348)" d="M 379.79234 89.276005 
L 379.79234 73.9413 
" style="fill:none;stroke:#0000ff;stroke-width:1.5;"/>
    <path clip-path="url(#p1a6a574348)" d="M 386.862717 69.361617 
L 386.862717 54.026911 
" style="fill:none;stroke:#0000ff;stroke-width:1.5;"/>
    <path clip-path="url(#p1a6a574348)" d="M 393.933093 86.572939 
L 393.933093 71.238234 
" style="fill:none;stroke:#0000ff;stroke-width:1.5;"/>
    <path clip-path="url(#p1a6a574348)" d="M 401.00347 84.715591 
L 401.00347 69.380885 
" style="fill:none;stroke:#0000ff;stroke-width:1.5;"/>
    <path clip-path="url(#p1a6a574348)" d="M 408.073846 82.737831 
L 408.073846 67.403125 
" style="fill:none;stroke:#0000ff;stroke-width:1.5;"/>
   </g>
   <g id="line2d_9">
    <path clip-path="url(#p1a6a574348)" d="M 75.766154 74.549951 
L 408.073846 74.549951 
" style="fill:none;stroke:#ff0000;stroke-linecap:square;stroke-width:1.5;"/>
   </g>
   <g id="line2d_10">
    <defs>
     <path d="M 0 3 
C 0.795609 3 1.55874 2.683901 2.12132 2.12132 
C 2.683901 1.55874 3 0.795609 3 0 
C 3 -0.795609 2.683901 -1.55874 2.12132 -2.12132 
C 1.55874 -2.683901 0.795609 -3 0 -3 
C -0.795609 -3 -1.55874 -2.683901 -2.12132 -2.12132 
C -2.683901 -1.55874 -3 -0.795609 -3 0 
C -3 0.795609 -2.683901 1.55874 -2.12132 2.12132 
C -1.55874 2.683901 -0.795609 3 0 3 
z
" id="m16695ce30a" style="stroke:#0000ff;"/>
    </defs>
    <g clip-path="url(#p1a6a574348)">
     <use style="fill:#0000ff;stroke:#0000ff;" x="75.766154" xlink:href="#m16695ce30a" y="75.176478"/>
     <use style="fill:#0000ff;stroke:#0000ff;" x="82.83653" xlink:href="#m16695ce30a" y="66.689534"/>
     <use style="fill:#0000ff;stroke:#0000ff;" x="89.906907" xlink:href="#m16695ce30a" y="77.500358"/>
     <use style="fill:#0000ff;stroke:#0000ff;" x="96.977283" xlink:href="#m16695ce30a" y="74.770623"/>
     <use style="fill:#0000ff;stroke:#0000ff;" x="104.04766" xlink:href="#m16695ce30a" y="69.363251"/>
     <use style="fill:#0000ff;stroke:#0000ff;" x="111.118036" xlink:href="#m16695ce30a" y="86.744284"/>
     <use style="fill:#0000ff;stroke:#0000ff;" x="118.188412" xlink:href="#m16695ce30a" y="84.602415"/>
     <use style="fill:#0000ff;stroke:#0000ff;" x="125.258789" xlink:href="#m16695ce30a" y="68.835173"/>
     <use style="fill:#0000ff;stroke:#0000ff;" x="132.329165" xlink:href="#m16695ce30a" y="84.044889"/>
     <use style="fill:#0000ff;stroke:#0000ff;" x="139.399542" xlink:href="#m16695ce30a" y="59.534964"/>
     <use style="fill:#0000ff;stroke:#0000ff;" x="146.469918" xlink:href="#m16695ce30a" y="57.547703"/>
     <use style="fill:#0000ff;stroke:#0000ff;" x="153.540295" xlink:href="#m16695ce30a" y="76.921774"/>
     <use style="fill:#0000ff;stroke:#0000ff;" x="160.610671" xlink:href="#m16695ce30a" y="86.053238"/>
     <use style="fill:#0000ff;stroke:#0000ff;" x="167.681047" xlink:href="#m16695ce30a" y="72.014639"/>
     <use style="fill:#0000ff;stroke:#0000ff;" x="174.751424" xlink:href="#m16695ce30a" y="70.80899"/>
     <use style="fill:#0000ff;stroke:#0000ff;" x="181.8218" xlink:href="#m16695ce30a" y="81.124139"/>
     <use style="fill:#0000ff;stroke:#0000ff;" x="188.892177" xlink:href="#m16695ce30a" y="67.036718"/>
     <use style="fill:#0000ff;stroke:#0000ff;" x="195.962553" xlink:href="#m16695ce30a" y="72.014978"/>
     <use style="fill:#0000ff;stroke:#0000ff;" x="203.03293" xlink:href="#m16695ce30a" y="85.895448"/>
     <use style="fill:#0000ff;stroke:#0000ff;" x="210.103306" xlink:href="#m16695ce30a" y="73.233767"/>
     <use style="fill:#0000ff;stroke:#0000ff;" x="217.173682" xlink:href="#m16695ce30a" y="54.951716"/>
     <use style="fill:#0000ff;stroke:#0000ff;" x="224.244059" xlink:href="#m16695ce30a" y="86.456103"/>
     <use style="fill:#0000ff;stroke:#0000ff;" x="231.314435" xlink:href="#m16695ce30a" y="74.150504"/>
     <use style="fill:#0000ff;stroke:#0000ff;" x="238.384812" xlink:href="#m16695ce30a" y="82.611754"/>
     <use style="fill:#0000ff;stroke:#0000ff;" x="245.455188" xlink:href="#m16695ce30a" y="77.807198"/>
     <use style="fill:#0000ff;stroke:#0000ff;" x="252.525565" xlink:href="#m16695ce30a" y="65.944965"/>
     <use style="fill:#0000ff;stroke:#0000ff;" x="259.595941" xlink:href="#m16695ce30a" y="80.118638"/>
     <use style="fill:#0000ff;stroke:#0000ff;" x="266.666318" xlink:href="#m16695ce30a" y="67.043285"/>
     <use style="fill:#0000ff;stroke:#0000ff;" x="273.736694" xlink:href="#m16695ce30a" y="77.416524"/>
     <use style="fill:#0000ff;stroke:#0000ff;" x="280.80707" xlink:href="#m16695ce30a" y="70.536005"/>
     <use style="fill:#0000ff;stroke:#0000ff;" x="287.877447" xlink:href="#m16695ce30a" y="66.950699"/>
     <use style="fill:#0000ff;stroke:#0000ff;" x="294.947823" xlink:href="#m16695ce30a" y="86.65447"/>
     <use style="fill:#0000ff;stroke:#0000ff;" x="302.0182" xlink:href="#m16695ce30a" y="62.043215"/>
     <use style="fill:#0000ff;stroke:#0000ff;" x="309.088576" xlink:href="#m16695ce30a" y="83.60087"/>
     <use style="fill:#0000ff;stroke:#0000ff;" x="316.158953" xlink:href="#m16695ce30a" y="80.661363"/>
     <use style="fill:#0000ff;stroke:#0000ff;" x="323.229329" xlink:href="#m16695ce30a" y="61.497835"/>
     <use style="fill:#0000ff;stroke:#0000ff;" x="330.299705" xlink:href="#m16695ce30a" y="82.574086"/>
     <use style="fill:#0000ff;stroke:#0000ff;" x="337.370082" xlink:href="#m16695ce30a" y="77.614134"/>
     <use style="fill:#0000ff;stroke:#0000ff;" x="344.440458" xlink:href="#m16695ce30a" y="75.691485"/>
     <use style="fill:#0000ff;stroke:#0000ff;" x="351.510835" xlink:href="#m16695ce30a" y="70.268309"/>
     <use style="fill:#0000ff;stroke:#0000ff;" x="358.581211" xlink:href="#m16695ce30a" y="79.585936"/>
     <use style="fill:#0000ff;stroke:#0000ff;" x="365.651588" xlink:href="#m16695ce30a" y="68.982623"/>
     <use style="fill:#0000ff;stroke:#0000ff;" x="372.721964" xlink:href="#m16695ce30a" y="70.195867"/>
     <use style="fill:#0000ff;stroke:#0000ff;" x="379.79234" xlink:href="#m16695ce30a" y="81.608652"/>
     <use style="fill:#0000ff;stroke:#0000ff;" x="386.862717" xlink:href="#m16695ce30a" y="61.694264"/>
     <use style="fill:#0000ff;stroke:#0000ff;" x="393.933093" xlink:href="#m16695ce30a" y="78.905586"/>
     <use style="fill:#0000ff;stroke:#0000ff;" x="401.00347" xlink:href="#m16695ce30a" y="77.048238"/>
     <use style="fill:#0000ff;stroke:#0000ff;" x="408.073846" xlink:href="#m16695ce30a" y="75.070478"/>
    </g>
   </g>
   <g id="patch_3">
    <path d="M 69.12 96.768 
L 69.12 44.928 
" style="fill:none;stroke:#000000;stroke-linecap:square;stroke-linejoin:miter;stroke-width:0.8;"/>
   </g>
   <g id="patch_4">
    <path d="M 414.72 96.768 
L 414.72 44.928 
" style="fill:none;stroke:#000000;stroke-linecap:square;stroke-linejoin:miter;stroke-width:0.8;"/>
   </g>
   <g id="patch_5">
    <path d="M 69.12 96.768 
L 414.72 96.768 
" style="fill:none;stroke:#000000;stroke-linecap:square;stroke-linejoin:miter;stroke-width:0.8;"/>
   </g>
   <g id="patch_6">
    <path d="M 69.12 44.928 
L 414.72 44.928 
" style="fill:none;stroke:#000000;stroke-linecap:square;stroke-linejoin:miter;stroke-width:0.8;"/>
   </g>
   <g id="text_4">
    <!-- Function (0/0): y = A1*G(x-x0, s) + A2*S(x-x0, s) -->
    <defs>
     <path d="M 9.8125 72.90625 
L 51.703125 72.90625 
L 51.703125 64.59375 
L 19.671875 64.59375 
L 19.671875 43.109375 
L 48.578125 43.109375 
L 48.578125 34.8125 
L 19.671875 34.8125 
L 19.671875 0 
L 9.8125 0 
z
" id="DejaVuSans-70"/>
     <path d="M 48.78125 52.59375 
L 48.78125 44.1875 
Q 44.96875 46.296875 41.140625 47.34375 
Q 37.3125 48.390625 33.40625 48.390625 
Q 24.65625 48.390625 19.8125 42.84375 
Q 14.984375 37.3125 14.984375 27.296875 
Q 14.984375 17.28125 19.8125 11.734375 
Q 24.65625 6.203125 33.40625 6.203125 
Q 37.3125 6.203125 41.140625 7.25 
Q 44.96875 8.296875 48.78125 10.40625 
L 48.78125 2.09375 
Q 45.015625 0.34375 40.984375 -0.53125 
Q 36.96875 -1.421875 32.421875 -1.421875 
Q 20.0625 -1.421875 12.78125 6.34375 
Q 5.515625 14.109375 5.515625 27.296875 
Q 5.515625 40.671875 12.859375 48.328125 
Q 20.21875 56 33.015625 56 
Q 37.15625 56 41.109375 55.140625 
Q 45.0625 54.296875 48.78125 52.59375 
z
" id="DejaVuSans-99"/>
     <path d="M 30.609375 48.390625 
Q 23.390625 48.390625 19.1875 42.75 
Q 14.984375 37.109375 14.984375 27.296875 
Q 14.984375 17.484375 19.15625 11.84375 
Q 23.34375 6.203125 30.609375 6.203125 
Q 37.796875 6.203125 41.984375 11.859375 
Q 46.1875 17.53125 46.1875 27.296875 
Q 46.1875 37.015625 41.984375 42.703125 
Q 37.796875 48.390625 30.609375 48.390625 
z
M 30.609375 56 
Q 42.328125 56 49.015625 48.375 
Q 55.71875 40.765625 55.71875 27.296875 
Q 55.71875 13.875 49.015625 6.21875 
Q 42.328125 -1.421875 30.609375 -1.421875 
Q 18.84375 -1.421875 12.171875 6.21875 
Q 5.515625 13.875 5.515625 27.296875 
Q 5.515625 40.765625 12.171875 48.375 
Q 18.84375 56 30.609375 56 
z
" id="DejaVuSans-111"/>
     <path id="DejaVuSans-32"/>
     <path d="M 31 75.875 
Q 24.46875 64.65625 21.28125 53.65625 
Q 18.109375 42.671875 18.109375 31.390625 
Q 18.109375 20.125 21.3125 9.0625 
Q 24.515625 -2 31 -13.1875 
L 23.1875 -13.1875 
Q 15.875 -1.703125 12.234375 9.375 
Q 8.59375 20.453125 8.59375 31.390625 
Q 8.59375 42.28125 12.203125 53.3125 
Q 15.828125 64.359375 23.1875 75.875 
z
" id="DejaVuSans-40"/>
     <path d="M 31.78125 66.40625 
Q 24.171875 66.40625 20.328125 58.90625 
Q 16.5 51.421875 16.5 36.375 
Q 16.5 21.390625 20.328125 13.890625 
Q 24.171875 6.390625 31.78125 6.390625 
Q 39.453125 6.390625 43.28125 13.890625 
Q 47.125 21.390625 47.125 36.375 
Q 47.125 51.421875 43.28125 58.90625 
Q 39.453125 66.40625 31.78125 66.40625 
z
M 31.78125 74.21875 
Q 44.046875 74.21875 50.515625 64.515625 
Q 56.984375 54.828125 56.984375 36.375 
Q 56.984375 17.96875 50.515625 8.265625 
Q 44.046875 -1.421875 31.78125 -1.421875 
Q 19.53125 -1.421875 13.0625 8.265625 
Q 6.59375 17.96875 6.59375 36.375 
Q 6.59375 54.828125 13.0625 64.515625 
Q 19.53125 74.21875 31.78125 74.21875 
z
" id="DejaVuSans-48"/>
     <path d="M 25.390625 72.90625 
L 33.6875 72.90625 
L 8.296875 -9.28125 
L 0 -9.28125 
z
" id="DejaVuSans-47"/>
     <path d="M 8.015625 75.875 
L 15.828125 75.875 
Q 23.140625 64.359375 26.78125 53.3125 
Q 30.421875 42.28125 30.421875 31.390625 
Q 30.421875 20.453125 26.78125 9.375 
Q 23.140625 -1.703125 15.828125 -13.1875 
L 8.015625 -13.1875 
Q 14.5 -2 17.703125 9.0625 
Q 20.90625 20.125 20.90625 31.390625 
Q 20.90625 42.671875 17.703125 53.65625 
Q 14.5 64.65625 8.015625 75.875 
z
" id="DejaVuSans-41"/>
     <path d="M 11.71875 12.40625 
L 22.015625 12.40625 
L 22.015625 0 
L 11.71875 0 
z
M 11.71875 51.703125 
L 22.015625 51.703125 
L 22.015625 39.3125 
L 11.71875 39.3125 
z
" id="DejaVuSans-58"/>
     <path d="M 32.171875 -5.078125 
Q 28.375 -14.84375 24.75 -17.8125 
Q 21.140625 -20.796875 15.09375 -20.796875 
L 7.90625 -20.796875 
L 7.90625 -13.28125 
L 13.1875 -13.28125 
Q 16.890625 -13.28125 18.9375 -11.515625 
Q 21 -9.765625 23.484375 -3.21875 
L 25.09375 0.875 
L 2.984375 54.6875 
L 12.5 54.6875 
L 29.59375 11.921875 
L 46.6875 54.6875 
L 56.203125 54.6875 
z
" id="DejaVuSans-121"/>
     <path d="M 10.59375 45.40625 
L 73.1875 45.40625 
L 73.1875 37.203125 
L 10.59375 37.203125 
z
M 10.59375 25.484375 
L 73.1875 25.484375 
L 73.1875 17.1875 
L 10.59375 17.1875 
z
" id="DejaVuSans-61"/>
     <path d="M 34.1875 63.1875 
L 20.796875 26.90625 
L 47.609375 26.90625 
z
M 28.609375 72.90625 
L 39.796875 72.90625 
L 67.578125 0 
L 57.328125 0 
L 50.6875 18.703125 
L 17.828125 18.703125 
L 11.1875 0 
L 0.78125 0 
z
" id="DejaVuSans-65"/>
     <path d="M 12.40625 8.296875 
L 28.515625 8.296875 
L 28.515625 63.921875 
L 10.984375 60.40625 
L 10.984375 69.390625 
L 28.421875 72.90625 
L 38.28125 72.90625 
L 38.28125 8.296875 
L 54.390625 8.296875 
L 54.390625 0 
L 12.40625 0 
z
" id="DejaVuSans-49"/>
     <path d="M 47.015625 60.890625 
L 29.5 51.421875 
L 47.015625 41.890625 
L 44.1875 37.109375 
L 27.78125 47.015625 
L 27.78125 28.609375 
L 22.21875 28.609375 
L 22.21875 47.015625 
L 5.8125 37.109375 
L 2.984375 41.890625 
L 20.515625 51.421875 
L 2.984375 60.890625 
L 5.8125 65.71875 
L 22.21875 55.8125 
L 22.21875 74.21875 
L 27.78125 74.21875 
L 27.78125 55.8125 
L 44.1875 65.71875 
z
" id="DejaVuSans-42"/>
     <path d="M 59.515625 10.40625 
L 59.515625 29.984375 
L 43.40625 29.984375 
L 43.40625 38.09375 
L 69.28125 38.09375 
L 69.28125 6.78125 
Q 63.578125 2.734375 56.6875 0.65625 
Q 49.8125 -1.421875 42 -1.421875 
Q 24.90625 -1.421875 15.25 8.5625 
Q 5.609375 18.5625 5.609375 36.375 
Q 5.609375 54.25 15.25 64.234375 
Q 24.90625 74.21875 42 74.21875 
Q 49.125 74.21875 55.546875 72.453125 
Q 61.96875 70.703125 67.390625 67.28125 
L 67.390625 56.78125 
Q 61.921875 61.421875 55.765625 63.765625 
Q 49.609375 66.109375 42.828125 66.109375 
Q 29.4375 66.109375 22.71875 58.640625 
Q 16.015625 51.171875 16.015625 36.375 
Q 16.015625 21.625 22.71875 14.15625 
Q 29.4375 6.6875 42.828125 6.6875 
Q 48.046875 6.6875 52.140625 7.59375 
Q 56.25 8.5 59.515625 10.40625 
z
" id="DejaVuSans-71"/>
     <path d="M 54.890625 54.6875 
L 35.109375 28.078125 
L 55.90625 0 
L 45.3125 0 
L 29.390625 21.484375 
L 13.484375 0 
L 2.875 0 
L 24.125 28.609375 
L 4.6875 54.6875 
L 15.28125 54.6875 
L 29.78125 35.203125 
L 44.28125 54.6875 
z
" id="DejaVuSans-120"/>
     <path d="M 4.890625 31.390625 
L 31.203125 31.390625 
L 31.203125 23.390625 
L 4.890625 23.390625 
z
" id="DejaVuSans-45"/>
     <path d="M 11.71875 12.40625 
L 22.015625 12.40625 
L 22.015625 4 
L 14.015625 -11.625 
L 7.71875 -11.625 
L 11.71875 4 
z
" id="DejaVuSans-44"/>
     <path d="M 46 62.703125 
L 46 35.5 
L 73.1875 35.5 
L 73.1875 27.203125 
L 46 27.203125 
L 46 0 
L 37.796875 0 
L 37.796875 27.203125 
L 10.59375 27.203125 
L 10.59375 35.5 
L 37.796875 35.5 
L 37.796875 62.703125 
z
" id="DejaVuSans-43"/>
    </defs>
    <g transform="translate(69.12 14.3105)scale(0.1 -0.1)">
     <use xlink:href="#DejaVuSans-70"/>
     <use x="57.441406" xlink:href="#DejaVuSans-117"/>
     <use x="120.820312" xlink:href="#DejaVuSans-110"/>
     <use x="184.199219" xlink:href="#DejaVuSans-99"/>
     <use x="239.179688" xlink:href="#DejaVuSans-116"/>
     <use x="278.388672" xlink:href="#DejaVuSans-105"/>
     <use x="306.171875" xlink:href="#DejaVuSans-111"/>
     <use x="367.353516" xlink:href="#DejaVuSans-110"/>
     <use x="430.732422" xlink:href="#DejaVuSans-32"/>
     <use x="462.519531" xlink:href="#DejaVuSans-40"/>
     <use x="501.533203" xlink:href="#DejaVuSans-48"/>
     <use x="565.15625" xlink:href="#DejaVuSans-47"/>
     <use x="598.847656" xlink:href="#DejaVuSans-48"/>
     <use x="662.470703" xlink:href="#DejaVuSans-41"/>
     <use x="701.484375" xlink:href="#DejaVuSans-58"/>
     <use x="735.175781" xlink:href="#DejaVuSans-32"/>
     <use x="766.962891" xlink:href="#DejaVuSans-121"/>
     <use x="826.142578" xlink:href="#DejaVuSans-32"/>
     <use x="857.929688" xlink:href="#DejaVuSans-61"/>
     <use x="941.71875" xlink:href="#DejaVuSans-32"/>
     <use x="973.505859" xlink:href="#DejaVuSans-65"/>
     <use x="1041.914062" xlink:href="#DejaVuSans-49"/>
     <use x="1105.537109" xlink:href="#DejaVuSans-42"/>
     <use x="1155.537109" xlink:href="#DejaVuSans-71"/>
     <use x="1233.027344" xlink:href="#DejaVuSans-40"/>
     <use x="1272.041016" xlink:href="#DejaVuSans-120"/>
     <use x="1331.220703" xlink:href="#DejaVuSans-45"/>
     <use x="1367.304688" xlink:href="#DejaVuSans-120"/>
     <use x="1426.484375" xlink:href="#DejaVuSans-48"/>
     <use x="1490.107422" xlink:href="#DejaVuSans-44"/>
     <use x="1521.894531" xlink:href="#DejaVuSans-32"/>
     <use x="1553.681641" xlink:href="#DejaVuSans-115"/>
     <use x="1605.78125" xlink:href="#DejaVuSans-41"/>
     <use x="1644.794922" xlink:href="#DejaVuSans-32"/>
     <use x="1676.582031" xlink:href="#DejaVuSans-43"/>
     <use x="1760.371094" xlink:href="#DejaVuSans-32"/>
     <use x="1792.158203" xlink:href="#DejaVuSans-65"/>
     <use x="1860.566406" xlink:href="#DejaVuSans-50"/>
     <use x="1924.189453" xlink:href="#DejaVuSans-42"/>
     <use x="1974.189453" xlink:href="#DejaVuSans-83"/>
     <use x="2037.666016" xlink:href="#DejaVuSans-40"/>
     <use x="2076.679688" xlink:href="#DejaVuSans-120"/>
     <use x="2135.859375" xlink:href="#DejaVuSans-45"/>
     <use x="2171.943359" xlink:href="#DejaVuSans-120"/>
     <use x="2231.123047" xlink:href="#DejaVuSans-48"/>
     <use x="2294.746094" xlink:href="#DejaVuSans-44"/>
     <use x="2326.533203" xlink:href="#DejaVuSans-32"/>
     <use x="2358.320312" xlink:href="#DejaVuSans-115"/>
     <use x="2410.419922" xlink:href="#DejaVuSans-41"/>
    </g>
    <!-- Fit: A1=539.0$\pm$17.0, x0=323.91$\pm$0.37, s=20.42$\pm$0.64, A2=24.0$\pm$35.0, -->
    <defs>
     <path d="M 40.578125 39.3125 
Q 47.65625 37.796875 51.625 33 
Q 55.609375 28.21875 55.609375 21.1875 
Q 55.609375 10.40625 48.1875 4.484375 
Q 40.765625 -1.421875 27.09375 -1.421875 
Q 22.515625 -1.421875 17.65625 -0.515625 
Q 12.796875 0.390625 7.625 2.203125 
L 7.625 11.71875 
Q 11.71875 9.328125 16.59375 8.109375 
Q 21.484375 6.890625 26.8125 6.890625 
Q 36.078125 6.890625 40.9375 10.546875 
Q 45.796875 14.203125 45.796875 21.1875 
Q 45.796875 27.640625 41.28125 31.265625 
Q 36.765625 34.90625 28.71875 34.90625 
L 20.21875 34.90625 
L 20.21875 43.015625 
L 29.109375 43.015625 
Q 36.375 43.015625 40.234375 45.921875 
Q 44.09375 48.828125 44.09375 54.296875 
Q 44.09375 59.90625 40.109375 62.90625 
Q 36.140625 65.921875 28.71875 65.921875 
Q 24.65625 65.921875 20.015625 65.03125 
Q 15.375 64.15625 9.8125 62.3125 
L 9.8125 71.09375 
Q 15.4375 72.65625 20.34375 73.4375 
Q 25.25 74.21875 29.59375 74.21875 
Q 40.828125 74.21875 47.359375 69.109375 
Q 53.90625 64.015625 53.90625 55.328125 
Q 53.90625 49.265625 50.4375 45.09375 
Q 46.96875 40.921875 40.578125 39.3125 
z
" id="DejaVuSans-51"/>
     <path d="M 10.984375 1.515625 
L 10.984375 10.5 
Q 14.703125 8.734375 18.5 7.8125 
Q 22.3125 6.890625 25.984375 6.890625 
Q 35.75 6.890625 40.890625 13.453125 
Q 46.046875 20.015625 46.78125 33.40625 
Q 43.953125 29.203125 39.59375 26.953125 
Q 35.25 24.703125 29.984375 24.703125 
Q 19.046875 24.703125 12.671875 31.3125 
Q 6.296875 37.9375 6.296875 49.421875 
Q 6.296875 60.640625 12.9375 67.421875 
Q 19.578125 74.21875 30.609375 74.21875 
Q 43.265625 74.21875 49.921875 64.515625 
Q 56.59375 54.828125 56.59375 36.375 
Q 56.59375 19.140625 48.40625 8.859375 
Q 40.234375 -1.421875 26.421875 -1.421875 
Q 22.703125 -1.421875 18.890625 -0.6875 
Q 15.09375 0.046875 10.984375 1.515625 
z
M 30.609375 32.421875 
Q 37.25 32.421875 41.125 36.953125 
Q 45.015625 41.5 45.015625 49.421875 
Q 45.015625 57.28125 41.125 61.84375 
Q 37.25 66.40625 30.609375 66.40625 
Q 23.96875 66.40625 20.09375 61.84375 
Q 16.21875 57.28125 16.21875 49.421875 
Q 16.21875 41.5 20.09375 36.953125 
Q 23.96875 32.421875 30.609375 32.421875 
z
" id="DejaVuSans-57"/>
     <path d="M 46 62.703125 
L 46 43.796875 
L 73.1875 43.796875 
L 73.1875 35.5 
L 46 35.5 
L 46 16.609375 
L 37.796875 16.609375 
L 37.796875 35.5 
L 10.59375 35.5 
L 10.59375 43.796875 
L 37.796875 43.796875 
L 37.796875 62.703125 
z
M 10.59375 8.296875 
L 73.1875 8.296875 
L 73.1875 0 
L 10.59375 0 
z
" id="DejaVuSans-177"/>
     <path d="M 8.203125 72.90625 
L 55.078125 72.90625 
L 55.078125 68.703125 
L 28.609375 0 
L 18.3125 0 
L 43.21875 64.59375 
L 8.203125 64.59375 
z
" id="DejaVuSans-55"/>
     <path d="M 37.796875 64.3125 
L 12.890625 25.390625 
L 37.796875 25.390625 
z
M 35.203125 72.90625 
L 47.609375 72.90625 
L 47.609375 25.390625 
L 58.015625 25.390625 
L 58.015625 17.1875 
L 47.609375 17.1875 
L 47.609375 0 
L 37.796875 0 
L 37.796875 17.1875 
L 4.890625 17.1875 
L 4.890625 26.703125 
z
" id="DejaVuSans-52"/>
     <path d="M 33.015625 40.375 
Q 26.375 40.375 22.484375 35.828125 
Q 18.609375 31.296875 18.609375 23.390625 
Q 18.609375 15.53125 22.484375 10.953125 
Q 26.375 6.390625 33.015625 6.390625 
Q 39.65625 6.390625 43.53125 10.953125 
Q 47.40625 15.53125 47.40625 23.390625 
Q 47.40625 31.296875 43.53125 35.828125 
Q 39.65625 40.375 33.015625 40.375 
z
M 52.59375 71.296875 
L 52.59375 62.3125 
Q 48.875 64.0625 45.09375 64.984375 
Q 41.3125 65.921875 37.59375 65.921875 
Q 27.828125 65.921875 22.671875 59.328125 
Q 17.53125 52.734375 16.796875 39.40625 
Q 19.671875 43.65625 24.015625 45.921875 
Q 28.375 48.1875 33.59375 48.1875 
Q 44.578125 48.1875 50.953125 41.515625 
Q 57.328125 34.859375 57.328125 23.390625 
Q 57.328125 12.15625 50.6875 5.359375 
Q 44.046875 -1.421875 33.015625 -1.421875 
Q 20.359375 -1.421875 13.671875 8.265625 
Q 6.984375 17.96875 6.984375 36.375 
Q 6.984375 53.65625 15.1875 63.9375 
Q 23.390625 74.21875 37.203125 74.21875 
Q 40.921875 74.21875 44.703125 73.484375 
Q 48.484375 72.75 52.59375 71.296875 
z
" id="DejaVuSans-54"/>
    </defs>
    <g transform="translate(69.12 25.508312)scale(0.1 -0.1)">
     <use transform="translate(0 0.015625)" xlink:href="#DejaVuSans-70"/>
     <use transform="translate(57.519531 0.015625)" xlink:href="#DejaVuSans-105"/>
     <use transform="translate(85.302734 0.015625)" xlink:href="#DejaVuSans-116"/>
     <use transform="translate(124.511719 0.015625)" xlink:href="#DejaVuSans-58"/>
     <use transform="translate(158.203125 0.015625)" xlink:href="#DejaVuSans-32"/>
     <use transform="translate(189.990234 0.015625)" xlink:href="#DejaVuSans-65"/>
     <use transform="translate(258.398438 0.015625)" xlink:href="#DejaVuSans-49"/>
     <use transform="translate(322.021484 0.015625)" xlink:href="#DejaVuSans-61"/>
     <use transform="translate(405.810547 0.015625)" xlink:href="#DejaVuSans-53"/>
     <use transform="translate(469.433594 0.015625)" xlink:href="#DejaVuSans-51"/>
     <use transform="translate(533.056641 0.015625)" xlink:href="#DejaVuSans-57"/>
     <use transform="translate(596.679688 0.015625)" xlink:href="#DejaVuSans-46"/>
     <use transform="translate(628.466797 0.015625)" xlink:href="#DejaVuSans-48"/>
     <use transform="translate(692.089844 0.015625)" xlink:href="#DejaVuSans-177"/>
     <use transform="translate(775.878906 0.015625)" xlink:href="#DejaVuSans-49"/>
     <use transform="translate(839.501953 0.015625)" xlink:href="#DejaVuSans-55"/>
     <use transform="translate(903.125 0.015625)" xlink:href="#DejaVuSans-46"/>
     <use transform="translate(934.912109 0.015625)" xlink:href="#DejaVuSans-48"/>
     <use transform="translate(998.535156 0.015625)" xlink:href="#DejaVuSans-44"/>
     <use transform="translate(1030.322266 0.015625)" xlink:href="#DejaVuSans-32"/>
     <use transform="translate(1062.109375 0.015625)" xlink:href="#DejaVuSans-120"/>
     <use transform="translate(1121.289062 0.015625)" xlink:href="#DejaVuSans-48"/>
     <use transform="translate(1184.912109 0.015625)" xlink:href="#DejaVuSans-61"/>
     <use transform="translate(1268.701172 0.015625)" xlink:href="#DejaVuSans-51"/>
     <use transform="translate(1332.324219 0.015625)" xlink:href="#DejaVuSans-50"/>
     <use transform="translate(1395.947266 0.015625)" xlink:href="#DejaVuSans-51"/>
     <use transform="translate(1459.570312 0.015625)" xlink:href="#DejaVuSans-46"/>
     <use transform="translate(1491.357422 0.015625)" xlink:href="#DejaVuSans-57"/>
     <use transform="translate(1554.980469 0.015625)" xlink:href="#DejaVuSans-49"/>
     <use transform="translate(1618.603516 0.015625)" xlink:href="#DejaVuSans-177"/>
     <use transform="translate(1702.392578 0.015625)" xlink:href="#DejaVuSans-48"/>
     <use transform="translate(1766.015625 0.015625)" xlink:href="#DejaVuSans-46"/>
     <use transform="translate(1797.802734 0.015625)" xlink:href="#DejaVuSans-51"/>
     <use transform="translate(1861.425781 0.015625)" xlink:href="#DejaVuSans-55"/>
     <use transform="translate(1925.048828 0.015625)" xlink:href="#DejaVuSans-44"/>
     <use transform="translate(1956.835938 0.015625)" xlink:href="#DejaVuSans-32"/>
     <use transform="translate(1988.623047 0.015625)" xlink:href="#DejaVuSans-115"/>
     <use transform="translate(2040.722656 0.015625)" xlink:href="#DejaVuSans-61"/>
     <use transform="translate(2124.511719 0.015625)" xlink:href="#DejaVuSans-50"/>
     <use transform="translate(2188.134766 0.015625)" xlink:href="#DejaVuSans-48"/>
     <use transform="translate(2251.757812 0.015625)" xlink:href="#DejaVuSans-46"/>
     <use transform="translate(2283.544922 0.015625)" xlink:href="#DejaVuSans-52"/>
     <use transform="translate(2347.167969 0.015625)" xlink:href="#DejaVuSans-50"/>
     <use transform="translate(2410.791016 0.015625)" xlink:href="#DejaVuSans-177"/>
     <use transform="translate(2494.580078 0.015625)" xlink:href="#DejaVuSans-48"/>
     <use transform="translate(2558.203125 0.015625)" xlink:href="#DejaVuSans-46"/>
     <use transform="translate(2589.990234 0.015625)" xlink:href="#DejaVuSans-54"/>
     <use transform="translate(2653.613281 0.015625)" xlink:href="#DejaVuSans-52"/>
     <use transform="translate(2717.236328 0.015625)" xlink:href="#DejaVuSans-44"/>
     <use transform="translate(2749.023438 0.015625)" xlink:href="#DejaVuSans-32"/>
     <use transform="translate(2780.810547 0.015625)" xlink:href="#DejaVuSans-65"/>
     <use transform="translate(2849.21875 0.015625)" xlink:href="#DejaVuSans-50"/>
     <use transform="translate(2912.841797 0.015625)" xlink:href="#DejaVuSans-61"/>
     <use transform="translate(2996.630859 0.015625)" xlink:href="#DejaVuSans-50"/>
     <use transform="translate(3060.253906 0.015625)" xlink:href="#DejaVuSans-52"/>
     <use transform="translate(3123.876953 0.015625)" xlink:href="#DejaVuSans-46"/>
     <use transform="translate(3155.664062 0.015625)" xlink:href="#DejaVuSans-48"/>
     <use transform="translate(3219.287109 0.015625)" xlink:href="#DejaVuSans-177"/>
     <use transform="translate(3303.076172 0.015625)" xlink:href="#DejaVuSans-51"/>
     <use transform="translate(3366.699219 0.015625)" xlink:href="#DejaVuSans-53"/>
     <use transform="translate(3430.322266 0.015625)" xlink:href="#DejaVuSans-46"/>
     <use transform="translate(3462.109375 0.015625)" xlink:href="#DejaVuSans-48"/>
     <use transform="translate(3525.732422 0.015625)" xlink:href="#DejaVuSans-44"/>
    </g>
    <!--       $\chi^2_r$=1.25$\pm$0.21 (44 DOF) -->
    <defs>
     <path d="M 30.03125 -12.203125 
L 26.421875 6.5 
L 6.15625 -20.84375 
L -4.4375 -20.84375 
L 24.265625 17.828125 
L 19.828125 40.828125 
Q 18.65625 46.96875 11.140625 46.96875 
L 8.734375 46.96875 
L 10.203125 54.6875 
L 13.625 54.59375 
Q 26.171875 54.25 27.734375 46.09375 
L 31.34375 27.390625 
L 51.609375 54.734375 
L 62.203125 54.734375 
L 33.5 16.0625 
L 37.9375 -6.9375 
Q 39.109375 -13.09375 46.625 -13.09375 
L 49.03125 -13.09375 
L 47.5625 -20.796875 
L 44.140625 -20.703125 
Q 31.59375 -20.359375 30.03125 -12.203125 
z
" id="DejaVuSans-Oblique-967"/>
     <path d="M 44.578125 46.390625 
Q 43.21875 47.125 41.453125 47.515625 
Q 39.703125 47.90625 37.703125 47.90625 
Q 30.515625 47.90625 25.140625 42.453125 
Q 19.78125 37.015625 18.015625 27.875 
L 12.5 0 
L 3.515625 0 
L 14.203125 54.6875 
L 23.1875 54.6875 
L 21.484375 46.1875 
Q 25.046875 50.921875 30 53.453125 
Q 34.96875 56 40.578125 56 
Q 42.046875 56 43.453125 55.828125 
Q 44.875 55.671875 46.296875 55.28125 
z
" id="DejaVuSans-Oblique-114"/>
     <path d="M 19.671875 64.796875 
L 19.671875 8.109375 
L 31.59375 8.109375 
Q 46.6875 8.109375 53.6875 14.9375 
Q 60.6875 21.78125 60.6875 36.53125 
Q 60.6875 51.171875 53.6875 57.984375 
Q 46.6875 64.796875 31.59375 64.796875 
z
M 9.8125 72.90625 
L 30.078125 72.90625 
Q 51.265625 72.90625 61.171875 64.09375 
Q 71.09375 55.28125 71.09375 36.53125 
Q 71.09375 17.671875 61.125 8.828125 
Q 51.171875 0 30.078125 0 
L 9.8125 0 
z
" id="DejaVuSans-68"/>
     <path d="M 39.40625 66.21875 
Q 28.65625 66.21875 22.328125 58.203125 
Q 16.015625 50.203125 16.015625 36.375 
Q 16.015625 22.609375 22.328125 14.59375 
Q 28.65625 6.59375 39.40625 6.59375 
Q 50.140625 6.59375 56.421875 14.59375 
Q 62.703125 22.609375 62.703125 36.375 
Q 62.703125 50.203125 56.421875 58.203125 
Q 50.140625 66.21875 39.40625 66.21875 
z
M 39.40625 74.21875 
Q 54.734375 74.21875 63.90625 63.9375 
Q 73.09375 53.65625 73.09375 36.375 
Q 73.09375 19.140625 63.90625 8.859375 
Q 54.734375 -1.421875 39.40625 -1.421875 
Q 24.03125 -1.421875 14.8125 8.828125 
Q 5.609375 19.09375 5.609375 36.375 
Q 5.609375 53.65625 14.8125 63.9375 
Q 24.03125 74.21875 39.40625 74.21875 
z
" id="DejaVuSans-79"/>
    </defs>
    <g transform="translate(69.12 38.508)scale(0.1 -0.1)">
     <use transform="translate(0 0.765625)" xlink:href="#DejaVuSans-32"/>
     <use transform="translate(31.787109 0.765625)" xlink:href="#DejaVuSans-32"/>
     <use transform="translate(63.574219 0.765625)" xlink:href="#DejaVuSans-32"/>
     <use transform="translate(95.361328 0.765625)" xlink:href="#DejaVuSans-32"/>
     <use transform="translate(127.148438 0.765625)" xlink:href="#DejaVuSans-32"/>
     <use transform="translate(158.935547 0.765625)" xlink:href="#DejaVuSans-32"/>
     <use transform="translate(190.722656 0.765625)" xlink:href="#DejaVuSans-Oblique-967"/>
     <use transform="translate(254.375052 39.046875)scale(0.7)" xlink:href="#DejaVuSans-50"/>
     <use transform="translate(249.902344 -26.578125)scale(0.7)" xlink:href="#DejaVuSans-Oblique-114"/>
     <use transform="translate(301.64556 0.765625)" xlink:href="#DejaVuSans-61"/>
     <use transform="translate(385.434622 0.765625)" xlink:href="#DejaVuSans-49"/>
     <use transform="translate(449.057669 0.765625)" xlink:href="#DejaVuSans-46"/>
     <use transform="translate(480.766654 0.765625)" xlink:href="#DejaVuSans-50"/>
     <use transform="translate(544.389701 0.765625)" xlink:href="#DejaVuSans-53"/>
     <use transform="translate(608.012747 0.765625)" xlink:href="#DejaVuSans-177"/>
     <use transform="translate(691.80181 0.765625)" xlink:href="#DejaVuSans-48"/>
     <use transform="translate(755.424857 0.765625)" xlink:href="#DejaVuSans-46"/>
     <use transform="translate(787.133841 0.765625)" xlink:href="#DejaVuSans-50"/>
     <use transform="translate(850.756888 0.765625)" xlink:href="#DejaVuSans-49"/>
     <use transform="translate(914.379935 0.765625)" xlink:href="#DejaVuSans-32"/>
     <use transform="translate(946.167044 0.765625)" xlink:href="#DejaVuSans-40"/>
     <use transform="translate(985.180716 0.765625)" xlink:href="#DejaVuSans-52"/>
     <use transform="translate(1048.803763 0.765625)" xlink:href="#DejaVuSans-52"/>
     <use transform="translate(1112.42681 0.765625)" xlink:href="#DejaVuSans-32"/>
     <use transform="translate(1144.213919 0.765625)" xlink:href="#DejaVuSans-68"/>
     <use transform="translate(1221.215872 0.765625)" xlink:href="#DejaVuSans-79"/>
     <use transform="translate(1299.92681 0.765625)" xlink:href="#DejaVuSans-70"/>
     <use transform="translate(1357.446341 0.765625)" xlink:href="#DejaVuSans-41"/>
    </g>
   </g>
  </g>
  <g id="axes_2">
   <g id="patch_7">
    <path d="M 69.12 311.04 
L 414.72 311.04 
L 414.72 103.68 
L 69.12 103.68 
z
" style="fill:#ffffff;"/>
   </g>
   <g id="matplotlib.axis_3">
    <g id="xtick_6">
     <g id="line2d_11">
      <g>
       <use style="stroke:#000000;stroke-width:0.8;" x="75.766154" xlink:href="#m3e0ef5f4b9" y="311.04"/>
      </g>
     </g>
     <g id="text_5">
      <!-- 300 -->
      <g transform="translate(66.222404 325.638437)scale(0.1 -0.1)">
       <use xlink:href="#DejaVuSans-51"/>
       <use x="63.623047" xlink:href="#DejaVuSans-48"/>
       <use x="127.246094" xlink:href="#DejaVuSans-48"/>
      </g>
     </g>
    </g>
    <g id="xtick_7">
     <g id="line2d_12">
      <g>
       <use style="stroke:#000000;stroke-width:0.8;" x="146.469918" xlink:href="#m3e0ef5f4b9" y="311.04"/>
      </g>
     </g>
     <g id="text_6">
      <!-- 310 -->
      <g transform="translate(136.926168 325.638437)scale(0.1 -0.1)">
       <use xlink:href="#DejaVuSans-51"/>
       <use x="63.623047" xlink:href="#DejaVuSans-49"/>
       <use x="127.246094" xlink:href="#DejaVuSans-48"/>
      </g>
     </g>
    </g>
    <g id="xtick_8">
     <g id="line2d_13">
      <g>
       <use style="stroke:#000000;stroke-width:0.8;" x="217.173682" xlink:href="#m3e0ef5f4b9" y="311.04"/>
      </g>
     </g>
     <g id="text_7">
      <!-- 320 -->
      <g transform="translate(207.629932 325.638437)scale(0.1 -0.1)">
       <use xlink:href="#DejaVuSans-51"/>
       <use x="63.623047" xlink:href="#DejaVuSans-50"/>
       <use x="127.246094" xlink:href="#DejaVuSans-48"/>
      </g>
     </g>
    </g>
    <g id="xtick_9">
     <g id="line2d_14">
      <g>
       <use style="stroke:#000000;stroke-width:0.8;" x="287.877447" xlink:href="#m3e0ef5f4b9" y="311.04"/>
      </g>
     </g>
     <g id="text_8">
      <!-- 330 -->
      <g transform="translate(278.333697 325.638437)scale(0.1 -0.1)">
       <use xlink:href="#DejaVuSans-51"/>
       <use x="63.623047" xlink:href="#DejaVuSans-51"/>
       <use x="127.246094" xlink:href="#DejaVuSans-48"/>
      </g>
     </g>
    </g>
    <g id="xtick_10">
     <g id="line2d_15">
      <g>
       <use style="stroke:#000000;stroke-width:0.8;" x="358.581211" xlink:href="#m3e0ef5f4b9" y="311.04"/>
      </g>
     </g>
     <g id="text_9">
      <!-- 340 -->
      <g transform="translate(349.037461 325.638437)scale(0.1 -0.1)">
       <use xlink:href="#DejaVuSans-51"/>
       <use x="63.623047" xlink:href="#DejaVuSans-52"/>
       <use x="127.246094" xlink:href="#DejaVuSans-48"/>
      </g>
     </g>
    </g>
    <g id="text_10">
     <!-- Channel -->
     <defs>
      <path d="M 64.40625 67.28125 
L 64.40625 56.890625 
Q 59.421875 61.53125 53.78125 63.8125 
Q 48.140625 66.109375 41.796875 66.109375 
Q 29.296875 66.109375 22.65625 58.46875 
Q 16.015625 50.828125 16.015625 36.375 
Q 16.015625 21.96875 22.65625 14.328125 
Q 29.296875 6.6875 41.796875 6.6875 
Q 48.140625 6.6875 53.78125 8.984375 
Q 59.421875 11.28125 64.40625 15.921875 
L 64.40625 5.609375 
Q 59.234375 2.09375 53.4375 0.328125 
Q 47.65625 -1.421875 41.21875 -1.421875 
Q 24.65625 -1.421875 15.125 8.703125 
Q 5.609375 18.84375 5.609375 36.375 
Q 5.609375 53.953125 15.125 64.078125 
Q 24.65625 74.21875 41.21875 74.21875 
Q 47.75 74.21875 53.53125 72.484375 
Q 59.328125 70.75 64.40625 67.28125 
z
" id="DejaVuSans-67"/>
      <path d="M 54.890625 33.015625 
L 54.890625 0 
L 45.90625 0 
L 45.90625 32.71875 
Q 45.90625 40.484375 42.875 44.328125 
Q 39.84375 48.1875 33.796875 48.1875 
Q 26.515625 48.1875 22.3125 43.546875 
Q 18.109375 38.921875 18.109375 30.90625 
L 18.109375 0 
L 9.078125 0 
L 9.078125 75.984375 
L 18.109375 75.984375 
L 18.109375 46.1875 
Q 21.34375 51.125 25.703125 53.5625 
Q 30.078125 56 35.796875 56 
Q 45.21875 56 50.046875 50.171875 
Q 54.890625 44.34375 54.890625 33.015625 
z
" id="DejaVuSans-104"/>
     </defs>
     <g transform="translate(221.392656 339.316562)scale(0.1 -0.1)">
      <use xlink:href="#DejaVuSans-67"/>
      <use x="69.824219" xlink:href="#DejaVuSans-104"/>
      <use x="133.203125" xlink:href="#DejaVuSans-97"/>
      <use x="194.482422" xlink:href="#DejaVuSans-110"/>
      <use x="257.861328" xlink:href="#DejaVuSans-110"/>
      <use x="321.240234" xlink:href="#DejaVuSans-101"/>
      <use x="382.763672" xlink:href="#DejaVuSans-108"/>
     </g>
    </g>
   </g>
   <g id="matplotlib.axis_4">
    <g id="ytick_4">
     <g id="line2d_16">
      <g>
       <use style="stroke:#000000;stroke-width:0.8;" x="69.12" xlink:href="#m983cd3f787" y="282.67823"/>
      </g>
     </g>
     <g id="text_11">
      <!-- 200 -->
      <g transform="translate(43.0325 286.477449)scale(0.1 -0.1)">
       <use xlink:href="#DejaVuSans-50"/>
       <use x="63.623047" xlink:href="#DejaVuSans-48"/>
       <use x="127.246094" xlink:href="#DejaVuSans-48"/>
      </g>
     </g>
    </g>
    <g id="ytick_5">
     <g id="line2d_17">
      <g>
       <use style="stroke:#000000;stroke-width:0.8;" x="69.12" xlink:href="#m983cd3f787" y="240.948708"/>
      </g>
     </g>
     <g id="text_12">
      <!-- 300 -->
      <g transform="translate(43.0325 244.747926)scale(0.1 -0.1)">
       <use xlink:href="#DejaVuSans-51"/>
       <use x="63.623047" xlink:href="#DejaVuSans-48"/>
       <use x="127.246094" xlink:href="#DejaVuSans-48"/>
      </g>
     </g>
    </g>
    <g id="ytick_6">
     <g id="line2d_18">
      <g>
       <use style="stroke:#000000;stroke-width:0.8;" x="69.12" xlink:href="#m983cd3f787" y="199.219185"/>
      </g>
     </g>
     <g id="text_13">
      <!-- 400 -->
      <g transform="translate(43.0325 203.018404)scale(0.1 -0.1)">
       <use xlink:href="#DejaVuSans-52"/>
       <use x="63.623047" xlink:href="#DejaVuSans-48"/>
       <use x="127.246094" xlink:href="#DejaVuSans-48"/>
      </g>
     </g>
    </g>
    <g id="ytick_7">
     <g id="line2d_19">
      <g>
       <use style="stroke:#000000;stroke-width:0.8;" x="69.12" xlink:href="#m983cd3f787" y="157.489663"/>
      </g>
     </g>
     <g id="text_14">
      <!-- 500 -->
      <g transform="translate(43.0325 161.288882)scale(0.1 -0.1)">
       <use xlink:href="#DejaVuSans-53"/>
       <use x="63.623047" xlink:href="#DejaVuSans-48"/>
       <use x="127.246094" xlink:href="#DejaVuSans-48"/>
      </g>
     </g>
    </g>
    <g id="ytick_8">
     <g id="line2d_20">
      <g>
       <use style="stroke:#000000;stroke-width:0.8;" x="69.12" xlink:href="#m983cd3f787" y="115.760141"/>
      </g>
     </g>
     <g id="text_15">
      <!-- 600 -->
      <g transform="translate(43.0325 119.55936)scale(0.1 -0.1)">
       <use xlink:href="#DejaVuSans-54"/>
       <use x="63.623047" xlink:href="#DejaVuSans-48"/>
       <use x="127.246094" xlink:href="#DejaVuSans-48"/>
      </g>
     </g>
    </g>
    <g id="text_16">
     <!-- Count -->
     <g transform="translate(36.952812 222.208438)rotate(-90)scale(0.1 -0.1)">
      <use xlink:href="#DejaVuSans-67"/>
      <use x="69.824219" xlink:href="#DejaVuSans-111"/>
      <use x="131.005859" xlink:href="#DejaVuSans-117"/>
      <use x="194.384766" xlink:href="#DejaVuSans-110"/>
      <use x="257.763672" xlink:href="#DejaVuSans-116"/>
     </g>
    </g>
   </g>
   <g id="LineCollection_2">
    <path clip-path="url(#p4900a43e97)" d="M 75.766154 307.052308 
L 75.766154 296.695313 
" style="fill:none;stroke:#0000ff;stroke-width:1.5;"/>
    <path clip-path="url(#p4900a43e97)" d="M 82.83653 294.613487 
L 82.83653 283.26183 
" style="fill:none;stroke:#0000ff;stroke-width:1.5;"/>
    <path clip-path="url(#p4900a43e97)" d="M 89.906907 295.417314 
L 89.906907 284.127184 
" style="fill:none;stroke:#0000ff;stroke-width:1.5;"/>
    <path clip-path="url(#p4900a43e97)" d="M 96.977283 286.163772 
L 96.977283 274.185145 
" style="fill:none;stroke:#0000ff;stroke-width:1.5;"/>
    <path clip-path="url(#p4900a43e97)" d="M 104.04766 274.066213 
L 104.04766 261.244991 
" style="fill:none;stroke:#0000ff;stroke-width:1.5;"/>
    <path clip-path="url(#p4900a43e97)" d="M 111.118036 279.715294 
L 111.118036 267.280176 
" style="fill:none;stroke:#0000ff;stroke-width:1.5;"/>
    <path clip-path="url(#p4900a43e97)" d="M 118.188412 270.027669 
L 118.188412 256.93763 
" style="fill:none;stroke:#0000ff;stroke-width:1.5;"/>
    <path clip-path="url(#p4900a43e97)" d="M 125.258789 247.771214 
L 125.258789 233.291611 
" style="fill:none;stroke:#0000ff;stroke-width:1.5;"/>
    <path clip-path="url(#p4900a43e97)" d="M 132.329165 252.632974 
L 132.329165 238.444936 
" style="fill:none;stroke:#0000ff;stroke-width:1.5;"/>
    <path clip-path="url(#p4900a43e97)" d="M 139.399542 219.764876 
L 139.399542 203.711208 
" style="fill:none;stroke:#0000ff;stroke-width:1.5;"/>
    <path clip-path="url(#p4900a43e97)" d="M 146.469918 207.971946 
L 146.469918 191.301015 
" style="fill:none;stroke:#0000ff;stroke-width:1.5;"/>
    <path clip-path="url(#p4900a43e97)" d="M 153.540295 219.35842 
L 153.540295 203.283073 
" style="fill:none;stroke:#0000ff;stroke-width:1.5;"/>
    <path clip-path="url(#p4900a43e97)" d="M 160.610671 219.764876 
L 160.610671 203.711208 
" style="fill:none;stroke:#0000ff;stroke-width:1.5;"/>
    <path clip-path="url(#p4900a43e97)" d="M 167.681047 196.575194 
L 167.681047 179.329235 
" style="fill:none;stroke:#0000ff;stroke-width:1.5;"/>
    <path clip-path="url(#p4900a43e97)" d="M 174.751424 186.799128 
L 174.751424 169.07513 
" style="fill:none;stroke:#0000ff;stroke-width:1.5;"/>
    <path clip-path="url(#p4900a43e97)" d="M 181.8218 190.465916 
L 181.8218 172.919656 
" style="fill:none;stroke:#0000ff;stroke-width:1.5;"/>
    <path clip-path="url(#p4900a43e97)" d="M 188.892177 166.820668 
L 188.892177 148.158658 
" style="fill:none;stroke:#0000ff;stroke-width:1.5;"/>
    <path clip-path="url(#p4900a43e97)" d="M 195.962553 166.004721 
L 195.962553 147.305424 
" style="fill:none;stroke:#0000ff;stroke-width:1.5;"/>
    <path clip-path="url(#p4900a43e97)" d="M 203.03293 176.201318 
L 203.03293 157.973588 
" style="fill:none;stroke:#0000ff;stroke-width:1.5;"/>
    <path clip-path="url(#p4900a43e97)" d="M 210.103306 156.210524 
L 210.103306 137.069451 
" style="fill:none;stroke:#0000ff;stroke-width:1.5;"/>
    <path clip-path="url(#p4900a43e97)" d="M 217.173682 128.025541 
L 217.173682 107.667692 
" style="fill:none;stroke:#0000ff;stroke-width:1.5;"/>
    <path clip-path="url(#p4900a43e97)" d="M 224.244059 164.372716 
L 224.244059 145.599068 
" style="fill:none;stroke:#0000ff;stroke-width:1.5;"/>
    <path clip-path="url(#p4900a43e97)" d="M 231.314435 147.228123 
L 231.314435 127.690862 
" style="fill:none;stroke:#0000ff;stroke-width:1.5;"/>
    <path clip-path="url(#p4900a43e97)" d="M 238.384812 156.210524 
L 238.384812 137.069451 
" style="fill:none;stroke:#0000ff;stroke-width:1.5;"/>
    <path clip-path="url(#p4900a43e97)" d="M 245.455188 150.086598 
L 245.455188 130.67452 
" style="fill:none;stroke:#0000ff;stroke-width:1.5;"/>
    <path clip-path="url(#p4900a43e97)" d="M 252.525565 135.790311 
L 252.525565 115.760141 
" style="fill:none;stroke:#0000ff;stroke-width:1.5;"/>
    <path clip-path="url(#p4900a43e97)" d="M 259.595941 155.394111 
L 259.595941 136.216683 
" style="fill:none;stroke:#0000ff;stroke-width:1.5;"/>
    <path clip-path="url(#p4900a43e97)" d="M 266.666318 141.918475 
L 266.666318 122.150834 
" style="fill:none;stroke:#0000ff;stroke-width:1.5;"/>
    <path clip-path="url(#p4900a43e97)" d="M 273.736694 158.659554 
L 273.736694 139.627963 
" style="fill:none;stroke:#0000ff;stroke-width:1.5;"/>
    <path clip-path="url(#p4900a43e97)" d="M 280.80707 154.985892 
L 280.80707 135.790311 
" style="fill:none;stroke:#0000ff;stroke-width:1.5;"/>
    <path clip-path="url(#p4900a43e97)" d="M 287.877447 156.210524 
L 287.877447 137.069451 
" style="fill:none;stroke:#0000ff;stroke-width:1.5;"/>
    <path clip-path="url(#p4900a43e97)" d="M 294.947823 185.576668 
L 294.947823 167.793819 
" style="fill:none;stroke:#0000ff;stroke-width:1.5;"/>
    <path clip-path="url(#p4900a43e97)" d="M 302.0182 163.964691 
L 302.0182 145.172502 
" style="fill:none;stroke:#0000ff;stroke-width:1.5;"/>
    <path clip-path="url(#p4900a43e97)" d="M 309.088576 196.575194 
L 309.088576 179.329235 
" style="fill:none;stroke:#0000ff;stroke-width:1.5;"/>
    <path clip-path="url(#p4900a43e97)" d="M 316.158953 201.460707 
L 316.158953 184.458807 
" style="fill:none;stroke:#0000ff;stroke-width:1.5;"/>
    <path clip-path="url(#p4900a43e97)" d="M 323.229329 188.836343 
L 323.229329 171.210867 
" style="fill:none;stroke:#0000ff;stroke-width:1.5;"/>
    <path clip-path="url(#p4900a43e97)" d="M 330.299705 220.577743 
L 330.299705 204.567522 
" style="fill:none;stroke:#0000ff;stroke-width:1.5;"/>
    <path clip-path="url(#p4900a43e97)" d="M 337.370082 224.641181 
L 337.370082 208.849989 
" style="fill:none;stroke:#0000ff;stroke-width:1.5;"/>
    <path clip-path="url(#p4900a43e97)" d="M 344.440458 231.951442 
L 344.440458 216.562355 
" style="fill:none;stroke:#0000ff;stroke-width:1.5;"/>
    <path clip-path="url(#p4900a43e97)" d="M 351.510835 236.010395 
L 351.510835 220.849307 
" style="fill:none;stroke:#0000ff;stroke-width:1.5;"/>
    <path clip-path="url(#p4900a43e97)" d="M 358.581211 253.847943 
L 358.581211 239.733738 
" style="fill:none;stroke:#0000ff;stroke-width:1.5;"/>
    <path clip-path="url(#p4900a43e97)" d="M 365.651588 253.442975 
L 365.651588 239.304116 
" style="fill:none;stroke:#0000ff;stroke-width:1.5;"/>
    <path clip-path="url(#p4900a43e97)" d="M 372.721964 263.560439 
L 372.721964 250.051413 
" style="fill:none;stroke:#0000ff;stroke-width:1.5;"/>
    <path clip-path="url(#p4900a43e97)" d="M 379.79234 281.328206 
L 379.79234 269.005626 
" style="fill:none;stroke:#0000ff;stroke-width:1.5;"/>
    <path clip-path="url(#p4900a43e97)" d="M 386.862717 273.662485 
L 386.862717 260.814128 
" style="fill:none;stroke:#0000ff;stroke-width:1.5;"/>
    <path clip-path="url(#p4900a43e97)" d="M 393.933093 295.015421 
L 393.933093 283.694486 
" style="fill:none;stroke:#0000ff;stroke-width:1.5;"/>
    <path clip-path="url(#p4900a43e97)" d="M 401.00347 301.03922 
L 401.00347 290.189544 
" style="fill:none;stroke:#0000ff;stroke-width:1.5;"/>
    <path clip-path="url(#p4900a43e97)" d="M 408.073846 306.651799 
L 408.073846 296.261231 
" style="fill:none;stroke:#0000ff;stroke-width:1.5;"/>
   </g>
   <g id="line2d_21">
    <path clip-path="url(#p4900a43e97)" d="M 75.766154 301.450657 
L 81.42104 296.1341 
L 87.075925 290.519793 
L 93.063451 284.26096 
L 99.383617 277.320474 
L 106.036424 269.669979 
L 113.021871 261.294202 
L 120.672599 251.775694 
L 129.986528 239.811062 
L 143.957422 221.437115 
L 158.593597 202.281877 
L 166.909605 191.758574 
L 173.895052 183.273624 
L 179.882578 176.338662 
L 185.537464 170.134152 
L 190.527069 164.979382 
L 195.184033 160.4698 
L 199.840998 156.278111 
L 204.165322 152.692079 
L 208.157006 149.660114 
L 212.14869 146.909141 
L 215.807734 144.644871 
L 219.466778 142.635818 
L 223.125821 140.889754 
L 226.452225 139.536399 
L 229.778628 138.410462 
L 233.105031 137.515662 
L 236.431435 136.854998 
L 239.757838 136.430733 
L 243.084241 136.244385 
L 246.410644 136.296714 
L 249.737048 136.587721 
L 253.063451 137.116647 
L 256.389854 137.881979 
L 259.716258 138.881453 
L 263.042661 140.112072 
L 266.369064 141.570118 
L 270.028108 143.431351 
L 273.687152 145.555582 
L 277.346195 147.935035 
L 281.337879 150.811664 
L 285.329563 153.969278 
L 289.653888 157.691407 
L 293.978212 161.708905 
L 298.635177 166.343087 
L 303.624782 171.633358 
L 308.947027 177.609947 
L 314.601913 184.291121 
L 320.922079 192.099208 
L 328.240166 201.496221 
L 337.554096 213.836811 
L 369.820208 256.923134 
L 377.803576 267.036443 
L 385.121663 275.946928 
L 391.77447 283.700568 
L 398.094636 290.729012 
L 404.082162 297.06343 
L 408.073846 301.103813 
L 408.073846 301.103813 
" style="fill:none;stroke:#ff0000;stroke-linecap:square;stroke-width:1.5;"/>
   </g>
   <g id="line2d_22">
    <g clip-path="url(#p4900a43e97)">
     <use style="fill:#0000ff;stroke:#0000ff;" x="75.766154" xlink:href="#m16695ce30a" y="301.87381"/>
     <use style="fill:#0000ff;stroke:#0000ff;" x="82.83653" xlink:href="#m16695ce30a" y="288.937658"/>
     <use style="fill:#0000ff;stroke:#0000ff;" x="89.906907" xlink:href="#m16695ce30a" y="289.772249"/>
     <use style="fill:#0000ff;stroke:#0000ff;" x="96.977283" xlink:href="#m16695ce30a" y="280.174459"/>
     <use style="fill:#0000ff;stroke:#0000ff;" x="104.04766" xlink:href="#m16695ce30a" y="267.655602"/>
     <use style="fill:#0000ff;stroke:#0000ff;" x="111.118036" xlink:href="#m16695ce30a" y="273.497735"/>
     <use style="fill:#0000ff;stroke:#0000ff;" x="118.188412" xlink:href="#m16695ce30a" y="263.48265"/>
     <use style="fill:#0000ff;stroke:#0000ff;" x="125.258789" xlink:href="#m16695ce30a" y="240.531412"/>
     <use style="fill:#0000ff;stroke:#0000ff;" x="132.329165" xlink:href="#m16695ce30a" y="245.538955"/>
     <use style="fill:#0000ff;stroke:#0000ff;" x="139.399542" xlink:href="#m16695ce30a" y="211.738042"/>
     <use style="fill:#0000ff;stroke:#0000ff;" x="146.469918" xlink:href="#m16695ce30a" y="199.636481"/>
     <use style="fill:#0000ff;stroke:#0000ff;" x="153.540295" xlink:href="#m16695ce30a" y="211.320747"/>
     <use style="fill:#0000ff;stroke:#0000ff;" x="160.610671" xlink:href="#m16695ce30a" y="211.738042"/>
     <use style="fill:#0000ff;stroke:#0000ff;" x="167.681047" xlink:href="#m16695ce30a" y="187.952214"/>
     <use style="fill:#0000ff;stroke:#0000ff;" x="174.751424" xlink:href="#m16695ce30a" y="177.937129"/>
     <use style="fill:#0000ff;stroke:#0000ff;" x="181.8218" xlink:href="#m16695ce30a" y="181.692786"/>
     <use style="fill:#0000ff;stroke:#0000ff;" x="188.892177" xlink:href="#m16695ce30a" y="157.489663"/>
     <use style="fill:#0000ff;stroke:#0000ff;" x="195.962553" xlink:href="#m16695ce30a" y="156.655073"/>
     <use style="fill:#0000ff;stroke:#0000ff;" x="203.03293" xlink:href="#m16695ce30a" y="167.087453"/>
     <use style="fill:#0000ff;stroke:#0000ff;" x="210.103306" xlink:href="#m16695ce30a" y="146.639987"/>
     <use style="fill:#0000ff;stroke:#0000ff;" x="217.173682" xlink:href="#m16695ce30a" y="117.846617"/>
     <use style="fill:#0000ff;stroke:#0000ff;" x="224.244059" xlink:href="#m16695ce30a" y="154.985892"/>
     <use style="fill:#0000ff;stroke:#0000ff;" x="231.314435" xlink:href="#m16695ce30a" y="137.459492"/>
     <use style="fill:#0000ff;stroke:#0000ff;" x="238.384812" xlink:href="#m16695ce30a" y="146.639987"/>
     <use style="fill:#0000ff;stroke:#0000ff;" x="245.455188" xlink:href="#m16695ce30a" y="140.380559"/>
     <use style="fill:#0000ff;stroke:#0000ff;" x="252.525565" xlink:href="#m16695ce30a" y="125.775226"/>
     <use style="fill:#0000ff;stroke:#0000ff;" x="259.595941" xlink:href="#m16695ce30a" y="145.805397"/>
     <use style="fill:#0000ff;stroke:#0000ff;" x="266.666318" xlink:href="#m16695ce30a" y="132.034654"/>
     <use style="fill:#0000ff;stroke:#0000ff;" x="273.736694" xlink:href="#m16695ce30a" y="149.143759"/>
     <use style="fill:#0000ff;stroke:#0000ff;" x="280.80707" xlink:href="#m16695ce30a" y="145.388102"/>
     <use style="fill:#0000ff;stroke:#0000ff;" x="287.877447" xlink:href="#m16695ce30a" y="146.639987"/>
     <use style="fill:#0000ff;stroke:#0000ff;" x="294.947823" xlink:href="#m16695ce30a" y="176.685243"/>
     <use style="fill:#0000ff;stroke:#0000ff;" x="302.0182" xlink:href="#m16695ce30a" y="154.568596"/>
     <use style="fill:#0000ff;stroke:#0000ff;" x="309.088576" xlink:href="#m16695ce30a" y="187.952214"/>
     <use style="fill:#0000ff;stroke:#0000ff;" x="316.158953" xlink:href="#m16695ce30a" y="192.959757"/>
     <use style="fill:#0000ff;stroke:#0000ff;" x="323.229329" xlink:href="#m16695ce30a" y="180.023605"/>
     <use style="fill:#0000ff;stroke:#0000ff;" x="330.299705" xlink:href="#m16695ce30a" y="212.572632"/>
     <use style="fill:#0000ff;stroke:#0000ff;" x="337.370082" xlink:href="#m16695ce30a" y="216.745585"/>
     <use style="fill:#0000ff;stroke:#0000ff;" x="344.440458" xlink:href="#m16695ce30a" y="224.256899"/>
     <use style="fill:#0000ff;stroke:#0000ff;" x="351.510835" xlink:href="#m16695ce30a" y="228.429851"/>
     <use style="fill:#0000ff;stroke:#0000ff;" x="358.581211" xlink:href="#m16695ce30a" y="246.790841"/>
     <use style="fill:#0000ff;stroke:#0000ff;" x="365.651588" xlink:href="#m16695ce30a" y="246.373546"/>
     <use style="fill:#0000ff;stroke:#0000ff;" x="372.721964" xlink:href="#m16695ce30a" y="256.805926"/>
     <use style="fill:#0000ff;stroke:#0000ff;" x="379.79234" xlink:href="#m16695ce30a" y="275.166916"/>
     <use style="fill:#0000ff;stroke:#0000ff;" x="386.862717" xlink:href="#m16695ce30a" y="267.238307"/>
     <use style="fill:#0000ff;stroke:#0000ff;" x="393.933093" xlink:href="#m16695ce30a" y="289.354953"/>
     <use style="fill:#0000ff;stroke:#0000ff;" x="401.00347" xlink:href="#m16695ce30a" y="295.614382"/>
     <use style="fill:#0000ff;stroke:#0000ff;" x="408.073846" xlink:href="#m16695ce30a" y="301.456515"/>
    </g>
   </g>
   <g id="patch_8">
    <path d="M 69.12 311.04 
L 69.12 103.68 
" style="fill:none;stroke:#000000;stroke-linecap:square;stroke-linejoin:miter;stroke-width:0.8;"/>
   </g>
   <g id="patch_9">
    <path d="M 414.72 311.04 
L 414.72 103.68 
" style="fill:none;stroke:#000000;stroke-linecap:square;stroke-linejoin:miter;stroke-width:0.8;"/>
   </g>
   <g id="patch_10">
    <path d="M 69.12 311.04 
L 414.72 311.04 
" style="fill:none;stroke:#000000;stroke-linecap:square;stroke-linejoin:miter;stroke-width:0.8;"/>
   </g>
   <g id="patch_11">
    <path d="M 69.12 103.68 
L 414.72 103.68 
" style="fill:none;stroke:#000000;stroke-linecap:square;stroke-linejoin:miter;stroke-width:0.8;"/>
   </g>
  </g>
 </g>
 <defs>
  <clipPath id="p1a6a574348">
   <rect height="51.84" width="345.6" x="69.12" y="44.928"/>
  </clipPath>
  <clipPath id="p4900a43e97">
   <rect height="207.36" width="345.6" x="69.12" y="103.68"/>
  </clipPath>
 </defs>
</svg>
