<?xml version="1.0" encoding="utf-8" standalone="no"?>
<!DOCTYPE svg PUBLIC "-//W3C//DTD SVG 1.1//EN"
  "http://www.w3.org/Graphics/SVG/1.1/DTD/svg11.dtd">
<!-- Created with matplotlib (http://matplotlib.org/) -->
<svg height="345pt" version="1.1" viewBox="0 0 460 345" width="460pt" xmlns="http://www.w3.org/2000/svg" xmlns:xlink="http://www.w3.org/1999/xlink">
 <defs>
  <style type="text/css">
*{stroke-linecap:butt;stroke-linejoin:round;}
  </style>
 </defs>
 <g id="figure_1">
  <g id="patch_1">
   <path d="M 0 345.6 
L 460.8 345.6 
L 460.8 0 
L 0 0 
z
" style="fill:#ffffff;"/>
  </g>
  <g id="axes_1">
   <g id="patch_2">
    <path d="M 69.12 96.768 
L 414.72 96.768 
L 414.72 44.928 
L 69.12 44.928 
z
" style="fill:#ffffff;"/>
   </g>
   <g id="matplotlib.axis_1">
    <g id="xtick_1">
     <g id="line2d_1">
      <defs>
       <path d="M 0 0 
L 0 3.5 
" id="me1acf9bb37" style="stroke:#000000;stroke-width:0.8;"/>
      </defs>
      <g>
       <use style="stroke:#000000;stroke-width:0.8;" x="75.766154" xlink:href="#me1acf9bb37" y="96.768"/>
      </g>
     </g>
    </g>
    <g id="xtick_2">
     <g id="line2d_2">
      <g>
       <use style="stroke:#000000;stroke-width:0.8;" x="124.634932" xlink:href="#me1acf9bb37" y="96.768"/>
      </g>
     </g>
    </g>
    <g id="xtick_3">
     <g id="line2d_3">
      <g>
       <use style="stroke:#000000;stroke-width:0.8;" x="173.50371" xlink:href="#me1acf9bb37" y="96.768"/>
      </g>
     </g>
    </g>
    <g id="xtick_4">
     <g id="line2d_4">
      <g>
       <use style="stroke:#000000;stroke-width:0.8;" x="222.372489" xlink:href="#me1acf9bb37" y="96.768"/>
      </g>
     </g>
    </g>
    <g id="xtick_5">
     <g id="line2d_5">
      <g>
       <use style="stroke:#000000;stroke-width:0.8;" x="271.241267" xlink:href="#me1acf9bb37" y="96.768"/>
      </g>
     </g>
    </g>
    <g id="xtick_6">
     <g id="line2d_6">
      <g>
       <use style="stroke:#000000;stroke-width:0.8;" x="320.110045" xlink:href="#me1acf9bb37" y="96.768"/>
      </g>
     </g>
    </g>
    <g id="xtick_7">
     <g id="line2d_7">
      <g>
       <use style="stroke:#000000;stroke-width:0.8;" x="368.978824" xlink:href="#me1acf9bb37" y="96.768"/>
      </g>
     </g>
    </g>
   </g>
   <g id="matplotlib.axis_2">
    <g id="ytick_1">
     <g id="line2d_8">
      <defs>
       <path d="M 0 0 
L -3.5 0 
" id="md45ae6f925" style="stroke:#000000;stroke-width:0.8;"/>
      </defs>
      <g>
       <use style="stroke:#000000;stroke-width:0.8;" x="69.12" xlink:href="#md45ae6f925" y="89.167133"/>
      </g>
     </g>
     <g id="text_1">
      <!-- −2.5 -->
      <defs>
       <path d="M 10.59375 35.5 
L 73.1875 35.5 
L 73.1875 27.203125 
L 10.59375 27.203125 
z
" id="DejaVuSans-2212"/>
       <path d="M 19.1875 8.296875 
L 53.609375 8.296875 
L 53.609375 0 
L 7.328125 0 
L 7.328125 8.296875 
Q 12.9375 14.109375 22.625 23.890625 
Q 32.328125 33.6875 34.8125 36.53125 
Q 39.546875 41.84375 41.421875 45.53125 
Q 43.3125 49.21875 43.3125 52.78125 
Q 43.3125 58.59375 39.234375 62.25 
Q 35.15625 65.921875 28.609375 65.921875 
Q 23.96875 65.921875 18.8125 64.3125 
Q 13.671875 62.703125 7.8125 59.421875 
L 7.8125 69.390625 
Q 13.765625 71.78125 18.9375 73 
Q 24.125 74.21875 28.421875 74.21875 
Q 39.75 74.21875 46.484375 68.546875 
Q 53.21875 62.890625 53.21875 53.421875 
Q 53.21875 48.921875 51.53125 44.890625 
Q 49.859375 40.875 45.40625 35.40625 
Q 44.1875 33.984375 37.640625 27.21875 
Q 31.109375 20.453125 19.1875 8.296875 
z
" id="DejaVuSans-32"/>
       <path d="M 10.6875 12.40625 
L 21 12.40625 
L 21 0 
L 10.6875 0 
z
" id="DejaVuSans-2e"/>
       <path d="M 10.796875 72.90625 
L 49.515625 72.90625 
L 49.515625 64.59375 
L 19.828125 64.59375 
L 19.828125 46.734375 
Q 21.96875 47.46875 24.109375 47.828125 
Q 26.265625 48.1875 28.421875 48.1875 
Q 40.625 48.1875 47.75 41.5 
Q 54.890625 34.8125 54.890625 23.390625 
Q 54.890625 11.625 47.5625 5.09375 
Q 40.234375 -1.421875 26.90625 -1.421875 
Q 22.3125 -1.421875 17.546875 -0.640625 
Q 12.796875 0.140625 7.71875 1.703125 
L 7.71875 11.625 
Q 12.109375 9.234375 16.796875 8.0625 
Q 21.484375 6.890625 26.703125 6.890625 
Q 35.15625 6.890625 40.078125 11.328125 
Q 45.015625 15.765625 45.015625 23.390625 
Q 45.015625 31 40.078125 35.4375 
Q 35.15625 39.890625 26.703125 39.890625 
Q 22.75 39.890625 18.8125 39.015625 
Q 14.890625 38.140625 10.796875 36.28125 
z
" id="DejaVuSans-35"/>
      </defs>
      <g transform="translate(37.837187 92.966352)scale(0.1 -0.1)">
       <use xlink:href="#DejaVuSans-2212"/>
       <use x="83.789062" xlink:href="#DejaVuSans-32"/>
       <use x="147.412109" xlink:href="#DejaVuSans-2e"/>
       <use x="179.199219" xlink:href="#DejaVuSans-35"/>
      </g>
     </g>
    </g>
    <g id="ytick_2">
     <g id="line2d_9">
      <g>
       <use style="stroke:#000000;stroke-width:0.8;" x="69.12" xlink:href="#md45ae6f925" y="70.717199"/>
      </g>
     </g>
    </g>
    <g id="ytick_3">
     <g id="line2d_10">
      <g>
       <use style="stroke:#000000;stroke-width:0.8;" x="69.12" xlink:href="#md45ae6f925" y="52.267266"/>
      </g>
     </g>
     <g id="text_2">
      <!-- 2.5 -->
      <g transform="translate(46.216875 56.066484)scale(0.1 -0.1)">
       <use xlink:href="#DejaVuSans-32"/>
       <use x="63.623047" xlink:href="#DejaVuSans-2e"/>
       <use x="95.410156" xlink:href="#DejaVuSans-35"/>
      </g>
     </g>
    </g>
    <g id="text_3">
     <!-- Studentized -->
     <defs>
      <path d="M 53.515625 70.515625 
L 53.515625 60.890625 
Q 47.90625 63.578125 42.921875 64.890625 
Q 37.9375 66.21875 33.296875 66.21875 
Q 25.25 66.21875 20.875 63.09375 
Q 16.5 59.96875 16.5 54.203125 
Q 16.5 49.359375 19.40625 46.890625 
Q 22.3125 44.4375 30.421875 42.921875 
L 36.375 41.703125 
Q 47.40625 39.59375 52.65625 34.296875 
Q 57.90625 29 57.90625 20.125 
Q 57.90625 9.515625 50.796875 4.046875 
Q 43.703125 -1.421875 29.984375 -1.421875 
Q 24.8125 -1.421875 18.96875 -0.25 
Q 13.140625 0.921875 6.890625 3.21875 
L 6.890625 13.375 
Q 12.890625 10.015625 18.65625 8.296875 
Q 24.421875 6.59375 29.984375 6.59375 
Q 38.421875 6.59375 43.015625 9.90625 
Q 47.609375 13.234375 47.609375 19.390625 
Q 47.609375 24.75 44.3125 27.78125 
Q 41.015625 30.8125 33.5 32.328125 
L 27.484375 33.5 
Q 16.453125 35.6875 11.515625 40.375 
Q 6.59375 45.0625 6.59375 53.421875 
Q 6.59375 63.09375 13.40625 68.65625 
Q 20.21875 74.21875 32.171875 74.21875 
Q 37.3125 74.21875 42.625 73.28125 
Q 47.953125 72.359375 53.515625 70.515625 
z
" id="DejaVuSans-53"/>
      <path d="M 18.3125 70.21875 
L 18.3125 54.6875 
L 36.8125 54.6875 
L 36.8125 47.703125 
L 18.3125 47.703125 
L 18.3125 18.015625 
Q 18.3125 11.328125 20.140625 9.421875 
Q 21.96875 7.515625 27.59375 7.515625 
L 36.8125 7.515625 
L 36.8125 0 
L 27.59375 0 
Q 17.1875 0 13.234375 3.875 
Q 9.28125 7.765625 9.28125 18.015625 
L 9.28125 47.703125 
L 2.6875 47.703125 
L 2.6875 54.6875 
L 9.28125 54.6875 
L 9.28125 70.21875 
z
" id="DejaVuSans-74"/>
      <path d="M 8.5 21.578125 
L 8.5 54.6875 
L 17.484375 54.6875 
L 17.484375 21.921875 
Q 17.484375 14.15625 20.5 10.265625 
Q 23.53125 6.390625 29.59375 6.390625 
Q 36.859375 6.390625 41.078125 11.03125 
Q 45.3125 15.671875 45.3125 23.6875 
L 45.3125 54.6875 
L 54.296875 54.6875 
L 54.296875 0 
L 45.3125 0 
L 45.3125 8.40625 
Q 42.046875 3.421875 37.71875 1 
Q 33.40625 -1.421875 27.6875 -1.421875 
Q 18.265625 -1.421875 13.375 4.4375 
Q 8.5 10.296875 8.5 21.578125 
z
M 31.109375 56 
z
" id="DejaVuSans-75"/>
      <path d="M 45.40625 46.390625 
L 45.40625 75.984375 
L 54.390625 75.984375 
L 54.390625 0 
L 45.40625 0 
L 45.40625 8.203125 
Q 42.578125 3.328125 38.25 0.953125 
Q 33.9375 -1.421875 27.875 -1.421875 
Q 17.96875 -1.421875 11.734375 6.484375 
Q 5.515625 14.40625 5.515625 27.296875 
Q 5.515625 40.1875 11.734375 48.09375 
Q 17.96875 56 27.875 56 
Q 33.9375 56 38.25 53.625 
Q 42.578125 51.265625 45.40625 46.390625 
z
M 14.796875 27.296875 
Q 14.796875 17.390625 18.875 11.75 
Q 22.953125 6.109375 30.078125 6.109375 
Q 37.203125 6.109375 41.296875 11.75 
Q 45.40625 17.390625 45.40625 27.296875 
Q 45.40625 37.203125 41.296875 42.84375 
Q 37.203125 48.484375 30.078125 48.484375 
Q 22.953125 48.484375 18.875 42.84375 
Q 14.796875 37.203125 14.796875 27.296875 
z
" id="DejaVuSans-64"/>
      <path d="M 56.203125 29.59375 
L 56.203125 25.203125 
L 14.890625 25.203125 
Q 15.484375 15.921875 20.484375 11.0625 
Q 25.484375 6.203125 34.421875 6.203125 
Q 39.59375 6.203125 44.453125 7.46875 
Q 49.3125 8.734375 54.109375 11.28125 
L 54.109375 2.78125 
Q 49.265625 0.734375 44.1875 -0.34375 
Q 39.109375 -1.421875 33.890625 -1.421875 
Q 20.796875 -1.421875 13.15625 6.1875 
Q 5.515625 13.8125 5.515625 26.8125 
Q 5.515625 40.234375 12.765625 48.109375 
Q 20.015625 56 32.328125 56 
Q 43.359375 56 49.78125 48.890625 
Q 56.203125 41.796875 56.203125 29.59375 
z
M 47.21875 32.234375 
Q 47.125 39.59375 43.09375 43.984375 
Q 39.0625 48.390625 32.421875 48.390625 
Q 24.90625 48.390625 20.390625 44.140625 
Q 15.875 39.890625 15.1875 32.171875 
z
" id="DejaVuSans-65"/>
      <path d="M 54.890625 33.015625 
L 54.890625 0 
L 45.90625 0 
L 45.90625 32.71875 
Q 45.90625 40.484375 42.875 44.328125 
Q 39.84375 48.1875 33.796875 48.1875 
Q 26.515625 48.1875 22.3125 43.546875 
Q 18.109375 38.921875 18.109375 30.90625 
L 18.109375 0 
L 9.078125 0 
L 9.078125 54.6875 
L 18.109375 54.6875 
L 18.109375 46.1875 
Q 21.34375 51.125 25.703125 53.5625 
Q 30.078125 56 35.796875 56 
Q 45.21875 56 50.046875 50.171875 
Q 54.890625 44.34375 54.890625 33.015625 
z
" id="DejaVuSans-6e"/>
      <path d="M 9.421875 54.6875 
L 18.40625 54.6875 
L 18.40625 0 
L 9.421875 0 
z
M 9.421875 75.984375 
L 18.40625 75.984375 
L 18.40625 64.59375 
L 9.421875 64.59375 
z
" id="DejaVuSans-69"/>
      <path d="M 5.515625 54.6875 
L 48.1875 54.6875 
L 48.1875 46.484375 
L 14.40625 7.171875 
L 48.1875 7.171875 
L 48.1875 0 
L 4.296875 0 
L 4.296875 8.203125 
L 38.09375 47.515625 
L 5.515625 47.515625 
z
" id="DejaVuSans-7a"/>
     </defs>
     <g transform="translate(20.559687 100.794875)rotate(-90)scale(0.1 -0.1)">
      <use xlink:href="#DejaVuSans-53"/>
      <use x="63.476562" xlink:href="#DejaVuSans-74"/>
      <use x="102.685547" xlink:href="#DejaVuSans-75"/>
      <use x="166.064453" xlink:href="#DejaVuSans-64"/>
      <use x="229.541016" xlink:href="#DejaVuSans-65"/>
      <use x="291.064453" xlink:href="#DejaVuSans-6e"/>
      <use x="354.443359" xlink:href="#DejaVuSans-74"/>
      <use x="393.652344" xlink:href="#DejaVuSans-69"/>
      <use x="421.435547" xlink:href="#DejaVuSans-7a"/>
      <use x="473.925781" xlink:href="#DejaVuSans-65"/>
      <use x="535.449219" xlink:href="#DejaVuSans-64"/>
     </g>
     <!-- Residuals -->
     <defs>
      <path d="M 44.390625 34.1875 
Q 47.5625 33.109375 50.5625 29.59375 
Q 53.5625 26.078125 56.59375 19.921875 
L 66.609375 0 
L 56 0 
L 46.6875 18.703125 
Q 43.0625 26.03125 39.671875 28.421875 
Q 36.28125 30.8125 30.421875 30.8125 
L 19.671875 30.8125 
L 19.671875 0 
L 9.8125 0 
L 9.8125 72.90625 
L 32.078125 72.90625 
Q 44.578125 72.90625 50.734375 67.671875 
Q 56.890625 62.453125 56.890625 51.90625 
Q 56.890625 45.015625 53.6875 40.46875 
Q 50.484375 35.9375 44.390625 34.1875 
z
M 19.671875 64.796875 
L 19.671875 38.921875 
L 32.078125 38.921875 
Q 39.203125 38.921875 42.84375 42.21875 
Q 46.484375 45.515625 46.484375 51.90625 
Q 46.484375 58.296875 42.84375 61.546875 
Q 39.203125 64.796875 32.078125 64.796875 
z
" id="DejaVuSans-52"/>
      <path d="M 44.28125 53.078125 
L 44.28125 44.578125 
Q 40.484375 46.53125 36.375 47.5 
Q 32.28125 48.484375 27.875 48.484375 
Q 21.1875 48.484375 17.84375 46.4375 
Q 14.5 44.390625 14.5 40.28125 
Q 14.5 37.15625 16.890625 35.375 
Q 19.28125 33.59375 26.515625 31.984375 
L 29.59375 31.296875 
Q 39.15625 29.25 43.1875 25.515625 
Q 47.21875 21.78125 47.21875 15.09375 
Q 47.21875 7.46875 41.1875 3.015625 
Q 35.15625 -1.421875 24.609375 -1.421875 
Q 20.21875 -1.421875 15.453125 -0.5625 
Q 10.6875 0.296875 5.421875 2 
L 5.421875 11.28125 
Q 10.40625 8.6875 15.234375 7.390625 
Q 20.0625 6.109375 24.8125 6.109375 
Q 31.15625 6.109375 34.5625 8.28125 
Q 37.984375 10.453125 37.984375 14.40625 
Q 37.984375 18.0625 35.515625 20.015625 
Q 33.0625 21.96875 24.703125 23.78125 
L 21.578125 24.515625 
Q 13.234375 26.265625 9.515625 29.90625 
Q 5.8125 33.546875 5.8125 39.890625 
Q 5.8125 47.609375 11.28125 51.796875 
Q 16.75 56 26.8125 56 
Q 31.78125 56 36.171875 55.265625 
Q 40.578125 54.546875 44.28125 53.078125 
z
" id="DejaVuSans-73"/>
      <path d="M 34.28125 27.484375 
Q 23.390625 27.484375 19.1875 25 
Q 14.984375 22.515625 14.984375 16.5 
Q 14.984375 11.71875 18.140625 8.90625 
Q 21.296875 6.109375 26.703125 6.109375 
Q 34.1875 6.109375 38.703125 11.40625 
Q 43.21875 16.703125 43.21875 25.484375 
L 43.21875 27.484375 
z
M 52.203125 31.203125 
L 52.203125 0 
L 43.21875 0 
L 43.21875 8.296875 
Q 40.140625 3.328125 35.546875 0.953125 
Q 30.953125 -1.421875 24.3125 -1.421875 
Q 15.921875 -1.421875 10.953125 3.296875 
Q 6 8.015625 6 15.921875 
Q 6 25.140625 12.171875 29.828125 
Q 18.359375 34.515625 30.609375 34.515625 
L 43.21875 34.515625 
L 43.21875 35.40625 
Q 43.21875 41.609375 39.140625 45 
Q 35.0625 48.390625 27.6875 48.390625 
Q 23 48.390625 18.546875 47.265625 
Q 14.109375 46.140625 10.015625 43.890625 
L 10.015625 52.203125 
Q 14.9375 54.109375 19.578125 55.046875 
Q 24.21875 56 28.609375 56 
Q 40.484375 56 46.34375 49.84375 
Q 52.203125 43.703125 52.203125 31.203125 
z
" id="DejaVuSans-61"/>
      <path d="M 9.421875 75.984375 
L 18.40625 75.984375 
L 18.40625 0 
L 9.421875 0 
z
" id="DejaVuSans-6c"/>
     </defs>
     <g transform="translate(31.7575 94.790188)rotate(-90)scale(0.1 -0.1)">
      <use xlink:href="#DejaVuSans-52"/>
      <use x="69.419922" xlink:href="#DejaVuSans-65"/>
      <use x="130.943359" xlink:href="#DejaVuSans-73"/>
      <use x="183.042969" xlink:href="#DejaVuSans-69"/>
      <use x="210.826172" xlink:href="#DejaVuSans-64"/>
      <use x="274.302734" xlink:href="#DejaVuSans-75"/>
      <use x="337.681641" xlink:href="#DejaVuSans-61"/>
      <use x="398.960938" xlink:href="#DejaVuSans-6c"/>
      <use x="426.744141" xlink:href="#DejaVuSans-73"/>
     </g>
    </g>
   </g>
   <g id="LineCollection_1">
    <path clip-path="url(#pebc411d847)" d="M 75.766154 86.565208 
L 75.766154 71.805261 
" style="fill:none;stroke:#0000ff;stroke-width:1.5;"/>
    <path clip-path="url(#pebc411d847)" d="M 85.53991 78.473961 
L 85.53991 63.714014 
" style="fill:none;stroke:#0000ff;stroke-width:1.5;"/>
    <path clip-path="url(#pebc411d847)" d="M 95.313665 71.584637 
L 95.313665 56.824691 
" style="fill:none;stroke:#0000ff;stroke-width:1.5;"/>
    <path clip-path="url(#pebc411d847)" d="M 105.087421 71.986496 
L 105.087421 57.226549 
" style="fill:none;stroke:#0000ff;stroke-width:1.5;"/>
    <path clip-path="url(#pebc411d847)" d="M 114.861176 73.822728 
L 114.861176 59.062781 
" style="fill:none;stroke:#0000ff;stroke-width:1.5;"/>
    <path clip-path="url(#pebc411d847)" d="M 124.634932 69.46256 
L 124.634932 54.702613 
" style="fill:none;stroke:#0000ff;stroke-width:1.5;"/>
    <path clip-path="url(#pebc411d847)" d="M 134.408688 82.859723 
L 134.408688 68.099776 
" style="fill:none;stroke:#0000ff;stroke-width:1.5;"/>
    <path clip-path="url(#pebc411d847)" d="M 144.182443 73.020094 
L 144.182443 58.260147 
" style="fill:none;stroke:#0000ff;stroke-width:1.5;"/>
    <path clip-path="url(#pebc411d847)" d="M 153.956199 90.310408 
L 153.956199 75.550461 
" style="fill:none;stroke:#0000ff;stroke-width:1.5;"/>
    <path clip-path="url(#pebc411d847)" d="M 163.729955 75.718896 
L 163.729955 60.958949 
" style="fill:none;stroke:#0000ff;stroke-width:1.5;"/>
    <path clip-path="url(#pebc411d847)" d="M 173.50371 71.496018 
L 173.50371 56.736071 
" style="fill:none;stroke:#0000ff;stroke-width:1.5;"/>
    <path clip-path="url(#pebc411d847)" d="M 183.277466 84.77652 
L 183.277466 70.016574 
" style="fill:none;stroke:#0000ff;stroke-width:1.5;"/>
    <path clip-path="url(#pebc411d847)" d="M 193.051222 82.998168 
L 193.051222 68.238221 
" style="fill:none;stroke:#0000ff;stroke-width:1.5;"/>
    <path clip-path="url(#pebc411d847)" d="M 202.824977 85.254557 
L 202.824977 70.494611 
" style="fill:none;stroke:#0000ff;stroke-width:1.5;"/>
    <path clip-path="url(#pebc411d847)" d="M 212.598733 69.330098 
L 212.598733 54.570151 
" style="fill:none;stroke:#0000ff;stroke-width:1.5;"/>
    <path clip-path="url(#pebc411d847)" d="M 222.372489 88.276617 
L 222.372489 73.51667 
" style="fill:none;stroke:#0000ff;stroke-width:1.5;"/>
    <path clip-path="url(#pebc411d847)" d="M 232.146244 62.044311 
L 232.146244 47.284364 
" style="fill:none;stroke:#0000ff;stroke-width:1.5;"/>
    <path clip-path="url(#pebc411d847)" d="M 241.92 79.157773 
L 241.92 64.397826 
" style="fill:none;stroke:#0000ff;stroke-width:1.5;"/>
    <path clip-path="url(#pebc411d847)" d="M 251.693756 77.388974 
L 251.693756 62.629027 
" style="fill:none;stroke:#0000ff;stroke-width:1.5;"/>
    <path clip-path="url(#pebc411d847)" d="M 261.467511 89.503409 
L 261.467511 74.743462 
" style="fill:none;stroke:#0000ff;stroke-width:1.5;"/>
    <path clip-path="url(#pebc411d847)" d="M 271.241267 89.366226 
L 271.241267 74.606279 
" style="fill:none;stroke:#0000ff;stroke-width:1.5;"/>
    <path clip-path="url(#pebc411d847)" d="M 281.015023 87.403861 
L 281.015023 72.643914 
" style="fill:none;stroke:#0000ff;stroke-width:1.5;"/>
    <path clip-path="url(#pebc411d847)" d="M 290.788778 67.978062 
L 290.788778 53.218115 
" style="fill:none;stroke:#0000ff;stroke-width:1.5;"/>
    <path clip-path="url(#pebc411d847)" d="M 300.562534 77.537172 
L 300.562534 62.777225 
" style="fill:none;stroke:#0000ff;stroke-width:1.5;"/>
    <path clip-path="url(#pebc411d847)" d="M 310.33629 82.519411 
L 310.33629 67.759464 
" style="fill:none;stroke:#0000ff;stroke-width:1.5;"/>
    <path clip-path="url(#pebc411d847)" d="M 320.110045 68.862904 
L 320.110045 54.102957 
" style="fill:none;stroke:#0000ff;stroke-width:1.5;"/>
    <path clip-path="url(#pebc411d847)" d="M 329.883801 66.283527 
L 329.883801 51.52358 
" style="fill:none;stroke:#0000ff;stroke-width:1.5;"/>
    <path clip-path="url(#pebc411d847)" d="M 339.657557 77.070802 
L 339.657557 62.310855 
" style="fill:none;stroke:#0000ff;stroke-width:1.5;"/>
    <path clip-path="url(#pebc411d847)" d="M 349.431312 80.785368 
L 349.431312 66.025421 
" style="fill:none;stroke:#0000ff;stroke-width:1.5;"/>
    <path clip-path="url(#pebc411d847)" d="M 359.205068 68.146472 
L 359.205068 53.386525 
" style="fill:none;stroke:#0000ff;stroke-width:1.5;"/>
    <path clip-path="url(#pebc411d847)" d="M 368.978824 63.893772 
L 368.978824 49.133825 
" style="fill:none;stroke:#0000ff;stroke-width:1.5;"/>
    <path clip-path="url(#pebc411d847)" d="M 378.752579 67.961186 
L 378.752579 53.201239 
" style="fill:none;stroke:#0000ff;stroke-width:1.5;"/>
    <path clip-path="url(#pebc411d847)" d="M 388.526335 75.190337 
L 388.526335 60.430391 
" style="fill:none;stroke:#0000ff;stroke-width:1.5;"/>
    <path clip-path="url(#pebc411d847)" d="M 398.30009 93.019175 
L 398.30009 78.259228 
" style="fill:none;stroke:#0000ff;stroke-width:1.5;"/>
    <path clip-path="url(#pebc411d847)" d="M 408.073846 94.411636 
L 408.073846 79.651689 
" style="fill:none;stroke:#0000ff;stroke-width:1.5;"/>
   </g>
   <g id="line2d_11">
    <path clip-path="url(#pebc411d847)" d="M 75.766154 70.717199 
L 408.073846 70.717199 
" style="fill:none;stroke:#ff0000;stroke-linecap:square;stroke-width:1.5;"/>
   </g>
   <g id="line2d_12">
    <defs>
     <path d="M 0 3 
C 0.795609 3 1.55874 2.683901 2.12132 2.12132 
C 2.683901 1.55874 3 0.795609 3 0 
C 3 -0.795609 2.683901 -1.55874 2.12132 -2.12132 
C 1.55874 -2.683901 0.795609 -3 0 -3 
C -0.795609 -3 -1.55874 -2.683901 -2.12132 -2.12132 
C -2.683901 -1.55874 -3 -0.795609 -3 0 
C -3 0.795609 -2.683901 1.55874 -2.12132 2.12132 
C -1.55874 2.683901 -0.795609 3 0 3 
z
" id="mbf528b20f2" style="stroke:#0000ff;"/>
    </defs>
    <g clip-path="url(#pebc411d847)">
     <use style="fill:#0000ff;stroke:#0000ff;" x="75.766154" xlink:href="#mbf528b20f2" y="79.185234"/>
     <use style="fill:#0000ff;stroke:#0000ff;" x="85.53991" xlink:href="#mbf528b20f2" y="71.093987"/>
     <use style="fill:#0000ff;stroke:#0000ff;" x="95.313665" xlink:href="#mbf528b20f2" y="64.204664"/>
     <use style="fill:#0000ff;stroke:#0000ff;" x="105.087421" xlink:href="#mbf528b20f2" y="64.606522"/>
     <use style="fill:#0000ff;stroke:#0000ff;" x="114.861176" xlink:href="#mbf528b20f2" y="66.442755"/>
     <use style="fill:#0000ff;stroke:#0000ff;" x="124.634932" xlink:href="#mbf528b20f2" y="62.082586"/>
     <use style="fill:#0000ff;stroke:#0000ff;" x="134.408688" xlink:href="#mbf528b20f2" y="75.47975"/>
     <use style="fill:#0000ff;stroke:#0000ff;" x="144.182443" xlink:href="#mbf528b20f2" y="65.64012"/>
     <use style="fill:#0000ff;stroke:#0000ff;" x="153.956199" xlink:href="#mbf528b20f2" y="82.930435"/>
     <use style="fill:#0000ff;stroke:#0000ff;" x="163.729955" xlink:href="#mbf528b20f2" y="68.338923"/>
     <use style="fill:#0000ff;stroke:#0000ff;" x="173.50371" xlink:href="#mbf528b20f2" y="64.116045"/>
     <use style="fill:#0000ff;stroke:#0000ff;" x="183.277466" xlink:href="#mbf528b20f2" y="77.396547"/>
     <use style="fill:#0000ff;stroke:#0000ff;" x="193.051222" xlink:href="#mbf528b20f2" y="75.618194"/>
     <use style="fill:#0000ff;stroke:#0000ff;" x="202.824977" xlink:href="#mbf528b20f2" y="77.874584"/>
     <use style="fill:#0000ff;stroke:#0000ff;" x="212.598733" xlink:href="#mbf528b20f2" y="61.950125"/>
     <use style="fill:#0000ff;stroke:#0000ff;" x="222.372489" xlink:href="#mbf528b20f2" y="80.896643"/>
     <use style="fill:#0000ff;stroke:#0000ff;" x="232.146244" xlink:href="#mbf528b20f2" y="54.664337"/>
     <use style="fill:#0000ff;stroke:#0000ff;" x="241.92" xlink:href="#mbf528b20f2" y="71.7778"/>
     <use style="fill:#0000ff;stroke:#0000ff;" x="251.693756" xlink:href="#mbf528b20f2" y="70.009"/>
     <use style="fill:#0000ff;stroke:#0000ff;" x="261.467511" xlink:href="#mbf528b20f2" y="82.123436"/>
     <use style="fill:#0000ff;stroke:#0000ff;" x="271.241267" xlink:href="#mbf528b20f2" y="81.986253"/>
     <use style="fill:#0000ff;stroke:#0000ff;" x="281.015023" xlink:href="#mbf528b20f2" y="80.023888"/>
     <use style="fill:#0000ff;stroke:#0000ff;" x="290.788778" xlink:href="#mbf528b20f2" y="60.598089"/>
     <use style="fill:#0000ff;stroke:#0000ff;" x="300.562534" xlink:href="#mbf528b20f2" y="70.157198"/>
     <use style="fill:#0000ff;stroke:#0000ff;" x="310.33629" xlink:href="#mbf528b20f2" y="75.139437"/>
     <use style="fill:#0000ff;stroke:#0000ff;" x="320.110045" xlink:href="#mbf528b20f2" y="61.48293"/>
     <use style="fill:#0000ff;stroke:#0000ff;" x="329.883801" xlink:href="#mbf528b20f2" y="58.903554"/>
     <use style="fill:#0000ff;stroke:#0000ff;" x="339.657557" xlink:href="#mbf528b20f2" y="69.690829"/>
     <use style="fill:#0000ff;stroke:#0000ff;" x="349.431312" xlink:href="#mbf528b20f2" y="73.405395"/>
     <use style="fill:#0000ff;stroke:#0000ff;" x="359.205068" xlink:href="#mbf528b20f2" y="60.766499"/>
     <use style="fill:#0000ff;stroke:#0000ff;" x="368.978824" xlink:href="#mbf528b20f2" y="56.513798"/>
     <use style="fill:#0000ff;stroke:#0000ff;" x="378.752579" xlink:href="#mbf528b20f2" y="60.581213"/>
     <use style="fill:#0000ff;stroke:#0000ff;" x="388.526335" xlink:href="#mbf528b20f2" y="67.810364"/>
     <use style="fill:#0000ff;stroke:#0000ff;" x="398.30009" xlink:href="#mbf528b20f2" y="85.639201"/>
     <use style="fill:#0000ff;stroke:#0000ff;" x="408.073846" xlink:href="#mbf528b20f2" y="87.031663"/>
    </g>
   </g>
   <g id="patch_3">
    <path d="M 69.12 96.768 
L 69.12 44.928 
" style="fill:none;stroke:#000000;stroke-linecap:square;stroke-linejoin:miter;stroke-width:0.8;"/>
   </g>
   <g id="patch_4">
    <path d="M 414.72 96.768 
L 414.72 44.928 
" style="fill:none;stroke:#000000;stroke-linecap:square;stroke-linejoin:miter;stroke-width:0.8;"/>
   </g>
   <g id="patch_5">
    <path d="M 69.12 96.768 
L 414.72 96.768 
" style="fill:none;stroke:#000000;stroke-linecap:square;stroke-linejoin:miter;stroke-width:0.8;"/>
   </g>
   <g id="patch_6">
    <path d="M 69.12 44.928 
L 414.72 44.928 
" style="fill:none;stroke:#000000;stroke-linecap:square;stroke-linejoin:miter;stroke-width:0.8;"/>
   </g>
   <g id="text_4">
    <!-- Function (0/0): y = A1*G(x-x0, s) + A2*S(x-x0, s) -->
    <defs>
     <path d="M 9.8125 72.90625 
L 51.703125 72.90625 
L 51.703125 64.59375 
L 19.671875 64.59375 
L 19.671875 43.109375 
L 48.578125 43.109375 
L 48.578125 34.8125 
L 19.671875 34.8125 
L 19.671875 0 
L 9.8125 0 
z
" id="DejaVuSans-46"/>
     <path d="M 48.78125 52.59375 
L 48.78125 44.1875 
Q 44.96875 46.296875 41.140625 47.34375 
Q 37.3125 48.390625 33.40625 48.390625 
Q 24.65625 48.390625 19.8125 42.84375 
Q 14.984375 37.3125 14.984375 27.296875 
Q 14.984375 17.28125 19.8125 11.734375 
Q 24.65625 6.203125 33.40625 6.203125 
Q 37.3125 6.203125 41.140625 7.25 
Q 44.96875 8.296875 48.78125 10.40625 
L 48.78125 2.09375 
Q 45.015625 0.34375 40.984375 -0.53125 
Q 36.96875 -1.421875 32.421875 -1.421875 
Q 20.0625 -1.421875 12.78125 6.34375 
Q 5.515625 14.109375 5.515625 27.296875 
Q 5.515625 40.671875 12.859375 48.328125 
Q 20.21875 56 33.015625 56 
Q 37.15625 56 41.109375 55.140625 
Q 45.0625 54.296875 48.78125 52.59375 
z
" id="DejaVuSans-63"/>
     <path d="M 30.609375 48.390625 
Q 23.390625 48.390625 19.1875 42.75 
Q 14.984375 37.109375 14.984375 27.296875 
Q 14.984375 17.484375 19.15625 11.84375 
Q 23.34375 6.203125 30.609375 6.203125 
Q 37.796875 6.203125 41.984375 11.859375 
Q 46.1875 17.53125 46.1875 27.296875 
Q 46.1875 37.015625 41.984375 42.703125 
Q 37.796875 48.390625 30.609375 48.390625 
z
M 30.609375 56 
Q 42.328125 56 49.015625 48.375 
Q 55.71875 40.765625 55.71875 27.296875 
Q 55.71875 13.875 49.015625 6.21875 
Q 42.328125 -1.421875 30.609375 -1.421875 
Q 18.84375 -1.421875 12.171875 6.21875 
Q 5.515625 13.875 5.515625 27.296875 
Q 5.515625 40.765625 12.171875 48.375 
Q 18.84375 56 30.609375 56 
z
" id="DejaVuSans-6f"/>
     <path id="DejaVuSans-20"/>
     <path d="M 31 75.875 
Q 24.46875 64.65625 21.28125 53.65625 
Q 18.109375 42.671875 18.109375 31.390625 
Q 18.109375 20.125 21.3125 9.0625 
Q 24.515625 -2 31 -13.1875 
L 23.1875 -13.1875 
Q 15.875 -1.703125 12.234375 9.375 
Q 8.59375 20.453125 8.59375 31.390625 
Q 8.59375 42.28125 12.203125 53.3125 
Q 15.828125 64.359375 23.1875 75.875 
z
" id="DejaVuSans-28"/>
     <path d="M 31.78125 66.40625 
Q 24.171875 66.40625 20.328125 58.90625 
Q 16.5 51.421875 16.5 36.375 
Q 16.5 21.390625 20.328125 13.890625 
Q 24.171875 6.390625 31.78125 6.390625 
Q 39.453125 6.390625 43.28125 13.890625 
Q 47.125 21.390625 47.125 36.375 
Q 47.125 51.421875 43.28125 58.90625 
Q 39.453125 66.40625 31.78125 66.40625 
z
M 31.78125 74.21875 
Q 44.046875 74.21875 50.515625 64.515625 
Q 56.984375 54.828125 56.984375 36.375 
Q 56.984375 17.96875 50.515625 8.265625 
Q 44.046875 -1.421875 31.78125 -1.421875 
Q 19.53125 -1.421875 13.0625 8.265625 
Q 6.59375 17.96875 6.59375 36.375 
Q 6.59375 54.828125 13.0625 64.515625 
Q 19.53125 74.21875 31.78125 74.21875 
z
" id="DejaVuSans-30"/>
     <path d="M 25.390625 72.90625 
L 33.6875 72.90625 
L 8.296875 -9.28125 
L 0 -9.28125 
z
" id="DejaVuSans-2f"/>
     <path d="M 8.015625 75.875 
L 15.828125 75.875 
Q 23.140625 64.359375 26.78125 53.3125 
Q 30.421875 42.28125 30.421875 31.390625 
Q 30.421875 20.453125 26.78125 9.375 
Q 23.140625 -1.703125 15.828125 -13.1875 
L 8.015625 -13.1875 
Q 14.5 -2 17.703125 9.0625 
Q 20.90625 20.125 20.90625 31.390625 
Q 20.90625 42.671875 17.703125 53.65625 
Q 14.5 64.65625 8.015625 75.875 
z
" id="DejaVuSans-29"/>
     <path d="M 11.71875 12.40625 
L 22.015625 12.40625 
L 22.015625 0 
L 11.71875 0 
z
M 11.71875 51.703125 
L 22.015625 51.703125 
L 22.015625 39.3125 
L 11.71875 39.3125 
z
" id="DejaVuSans-3a"/>
     <path d="M 32.171875 -5.078125 
Q 28.375 -14.84375 24.75 -17.8125 
Q 21.140625 -20.796875 15.09375 -20.796875 
L 7.90625 -20.796875 
L 7.90625 -13.28125 
L 13.1875 -13.28125 
Q 16.890625 -13.28125 18.9375 -11.515625 
Q 21 -9.765625 23.484375 -3.21875 
L 25.09375 0.875 
L 2.984375 54.6875 
L 12.5 54.6875 
L 29.59375 11.921875 
L 46.6875 54.6875 
L 56.203125 54.6875 
z
" id="DejaVuSans-79"/>
     <path d="M 10.59375 45.40625 
L 73.1875 45.40625 
L 73.1875 37.203125 
L 10.59375 37.203125 
z
M 10.59375 25.484375 
L 73.1875 25.484375 
L 73.1875 17.1875 
L 10.59375 17.1875 
z
" id="DejaVuSans-3d"/>
     <path d="M 34.1875 63.1875 
L 20.796875 26.90625 
L 47.609375 26.90625 
z
M 28.609375 72.90625 
L 39.796875 72.90625 
L 67.578125 0 
L 57.328125 0 
L 50.6875 18.703125 
L 17.828125 18.703125 
L 11.1875 0 
L 0.78125 0 
z
" id="DejaVuSans-41"/>
     <path d="M 12.40625 8.296875 
L 28.515625 8.296875 
L 28.515625 63.921875 
L 10.984375 60.40625 
L 10.984375 69.390625 
L 28.421875 72.90625 
L 38.28125 72.90625 
L 38.28125 8.296875 
L 54.390625 8.296875 
L 54.390625 0 
L 12.40625 0 
z
" id="DejaVuSans-31"/>
     <path d="M 47.015625 60.890625 
L 29.5 51.421875 
L 47.015625 41.890625 
L 44.1875 37.109375 
L 27.78125 47.015625 
L 27.78125 28.609375 
L 22.21875 28.609375 
L 22.21875 47.015625 
L 5.8125 37.109375 
L 2.984375 41.890625 
L 20.515625 51.421875 
L 2.984375 60.890625 
L 5.8125 65.71875 
L 22.21875 55.8125 
L 22.21875 74.21875 
L 27.78125 74.21875 
L 27.78125 55.8125 
L 44.1875 65.71875 
z
" id="DejaVuSans-2a"/>
     <path d="M 59.515625 10.40625 
L 59.515625 29.984375 
L 43.40625 29.984375 
L 43.40625 38.09375 
L 69.28125 38.09375 
L 69.28125 6.78125 
Q 63.578125 2.734375 56.6875 0.65625 
Q 49.8125 -1.421875 42 -1.421875 
Q 24.90625 -1.421875 15.25 8.5625 
Q 5.609375 18.5625 5.609375 36.375 
Q 5.609375 54.25 15.25 64.234375 
Q 24.90625 74.21875 42 74.21875 
Q 49.125 74.21875 55.546875 72.453125 
Q 61.96875 70.703125 67.390625 67.28125 
L 67.390625 56.78125 
Q 61.921875 61.421875 55.765625 63.765625 
Q 49.609375 66.109375 42.828125 66.109375 
Q 29.4375 66.109375 22.71875 58.640625 
Q 16.015625 51.171875 16.015625 36.375 
Q 16.015625 21.625 22.71875 14.15625 
Q 29.4375 6.6875 42.828125 6.6875 
Q 48.046875 6.6875 52.140625 7.59375 
Q 56.25 8.5 59.515625 10.40625 
z
" id="DejaVuSans-47"/>
     <path d="M 54.890625 54.6875 
L 35.109375 28.078125 
L 55.90625 0 
L 45.3125 0 
L 29.390625 21.484375 
L 13.484375 0 
L 2.875 0 
L 24.125 28.609375 
L 4.6875 54.6875 
L 15.28125 54.6875 
L 29.78125 35.203125 
L 44.28125 54.6875 
z
" id="DejaVuSans-78"/>
     <path d="M 4.890625 31.390625 
L 31.203125 31.390625 
L 31.203125 23.390625 
L 4.890625 23.390625 
z
" id="DejaVuSans-2d"/>
     <path d="M 11.71875 12.40625 
L 22.015625 12.40625 
L 22.015625 4 
L 14.015625 -11.625 
L 7.71875 -11.625 
L 11.71875 4 
z
" id="DejaVuSans-2c"/>
     <path d="M 46 62.703125 
L 46 35.5 
L 73.1875 35.5 
L 73.1875 27.203125 
L 46 27.203125 
L 46 0 
L 37.796875 0 
L 37.796875 27.203125 
L 10.59375 27.203125 
L 10.59375 35.5 
L 37.796875 35.5 
L 37.796875 62.703125 
z
" id="DejaVuSans-2b"/>
    </defs>
    <g transform="translate(69.12 14.3105)scale(0.1 -0.1)">
     <use xlink:href="#DejaVuSans-46"/>
     <use x="57.441406" xlink:href="#DejaVuSans-75"/>
     <use x="120.820312" xlink:href="#DejaVuSans-6e"/>
     <use x="184.199219" xlink:href="#DejaVuSans-63"/>
     <use x="239.179688" xlink:href="#DejaVuSans-74"/>
     <use x="278.388672" xlink:href="#DejaVuSans-69"/>
     <use x="306.171875" xlink:href="#DejaVuSans-6f"/>
     <use x="367.353516" xlink:href="#DejaVuSans-6e"/>
     <use x="430.732422" xlink:href="#DejaVuSans-20"/>
     <use x="462.519531" xlink:href="#DejaVuSans-28"/>
     <use x="501.533203" xlink:href="#DejaVuSans-30"/>
     <use x="565.15625" xlink:href="#DejaVuSans-2f"/>
     <use x="598.847656" xlink:href="#DejaVuSans-30"/>
     <use x="662.470703" xlink:href="#DejaVuSans-29"/>
     <use x="701.484375" xlink:href="#DejaVuSans-3a"/>
     <use x="735.175781" xlink:href="#DejaVuSans-20"/>
     <use x="766.962891" xlink:href="#DejaVuSans-79"/>
     <use x="826.142578" xlink:href="#DejaVuSans-20"/>
     <use x="857.929688" xlink:href="#DejaVuSans-3d"/>
     <use x="941.71875" xlink:href="#DejaVuSans-20"/>
     <use x="973.505859" xlink:href="#DejaVuSans-41"/>
     <use x="1041.914062" xlink:href="#DejaVuSans-31"/>
     <use x="1105.537109" xlink:href="#DejaVuSans-2a"/>
     <use x="1155.537109" xlink:href="#DejaVuSans-47"/>
     <use x="1233.027344" xlink:href="#DejaVuSans-28"/>
     <use x="1272.041016" xlink:href="#DejaVuSans-78"/>
     <use x="1331.220703" xlink:href="#DejaVuSans-2d"/>
     <use x="1367.304688" xlink:href="#DejaVuSans-78"/>
     <use x="1426.484375" xlink:href="#DejaVuSans-30"/>
     <use x="1490.107422" xlink:href="#DejaVuSans-2c"/>
     <use x="1521.894531" xlink:href="#DejaVuSans-20"/>
     <use x="1553.681641" xlink:href="#DejaVuSans-73"/>
     <use x="1605.78125" xlink:href="#DejaVuSans-29"/>
     <use x="1644.794922" xlink:href="#DejaVuSans-20"/>
     <use x="1676.582031" xlink:href="#DejaVuSans-2b"/>
     <use x="1760.371094" xlink:href="#DejaVuSans-20"/>
     <use x="1792.158203" xlink:href="#DejaVuSans-41"/>
     <use x="1860.566406" xlink:href="#DejaVuSans-32"/>
     <use x="1924.189453" xlink:href="#DejaVuSans-2a"/>
     <use x="1974.189453" xlink:href="#DejaVuSans-53"/>
     <use x="2037.666016" xlink:href="#DejaVuSans-28"/>
     <use x="2076.679688" xlink:href="#DejaVuSans-78"/>
     <use x="2135.859375" xlink:href="#DejaVuSans-2d"/>
     <use x="2171.943359" xlink:href="#DejaVuSans-78"/>
     <use x="2231.123047" xlink:href="#DejaVuSans-30"/>
     <use x="2294.746094" xlink:href="#DejaVuSans-2c"/>
     <use x="2326.533203" xlink:href="#DejaVuSans-20"/>
     <use x="2358.320312" xlink:href="#DejaVuSans-73"/>
     <use x="2410.419922" xlink:href="#DejaVuSans-29"/>
    </g>
    <!-- Fit: A1=551.0$\pm$90.0, x0=306.6$\pm$1.2, s=22.4$\pm$2.4, A2=-150.0$\pm$190.0, -->
    <defs>
     <path d="M 46 62.703125 
L 46 43.796875 
L 73.1875 43.796875 
L 73.1875 35.5 
L 46 35.5 
L 46 16.609375 
L 37.796875 16.609375 
L 37.796875 35.5 
L 10.59375 35.5 
L 10.59375 43.796875 
L 37.796875 43.796875 
L 37.796875 62.703125 
z
M 10.59375 8.296875 
L 73.1875 8.296875 
L 73.1875 0 
L 10.59375 0 
z
" id="DejaVuSans-b1"/>
     <path d="M 10.984375 1.515625 
L 10.984375 10.5 
Q 14.703125 8.734375 18.5 7.8125 
Q 22.3125 6.890625 25.984375 6.890625 
Q 35.75 6.890625 40.890625 13.453125 
Q 46.046875 20.015625 46.78125 33.40625 
Q 43.953125 29.203125 39.59375 26.953125 
Q 35.25 24.703125 29.984375 24.703125 
Q 19.046875 24.703125 12.671875 31.3125 
Q 6.296875 37.9375 6.296875 49.421875 
Q 6.296875 60.640625 12.9375 67.421875 
Q 19.578125 74.21875 30.609375 74.21875 
Q 43.265625 74.21875 49.921875 64.515625 
Q 56.59375 54.828125 56.59375 36.375 
Q 56.59375 19.140625 48.40625 8.859375 
Q 40.234375 -1.421875 26.421875 -1.421875 
Q 22.703125 -1.421875 18.890625 -0.6875 
Q 15.09375 0.046875 10.984375 1.515625 
z
M 30.609375 32.421875 
Q 37.25 32.421875 41.125 36.953125 
Q 45.015625 41.5 45.015625 49.421875 
Q 45.015625 57.28125 41.125 61.84375 
Q 37.25 66.40625 30.609375 66.40625 
Q 23.96875 66.40625 20.09375 61.84375 
Q 16.21875 57.28125 16.21875 49.421875 
Q 16.21875 41.5 20.09375 36.953125 
Q 23.96875 32.421875 30.609375 32.421875 
z
" id="DejaVuSans-39"/>
     <path d="M 40.578125 39.3125 
Q 47.65625 37.796875 51.625 33 
Q 55.609375 28.21875 55.609375 21.1875 
Q 55.609375 10.40625 48.1875 4.484375 
Q 40.765625 -1.421875 27.09375 -1.421875 
Q 22.515625 -1.421875 17.65625 -0.515625 
Q 12.796875 0.390625 7.625 2.203125 
L 7.625 11.71875 
Q 11.71875 9.328125 16.59375 8.109375 
Q 21.484375 6.890625 26.8125 6.890625 
Q 36.078125 6.890625 40.9375 10.546875 
Q 45.796875 14.203125 45.796875 21.1875 
Q 45.796875 27.640625 41.28125 31.265625 
Q 36.765625 34.90625 28.71875 34.90625 
L 20.21875 34.90625 
L 20.21875 43.015625 
L 29.109375 43.015625 
Q 36.375 43.015625 40.234375 45.921875 
Q 44.09375 48.828125 44.09375 54.296875 
Q 44.09375 59.90625 40.109375 62.90625 
Q 36.140625 65.921875 28.71875 65.921875 
Q 24.65625 65.921875 20.015625 65.03125 
Q 15.375 64.15625 9.8125 62.3125 
L 9.8125 71.09375 
Q 15.4375 72.65625 20.34375 73.4375 
Q 25.25 74.21875 29.59375 74.21875 
Q 40.828125 74.21875 47.359375 69.109375 
Q 53.90625 64.015625 53.90625 55.328125 
Q 53.90625 49.265625 50.4375 45.09375 
Q 46.96875 40.921875 40.578125 39.3125 
z
" id="DejaVuSans-33"/>
     <path d="M 33.015625 40.375 
Q 26.375 40.375 22.484375 35.828125 
Q 18.609375 31.296875 18.609375 23.390625 
Q 18.609375 15.53125 22.484375 10.953125 
Q 26.375 6.390625 33.015625 6.390625 
Q 39.65625 6.390625 43.53125 10.953125 
Q 47.40625 15.53125 47.40625 23.390625 
Q 47.40625 31.296875 43.53125 35.828125 
Q 39.65625 40.375 33.015625 40.375 
z
M 52.59375 71.296875 
L 52.59375 62.3125 
Q 48.875 64.0625 45.09375 64.984375 
Q 41.3125 65.921875 37.59375 65.921875 
Q 27.828125 65.921875 22.671875 59.328125 
Q 17.53125 52.734375 16.796875 39.40625 
Q 19.671875 43.65625 24.015625 45.921875 
Q 28.375 48.1875 33.59375 48.1875 
Q 44.578125 48.1875 50.953125 41.515625 
Q 57.328125 34.859375 57.328125 23.390625 
Q 57.328125 12.15625 50.6875 5.359375 
Q 44.046875 -1.421875 33.015625 -1.421875 
Q 20.359375 -1.421875 13.671875 8.265625 
Q 6.984375 17.96875 6.984375 36.375 
Q 6.984375 53.65625 15.1875 63.9375 
Q 23.390625 74.21875 37.203125 74.21875 
Q 40.921875 74.21875 44.703125 73.484375 
Q 48.484375 72.75 52.59375 71.296875 
z
" id="DejaVuSans-36"/>
     <path d="M 37.796875 64.3125 
L 12.890625 25.390625 
L 37.796875 25.390625 
z
M 35.203125 72.90625 
L 47.609375 72.90625 
L 47.609375 25.390625 
L 58.015625 25.390625 
L 58.015625 17.1875 
L 47.609375 17.1875 
L 47.609375 0 
L 37.796875 0 
L 37.796875 17.1875 
L 4.890625 17.1875 
L 4.890625 26.703125 
z
" id="DejaVuSans-34"/>
    </defs>
    <g transform="translate(69.12 25.508312)scale(0.1 -0.1)">
     <use transform="translate(0 0.015625)" xlink:href="#DejaVuSans-46"/>
     <use transform="translate(57.519531 0.015625)" xlink:href="#DejaVuSans-69"/>
     <use transform="translate(85.302734 0.015625)" xlink:href="#DejaVuSans-74"/>
     <use transform="translate(124.511719 0.015625)" xlink:href="#DejaVuSans-3a"/>
     <use transform="translate(158.203125 0.015625)" xlink:href="#DejaVuSans-20"/>
     <use transform="translate(189.990234 0.015625)" xlink:href="#DejaVuSans-41"/>
     <use transform="translate(258.398438 0.015625)" xlink:href="#DejaVuSans-31"/>
     <use transform="translate(322.021484 0.015625)" xlink:href="#DejaVuSans-3d"/>
     <use transform="translate(405.810547 0.015625)" xlink:href="#DejaVuSans-35"/>
     <use transform="translate(469.433594 0.015625)" xlink:href="#DejaVuSans-35"/>
     <use transform="translate(533.056641 0.015625)" xlink:href="#DejaVuSans-31"/>
     <use transform="translate(596.679688 0.015625)" xlink:href="#DejaVuSans-2e"/>
     <use transform="translate(628.466797 0.015625)" xlink:href="#DejaVuSans-30"/>
     <use transform="translate(692.089844 0.015625)" xlink:href="#DejaVuSans-b1"/>
     <use transform="translate(775.878906 0.015625)" xlink:href="#DejaVuSans-39"/>
     <use transform="translate(839.501953 0.015625)" xlink:href="#DejaVuSans-30"/>
     <use transform="translate(903.125 0.015625)" xlink:href="#DejaVuSans-2e"/>
     <use transform="translate(934.912109 0.015625)" xlink:href="#DejaVuSans-30"/>
     <use transform="translate(998.535156 0.015625)" xlink:href="#DejaVuSans-2c"/>
     <use transform="translate(1030.322266 0.015625)" xlink:href="#DejaVuSans-20"/>
     <use transform="translate(1062.109375 0.015625)" xlink:href="#DejaVuSans-78"/>
     <use transform="translate(1121.289062 0.015625)" xlink:href="#DejaVuSans-30"/>
     <use transform="translate(1184.912109 0.015625)" xlink:href="#DejaVuSans-3d"/>
     <use transform="translate(1268.701172 0.015625)" xlink:href="#DejaVuSans-33"/>
     <use transform="translate(1332.324219 0.015625)" xlink:href="#DejaVuSans-30"/>
     <use transform="translate(1395.947266 0.015625)" xlink:href="#DejaVuSans-36"/>
     <use transform="translate(1459.570312 0.015625)" xlink:href="#DejaVuSans-2e"/>
     <use transform="translate(1491.357422 0.015625)" xlink:href="#DejaVuSans-36"/>
     <use transform="translate(1554.980469 0.015625)" xlink:href="#DejaVuSans-b1"/>
     <use transform="translate(1638.769531 0.015625)" xlink:href="#DejaVuSans-31"/>
     <use transform="translate(1702.392578 0.015625)" xlink:href="#DejaVuSans-2e"/>
     <use transform="translate(1734.101562 0.015625)" xlink:href="#DejaVuSans-32"/>
     <use transform="translate(1797.724609 0.015625)" xlink:href="#DejaVuSans-2c"/>
     <use transform="translate(1829.511719 0.015625)" xlink:href="#DejaVuSans-20"/>
     <use transform="translate(1861.298828 0.015625)" xlink:href="#DejaVuSans-73"/>
     <use transform="translate(1913.398438 0.015625)" xlink:href="#DejaVuSans-3d"/>
     <use transform="translate(1997.1875 0.015625)" xlink:href="#DejaVuSans-32"/>
     <use transform="translate(2060.810547 0.015625)" xlink:href="#DejaVuSans-32"/>
     <use transform="translate(2124.433594 0.015625)" xlink:href="#DejaVuSans-2e"/>
     <use transform="translate(2156.220703 0.015625)" xlink:href="#DejaVuSans-34"/>
     <use transform="translate(2219.84375 0.015625)" xlink:href="#DejaVuSans-b1"/>
     <use transform="translate(2303.632812 0.015625)" xlink:href="#DejaVuSans-32"/>
     <use transform="translate(2367.255859 0.015625)" xlink:href="#DejaVuSans-2e"/>
     <use transform="translate(2399.042969 0.015625)" xlink:href="#DejaVuSans-34"/>
     <use transform="translate(2462.666016 0.015625)" xlink:href="#DejaVuSans-2c"/>
     <use transform="translate(2494.453125 0.015625)" xlink:href="#DejaVuSans-20"/>
     <use transform="translate(2526.240234 0.015625)" xlink:href="#DejaVuSans-41"/>
     <use transform="translate(2594.648438 0.015625)" xlink:href="#DejaVuSans-32"/>
     <use transform="translate(2658.271484 0.015625)" xlink:href="#DejaVuSans-3d"/>
     <use transform="translate(2742.060547 0.015625)" xlink:href="#DejaVuSans-2d"/>
     <use transform="translate(2778.144531 0.015625)" xlink:href="#DejaVuSans-31"/>
     <use transform="translate(2841.767578 0.015625)" xlink:href="#DejaVuSans-35"/>
     <use transform="translate(2905.390625 0.015625)" xlink:href="#DejaVuSans-30"/>
     <use transform="translate(2969.013672 0.015625)" xlink:href="#DejaVuSans-2e"/>
     <use transform="translate(3000.800781 0.015625)" xlink:href="#DejaVuSans-30"/>
     <use transform="translate(3064.423828 0.015625)" xlink:href="#DejaVuSans-b1"/>
     <use transform="translate(3148.212891 0.015625)" xlink:href="#DejaVuSans-31"/>
     <use transform="translate(3211.835938 0.015625)" xlink:href="#DejaVuSans-39"/>
     <use transform="translate(3275.458984 0.015625)" xlink:href="#DejaVuSans-30"/>
     <use transform="translate(3339.082031 0.015625)" xlink:href="#DejaVuSans-2e"/>
     <use transform="translate(3370.869141 0.015625)" xlink:href="#DejaVuSans-30"/>
     <use transform="translate(3434.492188 0.015625)" xlink:href="#DejaVuSans-2c"/>
    </g>
    <!--       $\chi^2_r$=1.57$\pm$0.25 (31 DOF) -->
    <defs>
     <path d="M 30.03125 -12.203125 
L 26.421875 6.5 
L 6.15625 -20.84375 
L -4.4375 -20.84375 
L 24.265625 17.828125 
L 19.828125 40.828125 
Q 18.65625 46.96875 11.140625 46.96875 
L 8.734375 46.96875 
L 10.203125 54.6875 
L 13.625 54.59375 
Q 26.171875 54.25 27.734375 46.09375 
L 31.34375 27.390625 
L 51.609375 54.734375 
L 62.203125 54.734375 
L 33.5 16.0625 
L 37.9375 -6.9375 
Q 39.109375 -13.09375 46.625 -13.09375 
L 49.03125 -13.09375 
L 47.5625 -20.796875 
L 44.140625 -20.703125 
Q 31.59375 -20.359375 30.03125 -12.203125 
z
" id="DejaVuSans-Oblique-3c7"/>
     <path d="M 44.578125 46.390625 
Q 43.21875 47.125 41.453125 47.515625 
Q 39.703125 47.90625 37.703125 47.90625 
Q 30.515625 47.90625 25.140625 42.453125 
Q 19.78125 37.015625 18.015625 27.875 
L 12.5 0 
L 3.515625 0 
L 14.203125 54.6875 
L 23.1875 54.6875 
L 21.484375 46.1875 
Q 25.046875 50.921875 30 53.453125 
Q 34.96875 56 40.578125 56 
Q 42.046875 56 43.453125 55.828125 
Q 44.875 55.671875 46.296875 55.28125 
z
" id="DejaVuSans-Oblique-72"/>
     <path d="M 8.203125 72.90625 
L 55.078125 72.90625 
L 55.078125 68.703125 
L 28.609375 0 
L 18.3125 0 
L 43.21875 64.59375 
L 8.203125 64.59375 
z
" id="DejaVuSans-37"/>
     <path d="M 19.671875 64.796875 
L 19.671875 8.109375 
L 31.59375 8.109375 
Q 46.6875 8.109375 53.6875 14.9375 
Q 60.6875 21.78125 60.6875 36.53125 
Q 60.6875 51.171875 53.6875 57.984375 
Q 46.6875 64.796875 31.59375 64.796875 
z
M 9.8125 72.90625 
L 30.078125 72.90625 
Q 51.265625 72.90625 61.171875 64.09375 
Q 71.09375 55.28125 71.09375 36.53125 
Q 71.09375 17.671875 61.125 8.828125 
Q 51.171875 0 30.078125 0 
L 9.8125 0 
z
" id="DejaVuSans-44"/>
     <path d="M 39.40625 66.21875 
Q 28.65625 66.21875 22.328125 58.203125 
Q 16.015625 50.203125 16.015625 36.375 
Q 16.015625 22.609375 22.328125 14.59375 
Q 28.65625 6.59375 39.40625 6.59375 
Q 50.140625 6.59375 56.421875 14.59375 
Q 62.703125 22.609375 62.703125 36.375 
Q 62.703125 50.203125 56.421875 58.203125 
Q 50.140625 66.21875 39.40625 66.21875 
z
M 39.40625 74.21875 
Q 54.734375 74.21875 63.90625 63.9375 
Q 73.09375 53.65625 73.09375 36.375 
Q 73.09375 19.140625 63.90625 8.859375 
Q 54.734375 -1.421875 39.40625 -1.421875 
Q 24.03125 -1.421875 14.8125 8.828125 
Q 5.609375 19.09375 5.609375 36.375 
Q 5.609375 53.65625 14.8125 63.9375 
Q 24.03125 74.21875 39.40625 74.21875 
z
" id="DejaVuSans-4f"/>
    </defs>
    <g transform="translate(69.12 38.508)scale(0.1 -0.1)">
     <use transform="translate(0 0.765625)" xlink:href="#DejaVuSans-20"/>
     <use transform="translate(31.787109 0.765625)" xlink:href="#DejaVuSans-20"/>
     <use transform="translate(63.574219 0.765625)" xlink:href="#DejaVuSans-20"/>
     <use transform="translate(95.361328 0.765625)" xlink:href="#DejaVuSans-20"/>
     <use transform="translate(127.148438 0.765625)" xlink:href="#DejaVuSans-20"/>
     <use transform="translate(158.935547 0.765625)" xlink:href="#DejaVuSans-20"/>
     <use transform="translate(190.722656 0.765625)" xlink:href="#DejaVuSans-Oblique-3c7"/>
     <use transform="translate(254.375052 39.046875)scale(0.7)" xlink:href="#DejaVuSans-32"/>
     <use transform="translate(249.902344 -26.578125)scale(0.7)" xlink:href="#DejaVuSans-Oblique-72"/>
     <use transform="translate(301.64556 0.765625)" xlink:href="#DejaVuSans-3d"/>
     <use transform="translate(385.434622 0.765625)" xlink:href="#DejaVuSans-31"/>
     <use transform="translate(449.057669 0.765625)" xlink:href="#DejaVuSans-2e"/>
     <use transform="translate(480.844779 0.765625)" xlink:href="#DejaVuSans-35"/>
     <use transform="translate(544.358451 0.765625)" xlink:href="#DejaVuSans-37"/>
     <use transform="translate(607.981497 0.765625)" xlink:href="#DejaVuSans-b1"/>
     <use transform="translate(691.77056 0.765625)" xlink:href="#DejaVuSans-30"/>
     <use transform="translate(755.393607 0.765625)" xlink:href="#DejaVuSans-2e"/>
     <use transform="translate(787.102591 0.765625)" xlink:href="#DejaVuSans-32"/>
     <use transform="translate(850.725638 0.765625)" xlink:href="#DejaVuSans-35"/>
     <use transform="translate(914.348685 0.765625)" xlink:href="#DejaVuSans-20"/>
     <use transform="translate(946.135794 0.765625)" xlink:href="#DejaVuSans-28"/>
     <use transform="translate(985.149466 0.765625)" xlink:href="#DejaVuSans-33"/>
     <use transform="translate(1048.772513 0.765625)" xlink:href="#DejaVuSans-31"/>
     <use transform="translate(1112.39556 0.765625)" xlink:href="#DejaVuSans-20"/>
     <use transform="translate(1144.182669 0.765625)" xlink:href="#DejaVuSans-44"/>
     <use transform="translate(1221.184622 0.765625)" xlink:href="#DejaVuSans-4f"/>
     <use transform="translate(1299.89556 0.765625)" xlink:href="#DejaVuSans-46"/>
     <use transform="translate(1357.415091 0.765625)" xlink:href="#DejaVuSans-29"/>
    </g>
   </g>
  </g>
  <g id="axes_2">
   <g id="patch_7">
    <path d="M 69.12 311.04 
L 414.72 311.04 
L 414.72 103.68 
L 69.12 103.68 
z
" style="fill:#ffffff;"/>
   </g>
   <g id="matplotlib.axis_3">
    <g id="xtick_8">
     <g id="line2d_13">
      <g>
       <use style="stroke:#000000;stroke-width:0.8;" x="75.766154" xlink:href="#me1acf9bb37" y="311.04"/>
      </g>
     </g>
     <g id="text_5">
      <!-- 290 -->
      <g transform="translate(66.222404 325.638437)scale(0.1 -0.1)">
       <use xlink:href="#DejaVuSans-32"/>
       <use x="63.623047" xlink:href="#DejaVuSans-39"/>
       <use x="127.246094" xlink:href="#DejaVuSans-30"/>
      </g>
     </g>
    </g>
    <g id="xtick_9">
     <g id="line2d_14">
      <g>
       <use style="stroke:#000000;stroke-width:0.8;" x="124.634932" xlink:href="#me1acf9bb37" y="311.04"/>
      </g>
     </g>
     <g id="text_6">
      <!-- 295 -->
      <g transform="translate(115.091182 325.638437)scale(0.1 -0.1)">
       <use xlink:href="#DejaVuSans-32"/>
       <use x="63.623047" xlink:href="#DejaVuSans-39"/>
       <use x="127.246094" xlink:href="#DejaVuSans-35"/>
      </g>
     </g>
    </g>
    <g id="xtick_10">
     <g id="line2d_15">
      <g>
       <use style="stroke:#000000;stroke-width:0.8;" x="173.50371" xlink:href="#me1acf9bb37" y="311.04"/>
      </g>
     </g>
     <g id="text_7">
      <!-- 300 -->
      <g transform="translate(163.95996 325.638437)scale(0.1 -0.1)">
       <use xlink:href="#DejaVuSans-33"/>
       <use x="63.623047" xlink:href="#DejaVuSans-30"/>
       <use x="127.246094" xlink:href="#DejaVuSans-30"/>
      </g>
     </g>
    </g>
    <g id="xtick_11">
     <g id="line2d_16">
      <g>
       <use style="stroke:#000000;stroke-width:0.8;" x="222.372489" xlink:href="#me1acf9bb37" y="311.04"/>
      </g>
     </g>
     <g id="text_8">
      <!-- 305 -->
      <g transform="translate(212.828739 325.638437)scale(0.1 -0.1)">
       <use xlink:href="#DejaVuSans-33"/>
       <use x="63.623047" xlink:href="#DejaVuSans-30"/>
       <use x="127.246094" xlink:href="#DejaVuSans-35"/>
      </g>
     </g>
    </g>
    <g id="xtick_12">
     <g id="line2d_17">
      <g>
       <use style="stroke:#000000;stroke-width:0.8;" x="271.241267" xlink:href="#me1acf9bb37" y="311.04"/>
      </g>
     </g>
     <g id="text_9">
      <!-- 310 -->
      <g transform="translate(261.697517 325.638437)scale(0.1 -0.1)">
       <use xlink:href="#DejaVuSans-33"/>
       <use x="63.623047" xlink:href="#DejaVuSans-31"/>
       <use x="127.246094" xlink:href="#DejaVuSans-30"/>
      </g>
     </g>
    </g>
    <g id="xtick_13">
     <g id="line2d_18">
      <g>
       <use style="stroke:#000000;stroke-width:0.8;" x="320.110045" xlink:href="#me1acf9bb37" y="311.04"/>
      </g>
     </g>
     <g id="text_10">
      <!-- 315 -->
      <g transform="translate(310.566295 325.638437)scale(0.1 -0.1)">
       <use xlink:href="#DejaVuSans-33"/>
       <use x="63.623047" xlink:href="#DejaVuSans-31"/>
       <use x="127.246094" xlink:href="#DejaVuSans-35"/>
      </g>
     </g>
    </g>
    <g id="xtick_14">
     <g id="line2d_19">
      <g>
       <use style="stroke:#000000;stroke-width:0.8;" x="368.978824" xlink:href="#me1acf9bb37" y="311.04"/>
      </g>
     </g>
     <g id="text_11">
      <!-- 320 -->
      <g transform="translate(359.435074 325.638437)scale(0.1 -0.1)">
       <use xlink:href="#DejaVuSans-33"/>
       <use x="63.623047" xlink:href="#DejaVuSans-32"/>
       <use x="127.246094" xlink:href="#DejaVuSans-30"/>
      </g>
     </g>
    </g>
    <g id="text_12">
     <!-- Channel -->
     <defs>
      <path d="M 64.40625 67.28125 
L 64.40625 56.890625 
Q 59.421875 61.53125 53.78125 63.8125 
Q 48.140625 66.109375 41.796875 66.109375 
Q 29.296875 66.109375 22.65625 58.46875 
Q 16.015625 50.828125 16.015625 36.375 
Q 16.015625 21.96875 22.65625 14.328125 
Q 29.296875 6.6875 41.796875 6.6875 
Q 48.140625 6.6875 53.78125 8.984375 
Q 59.421875 11.28125 64.40625 15.921875 
L 64.40625 5.609375 
Q 59.234375 2.09375 53.4375 0.328125 
Q 47.65625 -1.421875 41.21875 -1.421875 
Q 24.65625 -1.421875 15.125 8.703125 
Q 5.609375 18.84375 5.609375 36.375 
Q 5.609375 53.953125 15.125 64.078125 
Q 24.65625 74.21875 41.21875 74.21875 
Q 47.75 74.21875 53.53125 72.484375 
Q 59.328125 70.75 64.40625 67.28125 
z
" id="DejaVuSans-43"/>
      <path d="M 54.890625 33.015625 
L 54.890625 0 
L 45.90625 0 
L 45.90625 32.71875 
Q 45.90625 40.484375 42.875 44.328125 
Q 39.84375 48.1875 33.796875 48.1875 
Q 26.515625 48.1875 22.3125 43.546875 
Q 18.109375 38.921875 18.109375 30.90625 
L 18.109375 0 
L 9.078125 0 
L 9.078125 75.984375 
L 18.109375 75.984375 
L 18.109375 46.1875 
Q 21.34375 51.125 25.703125 53.5625 
Q 30.078125 56 35.796875 56 
Q 45.21875 56 50.046875 50.171875 
Q 54.890625 44.34375 54.890625 33.015625 
z
" id="DejaVuSans-68"/>
     </defs>
     <g transform="translate(221.392656 339.316562)scale(0.1 -0.1)">
      <use xlink:href="#DejaVuSans-43"/>
      <use x="69.824219" xlink:href="#DejaVuSans-68"/>
      <use x="133.203125" xlink:href="#DejaVuSans-61"/>
      <use x="194.482422" xlink:href="#DejaVuSans-6e"/>
      <use x="257.861328" xlink:href="#DejaVuSans-6e"/>
      <use x="321.240234" xlink:href="#DejaVuSans-65"/>
      <use x="382.763672" xlink:href="#DejaVuSans-6c"/>
     </g>
    </g>
   </g>
   <g id="matplotlib.axis_4">
    <g id="ytick_4">
     <g id="line2d_20">
      <g>
       <use style="stroke:#000000;stroke-width:0.8;" x="69.12" xlink:href="#md45ae6f925" y="299.264198"/>
      </g>
     </g>
     <g id="text_13">
      <!-- 200 -->
      <g transform="translate(43.0325 303.063416)scale(0.1 -0.1)">
       <use xlink:href="#DejaVuSans-32"/>
       <use x="63.623047" xlink:href="#DejaVuSans-30"/>
       <use x="127.246094" xlink:href="#DejaVuSans-30"/>
      </g>
     </g>
    </g>
    <g id="ytick_5">
     <g id="line2d_21">
      <g>
       <use style="stroke:#000000;stroke-width:0.8;" x="69.12" xlink:href="#md45ae6f925" y="271.729071"/>
      </g>
     </g>
     <g id="text_14">
      <!-- 250 -->
      <g transform="translate(43.0325 275.52829)scale(0.1 -0.1)">
       <use xlink:href="#DejaVuSans-32"/>
       <use x="63.623047" xlink:href="#DejaVuSans-35"/>
       <use x="127.246094" xlink:href="#DejaVuSans-30"/>
      </g>
     </g>
    </g>
    <g id="ytick_6">
     <g id="line2d_22">
      <g>
       <use style="stroke:#000000;stroke-width:0.8;" x="69.12" xlink:href="#md45ae6f925" y="244.193944"/>
      </g>
     </g>
     <g id="text_15">
      <!-- 300 -->
      <g transform="translate(43.0325 247.993163)scale(0.1 -0.1)">
       <use xlink:href="#DejaVuSans-33"/>
       <use x="63.623047" xlink:href="#DejaVuSans-30"/>
       <use x="127.246094" xlink:href="#DejaVuSans-30"/>
      </g>
     </g>
    </g>
    <g id="ytick_7">
     <g id="line2d_23">
      <g>
       <use style="stroke:#000000;stroke-width:0.8;" x="69.12" xlink:href="#md45ae6f925" y="216.658817"/>
      </g>
     </g>
     <g id="text_16">
      <!-- 350 -->
      <g transform="translate(43.0325 220.458036)scale(0.1 -0.1)">
       <use xlink:href="#DejaVuSans-33"/>
       <use x="63.623047" xlink:href="#DejaVuSans-35"/>
       <use x="127.246094" xlink:href="#DejaVuSans-30"/>
      </g>
     </g>
    </g>
    <g id="ytick_8">
     <g id="line2d_24">
      <g>
       <use style="stroke:#000000;stroke-width:0.8;" x="69.12" xlink:href="#md45ae6f925" y="189.12369"/>
      </g>
     </g>
     <g id="text_17">
      <!-- 400 -->
      <g transform="translate(43.0325 192.922909)scale(0.1 -0.1)">
       <use xlink:href="#DejaVuSans-34"/>
       <use x="63.623047" xlink:href="#DejaVuSans-30"/>
       <use x="127.246094" xlink:href="#DejaVuSans-30"/>
      </g>
     </g>
    </g>
    <g id="ytick_9">
     <g id="line2d_25">
      <g>
       <use style="stroke:#000000;stroke-width:0.8;" x="69.12" xlink:href="#md45ae6f925" y="161.588563"/>
      </g>
     </g>
     <g id="text_18">
      <!-- 450 -->
      <g transform="translate(43.0325 165.387782)scale(0.1 -0.1)">
       <use xlink:href="#DejaVuSans-34"/>
       <use x="63.623047" xlink:href="#DejaVuSans-35"/>
       <use x="127.246094" xlink:href="#DejaVuSans-30"/>
      </g>
     </g>
    </g>
    <g id="ytick_10">
     <g id="line2d_26">
      <g>
       <use style="stroke:#000000;stroke-width:0.8;" x="69.12" xlink:href="#md45ae6f925" y="134.053436"/>
      </g>
     </g>
     <g id="text_19">
      <!-- 500 -->
      <g transform="translate(43.0325 137.852655)scale(0.1 -0.1)">
       <use xlink:href="#DejaVuSans-35"/>
       <use x="63.623047" xlink:href="#DejaVuSans-30"/>
       <use x="127.246094" xlink:href="#DejaVuSans-30"/>
      </g>
     </g>
    </g>
    <g id="ytick_11">
     <g id="line2d_27">
      <g>
       <use style="stroke:#000000;stroke-width:0.8;" x="69.12" xlink:href="#md45ae6f925" y="106.518309"/>
      </g>
     </g>
     <g id="text_20">
      <!-- 550 -->
      <g transform="translate(43.0325 110.317528)scale(0.1 -0.1)">
       <use xlink:href="#DejaVuSans-35"/>
       <use x="63.623047" xlink:href="#DejaVuSans-35"/>
       <use x="127.246094" xlink:href="#DejaVuSans-30"/>
      </g>
     </g>
    </g>
    <g id="text_21">
     <!-- Count -->
     <g transform="translate(36.952812 222.208438)rotate(-90)scale(0.1 -0.1)">
      <use xlink:href="#DejaVuSans-43"/>
      <use x="69.824219" xlink:href="#DejaVuSans-6f"/>
      <use x="131.005859" xlink:href="#DejaVuSans-75"/>
      <use x="194.384766" xlink:href="#DejaVuSans-6e"/>
      <use x="257.763672" xlink:href="#DejaVuSans-74"/>
     </g>
    </g>
   </g>
   <g id="LineCollection_2">
    <path clip-path="url(#p4ed96c1b38)" d="M 75.766154 307.052308 
L 75.766154 291.476088 
" style="fill:none;stroke:#0000ff;stroke-width:1.5;"/>
    <path clip-path="url(#p4ed96c1b38)" d="M 85.53991 286.833326 
L 85.53991 269.841676 
" style="fill:none;stroke:#0000ff;stroke-width:1.5;"/>
    <path clip-path="url(#p4ed96c1b38)" d="M 95.313665 266.559762 
L 95.313665 248.261847 
" style="fill:none;stroke:#0000ff;stroke-width:1.5;"/>
    <path clip-path="url(#p4ed96c1b38)" d="M 105.087421 254.801949 
L 105.087421 235.788749 
" style="fill:none;stroke:#0000ff;stroke-width:1.5;"/>
    <path clip-path="url(#p4ed96c1b38)" d="M 114.861176 245.172206 
L 114.861176 225.593201 
" style="fill:none;stroke:#0000ff;stroke-width:1.5;"/>
    <path clip-path="url(#p4ed96c1b38)" d="M 124.634932 227.497492 
L 124.634932 206.921547 
" style="fill:none;stroke:#0000ff;stroke-width:1.5;"/>
    <path clip-path="url(#p4ed96c1b38)" d="M 134.408688 234.463197 
L 134.408688 214.274108 
" style="fill:none;stroke:#0000ff;stroke-width:1.5;"/>
    <path clip-path="url(#p4ed96c1b38)" d="M 144.182443 210.336323 
L 144.182443 188.837753 
" style="fill:none;stroke:#0000ff;stroke-width:1.5;"/>
    <path clip-path="url(#p4ed96c1b38)" d="M 153.956199 224.281335 
L 153.956199 203.529273 
" style="fill:none;stroke:#0000ff;stroke-width:1.5;"/>
    <path clip-path="url(#p4ed96c1b38)" d="M 163.729955 194.767541 
L 163.729955 172.465788 
" style="fill:none;stroke:#0000ff;stroke-width:1.5;"/>
    <path clip-path="url(#p4ed96c1b38)" d="M 173.50371 179.722344 
L 173.50371 156.671643 
" style="fill:none;stroke:#0000ff;stroke-width:1.5;"/>
    <path clip-path="url(#p4ed96c1b38)" d="M 183.277466 192.081816 
L 183.277466 169.644488 
" style="fill:none;stroke:#0000ff;stroke-width:1.5;"/>
    <path clip-path="url(#p4ed96c1b38)" d="M 193.051222 182.947346 
L 193.051222 160.055071 
" style="fill:none;stroke:#0000ff;stroke-width:1.5;"/>
    <path clip-path="url(#p4ed96c1b38)" d="M 202.824977 180.797405 
L 202.824977 157.799392 
" style="fill:none;stroke:#0000ff;stroke-width:1.5;"/>
    <path clip-path="url(#p4ed96c1b38)" d="M 212.598733 151.212512 
L 212.598733 126.807006 
" style="fill:none;stroke:#0000ff;stroke-width:1.5;"/>
    <path clip-path="url(#p4ed96c1b38)" d="M 222.372489 177.572041 
L 222.372489 154.416326 
" style="fill:none;stroke:#0000ff;stroke-width:1.5;"/>
    <path clip-path="url(#p4ed96c1b38)" d="M 232.146244 132.904053 
L 232.146244 107.667692 
" style="fill:none;stroke:#0000ff;stroke-width:1.5;"/>
    <path clip-path="url(#p4ed96c1b38)" d="M 241.92 160.361345 
L 241.92 136.382059 
" style="fill:none;stroke:#0000ff;stroke-width:1.5;"/>
    <path clip-path="url(#p4ed96c1b38)" d="M 251.693756 157.670903 
L 251.693756 133.565476 
" style="fill:none;stroke:#0000ff;stroke-width:1.5;"/>
    <path clip-path="url(#p4ed96c1b38)" d="M 261.467511 177.572041 
L 261.467511 154.416326 
" style="fill:none;stroke:#0000ff;stroke-width:1.5;"/>
    <path clip-path="url(#p4ed96c1b38)" d="M 271.241267 179.722344 
L 271.241267 156.671643 
" style="fill:none;stroke:#0000ff;stroke-width:1.5;"/>
    <path clip-path="url(#p4ed96c1b38)" d="M 281.015023 180.259882 
L 281.015023 157.23551 
" style="fill:none;stroke:#0000ff;stroke-width:1.5;"/>
    <path clip-path="url(#p4ed96c1b38)" d="M 290.788778 154.44194 
L 290.788778 130.186009 
" style="fill:none;stroke:#0000ff;stroke-width:1.5;"/>
    <path clip-path="url(#p4ed96c1b38)" d="M 300.562534 175.421502 
L 300.562534 152.161245 
" style="fill:none;stroke:#0000ff;stroke-width:1.5;"/>
    <path clip-path="url(#p4ed96c1b38)" d="M 310.33629 189.395683 
L 310.33629 166.823596 
" style="fill:none;stroke:#0000ff;stroke-width:1.5;"/>
    <path clip-path="url(#p4ed96c1b38)" d="M 320.110045 175.959159 
L 320.110045 152.724993 
" style="fill:none;stroke:#0000ff;stroke-width:1.5;"/>
    <path clip-path="url(#p4ed96c1b38)" d="M 329.883801 180.259882 
L 329.883801 157.23551 
" style="fill:none;stroke:#0000ff;stroke-width:1.5;"/>
    <path clip-path="url(#p4ed96c1b38)" d="M 339.657557 205.506219 
L 339.657557 183.755212 
" style="fill:none;stroke:#0000ff;stroke-width:1.5;"/>
    <path clip-path="url(#p4ed96c1b38)" d="M 349.431312 219.991976 
L 349.431312 199.007391 
" style="fill:none;stroke:#0000ff;stroke-width:1.5;"/>
    <path clip-path="url(#p4ed96c1b38)" d="M 359.205068 211.946027 
L 359.205068 190.532265 
" style="fill:none;stroke:#0000ff;stroke-width:1.5;"/>
    <path clip-path="url(#p4ed96c1b38)" d="M 368.978824 216.237741 
L 368.978824 195.051791 
" style="fill:none;stroke:#0000ff;stroke-width:1.5;"/>
    <path clip-path="url(#p4ed96c1b38)" d="M 378.752579 232.856054 
L 378.752579 212.577036 
" style="fill:none;stroke:#0000ff;stroke-width:1.5;"/>
    <path clip-path="url(#p4ed96c1b38)" d="M 388.526335 253.197573 
L 388.526335 234.088909 
" style="fill:none;stroke:#0000ff;stroke-width:1.5;"/>
    <path clip-path="url(#p4ed96c1b38)" d="M 398.30009 284.168592 
L 398.30009 266.999386 
" style="fill:none;stroke:#0000ff;stroke-width:1.5;"/>
    <path clip-path="url(#p4ed96c1b38)" d="M 408.073846 295.354025 
L 408.073846 278.943459 
" style="fill:none;stroke:#0000ff;stroke-width:1.5;"/>
   </g>
   <g id="line2d_28">
    <path clip-path="url(#p4ed96c1b38)" d="M 75.766154 290.327853 
L 111.026029 245.775365 
L 121.67052 232.788515 
L 130.651809 222.177527 
L 138.635177 213.082813 
L 145.953264 205.075983 
L 152.938711 197.768626 
L 159.258877 191.470718 
L 165.246403 185.803642 
L 170.901289 180.738494 
L 176.556175 175.969737 
L 181.87842 171.766789 
L 187.200665 167.853461 
L 192.19027 164.458266 
L 197.179875 161.33699 
L 201.83684 158.678184 
L 206.493805 156.271174 
L 211.150769 154.121342 
L 215.475094 152.359478 
L 219.799418 150.826675 
L 224.123742 149.525647 
L 228.448067 148.458571 
L 232.772391 147.62708 
L 237.096715 147.032256 
L 241.42104 146.674628 
L 245.745364 146.554167 
L 250.069688 146.670288 
L 254.394012 147.021853 
L 258.718337 147.607175 
L 263.042661 148.424024 
L 267.366985 149.469638 
L 271.69131 150.740733 
L 276.015634 152.233515 
L 280.672599 154.084119 
L 285.329563 156.180872 
L 289.986528 158.517186 
L 294.976133 161.278052 
L 299.965738 164.296147 
L 305.287983 167.78745 
L 310.610229 171.546607 
L 316.265114 175.818608 
L 322.25264 180.634848 
L 328.572807 186.021971 
L 335.225613 192.00054 
L 342.21106 198.583684 
L 349.861788 206.10917 
L 358.177796 214.606151 
L 367.824366 224.793355 
L 379.466778 237.425172 
L 399.757838 259.839089 
L 408.073846 269.009816 
L 408.073846 269.009816 
" style="fill:none;stroke:#ff0000;stroke-linecap:square;stroke-width:1.5;"/>
   </g>
   <g id="line2d_29">
    <g clip-path="url(#p4ed96c1b38)">
     <use style="fill:#0000ff;stroke:#0000ff;" x="75.766154" xlink:href="#mbf528b20f2" y="299.264198"/>
     <use style="fill:#0000ff;stroke:#0000ff;" x="85.53991" xlink:href="#mbf528b20f2" y="278.337501"/>
     <use style="fill:#0000ff;stroke:#0000ff;" x="95.313665" xlink:href="#mbf528b20f2" y="257.410805"/>
     <use style="fill:#0000ff;stroke:#0000ff;" x="105.087421" xlink:href="#mbf528b20f2" y="245.295349"/>
     <use style="fill:#0000ff;stroke:#0000ff;" x="114.861176" xlink:href="#mbf528b20f2" y="235.382703"/>
     <use style="fill:#0000ff;stroke:#0000ff;" x="124.634932" xlink:href="#mbf528b20f2" y="217.209519"/>
     <use style="fill:#0000ff;stroke:#0000ff;" x="134.408688" xlink:href="#mbf528b20f2" y="224.368652"/>
     <use style="fill:#0000ff;stroke:#0000ff;" x="144.182443" xlink:href="#mbf528b20f2" y="199.587038"/>
     <use style="fill:#0000ff;stroke:#0000ff;" x="153.956199" xlink:href="#mbf528b20f2" y="213.905304"/>
     <use style="fill:#0000ff;stroke:#0000ff;" x="163.729955" xlink:href="#mbf528b20f2" y="183.616665"/>
     <use style="fill:#0000ff;stroke:#0000ff;" x="173.50371" xlink:href="#mbf528b20f2" y="168.196994"/>
     <use style="fill:#0000ff;stroke:#0000ff;" x="183.277466" xlink:href="#mbf528b20f2" y="180.863152"/>
     <use style="fill:#0000ff;stroke:#0000ff;" x="193.051222" xlink:href="#mbf528b20f2" y="171.501209"/>
     <use style="fill:#0000ff;stroke:#0000ff;" x="202.824977" xlink:href="#mbf528b20f2" y="169.298399"/>
     <use style="fill:#0000ff;stroke:#0000ff;" x="212.598733" xlink:href="#mbf528b20f2" y="139.009759"/>
     <use style="fill:#0000ff;stroke:#0000ff;" x="222.372489" xlink:href="#mbf528b20f2" y="165.994183"/>
     <use style="fill:#0000ff;stroke:#0000ff;" x="232.146244" xlink:href="#mbf528b20f2" y="120.285873"/>
     <use style="fill:#0000ff;stroke:#0000ff;" x="241.92" xlink:href="#mbf528b20f2" y="148.371702"/>
     <use style="fill:#0000ff;stroke:#0000ff;" x="251.693756" xlink:href="#mbf528b20f2" y="145.618189"/>
     <use style="fill:#0000ff;stroke:#0000ff;" x="261.467511" xlink:href="#mbf528b20f2" y="165.994183"/>
     <use style="fill:#0000ff;stroke:#0000ff;" x="271.241267" xlink:href="#mbf528b20f2" y="168.196994"/>
     <use style="fill:#0000ff;stroke:#0000ff;" x="281.015023" xlink:href="#mbf528b20f2" y="168.747696"/>
     <use style="fill:#0000ff;stroke:#0000ff;" x="290.788778" xlink:href="#mbf528b20f2" y="142.313974"/>
     <use style="fill:#0000ff;stroke:#0000ff;" x="300.562534" xlink:href="#mbf528b20f2" y="163.791373"/>
     <use style="fill:#0000ff;stroke:#0000ff;" x="310.33629" xlink:href="#mbf528b20f2" y="178.109639"/>
     <use style="fill:#0000ff;stroke:#0000ff;" x="320.110045" xlink:href="#mbf528b20f2" y="164.342076"/>
     <use style="fill:#0000ff;stroke:#0000ff;" x="329.883801" xlink:href="#mbf528b20f2" y="168.747696"/>
     <use style="fill:#0000ff;stroke:#0000ff;" x="339.657557" xlink:href="#mbf528b20f2" y="194.630715"/>
     <use style="fill:#0000ff;stroke:#0000ff;" x="349.431312" xlink:href="#mbf528b20f2" y="209.499684"/>
     <use style="fill:#0000ff;stroke:#0000ff;" x="359.205068" xlink:href="#mbf528b20f2" y="201.239146"/>
     <use style="fill:#0000ff;stroke:#0000ff;" x="368.978824" xlink:href="#mbf528b20f2" y="205.644766"/>
     <use style="fill:#0000ff;stroke:#0000ff;" x="378.752579" xlink:href="#mbf528b20f2" y="222.716545"/>
     <use style="fill:#0000ff;stroke:#0000ff;" x="388.526335" xlink:href="#mbf528b20f2" y="243.643241"/>
     <use style="fill:#0000ff;stroke:#0000ff;" x="398.30009" xlink:href="#mbf528b20f2" y="275.583989"/>
     <use style="fill:#0000ff;stroke:#0000ff;" x="408.073846" xlink:href="#mbf528b20f2" y="287.148742"/>
    </g>
   </g>
   <g id="patch_8">
    <path d="M 69.12 311.04 
L 69.12 103.68 
" style="fill:none;stroke:#000000;stroke-linecap:square;stroke-linejoin:miter;stroke-width:0.8;"/>
   </g>
   <g id="patch_9">
    <path d="M 414.72 311.04 
L 414.72 103.68 
" style="fill:none;stroke:#000000;stroke-linecap:square;stroke-linejoin:miter;stroke-width:0.8;"/>
   </g>
   <g id="patch_10">
    <path d="M 69.12 311.04 
L 414.72 311.04 
" style="fill:none;stroke:#000000;stroke-linecap:square;stroke-linejoin:miter;stroke-width:0.8;"/>
   </g>
   <g id="patch_11">
    <path d="M 69.12 103.68 
L 414.72 103.68 
" style="fill:none;stroke:#000000;stroke-linecap:square;stroke-linejoin:miter;stroke-width:0.8;"/>
   </g>
  </g>
 </g>
 <defs>
  <clipPath id="pebc411d847">
   <rect height="51.84" width="345.6" x="69.12" y="44.928"/>
  </clipPath>
  <clipPath id="p4ed96c1b38">
   <rect height="207.36" width="345.6" x="69.12" y="103.68"/>
  </clipPath>
 </defs>
</svg>
