<?xml version="1.0" encoding="utf-8" standalone="no"?>
<!DOCTYPE svg PUBLIC "-//W3C//DTD SVG 1.1//EN"
  "http://www.w3.org/Graphics/SVG/1.1/DTD/svg11.dtd">
<!-- Created with matplotlib (http://matplotlib.org/) -->
<svg height="437pt" version="1.1" viewBox="0 0 650 437" width="650pt" xmlns="http://www.w3.org/2000/svg" xmlns:xlink="http://www.w3.org/1999/xlink">
 <defs>
  <style type="text/css">
*{stroke-linecap:butt;stroke-linejoin:round;}
  </style>
 </defs>
 <g id="figure_1">
  <g id="patch_1">
   <path d="M 0 437.76 
L 650.16 437.76 
L 650.16 0 
L 0 0 
z
" style="fill:#ffffff;"/>
  </g>
  <g id="axes_1">
   <g id="patch_2">
    <path d="M 97.524 122.5728 
L 585.144 122.5728 
L 585.144 56.9088 
L 97.524 56.9088 
z
" style="fill:#ffffff;"/>
   </g>
   <g id="matplotlib.axis_1">
    <g id="xtick_1">
     <g id="line2d_1">
      <defs>
       <path d="M 0 0 
L 0 3.5 
" id="m5fbe9e4cbb" style="stroke:#000000;stroke-width:0.8;"/>
      </defs>
      <g>
       <use style="stroke:#000000;stroke-width:0.8;" x="106.901308" xlink:href="#m5fbe9e4cbb" y="122.5728"/>
      </g>
     </g>
    </g>
    <g id="xtick_2">
     <g id="line2d_2">
      <g>
       <use style="stroke:#000000;stroke-width:0.8;" x="202.588121" xlink:href="#m5fbe9e4cbb" y="122.5728"/>
      </g>
     </g>
    </g>
    <g id="xtick_3">
     <g id="line2d_3">
      <g>
       <use style="stroke:#000000;stroke-width:0.8;" x="298.274934" xlink:href="#m5fbe9e4cbb" y="122.5728"/>
      </g>
     </g>
    </g>
    <g id="xtick_4">
     <g id="line2d_4">
      <g>
       <use style="stroke:#000000;stroke-width:0.8;" x="393.961747" xlink:href="#m5fbe9e4cbb" y="122.5728"/>
      </g>
     </g>
    </g>
    <g id="xtick_5">
     <g id="line2d_5">
      <g>
       <use style="stroke:#000000;stroke-width:0.8;" x="489.64856" xlink:href="#m5fbe9e4cbb" y="122.5728"/>
      </g>
     </g>
    </g>
    <g id="xtick_6">
     <g id="line2d_6">
      <g>
       <use style="stroke:#000000;stroke-width:0.8;" x="585.335374" xlink:href="#m5fbe9e4cbb" y="122.5728"/>
      </g>
     </g>
    </g>
   </g>
   <g id="matplotlib.axis_2">
    <g id="ytick_1">
     <g id="line2d_7">
      <defs>
       <path d="M 0 0 
L -3.5 0 
" id="m3f17398e5f" style="stroke:#000000;stroke-width:0.8;"/>
      </defs>
      <g>
       <use style="stroke:#000000;stroke-width:0.8;" x="97.524" xlink:href="#m3f17398e5f" y="107.026375"/>
      </g>
     </g>
     <g id="text_1">
      <!-- −2.5 -->
      <defs>
       <path d="M 10.59375 35.5 
L 73.1875 35.5 
L 73.1875 27.203125 
L 10.59375 27.203125 
z
" id="DejaVuSans-2212"/>
       <path d="M 19.1875 8.296875 
L 53.609375 8.296875 
L 53.609375 0 
L 7.328125 0 
L 7.328125 8.296875 
Q 12.9375 14.109375 22.625 23.890625 
Q 32.328125 33.6875 34.8125 36.53125 
Q 39.546875 41.84375 41.421875 45.53125 
Q 43.3125 49.21875 43.3125 52.78125 
Q 43.3125 58.59375 39.234375 62.25 
Q 35.15625 65.921875 28.609375 65.921875 
Q 23.96875 65.921875 18.8125 64.3125 
Q 13.671875 62.703125 7.8125 59.421875 
L 7.8125 69.390625 
Q 13.765625 71.78125 18.9375 73 
Q 24.125 74.21875 28.421875 74.21875 
Q 39.75 74.21875 46.484375 68.546875 
Q 53.21875 62.890625 53.21875 53.421875 
Q 53.21875 48.921875 51.53125 44.890625 
Q 49.859375 40.875 45.40625 35.40625 
Q 44.1875 33.984375 37.640625 27.21875 
Q 31.109375 20.453125 19.1875 8.296875 
z
" id="DejaVuSans-32"/>
       <path d="M 10.6875 12.40625 
L 21 12.40625 
L 21 0 
L 10.6875 0 
z
" id="DejaVuSans-2e"/>
       <path d="M 10.796875 72.90625 
L 49.515625 72.90625 
L 49.515625 64.59375 
L 19.828125 64.59375 
L 19.828125 46.734375 
Q 21.96875 47.46875 24.109375 47.828125 
Q 26.265625 48.1875 28.421875 48.1875 
Q 40.625 48.1875 47.75 41.5 
Q 54.890625 34.8125 54.890625 23.390625 
Q 54.890625 11.625 47.5625 5.09375 
Q 40.234375 -1.421875 26.90625 -1.421875 
Q 22.3125 -1.421875 17.546875 -0.640625 
Q 12.796875 0.140625 7.71875 1.703125 
L 7.71875 11.625 
Q 12.109375 9.234375 16.796875 8.0625 
Q 21.484375 6.890625 26.703125 6.890625 
Q 35.15625 6.890625 40.078125 11.328125 
Q 45.015625 15.765625 45.015625 23.390625 
Q 45.015625 31 40.078125 35.4375 
Q 35.15625 39.890625 26.703125 39.890625 
Q 22.75 39.890625 18.8125 39.015625 
Q 14.890625 38.140625 10.796875 36.28125 
z
" id="DejaVuSans-35"/>
      </defs>
      <g transform="translate(66.241187 110.825594)scale(0.1 -0.1)">
       <use xlink:href="#DejaVuSans-2212"/>
       <use x="83.789062" xlink:href="#DejaVuSans-32"/>
       <use x="147.412109" xlink:href="#DejaVuSans-2e"/>
       <use x="179.199219" xlink:href="#DejaVuSans-35"/>
      </g>
     </g>
    </g>
    <g id="ytick_2">
     <g id="line2d_8">
      <g>
       <use style="stroke:#000000;stroke-width:0.8;" x="97.524" xlink:href="#m3f17398e5f" y="85.547954"/>
      </g>
     </g>
    </g>
    <g id="ytick_3">
     <g id="line2d_9">
      <g>
       <use style="stroke:#000000;stroke-width:0.8;" x="97.524" xlink:href="#m3f17398e5f" y="64.069533"/>
      </g>
     </g>
     <g id="text_2">
      <!-- 2.5 -->
      <g transform="translate(74.620875 67.868751)scale(0.1 -0.1)">
       <use xlink:href="#DejaVuSans-32"/>
       <use x="63.623047" xlink:href="#DejaVuSans-2e"/>
       <use x="95.410156" xlink:href="#DejaVuSans-35"/>
      </g>
     </g>
    </g>
    <g id="text_3">
     <!-- Studentized -->
     <defs>
      <path d="M 53.515625 70.515625 
L 53.515625 60.890625 
Q 47.90625 63.578125 42.921875 64.890625 
Q 37.9375 66.21875 33.296875 66.21875 
Q 25.25 66.21875 20.875 63.09375 
Q 16.5 59.96875 16.5 54.203125 
Q 16.5 49.359375 19.40625 46.890625 
Q 22.3125 44.4375 30.421875 42.921875 
L 36.375 41.703125 
Q 47.40625 39.59375 52.65625 34.296875 
Q 57.90625 29 57.90625 20.125 
Q 57.90625 9.515625 50.796875 4.046875 
Q 43.703125 -1.421875 29.984375 -1.421875 
Q 24.8125 -1.421875 18.96875 -0.25 
Q 13.140625 0.921875 6.890625 3.21875 
L 6.890625 13.375 
Q 12.890625 10.015625 18.65625 8.296875 
Q 24.421875 6.59375 29.984375 6.59375 
Q 38.421875 6.59375 43.015625 9.90625 
Q 47.609375 13.234375 47.609375 19.390625 
Q 47.609375 24.75 44.3125 27.78125 
Q 41.015625 30.8125 33.5 32.328125 
L 27.484375 33.5 
Q 16.453125 35.6875 11.515625 40.375 
Q 6.59375 45.0625 6.59375 53.421875 
Q 6.59375 63.09375 13.40625 68.65625 
Q 20.21875 74.21875 32.171875 74.21875 
Q 37.3125 74.21875 42.625 73.28125 
Q 47.953125 72.359375 53.515625 70.515625 
z
" id="DejaVuSans-53"/>
      <path d="M 18.3125 70.21875 
L 18.3125 54.6875 
L 36.8125 54.6875 
L 36.8125 47.703125 
L 18.3125 47.703125 
L 18.3125 18.015625 
Q 18.3125 11.328125 20.140625 9.421875 
Q 21.96875 7.515625 27.59375 7.515625 
L 36.8125 7.515625 
L 36.8125 0 
L 27.59375 0 
Q 17.1875 0 13.234375 3.875 
Q 9.28125 7.765625 9.28125 18.015625 
L 9.28125 47.703125 
L 2.6875 47.703125 
L 2.6875 54.6875 
L 9.28125 54.6875 
L 9.28125 70.21875 
z
" id="DejaVuSans-74"/>
      <path d="M 8.5 21.578125 
L 8.5 54.6875 
L 17.484375 54.6875 
L 17.484375 21.921875 
Q 17.484375 14.15625 20.5 10.265625 
Q 23.53125 6.390625 29.59375 6.390625 
Q 36.859375 6.390625 41.078125 11.03125 
Q 45.3125 15.671875 45.3125 23.6875 
L 45.3125 54.6875 
L 54.296875 54.6875 
L 54.296875 0 
L 45.3125 0 
L 45.3125 8.40625 
Q 42.046875 3.421875 37.71875 1 
Q 33.40625 -1.421875 27.6875 -1.421875 
Q 18.265625 -1.421875 13.375 4.4375 
Q 8.5 10.296875 8.5 21.578125 
z
M 31.109375 56 
z
" id="DejaVuSans-75"/>
      <path d="M 45.40625 46.390625 
L 45.40625 75.984375 
L 54.390625 75.984375 
L 54.390625 0 
L 45.40625 0 
L 45.40625 8.203125 
Q 42.578125 3.328125 38.25 0.953125 
Q 33.9375 -1.421875 27.875 -1.421875 
Q 17.96875 -1.421875 11.734375 6.484375 
Q 5.515625 14.40625 5.515625 27.296875 
Q 5.515625 40.1875 11.734375 48.09375 
Q 17.96875 56 27.875 56 
Q 33.9375 56 38.25 53.625 
Q 42.578125 51.265625 45.40625 46.390625 
z
M 14.796875 27.296875 
Q 14.796875 17.390625 18.875 11.75 
Q 22.953125 6.109375 30.078125 6.109375 
Q 37.203125 6.109375 41.296875 11.75 
Q 45.40625 17.390625 45.40625 27.296875 
Q 45.40625 37.203125 41.296875 42.84375 
Q 37.203125 48.484375 30.078125 48.484375 
Q 22.953125 48.484375 18.875 42.84375 
Q 14.796875 37.203125 14.796875 27.296875 
z
" id="DejaVuSans-64"/>
      <path d="M 56.203125 29.59375 
L 56.203125 25.203125 
L 14.890625 25.203125 
Q 15.484375 15.921875 20.484375 11.0625 
Q 25.484375 6.203125 34.421875 6.203125 
Q 39.59375 6.203125 44.453125 7.46875 
Q 49.3125 8.734375 54.109375 11.28125 
L 54.109375 2.78125 
Q 49.265625 0.734375 44.1875 -0.34375 
Q 39.109375 -1.421875 33.890625 -1.421875 
Q 20.796875 -1.421875 13.15625 6.1875 
Q 5.515625 13.8125 5.515625 26.8125 
Q 5.515625 40.234375 12.765625 48.109375 
Q 20.015625 56 32.328125 56 
Q 43.359375 56 49.78125 48.890625 
Q 56.203125 41.796875 56.203125 29.59375 
z
M 47.21875 32.234375 
Q 47.125 39.59375 43.09375 43.984375 
Q 39.0625 48.390625 32.421875 48.390625 
Q 24.90625 48.390625 20.390625 44.140625 
Q 15.875 39.890625 15.1875 32.171875 
z
" id="DejaVuSans-65"/>
      <path d="M 54.890625 33.015625 
L 54.890625 0 
L 45.90625 0 
L 45.90625 32.71875 
Q 45.90625 40.484375 42.875 44.328125 
Q 39.84375 48.1875 33.796875 48.1875 
Q 26.515625 48.1875 22.3125 43.546875 
Q 18.109375 38.921875 18.109375 30.90625 
L 18.109375 0 
L 9.078125 0 
L 9.078125 54.6875 
L 18.109375 54.6875 
L 18.109375 46.1875 
Q 21.34375 51.125 25.703125 53.5625 
Q 30.078125 56 35.796875 56 
Q 45.21875 56 50.046875 50.171875 
Q 54.890625 44.34375 54.890625 33.015625 
z
" id="DejaVuSans-6e"/>
      <path d="M 9.421875 54.6875 
L 18.40625 54.6875 
L 18.40625 0 
L 9.421875 0 
z
M 9.421875 75.984375 
L 18.40625 75.984375 
L 18.40625 64.59375 
L 9.421875 64.59375 
z
" id="DejaVuSans-69"/>
      <path d="M 5.515625 54.6875 
L 48.1875 54.6875 
L 48.1875 46.484375 
L 14.40625 7.171875 
L 48.1875 7.171875 
L 48.1875 0 
L 4.296875 0 
L 4.296875 8.203125 
L 38.09375 47.515625 
L 5.515625 47.515625 
z
" id="DejaVuSans-7a"/>
     </defs>
     <g transform="translate(48.963687 119.687675)rotate(-90)scale(0.1 -0.1)">
      <use xlink:href="#DejaVuSans-53"/>
      <use x="63.476562" xlink:href="#DejaVuSans-74"/>
      <use x="102.685547" xlink:href="#DejaVuSans-75"/>
      <use x="166.064453" xlink:href="#DejaVuSans-64"/>
      <use x="229.541016" xlink:href="#DejaVuSans-65"/>
      <use x="291.064453" xlink:href="#DejaVuSans-6e"/>
      <use x="354.443359" xlink:href="#DejaVuSans-74"/>
      <use x="393.652344" xlink:href="#DejaVuSans-69"/>
      <use x="421.435547" xlink:href="#DejaVuSans-7a"/>
      <use x="473.925781" xlink:href="#DejaVuSans-65"/>
      <use x="535.449219" xlink:href="#DejaVuSans-64"/>
     </g>
     <!-- Residuals -->
     <defs>
      <path d="M 44.390625 34.1875 
Q 47.5625 33.109375 50.5625 29.59375 
Q 53.5625 26.078125 56.59375 19.921875 
L 66.609375 0 
L 56 0 
L 46.6875 18.703125 
Q 43.0625 26.03125 39.671875 28.421875 
Q 36.28125 30.8125 30.421875 30.8125 
L 19.671875 30.8125 
L 19.671875 0 
L 9.8125 0 
L 9.8125 72.90625 
L 32.078125 72.90625 
Q 44.578125 72.90625 50.734375 67.671875 
Q 56.890625 62.453125 56.890625 51.90625 
Q 56.890625 45.015625 53.6875 40.46875 
Q 50.484375 35.9375 44.390625 34.1875 
z
M 19.671875 64.796875 
L 19.671875 38.921875 
L 32.078125 38.921875 
Q 39.203125 38.921875 42.84375 42.21875 
Q 46.484375 45.515625 46.484375 51.90625 
Q 46.484375 58.296875 42.84375 61.546875 
Q 39.203125 64.796875 32.078125 64.796875 
z
" id="DejaVuSans-52"/>
      <path d="M 44.28125 53.078125 
L 44.28125 44.578125 
Q 40.484375 46.53125 36.375 47.5 
Q 32.28125 48.484375 27.875 48.484375 
Q 21.1875 48.484375 17.84375 46.4375 
Q 14.5 44.390625 14.5 40.28125 
Q 14.5 37.15625 16.890625 35.375 
Q 19.28125 33.59375 26.515625 31.984375 
L 29.59375 31.296875 
Q 39.15625 29.25 43.1875 25.515625 
Q 47.21875 21.78125 47.21875 15.09375 
Q 47.21875 7.46875 41.1875 3.015625 
Q 35.15625 -1.421875 24.609375 -1.421875 
Q 20.21875 -1.421875 15.453125 -0.5625 
Q 10.6875 0.296875 5.421875 2 
L 5.421875 11.28125 
Q 10.40625 8.6875 15.234375 7.390625 
Q 20.0625 6.109375 24.8125 6.109375 
Q 31.15625 6.109375 34.5625 8.28125 
Q 37.984375 10.453125 37.984375 14.40625 
Q 37.984375 18.0625 35.515625 20.015625 
Q 33.0625 21.96875 24.703125 23.78125 
L 21.578125 24.515625 
Q 13.234375 26.265625 9.515625 29.90625 
Q 5.8125 33.546875 5.8125 39.890625 
Q 5.8125 47.609375 11.28125 51.796875 
Q 16.75 56 26.8125 56 
Q 31.78125 56 36.171875 55.265625 
Q 40.578125 54.546875 44.28125 53.078125 
z
" id="DejaVuSans-73"/>
      <path d="M 34.28125 27.484375 
Q 23.390625 27.484375 19.1875 25 
Q 14.984375 22.515625 14.984375 16.5 
Q 14.984375 11.71875 18.140625 8.90625 
Q 21.296875 6.109375 26.703125 6.109375 
Q 34.1875 6.109375 38.703125 11.40625 
Q 43.21875 16.703125 43.21875 25.484375 
L 43.21875 27.484375 
z
M 52.203125 31.203125 
L 52.203125 0 
L 43.21875 0 
L 43.21875 8.296875 
Q 40.140625 3.328125 35.546875 0.953125 
Q 30.953125 -1.421875 24.3125 -1.421875 
Q 15.921875 -1.421875 10.953125 3.296875 
Q 6 8.015625 6 15.921875 
Q 6 25.140625 12.171875 29.828125 
Q 18.359375 34.515625 30.609375 34.515625 
L 43.21875 34.515625 
L 43.21875 35.40625 
Q 43.21875 41.609375 39.140625 45 
Q 35.0625 48.390625 27.6875 48.390625 
Q 23 48.390625 18.546875 47.265625 
Q 14.109375 46.140625 10.015625 43.890625 
L 10.015625 52.203125 
Q 14.9375 54.109375 19.578125 55.046875 
Q 24.21875 56 28.609375 56 
Q 40.484375 56 46.34375 49.84375 
Q 52.203125 43.703125 52.203125 31.203125 
z
" id="DejaVuSans-61"/>
      <path d="M 9.421875 75.984375 
L 18.40625 75.984375 
L 18.40625 0 
L 9.421875 0 
z
" id="DejaVuSans-6c"/>
     </defs>
     <g transform="translate(60.1615 113.682988)rotate(-90)scale(0.1 -0.1)">
      <use xlink:href="#DejaVuSans-52"/>
      <use x="69.419922" xlink:href="#DejaVuSans-65"/>
      <use x="130.943359" xlink:href="#DejaVuSans-73"/>
      <use x="183.042969" xlink:href="#DejaVuSans-69"/>
      <use x="210.826172" xlink:href="#DejaVuSans-64"/>
      <use x="274.302734" xlink:href="#DejaVuSans-75"/>
      <use x="337.681641" xlink:href="#DejaVuSans-61"/>
      <use x="398.960938" xlink:href="#DejaVuSans-6c"/>
      <use x="426.744141" xlink:href="#DejaVuSans-73"/>
     </g>
    </g>
   </g>
   <g id="LineCollection_1">
    <path clip-path="url(#p851abba818)" d="M 106.901308 100.432769 
L 106.901308 83.250032 
" style="fill:none;stroke:#0000ff;stroke-width:1.5;"/>
    <path clip-path="url(#p851abba818)" d="M 116.469989 91.800856 
L 116.469989 74.618119 
" style="fill:none;stroke:#0000ff;stroke-width:1.5;"/>
    <path clip-path="url(#p851abba818)" d="M 126.03867 81.466501 
L 126.03867 64.283764 
" style="fill:none;stroke:#0000ff;stroke-width:1.5;"/>
    <path clip-path="url(#p851abba818)" d="M 135.607352 85.951216 
L 135.607352 68.768479 
" style="fill:none;stroke:#0000ff;stroke-width:1.5;"/>
    <path clip-path="url(#p851abba818)" d="M 145.176033 111.134282 
L 145.176033 93.951545 
" style="fill:none;stroke:#0000ff;stroke-width:1.5;"/>
    <path clip-path="url(#p851abba818)" d="M 154.744714 92.550932 
L 154.744714 75.368195 
" style="fill:none;stroke:#0000ff;stroke-width:1.5;"/>
    <path clip-path="url(#p851abba818)" d="M 164.313396 108.832272 
L 164.313396 91.649535 
" style="fill:none;stroke:#0000ff;stroke-width:1.5;"/>
    <path clip-path="url(#p851abba818)" d="M 173.882077 80.217163 
L 173.882077 63.034426 
" style="fill:none;stroke:#0000ff;stroke-width:1.5;"/>
    <path clip-path="url(#p851abba818)" d="M 183.450758 79.219797 
L 183.450758 62.03706 
" style="fill:none;stroke:#0000ff;stroke-width:1.5;"/>
    <path clip-path="url(#p851abba818)" d="M 193.01944 97.202227 
L 193.01944 80.01949 
" style="fill:none;stroke:#0000ff;stroke-width:1.5;"/>
    <path clip-path="url(#p851abba818)" d="M 202.588121 105.209257 
L 202.588121 88.02652 
" style="fill:none;stroke:#0000ff;stroke-width:1.5;"/>
    <path clip-path="url(#p851abba818)" d="M 212.156802 84.297837 
L 212.156802 67.1151 
" style="fill:none;stroke:#0000ff;stroke-width:1.5;"/>
    <path clip-path="url(#p851abba818)" d="M 221.725484 104.997437 
L 221.725484 87.8147 
" style="fill:none;stroke:#0000ff;stroke-width:1.5;"/>
    <path clip-path="url(#p851abba818)" d="M 231.294165 88.308875 
L 231.294165 71.126138 
" style="fill:none;stroke:#0000ff;stroke-width:1.5;"/>
    <path clip-path="url(#p851abba818)" d="M 240.862846 101.207925 
L 240.862846 84.025188 
" style="fill:none;stroke:#0000ff;stroke-width:1.5;"/>
    <path clip-path="url(#p851abba818)" d="M 250.431527 90.037358 
L 250.431527 72.854621 
" style="fill:none;stroke:#0000ff;stroke-width:1.5;"/>
    <path clip-path="url(#p851abba818)" d="M 260.000209 101.321471 
L 260.000209 84.138734 
" style="fill:none;stroke:#0000ff;stroke-width:1.5;"/>
    <path clip-path="url(#p851abba818)" d="M 269.56889 86.138674 
L 269.56889 68.955937 
" style="fill:none;stroke:#0000ff;stroke-width:1.5;"/>
    <path clip-path="url(#p851abba818)" d="M 279.137571 87.598027 
L 279.137571 70.41529 
" style="fill:none;stroke:#0000ff;stroke-width:1.5;"/>
    <path clip-path="url(#p851abba818)" d="M 288.706253 99.128407 
L 288.706253 81.94567 
" style="fill:none;stroke:#0000ff;stroke-width:1.5;"/>
    <path clip-path="url(#p851abba818)" d="M 298.274934 79.008867 
L 298.274934 61.82613 
" style="fill:none;stroke:#0000ff;stroke-width:1.5;"/>
    <path clip-path="url(#p851abba818)" d="M 307.843615 100.164209 
L 307.843615 82.981472 
" style="fill:none;stroke:#0000ff;stroke-width:1.5;"/>
    <path clip-path="url(#p851abba818)" d="M 317.412297 106.668914 
L 317.412297 89.486177 
" style="fill:none;stroke:#0000ff;stroke-width:1.5;"/>
    <path clip-path="url(#p851abba818)" d="M 326.980978 77.076264 
L 326.980978 59.893527 
" style="fill:none;stroke:#0000ff;stroke-width:1.5;"/>
    <path clip-path="url(#p851abba818)" d="M 336.549659 101.198852 
L 336.549659 84.016115 
" style="fill:none;stroke:#0000ff;stroke-width:1.5;"/>
    <path clip-path="url(#p851abba818)" d="M 346.118341 96.109166 
L 346.118341 78.926429 
" style="fill:none;stroke:#0000ff;stroke-width:1.5;"/>
    <path clip-path="url(#p851abba818)" d="M 355.687022 89.563504 
L 355.687022 72.380767 
" style="fill:none;stroke:#0000ff;stroke-width:1.5;"/>
    <path clip-path="url(#p851abba818)" d="M 365.255703 99.547472 
L 365.255703 82.364735 
" style="fill:none;stroke:#0000ff;stroke-width:1.5;"/>
    <path clip-path="url(#p851abba818)" d="M 374.824385 97.582489 
L 374.824385 80.399752 
" style="fill:none;stroke:#0000ff;stroke-width:1.5;"/>
    <path clip-path="url(#p851abba818)" d="M 384.393066 88.479731 
L 384.393066 71.296994 
" style="fill:none;stroke:#0000ff;stroke-width:1.5;"/>
    <path clip-path="url(#p851abba818)" d="M 393.961747 113.294566 
L 393.961747 96.111829 
" style="fill:none;stroke:#0000ff;stroke-width:1.5;"/>
    <path clip-path="url(#p851abba818)" d="M 403.530429 92.213245 
L 403.530429 75.030508 
" style="fill:none;stroke:#0000ff;stroke-width:1.5;"/>
    <path clip-path="url(#p851abba818)" d="M 413.09911 90.856529 
L 413.09911 73.673792 
" style="fill:none;stroke:#0000ff;stroke-width:1.5;"/>
    <path clip-path="url(#p851abba818)" d="M 422.667791 77.723534 
L 422.667791 60.540797 
" style="fill:none;stroke:#0000ff;stroke-width:1.5;"/>
    <path clip-path="url(#p851abba818)" d="M 432.236473 94.231254 
L 432.236473 77.048517 
" style="fill:none;stroke:#0000ff;stroke-width:1.5;"/>
    <path clip-path="url(#p851abba818)" d="M 441.805154 93.255151 
L 441.805154 76.072414 
" style="fill:none;stroke:#0000ff;stroke-width:1.5;"/>
    <path clip-path="url(#p851abba818)" d="M 451.373835 93.589835 
L 451.373835 76.407098 
" style="fill:none;stroke:#0000ff;stroke-width:1.5;"/>
    <path clip-path="url(#p851abba818)" d="M 460.942516 99.188499 
L 460.942516 82.005762 
" style="fill:none;stroke:#0000ff;stroke-width:1.5;"/>
    <path clip-path="url(#p851abba818)" d="M 470.511198 85.445284 
L 470.511198 68.262547 
" style="fill:none;stroke:#0000ff;stroke-width:1.5;"/>
    <path clip-path="url(#p851abba818)" d="M 480.079879 96.64109 
L 480.079879 79.458353 
" style="fill:none;stroke:#0000ff;stroke-width:1.5;"/>
    <path clip-path="url(#p851abba818)" d="M 489.64856 84.242291 
L 489.64856 67.059554 
" style="fill:none;stroke:#0000ff;stroke-width:1.5;"/>
    <path clip-path="url(#p851abba818)" d="M 499.217242 92.177352 
L 499.217242 74.994615 
" style="fill:none;stroke:#0000ff;stroke-width:1.5;"/>
    <path clip-path="url(#p851abba818)" d="M 508.785923 119.588073 
L 508.785923 102.405336 
" style="fill:none;stroke:#0000ff;stroke-width:1.5;"/>
    <path clip-path="url(#p851abba818)" d="M 518.354604 95.467552 
L 518.354604 78.284815 
" style="fill:none;stroke:#0000ff;stroke-width:1.5;"/>
    <path clip-path="url(#p851abba818)" d="M 527.923286 91.906888 
L 527.923286 74.724151 
" style="fill:none;stroke:#0000ff;stroke-width:1.5;"/>
    <path clip-path="url(#p851abba818)" d="M 537.491967 87.722256 
L 537.491967 70.539519 
" style="fill:none;stroke:#0000ff;stroke-width:1.5;"/>
    <path clip-path="url(#p851abba818)" d="M 547.060648 94.700414 
L 547.060648 77.517677 
" style="fill:none;stroke:#0000ff;stroke-width:1.5;"/>
    <path clip-path="url(#p851abba818)" d="M 556.62933 88.669971 
L 556.62933 71.487234 
" style="fill:none;stroke:#0000ff;stroke-width:1.5;"/>
    <path clip-path="url(#p851abba818)" d="M 566.198011 85.925322 
L 566.198011 68.742585 
" style="fill:none;stroke:#0000ff;stroke-width:1.5;"/>
    <path clip-path="url(#p851abba818)" d="M 575.766692 102.394903 
L 575.766692 85.212166 
" style="fill:none;stroke:#0000ff;stroke-width:1.5;"/>
   </g>
   <g id="line2d_10">
    <path clip-path="url(#p851abba818)" d="M 106.901308 85.547954 
L 575.766692 85.547954 
" style="fill:none;stroke:#ff0000;stroke-linecap:square;stroke-width:1.5;"/>
   </g>
   <g id="line2d_11">
    <defs>
     <path d="M 0 3 
C 0.795609 3 1.55874 2.683901 2.12132 2.12132 
C 2.683901 1.55874 3 0.795609 3 0 
C 3 -0.795609 2.683901 -1.55874 2.12132 -2.12132 
C 1.55874 -2.683901 0.795609 -3 0 -3 
C -0.795609 -3 -1.55874 -2.683901 -2.12132 -2.12132 
C -2.683901 -1.55874 -3 -0.795609 -3 0 
C -3 0.795609 -2.683901 1.55874 -2.12132 2.12132 
C -1.55874 2.683901 -0.795609 3 0 3 
z
" id="m56a29768bb" style="stroke:#0000ff;"/>
    </defs>
    <g clip-path="url(#p851abba818)">
     <use style="fill:#0000ff;stroke:#0000ff;" x="106.901308" xlink:href="#m56a29768bb" y="91.841401"/>
     <use style="fill:#0000ff;stroke:#0000ff;" x="116.469989" xlink:href="#m56a29768bb" y="83.209488"/>
     <use style="fill:#0000ff;stroke:#0000ff;" x="126.03867" xlink:href="#m56a29768bb" y="72.875132"/>
     <use style="fill:#0000ff;stroke:#0000ff;" x="135.607352" xlink:href="#m56a29768bb" y="77.359847"/>
     <use style="fill:#0000ff;stroke:#0000ff;" x="145.176033" xlink:href="#m56a29768bb" y="102.542914"/>
     <use style="fill:#0000ff;stroke:#0000ff;" x="154.744714" xlink:href="#m56a29768bb" y="83.959564"/>
     <use style="fill:#0000ff;stroke:#0000ff;" x="164.313396" xlink:href="#m56a29768bb" y="100.240904"/>
     <use style="fill:#0000ff;stroke:#0000ff;" x="173.882077" xlink:href="#m56a29768bb" y="71.625794"/>
     <use style="fill:#0000ff;stroke:#0000ff;" x="183.450758" xlink:href="#m56a29768bb" y="70.628428"/>
     <use style="fill:#0000ff;stroke:#0000ff;" x="193.01944" xlink:href="#m56a29768bb" y="88.610858"/>
     <use style="fill:#0000ff;stroke:#0000ff;" x="202.588121" xlink:href="#m56a29768bb" y="96.617889"/>
     <use style="fill:#0000ff;stroke:#0000ff;" x="212.156802" xlink:href="#m56a29768bb" y="75.706469"/>
     <use style="fill:#0000ff;stroke:#0000ff;" x="221.725484" xlink:href="#m56a29768bb" y="96.406069"/>
     <use style="fill:#0000ff;stroke:#0000ff;" x="231.294165" xlink:href="#m56a29768bb" y="79.717506"/>
     <use style="fill:#0000ff;stroke:#0000ff;" x="240.862846" xlink:href="#m56a29768bb" y="92.616556"/>
     <use style="fill:#0000ff;stroke:#0000ff;" x="250.431527" xlink:href="#m56a29768bb" y="81.445989"/>
     <use style="fill:#0000ff;stroke:#0000ff;" x="260.000209" xlink:href="#m56a29768bb" y="92.730102"/>
     <use style="fill:#0000ff;stroke:#0000ff;" x="269.56889" xlink:href="#m56a29768bb" y="77.547306"/>
     <use style="fill:#0000ff;stroke:#0000ff;" x="279.137571" xlink:href="#m56a29768bb" y="79.006659"/>
     <use style="fill:#0000ff;stroke:#0000ff;" x="288.706253" xlink:href="#m56a29768bb" y="90.537038"/>
     <use style="fill:#0000ff;stroke:#0000ff;" x="298.274934" xlink:href="#m56a29768bb" y="70.417499"/>
     <use style="fill:#0000ff;stroke:#0000ff;" x="307.843615" xlink:href="#m56a29768bb" y="91.57284"/>
     <use style="fill:#0000ff;stroke:#0000ff;" x="317.412297" xlink:href="#m56a29768bb" y="98.077546"/>
     <use style="fill:#0000ff;stroke:#0000ff;" x="326.980978" xlink:href="#m56a29768bb" y="68.484896"/>
     <use style="fill:#0000ff;stroke:#0000ff;" x="336.549659" xlink:href="#m56a29768bb" y="92.607483"/>
     <use style="fill:#0000ff;stroke:#0000ff;" x="346.118341" xlink:href="#m56a29768bb" y="87.517797"/>
     <use style="fill:#0000ff;stroke:#0000ff;" x="355.687022" xlink:href="#m56a29768bb" y="80.972135"/>
     <use style="fill:#0000ff;stroke:#0000ff;" x="365.255703" xlink:href="#m56a29768bb" y="90.956104"/>
     <use style="fill:#0000ff;stroke:#0000ff;" x="374.824385" xlink:href="#m56a29768bb" y="88.991121"/>
     <use style="fill:#0000ff;stroke:#0000ff;" x="384.393066" xlink:href="#m56a29768bb" y="79.888362"/>
     <use style="fill:#0000ff;stroke:#0000ff;" x="393.961747" xlink:href="#m56a29768bb" y="104.703197"/>
     <use style="fill:#0000ff;stroke:#0000ff;" x="403.530429" xlink:href="#m56a29768bb" y="83.621876"/>
     <use style="fill:#0000ff;stroke:#0000ff;" x="413.09911" xlink:href="#m56a29768bb" y="82.26516"/>
     <use style="fill:#0000ff;stroke:#0000ff;" x="422.667791" xlink:href="#m56a29768bb" y="69.132165"/>
     <use style="fill:#0000ff;stroke:#0000ff;" x="432.236473" xlink:href="#m56a29768bb" y="85.639885"/>
     <use style="fill:#0000ff;stroke:#0000ff;" x="441.805154" xlink:href="#m56a29768bb" y="84.663783"/>
     <use style="fill:#0000ff;stroke:#0000ff;" x="451.373835" xlink:href="#m56a29768bb" y="84.998466"/>
     <use style="fill:#0000ff;stroke:#0000ff;" x="460.942516" xlink:href="#m56a29768bb" y="90.59713"/>
     <use style="fill:#0000ff;stroke:#0000ff;" x="470.511198" xlink:href="#m56a29768bb" y="76.853916"/>
     <use style="fill:#0000ff;stroke:#0000ff;" x="480.079879" xlink:href="#m56a29768bb" y="88.049722"/>
     <use style="fill:#0000ff;stroke:#0000ff;" x="489.64856" xlink:href="#m56a29768bb" y="75.650922"/>
     <use style="fill:#0000ff;stroke:#0000ff;" x="499.217242" xlink:href="#m56a29768bb" y="83.585984"/>
     <use style="fill:#0000ff;stroke:#0000ff;" x="508.785923" xlink:href="#m56a29768bb" y="110.996704"/>
     <use style="fill:#0000ff;stroke:#0000ff;" x="518.354604" xlink:href="#m56a29768bb" y="86.876184"/>
     <use style="fill:#0000ff;stroke:#0000ff;" x="527.923286" xlink:href="#m56a29768bb" y="83.31552"/>
     <use style="fill:#0000ff;stroke:#0000ff;" x="537.491967" xlink:href="#m56a29768bb" y="79.130888"/>
     <use style="fill:#0000ff;stroke:#0000ff;" x="547.060648" xlink:href="#m56a29768bb" y="86.109045"/>
     <use style="fill:#0000ff;stroke:#0000ff;" x="556.62933" xlink:href="#m56a29768bb" y="80.078603"/>
     <use style="fill:#0000ff;stroke:#0000ff;" x="566.198011" xlink:href="#m56a29768bb" y="77.333954"/>
     <use style="fill:#0000ff;stroke:#0000ff;" x="575.766692" xlink:href="#m56a29768bb" y="93.803534"/>
    </g>
   </g>
   <g id="patch_3">
    <path d="M 97.524 122.5728 
L 97.524 56.9088 
" style="fill:none;stroke:#000000;stroke-linecap:square;stroke-linejoin:miter;stroke-width:0.8;"/>
   </g>
   <g id="patch_4">
    <path d="M 585.144 122.5728 
L 585.144 56.9088 
" style="fill:none;stroke:#000000;stroke-linecap:square;stroke-linejoin:miter;stroke-width:0.8;"/>
   </g>
   <g id="patch_5">
    <path d="M 97.524 122.5728 
L 585.144 122.5728 
" style="fill:none;stroke:#000000;stroke-linecap:square;stroke-linejoin:miter;stroke-width:0.8;"/>
   </g>
   <g id="patch_6">
    <path d="M 97.524 56.9088 
L 585.144 56.9088 
" style="fill:none;stroke:#000000;stroke-linecap:square;stroke-linejoin:miter;stroke-width:0.8;"/>
   </g>
   <g id="text_4">
    <!-- Function (0/0): y = A1*G(x-x0, s) + A2*S(x-x0, s) + L(x,m,b) -->
    <defs>
     <path d="M 9.8125 72.90625 
L 51.703125 72.90625 
L 51.703125 64.59375 
L 19.671875 64.59375 
L 19.671875 43.109375 
L 48.578125 43.109375 
L 48.578125 34.8125 
L 19.671875 34.8125 
L 19.671875 0 
L 9.8125 0 
z
" id="DejaVuSans-46"/>
     <path d="M 48.78125 52.59375 
L 48.78125 44.1875 
Q 44.96875 46.296875 41.140625 47.34375 
Q 37.3125 48.390625 33.40625 48.390625 
Q 24.65625 48.390625 19.8125 42.84375 
Q 14.984375 37.3125 14.984375 27.296875 
Q 14.984375 17.28125 19.8125 11.734375 
Q 24.65625 6.203125 33.40625 6.203125 
Q 37.3125 6.203125 41.140625 7.25 
Q 44.96875 8.296875 48.78125 10.40625 
L 48.78125 2.09375 
Q 45.015625 0.34375 40.984375 -0.53125 
Q 36.96875 -1.421875 32.421875 -1.421875 
Q 20.0625 -1.421875 12.78125 6.34375 
Q 5.515625 14.109375 5.515625 27.296875 
Q 5.515625 40.671875 12.859375 48.328125 
Q 20.21875 56 33.015625 56 
Q 37.15625 56 41.109375 55.140625 
Q 45.0625 54.296875 48.78125 52.59375 
z
" id="DejaVuSans-63"/>
     <path d="M 30.609375 48.390625 
Q 23.390625 48.390625 19.1875 42.75 
Q 14.984375 37.109375 14.984375 27.296875 
Q 14.984375 17.484375 19.15625 11.84375 
Q 23.34375 6.203125 30.609375 6.203125 
Q 37.796875 6.203125 41.984375 11.859375 
Q 46.1875 17.53125 46.1875 27.296875 
Q 46.1875 37.015625 41.984375 42.703125 
Q 37.796875 48.390625 30.609375 48.390625 
z
M 30.609375 56 
Q 42.328125 56 49.015625 48.375 
Q 55.71875 40.765625 55.71875 27.296875 
Q 55.71875 13.875 49.015625 6.21875 
Q 42.328125 -1.421875 30.609375 -1.421875 
Q 18.84375 -1.421875 12.171875 6.21875 
Q 5.515625 13.875 5.515625 27.296875 
Q 5.515625 40.765625 12.171875 48.375 
Q 18.84375 56 30.609375 56 
z
" id="DejaVuSans-6f"/>
     <path id="DejaVuSans-20"/>
     <path d="M 31 75.875 
Q 24.46875 64.65625 21.28125 53.65625 
Q 18.109375 42.671875 18.109375 31.390625 
Q 18.109375 20.125 21.3125 9.0625 
Q 24.515625 -2 31 -13.1875 
L 23.1875 -13.1875 
Q 15.875 -1.703125 12.234375 9.375 
Q 8.59375 20.453125 8.59375 31.390625 
Q 8.59375 42.28125 12.203125 53.3125 
Q 15.828125 64.359375 23.1875 75.875 
z
" id="DejaVuSans-28"/>
     <path d="M 31.78125 66.40625 
Q 24.171875 66.40625 20.328125 58.90625 
Q 16.5 51.421875 16.5 36.375 
Q 16.5 21.390625 20.328125 13.890625 
Q 24.171875 6.390625 31.78125 6.390625 
Q 39.453125 6.390625 43.28125 13.890625 
Q 47.125 21.390625 47.125 36.375 
Q 47.125 51.421875 43.28125 58.90625 
Q 39.453125 66.40625 31.78125 66.40625 
z
M 31.78125 74.21875 
Q 44.046875 74.21875 50.515625 64.515625 
Q 56.984375 54.828125 56.984375 36.375 
Q 56.984375 17.96875 50.515625 8.265625 
Q 44.046875 -1.421875 31.78125 -1.421875 
Q 19.53125 -1.421875 13.0625 8.265625 
Q 6.59375 17.96875 6.59375 36.375 
Q 6.59375 54.828125 13.0625 64.515625 
Q 19.53125 74.21875 31.78125 74.21875 
z
" id="DejaVuSans-30"/>
     <path d="M 25.390625 72.90625 
L 33.6875 72.90625 
L 8.296875 -9.28125 
L 0 -9.28125 
z
" id="DejaVuSans-2f"/>
     <path d="M 8.015625 75.875 
L 15.828125 75.875 
Q 23.140625 64.359375 26.78125 53.3125 
Q 30.421875 42.28125 30.421875 31.390625 
Q 30.421875 20.453125 26.78125 9.375 
Q 23.140625 -1.703125 15.828125 -13.1875 
L 8.015625 -13.1875 
Q 14.5 -2 17.703125 9.0625 
Q 20.90625 20.125 20.90625 31.390625 
Q 20.90625 42.671875 17.703125 53.65625 
Q 14.5 64.65625 8.015625 75.875 
z
" id="DejaVuSans-29"/>
     <path d="M 11.71875 12.40625 
L 22.015625 12.40625 
L 22.015625 0 
L 11.71875 0 
z
M 11.71875 51.703125 
L 22.015625 51.703125 
L 22.015625 39.3125 
L 11.71875 39.3125 
z
" id="DejaVuSans-3a"/>
     <path d="M 32.171875 -5.078125 
Q 28.375 -14.84375 24.75 -17.8125 
Q 21.140625 -20.796875 15.09375 -20.796875 
L 7.90625 -20.796875 
L 7.90625 -13.28125 
L 13.1875 -13.28125 
Q 16.890625 -13.28125 18.9375 -11.515625 
Q 21 -9.765625 23.484375 -3.21875 
L 25.09375 0.875 
L 2.984375 54.6875 
L 12.5 54.6875 
L 29.59375 11.921875 
L 46.6875 54.6875 
L 56.203125 54.6875 
z
" id="DejaVuSans-79"/>
     <path d="M 10.59375 45.40625 
L 73.1875 45.40625 
L 73.1875 37.203125 
L 10.59375 37.203125 
z
M 10.59375 25.484375 
L 73.1875 25.484375 
L 73.1875 17.1875 
L 10.59375 17.1875 
z
" id="DejaVuSans-3d"/>
     <path d="M 34.1875 63.1875 
L 20.796875 26.90625 
L 47.609375 26.90625 
z
M 28.609375 72.90625 
L 39.796875 72.90625 
L 67.578125 0 
L 57.328125 0 
L 50.6875 18.703125 
L 17.828125 18.703125 
L 11.1875 0 
L 0.78125 0 
z
" id="DejaVuSans-41"/>
     <path d="M 12.40625 8.296875 
L 28.515625 8.296875 
L 28.515625 63.921875 
L 10.984375 60.40625 
L 10.984375 69.390625 
L 28.421875 72.90625 
L 38.28125 72.90625 
L 38.28125 8.296875 
L 54.390625 8.296875 
L 54.390625 0 
L 12.40625 0 
z
" id="DejaVuSans-31"/>
     <path d="M 47.015625 60.890625 
L 29.5 51.421875 
L 47.015625 41.890625 
L 44.1875 37.109375 
L 27.78125 47.015625 
L 27.78125 28.609375 
L 22.21875 28.609375 
L 22.21875 47.015625 
L 5.8125 37.109375 
L 2.984375 41.890625 
L 20.515625 51.421875 
L 2.984375 60.890625 
L 5.8125 65.71875 
L 22.21875 55.8125 
L 22.21875 74.21875 
L 27.78125 74.21875 
L 27.78125 55.8125 
L 44.1875 65.71875 
z
" id="DejaVuSans-2a"/>
     <path d="M 59.515625 10.40625 
L 59.515625 29.984375 
L 43.40625 29.984375 
L 43.40625 38.09375 
L 69.28125 38.09375 
L 69.28125 6.78125 
Q 63.578125 2.734375 56.6875 0.65625 
Q 49.8125 -1.421875 42 -1.421875 
Q 24.90625 -1.421875 15.25 8.5625 
Q 5.609375 18.5625 5.609375 36.375 
Q 5.609375 54.25 15.25 64.234375 
Q 24.90625 74.21875 42 74.21875 
Q 49.125 74.21875 55.546875 72.453125 
Q 61.96875 70.703125 67.390625 67.28125 
L 67.390625 56.78125 
Q 61.921875 61.421875 55.765625 63.765625 
Q 49.609375 66.109375 42.828125 66.109375 
Q 29.4375 66.109375 22.71875 58.640625 
Q 16.015625 51.171875 16.015625 36.375 
Q 16.015625 21.625 22.71875 14.15625 
Q 29.4375 6.6875 42.828125 6.6875 
Q 48.046875 6.6875 52.140625 7.59375 
Q 56.25 8.5 59.515625 10.40625 
z
" id="DejaVuSans-47"/>
     <path d="M 54.890625 54.6875 
L 35.109375 28.078125 
L 55.90625 0 
L 45.3125 0 
L 29.390625 21.484375 
L 13.484375 0 
L 2.875 0 
L 24.125 28.609375 
L 4.6875 54.6875 
L 15.28125 54.6875 
L 29.78125 35.203125 
L 44.28125 54.6875 
z
" id="DejaVuSans-78"/>
     <path d="M 4.890625 31.390625 
L 31.203125 31.390625 
L 31.203125 23.390625 
L 4.890625 23.390625 
z
" id="DejaVuSans-2d"/>
     <path d="M 11.71875 12.40625 
L 22.015625 12.40625 
L 22.015625 4 
L 14.015625 -11.625 
L 7.71875 -11.625 
L 11.71875 4 
z
" id="DejaVuSans-2c"/>
     <path d="M 46 62.703125 
L 46 35.5 
L 73.1875 35.5 
L 73.1875 27.203125 
L 46 27.203125 
L 46 0 
L 37.796875 0 
L 37.796875 27.203125 
L 10.59375 27.203125 
L 10.59375 35.5 
L 37.796875 35.5 
L 37.796875 62.703125 
z
" id="DejaVuSans-2b"/>
     <path d="M 9.8125 72.90625 
L 19.671875 72.90625 
L 19.671875 8.296875 
L 55.171875 8.296875 
L 55.171875 0 
L 9.8125 0 
z
" id="DejaVuSans-4c"/>
     <path d="M 52 44.1875 
Q 55.375 50.25 60.0625 53.125 
Q 64.75 56 71.09375 56 
Q 79.640625 56 84.28125 50.015625 
Q 88.921875 44.046875 88.921875 33.015625 
L 88.921875 0 
L 79.890625 0 
L 79.890625 32.71875 
Q 79.890625 40.578125 77.09375 44.375 
Q 74.3125 48.1875 68.609375 48.1875 
Q 61.625 48.1875 57.5625 43.546875 
Q 53.515625 38.921875 53.515625 30.90625 
L 53.515625 0 
L 44.484375 0 
L 44.484375 32.71875 
Q 44.484375 40.625 41.703125 44.40625 
Q 38.921875 48.1875 33.109375 48.1875 
Q 26.21875 48.1875 22.15625 43.53125 
Q 18.109375 38.875 18.109375 30.90625 
L 18.109375 0 
L 9.078125 0 
L 9.078125 54.6875 
L 18.109375 54.6875 
L 18.109375 46.1875 
Q 21.1875 51.21875 25.484375 53.609375 
Q 29.78125 56 35.6875 56 
Q 41.65625 56 45.828125 52.96875 
Q 50 49.953125 52 44.1875 
z
" id="DejaVuSans-6d"/>
     <path d="M 48.6875 27.296875 
Q 48.6875 37.203125 44.609375 42.84375 
Q 40.53125 48.484375 33.40625 48.484375 
Q 26.265625 48.484375 22.1875 42.84375 
Q 18.109375 37.203125 18.109375 27.296875 
Q 18.109375 17.390625 22.1875 11.75 
Q 26.265625 6.109375 33.40625 6.109375 
Q 40.53125 6.109375 44.609375 11.75 
Q 48.6875 17.390625 48.6875 27.296875 
z
M 18.109375 46.390625 
Q 20.953125 51.265625 25.265625 53.625 
Q 29.59375 56 35.59375 56 
Q 45.5625 56 51.78125 48.09375 
Q 58.015625 40.1875 58.015625 27.296875 
Q 58.015625 14.40625 51.78125 6.484375 
Q 45.5625 -1.421875 35.59375 -1.421875 
Q 29.59375 -1.421875 25.265625 0.953125 
Q 20.953125 3.328125 18.109375 8.203125 
L 18.109375 0 
L 9.078125 0 
L 9.078125 75.984375 
L 18.109375 75.984375 
z
" id="DejaVuSans-62"/>
    </defs>
    <g transform="translate(97.524 26.2913)scale(0.1 -0.1)">
     <use xlink:href="#DejaVuSans-46"/>
     <use x="57.441406" xlink:href="#DejaVuSans-75"/>
     <use x="120.820312" xlink:href="#DejaVuSans-6e"/>
     <use x="184.199219" xlink:href="#DejaVuSans-63"/>
     <use x="239.179688" xlink:href="#DejaVuSans-74"/>
     <use x="278.388672" xlink:href="#DejaVuSans-69"/>
     <use x="306.171875" xlink:href="#DejaVuSans-6f"/>
     <use x="367.353516" xlink:href="#DejaVuSans-6e"/>
     <use x="430.732422" xlink:href="#DejaVuSans-20"/>
     <use x="462.519531" xlink:href="#DejaVuSans-28"/>
     <use x="501.533203" xlink:href="#DejaVuSans-30"/>
     <use x="565.15625" xlink:href="#DejaVuSans-2f"/>
     <use x="598.847656" xlink:href="#DejaVuSans-30"/>
     <use x="662.470703" xlink:href="#DejaVuSans-29"/>
     <use x="701.484375" xlink:href="#DejaVuSans-3a"/>
     <use x="735.175781" xlink:href="#DejaVuSans-20"/>
     <use x="766.962891" xlink:href="#DejaVuSans-79"/>
     <use x="826.142578" xlink:href="#DejaVuSans-20"/>
     <use x="857.929688" xlink:href="#DejaVuSans-3d"/>
     <use x="941.71875" xlink:href="#DejaVuSans-20"/>
     <use x="973.505859" xlink:href="#DejaVuSans-41"/>
     <use x="1041.914062" xlink:href="#DejaVuSans-31"/>
     <use x="1105.537109" xlink:href="#DejaVuSans-2a"/>
     <use x="1155.537109" xlink:href="#DejaVuSans-47"/>
     <use x="1233.027344" xlink:href="#DejaVuSans-28"/>
     <use x="1272.041016" xlink:href="#DejaVuSans-78"/>
     <use x="1331.220703" xlink:href="#DejaVuSans-2d"/>
     <use x="1367.304688" xlink:href="#DejaVuSans-78"/>
     <use x="1426.484375" xlink:href="#DejaVuSans-30"/>
     <use x="1490.107422" xlink:href="#DejaVuSans-2c"/>
     <use x="1521.894531" xlink:href="#DejaVuSans-20"/>
     <use x="1553.681641" xlink:href="#DejaVuSans-73"/>
     <use x="1605.78125" xlink:href="#DejaVuSans-29"/>
     <use x="1644.794922" xlink:href="#DejaVuSans-20"/>
     <use x="1676.582031" xlink:href="#DejaVuSans-2b"/>
     <use x="1760.371094" xlink:href="#DejaVuSans-20"/>
     <use x="1792.158203" xlink:href="#DejaVuSans-41"/>
     <use x="1860.566406" xlink:href="#DejaVuSans-32"/>
     <use x="1924.189453" xlink:href="#DejaVuSans-2a"/>
     <use x="1974.189453" xlink:href="#DejaVuSans-53"/>
     <use x="2037.666016" xlink:href="#DejaVuSans-28"/>
     <use x="2076.679688" xlink:href="#DejaVuSans-78"/>
     <use x="2135.859375" xlink:href="#DejaVuSans-2d"/>
     <use x="2171.943359" xlink:href="#DejaVuSans-78"/>
     <use x="2231.123047" xlink:href="#DejaVuSans-30"/>
     <use x="2294.746094" xlink:href="#DejaVuSans-2c"/>
     <use x="2326.533203" xlink:href="#DejaVuSans-20"/>
     <use x="2358.320312" xlink:href="#DejaVuSans-73"/>
     <use x="2410.419922" xlink:href="#DejaVuSans-29"/>
     <use x="2449.433594" xlink:href="#DejaVuSans-20"/>
     <use x="2481.220703" xlink:href="#DejaVuSans-2b"/>
     <use x="2565.009766" xlink:href="#DejaVuSans-20"/>
     <use x="2596.796875" xlink:href="#DejaVuSans-4c"/>
     <use x="2652.509766" xlink:href="#DejaVuSans-28"/>
     <use x="2691.523438" xlink:href="#DejaVuSans-78"/>
     <use x="2750.703125" xlink:href="#DejaVuSans-2c"/>
     <use x="2782.490234" xlink:href="#DejaVuSans-6d"/>
     <use x="2879.902344" xlink:href="#DejaVuSans-2c"/>
     <use x="2911.689453" xlink:href="#DejaVuSans-62"/>
     <use x="2975.166016" xlink:href="#DejaVuSans-29"/>
    </g>
    <!-- Fit: A1=446.0$\pm$44.0, x0=294.1$\pm$2.6, s=20.5$\pm$1.3, A2=-2000.0$\pm$2700.0, -->
    <defs>
     <path d="M 37.796875 64.3125 
L 12.890625 25.390625 
L 37.796875 25.390625 
z
M 35.203125 72.90625 
L 47.609375 72.90625 
L 47.609375 25.390625 
L 58.015625 25.390625 
L 58.015625 17.1875 
L 47.609375 17.1875 
L 47.609375 0 
L 37.796875 0 
L 37.796875 17.1875 
L 4.890625 17.1875 
L 4.890625 26.703125 
z
" id="DejaVuSans-34"/>
     <path d="M 33.015625 40.375 
Q 26.375 40.375 22.484375 35.828125 
Q 18.609375 31.296875 18.609375 23.390625 
Q 18.609375 15.53125 22.484375 10.953125 
Q 26.375 6.390625 33.015625 6.390625 
Q 39.65625 6.390625 43.53125 10.953125 
Q 47.40625 15.53125 47.40625 23.390625 
Q 47.40625 31.296875 43.53125 35.828125 
Q 39.65625 40.375 33.015625 40.375 
z
M 52.59375 71.296875 
L 52.59375 62.3125 
Q 48.875 64.0625 45.09375 64.984375 
Q 41.3125 65.921875 37.59375 65.921875 
Q 27.828125 65.921875 22.671875 59.328125 
Q 17.53125 52.734375 16.796875 39.40625 
Q 19.671875 43.65625 24.015625 45.921875 
Q 28.375 48.1875 33.59375 48.1875 
Q 44.578125 48.1875 50.953125 41.515625 
Q 57.328125 34.859375 57.328125 23.390625 
Q 57.328125 12.15625 50.6875 5.359375 
Q 44.046875 -1.421875 33.015625 -1.421875 
Q 20.359375 -1.421875 13.671875 8.265625 
Q 6.984375 17.96875 6.984375 36.375 
Q 6.984375 53.65625 15.1875 63.9375 
Q 23.390625 74.21875 37.203125 74.21875 
Q 40.921875 74.21875 44.703125 73.484375 
Q 48.484375 72.75 52.59375 71.296875 
z
" id="DejaVuSans-36"/>
     <path d="M 46 62.703125 
L 46 43.796875 
L 73.1875 43.796875 
L 73.1875 35.5 
L 46 35.5 
L 46 16.609375 
L 37.796875 16.609375 
L 37.796875 35.5 
L 10.59375 35.5 
L 10.59375 43.796875 
L 37.796875 43.796875 
L 37.796875 62.703125 
z
M 10.59375 8.296875 
L 73.1875 8.296875 
L 73.1875 0 
L 10.59375 0 
z
" id="DejaVuSans-b1"/>
     <path d="M 10.984375 1.515625 
L 10.984375 10.5 
Q 14.703125 8.734375 18.5 7.8125 
Q 22.3125 6.890625 25.984375 6.890625 
Q 35.75 6.890625 40.890625 13.453125 
Q 46.046875 20.015625 46.78125 33.40625 
Q 43.953125 29.203125 39.59375 26.953125 
Q 35.25 24.703125 29.984375 24.703125 
Q 19.046875 24.703125 12.671875 31.3125 
Q 6.296875 37.9375 6.296875 49.421875 
Q 6.296875 60.640625 12.9375 67.421875 
Q 19.578125 74.21875 30.609375 74.21875 
Q 43.265625 74.21875 49.921875 64.515625 
Q 56.59375 54.828125 56.59375 36.375 
Q 56.59375 19.140625 48.40625 8.859375 
Q 40.234375 -1.421875 26.421875 -1.421875 
Q 22.703125 -1.421875 18.890625 -0.6875 
Q 15.09375 0.046875 10.984375 1.515625 
z
M 30.609375 32.421875 
Q 37.25 32.421875 41.125 36.953125 
Q 45.015625 41.5 45.015625 49.421875 
Q 45.015625 57.28125 41.125 61.84375 
Q 37.25 66.40625 30.609375 66.40625 
Q 23.96875 66.40625 20.09375 61.84375 
Q 16.21875 57.28125 16.21875 49.421875 
Q 16.21875 41.5 20.09375 36.953125 
Q 23.96875 32.421875 30.609375 32.421875 
z
" id="DejaVuSans-39"/>
     <path d="M 40.578125 39.3125 
Q 47.65625 37.796875 51.625 33 
Q 55.609375 28.21875 55.609375 21.1875 
Q 55.609375 10.40625 48.1875 4.484375 
Q 40.765625 -1.421875 27.09375 -1.421875 
Q 22.515625 -1.421875 17.65625 -0.515625 
Q 12.796875 0.390625 7.625 2.203125 
L 7.625 11.71875 
Q 11.71875 9.328125 16.59375 8.109375 
Q 21.484375 6.890625 26.8125 6.890625 
Q 36.078125 6.890625 40.9375 10.546875 
Q 45.796875 14.203125 45.796875 21.1875 
Q 45.796875 27.640625 41.28125 31.265625 
Q 36.765625 34.90625 28.71875 34.90625 
L 20.21875 34.90625 
L 20.21875 43.015625 
L 29.109375 43.015625 
Q 36.375 43.015625 40.234375 45.921875 
Q 44.09375 48.828125 44.09375 54.296875 
Q 44.09375 59.90625 40.109375 62.90625 
Q 36.140625 65.921875 28.71875 65.921875 
Q 24.65625 65.921875 20.015625 65.03125 
Q 15.375 64.15625 9.8125 62.3125 
L 9.8125 71.09375 
Q 15.4375 72.65625 20.34375 73.4375 
Q 25.25 74.21875 29.59375 74.21875 
Q 40.828125 74.21875 47.359375 69.109375 
Q 53.90625 64.015625 53.90625 55.328125 
Q 53.90625 49.265625 50.4375 45.09375 
Q 46.96875 40.921875 40.578125 39.3125 
z
" id="DejaVuSans-33"/>
     <path d="M 8.203125 72.90625 
L 55.078125 72.90625 
L 55.078125 68.703125 
L 28.609375 0 
L 18.3125 0 
L 43.21875 64.59375 
L 8.203125 64.59375 
z
" id="DejaVuSans-37"/>
    </defs>
    <g transform="translate(97.524 37.489112)scale(0.1 -0.1)">
     <use transform="translate(0 0.015625)" xlink:href="#DejaVuSans-46"/>
     <use transform="translate(57.519531 0.015625)" xlink:href="#DejaVuSans-69"/>
     <use transform="translate(85.302734 0.015625)" xlink:href="#DejaVuSans-74"/>
     <use transform="translate(124.511719 0.015625)" xlink:href="#DejaVuSans-3a"/>
     <use transform="translate(158.203125 0.015625)" xlink:href="#DejaVuSans-20"/>
     <use transform="translate(189.990234 0.015625)" xlink:href="#DejaVuSans-41"/>
     <use transform="translate(258.398438 0.015625)" xlink:href="#DejaVuSans-31"/>
     <use transform="translate(322.021484 0.015625)" xlink:href="#DejaVuSans-3d"/>
     <use transform="translate(405.810547 0.015625)" xlink:href="#DejaVuSans-34"/>
     <use transform="translate(469.433594 0.015625)" xlink:href="#DejaVuSans-34"/>
     <use transform="translate(533.056641 0.015625)" xlink:href="#DejaVuSans-36"/>
     <use transform="translate(596.679688 0.015625)" xlink:href="#DejaVuSans-2e"/>
     <use transform="translate(628.466797 0.015625)" xlink:href="#DejaVuSans-30"/>
     <use transform="translate(692.089844 0.015625)" xlink:href="#DejaVuSans-b1"/>
     <use transform="translate(775.878906 0.015625)" xlink:href="#DejaVuSans-34"/>
     <use transform="translate(839.501953 0.015625)" xlink:href="#DejaVuSans-34"/>
     <use transform="translate(903.125 0.015625)" xlink:href="#DejaVuSans-2e"/>
     <use transform="translate(934.912109 0.015625)" xlink:href="#DejaVuSans-30"/>
     <use transform="translate(998.535156 0.015625)" xlink:href="#DejaVuSans-2c"/>
     <use transform="translate(1030.322266 0.015625)" xlink:href="#DejaVuSans-20"/>
     <use transform="translate(1062.109375 0.015625)" xlink:href="#DejaVuSans-78"/>
     <use transform="translate(1121.289062 0.015625)" xlink:href="#DejaVuSans-30"/>
     <use transform="translate(1184.912109 0.015625)" xlink:href="#DejaVuSans-3d"/>
     <use transform="translate(1268.701172 0.015625)" xlink:href="#DejaVuSans-32"/>
     <use transform="translate(1332.308594 0.015625)" xlink:href="#DejaVuSans-39"/>
     <use transform="translate(1395.931641 0.015625)" xlink:href="#DejaVuSans-34"/>
     <use transform="translate(1459.554688 0.015625)" xlink:href="#DejaVuSans-2e"/>
     <use transform="translate(1491.341797 0.015625)" xlink:href="#DejaVuSans-31"/>
     <use transform="translate(1554.964844 0.015625)" xlink:href="#DejaVuSans-b1"/>
     <use transform="translate(1638.753906 0.015625)" xlink:href="#DejaVuSans-32"/>
     <use transform="translate(1702.376953 0.015625)" xlink:href="#DejaVuSans-2e"/>
     <use transform="translate(1734.164062 0.015625)" xlink:href="#DejaVuSans-36"/>
     <use transform="translate(1797.787109 0.015625)" xlink:href="#DejaVuSans-2c"/>
     <use transform="translate(1829.574219 0.015625)" xlink:href="#DejaVuSans-20"/>
     <use transform="translate(1861.361328 0.015625)" xlink:href="#DejaVuSans-73"/>
     <use transform="translate(1913.460938 0.015625)" xlink:href="#DejaVuSans-3d"/>
     <use transform="translate(1997.25 0.015625)" xlink:href="#DejaVuSans-32"/>
     <use transform="translate(2060.873047 0.015625)" xlink:href="#DejaVuSans-30"/>
     <use transform="translate(2124.496094 0.015625)" xlink:href="#DejaVuSans-2e"/>
     <use transform="translate(2156.283203 0.015625)" xlink:href="#DejaVuSans-35"/>
     <use transform="translate(2219.90625 0.015625)" xlink:href="#DejaVuSans-b1"/>
     <use transform="translate(2303.695312 0.015625)" xlink:href="#DejaVuSans-31"/>
     <use transform="translate(2367.318359 0.015625)" xlink:href="#DejaVuSans-2e"/>
     <use transform="translate(2399.105469 0.015625)" xlink:href="#DejaVuSans-33"/>
     <use transform="translate(2462.728516 0.015625)" xlink:href="#DejaVuSans-2c"/>
     <use transform="translate(2494.515625 0.015625)" xlink:href="#DejaVuSans-20"/>
     <use transform="translate(2526.302734 0.015625)" xlink:href="#DejaVuSans-41"/>
     <use transform="translate(2594.710938 0.015625)" xlink:href="#DejaVuSans-32"/>
     <use transform="translate(2658.333984 0.015625)" xlink:href="#DejaVuSans-3d"/>
     <use transform="translate(2742.123047 0.015625)" xlink:href="#DejaVuSans-2d"/>
     <use transform="translate(2778.207031 0.015625)" xlink:href="#DejaVuSans-32"/>
     <use transform="translate(2841.830078 0.015625)" xlink:href="#DejaVuSans-30"/>
     <use transform="translate(2905.453125 0.015625)" xlink:href="#DejaVuSans-30"/>
     <use transform="translate(2969.076172 0.015625)" xlink:href="#DejaVuSans-30"/>
     <use transform="translate(3032.699219 0.015625)" xlink:href="#DejaVuSans-2e"/>
     <use transform="translate(3064.486328 0.015625)" xlink:href="#DejaVuSans-30"/>
     <use transform="translate(3128.109375 0.015625)" xlink:href="#DejaVuSans-b1"/>
     <use transform="translate(3211.898438 0.015625)" xlink:href="#DejaVuSans-32"/>
     <use transform="translate(3275.521484 0.015625)" xlink:href="#DejaVuSans-37"/>
     <use transform="translate(3339.144531 0.015625)" xlink:href="#DejaVuSans-30"/>
     <use transform="translate(3402.767578 0.015625)" xlink:href="#DejaVuSans-30"/>
     <use transform="translate(3466.390625 0.015625)" xlink:href="#DejaVuSans-2e"/>
     <use transform="translate(3498.177734 0.015625)" xlink:href="#DejaVuSans-30"/>
     <use transform="translate(3561.800781 0.015625)" xlink:href="#DejaVuSans-2c"/>
    </g>
    <!--       m=-22.0$\pm$29.0, b=7400.0$\pm$9900.0, $\chi^2_r$=1.36$\pm$0.21 (44 DOF) -->
    <defs>
     <path d="M 30.03125 -12.203125 
L 26.421875 6.5 
L 6.15625 -20.84375 
L -4.4375 -20.84375 
L 24.265625 17.828125 
L 19.828125 40.828125 
Q 18.65625 46.96875 11.140625 46.96875 
L 8.734375 46.96875 
L 10.203125 54.6875 
L 13.625 54.59375 
Q 26.171875 54.25 27.734375 46.09375 
L 31.34375 27.390625 
L 51.609375 54.734375 
L 62.203125 54.734375 
L 33.5 16.0625 
L 37.9375 -6.9375 
Q 39.109375 -13.09375 46.625 -13.09375 
L 49.03125 -13.09375 
L 47.5625 -20.796875 
L 44.140625 -20.703125 
Q 31.59375 -20.359375 30.03125 -12.203125 
z
" id="DejaVuSans-Oblique-3c7"/>
     <path d="M 44.578125 46.390625 
Q 43.21875 47.125 41.453125 47.515625 
Q 39.703125 47.90625 37.703125 47.90625 
Q 30.515625 47.90625 25.140625 42.453125 
Q 19.78125 37.015625 18.015625 27.875 
L 12.5 0 
L 3.515625 0 
L 14.203125 54.6875 
L 23.1875 54.6875 
L 21.484375 46.1875 
Q 25.046875 50.921875 30 53.453125 
Q 34.96875 56 40.578125 56 
Q 42.046875 56 43.453125 55.828125 
Q 44.875 55.671875 46.296875 55.28125 
z
" id="DejaVuSans-Oblique-72"/>
     <path d="M 19.671875 64.796875 
L 19.671875 8.109375 
L 31.59375 8.109375 
Q 46.6875 8.109375 53.6875 14.9375 
Q 60.6875 21.78125 60.6875 36.53125 
Q 60.6875 51.171875 53.6875 57.984375 
Q 46.6875 64.796875 31.59375 64.796875 
z
M 9.8125 72.90625 
L 30.078125 72.90625 
Q 51.265625 72.90625 61.171875 64.09375 
Q 71.09375 55.28125 71.09375 36.53125 
Q 71.09375 17.671875 61.125 8.828125 
Q 51.171875 0 30.078125 0 
L 9.8125 0 
z
" id="DejaVuSans-44"/>
     <path d="M 39.40625 66.21875 
Q 28.65625 66.21875 22.328125 58.203125 
Q 16.015625 50.203125 16.015625 36.375 
Q 16.015625 22.609375 22.328125 14.59375 
Q 28.65625 6.59375 39.40625 6.59375 
Q 50.140625 6.59375 56.421875 14.59375 
Q 62.703125 22.609375 62.703125 36.375 
Q 62.703125 50.203125 56.421875 58.203125 
Q 50.140625 66.21875 39.40625 66.21875 
z
M 39.40625 74.21875 
Q 54.734375 74.21875 63.90625 63.9375 
Q 73.09375 53.65625 73.09375 36.375 
Q 73.09375 19.140625 63.90625 8.859375 
Q 54.734375 -1.421875 39.40625 -1.421875 
Q 24.03125 -1.421875 14.8125 8.828125 
Q 5.609375 19.09375 5.609375 36.375 
Q 5.609375 53.65625 14.8125 63.9375 
Q 24.03125 74.21875 39.40625 74.21875 
z
" id="DejaVuSans-4f"/>
    </defs>
    <g transform="translate(97.524 50.4888)scale(0.1 -0.1)">
     <use transform="translate(0 0.765625)" xlink:href="#DejaVuSans-20"/>
     <use transform="translate(31.787109 0.765625)" xlink:href="#DejaVuSans-20"/>
     <use transform="translate(63.574219 0.765625)" xlink:href="#DejaVuSans-20"/>
     <use transform="translate(95.361328 0.765625)" xlink:href="#DejaVuSans-20"/>
     <use transform="translate(127.148438 0.765625)" xlink:href="#DejaVuSans-20"/>
     <use transform="translate(158.935547 0.765625)" xlink:href="#DejaVuSans-20"/>
     <use transform="translate(190.722656 0.765625)" xlink:href="#DejaVuSans-6d"/>
     <use transform="translate(288.134766 0.765625)" xlink:href="#DejaVuSans-3d"/>
     <use transform="translate(371.923828 0.765625)" xlink:href="#DejaVuSans-2d"/>
     <use transform="translate(408.007812 0.765625)" xlink:href="#DejaVuSans-32"/>
     <use transform="translate(471.630859 0.765625)" xlink:href="#DejaVuSans-32"/>
     <use transform="translate(535.253906 0.765625)" xlink:href="#DejaVuSans-2e"/>
     <use transform="translate(567.041016 0.765625)" xlink:href="#DejaVuSans-30"/>
     <use transform="translate(630.664062 0.765625)" xlink:href="#DejaVuSans-b1"/>
     <use transform="translate(714.453125 0.765625)" xlink:href="#DejaVuSans-32"/>
     <use transform="translate(778.060547 0.765625)" xlink:href="#DejaVuSans-39"/>
     <use transform="translate(841.683594 0.765625)" xlink:href="#DejaVuSans-2e"/>
     <use transform="translate(873.470703 0.765625)" xlink:href="#DejaVuSans-30"/>
     <use transform="translate(937.09375 0.765625)" xlink:href="#DejaVuSans-2c"/>
     <use transform="translate(968.880859 0.765625)" xlink:href="#DejaVuSans-20"/>
     <use transform="translate(1000.667969 0.765625)" xlink:href="#DejaVuSans-62"/>
     <use transform="translate(1064.144531 0.765625)" xlink:href="#DejaVuSans-3d"/>
     <use transform="translate(1147.933594 0.765625)" xlink:href="#DejaVuSans-37"/>
     <use transform="translate(1211.556641 0.765625)" xlink:href="#DejaVuSans-34"/>
     <use transform="translate(1275.179688 0.765625)" xlink:href="#DejaVuSans-30"/>
     <use transform="translate(1338.802734 0.765625)" xlink:href="#DejaVuSans-30"/>
     <use transform="translate(1402.425781 0.765625)" xlink:href="#DejaVuSans-2e"/>
     <use transform="translate(1434.212891 0.765625)" xlink:href="#DejaVuSans-30"/>
     <use transform="translate(1497.835938 0.765625)" xlink:href="#DejaVuSans-b1"/>
     <use transform="translate(1581.625 0.765625)" xlink:href="#DejaVuSans-39"/>
     <use transform="translate(1645.248047 0.765625)" xlink:href="#DejaVuSans-39"/>
     <use transform="translate(1708.871094 0.765625)" xlink:href="#DejaVuSans-30"/>
     <use transform="translate(1772.494141 0.765625)" xlink:href="#DejaVuSans-30"/>
     <use transform="translate(1836.117188 0.765625)" xlink:href="#DejaVuSans-2e"/>
     <use transform="translate(1867.904297 0.765625)" xlink:href="#DejaVuSans-30"/>
     <use transform="translate(1931.527344 0.765625)" xlink:href="#DejaVuSans-2c"/>
     <use transform="translate(1963.314453 0.765625)" xlink:href="#DejaVuSans-20"/>
     <use transform="translate(1995.101562 0.765625)" xlink:href="#DejaVuSans-Oblique-3c7"/>
     <use transform="translate(2058.753958 39.046875)scale(0.7)" xlink:href="#DejaVuSans-32"/>
     <use transform="translate(2054.28125 -26.578125)scale(0.7)" xlink:href="#DejaVuSans-Oblique-72"/>
     <use transform="translate(2106.024466 0.765625)" xlink:href="#DejaVuSans-3d"/>
     <use transform="translate(2189.813529 0.765625)" xlink:href="#DejaVuSans-31"/>
     <use transform="translate(2253.436576 0.765625)" xlink:href="#DejaVuSans-2e"/>
     <use transform="translate(2285.223685 0.765625)" xlink:href="#DejaVuSans-33"/>
     <use transform="translate(2348.846732 0.765625)" xlink:href="#DejaVuSans-36"/>
     <use transform="translate(2412.469779 0.765625)" xlink:href="#DejaVuSans-b1"/>
     <use transform="translate(2496.258841 0.765625)" xlink:href="#DejaVuSans-30"/>
     <use transform="translate(2559.881888 0.765625)" xlink:href="#DejaVuSans-2e"/>
     <use transform="translate(2591.590872 0.765625)" xlink:href="#DejaVuSans-32"/>
     <use transform="translate(2655.213919 0.765625)" xlink:href="#DejaVuSans-31"/>
     <use transform="translate(2718.836966 0.765625)" xlink:href="#DejaVuSans-20"/>
     <use transform="translate(2750.624076 0.765625)" xlink:href="#DejaVuSans-28"/>
     <use transform="translate(2789.637747 0.765625)" xlink:href="#DejaVuSans-34"/>
     <use transform="translate(2853.260794 0.765625)" xlink:href="#DejaVuSans-34"/>
     <use transform="translate(2916.883841 0.765625)" xlink:href="#DejaVuSans-20"/>
     <use transform="translate(2948.670951 0.765625)" xlink:href="#DejaVuSans-44"/>
     <use transform="translate(3025.672904 0.765625)" xlink:href="#DejaVuSans-4f"/>
     <use transform="translate(3104.383841 0.765625)" xlink:href="#DejaVuSans-46"/>
     <use transform="translate(3161.903372 0.765625)" xlink:href="#DejaVuSans-29"/>
    </g>
   </g>
  </g>
  <g id="axes_2">
   <g id="patch_7">
    <path d="M 97.524 393.984 
L 585.144 393.984 
L 585.144 131.328 
L 97.524 131.328 
z
" style="fill:#ffffff;"/>
   </g>
   <g id="matplotlib.axis_3">
    <g id="xtick_7">
     <g id="line2d_12">
      <g>
       <use style="stroke:#000000;stroke-width:0.8;" x="106.901308" xlink:href="#m5fbe9e4cbb" y="393.984"/>
      </g>
     </g>
     <g id="text_5">
      <!-- 270 -->
      <g transform="translate(97.357558 408.582437)scale(0.1 -0.1)">
       <use xlink:href="#DejaVuSans-32"/>
       <use x="63.623047" xlink:href="#DejaVuSans-37"/>
       <use x="127.246094" xlink:href="#DejaVuSans-30"/>
      </g>
     </g>
    </g>
    <g id="xtick_8">
     <g id="line2d_13">
      <g>
       <use style="stroke:#000000;stroke-width:0.8;" x="202.588121" xlink:href="#m5fbe9e4cbb" y="393.984"/>
      </g>
     </g>
     <g id="text_6">
      <!-- 280 -->
      <defs>
       <path d="M 31.78125 34.625 
Q 24.75 34.625 20.71875 30.859375 
Q 16.703125 27.09375 16.703125 20.515625 
Q 16.703125 13.921875 20.71875 10.15625 
Q 24.75 6.390625 31.78125 6.390625 
Q 38.8125 6.390625 42.859375 10.171875 
Q 46.921875 13.96875 46.921875 20.515625 
Q 46.921875 27.09375 42.890625 30.859375 
Q 38.875 34.625 31.78125 34.625 
z
M 21.921875 38.8125 
Q 15.578125 40.375 12.03125 44.71875 
Q 8.5 49.078125 8.5 55.328125 
Q 8.5 64.0625 14.71875 69.140625 
Q 20.953125 74.21875 31.78125 74.21875 
Q 42.671875 74.21875 48.875 69.140625 
Q 55.078125 64.0625 55.078125 55.328125 
Q 55.078125 49.078125 51.53125 44.71875 
Q 48 40.375 41.703125 38.8125 
Q 48.828125 37.15625 52.796875 32.3125 
Q 56.78125 27.484375 56.78125 20.515625 
Q 56.78125 9.90625 50.3125 4.234375 
Q 43.84375 -1.421875 31.78125 -1.421875 
Q 19.734375 -1.421875 13.25 4.234375 
Q 6.78125 9.90625 6.78125 20.515625 
Q 6.78125 27.484375 10.78125 32.3125 
Q 14.796875 37.15625 21.921875 38.8125 
z
M 18.3125 54.390625 
Q 18.3125 48.734375 21.84375 45.5625 
Q 25.390625 42.390625 31.78125 42.390625 
Q 38.140625 42.390625 41.71875 45.5625 
Q 45.3125 48.734375 45.3125 54.390625 
Q 45.3125 60.0625 41.71875 63.234375 
Q 38.140625 66.40625 31.78125 66.40625 
Q 25.390625 66.40625 21.84375 63.234375 
Q 18.3125 60.0625 18.3125 54.390625 
z
" id="DejaVuSans-38"/>
      </defs>
      <g transform="translate(193.044371 408.582437)scale(0.1 -0.1)">
       <use xlink:href="#DejaVuSans-32"/>
       <use x="63.623047" xlink:href="#DejaVuSans-38"/>
       <use x="127.246094" xlink:href="#DejaVuSans-30"/>
      </g>
     </g>
    </g>
    <g id="xtick_9">
     <g id="line2d_14">
      <g>
       <use style="stroke:#000000;stroke-width:0.8;" x="298.274934" xlink:href="#m5fbe9e4cbb" y="393.984"/>
      </g>
     </g>
     <g id="text_7">
      <!-- 290 -->
      <g transform="translate(288.731184 408.582437)scale(0.1 -0.1)">
       <use xlink:href="#DejaVuSans-32"/>
       <use x="63.623047" xlink:href="#DejaVuSans-39"/>
       <use x="127.246094" xlink:href="#DejaVuSans-30"/>
      </g>
     </g>
    </g>
    <g id="xtick_10">
     <g id="line2d_15">
      <g>
       <use style="stroke:#000000;stroke-width:0.8;" x="393.961747" xlink:href="#m5fbe9e4cbb" y="393.984"/>
      </g>
     </g>
     <g id="text_8">
      <!-- 300 -->
      <g transform="translate(384.417997 408.582437)scale(0.1 -0.1)">
       <use xlink:href="#DejaVuSans-33"/>
       <use x="63.623047" xlink:href="#DejaVuSans-30"/>
       <use x="127.246094" xlink:href="#DejaVuSans-30"/>
      </g>
     </g>
    </g>
    <g id="xtick_11">
     <g id="line2d_16">
      <g>
       <use style="stroke:#000000;stroke-width:0.8;" x="489.64856" xlink:href="#m5fbe9e4cbb" y="393.984"/>
      </g>
     </g>
     <g id="text_9">
      <!-- 310 -->
      <g transform="translate(480.10481 408.582437)scale(0.1 -0.1)">
       <use xlink:href="#DejaVuSans-33"/>
       <use x="63.623047" xlink:href="#DejaVuSans-31"/>
       <use x="127.246094" xlink:href="#DejaVuSans-30"/>
      </g>
     </g>
    </g>
    <g id="xtick_12">
     <g id="line2d_17">
      <g>
       <use style="stroke:#000000;stroke-width:0.8;" x="585.335374" xlink:href="#m5fbe9e4cbb" y="393.984"/>
      </g>
     </g>
     <g id="text_10">
      <!-- 320 -->
      <g transform="translate(575.791624 408.582437)scale(0.1 -0.1)">
       <use xlink:href="#DejaVuSans-33"/>
       <use x="63.623047" xlink:href="#DejaVuSans-32"/>
       <use x="127.246094" xlink:href="#DejaVuSans-30"/>
      </g>
     </g>
    </g>
    <g id="text_11">
     <!-- Channel -->
     <defs>
      <path d="M 64.40625 67.28125 
L 64.40625 56.890625 
Q 59.421875 61.53125 53.78125 63.8125 
Q 48.140625 66.109375 41.796875 66.109375 
Q 29.296875 66.109375 22.65625 58.46875 
Q 16.015625 50.828125 16.015625 36.375 
Q 16.015625 21.96875 22.65625 14.328125 
Q 29.296875 6.6875 41.796875 6.6875 
Q 48.140625 6.6875 53.78125 8.984375 
Q 59.421875 11.28125 64.40625 15.921875 
L 64.40625 5.609375 
Q 59.234375 2.09375 53.4375 0.328125 
Q 47.65625 -1.421875 41.21875 -1.421875 
Q 24.65625 -1.421875 15.125 8.703125 
Q 5.609375 18.84375 5.609375 36.375 
Q 5.609375 53.953125 15.125 64.078125 
Q 24.65625 74.21875 41.21875 74.21875 
Q 47.75 74.21875 53.53125 72.484375 
Q 59.328125 70.75 64.40625 67.28125 
z
" id="DejaVuSans-43"/>
      <path d="M 54.890625 33.015625 
L 54.890625 0 
L 45.90625 0 
L 45.90625 32.71875 
Q 45.90625 40.484375 42.875 44.328125 
Q 39.84375 48.1875 33.796875 48.1875 
Q 26.515625 48.1875 22.3125 43.546875 
Q 18.109375 38.921875 18.109375 30.90625 
L 18.109375 0 
L 9.078125 0 
L 9.078125 75.984375 
L 18.109375 75.984375 
L 18.109375 46.1875 
Q 21.34375 51.125 25.703125 53.5625 
Q 30.078125 56 35.796875 56 
Q 45.21875 56 50.046875 50.171875 
Q 54.890625 44.34375 54.890625 33.015625 
z
" id="DejaVuSans-68"/>
     </defs>
     <g transform="translate(320.806656 422.260562)scale(0.1 -0.1)">
      <use xlink:href="#DejaVuSans-43"/>
      <use x="69.824219" xlink:href="#DejaVuSans-68"/>
      <use x="133.203125" xlink:href="#DejaVuSans-61"/>
      <use x="194.482422" xlink:href="#DejaVuSans-6e"/>
      <use x="257.861328" xlink:href="#DejaVuSans-6e"/>
      <use x="321.240234" xlink:href="#DejaVuSans-65"/>
      <use x="382.763672" xlink:href="#DejaVuSans-6c"/>
     </g>
    </g>
   </g>
   <g id="matplotlib.axis_4">
    <g id="ytick_4">
     <g id="line2d_18">
      <g>
       <use style="stroke:#000000;stroke-width:0.8;" x="97.524" xlink:href="#m3f17398e5f" y="389.755126"/>
      </g>
     </g>
     <g id="text_12">
      <!-- 100 -->
      <g transform="translate(71.4365 393.554345)scale(0.1 -0.1)">
       <use xlink:href="#DejaVuSans-31"/>
       <use x="63.623047" xlink:href="#DejaVuSans-30"/>
       <use x="127.246094" xlink:href="#DejaVuSans-30"/>
      </g>
     </g>
    </g>
    <g id="ytick_5">
     <g id="line2d_19">
      <g>
       <use style="stroke:#000000;stroke-width:0.8;" x="97.524" xlink:href="#m3f17398e5f" y="331.730728"/>
      </g>
     </g>
     <g id="text_13">
      <!-- 200 -->
      <g transform="translate(71.4365 335.529946)scale(0.1 -0.1)">
       <use xlink:href="#DejaVuSans-32"/>
       <use x="63.623047" xlink:href="#DejaVuSans-30"/>
       <use x="127.246094" xlink:href="#DejaVuSans-30"/>
      </g>
     </g>
    </g>
    <g id="ytick_6">
     <g id="line2d_20">
      <g>
       <use style="stroke:#000000;stroke-width:0.8;" x="97.524" xlink:href="#m3f17398e5f" y="273.70633"/>
      </g>
     </g>
     <g id="text_14">
      <!-- 300 -->
      <g transform="translate(71.4365 277.505548)scale(0.1 -0.1)">
       <use xlink:href="#DejaVuSans-33"/>
       <use x="63.623047" xlink:href="#DejaVuSans-30"/>
       <use x="127.246094" xlink:href="#DejaVuSans-30"/>
      </g>
     </g>
    </g>
    <g id="ytick_7">
     <g id="line2d_21">
      <g>
       <use style="stroke:#000000;stroke-width:0.8;" x="97.524" xlink:href="#m3f17398e5f" y="215.681932"/>
      </g>
     </g>
     <g id="text_15">
      <!-- 400 -->
      <g transform="translate(71.4365 219.48115)scale(0.1 -0.1)">
       <use xlink:href="#DejaVuSans-34"/>
       <use x="63.623047" xlink:href="#DejaVuSans-30"/>
       <use x="127.246094" xlink:href="#DejaVuSans-30"/>
      </g>
     </g>
    </g>
    <g id="ytick_8">
     <g id="line2d_22">
      <g>
       <use style="stroke:#000000;stroke-width:0.8;" x="97.524" xlink:href="#m3f17398e5f" y="157.657534"/>
      </g>
     </g>
     <g id="text_16">
      <!-- 500 -->
      <g transform="translate(71.4365 161.456752)scale(0.1 -0.1)">
       <use xlink:href="#DejaVuSans-35"/>
       <use x="63.623047" xlink:href="#DejaVuSans-30"/>
       <use x="127.246094" xlink:href="#DejaVuSans-30"/>
      </g>
     </g>
    </g>
    <g id="text_17">
     <!-- Count -->
     <g transform="translate(65.356812 277.504437)rotate(-90)scale(0.1 -0.1)">
      <use xlink:href="#DejaVuSans-43"/>
      <use x="69.824219" xlink:href="#DejaVuSans-6f"/>
      <use x="131.005859" xlink:href="#DejaVuSans-75"/>
      <use x="194.384766" xlink:href="#DejaVuSans-6e"/>
      <use x="257.763672" xlink:href="#DejaVuSans-74"/>
     </g>
    </g>
   </g>
   <g id="LineCollection_2">
    <path clip-path="url(#p5b0037bf8c)" d="M 106.901308 377.298774 
L 106.901308 363.915374 
" style="fill:none;stroke:#0000ff;stroke-width:1.5;"/>
    <path clip-path="url(#p5b0037bf8c)" d="M 116.469989 365.622589 
L 116.469989 351.221312 
" style="fill:none;stroke:#0000ff;stroke-width:1.5;"/>
    <path clip-path="url(#p5b0037bf8c)" d="M 126.03867 350.561748 
L 126.03867 334.948979 
" style="fill:none;stroke:#0000ff;stroke-width:1.5;"/>
    <path clip-path="url(#p5b0037bf8c)" d="M 135.607352 347.767616 
L 135.607352 331.940671 
" style="fill:none;stroke:#0000ff;stroke-width:1.5;"/>
    <path clip-path="url(#p5b0037bf8c)" d="M 145.176033 361.722714 
L 145.176033 346.997772 
" style="fill:none;stroke:#0000ff;stroke-width:1.5;"/>
    <path clip-path="url(#p5b0037bf8c)" d="M 154.744714 338.2572 
L 154.744714 321.722792 
" style="fill:none;stroke:#0000ff;stroke-width:1.5;"/>
    <path clip-path="url(#p5b0037bf8c)" d="M 164.313396 344.412776 
L 164.313396 328.332583 
" style="fill:none;stroke:#0000ff;stroke-width:1.5;"/>
    <path clip-path="url(#p5b0037bf8c)" d="M 173.882077 307.396675 
L 173.882077 288.756478 
" style="fill:none;stroke:#0000ff;stroke-width:1.5;"/>
    <path clip-path="url(#p5b0037bf8c)" d="M 183.450758 296.146298 
L 183.450758 276.797097 
" style="fill:none;stroke:#0000ff;stroke-width:1.5;"/>
    <path clip-path="url(#p5b0037bf8c)" d="M 193.01944 305.709973 
L 193.01944 286.961717 
" style="fill:none;stroke:#0000ff;stroke-width:1.5;"/>
    <path clip-path="url(#p5b0037bf8c)" d="M 202.588121 304.022962 
L 202.588121 285.167264 
" style="fill:none;stroke:#0000ff;stroke-width:1.5;"/>
    <path clip-path="url(#p5b0037bf8c)" d="M 212.156802 270.224866 
L 212.156802 249.336082 
" style="fill:none;stroke:#0000ff;stroke-width:1.5;"/>
    <path clip-path="url(#p5b0037bf8c)" d="M 221.725484 283.75645 
L 221.725484 263.656209 
" style="fill:none;stroke:#0000ff;stroke-width:1.5;"/>
    <path clip-path="url(#p5b0037bf8c)" d="M 231.294165 253.855193 
L 231.294165 232.051604 
" style="fill:none;stroke:#0000ff;stroke-width:1.5;"/>
    <path clip-path="url(#p5b0037bf8c)" d="M 240.862846 259.502107 
L 240.862846 238.00957 
" style="fill:none;stroke:#0000ff;stroke-width:1.5;"/>
    <path clip-path="url(#p5b0037bf8c)" d="M 250.431527 235.7708 
L 250.431527 213.000382 
" style="fill:none;stroke:#0000ff;stroke-width:1.5;"/>
    <path clip-path="url(#p5b0037bf8c)" d="M 260.000209 240.859135 
L 260.000209 218.356439 
" style="fill:none;stroke:#0000ff;stroke-width:1.5;"/>
    <path clip-path="url(#p5b0037bf8c)" d="M 269.56889 212.005493 
L 269.56889 188.025195 
" style="fill:none;stroke:#0000ff;stroke-width:1.5;"/>
    <path clip-path="url(#p5b0037bf8c)" d="M 279.137571 205.776267 
L 279.137571 181.489053 
" style="fill:none;stroke:#0000ff;stroke-width:1.5;"/>
    <path clip-path="url(#p5b0037bf8c)" d="M 288.706253 214.270177 
L 288.706253 190.402463 
" style="fill:none;stroke:#0000ff;stroke-width:1.5;"/>
    <path clip-path="url(#p5b0037bf8c)" d="M 298.274934 179.139741 
L 298.274934 153.582645 
" style="fill:none;stroke:#0000ff;stroke-width:1.5;"/>
    <path clip-path="url(#p5b0037bf8c)" d="M 307.843615 204.077052 
L 307.843615 179.706805 
" style="fill:none;stroke:#0000ff;stroke-width:1.5;"/>
    <path clip-path="url(#p5b0037bf8c)" d="M 317.412297 208.607975 
L 317.412297 184.459785 
" style="fill:none;stroke:#0000ff;stroke-width:1.5;"/>
    <path clip-path="url(#p5b0037bf8c)" d="M 326.980978 162.689159 
L 326.980978 136.379077 
" style="fill:none;stroke:#0000ff;stroke-width:1.5;"/>
    <path clip-path="url(#p5b0037bf8c)" d="M 336.549659 196.14554 
L 336.549659 171.391486 
" style="fill:none;stroke:#0000ff;stroke-width:1.5;"/>
    <path clip-path="url(#p5b0037bf8c)" d="M 346.118341 188.211097 
L 346.118341 163.079097 
" style="fill:none;stroke:#0000ff;stroke-width:1.5;"/>
    <path clip-path="url(#p5b0037bf8c)" d="M 355.687022 179.139741 
L 355.687022 153.582645 
" style="fill:none;stroke:#0000ff;stroke-width:1.5;"/>
    <path clip-path="url(#p5b0037bf8c)" d="M 365.255703 195.012224 
L 365.255703 170.203825 
" style="fill:none;stroke:#0000ff;stroke-width:1.5;"/>
    <path clip-path="url(#p5b0037bf8c)" d="M 374.824385 195.012224 
L 374.824385 170.203825 
" style="fill:none;stroke:#0000ff;stroke-width:1.5;"/>
    <path clip-path="url(#p5b0037bf8c)" d="M 384.393066 185.943594 
L 384.393066 160.704648 
" style="fill:none;stroke:#0000ff;stroke-width:1.5;"/>
    <path clip-path="url(#p5b0037bf8c)" d="M 393.961747 224.457897 
L 393.961747 201.103527 
" style="fill:none;stroke:#0000ff;stroke-width:1.5;"/>
    <path clip-path="url(#p5b0037bf8c)" d="M 403.530429 202.377696 
L 403.530429 177.924697 
" style="fill:none;stroke:#0000ff;stroke-width:1.5;"/>
    <path clip-path="url(#p5b0037bf8c)" d="M 413.09911 207.47534 
L 413.09911 183.271445 
" style="fill:none;stroke:#0000ff;stroke-width:1.5;"/>
    <path clip-path="url(#p5b0037bf8c)" d="M 422.667791 196.712175 
L 422.667791 171.985338 
" style="fill:none;stroke:#0000ff;stroke-width:1.5;"/>
    <path clip-path="url(#p5b0037bf8c)" d="M 432.236473 228.418251 
L 432.236473 205.266589 
" style="fill:none;stroke:#0000ff;stroke-width:1.5;"/>
    <path clip-path="url(#p5b0037bf8c)" d="M 441.805154 236.336249 
L 441.805154 213.595422 
" style="fill:none;stroke:#0000ff;stroke-width:1.5;"/>
    <path clip-path="url(#p5b0037bf8c)" d="M 451.373835 246.510948 
L 451.373835 224.309506 
" style="fill:none;stroke:#0000ff;stroke-width:1.5;"/>
    <path clip-path="url(#p5b0037bf8c)" d="M 460.942516 263.453594 
L 460.942516 242.181499 
" style="fill:none;stroke:#0000ff;stroke-width:1.5;"/>
    <path clip-path="url(#p5b0037bf8c)" d="M 470.511198 257.24361 
L 470.511198 235.626115 
" style="fill:none;stroke:#0000ff;stroke-width:1.5;"/>
    <path clip-path="url(#p5b0037bf8c)" d="M 480.079879 281.502253 
L 480.079879 261.268454 
" style="fill:none;stroke:#0000ff;stroke-width:1.5;"/>
    <path clip-path="url(#p5b0037bf8c)" d="M 489.64856 278.120139 
L 489.64856 257.68764 
" style="fill:none;stroke:#0000ff;stroke-width:1.5;"/>
    <path clip-path="url(#p5b0037bf8c)" d="M 499.217242 298.39742 
L 499.217242 279.187926 
" style="fill:none;stroke:#0000ff;stroke-width:1.5;"/>
    <path clip-path="url(#p5b0037bf8c)" d="M 508.785923 335.457174 
L 508.785923 318.720378 
" style="fill:none;stroke:#0000ff;stroke-width:1.5;"/>
    <path clip-path="url(#p5b0037bf8c)" d="M 518.354604 323.684337 
L 518.354604 306.122968 
" style="fill:none;stroke:#0000ff;stroke-width:1.5;"/>
    <path clip-path="url(#p5b0037bf8c)" d="M 527.923286 330.974634 
L 527.923286 313.919014 
" style="fill:none;stroke:#0000ff;stroke-width:1.5;"/>
    <path clip-path="url(#p5b0037bf8c)" d="M 537.491967 337.697294 
L 537.491967 321.12221 
" style="fill:none;stroke:#0000ff;stroke-width:1.5;"/>
    <path clip-path="url(#p5b0037bf8c)" d="M 547.060648 354.471015 
L 547.060648 339.163127 
" style="fill:none;stroke:#0000ff;stroke-width:1.5;"/>
    <path clip-path="url(#p5b0037bf8c)" d="M 556.62933 359.492636 
L 556.62933 344.585898 
" style="fill:none;stroke:#0000ff;stroke-width:1.5;"/>
    <path clip-path="url(#p5b0037bf8c)" d="M 566.198011 367.29284 
L 566.198011 353.032525 
" style="fill:none;stroke:#0000ff;stroke-width:1.5;"/>
    <path clip-path="url(#p5b0037bf8c)" d="M 575.766692 388.932923 
L 575.766692 376.651473 
" style="fill:none;stroke:#0000ff;stroke-width:1.5;"/>
   </g>
   <g id="line2d_23">
    <path clip-path="url(#p5b0037bf8c)" d="M 106.901308 365.705194 
L 112.06399 362.93214 
L 117.696006 359.642402 
L 123.328023 356.08032 
L 128.96004 352.250969 
L 134.592056 348.160715 
L 140.693407 343.444144 
L 146.794759 338.442023 
L 153.365445 332.751306 
L 159.936131 326.764463 
L 166.976152 320.046362 
L 174.485507 312.567643 
L 182.464198 304.312635 
L 191.850892 294.265628 
L 203.114925 281.861142 
L 242.539042 238.117703 
L 250.987067 229.24882 
L 258.496422 221.677245 
L 265.536443 214.90186 
L 271.637794 209.321094 
L 277.739146 204.042706 
L 283.371162 199.463792 
L 288.533844 195.532903 
L 293.696526 191.872998 
L 298.859208 188.498672 
L 303.552555 185.690292 
L 308.245902 183.138372 
L 312.939249 180.851341 
L 317.163262 179.02574 
L 321.387274 177.425667 
L 325.611287 176.055348 
L 329.835299 174.91837 
L 334.059312 174.017669 
L 338.283324 173.355522 
L 342.507337 172.93354 
L 346.731349 172.752669 
L 350.955362 172.813187 
L 355.179374 173.114713 
L 359.403387 173.656208 
L 363.627399 174.435991 
L 367.851412 175.451746 
L 372.075424 176.700545 
L 376.299437 178.178859 
L 380.523449 179.882585 
L 384.747462 181.807064 
L 389.440809 184.19796 
L 394.134156 186.847148 
L 398.827503 189.746086 
L 403.990185 193.212386 
L 409.152867 196.95667 
L 414.315549 200.965086 
L 419.947565 205.622052 
L 426.048917 210.979486 
L 432.150268 216.636605 
L 438.720954 223.033618 
L 445.760975 230.200874 
L 453.270331 238.157249 
L 461.718356 247.430836 
L 471.574385 258.5913 
L 483.777087 272.764934 
L 505.366484 298.261665 
L 524.139873 320.286166 
L 537.281245 335.361263 
L 548.545279 347.958253 
L 559.339977 359.700618 
L 569.665341 370.604479 
L 575.766692 376.891479 
L 575.766692 376.891479 
" style="fill:none;stroke:#ff0000;stroke-linecap:square;stroke-width:1.5;"/>
   </g>
   <g id="line2d_24">
    <g clip-path="url(#p5b0037bf8c)">
     <use style="fill:#0000ff;stroke:#0000ff;" x="106.901308" xlink:href="#m56a29768bb" y="370.607074"/>
     <use style="fill:#0000ff;stroke:#0000ff;" x="116.469989" xlink:href="#m56a29768bb" y="358.421951"/>
     <use style="fill:#0000ff;stroke:#0000ff;" x="126.03867" xlink:href="#m56a29768bb" y="342.755363"/>
     <use style="fill:#0000ff;stroke:#0000ff;" x="135.607352" xlink:href="#m56a29768bb" y="339.854143"/>
     <use style="fill:#0000ff;stroke:#0000ff;" x="145.176033" xlink:href="#m56a29768bb" y="354.360243"/>
     <use style="fill:#0000ff;stroke:#0000ff;" x="154.744714" xlink:href="#m56a29768bb" y="329.989996"/>
     <use style="fill:#0000ff;stroke:#0000ff;" x="164.313396" xlink:href="#m56a29768bb" y="336.37268"/>
     <use style="fill:#0000ff;stroke:#0000ff;" x="173.882077" xlink:href="#m56a29768bb" y="298.076577"/>
     <use style="fill:#0000ff;stroke:#0000ff;" x="183.450758" xlink:href="#m56a29768bb" y="286.471697"/>
     <use style="fill:#0000ff;stroke:#0000ff;" x="193.01944" xlink:href="#m56a29768bb" y="296.335845"/>
     <use style="fill:#0000ff;stroke:#0000ff;" x="202.588121" xlink:href="#m56a29768bb" y="294.595113"/>
     <use style="fill:#0000ff;stroke:#0000ff;" x="212.156802" xlink:href="#m56a29768bb" y="259.780474"/>
     <use style="fill:#0000ff;stroke:#0000ff;" x="221.725484" xlink:href="#m56a29768bb" y="273.70633"/>
     <use style="fill:#0000ff;stroke:#0000ff;" x="231.294165" xlink:href="#m56a29768bb" y="242.953399"/>
     <use style="fill:#0000ff;stroke:#0000ff;" x="240.862846" xlink:href="#m56a29768bb" y="248.755838"/>
     <use style="fill:#0000ff;stroke:#0000ff;" x="250.431527" xlink:href="#m56a29768bb" y="224.385591"/>
     <use style="fill:#0000ff;stroke:#0000ff;" x="260.000209" xlink:href="#m56a29768bb" y="229.607787"/>
     <use style="fill:#0000ff;stroke:#0000ff;" x="269.56889" xlink:href="#m56a29768bb" y="200.015344"/>
     <use style="fill:#0000ff;stroke:#0000ff;" x="279.137571" xlink:href="#m56a29768bb" y="193.63266"/>
     <use style="fill:#0000ff;stroke:#0000ff;" x="288.706253" xlink:href="#m56a29768bb" y="202.33632"/>
     <use style="fill:#0000ff;stroke:#0000ff;" x="298.274934" xlink:href="#m56a29768bb" y="166.361193"/>
     <use style="fill:#0000ff;stroke:#0000ff;" x="307.843615" xlink:href="#m56a29768bb" y="191.891928"/>
     <use style="fill:#0000ff;stroke:#0000ff;" x="317.412297" xlink:href="#m56a29768bb" y="196.53388"/>
     <use style="fill:#0000ff;stroke:#0000ff;" x="326.980978" xlink:href="#m56a29768bb" y="149.534118"/>
     <use style="fill:#0000ff;stroke:#0000ff;" x="336.549659" xlink:href="#m56a29768bb" y="183.768513"/>
     <use style="fill:#0000ff;stroke:#0000ff;" x="346.118341" xlink:href="#m56a29768bb" y="175.645097"/>
     <use style="fill:#0000ff;stroke:#0000ff;" x="355.687022" xlink:href="#m56a29768bb" y="166.361193"/>
     <use style="fill:#0000ff;stroke:#0000ff;" x="365.255703" xlink:href="#m56a29768bb" y="182.608025"/>
     <use style="fill:#0000ff;stroke:#0000ff;" x="374.824385" xlink:href="#m56a29768bb" y="182.608025"/>
     <use style="fill:#0000ff;stroke:#0000ff;" x="384.393066" xlink:href="#m56a29768bb" y="173.324121"/>
     <use style="fill:#0000ff;stroke:#0000ff;" x="393.961747" xlink:href="#m56a29768bb" y="212.780712"/>
     <use style="fill:#0000ff;stroke:#0000ff;" x="403.530429" xlink:href="#m56a29768bb" y="190.151196"/>
     <use style="fill:#0000ff;stroke:#0000ff;" x="413.09911" xlink:href="#m56a29768bb" y="195.373392"/>
     <use style="fill:#0000ff;stroke:#0000ff;" x="422.667791" xlink:href="#m56a29768bb" y="184.348757"/>
     <use style="fill:#0000ff;stroke:#0000ff;" x="432.236473" xlink:href="#m56a29768bb" y="216.84242"/>
     <use style="fill:#0000ff;stroke:#0000ff;" x="441.805154" xlink:href="#m56a29768bb" y="224.965835"/>
     <use style="fill:#0000ff;stroke:#0000ff;" x="451.373835" xlink:href="#m56a29768bb" y="235.410227"/>
     <use style="fill:#0000ff;stroke:#0000ff;" x="460.942516" xlink:href="#m56a29768bb" y="252.817546"/>
     <use style="fill:#0000ff;stroke:#0000ff;" x="470.511198" xlink:href="#m56a29768bb" y="246.434863"/>
     <use style="fill:#0000ff;stroke:#0000ff;" x="480.079879" xlink:href="#m56a29768bb" y="271.385354"/>
     <use style="fill:#0000ff;stroke:#0000ff;" x="489.64856" xlink:href="#m56a29768bb" y="267.90389"/>
     <use style="fill:#0000ff;stroke:#0000ff;" x="499.217242" xlink:href="#m56a29768bb" y="288.792673"/>
     <use style="fill:#0000ff;stroke:#0000ff;" x="508.785923" xlink:href="#m56a29768bb" y="327.088776"/>
     <use style="fill:#0000ff;stroke:#0000ff;" x="518.354604" xlink:href="#m56a29768bb" y="314.903652"/>
     <use style="fill:#0000ff;stroke:#0000ff;" x="527.923286" xlink:href="#m56a29768bb" y="322.446824"/>
     <use style="fill:#0000ff;stroke:#0000ff;" x="537.491967" xlink:href="#m56a29768bb" y="329.409752"/>
     <use style="fill:#0000ff;stroke:#0000ff;" x="547.060648" xlink:href="#m56a29768bb" y="346.817071"/>
     <use style="fill:#0000ff;stroke:#0000ff;" x="556.62933" xlink:href="#m56a29768bb" y="352.039267"/>
     <use style="fill:#0000ff;stroke:#0000ff;" x="566.198011" xlink:href="#m56a29768bb" y="360.162683"/>
     <use style="fill:#0000ff;stroke:#0000ff;" x="575.766692" xlink:href="#m56a29768bb" y="382.792198"/>
    </g>
   </g>
   <g id="patch_8">
    <path d="M 97.524 393.984 
L 97.524 131.328 
" style="fill:none;stroke:#000000;stroke-linecap:square;stroke-linejoin:miter;stroke-width:0.8;"/>
   </g>
   <g id="patch_9">
    <path d="M 585.144 393.984 
L 585.144 131.328 
" style="fill:none;stroke:#000000;stroke-linecap:square;stroke-linejoin:miter;stroke-width:0.8;"/>
   </g>
   <g id="patch_10">
    <path d="M 97.524 393.984 
L 585.144 393.984 
" style="fill:none;stroke:#000000;stroke-linecap:square;stroke-linejoin:miter;stroke-width:0.8;"/>
   </g>
   <g id="patch_11">
    <path d="M 97.524 131.328 
L 585.144 131.328 
" style="fill:none;stroke:#000000;stroke-linecap:square;stroke-linejoin:miter;stroke-width:0.8;"/>
   </g>
  </g>
 </g>
 <defs>
  <clipPath id="p851abba818">
   <rect height="65.664" width="487.62" x="97.524" y="56.9088"/>
  </clipPath>
  <clipPath id="p5b0037bf8c">
   <rect height="262.656" width="487.62" x="97.524" y="131.328"/>
  </clipPath>
 </defs>
</svg>
