<?xml version="1.0" encoding="utf-8" standalone="no"?>
<!DOCTYPE svg PUBLIC "-//W3C//DTD SVG 1.1//EN"
  "http://www.w3.org/Graphics/SVG/1.1/DTD/svg11.dtd">
<!-- Created with matplotlib (https://matplotlib.org/) -->
<svg height="1289.52pt" version="1.1" viewBox="0 0 2160 1289.52" width="2160pt" xmlns="http://www.w3.org/2000/svg" xmlns:xlink="http://www.w3.org/1999/xlink">
 <defs>
  <style type="text/css">
*{stroke-linecap:butt;stroke-linejoin:round;}
  </style>
 </defs>
 <g id="figure_1">
  <g id="patch_1">
   <path d="M 0 1289.52 
L 2160 1289.52 
L 2160 0 
L 0 0 
z
" style="fill:#ffffff;"/>
  </g>
  <g id="axes_1">
   <g id="patch_2">
    <path d="M 324 1096.092 
L 1512 1096.092 
L 1512 128.952 
L 324 128.952 
z
" style="fill:#ffffff;"/>
   </g>
   <g id="matplotlib.axis_1">
    <g id="xtick_1">
     <g id="line2d_1">
      <defs>
       <path d="M 0 0 
L 0 3.5 
" id="m468b306b97" style="stroke:#000000;stroke-width:0.8;"/>
      </defs>
      <g>
       <use style="stroke:#000000;stroke-width:0.8;" x="346.908685" xlink:href="#m468b306b97" y="1096.092"/>
      </g>
     </g>
     <g id="text_1">
      <!-- 0 -->
      <defs>
       <path d="M 31.78125 66.40625 
Q 24.171875 66.40625 20.328125 58.90625 
Q 16.5 51.421875 16.5 36.375 
Q 16.5 21.390625 20.328125 13.890625 
Q 24.171875 6.390625 31.78125 6.390625 
Q 39.453125 6.390625 43.28125 13.890625 
Q 47.125 21.390625 47.125 36.375 
Q 47.125 51.421875 43.28125 58.90625 
Q 39.453125 66.40625 31.78125 66.40625 
z
M 31.78125 74.21875 
Q 44.046875 74.21875 50.515625 64.515625 
Q 56.984375 54.828125 56.984375 36.375 
Q 56.984375 17.96875 50.515625 8.265625 
Q 44.046875 -1.421875 31.78125 -1.421875 
Q 19.53125 -1.421875 13.0625 8.265625 
Q 6.59375 17.96875 6.59375 36.375 
Q 6.59375 54.828125 13.0625 64.515625 
Q 19.53125 74.21875 31.78125 74.21875 
z
" id="DejaVuSans-48"/>
      </defs>
      <g transform="translate(343.727435 1110.690437)scale(0.1 -0.1)">
       <use xlink:href="#DejaVuSans-48"/>
      </g>
     </g>
    </g>
    <g id="xtick_2">
     <g id="line2d_2">
      <g>
       <use style="stroke:#000000;stroke-width:0.8;" x="502.293238" xlink:href="#m468b306b97" y="1096.092"/>
      </g>
     </g>
     <g id="text_2">
      <!-- 250 -->
      <defs>
       <path d="M 19.1875 8.296875 
L 53.609375 8.296875 
L 53.609375 0 
L 7.328125 0 
L 7.328125 8.296875 
Q 12.9375 14.109375 22.625 23.890625 
Q 32.328125 33.6875 34.8125 36.53125 
Q 39.546875 41.84375 41.421875 45.53125 
Q 43.3125 49.21875 43.3125 52.78125 
Q 43.3125 58.59375 39.234375 62.25 
Q 35.15625 65.921875 28.609375 65.921875 
Q 23.96875 65.921875 18.8125 64.3125 
Q 13.671875 62.703125 7.8125 59.421875 
L 7.8125 69.390625 
Q 13.765625 71.78125 18.9375 73 
Q 24.125 74.21875 28.421875 74.21875 
Q 39.75 74.21875 46.484375 68.546875 
Q 53.21875 62.890625 53.21875 53.421875 
Q 53.21875 48.921875 51.53125 44.890625 
Q 49.859375 40.875 45.40625 35.40625 
Q 44.1875 33.984375 37.640625 27.21875 
Q 31.109375 20.453125 19.1875 8.296875 
z
" id="DejaVuSans-50"/>
       <path d="M 10.796875 72.90625 
L 49.515625 72.90625 
L 49.515625 64.59375 
L 19.828125 64.59375 
L 19.828125 46.734375 
Q 21.96875 47.46875 24.109375 47.828125 
Q 26.265625 48.1875 28.421875 48.1875 
Q 40.625 48.1875 47.75 41.5 
Q 54.890625 34.8125 54.890625 23.390625 
Q 54.890625 11.625 47.5625 5.09375 
Q 40.234375 -1.421875 26.90625 -1.421875 
Q 22.3125 -1.421875 17.546875 -0.640625 
Q 12.796875 0.140625 7.71875 1.703125 
L 7.71875 11.625 
Q 12.109375 9.234375 16.796875 8.0625 
Q 21.484375 6.890625 26.703125 6.890625 
Q 35.15625 6.890625 40.078125 11.328125 
Q 45.015625 15.765625 45.015625 23.390625 
Q 45.015625 31 40.078125 35.4375 
Q 35.15625 39.890625 26.703125 39.890625 
Q 22.75 39.890625 18.8125 39.015625 
Q 14.890625 38.140625 10.796875 36.28125 
z
" id="DejaVuSans-53"/>
      </defs>
      <g transform="translate(492.749488 1110.690437)scale(0.1 -0.1)">
       <use xlink:href="#DejaVuSans-50"/>
       <use x="63.623047" xlink:href="#DejaVuSans-53"/>
       <use x="127.246094" xlink:href="#DejaVuSans-48"/>
      </g>
     </g>
    </g>
    <g id="xtick_3">
     <g id="line2d_3">
      <g>
       <use style="stroke:#000000;stroke-width:0.8;" x="657.677792" xlink:href="#m468b306b97" y="1096.092"/>
      </g>
     </g>
     <g id="text_3">
      <!-- 500 -->
      <g transform="translate(648.134042 1110.690437)scale(0.1 -0.1)">
       <use xlink:href="#DejaVuSans-53"/>
       <use x="63.623047" xlink:href="#DejaVuSans-48"/>
       <use x="127.246094" xlink:href="#DejaVuSans-48"/>
      </g>
     </g>
    </g>
    <g id="xtick_4">
     <g id="line2d_4">
      <g>
       <use style="stroke:#000000;stroke-width:0.8;" x="813.062345" xlink:href="#m468b306b97" y="1096.092"/>
      </g>
     </g>
     <g id="text_4">
      <!-- 750 -->
      <defs>
       <path d="M 8.203125 72.90625 
L 55.078125 72.90625 
L 55.078125 68.703125 
L 28.609375 0 
L 18.3125 0 
L 43.21875 64.59375 
L 8.203125 64.59375 
z
" id="DejaVuSans-55"/>
      </defs>
      <g transform="translate(803.518595 1110.690437)scale(0.1 -0.1)">
       <use xlink:href="#DejaVuSans-55"/>
       <use x="63.623047" xlink:href="#DejaVuSans-53"/>
       <use x="127.246094" xlink:href="#DejaVuSans-48"/>
      </g>
     </g>
    </g>
    <g id="xtick_5">
     <g id="line2d_5">
      <g>
       <use style="stroke:#000000;stroke-width:0.8;" x="968.446898" xlink:href="#m468b306b97" y="1096.092"/>
      </g>
     </g>
     <g id="text_5">
      <!-- 1000 -->
      <defs>
       <path d="M 12.40625 8.296875 
L 28.515625 8.296875 
L 28.515625 63.921875 
L 10.984375 60.40625 
L 10.984375 69.390625 
L 28.421875 72.90625 
L 38.28125 72.90625 
L 38.28125 8.296875 
L 54.390625 8.296875 
L 54.390625 0 
L 12.40625 0 
z
" id="DejaVuSans-49"/>
      </defs>
      <g transform="translate(955.721898 1110.690437)scale(0.1 -0.1)">
       <use xlink:href="#DejaVuSans-49"/>
       <use x="63.623047" xlink:href="#DejaVuSans-48"/>
       <use x="127.246094" xlink:href="#DejaVuSans-48"/>
       <use x="190.869141" xlink:href="#DejaVuSans-48"/>
      </g>
     </g>
    </g>
    <g id="xtick_6">
     <g id="line2d_6">
      <g>
       <use style="stroke:#000000;stroke-width:0.8;" x="1123.831452" xlink:href="#m468b306b97" y="1096.092"/>
      </g>
     </g>
     <g id="text_6">
      <!-- 1250 -->
      <g transform="translate(1111.106452 1110.690437)scale(0.1 -0.1)">
       <use xlink:href="#DejaVuSans-49"/>
       <use x="63.623047" xlink:href="#DejaVuSans-50"/>
       <use x="127.246094" xlink:href="#DejaVuSans-53"/>
       <use x="190.869141" xlink:href="#DejaVuSans-48"/>
      </g>
     </g>
    </g>
    <g id="xtick_7">
     <g id="line2d_7">
      <g>
       <use style="stroke:#000000;stroke-width:0.8;" x="1279.216005" xlink:href="#m468b306b97" y="1096.092"/>
      </g>
     </g>
     <g id="text_7">
      <!-- 1500 -->
      <g transform="translate(1266.491005 1110.690437)scale(0.1 -0.1)">
       <use xlink:href="#DejaVuSans-49"/>
       <use x="63.623047" xlink:href="#DejaVuSans-53"/>
       <use x="127.246094" xlink:href="#DejaVuSans-48"/>
       <use x="190.869141" xlink:href="#DejaVuSans-48"/>
      </g>
     </g>
    </g>
    <g id="xtick_8">
     <g id="line2d_8">
      <g>
       <use style="stroke:#000000;stroke-width:0.8;" x="1434.600558" xlink:href="#m468b306b97" y="1096.092"/>
      </g>
     </g>
     <g id="text_8">
      <!-- 1750 -->
      <g transform="translate(1421.875558 1110.690437)scale(0.1 -0.1)">
       <use xlink:href="#DejaVuSans-49"/>
       <use x="63.623047" xlink:href="#DejaVuSans-55"/>
       <use x="127.246094" xlink:href="#DejaVuSans-53"/>
       <use x="190.869141" xlink:href="#DejaVuSans-48"/>
      </g>
     </g>
    </g>
    <g id="text_9">
     <!-- Energy -->
     <defs>
      <path d="M 9.8125 72.90625 
L 55.90625 72.90625 
L 55.90625 64.59375 
L 19.671875 64.59375 
L 19.671875 43.015625 
L 54.390625 43.015625 
L 54.390625 34.71875 
L 19.671875 34.71875 
L 19.671875 8.296875 
L 56.78125 8.296875 
L 56.78125 0 
L 9.8125 0 
z
" id="DejaVuSans-69"/>
      <path d="M 54.890625 33.015625 
L 54.890625 0 
L 45.90625 0 
L 45.90625 32.71875 
Q 45.90625 40.484375 42.875 44.328125 
Q 39.84375 48.1875 33.796875 48.1875 
Q 26.515625 48.1875 22.3125 43.546875 
Q 18.109375 38.921875 18.109375 30.90625 
L 18.109375 0 
L 9.078125 0 
L 9.078125 54.6875 
L 18.109375 54.6875 
L 18.109375 46.1875 
Q 21.34375 51.125 25.703125 53.5625 
Q 30.078125 56 35.796875 56 
Q 45.21875 56 50.046875 50.171875 
Q 54.890625 44.34375 54.890625 33.015625 
z
" id="DejaVuSans-110"/>
      <path d="M 56.203125 29.59375 
L 56.203125 25.203125 
L 14.890625 25.203125 
Q 15.484375 15.921875 20.484375 11.0625 
Q 25.484375 6.203125 34.421875 6.203125 
Q 39.59375 6.203125 44.453125 7.46875 
Q 49.3125 8.734375 54.109375 11.28125 
L 54.109375 2.78125 
Q 49.265625 0.734375 44.1875 -0.34375 
Q 39.109375 -1.421875 33.890625 -1.421875 
Q 20.796875 -1.421875 13.15625 6.1875 
Q 5.515625 13.8125 5.515625 26.8125 
Q 5.515625 40.234375 12.765625 48.109375 
Q 20.015625 56 32.328125 56 
Q 43.359375 56 49.78125 48.890625 
Q 56.203125 41.796875 56.203125 29.59375 
z
M 47.21875 32.234375 
Q 47.125 39.59375 43.09375 43.984375 
Q 39.0625 48.390625 32.421875 48.390625 
Q 24.90625 48.390625 20.390625 44.140625 
Q 15.875 39.890625 15.1875 32.171875 
z
" id="DejaVuSans-101"/>
      <path d="M 41.109375 46.296875 
Q 39.59375 47.171875 37.8125 47.578125 
Q 36.03125 48 33.890625 48 
Q 26.265625 48 22.1875 43.046875 
Q 18.109375 38.09375 18.109375 28.8125 
L 18.109375 0 
L 9.078125 0 
L 9.078125 54.6875 
L 18.109375 54.6875 
L 18.109375 46.1875 
Q 20.953125 51.171875 25.484375 53.578125 
Q 30.03125 56 36.53125 56 
Q 37.453125 56 38.578125 55.875 
Q 39.703125 55.765625 41.0625 55.515625 
z
" id="DejaVuSans-114"/>
      <path d="M 45.40625 27.984375 
Q 45.40625 37.75 41.375 43.109375 
Q 37.359375 48.484375 30.078125 48.484375 
Q 22.859375 48.484375 18.828125 43.109375 
Q 14.796875 37.75 14.796875 27.984375 
Q 14.796875 18.265625 18.828125 12.890625 
Q 22.859375 7.515625 30.078125 7.515625 
Q 37.359375 7.515625 41.375 12.890625 
Q 45.40625 18.265625 45.40625 27.984375 
z
M 54.390625 6.78125 
Q 54.390625 -7.171875 48.1875 -13.984375 
Q 42 -20.796875 29.203125 -20.796875 
Q 24.46875 -20.796875 20.265625 -20.09375 
Q 16.0625 -19.390625 12.109375 -17.921875 
L 12.109375 -9.1875 
Q 16.0625 -11.328125 19.921875 -12.34375 
Q 23.78125 -13.375 27.78125 -13.375 
Q 36.625 -13.375 41.015625 -8.765625 
Q 45.40625 -4.15625 45.40625 5.171875 
L 45.40625 9.625 
Q 42.625 4.78125 38.28125 2.390625 
Q 33.9375 0 27.875 0 
Q 17.828125 0 11.671875 7.65625 
Q 5.515625 15.328125 5.515625 27.984375 
Q 5.515625 40.671875 11.671875 48.328125 
Q 17.828125 56 27.875 56 
Q 33.9375 56 38.28125 53.609375 
Q 42.625 51.21875 45.40625 46.390625 
L 45.40625 54.6875 
L 54.390625 54.6875 
z
" id="DejaVuSans-103"/>
      <path d="M 32.171875 -5.078125 
Q 28.375 -14.84375 24.75 -17.8125 
Q 21.140625 -20.796875 15.09375 -20.796875 
L 7.90625 -20.796875 
L 7.90625 -13.28125 
L 13.1875 -13.28125 
Q 16.890625 -13.28125 18.9375 -11.515625 
Q 21 -9.765625 23.484375 -3.21875 
L 25.09375 0.875 
L 2.984375 54.6875 
L 12.5 54.6875 
L 29.59375 11.921875 
L 46.6875 54.6875 
L 56.203125 54.6875 
z
" id="DejaVuSans-121"/>
     </defs>
     <g transform="translate(900.407031 1124.368563)scale(0.1 -0.1)">
      <use xlink:href="#DejaVuSans-69"/>
      <use x="63.183594" xlink:href="#DejaVuSans-110"/>
      <use x="126.5625" xlink:href="#DejaVuSans-101"/>
      <use x="188.085938" xlink:href="#DejaVuSans-114"/>
      <use x="229.183594" xlink:href="#DejaVuSans-103"/>
      <use x="292.660156" xlink:href="#DejaVuSans-121"/>
     </g>
    </g>
   </g>
   <g id="matplotlib.axis_2">
    <g id="ytick_1">
     <g id="line2d_9">
      <defs>
       <path d="M 0 0 
L -3.5 0 
" id="m2d6881d131" style="stroke:#000000;stroke-width:0.8;"/>
      </defs>
      <g>
       <use style="stroke:#000000;stroke-width:0.8;" x="324" xlink:href="#m2d6881d131" y="1054.078528"/>
      </g>
     </g>
     <g id="text_10">
      <!-- 0 -->
      <g transform="translate(310.6375 1057.877747)scale(0.1 -0.1)">
       <use xlink:href="#DejaVuSans-48"/>
      </g>
     </g>
    </g>
    <g id="ytick_2">
     <g id="line2d_10">
      <g>
       <use style="stroke:#000000;stroke-width:0.8;" x="324" xlink:href="#m2d6881d131" y="941.184582"/>
      </g>
     </g>
     <g id="text_11">
      <!-- 20000 -->
      <g transform="translate(285.1875 944.9838)scale(0.1 -0.1)">
       <use xlink:href="#DejaVuSans-50"/>
       <use x="63.623047" xlink:href="#DejaVuSans-48"/>
       <use x="127.246094" xlink:href="#DejaVuSans-48"/>
       <use x="190.869141" xlink:href="#DejaVuSans-48"/>
       <use x="254.492188" xlink:href="#DejaVuSans-48"/>
      </g>
     </g>
    </g>
    <g id="ytick_3">
     <g id="line2d_11">
      <g>
       <use style="stroke:#000000;stroke-width:0.8;" x="324" xlink:href="#m2d6881d131" y="828.290635"/>
      </g>
     </g>
     <g id="text_12">
      <!-- 40000 -->
      <defs>
       <path d="M 37.796875 64.3125 
L 12.890625 25.390625 
L 37.796875 25.390625 
z
M 35.203125 72.90625 
L 47.609375 72.90625 
L 47.609375 25.390625 
L 58.015625 25.390625 
L 58.015625 17.1875 
L 47.609375 17.1875 
L 47.609375 0 
L 37.796875 0 
L 37.796875 17.1875 
L 4.890625 17.1875 
L 4.890625 26.703125 
z
" id="DejaVuSans-52"/>
      </defs>
      <g transform="translate(285.1875 832.089854)scale(0.1 -0.1)">
       <use xlink:href="#DejaVuSans-52"/>
       <use x="63.623047" xlink:href="#DejaVuSans-48"/>
       <use x="127.246094" xlink:href="#DejaVuSans-48"/>
       <use x="190.869141" xlink:href="#DejaVuSans-48"/>
       <use x="254.492188" xlink:href="#DejaVuSans-48"/>
      </g>
     </g>
    </g>
    <g id="ytick_4">
     <g id="line2d_12">
      <g>
       <use style="stroke:#000000;stroke-width:0.8;" x="324" xlink:href="#m2d6881d131" y="715.396689"/>
      </g>
     </g>
     <g id="text_13">
      <!-- 60000 -->
      <defs>
       <path d="M 33.015625 40.375 
Q 26.375 40.375 22.484375 35.828125 
Q 18.609375 31.296875 18.609375 23.390625 
Q 18.609375 15.53125 22.484375 10.953125 
Q 26.375 6.390625 33.015625 6.390625 
Q 39.65625 6.390625 43.53125 10.953125 
Q 47.40625 15.53125 47.40625 23.390625 
Q 47.40625 31.296875 43.53125 35.828125 
Q 39.65625 40.375 33.015625 40.375 
z
M 52.59375 71.296875 
L 52.59375 62.3125 
Q 48.875 64.0625 45.09375 64.984375 
Q 41.3125 65.921875 37.59375 65.921875 
Q 27.828125 65.921875 22.671875 59.328125 
Q 17.53125 52.734375 16.796875 39.40625 
Q 19.671875 43.65625 24.015625 45.921875 
Q 28.375 48.1875 33.59375 48.1875 
Q 44.578125 48.1875 50.953125 41.515625 
Q 57.328125 34.859375 57.328125 23.390625 
Q 57.328125 12.15625 50.6875 5.359375 
Q 44.046875 -1.421875 33.015625 -1.421875 
Q 20.359375 -1.421875 13.671875 8.265625 
Q 6.984375 17.96875 6.984375 36.375 
Q 6.984375 53.65625 15.1875 63.9375 
Q 23.390625 74.21875 37.203125 74.21875 
Q 40.921875 74.21875 44.703125 73.484375 
Q 48.484375 72.75 52.59375 71.296875 
z
" id="DejaVuSans-54"/>
      </defs>
      <g transform="translate(285.1875 719.195907)scale(0.1 -0.1)">
       <use xlink:href="#DejaVuSans-54"/>
       <use x="63.623047" xlink:href="#DejaVuSans-48"/>
       <use x="127.246094" xlink:href="#DejaVuSans-48"/>
       <use x="190.869141" xlink:href="#DejaVuSans-48"/>
       <use x="254.492188" xlink:href="#DejaVuSans-48"/>
      </g>
     </g>
    </g>
    <g id="ytick_5">
     <g id="line2d_13">
      <g>
       <use style="stroke:#000000;stroke-width:0.8;" x="324" xlink:href="#m2d6881d131" y="602.502742"/>
      </g>
     </g>
     <g id="text_14">
      <!-- 80000 -->
      <defs>
       <path d="M 31.78125 34.625 
Q 24.75 34.625 20.71875 30.859375 
Q 16.703125 27.09375 16.703125 20.515625 
Q 16.703125 13.921875 20.71875 10.15625 
Q 24.75 6.390625 31.78125 6.390625 
Q 38.8125 6.390625 42.859375 10.171875 
Q 46.921875 13.96875 46.921875 20.515625 
Q 46.921875 27.09375 42.890625 30.859375 
Q 38.875 34.625 31.78125 34.625 
z
M 21.921875 38.8125 
Q 15.578125 40.375 12.03125 44.71875 
Q 8.5 49.078125 8.5 55.328125 
Q 8.5 64.0625 14.71875 69.140625 
Q 20.953125 74.21875 31.78125 74.21875 
Q 42.671875 74.21875 48.875 69.140625 
Q 55.078125 64.0625 55.078125 55.328125 
Q 55.078125 49.078125 51.53125 44.71875 
Q 48 40.375 41.703125 38.8125 
Q 48.828125 37.15625 52.796875 32.3125 
Q 56.78125 27.484375 56.78125 20.515625 
Q 56.78125 9.90625 50.3125 4.234375 
Q 43.84375 -1.421875 31.78125 -1.421875 
Q 19.734375 -1.421875 13.25 4.234375 
Q 6.78125 9.90625 6.78125 20.515625 
Q 6.78125 27.484375 10.78125 32.3125 
Q 14.796875 37.15625 21.921875 38.8125 
z
M 18.3125 54.390625 
Q 18.3125 48.734375 21.84375 45.5625 
Q 25.390625 42.390625 31.78125 42.390625 
Q 38.140625 42.390625 41.71875 45.5625 
Q 45.3125 48.734375 45.3125 54.390625 
Q 45.3125 60.0625 41.71875 63.234375 
Q 38.140625 66.40625 31.78125 66.40625 
Q 25.390625 66.40625 21.84375 63.234375 
Q 18.3125 60.0625 18.3125 54.390625 
z
" id="DejaVuSans-56"/>
      </defs>
      <g transform="translate(285.1875 606.301961)scale(0.1 -0.1)">
       <use xlink:href="#DejaVuSans-56"/>
       <use x="63.623047" xlink:href="#DejaVuSans-48"/>
       <use x="127.246094" xlink:href="#DejaVuSans-48"/>
       <use x="190.869141" xlink:href="#DejaVuSans-48"/>
       <use x="254.492188" xlink:href="#DejaVuSans-48"/>
      </g>
     </g>
    </g>
    <g id="ytick_6">
     <g id="line2d_14">
      <g>
       <use style="stroke:#000000;stroke-width:0.8;" x="324" xlink:href="#m2d6881d131" y="489.608796"/>
      </g>
     </g>
     <g id="text_15">
      <!-- 100000 -->
      <g transform="translate(278.825 493.408014)scale(0.1 -0.1)">
       <use xlink:href="#DejaVuSans-49"/>
       <use x="63.623047" xlink:href="#DejaVuSans-48"/>
       <use x="127.246094" xlink:href="#DejaVuSans-48"/>
       <use x="190.869141" xlink:href="#DejaVuSans-48"/>
       <use x="254.492188" xlink:href="#DejaVuSans-48"/>
       <use x="318.115234" xlink:href="#DejaVuSans-48"/>
      </g>
     </g>
    </g>
    <g id="ytick_7">
     <g id="line2d_15">
      <g>
       <use style="stroke:#000000;stroke-width:0.8;" x="324" xlink:href="#m2d6881d131" y="376.714849"/>
      </g>
     </g>
     <g id="text_16">
      <!-- 120000 -->
      <g transform="translate(278.825 380.514068)scale(0.1 -0.1)">
       <use xlink:href="#DejaVuSans-49"/>
       <use x="63.623047" xlink:href="#DejaVuSans-50"/>
       <use x="127.246094" xlink:href="#DejaVuSans-48"/>
       <use x="190.869141" xlink:href="#DejaVuSans-48"/>
       <use x="254.492188" xlink:href="#DejaVuSans-48"/>
       <use x="318.115234" xlink:href="#DejaVuSans-48"/>
      </g>
     </g>
    </g>
    <g id="ytick_8">
     <g id="line2d_16">
      <g>
       <use style="stroke:#000000;stroke-width:0.8;" x="324" xlink:href="#m2d6881d131" y="263.820902"/>
      </g>
     </g>
     <g id="text_17">
      <!-- 140000 -->
      <g transform="translate(278.825 267.620121)scale(0.1 -0.1)">
       <use xlink:href="#DejaVuSans-49"/>
       <use x="63.623047" xlink:href="#DejaVuSans-52"/>
       <use x="127.246094" xlink:href="#DejaVuSans-48"/>
       <use x="190.869141" xlink:href="#DejaVuSans-48"/>
       <use x="254.492188" xlink:href="#DejaVuSans-48"/>
       <use x="318.115234" xlink:href="#DejaVuSans-48"/>
      </g>
     </g>
    </g>
    <g id="ytick_9">
     <g id="line2d_17">
      <g>
       <use style="stroke:#000000;stroke-width:0.8;" x="324" xlink:href="#m2d6881d131" y="150.926956"/>
      </g>
     </g>
     <g id="text_18">
      <!-- 160000 -->
      <g transform="translate(278.825 154.726175)scale(0.1 -0.1)">
       <use xlink:href="#DejaVuSans-49"/>
       <use x="63.623047" xlink:href="#DejaVuSans-54"/>
       <use x="127.246094" xlink:href="#DejaVuSans-48"/>
       <use x="190.869141" xlink:href="#DejaVuSans-48"/>
       <use x="254.492188" xlink:href="#DejaVuSans-48"/>
       <use x="318.115234" xlink:href="#DejaVuSans-48"/>
      </g>
     </g>
    </g>
    <g id="text_19">
     <!-- Counts -->
     <defs>
      <path d="M 64.40625 67.28125 
L 64.40625 56.890625 
Q 59.421875 61.53125 53.78125 63.8125 
Q 48.140625 66.109375 41.796875 66.109375 
Q 29.296875 66.109375 22.65625 58.46875 
Q 16.015625 50.828125 16.015625 36.375 
Q 16.015625 21.96875 22.65625 14.328125 
Q 29.296875 6.6875 41.796875 6.6875 
Q 48.140625 6.6875 53.78125 8.984375 
Q 59.421875 11.28125 64.40625 15.921875 
L 64.40625 5.609375 
Q 59.234375 2.09375 53.4375 0.328125 
Q 47.65625 -1.421875 41.21875 -1.421875 
Q 24.65625 -1.421875 15.125 8.703125 
Q 5.609375 18.84375 5.609375 36.375 
Q 5.609375 53.953125 15.125 64.078125 
Q 24.65625 74.21875 41.21875 74.21875 
Q 47.75 74.21875 53.53125 72.484375 
Q 59.328125 70.75 64.40625 67.28125 
z
" id="DejaVuSans-67"/>
      <path d="M 30.609375 48.390625 
Q 23.390625 48.390625 19.1875 42.75 
Q 14.984375 37.109375 14.984375 27.296875 
Q 14.984375 17.484375 19.15625 11.84375 
Q 23.34375 6.203125 30.609375 6.203125 
Q 37.796875 6.203125 41.984375 11.859375 
Q 46.1875 17.53125 46.1875 27.296875 
Q 46.1875 37.015625 41.984375 42.703125 
Q 37.796875 48.390625 30.609375 48.390625 
z
M 30.609375 56 
Q 42.328125 56 49.015625 48.375 
Q 55.71875 40.765625 55.71875 27.296875 
Q 55.71875 13.875 49.015625 6.21875 
Q 42.328125 -1.421875 30.609375 -1.421875 
Q 18.84375 -1.421875 12.171875 6.21875 
Q 5.515625 13.875 5.515625 27.296875 
Q 5.515625 40.765625 12.171875 48.375 
Q 18.84375 56 30.609375 56 
z
" id="DejaVuSans-111"/>
      <path d="M 8.5 21.578125 
L 8.5 54.6875 
L 17.484375 54.6875 
L 17.484375 21.921875 
Q 17.484375 14.15625 20.5 10.265625 
Q 23.53125 6.390625 29.59375 6.390625 
Q 36.859375 6.390625 41.078125 11.03125 
Q 45.3125 15.671875 45.3125 23.6875 
L 45.3125 54.6875 
L 54.296875 54.6875 
L 54.296875 0 
L 45.3125 0 
L 45.3125 8.40625 
Q 42.046875 3.421875 37.71875 1 
Q 33.40625 -1.421875 27.6875 -1.421875 
Q 18.265625 -1.421875 13.375 4.4375 
Q 8.5 10.296875 8.5 21.578125 
z
M 31.109375 56 
z
" id="DejaVuSans-117"/>
      <path d="M 18.3125 70.21875 
L 18.3125 54.6875 
L 36.8125 54.6875 
L 36.8125 47.703125 
L 18.3125 47.703125 
L 18.3125 18.015625 
Q 18.3125 11.328125 20.140625 9.421875 
Q 21.96875 7.515625 27.59375 7.515625 
L 36.8125 7.515625 
L 36.8125 0 
L 27.59375 0 
Q 17.1875 0 13.234375 3.875 
Q 9.28125 7.765625 9.28125 18.015625 
L 9.28125 47.703125 
L 2.6875 47.703125 
L 2.6875 54.6875 
L 9.28125 54.6875 
L 9.28125 70.21875 
z
" id="DejaVuSans-116"/>
      <path d="M 44.28125 53.078125 
L 44.28125 44.578125 
Q 40.484375 46.53125 36.375 47.5 
Q 32.28125 48.484375 27.875 48.484375 
Q 21.1875 48.484375 17.84375 46.4375 
Q 14.5 44.390625 14.5 40.28125 
Q 14.5 37.15625 16.890625 35.375 
Q 19.28125 33.59375 26.515625 31.984375 
L 29.59375 31.296875 
Q 39.15625 29.25 43.1875 25.515625 
Q 47.21875 21.78125 47.21875 15.09375 
Q 47.21875 7.46875 41.1875 3.015625 
Q 35.15625 -1.421875 24.609375 -1.421875 
Q 20.21875 -1.421875 15.453125 -0.5625 
Q 10.6875 0.296875 5.421875 2 
L 5.421875 11.28125 
Q 10.40625 8.6875 15.234375 7.390625 
Q 20.0625 6.109375 24.8125 6.109375 
Q 31.15625 6.109375 34.5625 8.28125 
Q 37.984375 10.453125 37.984375 14.40625 
Q 37.984375 18.0625 35.515625 20.015625 
Q 33.0625 21.96875 24.703125 23.78125 
L 21.578125 24.515625 
Q 13.234375 26.265625 9.515625 29.90625 
Q 5.8125 33.546875 5.8125 39.890625 
Q 5.8125 47.609375 11.28125 51.796875 
Q 16.75 56 26.8125 56 
Q 31.78125 56 36.171875 55.265625 
Q 40.578125 54.546875 44.28125 53.078125 
z
" id="DejaVuSans-115"/>
     </defs>
     <g transform="translate(272.745313 629.975125)rotate(-90)scale(0.1 -0.1)">
      <use xlink:href="#DejaVuSans-67"/>
      <use x="69.824219" xlink:href="#DejaVuSans-111"/>
      <use x="131.005859" xlink:href="#DejaVuSans-117"/>
      <use x="194.384766" xlink:href="#DejaVuSans-110"/>
      <use x="257.763672" xlink:href="#DejaVuSans-116"/>
      <use x="296.972656" xlink:href="#DejaVuSans-115"/>
     </g>
    </g>
   </g>
   <g id="line2d_18">
    <path clip-path="url(#p2fd1e4b791)" d="M 346.846154 1054.078528 
L 347.962779 1053.888953 
L 349.079404 1053.865891 
L 350.19603 1054.078528 
L 354.662531 1054.043531 
L 355.779156 1044.61391 
L 356.895782 1040.861728 
L 358.012407 1014.852815 
L 359.129032 1006.366459 
L 360.245658 1007.705044 
L 361.362283 1007.850389 
L 362.478908 1006.847972 
L 363.595533 1003.861059 
L 365.828784 1002.807377 
L 366.945409 1002.795485 
L 368.062035 1002.14056 
L 369.17866 1002.966249 
L 370.295285 1004.112228 
L 371.411911 1005.922485 
L 372.528536 1004.482814 
L 373.645161 1004.980884 
L 374.761787 1004.585528 
L 375.878412 1003.990153 
L 378.111663 1000.638978 
L 379.228288 996.808581 
L 380.344913 993.939058 
L 381.461538 988.137727 
L 383.694789 974.588968 
L 384.811414 966.357401 
L 385.92804 960.828044 
L 387.044665 960.366356 
L 388.16129 961.51811 
L 389.277916 964.190997 
L 390.394541 968.403021 
L 391.511166 973.72666 
L 392.627792 974.693369 
L 393.744417 978.296563 
L 394.861042 978.090573 
L 395.977667 981.722806 
L 397.094293 982.136122 
L 398.210918 984.54828 
L 399.327543 983.250756 
L 400.444169 986.028923 
L 401.560794 985.072786 
L 402.677419 985.093808 
L 403.794045 982.624921 
L 404.91067 981.830397 
L 406.027295 980.522065 
L 407.143921 981.22313 
L 408.260546 978.839978 
L 410.493797 978.743811 
L 411.610422 978.248933 
L 412.727047 977.493248 
L 413.843672 977.480016 
L 414.960298 979.14518 
L 416.076923 979.000405 
L 417.193548 977.212834 
L 418.310174 979.812004 
L 419.426799 978.961238 
L 420.543424 980.630945 
L 421.66005 979.602804 
L 422.776675 981.551777 
L 423.8933 981.547395 
L 425.009926 980.363932 
L 426.126551 981.227388 
L 427.243176 981.722204 
L 428.359801 982.66633 
L 429.476427 982.47872 
L 430.593052 981.917436 
L 431.709677 983.043111 
L 433.942928 981.75623 
L 435.059553 980.279789 
L 437.292804 982.519151 
L 438.409429 981.609486 
L 439.526055 981.393364 
L 440.64268 982.69818 
L 441.759305 980.895745 
L 442.875931 981.579308 
L 443.992556 980.307243 
L 445.109181 979.626497 
L 446.225806 979.470721 
L 447.342432 979.542039 
L 448.459057 979.006222 
L 450.692308 975.592037 
L 451.808933 976.267622 
L 452.925558 975.012877 
L 454.042184 975.103472 
L 455.158809 975.45947 
L 456.275434 974.044379 
L 457.39206 974.346299 
L 459.62531 973.998307 
L 460.741935 974.817344 
L 461.858561 970.912162 
L 462.975186 972.939455 
L 464.091811 974.731465 
L 466.325062 973.377172 
L 467.441687 974.042456 
L 468.558313 973.59066 
L 469.674938 973.858869 
L 470.791563 973.738365 
L 471.908189 973.895736 
L 474.141439 974.649886 
L 475.258065 973.983818 
L 476.37469 975.079415 
L 477.491315 974.99056 
L 478.60794 975.25214 
L 479.724566 972.892627 
L 480.841191 973.556083 
L 481.957816 975.005789 
L 483.074442 974.746171 
L 484.191067 973.567589 
L 485.307692 975.245126 
L 486.424318 975.812388 
L 487.540943 974.644889 
L 488.657568 972.115233 
L 489.774194 973.858541 
L 490.890819 973.026448 
L 492.007444 973.901336 
L 493.124069 973.010367 
L 494.240695 974.549486 
L 495.35732 973.874869 
L 496.473945 974.719274 
L 497.590571 971.804966 
L 498.707196 973.864112 
L 499.823821 971.967551 
L 500.940447 972.227758 
L 502.057072 971.449237 
L 503.173697 971.489571 
L 504.290323 970.788884 
L 505.406948 972.557474 
L 506.523573 970.5526 
L 507.640199 972.034886 
L 508.756824 971.004739 
L 509.873449 970.794297 
L 510.990074 969.56998 
L 512.1067 971.315101 
L 513.223325 970.166781 
L 516.573201 967.949243 
L 517.689826 968.804297 
L 518.806452 969.322745 
L 519.923077 967.180088 
L 521.039702 969.097071 
L 522.156328 967.167415 
L 523.272953 967.209464 
L 524.389578 965.126618 
L 525.506203 966.171243 
L 526.622829 966.489871 
L 527.739454 965.024054 
L 528.856079 965.519962 
L 529.972705 964.656225 
L 531.08933 964.838396 
L 532.205955 963.722839 
L 533.322581 960.881806 
L 534.439206 962.91524 
L 535.555831 963.56399 
L 536.672457 961.893834 
L 537.789082 958.814322 
L 538.905707 958.802672 
L 540.022333 959.33382 
L 541.138958 961.582221 
L 542.255583 956.836402 
L 543.372208 959.768241 
L 544.488834 957.045346 
L 545.605459 957.669932 
L 546.722084 955.958111 
L 547.83871 956.960918 
L 548.955335 954.904241 
L 550.07196 954.694403 
L 551.188586 952.344243 
L 552.305211 954.646423 
L 553.421836 954.574845 
L 554.538462 953.258043 
L 555.655087 953.22139 
L 556.771712 951.375727 
L 557.888337 952.204993 
L 559.004963 951.323624 
L 560.121588 948.175627 
L 561.238213 950.839642 
L 562.354839 949.505503 
L 563.471464 950.362512 
L 564.588089 943.699873 
L 565.704715 947.569397 
L 566.82134 947.412544 
L 567.937965 945.463661 
L 569.054591 942.826247 
L 570.171216 942.268563 
L 571.287841 942.518734 
L 572.404467 942.243646 
L 573.521092 938.487539 
L 574.637717 940.562901 
L 575.754342 939.115087 
L 576.870968 939.135701 
L 577.987593 933.666918 
L 579.104218 938.292926 
L 580.220844 937.347918 
L 581.337469 939.044516 
L 582.454094 934.390636 
L 583.57072 933.606071 
L 584.687345 934.354673 
L 585.80397 935.408921 
L 586.920596 931.187367 
L 588.037221 930.373817 
L 589.153846 927.699486 
L 590.270471 929.106954 
L 591.387097 928.285271 
L 592.503722 928.902807 
L 593.620347 928.008066 
L 594.736973 927.71795 
L 595.853598 924.796822 
L 596.970223 925.961755 
L 598.086849 927.754091 
L 599.203474 926.06408 
L 600.320099 923.260473 
L 601.436725 923.401236 
L 602.55335 922.485677 
L 603.669975 923.103179 
L 604.7866 923.043602 
L 605.903226 923.639415 
L 607.019851 921.804247 
L 608.136476 921.693567 
L 609.253102 922.662588 
L 610.369727 925.810832 
L 611.486352 922.738392 
L 612.602978 922.343321 
L 613.719603 920.27675 
L 615.952854 923.762362 
L 617.069479 921.690812 
L 618.186104 922.755581 
L 619.30273 926.402864 
L 620.419355 928.383176 
L 621.53598 933.462795 
L 622.652605 927.630202 
L 623.769231 931.602715 
L 624.885856 931.053205 
L 626.002481 935.955177 
L 627.119107 936.473775 
L 628.235732 940.747801 
L 629.352357 938.725159 
L 630.468983 941.320752 
L 631.585608 940.777423 
L 632.702233 947.778247 
L 633.818859 947.653886 
L 634.935484 950.309924 
L 636.052109 953.931907 
L 637.168734 956.091787 
L 638.28536 955.517262 
L 639.401985 957.740518 
L 640.51861 961.157791 
L 641.635236 961.788907 
L 643.868486 965.907094 
L 644.985112 966.609553 
L 646.101737 968.559837 
L 647.218362 969.473992 
L 648.334988 970.624012 
L 649.451613 969.787176 
L 651.684864 975.196698 
L 652.801489 976.090033 
L 653.918114 975.034638 
L 655.034739 975.92421 
L 656.151365 977.55719 
L 657.26799 974.74502 
L 658.384615 977.534676 
L 659.501241 979.276214 
L 660.617866 979.251698 
L 661.734491 981.796412 
L 662.851117 979.471743 
L 663.967742 978.488465 
L 666.200993 979.556212 
L 667.317618 979.249688 
L 668.434243 980.483765 
L 669.550868 977.446305 
L 670.667494 979.379293 
L 671.784119 980.508727 
L 674.01737 979.096508 
L 675.133995 978.668868 
L 676.25062 978.558936 
L 677.367246 979.067447 
L 678.483871 978.621955 
L 679.600496 976.657609 
L 680.717122 975.950637 
L 681.833747 977.283456 
L 682.950372 977.069735 
L 684.066998 975.593711 
L 685.183623 972.815784 
L 686.300248 974.05456 
L 688.533499 973.455845 
L 689.650124 971.401251 
L 690.766749 967.677236 
L 691.883375 967.709797 
L 693 966.633276 
L 694.116625 964.191259 
L 695.233251 962.977273 
L 696.349876 959.675827 
L 697.466501 957.900859 
L 698.583127 960.657249 
L 699.699752 953.725908 
L 700.816377 951.097523 
L 701.933002 947.578844 
L 703.049628 940.327387 
L 704.166253 942.510821 
L 705.282878 938.224068 
L 706.399504 936.698036 
L 707.516129 928.090704 
L 708.632754 927.469361 
L 709.74938 921.10567 
L 710.866005 913.953753 
L 711.98263 907.709986 
L 713.099256 903.292056 
L 714.215881 893.255265 
L 715.332506 886.284418 
L 716.449132 876.414227 
L 717.565757 868.031175 
L 718.682382 857.748695 
L 719.799007 845.865378 
L 720.915633 822.40361 
L 722.032258 818.139972 
L 724.265509 783.809991 
L 725.382134 757.555497 
L 726.498759 743.805999 
L 727.615385 720.350284 
L 728.73201 700.339581 
L 729.848635 662.715104 
L 730.965261 644.65093 
L 732.081886 609.836227 
L 733.198511 587.871773 
L 734.315136 551.570997 
L 735.431762 532.193022 
L 736.548387 497.545991 
L 737.665012 466.856246 
L 738.781638 411.804585 
L 739.898263 395.156032 
L 741.014888 371.693265 
L 743.248139 300.228 
L 745.48139 243.673665 
L 746.598015 226.262321 
L 747.71464 187.237336 
L 748.831266 180.311957 
L 749.947891 171.500062 
L 751.064516 160.757304 
L 752.181141 148.38735 
L 753.297767 160.240097 
L 754.414392 161.016378 
L 755.531017 181.193012 
L 756.647643 164.257598 
L 757.764268 193.938551 
L 758.880893 219.592521 
L 761.114144 277.120802 
L 762.230769 314.402375 
L 763.347395 346.092624 
L 764.46402 385.768385 
L 765.580645 407.908995 
L 766.69727 462.850447 
L 767.813896 507.941904 
L 770.047146 578.459 
L 771.163772 627.000679 
L 772.280397 659.744036 
L 773.397022 707.603507 
L 774.513648 724.474221 
L 775.630273 776.175418 
L 776.746898 792.836693 
L 777.863524 834.641506 
L 778.980149 859.488432 
L 780.096774 887.868508 
L 781.2134 909.850167 
L 783.44665 948.288753 
L 785.679901 979.750271 
L 786.796526 988.570973 
L 787.913151 1001.329092 
L 789.029777 1009.127019 
L 790.146402 1018.268146 
L 791.263027 1025.399834 
L 792.379653 1027.086759 
L 793.496278 1033.625837 
L 794.612903 1038.671529 
L 795.729529 1040.544998 
L 796.846154 1043.529398 
L 797.962779 1045.225015 
L 799.079404 1046.608413 
L 800.19603 1048.660533 
L 801.312655 1048.623877 
L 802.42928 1049.222358 
L 803.545906 1049.568057 
L 804.662531 1050.168895 
L 805.779156 1050.166527 
L 806.895782 1051.341874 
L 808.012407 1051.245161 
L 809.129032 1051.435235 
L 810.245658 1052.007924 
L 811.362283 1050.892413 
L 813.595533 1052.007384 
L 814.712159 1051.465965 
L 815.828784 1051.880589 
L 816.945409 1051.626488 
L 818.062035 1051.78663 
L 819.17866 1052.265024 
L 820.295285 1051.375831 
L 821.411911 1052.203887 
L 822.528536 1051.443507 
L 823.645161 1052.112053 
L 824.761787 1052.462652 
L 825.878412 1052.053141 
L 826.995037 1051.929334 
L 828.111663 1052.058615 
L 829.228288 1051.683566 
L 830.344913 1052.15945 
L 831.461538 1051.943054 
L 832.578164 1052.229244 
L 833.694789 1052.014077 
L 834.811414 1051.644048 
L 835.92804 1052.085637 
L 837.044665 1051.810969 
L 839.277916 1052.008425 
L 841.511166 1052.604212 
L 842.627792 1052.057772 
L 843.744417 1052.491703 
L 845.977667 1052.139336 
L 847.094293 1052.448511 
L 848.210918 1052.094113 
L 850.444169 1052.736764 
L 852.677419 1052.21686 
L 853.794045 1052.46094 
L 854.91067 1052.585912 
L 856.027295 1052.389615 
L 857.143921 1052.456357 
L 859.377171 1052.789201 
L 860.493797 1052.454711 
L 863.843672 1052.484 
L 864.960298 1052.660957 
L 866.076923 1052.394117 
L 867.193548 1052.707148 
L 868.310174 1052.634888 
L 869.426799 1052.320534 
L 870.543424 1052.521205 
L 871.66005 1052.45278 
L 872.776675 1052.782489 
L 873.8933 1052.845013 
L 876.126551 1052.399768 
L 877.243176 1052.849051 
L 878.359801 1052.93559 
L 879.476427 1052.769129 
L 880.593052 1053.105065 
L 882.826303 1052.975404 
L 885.059553 1053.019915 
L 886.176179 1053.101517 
L 887.292804 1053.040211 
L 888.409429 1053.214014 
L 889.526055 1053.153287 
L 890.64268 1052.887957 
L 891.759305 1053.149505 
L 892.875931 1053.226507 
L 895.109181 1052.915484 
L 896.225806 1053.166937 
L 897.342432 1053.005308 
L 898.459057 1053.10223 
L 899.575682 1052.924459 
L 900.692308 1053.186617 
L 901.808933 1053.053471 
L 902.925558 1053.106037 
L 904.042184 1053.017495 
L 906.275434 1053.394664 
L 908.508685 1053.030204 
L 909.62531 1053.344465 
L 911.858561 1053.08774 
L 912.975186 1053.227254 
L 914.091811 1053.488569 
L 915.208437 1053.425701 
L 916.325062 1053.155713 
L 917.441687 1052.755628 
L 918.558313 1053.434399 
L 921.908189 1053.50907 
L 923.024814 1053.484807 
L 924.141439 1053.30313 
L 926.37469 1053.509264 
L 931.957816 1053.477058 
L 933.074442 1053.415187 
L 934.191067 1053.577818 
L 936.424318 1053.416791 
L 937.540943 1053.599508 
L 942.007444 1053.61481 
L 944.240695 1053.76238 
L 946.473945 1053.535953 
L 954.290323 1053.771408 
L 955.406948 1053.692722 
L 956.523573 1053.801338 
L 957.640199 1053.643901 
L 958.756824 1053.819799 
L 959.873449 1053.833607 
L 960.990074 1053.712027 
L 963.223325 1053.779421 
L 966.573201 1053.882362 
L 967.689826 1053.648436 
L 968.806452 1053.810682 
L 972.156328 1053.765372 
L 975.506203 1053.803437 
L 981.08933 1053.853376 
L 986.672457 1053.870456 
L 1001.188586 1053.930738 
L 1004.538462 1053.927033 
L 1023.521092 1053.994029 
L 1024.637717 1053.935848 
L 1026.870968 1053.982392 
L 1039.153846 1053.964309 
L 1041.387097 1053.999313 
L 1048.086849 1054.003061 
L 1050.320099 1054.036234 
L 1052.55335 1054.023741 
L 1061.486352 1054.044319 
L 1077.119107 1054.040336 
L 1083.818859 1054.043337 
L 1428.856079 1054.078443 
L 1489.153846 1054.078528 
L 1489.153846 1054.078528 
" style="fill:none;stroke:#1f77b4;stroke-linecap:square;stroke-width:1.5;"/>
   </g>
   <g id="line2d_19">
    <path clip-path="url(#p2fd1e4b791)" d="M 346.846154 1054.078528 
L 697.466501 1053.981916 
L 701.933002 1053.714613 
L 704.166253 1053.400404 
L 706.399504 1052.848725 
L 707.516129 1052.439146 
L 708.632754 1051.90793 
L 709.74938 1051.22401 
L 710.866005 1050.349974 
L 711.98263 1049.241233 
L 713.099256 1047.845214 
L 714.215881 1046.100605 
L 715.332506 1043.93673 
L 716.449132 1041.27309 
L 717.565757 1038.019166 
L 718.682382 1034.074546 
L 719.799007 1029.329452 
L 720.915633 1023.665766 
L 722.032258 1016.958604 
L 723.148883 1009.078514 
L 724.265509 999.894341 
L 725.382134 989.276765 
L 726.498759 977.102512 
L 727.615385 963.259179 
L 728.73201 947.650581 
L 729.848635 930.202482 
L 732.081886 889.63618 
L 734.315136 841.628206 
L 736.548387 786.951087 
L 739.898263 696.132314 
L 744.364764 573.190104 
L 746.598015 518.918486 
L 747.71464 495.241882 
L 748.831266 474.462451 
L 749.947891 456.974067 
L 751.064516 443.116027 
L 752.181141 433.162113 
L 753.297767 427.311597 
L 754.414392 425.682611 
L 755.531017 428.308178 
L 756.647643 435.1351 
L 757.764268 446.02575 
L 758.880893 460.762685 
L 759.997519 479.055867 
L 761.114144 500.55215 
L 763.347395 551.49519 
L 765.580645 609.963736 
L 772.280397 793.666511 
L 774.513648 847.627179 
L 776.746898 894.787316 
L 778.980149 934.464175 
L 780.096774 951.475411 
L 781.2134 966.66228 
L 782.330025 980.104696 
L 783.44665 991.903153 
L 784.563275 1002.173066 
L 785.679901 1011.039539 
L 786.796526 1018.632678 
L 787.913151 1025.08353 
L 789.029777 1030.520707 
L 790.146402 1035.06768 
L 791.263027 1038.840729 
L 792.379653 1041.947508 
L 793.496278 1044.48614 
L 794.612903 1046.54479 
L 795.729529 1048.201624 
L 796.846154 1049.525073 
L 797.962779 1050.574336 
L 799.079404 1051.400044 
L 800.19603 1052.045026 
L 802.42928 1052.930061 
L 804.662531 1053.447266 
L 806.895782 1053.740838 
L 810.245658 1053.952957 
L 816.945409 1054.064071 
L 847.094293 1054.078528 
L 1489.153846 1054.078528 
L 1489.153846 1054.078528 
" style="fill:none;stroke:#ff7f0e;stroke-linecap:square;stroke-width:1.5;"/>
   </g>
   <g id="line2d_20">
    <path clip-path="url(#p2fd1e4b791)" d="M 346.846154 968.197899 
L 626.002481 968.30452 
L 648.334988 968.538683 
L 661.734491 968.880604 
L 671.784119 969.344682 
L 679.600496 969.910319 
L 686.300248 970.606419 
L 691.883375 971.390234 
L 697.466501 972.416239 
L 701.933002 973.455 
L 706.399504 974.729096 
L 710.866005 976.28102 
L 714.215881 977.654143 
L 717.565757 979.227457 
L 720.915633 981.018622 
L 724.265509 983.042978 
L 727.615385 985.312098 
L 730.965261 987.832193 
L 734.315136 990.602474 
L 737.665012 993.613665 
L 742.131514 997.969282 
L 746.598015 1002.646077 
L 753.297767 1010.034814 
L 762.230769 1019.911834 
L 766.69727 1024.572337 
L 771.163772 1028.906562 
L 774.513648 1031.899464 
L 777.863524 1034.650395 
L 781.2134 1037.15079 
L 784.563275 1039.400465 
L 787.913151 1041.406109 
L 791.263027 1043.179646 
L 794.612903 1044.736645 
L 797.962779 1046.094897 
L 802.42928 1047.629303 
L 806.895782 1048.888455 
L 811.362283 1049.914655 
L 816.945409 1050.927923 
L 822.528536 1051.701787 
L 829.228288 1052.388888 
L 837.044665 1052.947102 
L 847.094293 1053.405014 
L 859.377171 1053.722275 
L 877.243176 1053.937861 
L 908.508685 1054.050947 
L 1006.771712 1054.078364 
L 1489.153846 1054.078528 
L 1489.153846 1054.078528 
" style="fill:none;stroke:#2ca02c;stroke-linecap:square;stroke-width:1.5;"/>
   </g>
   <g id="line2d_21">
    <path clip-path="url(#p2fd1e4b791)" d="M 346.846154 1054.078528 
L 641.635236 1053.969822 
L 652.801489 1053.743909 
L 659.501241 1053.422047 
L 665.084367 1052.928809 
L 669.550868 1052.281369 
L 672.900744 1051.570122 
L 676.25062 1050.58438 
L 678.483871 1049.726799 
L 680.717122 1048.666803 
L 682.950372 1047.360657 
L 685.183623 1045.75698 
L 687.416873 1043.796147 
L 689.650124 1041.409922 
L 691.883375 1038.521472 
L 694.116625 1035.045898 
L 696.349876 1030.891445 
L 698.583127 1025.961561 
L 700.816377 1020.157947 
L 703.049628 1013.384707 
L 705.282878 1005.553647 
L 707.516129 996.590692 
L 709.74938 986.443247 
L 711.98263 975.088219 
L 714.215881 962.540262 
L 716.449132 948.859675 
L 719.799007 926.477459 
L 723.148883 902.439929 
L 730.965261 845.612355 
L 733.198511 830.929467 
L 735.431762 817.726377 
L 737.665012 806.426093 
L 738.781638 801.612263 
L 739.898263 797.414946 
L 741.014888 793.873165 
L 742.131514 791.021058 
L 743.248139 788.887345 
L 744.364764 787.49486 
L 745.48139 786.860165 
L 746.598015 786.993254 
L 747.71464 787.897347 
L 748.831266 789.568794 
L 749.947891 791.99707 
L 751.064516 795.164889 
L 752.181141 799.048408 
L 753.297767 803.617544 
L 754.414392 808.836372 
L 756.647643 821.053223 
L 758.880893 835.315213 
L 761.114144 851.183443 
L 764.46402 876.965039 
L 772.280397 938.334354 
L 775.630273 962.045539 
L 777.863524 976.324473 
L 780.096774 989.215295 
L 782.330025 1000.652709 
L 784.563275 1010.631196 
L 786.796526 1019.19521 
L 789.029777 1026.428239 
L 791.263027 1032.441667 
L 793.496278 1037.364241 
L 795.729529 1041.332711 
L 797.962779 1044.484042 
L 800.19603 1046.949364 
L 802.42928 1048.84966 
L 804.662531 1050.293065 
L 806.895782 1051.373555 
L 809.129032 1052.170738 
L 811.362283 1052.75048 
L 814.712159 1053.325932 
L 818.062035 1053.664455 
L 822.528536 1053.900252 
L 830.344913 1054.042597 
L 851.560794 1054.078323 
L 1489.153846 1054.078528 
L 1489.153846 1054.078528 
" style="fill:none;stroke:#d62728;stroke-linecap:square;stroke-width:1.5;"/>
   </g>
   <g id="line2d_22">
    <path clip-path="url(#p2fd1e4b791)" d="M 346.846154 1028.170414 
L 409.377171 1031.437889 
L 471.908189 1034.485897 
L 534.439206 1037.314438 
L 596.970223 1039.923511 
L 659.501241 1042.313117 
L 722.032258 1044.483256 
L 784.563275 1046.433928 
L 847.094293 1048.165132 
L 909.62531 1049.676869 
L 972.156328 1050.969139 
L 1034.687345 1052.041941 
L 1097.218362 1052.895277 
L 1159.74938 1053.529144 
L 1222.280397 1053.943545 
L 1284.811414 1054.138479 
L 1347.342432 1054.113945 
L 1409.873449 1053.869943 
L 1472.404467 1053.406475 
L 1489.153846 1053.245066 
L 1489.153846 1053.245066 
" style="fill:none;stroke:#9467bd;stroke-linecap:square;stroke-width:1.5;"/>
   </g>
   <g id="line2d_23">
    <path clip-path="url(#p2fd1e4b791)" d="M 346.846154 965.627925 
L 409.377171 968.895401 
L 471.908189 971.943442 
L 535.555831 974.821416 
L 607.019851 977.816189 
L 653.918114 979.647134 
L 661.734491 979.713033 
L 667.317618 979.527123 
L 671.784119 979.116038 
L 675.133995 978.566435 
L 677.367246 978.040406 
L 679.600496 977.350502 
L 681.833747 976.458687 
L 684.066998 975.319773 
L 686.300248 973.88064 
L 688.533499 972.07954 
L 690.766749 969.845509 
L 693 967.09786 
L 695.233251 963.74569 
L 697.466501 959.687162 
L 699.699752 954.808215 
L 701.933002 948.980106 
L 704.166253 942.055067 
L 706.399504 933.859211 
L 708.632754 924.182013 
L 710.866005 912.762122 
L 713.099256 899.270294 
L 715.332506 883.291754 
L 717.565757 864.312388 
L 719.799007 841.715348 
L 722.032258 814.796518 
L 724.265509 782.807803 
L 726.498759 745.035608 
L 728.73201 700.917316 
L 730.965261 650.190997 
L 733.198511 593.063631 
L 735.431762 530.372753 
L 739.898263 395.458864 
L 743.248139 297.11148 
L 745.48139 239.711283 
L 746.598015 214.936137 
L 747.71464 193.406871 
L 748.831266 175.554052 
L 749.947891 161.759111 
L 751.064516 152.342075 
L 752.181141 147.550846 
L 753.297767 147.552536 
L 754.414392 152.427246 
L 755.531017 162.164607 
L 756.647643 176.66325 
L 757.764268 195.733239 
L 758.880893 219.101386 
L 759.997519 246.41921 
L 762.230769 311.196833 
L 764.46402 386.203862 
L 768.930521 549.882831 
L 772.280397 669.10167 
L 774.513648 741.188648 
L 776.746898 805.20486 
L 778.980149 860.296262 
L 781.2134 906.367934 
L 782.330025 926.156336 
L 783.44665 943.907455 
L 784.563275 959.74121 
L 785.679901 973.790069 
L 786.796526 986.194008 
L 787.913151 997.09609 
L 789.029777 1006.638733 
L 790.146402 1014.960657 
L 791.263027 1022.194509 
L 792.379653 1028.465106 
L 793.496278 1033.888254 
L 794.612903 1038.570053 
L 795.729529 1042.606618 
L 796.846154 1046.08414 
L 797.962779 1049.079206 
L 799.079404 1051.659315 
L 800.19603 1053.883516 
L 801.312655 1055.803136 
L 802.42928 1057.462531 
L 803.545906 1058.899852 
L 805.779156 1061.234177 
L 808.012407 1063.013846 
L 810.245658 1064.388976 
L 812.478908 1065.467549 
L 814.712159 1066.32721 
L 818.062035 1067.32432 
L 821.411911 1068.079551 
L 825.878412 1068.843757 
L 831.461538 1069.555645 
L 839.277916 1070.285653 
L 849.327543 1070.960685 
L 862.727047 1071.602427 
L 881.709677 1072.25577 
L 911.858561 1073.041779 
L 963.223325 1074.134515 
L 1024.637717 1075.222403 
L 1087.168734 1076.111072 
L 1149.699752 1076.780214 
L 1212.230769 1077.229886 
L 1274.761787 1077.460091 
L 1337.292804 1077.470829 
L 1399.823821 1077.262099 
L 1462.354839 1076.833902 
L 1489.153846 1076.583206 
L 1489.153846 1076.583206 
" style="fill:none;stroke:#8c564b;stroke-linecap:square;stroke-width:1.5;"/>
   </g>
   <g id="patch_3">
    <path d="M 324 1096.092 
L 324 128.952 
" style="fill:none;stroke:#000000;stroke-linecap:square;stroke-linejoin:miter;stroke-width:0.8;"/>
   </g>
   <g id="patch_4">
    <path d="M 1512 1096.092 
L 1512 128.952 
" style="fill:none;stroke:#000000;stroke-linecap:square;stroke-linejoin:miter;stroke-width:0.8;"/>
   </g>
   <g id="patch_5">
    <path d="M 324 1096.092 
L 1512 1096.092 
" style="fill:none;stroke:#000000;stroke-linecap:square;stroke-linejoin:miter;stroke-width:0.8;"/>
   </g>
   <g id="patch_6">
    <path d="M 324 128.952 
L 1512 128.952 
" style="fill:none;stroke:#000000;stroke-linecap:square;stroke-linejoin:miter;stroke-width:0.8;"/>
   </g>
   <g id="text_20">
    <!--  -->
    <g transform="translate(2106 94.65095)scale(0.08 -0.08)"/>
    <!-- Plot created Sun Apr  7 19:56:47 2019 -->
    <defs>
     <path d="M 19.671875 64.796875 
L 19.671875 37.40625 
L 32.078125 37.40625 
Q 38.96875 37.40625 42.71875 40.96875 
Q 46.484375 44.53125 46.484375 51.125 
Q 46.484375 57.671875 42.71875 61.234375 
Q 38.96875 64.796875 32.078125 64.796875 
z
M 9.8125 72.90625 
L 32.078125 72.90625 
Q 44.34375 72.90625 50.609375 67.359375 
Q 56.890625 61.8125 56.890625 51.125 
Q 56.890625 40.328125 50.609375 34.8125 
Q 44.34375 29.296875 32.078125 29.296875 
L 19.671875 29.296875 
L 19.671875 0 
L 9.8125 0 
z
" id="DejaVuSans-80"/>
     <path d="M 9.421875 75.984375 
L 18.40625 75.984375 
L 18.40625 0 
L 9.421875 0 
z
" id="DejaVuSans-108"/>
     <path id="DejaVuSans-32"/>
     <path d="M 48.78125 52.59375 
L 48.78125 44.1875 
Q 44.96875 46.296875 41.140625 47.34375 
Q 37.3125 48.390625 33.40625 48.390625 
Q 24.65625 48.390625 19.8125 42.84375 
Q 14.984375 37.3125 14.984375 27.296875 
Q 14.984375 17.28125 19.8125 11.734375 
Q 24.65625 6.203125 33.40625 6.203125 
Q 37.3125 6.203125 41.140625 7.25 
Q 44.96875 8.296875 48.78125 10.40625 
L 48.78125 2.09375 
Q 45.015625 0.34375 40.984375 -0.53125 
Q 36.96875 -1.421875 32.421875 -1.421875 
Q 20.0625 -1.421875 12.78125 6.34375 
Q 5.515625 14.109375 5.515625 27.296875 
Q 5.515625 40.671875 12.859375 48.328125 
Q 20.21875 56 33.015625 56 
Q 37.15625 56 41.109375 55.140625 
Q 45.0625 54.296875 48.78125 52.59375 
z
" id="DejaVuSans-99"/>
     <path d="M 34.28125 27.484375 
Q 23.390625 27.484375 19.1875 25 
Q 14.984375 22.515625 14.984375 16.5 
Q 14.984375 11.71875 18.140625 8.90625 
Q 21.296875 6.109375 26.703125 6.109375 
Q 34.1875 6.109375 38.703125 11.40625 
Q 43.21875 16.703125 43.21875 25.484375 
L 43.21875 27.484375 
z
M 52.203125 31.203125 
L 52.203125 0 
L 43.21875 0 
L 43.21875 8.296875 
Q 40.140625 3.328125 35.546875 0.953125 
Q 30.953125 -1.421875 24.3125 -1.421875 
Q 15.921875 -1.421875 10.953125 3.296875 
Q 6 8.015625 6 15.921875 
Q 6 25.140625 12.171875 29.828125 
Q 18.359375 34.515625 30.609375 34.515625 
L 43.21875 34.515625 
L 43.21875 35.40625 
Q 43.21875 41.609375 39.140625 45 
Q 35.0625 48.390625 27.6875 48.390625 
Q 23 48.390625 18.546875 47.265625 
Q 14.109375 46.140625 10.015625 43.890625 
L 10.015625 52.203125 
Q 14.9375 54.109375 19.578125 55.046875 
Q 24.21875 56 28.609375 56 
Q 40.484375 56 46.34375 49.84375 
Q 52.203125 43.703125 52.203125 31.203125 
z
" id="DejaVuSans-97"/>
     <path d="M 45.40625 46.390625 
L 45.40625 75.984375 
L 54.390625 75.984375 
L 54.390625 0 
L 45.40625 0 
L 45.40625 8.203125 
Q 42.578125 3.328125 38.25 0.953125 
Q 33.9375 -1.421875 27.875 -1.421875 
Q 17.96875 -1.421875 11.734375 6.484375 
Q 5.515625 14.40625 5.515625 27.296875 
Q 5.515625 40.1875 11.734375 48.09375 
Q 17.96875 56 27.875 56 
Q 33.9375 56 38.25 53.625 
Q 42.578125 51.265625 45.40625 46.390625 
z
M 14.796875 27.296875 
Q 14.796875 17.390625 18.875 11.75 
Q 22.953125 6.109375 30.078125 6.109375 
Q 37.203125 6.109375 41.296875 11.75 
Q 45.40625 17.390625 45.40625 27.296875 
Q 45.40625 37.203125 41.296875 42.84375 
Q 37.203125 48.484375 30.078125 48.484375 
Q 22.953125 48.484375 18.875 42.84375 
Q 14.796875 37.203125 14.796875 27.296875 
z
" id="DejaVuSans-100"/>
     <path d="M 53.515625 70.515625 
L 53.515625 60.890625 
Q 47.90625 63.578125 42.921875 64.890625 
Q 37.9375 66.21875 33.296875 66.21875 
Q 25.25 66.21875 20.875 63.09375 
Q 16.5 59.96875 16.5 54.203125 
Q 16.5 49.359375 19.40625 46.890625 
Q 22.3125 44.4375 30.421875 42.921875 
L 36.375 41.703125 
Q 47.40625 39.59375 52.65625 34.296875 
Q 57.90625 29 57.90625 20.125 
Q 57.90625 9.515625 50.796875 4.046875 
Q 43.703125 -1.421875 29.984375 -1.421875 
Q 24.8125 -1.421875 18.96875 -0.25 
Q 13.140625 0.921875 6.890625 3.21875 
L 6.890625 13.375 
Q 12.890625 10.015625 18.65625 8.296875 
Q 24.421875 6.59375 29.984375 6.59375 
Q 38.421875 6.59375 43.015625 9.90625 
Q 47.609375 13.234375 47.609375 19.390625 
Q 47.609375 24.75 44.3125 27.78125 
Q 41.015625 30.8125 33.5 32.328125 
L 27.484375 33.5 
Q 16.453125 35.6875 11.515625 40.375 
Q 6.59375 45.0625 6.59375 53.421875 
Q 6.59375 63.09375 13.40625 68.65625 
Q 20.21875 74.21875 32.171875 74.21875 
Q 37.3125 74.21875 42.625 73.28125 
Q 47.953125 72.359375 53.515625 70.515625 
z
" id="DejaVuSans-83"/>
     <path d="M 34.1875 63.1875 
L 20.796875 26.90625 
L 47.609375 26.90625 
z
M 28.609375 72.90625 
L 39.796875 72.90625 
L 67.578125 0 
L 57.328125 0 
L 50.6875 18.703125 
L 17.828125 18.703125 
L 11.1875 0 
L 0.78125 0 
z
" id="DejaVuSans-65"/>
     <path d="M 18.109375 8.203125 
L 18.109375 -20.796875 
L 9.078125 -20.796875 
L 9.078125 54.6875 
L 18.109375 54.6875 
L 18.109375 46.390625 
Q 20.953125 51.265625 25.265625 53.625 
Q 29.59375 56 35.59375 56 
Q 45.5625 56 51.78125 48.09375 
Q 58.015625 40.1875 58.015625 27.296875 
Q 58.015625 14.40625 51.78125 6.484375 
Q 45.5625 -1.421875 35.59375 -1.421875 
Q 29.59375 -1.421875 25.265625 0.953125 
Q 20.953125 3.328125 18.109375 8.203125 
z
M 48.6875 27.296875 
Q 48.6875 37.203125 44.609375 42.84375 
Q 40.53125 48.484375 33.40625 48.484375 
Q 26.265625 48.484375 22.1875 42.84375 
Q 18.109375 37.203125 18.109375 27.296875 
Q 18.109375 17.390625 22.1875 11.75 
Q 26.265625 6.109375 33.40625 6.109375 
Q 40.53125 6.109375 44.609375 11.75 
Q 48.6875 17.390625 48.6875 27.296875 
z
" id="DejaVuSans-112"/>
     <path d="M 10.984375 1.515625 
L 10.984375 10.5 
Q 14.703125 8.734375 18.5 7.8125 
Q 22.3125 6.890625 25.984375 6.890625 
Q 35.75 6.890625 40.890625 13.453125 
Q 46.046875 20.015625 46.78125 33.40625 
Q 43.953125 29.203125 39.59375 26.953125 
Q 35.25 24.703125 29.984375 24.703125 
Q 19.046875 24.703125 12.671875 31.3125 
Q 6.296875 37.9375 6.296875 49.421875 
Q 6.296875 60.640625 12.9375 67.421875 
Q 19.578125 74.21875 30.609375 74.21875 
Q 43.265625 74.21875 49.921875 64.515625 
Q 56.59375 54.828125 56.59375 36.375 
Q 56.59375 19.140625 48.40625 8.859375 
Q 40.234375 -1.421875 26.421875 -1.421875 
Q 22.703125 -1.421875 18.890625 -0.6875 
Q 15.09375 0.046875 10.984375 1.515625 
z
M 30.609375 32.421875 
Q 37.25 32.421875 41.125 36.953125 
Q 45.015625 41.5 45.015625 49.421875 
Q 45.015625 57.28125 41.125 61.84375 
Q 37.25 66.40625 30.609375 66.40625 
Q 23.96875 66.40625 20.09375 61.84375 
Q 16.21875 57.28125 16.21875 49.421875 
Q 16.21875 41.5 20.09375 36.953125 
Q 23.96875 32.421875 30.609375 32.421875 
z
" id="DejaVuSans-57"/>
     <path d="M 11.71875 12.40625 
L 22.015625 12.40625 
L 22.015625 0 
L 11.71875 0 
z
M 11.71875 51.703125 
L 22.015625 51.703125 
L 22.015625 39.3125 
L 11.71875 39.3125 
z
" id="DejaVuSans-58"/>
    </defs>
    <g transform="translate(1952.03875 103.6092)scale(0.08 -0.08)">
     <use xlink:href="#DejaVuSans-80"/>
     <use x="60.302734" xlink:href="#DejaVuSans-108"/>
     <use x="88.085938" xlink:href="#DejaVuSans-111"/>
     <use x="149.267578" xlink:href="#DejaVuSans-116"/>
     <use x="188.476562" xlink:href="#DejaVuSans-32"/>
     <use x="220.263672" xlink:href="#DejaVuSans-99"/>
     <use x="275.244141" xlink:href="#DejaVuSans-114"/>
     <use x="316.326172" xlink:href="#DejaVuSans-101"/>
     <use x="377.849609" xlink:href="#DejaVuSans-97"/>
     <use x="439.128906" xlink:href="#DejaVuSans-116"/>
     <use x="478.337891" xlink:href="#DejaVuSans-101"/>
     <use x="539.861328" xlink:href="#DejaVuSans-100"/>
     <use x="603.337891" xlink:href="#DejaVuSans-32"/>
     <use x="635.125" xlink:href="#DejaVuSans-83"/>
     <use x="698.601562" xlink:href="#DejaVuSans-117"/>
     <use x="761.980469" xlink:href="#DejaVuSans-110"/>
     <use x="825.359375" xlink:href="#DejaVuSans-32"/>
     <use x="857.146484" xlink:href="#DejaVuSans-65"/>
     <use x="925.554688" xlink:href="#DejaVuSans-112"/>
     <use x="989.03125" xlink:href="#DejaVuSans-114"/>
     <use x="1030.144531" xlink:href="#DejaVuSans-32"/>
     <use x="1061.931641" xlink:href="#DejaVuSans-32"/>
     <use x="1093.71875" xlink:href="#DejaVuSans-55"/>
     <use x="1157.341797" xlink:href="#DejaVuSans-32"/>
     <use x="1189.128906" xlink:href="#DejaVuSans-49"/>
     <use x="1252.751953" xlink:href="#DejaVuSans-57"/>
     <use x="1316.375" xlink:href="#DejaVuSans-58"/>
     <use x="1350.066406" xlink:href="#DejaVuSans-53"/>
     <use x="1413.689453" xlink:href="#DejaVuSans-54"/>
     <use x="1477.3125" xlink:href="#DejaVuSans-58"/>
     <use x="1511.003906" xlink:href="#DejaVuSans-52"/>
     <use x="1574.626953" xlink:href="#DejaVuSans-55"/>
     <use x="1638.25" xlink:href="#DejaVuSans-32"/>
     <use x="1670.037109" xlink:href="#DejaVuSans-50"/>
     <use x="1733.660156" xlink:href="#DejaVuSans-48"/>
     <use x="1797.283203" xlink:href="#DejaVuSans-49"/>
     <use x="1860.90625" xlink:href="#DejaVuSans-57"/>
    </g>
   </g>
   <g id="legend_1">
    <g id="patch_7">
     <path d="M 1525.28 1096.092 
L 1613.011875 1096.092 
Q 1614.411875 1096.092 1614.411875 1094.692 
L 1614.411875 1039.063875 
Q 1614.411875 1037.663875 1613.011875 1037.663875 
L 1525.28 1037.663875 
Q 1523.88 1037.663875 1523.88 1039.063875 
L 1523.88 1094.692 
Q 1523.88 1096.092 1525.28 1096.092 
z
" style="fill:#ffffff;opacity:0.8;stroke:#cccccc;stroke-linejoin:miter;"/>
    </g>
    <g id="line2d_24">
     <path d="M 1524.02 1040.672781 
L 1538.02 1040.672781 
" style="fill:none;stroke:#1f77b4;stroke-linecap:square;stroke-width:1.5;"/>
    </g>
    <g id="line2d_25"/>
    <g id="text_21">
     <!-- 0: Rod -->
     <defs>
      <path d="M 44.390625 34.1875 
Q 47.5625 33.109375 50.5625 29.59375 
Q 53.5625 26.078125 56.59375 19.921875 
L 66.609375 0 
L 56 0 
L 46.6875 18.703125 
Q 43.0625 26.03125 39.671875 28.421875 
Q 36.28125 30.8125 30.421875 30.8125 
L 19.671875 30.8125 
L 19.671875 0 
L 9.8125 0 
L 9.8125 72.90625 
L 32.078125 72.90625 
Q 44.578125 72.90625 50.734375 67.671875 
Q 56.890625 62.453125 56.890625 51.90625 
Q 56.890625 45.015625 53.6875 40.46875 
Q 50.484375 35.9375 44.390625 34.1875 
z
M 19.671875 64.796875 
L 19.671875 38.921875 
L 32.078125 38.921875 
Q 39.203125 38.921875 42.84375 42.21875 
Q 46.484375 45.515625 46.484375 51.90625 
Q 46.484375 58.296875 42.84375 61.546875 
Q 39.203125 64.796875 32.078125 64.796875 
z
" id="DejaVuSans-82"/>
     </defs>
     <g transform="translate(1543.62 1043.122781)scale(0.07 -0.07)">
      <use xlink:href="#DejaVuSans-48"/>
      <use x="63.623047" xlink:href="#DejaVuSans-58"/>
      <use x="97.314453" xlink:href="#DejaVuSans-32"/>
      <use x="129.101562" xlink:href="#DejaVuSans-82"/>
      <use x="198.521484" xlink:href="#DejaVuSans-111"/>
      <use x="259.703125" xlink:href="#DejaVuSans-100"/>
     </g>
    </g>
    <g id="line2d_26">
     <path d="M 1524.02 1050.947469 
L 1538.02 1050.947469 
" style="fill:none;stroke:#ff7f0e;stroke-linecap:square;stroke-width:1.5;"/>
    </g>
    <g id="line2d_27"/>
    <g id="text_22">
     <!-- 1: Gaussian -->
     <defs>
      <path d="M 59.515625 10.40625 
L 59.515625 29.984375 
L 43.40625 29.984375 
L 43.40625 38.09375 
L 69.28125 38.09375 
L 69.28125 6.78125 
Q 63.578125 2.734375 56.6875 0.65625 
Q 49.8125 -1.421875 42 -1.421875 
Q 24.90625 -1.421875 15.25 8.5625 
Q 5.609375 18.5625 5.609375 36.375 
Q 5.609375 54.25 15.25 64.234375 
Q 24.90625 74.21875 42 74.21875 
Q 49.125 74.21875 55.546875 72.453125 
Q 61.96875 70.703125 67.390625 67.28125 
L 67.390625 56.78125 
Q 61.921875 61.421875 55.765625 63.765625 
Q 49.609375 66.109375 42.828125 66.109375 
Q 29.4375 66.109375 22.71875 58.640625 
Q 16.015625 51.171875 16.015625 36.375 
Q 16.015625 21.625 22.71875 14.15625 
Q 29.4375 6.6875 42.828125 6.6875 
Q 48.046875 6.6875 52.140625 7.59375 
Q 56.25 8.5 59.515625 10.40625 
z
" id="DejaVuSans-71"/>
      <path d="M 9.421875 54.6875 
L 18.40625 54.6875 
L 18.40625 0 
L 9.421875 0 
z
M 9.421875 75.984375 
L 18.40625 75.984375 
L 18.40625 64.59375 
L 9.421875 64.59375 
z
" id="DejaVuSans-105"/>
     </defs>
     <g transform="translate(1543.62 1053.397469)scale(0.07 -0.07)">
      <use xlink:href="#DejaVuSans-49"/>
      <use x="63.623047" xlink:href="#DejaVuSans-58"/>
      <use x="97.314453" xlink:href="#DejaVuSans-32"/>
      <use x="129.101562" xlink:href="#DejaVuSans-71"/>
      <use x="206.591797" xlink:href="#DejaVuSans-97"/>
      <use x="267.871094" xlink:href="#DejaVuSans-117"/>
      <use x="331.25" xlink:href="#DejaVuSans-115"/>
      <use x="383.349609" xlink:href="#DejaVuSans-115"/>
      <use x="435.449219" xlink:href="#DejaVuSans-105"/>
      <use x="463.232422" xlink:href="#DejaVuSans-97"/>
      <use x="524.511719" xlink:href="#DejaVuSans-110"/>
     </g>
    </g>
    <g id="line2d_28">
     <path d="M 1524.02 1061.222156 
L 1538.02 1061.222156 
" style="fill:none;stroke:#2ca02c;stroke-linecap:square;stroke-width:1.5;"/>
    </g>
    <g id="line2d_29"/>
    <g id="text_23">
     <!-- 2: Step Function -->
     <defs>
      <path d="M 9.8125 72.90625 
L 51.703125 72.90625 
L 51.703125 64.59375 
L 19.671875 64.59375 
L 19.671875 43.109375 
L 48.578125 43.109375 
L 48.578125 34.8125 
L 19.671875 34.8125 
L 19.671875 0 
L 9.8125 0 
z
" id="DejaVuSans-70"/>
     </defs>
     <g transform="translate(1543.62 1063.672156)scale(0.07 -0.07)">
      <use xlink:href="#DejaVuSans-50"/>
      <use x="63.623047" xlink:href="#DejaVuSans-58"/>
      <use x="97.314453" xlink:href="#DejaVuSans-32"/>
      <use x="129.101562" xlink:href="#DejaVuSans-83"/>
      <use x="192.578125" xlink:href="#DejaVuSans-116"/>
      <use x="231.787109" xlink:href="#DejaVuSans-101"/>
      <use x="293.310547" xlink:href="#DejaVuSans-112"/>
      <use x="356.787109" xlink:href="#DejaVuSans-32"/>
      <use x="388.574219" xlink:href="#DejaVuSans-70"/>
      <use x="446.015625" xlink:href="#DejaVuSans-117"/>
      <use x="509.394531" xlink:href="#DejaVuSans-110"/>
      <use x="572.773438" xlink:href="#DejaVuSans-99"/>
      <use x="627.753906" xlink:href="#DejaVuSans-116"/>
      <use x="666.962891" xlink:href="#DejaVuSans-105"/>
      <use x="694.746094" xlink:href="#DejaVuSans-111"/>
      <use x="755.927734" xlink:href="#DejaVuSans-110"/>
     </g>
    </g>
    <g id="line2d_30">
     <path d="M 1524.02 1071.496844 
L 1538.02 1071.496844 
" style="fill:none;stroke:#d62728;stroke-linecap:square;stroke-width:1.5;"/>
    </g>
    <g id="line2d_31"/>
    <g id="text_24">
     <!-- 3: Skewed Gaussian -->
     <defs>
      <path d="M 40.578125 39.3125 
Q 47.65625 37.796875 51.625 33 
Q 55.609375 28.21875 55.609375 21.1875 
Q 55.609375 10.40625 48.1875 4.484375 
Q 40.765625 -1.421875 27.09375 -1.421875 
Q 22.515625 -1.421875 17.65625 -0.515625 
Q 12.796875 0.390625 7.625 2.203125 
L 7.625 11.71875 
Q 11.71875 9.328125 16.59375 8.109375 
Q 21.484375 6.890625 26.8125 6.890625 
Q 36.078125 6.890625 40.9375 10.546875 
Q 45.796875 14.203125 45.796875 21.1875 
Q 45.796875 27.640625 41.28125 31.265625 
Q 36.765625 34.90625 28.71875 34.90625 
L 20.21875 34.90625 
L 20.21875 43.015625 
L 29.109375 43.015625 
Q 36.375 43.015625 40.234375 45.921875 
Q 44.09375 48.828125 44.09375 54.296875 
Q 44.09375 59.90625 40.109375 62.90625 
Q 36.140625 65.921875 28.71875 65.921875 
Q 24.65625 65.921875 20.015625 65.03125 
Q 15.375 64.15625 9.8125 62.3125 
L 9.8125 71.09375 
Q 15.4375 72.65625 20.34375 73.4375 
Q 25.25 74.21875 29.59375 74.21875 
Q 40.828125 74.21875 47.359375 69.109375 
Q 53.90625 64.015625 53.90625 55.328125 
Q 53.90625 49.265625 50.4375 45.09375 
Q 46.96875 40.921875 40.578125 39.3125 
z
" id="DejaVuSans-51"/>
      <path d="M 9.078125 75.984375 
L 18.109375 75.984375 
L 18.109375 31.109375 
L 44.921875 54.6875 
L 56.390625 54.6875 
L 27.390625 29.109375 
L 57.625 0 
L 45.90625 0 
L 18.109375 26.703125 
L 18.109375 0 
L 9.078125 0 
z
" id="DejaVuSans-107"/>
      <path d="M 4.203125 54.6875 
L 13.1875 54.6875 
L 24.421875 12.015625 
L 35.59375 54.6875 
L 46.1875 54.6875 
L 57.421875 12.015625 
L 68.609375 54.6875 
L 77.59375 54.6875 
L 63.28125 0 
L 52.6875 0 
L 40.921875 44.828125 
L 29.109375 0 
L 18.5 0 
z
" id="DejaVuSans-119"/>
     </defs>
     <g transform="translate(1543.62 1073.946844)scale(0.07 -0.07)">
      <use xlink:href="#DejaVuSans-51"/>
      <use x="63.623047" xlink:href="#DejaVuSans-58"/>
      <use x="97.314453" xlink:href="#DejaVuSans-32"/>
      <use x="129.101562" xlink:href="#DejaVuSans-83"/>
      <use x="192.578125" xlink:href="#DejaVuSans-107"/>
      <use x="250.441406" xlink:href="#DejaVuSans-101"/>
      <use x="311.964844" xlink:href="#DejaVuSans-119"/>
      <use x="393.751953" xlink:href="#DejaVuSans-101"/>
      <use x="455.275391" xlink:href="#DejaVuSans-100"/>
      <use x="518.751953" xlink:href="#DejaVuSans-32"/>
      <use x="550.539062" xlink:href="#DejaVuSans-71"/>
      <use x="628.029297" xlink:href="#DejaVuSans-97"/>
      <use x="689.308594" xlink:href="#DejaVuSans-117"/>
      <use x="752.6875" xlink:href="#DejaVuSans-115"/>
      <use x="804.787109" xlink:href="#DejaVuSans-115"/>
      <use x="856.886719" xlink:href="#DejaVuSans-105"/>
      <use x="884.669922" xlink:href="#DejaVuSans-97"/>
      <use x="945.949219" xlink:href="#DejaVuSans-110"/>
     </g>
    </g>
    <g id="line2d_32">
     <path d="M 1524.02 1081.771531 
L 1538.02 1081.771531 
" style="fill:none;stroke:#9467bd;stroke-linecap:square;stroke-width:1.5;"/>
    </g>
    <g id="line2d_33"/>
    <g id="text_25">
     <!-- 4: Background -->
     <defs>
      <path d="M 19.671875 34.8125 
L 19.671875 8.109375 
L 35.5 8.109375 
Q 43.453125 8.109375 47.28125 11.40625 
Q 51.125 14.703125 51.125 21.484375 
Q 51.125 28.328125 47.28125 31.5625 
Q 43.453125 34.8125 35.5 34.8125 
z
M 19.671875 64.796875 
L 19.671875 42.828125 
L 34.28125 42.828125 
Q 41.5 42.828125 45.03125 45.53125 
Q 48.578125 48.25 48.578125 53.8125 
Q 48.578125 59.328125 45.03125 62.0625 
Q 41.5 64.796875 34.28125 64.796875 
z
M 9.8125 72.90625 
L 35.015625 72.90625 
Q 46.296875 72.90625 52.390625 68.21875 
Q 58.5 63.53125 58.5 54.890625 
Q 58.5 48.1875 55.375 44.234375 
Q 52.25 40.28125 46.1875 39.3125 
Q 53.46875 37.75 57.5 32.78125 
Q 61.53125 27.828125 61.53125 20.40625 
Q 61.53125 10.640625 54.890625 5.3125 
Q 48.25 0 35.984375 0 
L 9.8125 0 
z
" id="DejaVuSans-66"/>
     </defs>
     <g transform="translate(1543.62 1084.221531)scale(0.07 -0.07)">
      <use xlink:href="#DejaVuSans-52"/>
      <use x="63.623047" xlink:href="#DejaVuSans-58"/>
      <use x="97.314453" xlink:href="#DejaVuSans-32"/>
      <use x="129.101562" xlink:href="#DejaVuSans-66"/>
      <use x="197.705078" xlink:href="#DejaVuSans-97"/>
      <use x="258.984375" xlink:href="#DejaVuSans-99"/>
      <use x="313.964844" xlink:href="#DejaVuSans-107"/>
      <use x="371.875" xlink:href="#DejaVuSans-103"/>
      <use x="435.351562" xlink:href="#DejaVuSans-114"/>
      <use x="476.433594" xlink:href="#DejaVuSans-111"/>
      <use x="537.615234" xlink:href="#DejaVuSans-117"/>
      <use x="600.994141" xlink:href="#DejaVuSans-110"/>
      <use x="664.373047" xlink:href="#DejaVuSans-100"/>
     </g>
    </g>
    <g id="line2d_34">
     <path d="M 1524.02 1092.046219 
L 1538.02 1092.046219 
" style="fill:none;stroke:#8c564b;stroke-linecap:square;stroke-width:1.5;"/>
    </g>
    <g id="line2d_35"/>
    <g id="text_26">
     <!-- 5: Fit -->
     <g transform="translate(1543.62 1094.496219)scale(0.07 -0.07)">
      <use xlink:href="#DejaVuSans-53"/>
      <use x="63.623047" xlink:href="#DejaVuSans-58"/>
      <use x="97.314453" xlink:href="#DejaVuSans-32"/>
      <use x="129.101562" xlink:href="#DejaVuSans-70"/>
      <use x="186.511719" xlink:href="#DejaVuSans-105"/>
      <use x="214.294922" xlink:href="#DejaVuSans-116"/>
     </g>
    </g>
   </g>
  </g>
 </g>
 <defs>
  <clipPath id="p2fd1e4b791">
   <rect height="967.14" width="1188" x="324" y="128.952"/>
  </clipPath>
 </defs>
</svg>
