<?xml version="1.0" encoding="utf-8" standalone="no"?>
<!DOCTYPE svg PUBLIC "-//W3C//DTD SVG 1.1//EN"
  "http://www.w3.org/Graphics/SVG/1.1/DTD/svg11.dtd">
<!-- Created with matplotlib (https://matplotlib.org/) -->
<svg height="345.6pt" version="1.1" viewBox="0 0 460.8 345.6" width="460.8pt" xmlns="http://www.w3.org/2000/svg" xmlns:xlink="http://www.w3.org/1999/xlink">
 <defs>
  <style type="text/css">
*{stroke-linecap:butt;stroke-linejoin:round;}
  </style>
 </defs>
 <g id="figure_1">
  <g id="patch_1">
   <path d="M 0 345.6 
L 460.8 345.6 
L 460.8 0 
L 0 0 
z
" style="fill:#ffffff;"/>
  </g>
  <g id="axes_1">
   <g id="patch_2">
    <path d="M 69.12 96.768 
L 414.72 96.768 
L 414.72 44.928 
L 69.12 44.928 
z
" style="fill:#ffffff;"/>
   </g>
   <g id="matplotlib.axis_1">
    <g id="xtick_1">
     <g id="line2d_1">
      <defs>
       <path d="M 0 0 
L 0 3.5 
" id="m7c33c79174" style="stroke:#000000;stroke-width:0.8;"/>
      </defs>
      <g>
       <use style="stroke:#000000;stroke-width:0.8;" x="75.766154" xlink:href="#m7c33c79174" y="96.768"/>
      </g>
     </g>
    </g>
    <g id="xtick_2">
     <g id="line2d_2">
      <g>
       <use style="stroke:#000000;stroke-width:0.8;" x="117.830419" xlink:href="#m7c33c79174" y="96.768"/>
      </g>
     </g>
    </g>
    <g id="xtick_3">
     <g id="line2d_3">
      <g>
       <use style="stroke:#000000;stroke-width:0.8;" x="159.894684" xlink:href="#m7c33c79174" y="96.768"/>
      </g>
     </g>
    </g>
    <g id="xtick_4">
     <g id="line2d_4">
      <g>
       <use style="stroke:#000000;stroke-width:0.8;" x="201.958948" xlink:href="#m7c33c79174" y="96.768"/>
      </g>
     </g>
    </g>
    <g id="xtick_5">
     <g id="line2d_5">
      <g>
       <use style="stroke:#000000;stroke-width:0.8;" x="244.023213" xlink:href="#m7c33c79174" y="96.768"/>
      </g>
     </g>
    </g>
    <g id="xtick_6">
     <g id="line2d_6">
      <g>
       <use style="stroke:#000000;stroke-width:0.8;" x="286.087478" xlink:href="#m7c33c79174" y="96.768"/>
      </g>
     </g>
    </g>
    <g id="xtick_7">
     <g id="line2d_7">
      <g>
       <use style="stroke:#000000;stroke-width:0.8;" x="328.151743" xlink:href="#m7c33c79174" y="96.768"/>
      </g>
     </g>
    </g>
    <g id="xtick_8">
     <g id="line2d_8">
      <g>
       <use style="stroke:#000000;stroke-width:0.8;" x="370.216008" xlink:href="#m7c33c79174" y="96.768"/>
      </g>
     </g>
    </g>
    <g id="xtick_9">
     <g id="line2d_9">
      <g>
       <use style="stroke:#000000;stroke-width:0.8;" x="412.280273" xlink:href="#m7c33c79174" y="96.768"/>
      </g>
     </g>
    </g>
   </g>
   <g id="matplotlib.axis_2">
    <g id="ytick_1">
     <g id="line2d_10">
      <defs>
       <path d="M 0 0 
L -3.5 0 
" id="m60d7bcf261" style="stroke:#000000;stroke-width:0.8;"/>
      </defs>
      <g>
       <use style="stroke:#000000;stroke-width:0.8;" x="69.12" xlink:href="#m60d7bcf261" y="88.228963"/>
      </g>
     </g>
     <g id="text_1">
      <!-- −2.5 -->
      <defs>
       <path d="M 10.59375 35.5 
L 73.1875 35.5 
L 73.1875 27.203125 
L 10.59375 27.203125 
z
" id="DejaVuSans-8722"/>
       <path d="M 19.1875 8.296875 
L 53.609375 8.296875 
L 53.609375 0 
L 7.328125 0 
L 7.328125 8.296875 
Q 12.9375 14.109375 22.625 23.890625 
Q 32.328125 33.6875 34.8125 36.53125 
Q 39.546875 41.84375 41.421875 45.53125 
Q 43.3125 49.21875 43.3125 52.78125 
Q 43.3125 58.59375 39.234375 62.25 
Q 35.15625 65.921875 28.609375 65.921875 
Q 23.96875 65.921875 18.8125 64.3125 
Q 13.671875 62.703125 7.8125 59.421875 
L 7.8125 69.390625 
Q 13.765625 71.78125 18.9375 73 
Q 24.125 74.21875 28.421875 74.21875 
Q 39.75 74.21875 46.484375 68.546875 
Q 53.21875 62.890625 53.21875 53.421875 
Q 53.21875 48.921875 51.53125 44.890625 
Q 49.859375 40.875 45.40625 35.40625 
Q 44.1875 33.984375 37.640625 27.21875 
Q 31.109375 20.453125 19.1875 8.296875 
z
" id="DejaVuSans-50"/>
       <path d="M 10.6875 12.40625 
L 21 12.40625 
L 21 0 
L 10.6875 0 
z
" id="DejaVuSans-46"/>
       <path d="M 10.796875 72.90625 
L 49.515625 72.90625 
L 49.515625 64.59375 
L 19.828125 64.59375 
L 19.828125 46.734375 
Q 21.96875 47.46875 24.109375 47.828125 
Q 26.265625 48.1875 28.421875 48.1875 
Q 40.625 48.1875 47.75 41.5 
Q 54.890625 34.8125 54.890625 23.390625 
Q 54.890625 11.625 47.5625 5.09375 
Q 40.234375 -1.421875 26.90625 -1.421875 
Q 22.3125 -1.421875 17.546875 -0.640625 
Q 12.796875 0.140625 7.71875 1.703125 
L 7.71875 11.625 
Q 12.109375 9.234375 16.796875 8.0625 
Q 21.484375 6.890625 26.703125 6.890625 
Q 35.15625 6.890625 40.078125 11.328125 
Q 45.015625 15.765625 45.015625 23.390625 
Q 45.015625 31 40.078125 35.4375 
Q 35.15625 39.890625 26.703125 39.890625 
Q 22.75 39.890625 18.8125 39.015625 
Q 14.890625 38.140625 10.796875 36.28125 
z
" id="DejaVuSans-53"/>
      </defs>
      <g transform="translate(37.837187 92.028182)scale(0.1 -0.1)">
       <use xlink:href="#DejaVuSans-8722"/>
       <use x="83.789062" xlink:href="#DejaVuSans-50"/>
       <use x="147.412109" xlink:href="#DejaVuSans-46"/>
       <use x="179.199219" xlink:href="#DejaVuSans-53"/>
      </g>
     </g>
    </g>
    <g id="ytick_2">
     <g id="line2d_11">
      <g>
       <use style="stroke:#000000;stroke-width:0.8;" x="69.12" xlink:href="#m60d7bcf261" y="71.523536"/>
      </g>
     </g>
    </g>
    <g id="ytick_3">
     <g id="line2d_12">
      <g>
       <use style="stroke:#000000;stroke-width:0.8;" x="69.12" xlink:href="#m60d7bcf261" y="54.818109"/>
      </g>
     </g>
     <g id="text_2">
      <!-- 2.5 -->
      <g transform="translate(46.216875 58.617328)scale(0.1 -0.1)">
       <use xlink:href="#DejaVuSans-50"/>
       <use x="63.623047" xlink:href="#DejaVuSans-46"/>
       <use x="95.410156" xlink:href="#DejaVuSans-53"/>
      </g>
     </g>
    </g>
    <g id="text_3">
     <!-- Studentized -->
     <defs>
      <path d="M 53.515625 70.515625 
L 53.515625 60.890625 
Q 47.90625 63.578125 42.921875 64.890625 
Q 37.9375 66.21875 33.296875 66.21875 
Q 25.25 66.21875 20.875 63.09375 
Q 16.5 59.96875 16.5 54.203125 
Q 16.5 49.359375 19.40625 46.890625 
Q 22.3125 44.4375 30.421875 42.921875 
L 36.375 41.703125 
Q 47.40625 39.59375 52.65625 34.296875 
Q 57.90625 29 57.90625 20.125 
Q 57.90625 9.515625 50.796875 4.046875 
Q 43.703125 -1.421875 29.984375 -1.421875 
Q 24.8125 -1.421875 18.96875 -0.25 
Q 13.140625 0.921875 6.890625 3.21875 
L 6.890625 13.375 
Q 12.890625 10.015625 18.65625 8.296875 
Q 24.421875 6.59375 29.984375 6.59375 
Q 38.421875 6.59375 43.015625 9.90625 
Q 47.609375 13.234375 47.609375 19.390625 
Q 47.609375 24.75 44.3125 27.78125 
Q 41.015625 30.8125 33.5 32.328125 
L 27.484375 33.5 
Q 16.453125 35.6875 11.515625 40.375 
Q 6.59375 45.0625 6.59375 53.421875 
Q 6.59375 63.09375 13.40625 68.65625 
Q 20.21875 74.21875 32.171875 74.21875 
Q 37.3125 74.21875 42.625 73.28125 
Q 47.953125 72.359375 53.515625 70.515625 
z
" id="DejaVuSans-83"/>
      <path d="M 18.3125 70.21875 
L 18.3125 54.6875 
L 36.8125 54.6875 
L 36.8125 47.703125 
L 18.3125 47.703125 
L 18.3125 18.015625 
Q 18.3125 11.328125 20.140625 9.421875 
Q 21.96875 7.515625 27.59375 7.515625 
L 36.8125 7.515625 
L 36.8125 0 
L 27.59375 0 
Q 17.1875 0 13.234375 3.875 
Q 9.28125 7.765625 9.28125 18.015625 
L 9.28125 47.703125 
L 2.6875 47.703125 
L 2.6875 54.6875 
L 9.28125 54.6875 
L 9.28125 70.21875 
z
" id="DejaVuSans-116"/>
      <path d="M 8.5 21.578125 
L 8.5 54.6875 
L 17.484375 54.6875 
L 17.484375 21.921875 
Q 17.484375 14.15625 20.5 10.265625 
Q 23.53125 6.390625 29.59375 6.390625 
Q 36.859375 6.390625 41.078125 11.03125 
Q 45.3125 15.671875 45.3125 23.6875 
L 45.3125 54.6875 
L 54.296875 54.6875 
L 54.296875 0 
L 45.3125 0 
L 45.3125 8.40625 
Q 42.046875 3.421875 37.71875 1 
Q 33.40625 -1.421875 27.6875 -1.421875 
Q 18.265625 -1.421875 13.375 4.4375 
Q 8.5 10.296875 8.5 21.578125 
z
M 31.109375 56 
z
" id="DejaVuSans-117"/>
      <path d="M 45.40625 46.390625 
L 45.40625 75.984375 
L 54.390625 75.984375 
L 54.390625 0 
L 45.40625 0 
L 45.40625 8.203125 
Q 42.578125 3.328125 38.25 0.953125 
Q 33.9375 -1.421875 27.875 -1.421875 
Q 17.96875 -1.421875 11.734375 6.484375 
Q 5.515625 14.40625 5.515625 27.296875 
Q 5.515625 40.1875 11.734375 48.09375 
Q 17.96875 56 27.875 56 
Q 33.9375 56 38.25 53.625 
Q 42.578125 51.265625 45.40625 46.390625 
z
M 14.796875 27.296875 
Q 14.796875 17.390625 18.875 11.75 
Q 22.953125 6.109375 30.078125 6.109375 
Q 37.203125 6.109375 41.296875 11.75 
Q 45.40625 17.390625 45.40625 27.296875 
Q 45.40625 37.203125 41.296875 42.84375 
Q 37.203125 48.484375 30.078125 48.484375 
Q 22.953125 48.484375 18.875 42.84375 
Q 14.796875 37.203125 14.796875 27.296875 
z
" id="DejaVuSans-100"/>
      <path d="M 56.203125 29.59375 
L 56.203125 25.203125 
L 14.890625 25.203125 
Q 15.484375 15.921875 20.484375 11.0625 
Q 25.484375 6.203125 34.421875 6.203125 
Q 39.59375 6.203125 44.453125 7.46875 
Q 49.3125 8.734375 54.109375 11.28125 
L 54.109375 2.78125 
Q 49.265625 0.734375 44.1875 -0.34375 
Q 39.109375 -1.421875 33.890625 -1.421875 
Q 20.796875 -1.421875 13.15625 6.1875 
Q 5.515625 13.8125 5.515625 26.8125 
Q 5.515625 40.234375 12.765625 48.109375 
Q 20.015625 56 32.328125 56 
Q 43.359375 56 49.78125 48.890625 
Q 56.203125 41.796875 56.203125 29.59375 
z
M 47.21875 32.234375 
Q 47.125 39.59375 43.09375 43.984375 
Q 39.0625 48.390625 32.421875 48.390625 
Q 24.90625 48.390625 20.390625 44.140625 
Q 15.875 39.890625 15.1875 32.171875 
z
" id="DejaVuSans-101"/>
      <path d="M 54.890625 33.015625 
L 54.890625 0 
L 45.90625 0 
L 45.90625 32.71875 
Q 45.90625 40.484375 42.875 44.328125 
Q 39.84375 48.1875 33.796875 48.1875 
Q 26.515625 48.1875 22.3125 43.546875 
Q 18.109375 38.921875 18.109375 30.90625 
L 18.109375 0 
L 9.078125 0 
L 9.078125 54.6875 
L 18.109375 54.6875 
L 18.109375 46.1875 
Q 21.34375 51.125 25.703125 53.5625 
Q 30.078125 56 35.796875 56 
Q 45.21875 56 50.046875 50.171875 
Q 54.890625 44.34375 54.890625 33.015625 
z
" id="DejaVuSans-110"/>
      <path d="M 9.421875 54.6875 
L 18.40625 54.6875 
L 18.40625 0 
L 9.421875 0 
z
M 9.421875 75.984375 
L 18.40625 75.984375 
L 18.40625 64.59375 
L 9.421875 64.59375 
z
" id="DejaVuSans-105"/>
      <path d="M 5.515625 54.6875 
L 48.1875 54.6875 
L 48.1875 46.484375 
L 14.40625 7.171875 
L 48.1875 7.171875 
L 48.1875 0 
L 4.296875 0 
L 4.296875 8.203125 
L 38.09375 47.515625 
L 5.515625 47.515625 
z
" id="DejaVuSans-122"/>
     </defs>
     <g transform="translate(20.559687 100.794875)rotate(-90)scale(0.1 -0.1)">
      <use xlink:href="#DejaVuSans-83"/>
      <use x="63.476562" xlink:href="#DejaVuSans-116"/>
      <use x="102.685547" xlink:href="#DejaVuSans-117"/>
      <use x="166.064453" xlink:href="#DejaVuSans-100"/>
      <use x="229.541016" xlink:href="#DejaVuSans-101"/>
      <use x="291.064453" xlink:href="#DejaVuSans-110"/>
      <use x="354.443359" xlink:href="#DejaVuSans-116"/>
      <use x="393.652344" xlink:href="#DejaVuSans-105"/>
      <use x="421.435547" xlink:href="#DejaVuSans-122"/>
      <use x="473.925781" xlink:href="#DejaVuSans-101"/>
      <use x="535.449219" xlink:href="#DejaVuSans-100"/>
     </g>
     <!-- Residuals -->
     <defs>
      <path d="M 44.390625 34.1875 
Q 47.5625 33.109375 50.5625 29.59375 
Q 53.5625 26.078125 56.59375 19.921875 
L 66.609375 0 
L 56 0 
L 46.6875 18.703125 
Q 43.0625 26.03125 39.671875 28.421875 
Q 36.28125 30.8125 30.421875 30.8125 
L 19.671875 30.8125 
L 19.671875 0 
L 9.8125 0 
L 9.8125 72.90625 
L 32.078125 72.90625 
Q 44.578125 72.90625 50.734375 67.671875 
Q 56.890625 62.453125 56.890625 51.90625 
Q 56.890625 45.015625 53.6875 40.46875 
Q 50.484375 35.9375 44.390625 34.1875 
z
M 19.671875 64.796875 
L 19.671875 38.921875 
L 32.078125 38.921875 
Q 39.203125 38.921875 42.84375 42.21875 
Q 46.484375 45.515625 46.484375 51.90625 
Q 46.484375 58.296875 42.84375 61.546875 
Q 39.203125 64.796875 32.078125 64.796875 
z
" id="DejaVuSans-82"/>
      <path d="M 44.28125 53.078125 
L 44.28125 44.578125 
Q 40.484375 46.53125 36.375 47.5 
Q 32.28125 48.484375 27.875 48.484375 
Q 21.1875 48.484375 17.84375 46.4375 
Q 14.5 44.390625 14.5 40.28125 
Q 14.5 37.15625 16.890625 35.375 
Q 19.28125 33.59375 26.515625 31.984375 
L 29.59375 31.296875 
Q 39.15625 29.25 43.1875 25.515625 
Q 47.21875 21.78125 47.21875 15.09375 
Q 47.21875 7.46875 41.1875 3.015625 
Q 35.15625 -1.421875 24.609375 -1.421875 
Q 20.21875 -1.421875 15.453125 -0.5625 
Q 10.6875 0.296875 5.421875 2 
L 5.421875 11.28125 
Q 10.40625 8.6875 15.234375 7.390625 
Q 20.0625 6.109375 24.8125 6.109375 
Q 31.15625 6.109375 34.5625 8.28125 
Q 37.984375 10.453125 37.984375 14.40625 
Q 37.984375 18.0625 35.515625 20.015625 
Q 33.0625 21.96875 24.703125 23.78125 
L 21.578125 24.515625 
Q 13.234375 26.265625 9.515625 29.90625 
Q 5.8125 33.546875 5.8125 39.890625 
Q 5.8125 47.609375 11.28125 51.796875 
Q 16.75 56 26.8125 56 
Q 31.78125 56 36.171875 55.265625 
Q 40.578125 54.546875 44.28125 53.078125 
z
" id="DejaVuSans-115"/>
      <path d="M 34.28125 27.484375 
Q 23.390625 27.484375 19.1875 25 
Q 14.984375 22.515625 14.984375 16.5 
Q 14.984375 11.71875 18.140625 8.90625 
Q 21.296875 6.109375 26.703125 6.109375 
Q 34.1875 6.109375 38.703125 11.40625 
Q 43.21875 16.703125 43.21875 25.484375 
L 43.21875 27.484375 
z
M 52.203125 31.203125 
L 52.203125 0 
L 43.21875 0 
L 43.21875 8.296875 
Q 40.140625 3.328125 35.546875 0.953125 
Q 30.953125 -1.421875 24.3125 -1.421875 
Q 15.921875 -1.421875 10.953125 3.296875 
Q 6 8.015625 6 15.921875 
Q 6 25.140625 12.171875 29.828125 
Q 18.359375 34.515625 30.609375 34.515625 
L 43.21875 34.515625 
L 43.21875 35.40625 
Q 43.21875 41.609375 39.140625 45 
Q 35.0625 48.390625 27.6875 48.390625 
Q 23 48.390625 18.546875 47.265625 
Q 14.109375 46.140625 10.015625 43.890625 
L 10.015625 52.203125 
Q 14.9375 54.109375 19.578125 55.046875 
Q 24.21875 56 28.609375 56 
Q 40.484375 56 46.34375 49.84375 
Q 52.203125 43.703125 52.203125 31.203125 
z
" id="DejaVuSans-97"/>
      <path d="M 9.421875 75.984375 
L 18.40625 75.984375 
L 18.40625 0 
L 9.421875 0 
z
" id="DejaVuSans-108"/>
     </defs>
     <g transform="translate(31.7575 94.790188)rotate(-90)scale(0.1 -0.1)">
      <use xlink:href="#DejaVuSans-82"/>
      <use x="69.419922" xlink:href="#DejaVuSans-101"/>
      <use x="130.943359" xlink:href="#DejaVuSans-115"/>
      <use x="183.042969" xlink:href="#DejaVuSans-105"/>
      <use x="210.826172" xlink:href="#DejaVuSans-100"/>
      <use x="274.302734" xlink:href="#DejaVuSans-117"/>
      <use x="337.681641" xlink:href="#DejaVuSans-97"/>
      <use x="398.960938" xlink:href="#DejaVuSans-108"/>
      <use x="426.744141" xlink:href="#DejaVuSans-115"/>
     </g>
    </g>
   </g>
   <g id="LineCollection_1">
    <path clip-path="url(#p337c6d7374)" d="M 75.766154 75.885361 
L 75.766154 62.521019 
" style="fill:none;stroke:#0000ff;stroke-width:1.5;"/>
    <path clip-path="url(#p337c6d7374)" d="M 79.97258 67.020359 
L 79.97258 53.656018 
" style="fill:none;stroke:#0000ff;stroke-width:1.5;"/>
    <path clip-path="url(#p337c6d7374)" d="M 84.179007 86.316345 
L 84.179007 72.952003 
" style="fill:none;stroke:#0000ff;stroke-width:1.5;"/>
    <path clip-path="url(#p337c6d7374)" d="M 88.385433 71.310304 
L 88.385433 57.945962 
" style="fill:none;stroke:#0000ff;stroke-width:1.5;"/>
    <path clip-path="url(#p337c6d7374)" d="M 92.59186 83.335355 
L 92.59186 69.971013 
" style="fill:none;stroke:#0000ff;stroke-width:1.5;"/>
    <path clip-path="url(#p337c6d7374)" d="M 96.798286 73.252613 
L 96.798286 59.888271 
" style="fill:none;stroke:#0000ff;stroke-width:1.5;"/>
    <path clip-path="url(#p337c6d7374)" d="M 101.004713 87.791402 
L 101.004713 74.42706 
" style="fill:none;stroke:#0000ff;stroke-width:1.5;"/>
    <path clip-path="url(#p337c6d7374)" d="M 105.211139 71.630036 
L 105.211139 58.265694 
" style="fill:none;stroke:#0000ff;stroke-width:1.5;"/>
    <path clip-path="url(#p337c6d7374)" d="M 109.417566 79.318105 
L 109.417566 65.953763 
" style="fill:none;stroke:#0000ff;stroke-width:1.5;"/>
    <path clip-path="url(#p337c6d7374)" d="M 113.623992 80.192164 
L 113.623992 66.827823 
" style="fill:none;stroke:#0000ff;stroke-width:1.5;"/>
    <path clip-path="url(#p337c6d7374)" d="M 117.830419 84.520527 
L 117.830419 71.156186 
" style="fill:none;stroke:#0000ff;stroke-width:1.5;"/>
    <path clip-path="url(#p337c6d7374)" d="M 122.036845 78.371585 
L 122.036845 65.007244 
" style="fill:none;stroke:#0000ff;stroke-width:1.5;"/>
    <path clip-path="url(#p337c6d7374)" d="M 126.243272 60.648705 
L 126.243272 47.284364 
" style="fill:none;stroke:#0000ff;stroke-width:1.5;"/>
    <path clip-path="url(#p337c6d7374)" d="M 130.449698 67.537049 
L 130.449698 54.172708 
" style="fill:none;stroke:#0000ff;stroke-width:1.5;"/>
    <path clip-path="url(#p337c6d7374)" d="M 134.656125 87.037356 
L 134.656125 73.673014 
" style="fill:none;stroke:#0000ff;stroke-width:1.5;"/>
    <path clip-path="url(#p337c6d7374)" d="M 138.862551 84.106882 
L 138.862551 70.74254 
" style="fill:none;stroke:#0000ff;stroke-width:1.5;"/>
    <path clip-path="url(#p337c6d7374)" d="M 143.068978 85.72705 
L 143.068978 72.362709 
" style="fill:none;stroke:#0000ff;stroke-width:1.5;"/>
    <path clip-path="url(#p337c6d7374)" d="M 147.275404 71.107735 
L 147.275404 57.743393 
" style="fill:none;stroke:#0000ff;stroke-width:1.5;"/>
    <path clip-path="url(#p337c6d7374)" d="M 151.481831 71.705948 
L 151.481831 58.341606 
" style="fill:none;stroke:#0000ff;stroke-width:1.5;"/>
    <path clip-path="url(#p337c6d7374)" d="M 155.688257 76.045168 
L 155.688257 62.680827 
" style="fill:none;stroke:#0000ff;stroke-width:1.5;"/>
    <path clip-path="url(#p337c6d7374)" d="M 159.894684 80.796944 
L 159.894684 67.432603 
" style="fill:none;stroke:#0000ff;stroke-width:1.5;"/>
    <path clip-path="url(#p337c6d7374)" d="M 164.10111 85.96746 
L 164.10111 72.603118 
" style="fill:none;stroke:#0000ff;stroke-width:1.5;"/>
    <path clip-path="url(#p337c6d7374)" d="M 168.307537 83.943949 
L 168.307537 70.579608 
" style="fill:none;stroke:#0000ff;stroke-width:1.5;"/>
    <path clip-path="url(#p337c6d7374)" d="M 172.513963 69.330394 
L 172.513963 55.966052 
" style="fill:none;stroke:#0000ff;stroke-width:1.5;"/>
    <path clip-path="url(#p337c6d7374)" d="M 176.720389 84.805634 
L 176.720389 71.441292 
" style="fill:none;stroke:#0000ff;stroke-width:1.5;"/>
    <path clip-path="url(#p337c6d7374)" d="M 180.926816 70.32762 
L 180.926816 56.963278 
" style="fill:none;stroke:#0000ff;stroke-width:1.5;"/>
    <path clip-path="url(#p337c6d7374)" d="M 185.133242 66.436701 
L 185.133242 53.072359 
" style="fill:none;stroke:#0000ff;stroke-width:1.5;"/>
    <path clip-path="url(#p337c6d7374)" d="M 189.339669 75.046003 
L 189.339669 61.681661 
" style="fill:none;stroke:#0000ff;stroke-width:1.5;"/>
    <path clip-path="url(#p337c6d7374)" d="M 193.546095 88.462211 
L 193.546095 75.09787 
" style="fill:none;stroke:#0000ff;stroke-width:1.5;"/>
    <path clip-path="url(#p337c6d7374)" d="M 197.752522 77.516495 
L 197.752522 64.152154 
" style="fill:none;stroke:#0000ff;stroke-width:1.5;"/>
    <path clip-path="url(#p337c6d7374)" d="M 201.958948 78.4369 
L 201.958948 65.072558 
" style="fill:none;stroke:#0000ff;stroke-width:1.5;"/>
    <path clip-path="url(#p337c6d7374)" d="M 206.165375 75.385372 
L 206.165375 62.02103 
" style="fill:none;stroke:#0000ff;stroke-width:1.5;"/>
    <path clip-path="url(#p337c6d7374)" d="M 210.371801 67.08952 
L 210.371801 53.725178 
" style="fill:none;stroke:#0000ff;stroke-width:1.5;"/>
    <path clip-path="url(#p337c6d7374)" d="M 214.578228 71.216 
L 214.578228 57.851658 
" style="fill:none;stroke:#0000ff;stroke-width:1.5;"/>
    <path clip-path="url(#p337c6d7374)" d="M 218.784654 87.548215 
L 218.784654 74.183873 
" style="fill:none;stroke:#0000ff;stroke-width:1.5;"/>
    <path clip-path="url(#p337c6d7374)" d="M 222.991081 79.845856 
L 222.991081 66.481514 
" style="fill:none;stroke:#0000ff;stroke-width:1.5;"/>
    <path clip-path="url(#p337c6d7374)" d="M 227.197507 77.089217 
L 227.197507 63.724875 
" style="fill:none;stroke:#0000ff;stroke-width:1.5;"/>
    <path clip-path="url(#p337c6d7374)" d="M 231.403934 76.058677 
L 231.403934 62.694336 
" style="fill:none;stroke:#0000ff;stroke-width:1.5;"/>
    <path clip-path="url(#p337c6d7374)" d="M 235.61036 94.411636 
L 235.61036 81.047295 
" style="fill:none;stroke:#0000ff;stroke-width:1.5;"/>
    <path clip-path="url(#p337c6d7374)" d="M 239.816787 67.616951 
L 239.816787 54.252609 
" style="fill:none;stroke:#0000ff;stroke-width:1.5;"/>
    <path clip-path="url(#p337c6d7374)" d="M 244.023213 78.078612 
L 244.023213 64.71427 
" style="fill:none;stroke:#0000ff;stroke-width:1.5;"/>
    <path clip-path="url(#p337c6d7374)" d="M 248.22964 75.288042 
L 248.22964 61.9237 
" style="fill:none;stroke:#0000ff;stroke-width:1.5;"/>
    <path clip-path="url(#p337c6d7374)" d="M 252.436066 87.473521 
L 252.436066 74.109179 
" style="fill:none;stroke:#0000ff;stroke-width:1.5;"/>
    <path clip-path="url(#p337c6d7374)" d="M 256.642493 81.794529 
L 256.642493 68.430187 
" style="fill:none;stroke:#0000ff;stroke-width:1.5;"/>
    <path clip-path="url(#p337c6d7374)" d="M 260.848919 77.303727 
L 260.848919 63.939385 
" style="fill:none;stroke:#0000ff;stroke-width:1.5;"/>
    <path clip-path="url(#p337c6d7374)" d="M 265.055346 73.829031 
L 265.055346 60.464689 
" style="fill:none;stroke:#0000ff;stroke-width:1.5;"/>
    <path clip-path="url(#p337c6d7374)" d="M 269.261772 90.614805 
L 269.261772 77.250463 
" style="fill:none;stroke:#0000ff;stroke-width:1.5;"/>
    <path clip-path="url(#p337c6d7374)" d="M 273.468199 74.143112 
L 273.468199 60.778771 
" style="fill:none;stroke:#0000ff;stroke-width:1.5;"/>
    <path clip-path="url(#p337c6d7374)" d="M 277.674625 76.22022 
L 277.674625 62.855878 
" style="fill:none;stroke:#0000ff;stroke-width:1.5;"/>
    <path clip-path="url(#p337c6d7374)" d="M 281.881052 77.469331 
L 281.881052 64.104989 
" style="fill:none;stroke:#0000ff;stroke-width:1.5;"/>
    <path clip-path="url(#p337c6d7374)" d="M 286.087478 77.357905 
L 286.087478 63.993563 
" style="fill:none;stroke:#0000ff;stroke-width:1.5;"/>
    <path clip-path="url(#p337c6d7374)" d="M 290.293905 81.153502 
L 290.293905 67.78916 
" style="fill:none;stroke:#0000ff;stroke-width:1.5;"/>
    <path clip-path="url(#p337c6d7374)" d="M 294.500331 67.582408 
L 294.500331 54.218067 
" style="fill:none;stroke:#0000ff;stroke-width:1.5;"/>
    <path clip-path="url(#p337c6d7374)" d="M 298.706758 82.364641 
L 298.706758 69.0003 
" style="fill:none;stroke:#0000ff;stroke-width:1.5;"/>
    <path clip-path="url(#p337c6d7374)" d="M 302.913184 77.700028 
L 302.913184 64.335686 
" style="fill:none;stroke:#0000ff;stroke-width:1.5;"/>
    <path clip-path="url(#p337c6d7374)" d="M 307.119611 75.156727 
L 307.119611 61.792386 
" style="fill:none;stroke:#0000ff;stroke-width:1.5;"/>
    <path clip-path="url(#p337c6d7374)" d="M 311.326037 71.330758 
L 311.326037 57.966416 
" style="fill:none;stroke:#0000ff;stroke-width:1.5;"/>
    <path clip-path="url(#p337c6d7374)" d="M 315.532463 73.839925 
L 315.532463 60.475583 
" style="fill:none;stroke:#0000ff;stroke-width:1.5;"/>
    <path clip-path="url(#p337c6d7374)" d="M 319.73889 78.102307 
L 319.73889 64.737966 
" style="fill:none;stroke:#0000ff;stroke-width:1.5;"/>
    <path clip-path="url(#p337c6d7374)" d="M 323.945316 72.015161 
L 323.945316 58.65082 
" style="fill:none;stroke:#0000ff;stroke-width:1.5;"/>
    <path clip-path="url(#p337c6d7374)" d="M 328.151743 82.260511 
L 328.151743 68.89617 
" style="fill:none;stroke:#0000ff;stroke-width:1.5;"/>
    <path clip-path="url(#p337c6d7374)" d="M 332.358169 84.009943 
L 332.358169 70.645601 
" style="fill:none;stroke:#0000ff;stroke-width:1.5;"/>
    <path clip-path="url(#p337c6d7374)" d="M 336.564596 80.896185 
L 336.564596 67.531843 
" style="fill:none;stroke:#0000ff;stroke-width:1.5;"/>
    <path clip-path="url(#p337c6d7374)" d="M 340.771022 74.559511 
L 340.771022 61.195169 
" style="fill:none;stroke:#0000ff;stroke-width:1.5;"/>
    <path clip-path="url(#p337c6d7374)" d="M 344.977449 74.482934 
L 344.977449 61.118592 
" style="fill:none;stroke:#0000ff;stroke-width:1.5;"/>
    <path clip-path="url(#p337c6d7374)" d="M 349.183875 78.87712 
L 349.183875 65.512778 
" style="fill:none;stroke:#0000ff;stroke-width:1.5;"/>
    <path clip-path="url(#p337c6d7374)" d="M 353.390302 77.01761 
L 353.390302 63.653268 
" style="fill:none;stroke:#0000ff;stroke-width:1.5;"/>
    <path clip-path="url(#p337c6d7374)" d="M 357.596728 76.696192 
L 357.596728 63.33185 
" style="fill:none;stroke:#0000ff;stroke-width:1.5;"/>
    <path clip-path="url(#p337c6d7374)" d="M 361.803155 87.009552 
L 361.803155 73.64521 
" style="fill:none;stroke:#0000ff;stroke-width:1.5;"/>
    <path clip-path="url(#p337c6d7374)" d="M 366.009581 78.05829 
L 366.009581 64.693948 
" style="fill:none;stroke:#0000ff;stroke-width:1.5;"/>
    <path clip-path="url(#p337c6d7374)" d="M 370.216008 77.085907 
L 370.216008 63.721565 
" style="fill:none;stroke:#0000ff;stroke-width:1.5;"/>
    <path clip-path="url(#p337c6d7374)" d="M 374.422434 80.070099 
L 374.422434 66.705757 
" style="fill:none;stroke:#0000ff;stroke-width:1.5;"/>
    <path clip-path="url(#p337c6d7374)" d="M 378.628861 80.819279 
L 378.628861 67.454937 
" style="fill:none;stroke:#0000ff;stroke-width:1.5;"/>
    <path clip-path="url(#p337c6d7374)" d="M 382.835287 88.413804 
L 382.835287 75.049462 
" style="fill:none;stroke:#0000ff;stroke-width:1.5;"/>
    <path clip-path="url(#p337c6d7374)" d="M 387.041714 66.693138 
L 387.041714 53.328797 
" style="fill:none;stroke:#0000ff;stroke-width:1.5;"/>
    <path clip-path="url(#p337c6d7374)" d="M 391.24814 77.075823 
L 391.24814 63.711482 
" style="fill:none;stroke:#0000ff;stroke-width:1.5;"/>
    <path clip-path="url(#p337c6d7374)" d="M 395.454567 78.884525 
L 395.454567 65.520183 
" style="fill:none;stroke:#0000ff;stroke-width:1.5;"/>
    <path clip-path="url(#p337c6d7374)" d="M 399.660993 68.185543 
L 399.660993 54.821202 
" style="fill:none;stroke:#0000ff;stroke-width:1.5;"/>
    <path clip-path="url(#p337c6d7374)" d="M 403.86742 79.940333 
L 403.86742 66.575992 
" style="fill:none;stroke:#0000ff;stroke-width:1.5;"/>
    <path clip-path="url(#p337c6d7374)" d="M 408.073846 78.218748 
L 408.073846 64.854406 
" style="fill:none;stroke:#0000ff;stroke-width:1.5;"/>
   </g>
   <g id="line2d_13">
    <path clip-path="url(#p337c6d7374)" d="M 75.766154 71.523536 
L 408.073846 71.523536 
" style="fill:none;stroke:#ff0000;stroke-linecap:square;stroke-width:1.5;"/>
   </g>
   <g id="line2d_14">
    <defs>
     <path d="M 0 3 
C 0.795609 3 1.55874 2.683901 2.12132 2.12132 
C 2.683901 1.55874 3 0.795609 3 0 
C 3 -0.795609 2.683901 -1.55874 2.12132 -2.12132 
C 1.55874 -2.683901 0.795609 -3 0 -3 
C -0.795609 -3 -1.55874 -2.683901 -2.12132 -2.12132 
C -2.683901 -1.55874 -3 -0.795609 -3 0 
C -3 0.795609 -2.683901 1.55874 -2.12132 2.12132 
C -1.55874 2.683901 -0.795609 3 0 3 
z
" id="mf5f6001bd9" style="stroke:#0000ff;"/>
    </defs>
    <g clip-path="url(#p337c6d7374)">
     <use style="fill:#0000ff;stroke:#0000ff;" x="75.766154" xlink:href="#mf5f6001bd9" y="69.20319"/>
     <use style="fill:#0000ff;stroke:#0000ff;" x="79.97258" xlink:href="#mf5f6001bd9" y="60.338188"/>
     <use style="fill:#0000ff;stroke:#0000ff;" x="84.179007" xlink:href="#mf5f6001bd9" y="79.634174"/>
     <use style="fill:#0000ff;stroke:#0000ff;" x="88.385433" xlink:href="#mf5f6001bd9" y="64.628133"/>
     <use style="fill:#0000ff;stroke:#0000ff;" x="92.59186" xlink:href="#mf5f6001bd9" y="76.653184"/>
     <use style="fill:#0000ff;stroke:#0000ff;" x="96.798286" xlink:href="#mf5f6001bd9" y="66.570442"/>
     <use style="fill:#0000ff;stroke:#0000ff;" x="101.004713" xlink:href="#mf5f6001bd9" y="81.109231"/>
     <use style="fill:#0000ff;stroke:#0000ff;" x="105.211139" xlink:href="#mf5f6001bd9" y="64.947865"/>
     <use style="fill:#0000ff;stroke:#0000ff;" x="109.417566" xlink:href="#mf5f6001bd9" y="72.635934"/>
     <use style="fill:#0000ff;stroke:#0000ff;" x="113.623992" xlink:href="#mf5f6001bd9" y="73.509993"/>
     <use style="fill:#0000ff;stroke:#0000ff;" x="117.830419" xlink:href="#mf5f6001bd9" y="77.838356"/>
     <use style="fill:#0000ff;stroke:#0000ff;" x="122.036845" xlink:href="#mf5f6001bd9" y="71.689414"/>
     <use style="fill:#0000ff;stroke:#0000ff;" x="126.243272" xlink:href="#mf5f6001bd9" y="53.966534"/>
     <use style="fill:#0000ff;stroke:#0000ff;" x="130.449698" xlink:href="#mf5f6001bd9" y="60.854879"/>
     <use style="fill:#0000ff;stroke:#0000ff;" x="134.656125" xlink:href="#mf5f6001bd9" y="80.355185"/>
     <use style="fill:#0000ff;stroke:#0000ff;" x="138.862551" xlink:href="#mf5f6001bd9" y="77.424711"/>
     <use style="fill:#0000ff;stroke:#0000ff;" x="143.068978" xlink:href="#mf5f6001bd9" y="79.044879"/>
     <use style="fill:#0000ff;stroke:#0000ff;" x="147.275404" xlink:href="#mf5f6001bd9" y="64.425564"/>
     <use style="fill:#0000ff;stroke:#0000ff;" x="151.481831" xlink:href="#mf5f6001bd9" y="65.023777"/>
     <use style="fill:#0000ff;stroke:#0000ff;" x="155.688257" xlink:href="#mf5f6001bd9" y="69.362997"/>
     <use style="fill:#0000ff;stroke:#0000ff;" x="159.894684" xlink:href="#mf5f6001bd9" y="74.114773"/>
     <use style="fill:#0000ff;stroke:#0000ff;" x="164.10111" xlink:href="#mf5f6001bd9" y="79.285289"/>
     <use style="fill:#0000ff;stroke:#0000ff;" x="168.307537" xlink:href="#mf5f6001bd9" y="77.261779"/>
     <use style="fill:#0000ff;stroke:#0000ff;" x="172.513963" xlink:href="#mf5f6001bd9" y="62.648223"/>
     <use style="fill:#0000ff;stroke:#0000ff;" x="176.720389" xlink:href="#mf5f6001bd9" y="78.123463"/>
     <use style="fill:#0000ff;stroke:#0000ff;" x="180.926816" xlink:href="#mf5f6001bd9" y="63.645449"/>
     <use style="fill:#0000ff;stroke:#0000ff;" x="185.133242" xlink:href="#mf5f6001bd9" y="59.75453"/>
     <use style="fill:#0000ff;stroke:#0000ff;" x="189.339669" xlink:href="#mf5f6001bd9" y="68.363832"/>
     <use style="fill:#0000ff;stroke:#0000ff;" x="193.546095" xlink:href="#mf5f6001bd9" y="81.780041"/>
     <use style="fill:#0000ff;stroke:#0000ff;" x="197.752522" xlink:href="#mf5f6001bd9" y="70.834325"/>
     <use style="fill:#0000ff;stroke:#0000ff;" x="201.958948" xlink:href="#mf5f6001bd9" y="71.754729"/>
     <use style="fill:#0000ff;stroke:#0000ff;" x="206.165375" xlink:href="#mf5f6001bd9" y="68.703201"/>
     <use style="fill:#0000ff;stroke:#0000ff;" x="210.371801" xlink:href="#mf5f6001bd9" y="60.407349"/>
     <use style="fill:#0000ff;stroke:#0000ff;" x="214.578228" xlink:href="#mf5f6001bd9" y="64.533829"/>
     <use style="fill:#0000ff;stroke:#0000ff;" x="218.784654" xlink:href="#mf5f6001bd9" y="80.866044"/>
     <use style="fill:#0000ff;stroke:#0000ff;" x="222.991081" xlink:href="#mf5f6001bd9" y="73.163685"/>
     <use style="fill:#0000ff;stroke:#0000ff;" x="227.197507" xlink:href="#mf5f6001bd9" y="70.407046"/>
     <use style="fill:#0000ff;stroke:#0000ff;" x="231.403934" xlink:href="#mf5f6001bd9" y="69.376506"/>
     <use style="fill:#0000ff;stroke:#0000ff;" x="235.61036" xlink:href="#mf5f6001bd9" y="87.729466"/>
     <use style="fill:#0000ff;stroke:#0000ff;" x="239.816787" xlink:href="#mf5f6001bd9" y="60.93478"/>
     <use style="fill:#0000ff;stroke:#0000ff;" x="244.023213" xlink:href="#mf5f6001bd9" y="71.396441"/>
     <use style="fill:#0000ff;stroke:#0000ff;" x="248.22964" xlink:href="#mf5f6001bd9" y="68.605871"/>
     <use style="fill:#0000ff;stroke:#0000ff;" x="252.436066" xlink:href="#mf5f6001bd9" y="80.79135"/>
     <use style="fill:#0000ff;stroke:#0000ff;" x="256.642493" xlink:href="#mf5f6001bd9" y="75.112358"/>
     <use style="fill:#0000ff;stroke:#0000ff;" x="260.848919" xlink:href="#mf5f6001bd9" y="70.621556"/>
     <use style="fill:#0000ff;stroke:#0000ff;" x="265.055346" xlink:href="#mf5f6001bd9" y="67.14686"/>
     <use style="fill:#0000ff;stroke:#0000ff;" x="269.261772" xlink:href="#mf5f6001bd9" y="83.932634"/>
     <use style="fill:#0000ff;stroke:#0000ff;" x="273.468199" xlink:href="#mf5f6001bd9" y="67.460942"/>
     <use style="fill:#0000ff;stroke:#0000ff;" x="277.674625" xlink:href="#mf5f6001bd9" y="69.538049"/>
     <use style="fill:#0000ff;stroke:#0000ff;" x="281.881052" xlink:href="#mf5f6001bd9" y="70.78716"/>
     <use style="fill:#0000ff;stroke:#0000ff;" x="286.087478" xlink:href="#mf5f6001bd9" y="70.675734"/>
     <use style="fill:#0000ff;stroke:#0000ff;" x="290.293905" xlink:href="#mf5f6001bd9" y="74.471331"/>
     <use style="fill:#0000ff;stroke:#0000ff;" x="294.500331" xlink:href="#mf5f6001bd9" y="60.900237"/>
     <use style="fill:#0000ff;stroke:#0000ff;" x="298.706758" xlink:href="#mf5f6001bd9" y="75.682471"/>
     <use style="fill:#0000ff;stroke:#0000ff;" x="302.913184" xlink:href="#mf5f6001bd9" y="71.017857"/>
     <use style="fill:#0000ff;stroke:#0000ff;" x="307.119611" xlink:href="#mf5f6001bd9" y="68.474556"/>
     <use style="fill:#0000ff;stroke:#0000ff;" x="311.326037" xlink:href="#mf5f6001bd9" y="64.648587"/>
     <use style="fill:#0000ff;stroke:#0000ff;" x="315.532463" xlink:href="#mf5f6001bd9" y="67.157754"/>
     <use style="fill:#0000ff;stroke:#0000ff;" x="319.73889" xlink:href="#mf5f6001bd9" y="71.420136"/>
     <use style="fill:#0000ff;stroke:#0000ff;" x="323.945316" xlink:href="#mf5f6001bd9" y="65.33299"/>
     <use style="fill:#0000ff;stroke:#0000ff;" x="328.151743" xlink:href="#mf5f6001bd9" y="75.57834"/>
     <use style="fill:#0000ff;stroke:#0000ff;" x="332.358169" xlink:href="#mf5f6001bd9" y="77.327772"/>
     <use style="fill:#0000ff;stroke:#0000ff;" x="336.564596" xlink:href="#mf5f6001bd9" y="74.214014"/>
     <use style="fill:#0000ff;stroke:#0000ff;" x="340.771022" xlink:href="#mf5f6001bd9" y="67.87734"/>
     <use style="fill:#0000ff;stroke:#0000ff;" x="344.977449" xlink:href="#mf5f6001bd9" y="67.800763"/>
     <use style="fill:#0000ff;stroke:#0000ff;" x="349.183875" xlink:href="#mf5f6001bd9" y="72.194949"/>
     <use style="fill:#0000ff;stroke:#0000ff;" x="353.390302" xlink:href="#mf5f6001bd9" y="70.335439"/>
     <use style="fill:#0000ff;stroke:#0000ff;" x="357.596728" xlink:href="#mf5f6001bd9" y="70.014021"/>
     <use style="fill:#0000ff;stroke:#0000ff;" x="361.803155" xlink:href="#mf5f6001bd9" y="80.327381"/>
     <use style="fill:#0000ff;stroke:#0000ff;" x="366.009581" xlink:href="#mf5f6001bd9" y="71.376119"/>
     <use style="fill:#0000ff;stroke:#0000ff;" x="370.216008" xlink:href="#mf5f6001bd9" y="70.403736"/>
     <use style="fill:#0000ff;stroke:#0000ff;" x="374.422434" xlink:href="#mf5f6001bd9" y="73.387928"/>
     <use style="fill:#0000ff;stroke:#0000ff;" x="378.628861" xlink:href="#mf5f6001bd9" y="74.137108"/>
     <use style="fill:#0000ff;stroke:#0000ff;" x="382.835287" xlink:href="#mf5f6001bd9" y="81.731633"/>
     <use style="fill:#0000ff;stroke:#0000ff;" x="387.041714" xlink:href="#mf5f6001bd9" y="60.010968"/>
     <use style="fill:#0000ff;stroke:#0000ff;" x="391.24814" xlink:href="#mf5f6001bd9" y="70.393652"/>
     <use style="fill:#0000ff;stroke:#0000ff;" x="395.454567" xlink:href="#mf5f6001bd9" y="72.202354"/>
     <use style="fill:#0000ff;stroke:#0000ff;" x="399.660993" xlink:href="#mf5f6001bd9" y="61.503372"/>
     <use style="fill:#0000ff;stroke:#0000ff;" x="403.86742" xlink:href="#mf5f6001bd9" y="73.258162"/>
     <use style="fill:#0000ff;stroke:#0000ff;" x="408.073846" xlink:href="#mf5f6001bd9" y="71.536577"/>
    </g>
   </g>
   <g id="patch_3">
    <path d="M 69.12 96.768 
L 69.12 44.928 
" style="fill:none;stroke:#000000;stroke-linecap:square;stroke-linejoin:miter;stroke-width:0.8;"/>
   </g>
   <g id="patch_4">
    <path d="M 414.72 96.768 
L 414.72 44.928 
" style="fill:none;stroke:#000000;stroke-linecap:square;stroke-linejoin:miter;stroke-width:0.8;"/>
   </g>
   <g id="patch_5">
    <path d="M 69.12 96.768 
L 414.72 96.768 
" style="fill:none;stroke:#000000;stroke-linecap:square;stroke-linejoin:miter;stroke-width:0.8;"/>
   </g>
   <g id="patch_6">
    <path d="M 69.12 44.928 
L 414.72 44.928 
" style="fill:none;stroke:#000000;stroke-linecap:square;stroke-linejoin:miter;stroke-width:0.8;"/>
   </g>
   <g id="text_4">
    <!-- Function (0/0): y = A1*G(x-x0, s) + A2*S(x-x0, s) + L(x,m,b) -->
    <defs>
     <path d="M 9.8125 72.90625 
L 51.703125 72.90625 
L 51.703125 64.59375 
L 19.671875 64.59375 
L 19.671875 43.109375 
L 48.578125 43.109375 
L 48.578125 34.8125 
L 19.671875 34.8125 
L 19.671875 0 
L 9.8125 0 
z
" id="DejaVuSans-70"/>
     <path d="M 48.78125 52.59375 
L 48.78125 44.1875 
Q 44.96875 46.296875 41.140625 47.34375 
Q 37.3125 48.390625 33.40625 48.390625 
Q 24.65625 48.390625 19.8125 42.84375 
Q 14.984375 37.3125 14.984375 27.296875 
Q 14.984375 17.28125 19.8125 11.734375 
Q 24.65625 6.203125 33.40625 6.203125 
Q 37.3125 6.203125 41.140625 7.25 
Q 44.96875 8.296875 48.78125 10.40625 
L 48.78125 2.09375 
Q 45.015625 0.34375 40.984375 -0.53125 
Q 36.96875 -1.421875 32.421875 -1.421875 
Q 20.0625 -1.421875 12.78125 6.34375 
Q 5.515625 14.109375 5.515625 27.296875 
Q 5.515625 40.671875 12.859375 48.328125 
Q 20.21875 56 33.015625 56 
Q 37.15625 56 41.109375 55.140625 
Q 45.0625 54.296875 48.78125 52.59375 
z
" id="DejaVuSans-99"/>
     <path d="M 30.609375 48.390625 
Q 23.390625 48.390625 19.1875 42.75 
Q 14.984375 37.109375 14.984375 27.296875 
Q 14.984375 17.484375 19.15625 11.84375 
Q 23.34375 6.203125 30.609375 6.203125 
Q 37.796875 6.203125 41.984375 11.859375 
Q 46.1875 17.53125 46.1875 27.296875 
Q 46.1875 37.015625 41.984375 42.703125 
Q 37.796875 48.390625 30.609375 48.390625 
z
M 30.609375 56 
Q 42.328125 56 49.015625 48.375 
Q 55.71875 40.765625 55.71875 27.296875 
Q 55.71875 13.875 49.015625 6.21875 
Q 42.328125 -1.421875 30.609375 -1.421875 
Q 18.84375 -1.421875 12.171875 6.21875 
Q 5.515625 13.875 5.515625 27.296875 
Q 5.515625 40.765625 12.171875 48.375 
Q 18.84375 56 30.609375 56 
z
" id="DejaVuSans-111"/>
     <path id="DejaVuSans-32"/>
     <path d="M 31 75.875 
Q 24.46875 64.65625 21.28125 53.65625 
Q 18.109375 42.671875 18.109375 31.390625 
Q 18.109375 20.125 21.3125 9.0625 
Q 24.515625 -2 31 -13.1875 
L 23.1875 -13.1875 
Q 15.875 -1.703125 12.234375 9.375 
Q 8.59375 20.453125 8.59375 31.390625 
Q 8.59375 42.28125 12.203125 53.3125 
Q 15.828125 64.359375 23.1875 75.875 
z
" id="DejaVuSans-40"/>
     <path d="M 31.78125 66.40625 
Q 24.171875 66.40625 20.328125 58.90625 
Q 16.5 51.421875 16.5 36.375 
Q 16.5 21.390625 20.328125 13.890625 
Q 24.171875 6.390625 31.78125 6.390625 
Q 39.453125 6.390625 43.28125 13.890625 
Q 47.125 21.390625 47.125 36.375 
Q 47.125 51.421875 43.28125 58.90625 
Q 39.453125 66.40625 31.78125 66.40625 
z
M 31.78125 74.21875 
Q 44.046875 74.21875 50.515625 64.515625 
Q 56.984375 54.828125 56.984375 36.375 
Q 56.984375 17.96875 50.515625 8.265625 
Q 44.046875 -1.421875 31.78125 -1.421875 
Q 19.53125 -1.421875 13.0625 8.265625 
Q 6.59375 17.96875 6.59375 36.375 
Q 6.59375 54.828125 13.0625 64.515625 
Q 19.53125 74.21875 31.78125 74.21875 
z
" id="DejaVuSans-48"/>
     <path d="M 25.390625 72.90625 
L 33.6875 72.90625 
L 8.296875 -9.28125 
L 0 -9.28125 
z
" id="DejaVuSans-47"/>
     <path d="M 8.015625 75.875 
L 15.828125 75.875 
Q 23.140625 64.359375 26.78125 53.3125 
Q 30.421875 42.28125 30.421875 31.390625 
Q 30.421875 20.453125 26.78125 9.375 
Q 23.140625 -1.703125 15.828125 -13.1875 
L 8.015625 -13.1875 
Q 14.5 -2 17.703125 9.0625 
Q 20.90625 20.125 20.90625 31.390625 
Q 20.90625 42.671875 17.703125 53.65625 
Q 14.5 64.65625 8.015625 75.875 
z
" id="DejaVuSans-41"/>
     <path d="M 11.71875 12.40625 
L 22.015625 12.40625 
L 22.015625 0 
L 11.71875 0 
z
M 11.71875 51.703125 
L 22.015625 51.703125 
L 22.015625 39.3125 
L 11.71875 39.3125 
z
" id="DejaVuSans-58"/>
     <path d="M 32.171875 -5.078125 
Q 28.375 -14.84375 24.75 -17.8125 
Q 21.140625 -20.796875 15.09375 -20.796875 
L 7.90625 -20.796875 
L 7.90625 -13.28125 
L 13.1875 -13.28125 
Q 16.890625 -13.28125 18.9375 -11.515625 
Q 21 -9.765625 23.484375 -3.21875 
L 25.09375 0.875 
L 2.984375 54.6875 
L 12.5 54.6875 
L 29.59375 11.921875 
L 46.6875 54.6875 
L 56.203125 54.6875 
z
" id="DejaVuSans-121"/>
     <path d="M 10.59375 45.40625 
L 73.1875 45.40625 
L 73.1875 37.203125 
L 10.59375 37.203125 
z
M 10.59375 25.484375 
L 73.1875 25.484375 
L 73.1875 17.1875 
L 10.59375 17.1875 
z
" id="DejaVuSans-61"/>
     <path d="M 34.1875 63.1875 
L 20.796875 26.90625 
L 47.609375 26.90625 
z
M 28.609375 72.90625 
L 39.796875 72.90625 
L 67.578125 0 
L 57.328125 0 
L 50.6875 18.703125 
L 17.828125 18.703125 
L 11.1875 0 
L 0.78125 0 
z
" id="DejaVuSans-65"/>
     <path d="M 12.40625 8.296875 
L 28.515625 8.296875 
L 28.515625 63.921875 
L 10.984375 60.40625 
L 10.984375 69.390625 
L 28.421875 72.90625 
L 38.28125 72.90625 
L 38.28125 8.296875 
L 54.390625 8.296875 
L 54.390625 0 
L 12.40625 0 
z
" id="DejaVuSans-49"/>
     <path d="M 47.015625 60.890625 
L 29.5 51.421875 
L 47.015625 41.890625 
L 44.1875 37.109375 
L 27.78125 47.015625 
L 27.78125 28.609375 
L 22.21875 28.609375 
L 22.21875 47.015625 
L 5.8125 37.109375 
L 2.984375 41.890625 
L 20.515625 51.421875 
L 2.984375 60.890625 
L 5.8125 65.71875 
L 22.21875 55.8125 
L 22.21875 74.21875 
L 27.78125 74.21875 
L 27.78125 55.8125 
L 44.1875 65.71875 
z
" id="DejaVuSans-42"/>
     <path d="M 59.515625 10.40625 
L 59.515625 29.984375 
L 43.40625 29.984375 
L 43.40625 38.09375 
L 69.28125 38.09375 
L 69.28125 6.78125 
Q 63.578125 2.734375 56.6875 0.65625 
Q 49.8125 -1.421875 42 -1.421875 
Q 24.90625 -1.421875 15.25 8.5625 
Q 5.609375 18.5625 5.609375 36.375 
Q 5.609375 54.25 15.25 64.234375 
Q 24.90625 74.21875 42 74.21875 
Q 49.125 74.21875 55.546875 72.453125 
Q 61.96875 70.703125 67.390625 67.28125 
L 67.390625 56.78125 
Q 61.921875 61.421875 55.765625 63.765625 
Q 49.609375 66.109375 42.828125 66.109375 
Q 29.4375 66.109375 22.71875 58.640625 
Q 16.015625 51.171875 16.015625 36.375 
Q 16.015625 21.625 22.71875 14.15625 
Q 29.4375 6.6875 42.828125 6.6875 
Q 48.046875 6.6875 52.140625 7.59375 
Q 56.25 8.5 59.515625 10.40625 
z
" id="DejaVuSans-71"/>
     <path d="M 54.890625 54.6875 
L 35.109375 28.078125 
L 55.90625 0 
L 45.3125 0 
L 29.390625 21.484375 
L 13.484375 0 
L 2.875 0 
L 24.125 28.609375 
L 4.6875 54.6875 
L 15.28125 54.6875 
L 29.78125 35.203125 
L 44.28125 54.6875 
z
" id="DejaVuSans-120"/>
     <path d="M 4.890625 31.390625 
L 31.203125 31.390625 
L 31.203125 23.390625 
L 4.890625 23.390625 
z
" id="DejaVuSans-45"/>
     <path d="M 11.71875 12.40625 
L 22.015625 12.40625 
L 22.015625 4 
L 14.015625 -11.625 
L 7.71875 -11.625 
L 11.71875 4 
z
" id="DejaVuSans-44"/>
     <path d="M 46 62.703125 
L 46 35.5 
L 73.1875 35.5 
L 73.1875 27.203125 
L 46 27.203125 
L 46 0 
L 37.796875 0 
L 37.796875 27.203125 
L 10.59375 27.203125 
L 10.59375 35.5 
L 37.796875 35.5 
L 37.796875 62.703125 
z
" id="DejaVuSans-43"/>
     <path d="M 9.8125 72.90625 
L 19.671875 72.90625 
L 19.671875 8.296875 
L 55.171875 8.296875 
L 55.171875 0 
L 9.8125 0 
z
" id="DejaVuSans-76"/>
     <path d="M 52 44.1875 
Q 55.375 50.25 60.0625 53.125 
Q 64.75 56 71.09375 56 
Q 79.640625 56 84.28125 50.015625 
Q 88.921875 44.046875 88.921875 33.015625 
L 88.921875 0 
L 79.890625 0 
L 79.890625 32.71875 
Q 79.890625 40.578125 77.09375 44.375 
Q 74.3125 48.1875 68.609375 48.1875 
Q 61.625 48.1875 57.5625 43.546875 
Q 53.515625 38.921875 53.515625 30.90625 
L 53.515625 0 
L 44.484375 0 
L 44.484375 32.71875 
Q 44.484375 40.625 41.703125 44.40625 
Q 38.921875 48.1875 33.109375 48.1875 
Q 26.21875 48.1875 22.15625 43.53125 
Q 18.109375 38.875 18.109375 30.90625 
L 18.109375 0 
L 9.078125 0 
L 9.078125 54.6875 
L 18.109375 54.6875 
L 18.109375 46.1875 
Q 21.1875 51.21875 25.484375 53.609375 
Q 29.78125 56 35.6875 56 
Q 41.65625 56 45.828125 52.96875 
Q 50 49.953125 52 44.1875 
z
" id="DejaVuSans-109"/>
     <path d="M 48.6875 27.296875 
Q 48.6875 37.203125 44.609375 42.84375 
Q 40.53125 48.484375 33.40625 48.484375 
Q 26.265625 48.484375 22.1875 42.84375 
Q 18.109375 37.203125 18.109375 27.296875 
Q 18.109375 17.390625 22.1875 11.75 
Q 26.265625 6.109375 33.40625 6.109375 
Q 40.53125 6.109375 44.609375 11.75 
Q 48.6875 17.390625 48.6875 27.296875 
z
M 18.109375 46.390625 
Q 20.953125 51.265625 25.265625 53.625 
Q 29.59375 56 35.59375 56 
Q 45.5625 56 51.78125 48.09375 
Q 58.015625 40.1875 58.015625 27.296875 
Q 58.015625 14.40625 51.78125 6.484375 
Q 45.5625 -1.421875 35.59375 -1.421875 
Q 29.59375 -1.421875 25.265625 0.953125 
Q 20.953125 3.328125 18.109375 8.203125 
L 18.109375 0 
L 9.078125 0 
L 9.078125 75.984375 
L 18.109375 75.984375 
z
" id="DejaVuSans-98"/>
    </defs>
    <g transform="translate(69.12 14.3105)scale(0.1 -0.1)">
     <use xlink:href="#DejaVuSans-70"/>
     <use x="57.441406" xlink:href="#DejaVuSans-117"/>
     <use x="120.820312" xlink:href="#DejaVuSans-110"/>
     <use x="184.199219" xlink:href="#DejaVuSans-99"/>
     <use x="239.179688" xlink:href="#DejaVuSans-116"/>
     <use x="278.388672" xlink:href="#DejaVuSans-105"/>
     <use x="306.171875" xlink:href="#DejaVuSans-111"/>
     <use x="367.353516" xlink:href="#DejaVuSans-110"/>
     <use x="430.732422" xlink:href="#DejaVuSans-32"/>
     <use x="462.519531" xlink:href="#DejaVuSans-40"/>
     <use x="501.533203" xlink:href="#DejaVuSans-48"/>
     <use x="565.15625" xlink:href="#DejaVuSans-47"/>
     <use x="598.847656" xlink:href="#DejaVuSans-48"/>
     <use x="662.470703" xlink:href="#DejaVuSans-41"/>
     <use x="701.484375" xlink:href="#DejaVuSans-58"/>
     <use x="735.175781" xlink:href="#DejaVuSans-32"/>
     <use x="766.962891" xlink:href="#DejaVuSans-121"/>
     <use x="826.142578" xlink:href="#DejaVuSans-32"/>
     <use x="857.929688" xlink:href="#DejaVuSans-61"/>
     <use x="941.71875" xlink:href="#DejaVuSans-32"/>
     <use x="973.505859" xlink:href="#DejaVuSans-65"/>
     <use x="1041.914062" xlink:href="#DejaVuSans-49"/>
     <use x="1105.537109" xlink:href="#DejaVuSans-42"/>
     <use x="1155.537109" xlink:href="#DejaVuSans-71"/>
     <use x="1233.027344" xlink:href="#DejaVuSans-40"/>
     <use x="1272.041016" xlink:href="#DejaVuSans-120"/>
     <use x="1331.220703" xlink:href="#DejaVuSans-45"/>
     <use x="1367.304688" xlink:href="#DejaVuSans-120"/>
     <use x="1426.484375" xlink:href="#DejaVuSans-48"/>
     <use x="1490.107422" xlink:href="#DejaVuSans-44"/>
     <use x="1521.894531" xlink:href="#DejaVuSans-32"/>
     <use x="1553.681641" xlink:href="#DejaVuSans-115"/>
     <use x="1605.78125" xlink:href="#DejaVuSans-41"/>
     <use x="1644.794922" xlink:href="#DejaVuSans-32"/>
     <use x="1676.582031" xlink:href="#DejaVuSans-43"/>
     <use x="1760.371094" xlink:href="#DejaVuSans-32"/>
     <use x="1792.158203" xlink:href="#DejaVuSans-65"/>
     <use x="1860.566406" xlink:href="#DejaVuSans-50"/>
     <use x="1924.189453" xlink:href="#DejaVuSans-42"/>
     <use x="1974.189453" xlink:href="#DejaVuSans-83"/>
     <use x="2037.666016" xlink:href="#DejaVuSans-40"/>
     <use x="2076.679688" xlink:href="#DejaVuSans-120"/>
     <use x="2135.859375" xlink:href="#DejaVuSans-45"/>
     <use x="2171.943359" xlink:href="#DejaVuSans-120"/>
     <use x="2231.123047" xlink:href="#DejaVuSans-48"/>
     <use x="2294.746094" xlink:href="#DejaVuSans-44"/>
     <use x="2326.533203" xlink:href="#DejaVuSans-32"/>
     <use x="2358.320312" xlink:href="#DejaVuSans-115"/>
     <use x="2410.419922" xlink:href="#DejaVuSans-41"/>
     <use x="2449.433594" xlink:href="#DejaVuSans-32"/>
     <use x="2481.220703" xlink:href="#DejaVuSans-43"/>
     <use x="2565.009766" xlink:href="#DejaVuSans-32"/>
     <use x="2596.796875" xlink:href="#DejaVuSans-76"/>
     <use x="2652.509766" xlink:href="#DejaVuSans-40"/>
     <use x="2691.523438" xlink:href="#DejaVuSans-120"/>
     <use x="2750.703125" xlink:href="#DejaVuSans-44"/>
     <use x="2782.490234" xlink:href="#DejaVuSans-109"/>
     <use x="2879.902344" xlink:href="#DejaVuSans-44"/>
     <use x="2911.689453" xlink:href="#DejaVuSans-98"/>
     <use x="2975.166016" xlink:href="#DejaVuSans-41"/>
    </g>
    <!-- Fit: A1=192.7$\pm$3.2, x0=362.88$\pm$0.41, s=18.42$\pm$0.33, A2=144.0$\pm$56.0, -->
    <defs>
     <path d="M 10.984375 1.515625 
L 10.984375 10.5 
Q 14.703125 8.734375 18.5 7.8125 
Q 22.3125 6.890625 25.984375 6.890625 
Q 35.75 6.890625 40.890625 13.453125 
Q 46.046875 20.015625 46.78125 33.40625 
Q 43.953125 29.203125 39.59375 26.953125 
Q 35.25 24.703125 29.984375 24.703125 
Q 19.046875 24.703125 12.671875 31.3125 
Q 6.296875 37.9375 6.296875 49.421875 
Q 6.296875 60.640625 12.9375 67.421875 
Q 19.578125 74.21875 30.609375 74.21875 
Q 43.265625 74.21875 49.921875 64.515625 
Q 56.59375 54.828125 56.59375 36.375 
Q 56.59375 19.140625 48.40625 8.859375 
Q 40.234375 -1.421875 26.421875 -1.421875 
Q 22.703125 -1.421875 18.890625 -0.6875 
Q 15.09375 0.046875 10.984375 1.515625 
z
M 30.609375 32.421875 
Q 37.25 32.421875 41.125 36.953125 
Q 45.015625 41.5 45.015625 49.421875 
Q 45.015625 57.28125 41.125 61.84375 
Q 37.25 66.40625 30.609375 66.40625 
Q 23.96875 66.40625 20.09375 61.84375 
Q 16.21875 57.28125 16.21875 49.421875 
Q 16.21875 41.5 20.09375 36.953125 
Q 23.96875 32.421875 30.609375 32.421875 
z
" id="DejaVuSans-57"/>
     <path d="M 8.203125 72.90625 
L 55.078125 72.90625 
L 55.078125 68.703125 
L 28.609375 0 
L 18.3125 0 
L 43.21875 64.59375 
L 8.203125 64.59375 
z
" id="DejaVuSans-55"/>
     <path d="M 46 62.703125 
L 46 43.796875 
L 73.1875 43.796875 
L 73.1875 35.5 
L 46 35.5 
L 46 16.609375 
L 37.796875 16.609375 
L 37.796875 35.5 
L 10.59375 35.5 
L 10.59375 43.796875 
L 37.796875 43.796875 
L 37.796875 62.703125 
z
M 10.59375 8.296875 
L 73.1875 8.296875 
L 73.1875 0 
L 10.59375 0 
z
" id="DejaVuSans-177"/>
     <path d="M 40.578125 39.3125 
Q 47.65625 37.796875 51.625 33 
Q 55.609375 28.21875 55.609375 21.1875 
Q 55.609375 10.40625 48.1875 4.484375 
Q 40.765625 -1.421875 27.09375 -1.421875 
Q 22.515625 -1.421875 17.65625 -0.515625 
Q 12.796875 0.390625 7.625 2.203125 
L 7.625 11.71875 
Q 11.71875 9.328125 16.59375 8.109375 
Q 21.484375 6.890625 26.8125 6.890625 
Q 36.078125 6.890625 40.9375 10.546875 
Q 45.796875 14.203125 45.796875 21.1875 
Q 45.796875 27.640625 41.28125 31.265625 
Q 36.765625 34.90625 28.71875 34.90625 
L 20.21875 34.90625 
L 20.21875 43.015625 
L 29.109375 43.015625 
Q 36.375 43.015625 40.234375 45.921875 
Q 44.09375 48.828125 44.09375 54.296875 
Q 44.09375 59.90625 40.109375 62.90625 
Q 36.140625 65.921875 28.71875 65.921875 
Q 24.65625 65.921875 20.015625 65.03125 
Q 15.375 64.15625 9.8125 62.3125 
L 9.8125 71.09375 
Q 15.4375 72.65625 20.34375 73.4375 
Q 25.25 74.21875 29.59375 74.21875 
Q 40.828125 74.21875 47.359375 69.109375 
Q 53.90625 64.015625 53.90625 55.328125 
Q 53.90625 49.265625 50.4375 45.09375 
Q 46.96875 40.921875 40.578125 39.3125 
z
" id="DejaVuSans-51"/>
     <path d="M 33.015625 40.375 
Q 26.375 40.375 22.484375 35.828125 
Q 18.609375 31.296875 18.609375 23.390625 
Q 18.609375 15.53125 22.484375 10.953125 
Q 26.375 6.390625 33.015625 6.390625 
Q 39.65625 6.390625 43.53125 10.953125 
Q 47.40625 15.53125 47.40625 23.390625 
Q 47.40625 31.296875 43.53125 35.828125 
Q 39.65625 40.375 33.015625 40.375 
z
M 52.59375 71.296875 
L 52.59375 62.3125 
Q 48.875 64.0625 45.09375 64.984375 
Q 41.3125 65.921875 37.59375 65.921875 
Q 27.828125 65.921875 22.671875 59.328125 
Q 17.53125 52.734375 16.796875 39.40625 
Q 19.671875 43.65625 24.015625 45.921875 
Q 28.375 48.1875 33.59375 48.1875 
Q 44.578125 48.1875 50.953125 41.515625 
Q 57.328125 34.859375 57.328125 23.390625 
Q 57.328125 12.15625 50.6875 5.359375 
Q 44.046875 -1.421875 33.015625 -1.421875 
Q 20.359375 -1.421875 13.671875 8.265625 
Q 6.984375 17.96875 6.984375 36.375 
Q 6.984375 53.65625 15.1875 63.9375 
Q 23.390625 74.21875 37.203125 74.21875 
Q 40.921875 74.21875 44.703125 73.484375 
Q 48.484375 72.75 52.59375 71.296875 
z
" id="DejaVuSans-54"/>
     <path d="M 31.78125 34.625 
Q 24.75 34.625 20.71875 30.859375 
Q 16.703125 27.09375 16.703125 20.515625 
Q 16.703125 13.921875 20.71875 10.15625 
Q 24.75 6.390625 31.78125 6.390625 
Q 38.8125 6.390625 42.859375 10.171875 
Q 46.921875 13.96875 46.921875 20.515625 
Q 46.921875 27.09375 42.890625 30.859375 
Q 38.875 34.625 31.78125 34.625 
z
M 21.921875 38.8125 
Q 15.578125 40.375 12.03125 44.71875 
Q 8.5 49.078125 8.5 55.328125 
Q 8.5 64.0625 14.71875 69.140625 
Q 20.953125 74.21875 31.78125 74.21875 
Q 42.671875 74.21875 48.875 69.140625 
Q 55.078125 64.0625 55.078125 55.328125 
Q 55.078125 49.078125 51.53125 44.71875 
Q 48 40.375 41.703125 38.8125 
Q 48.828125 37.15625 52.796875 32.3125 
Q 56.78125 27.484375 56.78125 20.515625 
Q 56.78125 9.90625 50.3125 4.234375 
Q 43.84375 -1.421875 31.78125 -1.421875 
Q 19.734375 -1.421875 13.25 4.234375 
Q 6.78125 9.90625 6.78125 20.515625 
Q 6.78125 27.484375 10.78125 32.3125 
Q 14.796875 37.15625 21.921875 38.8125 
z
M 18.3125 54.390625 
Q 18.3125 48.734375 21.84375 45.5625 
Q 25.390625 42.390625 31.78125 42.390625 
Q 38.140625 42.390625 41.71875 45.5625 
Q 45.3125 48.734375 45.3125 54.390625 
Q 45.3125 60.0625 41.71875 63.234375 
Q 38.140625 66.40625 31.78125 66.40625 
Q 25.390625 66.40625 21.84375 63.234375 
Q 18.3125 60.0625 18.3125 54.390625 
z
" id="DejaVuSans-56"/>
     <path d="M 37.796875 64.3125 
L 12.890625 25.390625 
L 37.796875 25.390625 
z
M 35.203125 72.90625 
L 47.609375 72.90625 
L 47.609375 25.390625 
L 58.015625 25.390625 
L 58.015625 17.1875 
L 47.609375 17.1875 
L 47.609375 0 
L 37.796875 0 
L 37.796875 17.1875 
L 4.890625 17.1875 
L 4.890625 26.703125 
z
" id="DejaVuSans-52"/>
    </defs>
    <g transform="translate(69.12 25.508312)scale(0.1 -0.1)">
     <use transform="translate(0 0.015625)" xlink:href="#DejaVuSans-70"/>
     <use transform="translate(57.519531 0.015625)" xlink:href="#DejaVuSans-105"/>
     <use transform="translate(85.302734 0.015625)" xlink:href="#DejaVuSans-116"/>
     <use transform="translate(124.511719 0.015625)" xlink:href="#DejaVuSans-58"/>
     <use transform="translate(158.203125 0.015625)" xlink:href="#DejaVuSans-32"/>
     <use transform="translate(189.990234 0.015625)" xlink:href="#DejaVuSans-65"/>
     <use transform="translate(258.398438 0.015625)" xlink:href="#DejaVuSans-49"/>
     <use transform="translate(322.021484 0.015625)" xlink:href="#DejaVuSans-61"/>
     <use transform="translate(405.810547 0.015625)" xlink:href="#DejaVuSans-49"/>
     <use transform="translate(469.433594 0.015625)" xlink:href="#DejaVuSans-57"/>
     <use transform="translate(533.041016 0.015625)" xlink:href="#DejaVuSans-50"/>
     <use transform="translate(596.664062 0.015625)" xlink:href="#DejaVuSans-46"/>
     <use transform="translate(628.341797 0.015625)" xlink:href="#DejaVuSans-55"/>
     <use transform="translate(691.964844 0.015625)" xlink:href="#DejaVuSans-177"/>
     <use transform="translate(775.753906 0.015625)" xlink:href="#DejaVuSans-51"/>
     <use transform="translate(839.376953 0.015625)" xlink:href="#DejaVuSans-46"/>
     <use transform="translate(871.085938 0.015625)" xlink:href="#DejaVuSans-50"/>
     <use transform="translate(934.708984 0.015625)" xlink:href="#DejaVuSans-44"/>
     <use transform="translate(966.496094 0.015625)" xlink:href="#DejaVuSans-32"/>
     <use transform="translate(998.283203 0.015625)" xlink:href="#DejaVuSans-120"/>
     <use transform="translate(1057.462891 0.015625)" xlink:href="#DejaVuSans-48"/>
     <use transform="translate(1121.085938 0.015625)" xlink:href="#DejaVuSans-61"/>
     <use transform="translate(1204.875 0.015625)" xlink:href="#DejaVuSans-51"/>
     <use transform="translate(1268.498047 0.015625)" xlink:href="#DejaVuSans-54"/>
     <use transform="translate(1332.121094 0.015625)" xlink:href="#DejaVuSans-50"/>
     <use transform="translate(1395.744141 0.015625)" xlink:href="#DejaVuSans-46"/>
     <use transform="translate(1427.5 0.015625)" xlink:href="#DejaVuSans-56"/>
     <use transform="translate(1491.123047 0.015625)" xlink:href="#DejaVuSans-56"/>
     <use transform="translate(1554.746094 0.015625)" xlink:href="#DejaVuSans-177"/>
     <use transform="translate(1638.535156 0.015625)" xlink:href="#DejaVuSans-48"/>
     <use transform="translate(1702.158203 0.015625)" xlink:href="#DejaVuSans-46"/>
     <use transform="translate(1733.945312 0.015625)" xlink:href="#DejaVuSans-52"/>
     <use transform="translate(1797.568359 0.015625)" xlink:href="#DejaVuSans-49"/>
     <use transform="translate(1861.191406 0.015625)" xlink:href="#DejaVuSans-44"/>
     <use transform="translate(1892.978516 0.015625)" xlink:href="#DejaVuSans-32"/>
     <use transform="translate(1924.765625 0.015625)" xlink:href="#DejaVuSans-115"/>
     <use transform="translate(1976.865234 0.015625)" xlink:href="#DejaVuSans-61"/>
     <use transform="translate(2060.654297 0.015625)" xlink:href="#DejaVuSans-49"/>
     <use transform="translate(2124.277344 0.015625)" xlink:href="#DejaVuSans-56"/>
     <use transform="translate(2187.900391 0.015625)" xlink:href="#DejaVuSans-46"/>
     <use transform="translate(2219.6875 0.015625)" xlink:href="#DejaVuSans-52"/>
     <use transform="translate(2283.310547 0.015625)" xlink:href="#DejaVuSans-50"/>
     <use transform="translate(2346.933594 0.015625)" xlink:href="#DejaVuSans-177"/>
     <use transform="translate(2430.722656 0.015625)" xlink:href="#DejaVuSans-48"/>
     <use transform="translate(2494.345703 0.015625)" xlink:href="#DejaVuSans-46"/>
     <use transform="translate(2526.132812 0.015625)" xlink:href="#DejaVuSans-51"/>
     <use transform="translate(2589.755859 0.015625)" xlink:href="#DejaVuSans-51"/>
     <use transform="translate(2653.378906 0.015625)" xlink:href="#DejaVuSans-44"/>
     <use transform="translate(2685.166016 0.015625)" xlink:href="#DejaVuSans-32"/>
     <use transform="translate(2716.953125 0.015625)" xlink:href="#DejaVuSans-65"/>
     <use transform="translate(2785.361328 0.015625)" xlink:href="#DejaVuSans-50"/>
     <use transform="translate(2848.984375 0.015625)" xlink:href="#DejaVuSans-61"/>
     <use transform="translate(2932.773438 0.015625)" xlink:href="#DejaVuSans-49"/>
     <use transform="translate(2996.396484 0.015625)" xlink:href="#DejaVuSans-52"/>
     <use transform="translate(3060.019531 0.015625)" xlink:href="#DejaVuSans-52"/>
     <use transform="translate(3123.642578 0.015625)" xlink:href="#DejaVuSans-46"/>
     <use transform="translate(3155.429688 0.015625)" xlink:href="#DejaVuSans-48"/>
     <use transform="translate(3219.052734 0.015625)" xlink:href="#DejaVuSans-177"/>
     <use transform="translate(3302.841797 0.015625)" xlink:href="#DejaVuSans-53"/>
     <use transform="translate(3366.464844 0.015625)" xlink:href="#DejaVuSans-54"/>
     <use transform="translate(3430.087891 0.015625)" xlink:href="#DejaVuSans-46"/>
     <use transform="translate(3461.875 0.015625)" xlink:href="#DejaVuSans-48"/>
     <use transform="translate(3525.498047 0.015625)" xlink:href="#DejaVuSans-44"/>
    </g>
    <!--       m=1.31$\pm$0.58, b=-540.0$\pm$240.0, $\chi^2_r$=1.04$\pm$0.16 (74 DOF) -->
    <defs>
     <path d="M 30.03125 -12.203125 
L 26.421875 6.5 
L 6.15625 -20.84375 
L -4.4375 -20.84375 
L 24.265625 17.828125 
L 19.828125 40.828125 
Q 18.65625 46.96875 11.140625 46.96875 
L 8.734375 46.96875 
L 10.203125 54.6875 
L 13.625 54.59375 
Q 26.171875 54.25 27.734375 46.09375 
L 31.34375 27.390625 
L 51.609375 54.734375 
L 62.203125 54.734375 
L 33.5 16.0625 
L 37.9375 -6.9375 
Q 39.109375 -13.09375 46.625 -13.09375 
L 49.03125 -13.09375 
L 47.5625 -20.796875 
L 44.140625 -20.703125 
Q 31.59375 -20.359375 30.03125 -12.203125 
z
" id="DejaVuSans-Oblique-967"/>
     <path d="M 44.578125 46.390625 
Q 43.21875 47.125 41.453125 47.515625 
Q 39.703125 47.90625 37.703125 47.90625 
Q 30.515625 47.90625 25.140625 42.453125 
Q 19.78125 37.015625 18.015625 27.875 
L 12.5 0 
L 3.515625 0 
L 14.203125 54.6875 
L 23.1875 54.6875 
L 21.484375 46.1875 
Q 25.046875 50.921875 30 53.453125 
Q 34.96875 56 40.578125 56 
Q 42.046875 56 43.453125 55.828125 
Q 44.875 55.671875 46.296875 55.28125 
z
" id="DejaVuSans-Oblique-114"/>
     <path d="M 19.671875 64.796875 
L 19.671875 8.109375 
L 31.59375 8.109375 
Q 46.6875 8.109375 53.6875 14.9375 
Q 60.6875 21.78125 60.6875 36.53125 
Q 60.6875 51.171875 53.6875 57.984375 
Q 46.6875 64.796875 31.59375 64.796875 
z
M 9.8125 72.90625 
L 30.078125 72.90625 
Q 51.265625 72.90625 61.171875 64.09375 
Q 71.09375 55.28125 71.09375 36.53125 
Q 71.09375 17.671875 61.125 8.828125 
Q 51.171875 0 30.078125 0 
L 9.8125 0 
z
" id="DejaVuSans-68"/>
     <path d="M 39.40625 66.21875 
Q 28.65625 66.21875 22.328125 58.203125 
Q 16.015625 50.203125 16.015625 36.375 
Q 16.015625 22.609375 22.328125 14.59375 
Q 28.65625 6.59375 39.40625 6.59375 
Q 50.140625 6.59375 56.421875 14.59375 
Q 62.703125 22.609375 62.703125 36.375 
Q 62.703125 50.203125 56.421875 58.203125 
Q 50.140625 66.21875 39.40625 66.21875 
z
M 39.40625 74.21875 
Q 54.734375 74.21875 63.90625 63.9375 
Q 73.09375 53.65625 73.09375 36.375 
Q 73.09375 19.140625 63.90625 8.859375 
Q 54.734375 -1.421875 39.40625 -1.421875 
Q 24.03125 -1.421875 14.8125 8.828125 
Q 5.609375 19.09375 5.609375 36.375 
Q 5.609375 53.65625 14.8125 63.9375 
Q 24.03125 74.21875 39.40625 74.21875 
z
" id="DejaVuSans-79"/>
    </defs>
    <g transform="translate(69.12 38.508)scale(0.1 -0.1)">
     <use transform="translate(0 0.765625)" xlink:href="#DejaVuSans-32"/>
     <use transform="translate(31.787109 0.765625)" xlink:href="#DejaVuSans-32"/>
     <use transform="translate(63.574219 0.765625)" xlink:href="#DejaVuSans-32"/>
     <use transform="translate(95.361328 0.765625)" xlink:href="#DejaVuSans-32"/>
     <use transform="translate(127.148438 0.765625)" xlink:href="#DejaVuSans-32"/>
     <use transform="translate(158.935547 0.765625)" xlink:href="#DejaVuSans-32"/>
     <use transform="translate(190.722656 0.765625)" xlink:href="#DejaVuSans-109"/>
     <use transform="translate(288.134766 0.765625)" xlink:href="#DejaVuSans-61"/>
     <use transform="translate(371.923828 0.765625)" xlink:href="#DejaVuSans-49"/>
     <use transform="translate(435.546875 0.765625)" xlink:href="#DejaVuSans-46"/>
     <use transform="translate(467.333984 0.765625)" xlink:href="#DejaVuSans-51"/>
     <use transform="translate(530.957031 0.765625)" xlink:href="#DejaVuSans-49"/>
     <use transform="translate(594.580078 0.765625)" xlink:href="#DejaVuSans-177"/>
     <use transform="translate(678.369141 0.765625)" xlink:href="#DejaVuSans-48"/>
     <use transform="translate(741.992188 0.765625)" xlink:href="#DejaVuSans-46"/>
     <use transform="translate(773.779297 0.765625)" xlink:href="#DejaVuSans-53"/>
     <use transform="translate(837.402344 0.765625)" xlink:href="#DejaVuSans-56"/>
     <use transform="translate(901.025391 0.765625)" xlink:href="#DejaVuSans-44"/>
     <use transform="translate(932.8125 0.765625)" xlink:href="#DejaVuSans-32"/>
     <use transform="translate(964.599609 0.765625)" xlink:href="#DejaVuSans-98"/>
     <use transform="translate(1028.076172 0.765625)" xlink:href="#DejaVuSans-61"/>
     <use transform="translate(1111.865234 0.765625)" xlink:href="#DejaVuSans-45"/>
     <use transform="translate(1147.949219 0.765625)" xlink:href="#DejaVuSans-53"/>
     <use transform="translate(1211.572266 0.765625)" xlink:href="#DejaVuSans-52"/>
     <use transform="translate(1275.195312 0.765625)" xlink:href="#DejaVuSans-48"/>
     <use transform="translate(1338.818359 0.765625)" xlink:href="#DejaVuSans-46"/>
     <use transform="translate(1370.605469 0.765625)" xlink:href="#DejaVuSans-48"/>
     <use transform="translate(1434.228516 0.765625)" xlink:href="#DejaVuSans-177"/>
     <use transform="translate(1518.017578 0.765625)" xlink:href="#DejaVuSans-50"/>
     <use transform="translate(1581.640625 0.765625)" xlink:href="#DejaVuSans-52"/>
     <use transform="translate(1645.263672 0.765625)" xlink:href="#DejaVuSans-48"/>
     <use transform="translate(1708.886719 0.765625)" xlink:href="#DejaVuSans-46"/>
     <use transform="translate(1740.673828 0.765625)" xlink:href="#DejaVuSans-48"/>
     <use transform="translate(1804.296875 0.765625)" xlink:href="#DejaVuSans-44"/>
     <use transform="translate(1836.083984 0.765625)" xlink:href="#DejaVuSans-32"/>
     <use transform="translate(1867.871094 0.765625)" xlink:href="#DejaVuSans-Oblique-967"/>
     <use transform="translate(1931.52349 39.046875)scale(0.7)" xlink:href="#DejaVuSans-50"/>
     <use transform="translate(1927.050781 -26.578125)scale(0.7)" xlink:href="#DejaVuSans-Oblique-114"/>
     <use transform="translate(1978.793997 0.765625)" xlink:href="#DejaVuSans-61"/>
     <use transform="translate(2062.58306 0.765625)" xlink:href="#DejaVuSans-49"/>
     <use transform="translate(2126.206107 0.765625)" xlink:href="#DejaVuSans-46"/>
     <use transform="translate(2157.993216 0.765625)" xlink:href="#DejaVuSans-48"/>
     <use transform="translate(2221.616263 0.765625)" xlink:href="#DejaVuSans-52"/>
     <use transform="translate(2285.23931 0.765625)" xlink:href="#DejaVuSans-177"/>
     <use transform="translate(2369.028372 0.765625)" xlink:href="#DejaVuSans-48"/>
     <use transform="translate(2432.651419 0.765625)" xlink:href="#DejaVuSans-46"/>
     <use transform="translate(2464.438529 0.765625)" xlink:href="#DejaVuSans-49"/>
     <use transform="translate(2528.061576 0.765625)" xlink:href="#DejaVuSans-54"/>
     <use transform="translate(2591.684622 0.765625)" xlink:href="#DejaVuSans-32"/>
     <use transform="translate(2623.471732 0.765625)" xlink:href="#DejaVuSans-40"/>
     <use transform="translate(2662.485404 0.765625)" xlink:href="#DejaVuSans-55"/>
     <use transform="translate(2726.108451 0.765625)" xlink:href="#DejaVuSans-52"/>
     <use transform="translate(2789.731497 0.765625)" xlink:href="#DejaVuSans-32"/>
     <use transform="translate(2821.518607 0.765625)" xlink:href="#DejaVuSans-68"/>
     <use transform="translate(2898.52056 0.765625)" xlink:href="#DejaVuSans-79"/>
     <use transform="translate(2977.231497 0.765625)" xlink:href="#DejaVuSans-70"/>
     <use transform="translate(3034.751029 0.765625)" xlink:href="#DejaVuSans-41"/>
    </g>
   </g>
  </g>
  <g id="axes_2">
   <g id="patch_7">
    <path d="M 69.12 311.04 
L 414.72 311.04 
L 414.72 103.68 
L 69.12 103.68 
z
" style="fill:#ffffff;"/>
   </g>
   <g id="matplotlib.axis_3">
    <g id="xtick_10">
     <g id="line2d_15">
      <g>
       <use style="stroke:#000000;stroke-width:0.8;" x="75.766154" xlink:href="#m7c33c79174" y="311.04"/>
      </g>
     </g>
     <g id="text_5">
      <!-- 320 -->
      <g transform="translate(66.222404 325.638437)scale(0.1 -0.1)">
       <use xlink:href="#DejaVuSans-51"/>
       <use x="63.623047" xlink:href="#DejaVuSans-50"/>
       <use x="127.246094" xlink:href="#DejaVuSans-48"/>
      </g>
     </g>
    </g>
    <g id="xtick_11">
     <g id="line2d_16">
      <g>
       <use style="stroke:#000000;stroke-width:0.8;" x="117.830419" xlink:href="#m7c33c79174" y="311.04"/>
      </g>
     </g>
     <g id="text_6">
      <!-- 330 -->
      <g transform="translate(108.286669 325.638437)scale(0.1 -0.1)">
       <use xlink:href="#DejaVuSans-51"/>
       <use x="63.623047" xlink:href="#DejaVuSans-51"/>
       <use x="127.246094" xlink:href="#DejaVuSans-48"/>
      </g>
     </g>
    </g>
    <g id="xtick_12">
     <g id="line2d_17">
      <g>
       <use style="stroke:#000000;stroke-width:0.8;" x="159.894684" xlink:href="#m7c33c79174" y="311.04"/>
      </g>
     </g>
     <g id="text_7">
      <!-- 340 -->
      <g transform="translate(150.350934 325.638437)scale(0.1 -0.1)">
       <use xlink:href="#DejaVuSans-51"/>
       <use x="63.623047" xlink:href="#DejaVuSans-52"/>
       <use x="127.246094" xlink:href="#DejaVuSans-48"/>
      </g>
     </g>
    </g>
    <g id="xtick_13">
     <g id="line2d_18">
      <g>
       <use style="stroke:#000000;stroke-width:0.8;" x="201.958948" xlink:href="#m7c33c79174" y="311.04"/>
      </g>
     </g>
     <g id="text_8">
      <!-- 350 -->
      <g transform="translate(192.415198 325.638437)scale(0.1 -0.1)">
       <use xlink:href="#DejaVuSans-51"/>
       <use x="63.623047" xlink:href="#DejaVuSans-53"/>
       <use x="127.246094" xlink:href="#DejaVuSans-48"/>
      </g>
     </g>
    </g>
    <g id="xtick_14">
     <g id="line2d_19">
      <g>
       <use style="stroke:#000000;stroke-width:0.8;" x="244.023213" xlink:href="#m7c33c79174" y="311.04"/>
      </g>
     </g>
     <g id="text_9">
      <!-- 360 -->
      <g transform="translate(234.479463 325.638437)scale(0.1 -0.1)">
       <use xlink:href="#DejaVuSans-51"/>
       <use x="63.623047" xlink:href="#DejaVuSans-54"/>
       <use x="127.246094" xlink:href="#DejaVuSans-48"/>
      </g>
     </g>
    </g>
    <g id="xtick_15">
     <g id="line2d_20">
      <g>
       <use style="stroke:#000000;stroke-width:0.8;" x="286.087478" xlink:href="#m7c33c79174" y="311.04"/>
      </g>
     </g>
     <g id="text_10">
      <!-- 370 -->
      <g transform="translate(276.543728 325.638437)scale(0.1 -0.1)">
       <use xlink:href="#DejaVuSans-51"/>
       <use x="63.623047" xlink:href="#DejaVuSans-55"/>
       <use x="127.246094" xlink:href="#DejaVuSans-48"/>
      </g>
     </g>
    </g>
    <g id="xtick_16">
     <g id="line2d_21">
      <g>
       <use style="stroke:#000000;stroke-width:0.8;" x="328.151743" xlink:href="#m7c33c79174" y="311.04"/>
      </g>
     </g>
     <g id="text_11">
      <!-- 380 -->
      <g transform="translate(318.607993 325.638437)scale(0.1 -0.1)">
       <use xlink:href="#DejaVuSans-51"/>
       <use x="63.623047" xlink:href="#DejaVuSans-56"/>
       <use x="127.246094" xlink:href="#DejaVuSans-48"/>
      </g>
     </g>
    </g>
    <g id="xtick_17">
     <g id="line2d_22">
      <g>
       <use style="stroke:#000000;stroke-width:0.8;" x="370.216008" xlink:href="#m7c33c79174" y="311.04"/>
      </g>
     </g>
     <g id="text_12">
      <!-- 390 -->
      <g transform="translate(360.672258 325.638437)scale(0.1 -0.1)">
       <use xlink:href="#DejaVuSans-51"/>
       <use x="63.623047" xlink:href="#DejaVuSans-57"/>
       <use x="127.246094" xlink:href="#DejaVuSans-48"/>
      </g>
     </g>
    </g>
    <g id="xtick_18">
     <g id="line2d_23">
      <g>
       <use style="stroke:#000000;stroke-width:0.8;" x="412.280273" xlink:href="#m7c33c79174" y="311.04"/>
      </g>
     </g>
     <g id="text_13">
      <!-- 400 -->
      <g transform="translate(402.736523 325.638437)scale(0.1 -0.1)">
       <use xlink:href="#DejaVuSans-52"/>
       <use x="63.623047" xlink:href="#DejaVuSans-48"/>
       <use x="127.246094" xlink:href="#DejaVuSans-48"/>
      </g>
     </g>
    </g>
    <g id="text_14">
     <!-- Channel -->
     <defs>
      <path d="M 64.40625 67.28125 
L 64.40625 56.890625 
Q 59.421875 61.53125 53.78125 63.8125 
Q 48.140625 66.109375 41.796875 66.109375 
Q 29.296875 66.109375 22.65625 58.46875 
Q 16.015625 50.828125 16.015625 36.375 
Q 16.015625 21.96875 22.65625 14.328125 
Q 29.296875 6.6875 41.796875 6.6875 
Q 48.140625 6.6875 53.78125 8.984375 
Q 59.421875 11.28125 64.40625 15.921875 
L 64.40625 5.609375 
Q 59.234375 2.09375 53.4375 0.328125 
Q 47.65625 -1.421875 41.21875 -1.421875 
Q 24.65625 -1.421875 15.125 8.703125 
Q 5.609375 18.84375 5.609375 36.375 
Q 5.609375 53.953125 15.125 64.078125 
Q 24.65625 74.21875 41.21875 74.21875 
Q 47.75 74.21875 53.53125 72.484375 
Q 59.328125 70.75 64.40625 67.28125 
z
" id="DejaVuSans-67"/>
      <path d="M 54.890625 33.015625 
L 54.890625 0 
L 45.90625 0 
L 45.90625 32.71875 
Q 45.90625 40.484375 42.875 44.328125 
Q 39.84375 48.1875 33.796875 48.1875 
Q 26.515625 48.1875 22.3125 43.546875 
Q 18.109375 38.921875 18.109375 30.90625 
L 18.109375 0 
L 9.078125 0 
L 9.078125 75.984375 
L 18.109375 75.984375 
L 18.109375 46.1875 
Q 21.34375 51.125 25.703125 53.5625 
Q 30.078125 56 35.796875 56 
Q 45.21875 56 50.046875 50.171875 
Q 54.890625 44.34375 54.890625 33.015625 
z
" id="DejaVuSans-104"/>
     </defs>
     <g transform="translate(221.392656 339.316562)scale(0.1 -0.1)">
      <use xlink:href="#DejaVuSans-67"/>
      <use x="69.824219" xlink:href="#DejaVuSans-104"/>
      <use x="133.203125" xlink:href="#DejaVuSans-97"/>
      <use x="194.482422" xlink:href="#DejaVuSans-110"/>
      <use x="257.861328" xlink:href="#DejaVuSans-110"/>
      <use x="321.240234" xlink:href="#DejaVuSans-101"/>
      <use x="382.763672" xlink:href="#DejaVuSans-108"/>
     </g>
    </g>
   </g>
   <g id="matplotlib.axis_4">
    <g id="ytick_4">
     <g id="line2d_24">
      <g>
       <use style="stroke:#000000;stroke-width:0.8;" x="69.12" xlink:href="#m60d7bcf261" y="308.788118"/>
      </g>
     </g>
     <g id="text_15">
      <!-- 0 -->
      <g transform="translate(55.7575 312.587336)scale(0.1 -0.1)">
       <use xlink:href="#DejaVuSans-48"/>
      </g>
     </g>
    </g>
    <g id="ytick_5">
     <g id="line2d_25">
      <g>
       <use style="stroke:#000000;stroke-width:0.8;" x="69.12" xlink:href="#m60d7bcf261" y="265.392867"/>
      </g>
     </g>
     <g id="text_16">
      <!-- 50 -->
      <g transform="translate(49.395 269.192086)scale(0.1 -0.1)">
       <use xlink:href="#DejaVuSans-53"/>
       <use x="63.623047" xlink:href="#DejaVuSans-48"/>
      </g>
     </g>
    </g>
    <g id="ytick_6">
     <g id="line2d_26">
      <g>
       <use style="stroke:#000000;stroke-width:0.8;" x="69.12" xlink:href="#m60d7bcf261" y="221.997617"/>
      </g>
     </g>
     <g id="text_17">
      <!-- 100 -->
      <g transform="translate(43.0325 225.796836)scale(0.1 -0.1)">
       <use xlink:href="#DejaVuSans-49"/>
       <use x="63.623047" xlink:href="#DejaVuSans-48"/>
       <use x="127.246094" xlink:href="#DejaVuSans-48"/>
      </g>
     </g>
    </g>
    <g id="ytick_7">
     <g id="line2d_27">
      <g>
       <use style="stroke:#000000;stroke-width:0.8;" x="69.12" xlink:href="#m60d7bcf261" y="178.602367"/>
      </g>
     </g>
     <g id="text_18">
      <!-- 150 -->
      <g transform="translate(43.0325 182.401586)scale(0.1 -0.1)">
       <use xlink:href="#DejaVuSans-49"/>
       <use x="63.623047" xlink:href="#DejaVuSans-53"/>
       <use x="127.246094" xlink:href="#DejaVuSans-48"/>
      </g>
     </g>
    </g>
    <g id="ytick_8">
     <g id="line2d_28">
      <g>
       <use style="stroke:#000000;stroke-width:0.8;" x="69.12" xlink:href="#m60d7bcf261" y="135.207117"/>
      </g>
     </g>
     <g id="text_19">
      <!-- 200 -->
      <g transform="translate(43.0325 139.006335)scale(0.1 -0.1)">
       <use xlink:href="#DejaVuSans-50"/>
       <use x="63.623047" xlink:href="#DejaVuSans-48"/>
       <use x="127.246094" xlink:href="#DejaVuSans-48"/>
      </g>
     </g>
    </g>
    <g id="text_20">
     <!-- Count -->
     <g transform="translate(36.952812 222.208438)rotate(-90)scale(0.1 -0.1)">
      <use xlink:href="#DejaVuSans-67"/>
      <use x="69.824219" xlink:href="#DejaVuSans-111"/>
      <use x="131.005859" xlink:href="#DejaVuSans-117"/>
      <use x="194.384766" xlink:href="#DejaVuSans-110"/>
      <use x="257.763672" xlink:href="#DejaVuSans-116"/>
     </g>
    </g>
   </g>
   <g id="LineCollection_2">
    <path clip-path="url(#pdeded11baa)" d="M 75.766154 301.379769 
L 75.766154 295.366746 
" style="fill:none;stroke:#0000ff;stroke-width:1.5;"/>
    <path clip-path="url(#pdeded11baa)" d="M 79.97258 296.081033 
L 79.97258 288.514812 
" style="fill:none;stroke:#0000ff;stroke-width:1.5;"/>
    <path clip-path="url(#pdeded11baa)" d="M 84.179007 303.580688 
L 84.179007 298.373258 
" style="fill:none;stroke:#0000ff;stroke-width:1.5;"/>
    <path clip-path="url(#pdeded11baa)" d="M 88.385433 296.848037 
L 88.385433 289.483619 
" style="fill:none;stroke:#0000ff;stroke-width:1.5;"/>
    <path clip-path="url(#pdeded11baa)" d="M 92.59186 301.379769 
L 92.59186 295.366746 
" style="fill:none;stroke:#0000ff;stroke-width:1.5;"/>
    <path clip-path="url(#pdeded11baa)" d="M 96.798286 296.081033 
L 96.798286 288.514812 
" style="fill:none;stroke:#0000ff;stroke-width:1.5;"/>
    <path clip-path="url(#pdeded11baa)" d="M 101.004713 301.379769 
L 101.004713 295.366746 
" style="fill:none;stroke:#0000ff;stroke-width:1.5;"/>
    <path clip-path="url(#pdeded11baa)" d="M 105.211139 292.988629 
L 105.211139 284.663976 
" style="fill:none;stroke:#0000ff;stroke-width:1.5;"/>
    <path clip-path="url(#pdeded11baa)" d="M 109.417566 296.081033 
L 109.417566 288.514812 
" style="fill:none;stroke:#0000ff;stroke-width:1.5;"/>
    <path clip-path="url(#pdeded11baa)" d="M 113.623992 295.311407 
L 113.623992 287.548628 
" style="fill:none;stroke:#0000ff;stroke-width:1.5;"/>
    <path clip-path="url(#pdeded11baa)" d="M 117.830419 296.081033 
L 117.830419 288.514812 
" style="fill:none;stroke:#0000ff;stroke-width:1.5;"/>
    <path clip-path="url(#pdeded11baa)" d="M 122.036845 291.430018 
L 122.036845 282.750968 
" style="fill:none;stroke:#0000ff;stroke-width:1.5;"/>
    <path clip-path="url(#pdeded11baa)" d="M 126.243272 275.554476 
L 126.243272 263.910309 
" style="fill:none;stroke:#0000ff;stroke-width:1.5;"/>
    <path clip-path="url(#pdeded11baa)" d="M 130.449698 279.561031 
L 130.449698 268.582804 
" style="fill:none;stroke:#0000ff;stroke-width:1.5;"/>
    <path clip-path="url(#pdeded11baa)" d="M 134.656125 290.648052 
L 134.656125 281.797123 
" style="fill:none;stroke:#0000ff;stroke-width:1.5;"/>
    <path clip-path="url(#pdeded11baa)" d="M 138.862551 286.715353 
L 138.862551 277.050772 
" style="fill:none;stroke:#0000ff;stroke-width:1.5;"/>
    <path clip-path="url(#pdeded11baa)" d="M 143.068978 285.132987 
L 143.068978 275.161518 
" style="fill:none;stroke:#0000ff;stroke-width:1.5;"/>
    <path clip-path="url(#pdeded11baa)" d="M 147.275404 270.723044 
L 147.275404 258.326881 
" style="fill:none;stroke:#0000ff;stroke-width:1.5;"/>
    <path clip-path="url(#pdeded11baa)" d="M 151.481831 267.489898 
L 151.481831 254.616787 
" style="fill:none;stroke:#0000ff;stroke-width:1.5;"/>
    <path clip-path="url(#pdeded11baa)" d="M 155.688257 267.489898 
L 155.688257 254.616787 
" style="fill:none;stroke:#0000ff;stroke-width:1.5;"/>
    <path clip-path="url(#pdeded11baa)" d="M 159.894684 267.489898 
L 159.894684 254.616787 
" style="fill:none;stroke:#0000ff;stroke-width:1.5;"/>
    <path clip-path="url(#pdeded11baa)" d="M 164.10111 267.489898 
L 164.10111 254.616787 
" style="fill:none;stroke:#0000ff;stroke-width:1.5;"/>
    <path clip-path="url(#pdeded11baa)" d="M 168.307537 260.998885 
L 168.307537 247.22132 
" style="fill:none;stroke:#0000ff;stroke-width:1.5;"/>
    <path clip-path="url(#pdeded11baa)" d="M 172.513963 239.732372 
L 172.513963 223.356773 
" style="fill:none;stroke:#0000ff;stroke-width:1.5;"/>
    <path clip-path="url(#pdeded11baa)" d="M 176.720389 251.21152 
L 176.720389 236.178964 
" style="fill:none;stroke:#0000ff;stroke-width:1.5;"/>
    <path clip-path="url(#pdeded11baa)" d="M 180.926816 228.202176 
L 180.926816 210.585628 
" style="fill:none;stroke:#0000ff;stroke-width:1.5;"/>
    <path clip-path="url(#pdeded11baa)" d="M 185.133242 215.803189 
L 185.133242 196.947465 
" style="fill:none;stroke:#0000ff;stroke-width:1.5;"/>
    <path clip-path="url(#pdeded11baa)" d="M 189.339669 220.7678 
L 189.339669 202.397714 
" style="fill:none;stroke:#0000ff;stroke-width:1.5;"/>
    <path clip-path="url(#pdeded11baa)" d="M 193.546095 230.676667 
L 193.546095 213.318567 
" style="fill:none;stroke:#0000ff;stroke-width:1.5;"/>
    <path clip-path="url(#pdeded11baa)" d="M 197.752522 210.003465 
L 197.752522 190.596519 
" style="fill:none;stroke:#0000ff;stroke-width:1.5;"/>
    <path clip-path="url(#pdeded11baa)" d="M 201.958948 204.196126 
L 201.958948 184.253188 
" style="fill:none;stroke:#0000ff;stroke-width:1.5;"/>
    <path clip-path="url(#pdeded11baa)" d="M 206.165375 192.560923 
L 206.165375 171.587051 
" style="fill:none;stroke:#0000ff;stroke-width:1.5;"/>
    <path clip-path="url(#pdeded11baa)" d="M 210.371801 171.725692 
L 210.371801 149.027031 
" style="fill:none;stroke:#0000ff;stroke-width:1.5;"/>
    <path clip-path="url(#pdeded11baa)" d="M 214.578228 171.725692 
L 214.578228 149.027031 
" style="fill:none;stroke:#0000ff;stroke-width:1.5;"/>
    <path clip-path="url(#pdeded11baa)" d="M 218.784654 190.896697 
L 218.784654 169.779657 
" style="fill:none;stroke:#0000ff;stroke-width:1.5;"/>
    <path clip-path="url(#pdeded11baa)" d="M 222.991081 173.394937 
L 222.991081 150.829407 
" style="fill:none;stroke:#0000ff;stroke-width:1.5;"/>
    <path clip-path="url(#pdeded11baa)" d="M 227.197507 163.373779 
L 227.197507 140.020844 
" style="fill:none;stroke:#0000ff;stroke-width:1.5;"/>
    <path clip-path="url(#pdeded11baa)" d="M 231.403934 156.685793 
L 231.403934 132.82235 
" style="fill:none;stroke:#0000ff;stroke-width:1.5;"/>
    <path clip-path="url(#pdeded11baa)" d="M 235.61036 181.735087 
L 235.61036 159.847356 
" style="fill:none;stroke:#0000ff;stroke-width:1.5;"/>
    <path clip-path="url(#pdeded11baa)" d="M 239.816787 133.23777 
L 239.816787 107.667692 
" style="fill:none;stroke:#0000ff;stroke-width:1.5;"/>
    <path clip-path="url(#pdeded11baa)" d="M 244.023213 149.992459 
L 244.023213 125.629204 
" style="fill:none;stroke:#0000ff;stroke-width:1.5;"/>
    <path clip-path="url(#pdeded11baa)" d="M 248.22964 143.2941 
L 248.22964 118.441083 
" style="fill:none;stroke:#0000ff;stroke-width:1.5;"/>
    <path clip-path="url(#pdeded11baa)" d="M 252.436066 163.373779 
L 252.436066 140.020844 
" style="fill:none;stroke:#0000ff;stroke-width:1.5;"/>
    <path clip-path="url(#pdeded11baa)" d="M 256.642493 154.176401 
L 256.642493 130.124312 
" style="fill:none;stroke:#0000ff;stroke-width:1.5;"/>
    <path clip-path="url(#pdeded11baa)" d="M 260.848919 147.481147 
L 260.848919 122.933086 
" style="fill:none;stroke:#0000ff;stroke-width:1.5;"/>
    <path clip-path="url(#pdeded11baa)" d="M 265.055346 143.2941 
L 265.055346 118.441083 
" style="fill:none;stroke:#0000ff;stroke-width:1.5;"/>
    <path clip-path="url(#pdeded11baa)" d="M 269.261772 174.229411 
L 269.261772 151.730742 
" style="fill:none;stroke:#0000ff;stroke-width:1.5;"/>
    <path clip-path="url(#pdeded11baa)" d="M 273.468199 150.829407 
L 273.468199 126.528066 
" style="fill:none;stroke:#0000ff;stroke-width:1.5;"/>
    <path clip-path="url(#pdeded11baa)" d="M 277.674625 159.194433 
L 277.674625 135.52114 
" style="fill:none;stroke:#0000ff;stroke-width:1.5;"/>
    <path clip-path="url(#pdeded11baa)" d="M 281.881052 166.715657 
L 281.881052 143.622207 
" style="fill:none;stroke:#0000ff;stroke-width:1.5;"/>
    <path clip-path="url(#pdeded11baa)" d="M 286.087478 172.560363 
L 286.087478 149.92817 
" style="fill:none;stroke:#0000ff;stroke-width:1.5;"/>
    <path clip-path="url(#pdeded11baa)" d="M 290.293905 185.068172 
L 290.293905 163.457512 
" style="fill:none;stroke:#0000ff;stroke-width:1.5;"/>
    <path clip-path="url(#pdeded11baa)" d="M 294.500331 170.05606 
L 294.500331 147.225044 
" style="fill:none;stroke:#0000ff;stroke-width:1.5;"/>
    <path clip-path="url(#pdeded11baa)" d="M 298.706758 200.874462 
L 298.706758 180.631612 
" style="fill:none;stroke:#0000ff;stroke-width:1.5;"/>
    <path clip-path="url(#pdeded11baa)" d="M 302.913184 201.705087 
L 302.913184 181.536797 
" style="fill:none;stroke:#0000ff;stroke-width:1.5;"/>
    <path clip-path="url(#pdeded11baa)" d="M 307.119611 205.856107 
L 307.119611 186.064827 
" style="fill:none;stroke:#0000ff;stroke-width:1.5;"/>
    <path clip-path="url(#pdeded11baa)" d="M 311.326037 208.344975 
L 311.326037 188.783389 
" style="fill:none;stroke:#0000ff;stroke-width:1.5;"/>
    <path clip-path="url(#pdeded11baa)" d="M 315.532463 219.940809 
L 315.532463 201.488895 
" style="fill:none;stroke:#0000ff;stroke-width:1.5;"/>
    <path clip-path="url(#pdeded11baa)" d="M 319.73889 233.149205 
L 319.73889 216.053459 
" style="fill:none;stroke:#0000ff;stroke-width:1.5;"/>
    <path clip-path="url(#pdeded11baa)" d="M 323.945316 233.149205 
L 323.945316 216.053459 
" style="fill:none;stroke:#0000ff;stroke-width:1.5;"/>
    <path clip-path="url(#pdeded11baa)" d="M 328.151743 252.029148 
L 328.151743 237.097146 
" style="fill:none;stroke:#0000ff;stroke-width:1.5;"/>
    <path clip-path="url(#pdeded11baa)" d="M 332.358169 260.185437 
L 332.358169 246.298957 
" style="fill:none;stroke:#0000ff;stroke-width:1.5;"/>
    <path clip-path="url(#pdeded11baa)" d="M 336.564596 263.436581 
L 336.564596 249.991054 
" style="fill:none;stroke:#0000ff;stroke-width:1.5;"/>
    <path clip-path="url(#pdeded11baa)" d="M 340.771022 263.436581 
L 340.771022 249.991054 
" style="fill:none;stroke:#0000ff;stroke-width:1.5;"/>
    <path clip-path="url(#pdeded11baa)" d="M 344.977449 269.107596 
L 344.977449 256.470709 
" style="fill:none;stroke:#0000ff;stroke-width:1.5;"/>
    <path clip-path="url(#pdeded11baa)" d="M 349.183875 277.960775 
L 349.183875 266.71144 
" style="fill:none;stroke:#0000ff;stroke-width:1.5;"/>
    <path clip-path="url(#pdeded11baa)" d="M 353.390302 281.157853 
L 353.390302 270.457602 
" style="fill:none;stroke:#0000ff;stroke-width:1.5;"/>
    <path clip-path="url(#pdeded11baa)" d="M 357.596728 285.132987 
L 357.596728 275.161518 
" style="fill:none;stroke:#0000ff;stroke-width:1.5;"/>
    <path clip-path="url(#pdeded11baa)" d="M 361.803155 294.539353 
L 361.803155 286.584872 
" style="fill:none;stroke:#0000ff;stroke-width:1.5;"/>
    <path clip-path="url(#pdeded11baa)" d="M 366.009581 292.988629 
L 366.009581 284.663976 
" style="fill:none;stroke:#0000ff;stroke-width:1.5;"/>
    <path clip-path="url(#pdeded11baa)" d="M 370.216008 295.311407 
L 370.216008 287.548628 
" style="fill:none;stroke:#0000ff;stroke-width:1.5;"/>
    <path clip-path="url(#pdeded11baa)" d="M 374.422434 299.130924 
L 374.422434 292.408161 
" style="fill:none;stroke:#0000ff;stroke-width:1.5;"/>
    <path clip-path="url(#pdeded11baa)" d="M 378.628861 301.379769 
L 378.628861 295.366746 
" style="fill:none;stroke:#0000ff;stroke-width:1.5;"/>
    <path clip-path="url(#pdeded11baa)" d="M 382.835287 305.009043 
L 382.835287 300.416522 
" style="fill:none;stroke:#0000ff;stroke-width:1.5;"/>
    <path clip-path="url(#pdeded11baa)" d="M 387.041714 298.373258 
L 387.041714 291.430018 
" style="fill:none;stroke:#0000ff;stroke-width:1.5;"/>
    <path clip-path="url(#pdeded11baa)" d="M 391.24814 304.299684 
L 391.24814 299.390072 
" style="fill:none;stroke:#0000ff;stroke-width:1.5;"/>
    <path clip-path="url(#pdeded11baa)" d="M 395.454567 305.706612 
L 395.454567 301.454763 
" style="fill:none;stroke:#0000ff;stroke-width:1.5;"/>
    <path clip-path="url(#pdeded11baa)" d="M 399.660993 302.853624 
L 399.660993 297.364511 
" style="fill:none;stroke:#0000ff;stroke-width:1.5;"/>
    <path clip-path="url(#pdeded11baa)" d="M 403.86742 307.052308 
L 403.86742 303.580688 
" style="fill:none;stroke:#0000ff;stroke-width:1.5;"/>
    <path clip-path="url(#pdeded11baa)" d="M 408.073846 307.052308 
L 408.073846 303.580688 
" style="fill:none;stroke:#0000ff;stroke-width:1.5;"/>
   </g>
   <g id="line2d_29">
    <path clip-path="url(#pdeded11baa)" d="M 75.766154 299.417252 
L 87.741206 297.09876 
L 96.057214 295.277032 
L 103.042661 293.522186 
L 109.030187 291.789053 
L 114.352432 290.019408 
L 119.342037 288.12034 
L 123.999002 286.099847 
L 128.323326 283.976541 
L 132.31501 281.778678 
L 136.306694 279.328102 
L 140.298378 276.601659 
L 143.957422 273.841273 
L 147.616466 270.815024 
L 151.275509 267.50917 
L 154.934553 263.912333 
L 158.593597 260.016037 
L 162.25264 255.815272 
L 166.244324 250.884304 
L 170.236008 245.59473 
L 174.560333 239.473762 
L 178.884657 232.971625 
L 183.874262 225.044241 
L 189.529148 215.603106 
L 196.847235 202.894824 
L 211.150769 177.938021 
L 216.140374 169.725487 
L 220.464699 163.028204 
L 224.123742 157.752366 
L 227.450146 153.325526 
L 230.443909 149.682192 
L 233.437672 146.395085 
L 236.098794 143.796391 
L 238.759917 141.521817 
L 241.088399 139.810989 
L 243.416881 138.371653 
L 245.745364 137.212627 
L 247.741206 136.447926 
L 249.737048 135.898413 
L 251.73289 135.56704 
L 253.728732 135.455908 
L 255.724574 135.566248 
L 257.720416 135.898414 
L 259.716258 136.451877 
L 261.7121 137.225228 
L 263.707942 138.216187 
L 266.036424 139.643102 
L 268.364906 141.355473 
L 270.693389 143.345376 
L 273.354511 145.94732 
L 276.015634 148.883371 
L 278.676757 152.135281 
L 281.67052 156.146046 
L 284.996923 161.003182 
L 288.655967 166.77968 
L 292.647651 173.524794 
L 297.304615 181.863881 
L 302.959501 192.472478 
L 314.269272 214.314739 
L 321.92 228.801321 
L 327.574886 239.021011 
L 332.23185 247.000979 
L 336.556175 253.9938 
L 340.547859 260.054998 
L 344.539543 265.713733 
L 348.198586 270.53396 
L 351.85763 274.996529 
L 355.516674 279.099987 
L 359.175717 282.847278 
L 362.502121 285.950491 
L 365.828524 288.772425 
L 369.154927 291.322477 
L 372.481331 293.611613 
L 375.807734 295.652029 
L 379.466778 297.624896 
L 383.125821 299.331033 
L 386.784865 300.789274 
L 390.443909 302.018585 
L 394.435593 303.120602 
L 398.427277 303.996228 
L 402.751601 304.715683 
L 407.408565 305.254346 
L 408.073846 305.31311 
L 408.073846 305.31311 
" style="fill:none;stroke:#ff0000;stroke-linecap:square;stroke-width:1.5;"/>
   </g>
   <g id="line2d_30">
    <g clip-path="url(#pdeded11baa)">
     <use style="fill:#0000ff;stroke:#0000ff;" x="75.766154" xlink:href="#mf5f6001bd9" y="298.373258"/>
     <use style="fill:#0000ff;stroke:#0000ff;" x="79.97258" xlink:href="#mf5f6001bd9" y="292.297923"/>
     <use style="fill:#0000ff;stroke:#0000ff;" x="84.179007" xlink:href="#mf5f6001bd9" y="300.976973"/>
     <use style="fill:#0000ff;stroke:#0000ff;" x="88.385433" xlink:href="#mf5f6001bd9" y="293.165828"/>
     <use style="fill:#0000ff;stroke:#0000ff;" x="92.59186" xlink:href="#mf5f6001bd9" y="298.373258"/>
     <use style="fill:#0000ff;stroke:#0000ff;" x="96.798286" xlink:href="#mf5f6001bd9" y="292.297923"/>
     <use style="fill:#0000ff;stroke:#0000ff;" x="101.004713" xlink:href="#mf5f6001bd9" y="298.373258"/>
     <use style="fill:#0000ff;stroke:#0000ff;" x="105.211139" xlink:href="#mf5f6001bd9" y="288.826303"/>
     <use style="fill:#0000ff;stroke:#0000ff;" x="109.417566" xlink:href="#mf5f6001bd9" y="292.297923"/>
     <use style="fill:#0000ff;stroke:#0000ff;" x="113.623992" xlink:href="#mf5f6001bd9" y="291.430018"/>
     <use style="fill:#0000ff;stroke:#0000ff;" x="117.830419" xlink:href="#mf5f6001bd9" y="292.297923"/>
     <use style="fill:#0000ff;stroke:#0000ff;" x="122.036845" xlink:href="#mf5f6001bd9" y="287.090493"/>
     <use style="fill:#0000ff;stroke:#0000ff;" x="126.243272" xlink:href="#mf5f6001bd9" y="269.732392"/>
     <use style="fill:#0000ff;stroke:#0000ff;" x="130.449698" xlink:href="#mf5f6001bd9" y="274.071917"/>
     <use style="fill:#0000ff;stroke:#0000ff;" x="134.656125" xlink:href="#mf5f6001bd9" y="286.222588"/>
     <use style="fill:#0000ff;stroke:#0000ff;" x="138.862551" xlink:href="#mf5f6001bd9" y="281.883063"/>
     <use style="fill:#0000ff;stroke:#0000ff;" x="143.068978" xlink:href="#mf5f6001bd9" y="280.147253"/>
     <use style="fill:#0000ff;stroke:#0000ff;" x="147.275404" xlink:href="#mf5f6001bd9" y="264.524962"/>
     <use style="fill:#0000ff;stroke:#0000ff;" x="151.481831" xlink:href="#mf5f6001bd9" y="261.053342"/>
     <use style="fill:#0000ff;stroke:#0000ff;" x="155.688257" xlink:href="#mf5f6001bd9" y="261.053342"/>
     <use style="fill:#0000ff;stroke:#0000ff;" x="159.894684" xlink:href="#mf5f6001bd9" y="261.053342"/>
     <use style="fill:#0000ff;stroke:#0000ff;" x="164.10111" xlink:href="#mf5f6001bd9" y="261.053342"/>
     <use style="fill:#0000ff;stroke:#0000ff;" x="168.307537" xlink:href="#mf5f6001bd9" y="254.110102"/>
     <use style="fill:#0000ff;stroke:#0000ff;" x="172.513963" xlink:href="#mf5f6001bd9" y="231.544572"/>
     <use style="fill:#0000ff;stroke:#0000ff;" x="176.720389" xlink:href="#mf5f6001bd9" y="243.695242"/>
     <use style="fill:#0000ff;stroke:#0000ff;" x="180.926816" xlink:href="#mf5f6001bd9" y="219.393902"/>
     <use style="fill:#0000ff;stroke:#0000ff;" x="185.133242" xlink:href="#mf5f6001bd9" y="206.375327"/>
     <use style="fill:#0000ff;stroke:#0000ff;" x="189.339669" xlink:href="#mf5f6001bd9" y="211.582757"/>
     <use style="fill:#0000ff;stroke:#0000ff;" x="193.546095" xlink:href="#mf5f6001bd9" y="221.997617"/>
     <use style="fill:#0000ff;stroke:#0000ff;" x="197.752522" xlink:href="#mf5f6001bd9" y="200.299992"/>
     <use style="fill:#0000ff;stroke:#0000ff;" x="201.958948" xlink:href="#mf5f6001bd9" y="194.224657"/>
     <use style="fill:#0000ff;stroke:#0000ff;" x="206.165375" xlink:href="#mf5f6001bd9" y="182.073987"/>
     <use style="fill:#0000ff;stroke:#0000ff;" x="210.371801" xlink:href="#mf5f6001bd9" y="160.376362"/>
     <use style="fill:#0000ff;stroke:#0000ff;" x="214.578228" xlink:href="#mf5f6001bd9" y="160.376362"/>
     <use style="fill:#0000ff;stroke:#0000ff;" x="218.784654" xlink:href="#mf5f6001bd9" y="180.338177"/>
     <use style="fill:#0000ff;stroke:#0000ff;" x="222.991081" xlink:href="#mf5f6001bd9" y="162.112172"/>
     <use style="fill:#0000ff;stroke:#0000ff;" x="227.197507" xlink:href="#mf5f6001bd9" y="151.697312"/>
     <use style="fill:#0000ff;stroke:#0000ff;" x="231.403934" xlink:href="#mf5f6001bd9" y="144.754072"/>
     <use style="fill:#0000ff;stroke:#0000ff;" x="235.61036" xlink:href="#mf5f6001bd9" y="170.791222"/>
     <use style="fill:#0000ff;stroke:#0000ff;" x="239.816787" xlink:href="#mf5f6001bd9" y="120.452731"/>
     <use style="fill:#0000ff;stroke:#0000ff;" x="244.023213" xlink:href="#mf5f6001bd9" y="137.810832"/>
     <use style="fill:#0000ff;stroke:#0000ff;" x="248.22964" xlink:href="#mf5f6001bd9" y="130.867591"/>
     <use style="fill:#0000ff;stroke:#0000ff;" x="252.436066" xlink:href="#mf5f6001bd9" y="151.697312"/>
     <use style="fill:#0000ff;stroke:#0000ff;" x="256.642493" xlink:href="#mf5f6001bd9" y="142.150357"/>
     <use style="fill:#0000ff;stroke:#0000ff;" x="260.848919" xlink:href="#mf5f6001bd9" y="135.207117"/>
     <use style="fill:#0000ff;stroke:#0000ff;" x="265.055346" xlink:href="#mf5f6001bd9" y="130.867591"/>
     <use style="fill:#0000ff;stroke:#0000ff;" x="269.261772" xlink:href="#mf5f6001bd9" y="162.980077"/>
     <use style="fill:#0000ff;stroke:#0000ff;" x="273.468199" xlink:href="#mf5f6001bd9" y="138.678737"/>
     <use style="fill:#0000ff;stroke:#0000ff;" x="277.674625" xlink:href="#mf5f6001bd9" y="147.357787"/>
     <use style="fill:#0000ff;stroke:#0000ff;" x="281.881052" xlink:href="#mf5f6001bd9" y="155.168932"/>
     <use style="fill:#0000ff;stroke:#0000ff;" x="286.087478" xlink:href="#mf5f6001bd9" y="161.244267"/>
     <use style="fill:#0000ff;stroke:#0000ff;" x="290.293905" xlink:href="#mf5f6001bd9" y="174.262842"/>
     <use style="fill:#0000ff;stroke:#0000ff;" x="294.500331" xlink:href="#mf5f6001bd9" y="158.640552"/>
     <use style="fill:#0000ff;stroke:#0000ff;" x="298.706758" xlink:href="#mf5f6001bd9" y="190.753037"/>
     <use style="fill:#0000ff;stroke:#0000ff;" x="302.913184" xlink:href="#mf5f6001bd9" y="191.620942"/>
     <use style="fill:#0000ff;stroke:#0000ff;" x="307.119611" xlink:href="#mf5f6001bd9" y="195.960467"/>
     <use style="fill:#0000ff;stroke:#0000ff;" x="311.326037" xlink:href="#mf5f6001bd9" y="198.564182"/>
     <use style="fill:#0000ff;stroke:#0000ff;" x="315.532463" xlink:href="#mf5f6001bd9" y="210.714852"/>
     <use style="fill:#0000ff;stroke:#0000ff;" x="319.73889" xlink:href="#mf5f6001bd9" y="224.601332"/>
     <use style="fill:#0000ff;stroke:#0000ff;" x="323.945316" xlink:href="#mf5f6001bd9" y="224.601332"/>
     <use style="fill:#0000ff;stroke:#0000ff;" x="328.151743" xlink:href="#mf5f6001bd9" y="244.563147"/>
     <use style="fill:#0000ff;stroke:#0000ff;" x="332.358169" xlink:href="#mf5f6001bd9" y="253.242197"/>
     <use style="fill:#0000ff;stroke:#0000ff;" x="336.564596" xlink:href="#mf5f6001bd9" y="256.713817"/>
     <use style="fill:#0000ff;stroke:#0000ff;" x="340.771022" xlink:href="#mf5f6001bd9" y="256.713817"/>
     <use style="fill:#0000ff;stroke:#0000ff;" x="344.977449" xlink:href="#mf5f6001bd9" y="262.789152"/>
     <use style="fill:#0000ff;stroke:#0000ff;" x="349.183875" xlink:href="#mf5f6001bd9" y="272.336107"/>
     <use style="fill:#0000ff;stroke:#0000ff;" x="353.390302" xlink:href="#mf5f6001bd9" y="275.807727"/>
     <use style="fill:#0000ff;stroke:#0000ff;" x="357.596728" xlink:href="#mf5f6001bd9" y="280.147253"/>
     <use style="fill:#0000ff;stroke:#0000ff;" x="361.803155" xlink:href="#mf5f6001bd9" y="290.562113"/>
     <use style="fill:#0000ff;stroke:#0000ff;" x="366.009581" xlink:href="#mf5f6001bd9" y="288.826303"/>
     <use style="fill:#0000ff;stroke:#0000ff;" x="370.216008" xlink:href="#mf5f6001bd9" y="291.430018"/>
     <use style="fill:#0000ff;stroke:#0000ff;" x="374.422434" xlink:href="#mf5f6001bd9" y="295.769543"/>
     <use style="fill:#0000ff;stroke:#0000ff;" x="378.628861" xlink:href="#mf5f6001bd9" y="298.373258"/>
     <use style="fill:#0000ff;stroke:#0000ff;" x="382.835287" xlink:href="#mf5f6001bd9" y="302.712783"/>
     <use style="fill:#0000ff;stroke:#0000ff;" x="387.041714" xlink:href="#mf5f6001bd9" y="294.901638"/>
     <use style="fill:#0000ff;stroke:#0000ff;" x="391.24814" xlink:href="#mf5f6001bd9" y="301.844878"/>
     <use style="fill:#0000ff;stroke:#0000ff;" x="395.454567" xlink:href="#mf5f6001bd9" y="303.580688"/>
     <use style="fill:#0000ff;stroke:#0000ff;" x="399.660993" xlink:href="#mf5f6001bd9" y="300.109068"/>
     <use style="fill:#0000ff;stroke:#0000ff;" x="403.86742" xlink:href="#mf5f6001bd9" y="305.316498"/>
     <use style="fill:#0000ff;stroke:#0000ff;" x="408.073846" xlink:href="#mf5f6001bd9" y="305.316498"/>
    </g>
   </g>
   <g id="patch_8">
    <path d="M 69.12 311.04 
L 69.12 103.68 
" style="fill:none;stroke:#000000;stroke-linecap:square;stroke-linejoin:miter;stroke-width:0.8;"/>
   </g>
   <g id="patch_9">
    <path d="M 414.72 311.04 
L 414.72 103.68 
" style="fill:none;stroke:#000000;stroke-linecap:square;stroke-linejoin:miter;stroke-width:0.8;"/>
   </g>
   <g id="patch_10">
    <path d="M 69.12 311.04 
L 414.72 311.04 
" style="fill:none;stroke:#000000;stroke-linecap:square;stroke-linejoin:miter;stroke-width:0.8;"/>
   </g>
   <g id="patch_11">
    <path d="M 69.12 103.68 
L 414.72 103.68 
" style="fill:none;stroke:#000000;stroke-linecap:square;stroke-linejoin:miter;stroke-width:0.8;"/>
   </g>
  </g>
 </g>
 <defs>
  <clipPath id="p337c6d7374">
   <rect height="51.84" width="345.6" x="69.12" y="44.928"/>
  </clipPath>
  <clipPath id="pdeded11baa">
   <rect height="207.36" width="345.6" x="69.12" y="103.68"/>
  </clipPath>
 </defs>
</svg>
