<?xml version="1.0" encoding="utf-8" standalone="no"?>
<!DOCTYPE svg PUBLIC "-//W3C//DTD SVG 1.1//EN"
  "http://www.w3.org/Graphics/SVG/1.1/DTD/svg11.dtd">
<!-- Created with matplotlib (https://matplotlib.org/) -->
<svg height="345.6pt" version="1.1" viewBox="0 0 460.8 345.6" width="460.8pt" xmlns="http://www.w3.org/2000/svg" xmlns:xlink="http://www.w3.org/1999/xlink">
 <defs>
  <style type="text/css">
*{stroke-linecap:butt;stroke-linejoin:round;}
  </style>
 </defs>
 <g id="figure_1">
  <g id="patch_1">
   <path d="M 0 345.6 
L 460.8 345.6 
L 460.8 0 
L 0 0 
z
" style="fill:#ffffff;"/>
  </g>
  <g id="axes_1">
   <g id="patch_2">
    <path d="M 69.12 96.768 
L 414.72 96.768 
L 414.72 44.928 
L 69.12 44.928 
z
" style="fill:#ffffff;"/>
   </g>
   <g id="matplotlib.axis_1">
    <g id="xtick_1">
     <g id="line2d_1">
      <defs>
       <path d="M 0 0 
L 0 3.5 
" id="m8c16ca5fd3" style="stroke:#000000;stroke-width:0.8;"/>
      </defs>
      <g>
       <use style="stroke:#000000;stroke-width:0.8;" x="75.766154" xlink:href="#m8c16ca5fd3" y="96.768"/>
      </g>
     </g>
    </g>
    <g id="xtick_2">
     <g id="line2d_2">
      <g>
       <use style="stroke:#000000;stroke-width:0.8;" x="132.089492" xlink:href="#m8c16ca5fd3" y="96.768"/>
      </g>
     </g>
    </g>
    <g id="xtick_3">
     <g id="line2d_3">
      <g>
       <use style="stroke:#000000;stroke-width:0.8;" x="188.412829" xlink:href="#m8c16ca5fd3" y="96.768"/>
      </g>
     </g>
    </g>
    <g id="xtick_4">
     <g id="line2d_4">
      <g>
       <use style="stroke:#000000;stroke-width:0.8;" x="244.736167" xlink:href="#m8c16ca5fd3" y="96.768"/>
      </g>
     </g>
    </g>
    <g id="xtick_5">
     <g id="line2d_5">
      <g>
       <use style="stroke:#000000;stroke-width:0.8;" x="301.059505" xlink:href="#m8c16ca5fd3" y="96.768"/>
      </g>
     </g>
    </g>
    <g id="xtick_6">
     <g id="line2d_6">
      <g>
       <use style="stroke:#000000;stroke-width:0.8;" x="357.382842" xlink:href="#m8c16ca5fd3" y="96.768"/>
      </g>
     </g>
    </g>
    <g id="xtick_7">
     <g id="line2d_7">
      <g>
       <use style="stroke:#000000;stroke-width:0.8;" x="413.70618" xlink:href="#m8c16ca5fd3" y="96.768"/>
      </g>
     </g>
    </g>
   </g>
   <g id="matplotlib.axis_2">
    <g id="ytick_1">
     <g id="line2d_8">
      <defs>
       <path d="M 0 0 
L -3.5 0 
" id="m27a1d3b6b6" style="stroke:#000000;stroke-width:0.8;"/>
      </defs>
      <g>
       <use style="stroke:#000000;stroke-width:0.8;" x="69.12" xlink:href="#m27a1d3b6b6" y="89.129151"/>
      </g>
     </g>
     <g id="text_1">
      <!-- −2.5 -->
      <defs>
       <path d="M 10.59375 35.5 
L 73.1875 35.5 
L 73.1875 27.203125 
L 10.59375 27.203125 
z
" id="DejaVuSans-8722"/>
       <path d="M 19.1875 8.296875 
L 53.609375 8.296875 
L 53.609375 0 
L 7.328125 0 
L 7.328125 8.296875 
Q 12.9375 14.109375 22.625 23.890625 
Q 32.328125 33.6875 34.8125 36.53125 
Q 39.546875 41.84375 41.421875 45.53125 
Q 43.3125 49.21875 43.3125 52.78125 
Q 43.3125 58.59375 39.234375 62.25 
Q 35.15625 65.921875 28.609375 65.921875 
Q 23.96875 65.921875 18.8125 64.3125 
Q 13.671875 62.703125 7.8125 59.421875 
L 7.8125 69.390625 
Q 13.765625 71.78125 18.9375 73 
Q 24.125 74.21875 28.421875 74.21875 
Q 39.75 74.21875 46.484375 68.546875 
Q 53.21875 62.890625 53.21875 53.421875 
Q 53.21875 48.921875 51.53125 44.890625 
Q 49.859375 40.875 45.40625 35.40625 
Q 44.1875 33.984375 37.640625 27.21875 
Q 31.109375 20.453125 19.1875 8.296875 
z
" id="DejaVuSans-50"/>
       <path d="M 10.6875 12.40625 
L 21 12.40625 
L 21 0 
L 10.6875 0 
z
" id="DejaVuSans-46"/>
       <path d="M 10.796875 72.90625 
L 49.515625 72.90625 
L 49.515625 64.59375 
L 19.828125 64.59375 
L 19.828125 46.734375 
Q 21.96875 47.46875 24.109375 47.828125 
Q 26.265625 48.1875 28.421875 48.1875 
Q 40.625 48.1875 47.75 41.5 
Q 54.890625 34.8125 54.890625 23.390625 
Q 54.890625 11.625 47.5625 5.09375 
Q 40.234375 -1.421875 26.90625 -1.421875 
Q 22.3125 -1.421875 17.546875 -0.640625 
Q 12.796875 0.140625 7.71875 1.703125 
L 7.71875 11.625 
Q 12.109375 9.234375 16.796875 8.0625 
Q 21.484375 6.890625 26.703125 6.890625 
Q 35.15625 6.890625 40.078125 11.328125 
Q 45.015625 15.765625 45.015625 23.390625 
Q 45.015625 31 40.078125 35.4375 
Q 35.15625 39.890625 26.703125 39.890625 
Q 22.75 39.890625 18.8125 39.015625 
Q 14.890625 38.140625 10.796875 36.28125 
z
" id="DejaVuSans-53"/>
      </defs>
      <g transform="translate(37.837187 92.92837)scale(0.1 -0.1)">
       <use xlink:href="#DejaVuSans-8722"/>
       <use x="83.789062" xlink:href="#DejaVuSans-50"/>
       <use x="147.412109" xlink:href="#DejaVuSans-46"/>
       <use x="179.199219" xlink:href="#DejaVuSans-53"/>
      </g>
     </g>
    </g>
    <g id="ytick_2">
     <g id="line2d_9">
      <g>
       <use style="stroke:#000000;stroke-width:0.8;" x="69.12" xlink:href="#m27a1d3b6b6" y="71.661481"/>
      </g>
     </g>
    </g>
    <g id="ytick_3">
     <g id="line2d_10">
      <g>
       <use style="stroke:#000000;stroke-width:0.8;" x="69.12" xlink:href="#m27a1d3b6b6" y="54.193811"/>
      </g>
     </g>
     <g id="text_2">
      <!-- 2.5 -->
      <g transform="translate(46.216875 57.99303)scale(0.1 -0.1)">
       <use xlink:href="#DejaVuSans-50"/>
       <use x="63.623047" xlink:href="#DejaVuSans-46"/>
       <use x="95.410156" xlink:href="#DejaVuSans-53"/>
      </g>
     </g>
    </g>
    <g id="text_3">
     <!-- Studentized -->
     <defs>
      <path d="M 53.515625 70.515625 
L 53.515625 60.890625 
Q 47.90625 63.578125 42.921875 64.890625 
Q 37.9375 66.21875 33.296875 66.21875 
Q 25.25 66.21875 20.875 63.09375 
Q 16.5 59.96875 16.5 54.203125 
Q 16.5 49.359375 19.40625 46.890625 
Q 22.3125 44.4375 30.421875 42.921875 
L 36.375 41.703125 
Q 47.40625 39.59375 52.65625 34.296875 
Q 57.90625 29 57.90625 20.125 
Q 57.90625 9.515625 50.796875 4.046875 
Q 43.703125 -1.421875 29.984375 -1.421875 
Q 24.8125 -1.421875 18.96875 -0.25 
Q 13.140625 0.921875 6.890625 3.21875 
L 6.890625 13.375 
Q 12.890625 10.015625 18.65625 8.296875 
Q 24.421875 6.59375 29.984375 6.59375 
Q 38.421875 6.59375 43.015625 9.90625 
Q 47.609375 13.234375 47.609375 19.390625 
Q 47.609375 24.75 44.3125 27.78125 
Q 41.015625 30.8125 33.5 32.328125 
L 27.484375 33.5 
Q 16.453125 35.6875 11.515625 40.375 
Q 6.59375 45.0625 6.59375 53.421875 
Q 6.59375 63.09375 13.40625 68.65625 
Q 20.21875 74.21875 32.171875 74.21875 
Q 37.3125 74.21875 42.625 73.28125 
Q 47.953125 72.359375 53.515625 70.515625 
z
" id="DejaVuSans-83"/>
      <path d="M 18.3125 70.21875 
L 18.3125 54.6875 
L 36.8125 54.6875 
L 36.8125 47.703125 
L 18.3125 47.703125 
L 18.3125 18.015625 
Q 18.3125 11.328125 20.140625 9.421875 
Q 21.96875 7.515625 27.59375 7.515625 
L 36.8125 7.515625 
L 36.8125 0 
L 27.59375 0 
Q 17.1875 0 13.234375 3.875 
Q 9.28125 7.765625 9.28125 18.015625 
L 9.28125 47.703125 
L 2.6875 47.703125 
L 2.6875 54.6875 
L 9.28125 54.6875 
L 9.28125 70.21875 
z
" id="DejaVuSans-116"/>
      <path d="M 8.5 21.578125 
L 8.5 54.6875 
L 17.484375 54.6875 
L 17.484375 21.921875 
Q 17.484375 14.15625 20.5 10.265625 
Q 23.53125 6.390625 29.59375 6.390625 
Q 36.859375 6.390625 41.078125 11.03125 
Q 45.3125 15.671875 45.3125 23.6875 
L 45.3125 54.6875 
L 54.296875 54.6875 
L 54.296875 0 
L 45.3125 0 
L 45.3125 8.40625 
Q 42.046875 3.421875 37.71875 1 
Q 33.40625 -1.421875 27.6875 -1.421875 
Q 18.265625 -1.421875 13.375 4.4375 
Q 8.5 10.296875 8.5 21.578125 
z
M 31.109375 56 
z
" id="DejaVuSans-117"/>
      <path d="M 45.40625 46.390625 
L 45.40625 75.984375 
L 54.390625 75.984375 
L 54.390625 0 
L 45.40625 0 
L 45.40625 8.203125 
Q 42.578125 3.328125 38.25 0.953125 
Q 33.9375 -1.421875 27.875 -1.421875 
Q 17.96875 -1.421875 11.734375 6.484375 
Q 5.515625 14.40625 5.515625 27.296875 
Q 5.515625 40.1875 11.734375 48.09375 
Q 17.96875 56 27.875 56 
Q 33.9375 56 38.25 53.625 
Q 42.578125 51.265625 45.40625 46.390625 
z
M 14.796875 27.296875 
Q 14.796875 17.390625 18.875 11.75 
Q 22.953125 6.109375 30.078125 6.109375 
Q 37.203125 6.109375 41.296875 11.75 
Q 45.40625 17.390625 45.40625 27.296875 
Q 45.40625 37.203125 41.296875 42.84375 
Q 37.203125 48.484375 30.078125 48.484375 
Q 22.953125 48.484375 18.875 42.84375 
Q 14.796875 37.203125 14.796875 27.296875 
z
" id="DejaVuSans-100"/>
      <path d="M 56.203125 29.59375 
L 56.203125 25.203125 
L 14.890625 25.203125 
Q 15.484375 15.921875 20.484375 11.0625 
Q 25.484375 6.203125 34.421875 6.203125 
Q 39.59375 6.203125 44.453125 7.46875 
Q 49.3125 8.734375 54.109375 11.28125 
L 54.109375 2.78125 
Q 49.265625 0.734375 44.1875 -0.34375 
Q 39.109375 -1.421875 33.890625 -1.421875 
Q 20.796875 -1.421875 13.15625 6.1875 
Q 5.515625 13.8125 5.515625 26.8125 
Q 5.515625 40.234375 12.765625 48.109375 
Q 20.015625 56 32.328125 56 
Q 43.359375 56 49.78125 48.890625 
Q 56.203125 41.796875 56.203125 29.59375 
z
M 47.21875 32.234375 
Q 47.125 39.59375 43.09375 43.984375 
Q 39.0625 48.390625 32.421875 48.390625 
Q 24.90625 48.390625 20.390625 44.140625 
Q 15.875 39.890625 15.1875 32.171875 
z
" id="DejaVuSans-101"/>
      <path d="M 54.890625 33.015625 
L 54.890625 0 
L 45.90625 0 
L 45.90625 32.71875 
Q 45.90625 40.484375 42.875 44.328125 
Q 39.84375 48.1875 33.796875 48.1875 
Q 26.515625 48.1875 22.3125 43.546875 
Q 18.109375 38.921875 18.109375 30.90625 
L 18.109375 0 
L 9.078125 0 
L 9.078125 54.6875 
L 18.109375 54.6875 
L 18.109375 46.1875 
Q 21.34375 51.125 25.703125 53.5625 
Q 30.078125 56 35.796875 56 
Q 45.21875 56 50.046875 50.171875 
Q 54.890625 44.34375 54.890625 33.015625 
z
" id="DejaVuSans-110"/>
      <path d="M 9.421875 54.6875 
L 18.40625 54.6875 
L 18.40625 0 
L 9.421875 0 
z
M 9.421875 75.984375 
L 18.40625 75.984375 
L 18.40625 64.59375 
L 9.421875 64.59375 
z
" id="DejaVuSans-105"/>
      <path d="M 5.515625 54.6875 
L 48.1875 54.6875 
L 48.1875 46.484375 
L 14.40625 7.171875 
L 48.1875 7.171875 
L 48.1875 0 
L 4.296875 0 
L 4.296875 8.203125 
L 38.09375 47.515625 
L 5.515625 47.515625 
z
" id="DejaVuSans-122"/>
     </defs>
     <g transform="translate(20.559687 100.794875)rotate(-90)scale(0.1 -0.1)">
      <use xlink:href="#DejaVuSans-83"/>
      <use x="63.476562" xlink:href="#DejaVuSans-116"/>
      <use x="102.685547" xlink:href="#DejaVuSans-117"/>
      <use x="166.064453" xlink:href="#DejaVuSans-100"/>
      <use x="229.541016" xlink:href="#DejaVuSans-101"/>
      <use x="291.064453" xlink:href="#DejaVuSans-110"/>
      <use x="354.443359" xlink:href="#DejaVuSans-116"/>
      <use x="393.652344" xlink:href="#DejaVuSans-105"/>
      <use x="421.435547" xlink:href="#DejaVuSans-122"/>
      <use x="473.925781" xlink:href="#DejaVuSans-101"/>
      <use x="535.449219" xlink:href="#DejaVuSans-100"/>
     </g>
     <!-- Residuals -->
     <defs>
      <path d="M 44.390625 34.1875 
Q 47.5625 33.109375 50.5625 29.59375 
Q 53.5625 26.078125 56.59375 19.921875 
L 66.609375 0 
L 56 0 
L 46.6875 18.703125 
Q 43.0625 26.03125 39.671875 28.421875 
Q 36.28125 30.8125 30.421875 30.8125 
L 19.671875 30.8125 
L 19.671875 0 
L 9.8125 0 
L 9.8125 72.90625 
L 32.078125 72.90625 
Q 44.578125 72.90625 50.734375 67.671875 
Q 56.890625 62.453125 56.890625 51.90625 
Q 56.890625 45.015625 53.6875 40.46875 
Q 50.484375 35.9375 44.390625 34.1875 
z
M 19.671875 64.796875 
L 19.671875 38.921875 
L 32.078125 38.921875 
Q 39.203125 38.921875 42.84375 42.21875 
Q 46.484375 45.515625 46.484375 51.90625 
Q 46.484375 58.296875 42.84375 61.546875 
Q 39.203125 64.796875 32.078125 64.796875 
z
" id="DejaVuSans-82"/>
      <path d="M 44.28125 53.078125 
L 44.28125 44.578125 
Q 40.484375 46.53125 36.375 47.5 
Q 32.28125 48.484375 27.875 48.484375 
Q 21.1875 48.484375 17.84375 46.4375 
Q 14.5 44.390625 14.5 40.28125 
Q 14.5 37.15625 16.890625 35.375 
Q 19.28125 33.59375 26.515625 31.984375 
L 29.59375 31.296875 
Q 39.15625 29.25 43.1875 25.515625 
Q 47.21875 21.78125 47.21875 15.09375 
Q 47.21875 7.46875 41.1875 3.015625 
Q 35.15625 -1.421875 24.609375 -1.421875 
Q 20.21875 -1.421875 15.453125 -0.5625 
Q 10.6875 0.296875 5.421875 2 
L 5.421875 11.28125 
Q 10.40625 8.6875 15.234375 7.390625 
Q 20.0625 6.109375 24.8125 6.109375 
Q 31.15625 6.109375 34.5625 8.28125 
Q 37.984375 10.453125 37.984375 14.40625 
Q 37.984375 18.0625 35.515625 20.015625 
Q 33.0625 21.96875 24.703125 23.78125 
L 21.578125 24.515625 
Q 13.234375 26.265625 9.515625 29.90625 
Q 5.8125 33.546875 5.8125 39.890625 
Q 5.8125 47.609375 11.28125 51.796875 
Q 16.75 56 26.8125 56 
Q 31.78125 56 36.171875 55.265625 
Q 40.578125 54.546875 44.28125 53.078125 
z
" id="DejaVuSans-115"/>
      <path d="M 34.28125 27.484375 
Q 23.390625 27.484375 19.1875 25 
Q 14.984375 22.515625 14.984375 16.5 
Q 14.984375 11.71875 18.140625 8.90625 
Q 21.296875 6.109375 26.703125 6.109375 
Q 34.1875 6.109375 38.703125 11.40625 
Q 43.21875 16.703125 43.21875 25.484375 
L 43.21875 27.484375 
z
M 52.203125 31.203125 
L 52.203125 0 
L 43.21875 0 
L 43.21875 8.296875 
Q 40.140625 3.328125 35.546875 0.953125 
Q 30.953125 -1.421875 24.3125 -1.421875 
Q 15.921875 -1.421875 10.953125 3.296875 
Q 6 8.015625 6 15.921875 
Q 6 25.140625 12.171875 29.828125 
Q 18.359375 34.515625 30.609375 34.515625 
L 43.21875 34.515625 
L 43.21875 35.40625 
Q 43.21875 41.609375 39.140625 45 
Q 35.0625 48.390625 27.6875 48.390625 
Q 23 48.390625 18.546875 47.265625 
Q 14.109375 46.140625 10.015625 43.890625 
L 10.015625 52.203125 
Q 14.9375 54.109375 19.578125 55.046875 
Q 24.21875 56 28.609375 56 
Q 40.484375 56 46.34375 49.84375 
Q 52.203125 43.703125 52.203125 31.203125 
z
" id="DejaVuSans-97"/>
      <path d="M 9.421875 75.984375 
L 18.40625 75.984375 
L 18.40625 0 
L 9.421875 0 
z
" id="DejaVuSans-108"/>
     </defs>
     <g transform="translate(31.7575 94.790188)rotate(-90)scale(0.1 -0.1)">
      <use xlink:href="#DejaVuSans-82"/>
      <use x="69.419922" xlink:href="#DejaVuSans-101"/>
      <use x="130.943359" xlink:href="#DejaVuSans-115"/>
      <use x="183.042969" xlink:href="#DejaVuSans-105"/>
      <use x="210.826172" xlink:href="#DejaVuSans-100"/>
      <use x="274.302734" xlink:href="#DejaVuSans-117"/>
      <use x="337.681641" xlink:href="#DejaVuSans-97"/>
      <use x="398.960938" xlink:href="#DejaVuSans-108"/>
      <use x="426.744141" xlink:href="#DejaVuSans-115"/>
     </g>
    </g>
   </g>
   <g id="LineCollection_1">
    <path clip-path="url(#p6c893b6cc5)" d="M 75.766154 71.220686 
L 75.766154 57.24655 
" style="fill:none;stroke:#0000ff;stroke-width:1.5;"/>
    <path clip-path="url(#p6c893b6cc5)" d="M 81.398488 87.956604 
L 81.398488 73.982468 
" style="fill:none;stroke:#0000ff;stroke-width:1.5;"/>
    <path clip-path="url(#p6c893b6cc5)" d="M 87.030821 71.65587 
L 87.030821 57.681734 
" style="fill:none;stroke:#0000ff;stroke-width:1.5;"/>
    <path clip-path="url(#p6c893b6cc5)" d="M 92.663155 75.728059 
L 92.663155 61.753923 
" style="fill:none;stroke:#0000ff;stroke-width:1.5;"/>
    <path clip-path="url(#p6c893b6cc5)" d="M 98.295489 85.914911 
L 98.295489 71.940775 
" style="fill:none;stroke:#0000ff;stroke-width:1.5;"/>
    <path clip-path="url(#p6c893b6cc5)" d="M 103.927823 74.14959 
L 103.927823 60.175454 
" style="fill:none;stroke:#0000ff;stroke-width:1.5;"/>
    <path clip-path="url(#p6c893b6cc5)" d="M 109.560156 80.920621 
L 109.560156 66.946485 
" style="fill:none;stroke:#0000ff;stroke-width:1.5;"/>
    <path clip-path="url(#p6c893b6cc5)" d="M 115.19249 86.934348 
L 115.19249 72.960212 
" style="fill:none;stroke:#0000ff;stroke-width:1.5;"/>
    <path clip-path="url(#p6c893b6cc5)" d="M 120.824824 79.652001 
L 120.824824 65.677865 
" style="fill:none;stroke:#0000ff;stroke-width:1.5;"/>
    <path clip-path="url(#p6c893b6cc5)" d="M 126.457158 89.601107 
L 126.457158 75.626971 
" style="fill:none;stroke:#0000ff;stroke-width:1.5;"/>
    <path clip-path="url(#p6c893b6cc5)" d="M 132.089492 72.741168 
L 132.089492 58.767032 
" style="fill:none;stroke:#0000ff;stroke-width:1.5;"/>
    <path clip-path="url(#p6c893b6cc5)" d="M 137.721825 73.024026 
L 137.721825 59.04989 
" style="fill:none;stroke:#0000ff;stroke-width:1.5;"/>
    <path clip-path="url(#p6c893b6cc5)" d="M 143.354159 71.106017 
L 143.354159 57.131881 
" style="fill:none;stroke:#0000ff;stroke-width:1.5;"/>
    <path clip-path="url(#p6c893b6cc5)" d="M 148.986493 76.665956 
L 148.986493 62.69182 
" style="fill:none;stroke:#0000ff;stroke-width:1.5;"/>
    <path clip-path="url(#p6c893b6cc5)" d="M 154.618827 75.568294 
L 154.618827 61.594158 
" style="fill:none;stroke:#0000ff;stroke-width:1.5;"/>
    <path clip-path="url(#p6c893b6cc5)" d="M 160.25116 85.07935 
L 160.25116 71.105214 
" style="fill:none;stroke:#0000ff;stroke-width:1.5;"/>
    <path clip-path="url(#p6c893b6cc5)" d="M 165.883494 67.644244 
L 165.883494 53.670108 
" style="fill:none;stroke:#0000ff;stroke-width:1.5;"/>
    <path clip-path="url(#p6c893b6cc5)" d="M 171.515828 79.257081 
L 171.515828 65.282945 
" style="fill:none;stroke:#0000ff;stroke-width:1.5;"/>
    <path clip-path="url(#p6c893b6cc5)" d="M 177.148162 91.019472 
L 177.148162 77.045336 
" style="fill:none;stroke:#0000ff;stroke-width:1.5;"/>
    <path clip-path="url(#p6c893b6cc5)" d="M 182.780495 70.106304 
L 182.780495 56.132168 
" style="fill:none;stroke:#0000ff;stroke-width:1.5;"/>
    <path clip-path="url(#p6c893b6cc5)" d="M 188.412829 83.132658 
L 188.412829 69.158522 
" style="fill:none;stroke:#0000ff;stroke-width:1.5;"/>
    <path clip-path="url(#p6c893b6cc5)" d="M 194.045163 62.776186 
L 194.045163 48.80205 
" style="fill:none;stroke:#0000ff;stroke-width:1.5;"/>
    <path clip-path="url(#p6c893b6cc5)" d="M 199.677497 81.685365 
L 199.677497 67.711229 
" style="fill:none;stroke:#0000ff;stroke-width:1.5;"/>
    <path clip-path="url(#p6c893b6cc5)" d="M 205.309831 94.411636 
L 205.309831 80.4375 
" style="fill:none;stroke:#0000ff;stroke-width:1.5;"/>
    <path clip-path="url(#p6c893b6cc5)" d="M 210.942164 77.75413 
L 210.942164 63.779994 
" style="fill:none;stroke:#0000ff;stroke-width:1.5;"/>
    <path clip-path="url(#p6c893b6cc5)" d="M 216.574498 79.666718 
L 216.574498 65.692582 
" style="fill:none;stroke:#0000ff;stroke-width:1.5;"/>
    <path clip-path="url(#p6c893b6cc5)" d="M 222.206832 71.094678 
L 222.206832 57.120542 
" style="fill:none;stroke:#0000ff;stroke-width:1.5;"/>
    <path clip-path="url(#p6c893b6cc5)" d="M 227.839166 84.239097 
L 227.839166 70.264961 
" style="fill:none;stroke:#0000ff;stroke-width:1.5;"/>
    <path clip-path="url(#p6c893b6cc5)" d="M 233.471499 85.577843 
L 233.471499 71.603707 
" style="fill:none;stroke:#0000ff;stroke-width:1.5;"/>
    <path clip-path="url(#p6c893b6cc5)" d="M 239.103833 67.916307 
L 239.103833 53.942171 
" style="fill:none;stroke:#0000ff;stroke-width:1.5;"/>
    <path clip-path="url(#p6c893b6cc5)" d="M 244.736167 88.36969 
L 244.736167 74.395554 
" style="fill:none;stroke:#0000ff;stroke-width:1.5;"/>
    <path clip-path="url(#p6c893b6cc5)" d="M 250.368501 90.157058 
L 250.368501 76.182922 
" style="fill:none;stroke:#0000ff;stroke-width:1.5;"/>
    <path clip-path="url(#p6c893b6cc5)" d="M 256.000834 75.955481 
L 256.000834 61.981345 
" style="fill:none;stroke:#0000ff;stroke-width:1.5;"/>
    <path clip-path="url(#p6c893b6cc5)" d="M 261.633168 61.2585 
L 261.633168 47.284364 
" style="fill:none;stroke:#0000ff;stroke-width:1.5;"/>
    <path clip-path="url(#p6c893b6cc5)" d="M 267.265502 78.733441 
L 267.265502 64.759305 
" style="fill:none;stroke:#0000ff;stroke-width:1.5;"/>
    <path clip-path="url(#p6c893b6cc5)" d="M 272.897836 89.373891 
L 272.897836 75.399755 
" style="fill:none;stroke:#0000ff;stroke-width:1.5;"/>
    <path clip-path="url(#p6c893b6cc5)" d="M 278.530169 76.436847 
L 278.530169 62.46271 
" style="fill:none;stroke:#0000ff;stroke-width:1.5;"/>
    <path clip-path="url(#p6c893b6cc5)" d="M 284.162503 67.199356 
L 284.162503 53.22522 
" style="fill:none;stroke:#0000ff;stroke-width:1.5;"/>
    <path clip-path="url(#p6c893b6cc5)" d="M 289.794837 76.012586 
L 289.794837 62.03845 
" style="fill:none;stroke:#0000ff;stroke-width:1.5;"/>
    <path clip-path="url(#p6c893b6cc5)" d="M 295.427171 77.096222 
L 295.427171 63.122086 
" style="fill:none;stroke:#0000ff;stroke-width:1.5;"/>
    <path clip-path="url(#p6c893b6cc5)" d="M 301.059505 79.130541 
L 301.059505 65.156405 
" style="fill:none;stroke:#0000ff;stroke-width:1.5;"/>
    <path clip-path="url(#p6c893b6cc5)" d="M 306.691838 72.192392 
L 306.691838 58.218256 
" style="fill:none;stroke:#0000ff;stroke-width:1.5;"/>
    <path clip-path="url(#p6c893b6cc5)" d="M 312.324172 81.659661 
L 312.324172 67.685525 
" style="fill:none;stroke:#0000ff;stroke-width:1.5;"/>
    <path clip-path="url(#p6c893b6cc5)" d="M 317.956506 84.186834 
L 317.956506 70.212698 
" style="fill:none;stroke:#0000ff;stroke-width:1.5;"/>
    <path clip-path="url(#p6c893b6cc5)" d="M 323.58884 81.608917 
L 323.58884 67.634781 
" style="fill:none;stroke:#0000ff;stroke-width:1.5;"/>
    <path clip-path="url(#p6c893b6cc5)" d="M 329.221173 73.315065 
L 329.221173 59.340929 
" style="fill:none;stroke:#0000ff;stroke-width:1.5;"/>
    <path clip-path="url(#p6c893b6cc5)" d="M 334.853507 83.778992 
L 334.853507 69.804856 
" style="fill:none;stroke:#0000ff;stroke-width:1.5;"/>
    <path clip-path="url(#p6c893b6cc5)" d="M 340.485841 88.085278 
L 340.485841 74.111142 
" style="fill:none;stroke:#0000ff;stroke-width:1.5;"/>
    <path clip-path="url(#p6c893b6cc5)" d="M 346.118175 84.419451 
L 346.118175 70.445315 
" style="fill:none;stroke:#0000ff;stroke-width:1.5;"/>
    <path clip-path="url(#p6c893b6cc5)" d="M 351.750508 73.077354 
L 351.750508 59.103218 
" style="fill:none;stroke:#0000ff;stroke-width:1.5;"/>
    <path clip-path="url(#p6c893b6cc5)" d="M 357.382842 71.570418 
L 357.382842 57.596281 
" style="fill:none;stroke:#0000ff;stroke-width:1.5;"/>
    <path clip-path="url(#p6c893b6cc5)" d="M 363.015176 82.587739 
L 363.015176 68.613603 
" style="fill:none;stroke:#0000ff;stroke-width:1.5;"/>
    <path clip-path="url(#p6c893b6cc5)" d="M 368.64751 72.67106 
L 368.64751 58.696923 
" style="fill:none;stroke:#0000ff;stroke-width:1.5;"/>
    <path clip-path="url(#p6c893b6cc5)" d="M 374.279844 70.67937 
L 374.279844 56.705234 
" style="fill:none;stroke:#0000ff;stroke-width:1.5;"/>
    <path clip-path="url(#p6c893b6cc5)" d="M 379.912177 84.572488 
L 379.912177 70.598352 
" style="fill:none;stroke:#0000ff;stroke-width:1.5;"/>
    <path clip-path="url(#p6c893b6cc5)" d="M 385.544511 78.470545 
L 385.544511 64.496409 
" style="fill:none;stroke:#0000ff;stroke-width:1.5;"/>
    <path clip-path="url(#p6c893b6cc5)" d="M 391.176845 85.649878 
L 391.176845 71.675742 
" style="fill:none;stroke:#0000ff;stroke-width:1.5;"/>
    <path clip-path="url(#p6c893b6cc5)" d="M 396.809179 77.505057 
L 396.809179 63.530921 
" style="fill:none;stroke:#0000ff;stroke-width:1.5;"/>
    <path clip-path="url(#p6c893b6cc5)" d="M 402.441512 79.759841 
L 402.441512 65.785705 
" style="fill:none;stroke:#0000ff;stroke-width:1.5;"/>
    <path clip-path="url(#p6c893b6cc5)" d="M 408.073846 74.675076 
L 408.073846 60.70094 
" style="fill:none;stroke:#0000ff;stroke-width:1.5;"/>
   </g>
   <g id="line2d_11">
    <path clip-path="url(#p6c893b6cc5)" d="M 75.766154 71.661481 
L 408.073846 71.661481 
" style="fill:none;stroke:#ff0000;stroke-linecap:square;stroke-width:1.5;"/>
   </g>
   <g id="line2d_12">
    <defs>
     <path d="M 0 3 
C 0.795609 3 1.55874 2.683901 2.12132 2.12132 
C 2.683901 1.55874 3 0.795609 3 0 
C 3 -0.795609 2.683901 -1.55874 2.12132 -2.12132 
C 1.55874 -2.683901 0.795609 -3 0 -3 
C -0.795609 -3 -1.55874 -2.683901 -2.12132 -2.12132 
C -2.683901 -1.55874 -3 -0.795609 -3 0 
C -3 0.795609 -2.683901 1.55874 -2.12132 2.12132 
C -1.55874 2.683901 -0.795609 3 0 3 
z
" id="m2a4e12c99e" style="stroke:#0000ff;"/>
    </defs>
    <g clip-path="url(#p6c893b6cc5)">
     <use style="fill:#0000ff;stroke:#0000ff;" x="75.766154" xlink:href="#m2a4e12c99e" y="64.233618"/>
     <use style="fill:#0000ff;stroke:#0000ff;" x="81.398488" xlink:href="#m2a4e12c99e" y="80.969536"/>
     <use style="fill:#0000ff;stroke:#0000ff;" x="87.030821" xlink:href="#m2a4e12c99e" y="64.668802"/>
     <use style="fill:#0000ff;stroke:#0000ff;" x="92.663155" xlink:href="#m2a4e12c99e" y="68.740991"/>
     <use style="fill:#0000ff;stroke:#0000ff;" x="98.295489" xlink:href="#m2a4e12c99e" y="78.927843"/>
     <use style="fill:#0000ff;stroke:#0000ff;" x="103.927823" xlink:href="#m2a4e12c99e" y="67.162522"/>
     <use style="fill:#0000ff;stroke:#0000ff;" x="109.560156" xlink:href="#m2a4e12c99e" y="73.933553"/>
     <use style="fill:#0000ff;stroke:#0000ff;" x="115.19249" xlink:href="#m2a4e12c99e" y="79.94728"/>
     <use style="fill:#0000ff;stroke:#0000ff;" x="120.824824" xlink:href="#m2a4e12c99e" y="72.664933"/>
     <use style="fill:#0000ff;stroke:#0000ff;" x="126.457158" xlink:href="#m2a4e12c99e" y="82.614039"/>
     <use style="fill:#0000ff;stroke:#0000ff;" x="132.089492" xlink:href="#m2a4e12c99e" y="65.7541"/>
     <use style="fill:#0000ff;stroke:#0000ff;" x="137.721825" xlink:href="#m2a4e12c99e" y="66.036958"/>
     <use style="fill:#0000ff;stroke:#0000ff;" x="143.354159" xlink:href="#m2a4e12c99e" y="64.118949"/>
     <use style="fill:#0000ff;stroke:#0000ff;" x="148.986493" xlink:href="#m2a4e12c99e" y="69.678888"/>
     <use style="fill:#0000ff;stroke:#0000ff;" x="154.618827" xlink:href="#m2a4e12c99e" y="68.581226"/>
     <use style="fill:#0000ff;stroke:#0000ff;" x="160.25116" xlink:href="#m2a4e12c99e" y="78.092282"/>
     <use style="fill:#0000ff;stroke:#0000ff;" x="165.883494" xlink:href="#m2a4e12c99e" y="60.657176"/>
     <use style="fill:#0000ff;stroke:#0000ff;" x="171.515828" xlink:href="#m2a4e12c99e" y="72.270013"/>
     <use style="fill:#0000ff;stroke:#0000ff;" x="177.148162" xlink:href="#m2a4e12c99e" y="84.032404"/>
     <use style="fill:#0000ff;stroke:#0000ff;" x="182.780495" xlink:href="#m2a4e12c99e" y="63.119236"/>
     <use style="fill:#0000ff;stroke:#0000ff;" x="188.412829" xlink:href="#m2a4e12c99e" y="76.14559"/>
     <use style="fill:#0000ff;stroke:#0000ff;" x="194.045163" xlink:href="#m2a4e12c99e" y="55.789118"/>
     <use style="fill:#0000ff;stroke:#0000ff;" x="199.677497" xlink:href="#m2a4e12c99e" y="74.698297"/>
     <use style="fill:#0000ff;stroke:#0000ff;" x="205.309831" xlink:href="#m2a4e12c99e" y="87.424568"/>
     <use style="fill:#0000ff;stroke:#0000ff;" x="210.942164" xlink:href="#m2a4e12c99e" y="70.767062"/>
     <use style="fill:#0000ff;stroke:#0000ff;" x="216.574498" xlink:href="#m2a4e12c99e" y="72.67965"/>
     <use style="fill:#0000ff;stroke:#0000ff;" x="222.206832" xlink:href="#m2a4e12c99e" y="64.10761"/>
     <use style="fill:#0000ff;stroke:#0000ff;" x="227.839166" xlink:href="#m2a4e12c99e" y="77.252029"/>
     <use style="fill:#0000ff;stroke:#0000ff;" x="233.471499" xlink:href="#m2a4e12c99e" y="78.590775"/>
     <use style="fill:#0000ff;stroke:#0000ff;" x="239.103833" xlink:href="#m2a4e12c99e" y="60.929239"/>
     <use style="fill:#0000ff;stroke:#0000ff;" x="244.736167" xlink:href="#m2a4e12c99e" y="81.382622"/>
     <use style="fill:#0000ff;stroke:#0000ff;" x="250.368501" xlink:href="#m2a4e12c99e" y="83.16999"/>
     <use style="fill:#0000ff;stroke:#0000ff;" x="256.000834" xlink:href="#m2a4e12c99e" y="68.968413"/>
     <use style="fill:#0000ff;stroke:#0000ff;" x="261.633168" xlink:href="#m2a4e12c99e" y="54.271432"/>
     <use style="fill:#0000ff;stroke:#0000ff;" x="267.265502" xlink:href="#m2a4e12c99e" y="71.746373"/>
     <use style="fill:#0000ff;stroke:#0000ff;" x="272.897836" xlink:href="#m2a4e12c99e" y="82.386823"/>
     <use style="fill:#0000ff;stroke:#0000ff;" x="278.530169" xlink:href="#m2a4e12c99e" y="69.449779"/>
     <use style="fill:#0000ff;stroke:#0000ff;" x="284.162503" xlink:href="#m2a4e12c99e" y="60.212288"/>
     <use style="fill:#0000ff;stroke:#0000ff;" x="289.794837" xlink:href="#m2a4e12c99e" y="69.025518"/>
     <use style="fill:#0000ff;stroke:#0000ff;" x="295.427171" xlink:href="#m2a4e12c99e" y="70.109154"/>
     <use style="fill:#0000ff;stroke:#0000ff;" x="301.059505" xlink:href="#m2a4e12c99e" y="72.143473"/>
     <use style="fill:#0000ff;stroke:#0000ff;" x="306.691838" xlink:href="#m2a4e12c99e" y="65.205324"/>
     <use style="fill:#0000ff;stroke:#0000ff;" x="312.324172" xlink:href="#m2a4e12c99e" y="74.672593"/>
     <use style="fill:#0000ff;stroke:#0000ff;" x="317.956506" xlink:href="#m2a4e12c99e" y="77.199766"/>
     <use style="fill:#0000ff;stroke:#0000ff;" x="323.58884" xlink:href="#m2a4e12c99e" y="74.621849"/>
     <use style="fill:#0000ff;stroke:#0000ff;" x="329.221173" xlink:href="#m2a4e12c99e" y="66.327997"/>
     <use style="fill:#0000ff;stroke:#0000ff;" x="334.853507" xlink:href="#m2a4e12c99e" y="76.791924"/>
     <use style="fill:#0000ff;stroke:#0000ff;" x="340.485841" xlink:href="#m2a4e12c99e" y="81.09821"/>
     <use style="fill:#0000ff;stroke:#0000ff;" x="346.118175" xlink:href="#m2a4e12c99e" y="77.432383"/>
     <use style="fill:#0000ff;stroke:#0000ff;" x="351.750508" xlink:href="#m2a4e12c99e" y="66.090286"/>
     <use style="fill:#0000ff;stroke:#0000ff;" x="357.382842" xlink:href="#m2a4e12c99e" y="64.583349"/>
     <use style="fill:#0000ff;stroke:#0000ff;" x="363.015176" xlink:href="#m2a4e12c99e" y="75.600671"/>
     <use style="fill:#0000ff;stroke:#0000ff;" x="368.64751" xlink:href="#m2a4e12c99e" y="65.683991"/>
     <use style="fill:#0000ff;stroke:#0000ff;" x="374.279844" xlink:href="#m2a4e12c99e" y="63.692302"/>
     <use style="fill:#0000ff;stroke:#0000ff;" x="379.912177" xlink:href="#m2a4e12c99e" y="77.58542"/>
     <use style="fill:#0000ff;stroke:#0000ff;" x="385.544511" xlink:href="#m2a4e12c99e" y="71.483477"/>
     <use style="fill:#0000ff;stroke:#0000ff;" x="391.176845" xlink:href="#m2a4e12c99e" y="78.66281"/>
     <use style="fill:#0000ff;stroke:#0000ff;" x="396.809179" xlink:href="#m2a4e12c99e" y="70.517989"/>
     <use style="fill:#0000ff;stroke:#0000ff;" x="402.441512" xlink:href="#m2a4e12c99e" y="72.772773"/>
     <use style="fill:#0000ff;stroke:#0000ff;" x="408.073846" xlink:href="#m2a4e12c99e" y="67.688008"/>
    </g>
   </g>
   <g id="patch_3">
    <path d="M 69.12 96.768 
L 69.12 44.928 
" style="fill:none;stroke:#000000;stroke-linecap:square;stroke-linejoin:miter;stroke-width:0.8;"/>
   </g>
   <g id="patch_4">
    <path d="M 414.72 96.768 
L 414.72 44.928 
" style="fill:none;stroke:#000000;stroke-linecap:square;stroke-linejoin:miter;stroke-width:0.8;"/>
   </g>
   <g id="patch_5">
    <path d="M 69.12 96.768 
L 414.72 96.768 
" style="fill:none;stroke:#000000;stroke-linecap:square;stroke-linejoin:miter;stroke-width:0.8;"/>
   </g>
   <g id="patch_6">
    <path d="M 69.12 44.928 
L 414.72 44.928 
" style="fill:none;stroke:#000000;stroke-linecap:square;stroke-linejoin:miter;stroke-width:0.8;"/>
   </g>
   <g id="text_4">
    <!-- Function (0/0): y = A1*G(x-x0, s) + A2*S(x-x0, s) + L(x,m,b) -->
    <defs>
     <path d="M 9.8125 72.90625 
L 51.703125 72.90625 
L 51.703125 64.59375 
L 19.671875 64.59375 
L 19.671875 43.109375 
L 48.578125 43.109375 
L 48.578125 34.8125 
L 19.671875 34.8125 
L 19.671875 0 
L 9.8125 0 
z
" id="DejaVuSans-70"/>
     <path d="M 48.78125 52.59375 
L 48.78125 44.1875 
Q 44.96875 46.296875 41.140625 47.34375 
Q 37.3125 48.390625 33.40625 48.390625 
Q 24.65625 48.390625 19.8125 42.84375 
Q 14.984375 37.3125 14.984375 27.296875 
Q 14.984375 17.28125 19.8125 11.734375 
Q 24.65625 6.203125 33.40625 6.203125 
Q 37.3125 6.203125 41.140625 7.25 
Q 44.96875 8.296875 48.78125 10.40625 
L 48.78125 2.09375 
Q 45.015625 0.34375 40.984375 -0.53125 
Q 36.96875 -1.421875 32.421875 -1.421875 
Q 20.0625 -1.421875 12.78125 6.34375 
Q 5.515625 14.109375 5.515625 27.296875 
Q 5.515625 40.671875 12.859375 48.328125 
Q 20.21875 56 33.015625 56 
Q 37.15625 56 41.109375 55.140625 
Q 45.0625 54.296875 48.78125 52.59375 
z
" id="DejaVuSans-99"/>
     <path d="M 30.609375 48.390625 
Q 23.390625 48.390625 19.1875 42.75 
Q 14.984375 37.109375 14.984375 27.296875 
Q 14.984375 17.484375 19.15625 11.84375 
Q 23.34375 6.203125 30.609375 6.203125 
Q 37.796875 6.203125 41.984375 11.859375 
Q 46.1875 17.53125 46.1875 27.296875 
Q 46.1875 37.015625 41.984375 42.703125 
Q 37.796875 48.390625 30.609375 48.390625 
z
M 30.609375 56 
Q 42.328125 56 49.015625 48.375 
Q 55.71875 40.765625 55.71875 27.296875 
Q 55.71875 13.875 49.015625 6.21875 
Q 42.328125 -1.421875 30.609375 -1.421875 
Q 18.84375 -1.421875 12.171875 6.21875 
Q 5.515625 13.875 5.515625 27.296875 
Q 5.515625 40.765625 12.171875 48.375 
Q 18.84375 56 30.609375 56 
z
" id="DejaVuSans-111"/>
     <path id="DejaVuSans-32"/>
     <path d="M 31 75.875 
Q 24.46875 64.65625 21.28125 53.65625 
Q 18.109375 42.671875 18.109375 31.390625 
Q 18.109375 20.125 21.3125 9.0625 
Q 24.515625 -2 31 -13.1875 
L 23.1875 -13.1875 
Q 15.875 -1.703125 12.234375 9.375 
Q 8.59375 20.453125 8.59375 31.390625 
Q 8.59375 42.28125 12.203125 53.3125 
Q 15.828125 64.359375 23.1875 75.875 
z
" id="DejaVuSans-40"/>
     <path d="M 31.78125 66.40625 
Q 24.171875 66.40625 20.328125 58.90625 
Q 16.5 51.421875 16.5 36.375 
Q 16.5 21.390625 20.328125 13.890625 
Q 24.171875 6.390625 31.78125 6.390625 
Q 39.453125 6.390625 43.28125 13.890625 
Q 47.125 21.390625 47.125 36.375 
Q 47.125 51.421875 43.28125 58.90625 
Q 39.453125 66.40625 31.78125 66.40625 
z
M 31.78125 74.21875 
Q 44.046875 74.21875 50.515625 64.515625 
Q 56.984375 54.828125 56.984375 36.375 
Q 56.984375 17.96875 50.515625 8.265625 
Q 44.046875 -1.421875 31.78125 -1.421875 
Q 19.53125 -1.421875 13.0625 8.265625 
Q 6.59375 17.96875 6.59375 36.375 
Q 6.59375 54.828125 13.0625 64.515625 
Q 19.53125 74.21875 31.78125 74.21875 
z
" id="DejaVuSans-48"/>
     <path d="M 25.390625 72.90625 
L 33.6875 72.90625 
L 8.296875 -9.28125 
L 0 -9.28125 
z
" id="DejaVuSans-47"/>
     <path d="M 8.015625 75.875 
L 15.828125 75.875 
Q 23.140625 64.359375 26.78125 53.3125 
Q 30.421875 42.28125 30.421875 31.390625 
Q 30.421875 20.453125 26.78125 9.375 
Q 23.140625 -1.703125 15.828125 -13.1875 
L 8.015625 -13.1875 
Q 14.5 -2 17.703125 9.0625 
Q 20.90625 20.125 20.90625 31.390625 
Q 20.90625 42.671875 17.703125 53.65625 
Q 14.5 64.65625 8.015625 75.875 
z
" id="DejaVuSans-41"/>
     <path d="M 11.71875 12.40625 
L 22.015625 12.40625 
L 22.015625 0 
L 11.71875 0 
z
M 11.71875 51.703125 
L 22.015625 51.703125 
L 22.015625 39.3125 
L 11.71875 39.3125 
z
" id="DejaVuSans-58"/>
     <path d="M 32.171875 -5.078125 
Q 28.375 -14.84375 24.75 -17.8125 
Q 21.140625 -20.796875 15.09375 -20.796875 
L 7.90625 -20.796875 
L 7.90625 -13.28125 
L 13.1875 -13.28125 
Q 16.890625 -13.28125 18.9375 -11.515625 
Q 21 -9.765625 23.484375 -3.21875 
L 25.09375 0.875 
L 2.984375 54.6875 
L 12.5 54.6875 
L 29.59375 11.921875 
L 46.6875 54.6875 
L 56.203125 54.6875 
z
" id="DejaVuSans-121"/>
     <path d="M 10.59375 45.40625 
L 73.1875 45.40625 
L 73.1875 37.203125 
L 10.59375 37.203125 
z
M 10.59375 25.484375 
L 73.1875 25.484375 
L 73.1875 17.1875 
L 10.59375 17.1875 
z
" id="DejaVuSans-61"/>
     <path d="M 34.1875 63.1875 
L 20.796875 26.90625 
L 47.609375 26.90625 
z
M 28.609375 72.90625 
L 39.796875 72.90625 
L 67.578125 0 
L 57.328125 0 
L 50.6875 18.703125 
L 17.828125 18.703125 
L 11.1875 0 
L 0.78125 0 
z
" id="DejaVuSans-65"/>
     <path d="M 12.40625 8.296875 
L 28.515625 8.296875 
L 28.515625 63.921875 
L 10.984375 60.40625 
L 10.984375 69.390625 
L 28.421875 72.90625 
L 38.28125 72.90625 
L 38.28125 8.296875 
L 54.390625 8.296875 
L 54.390625 0 
L 12.40625 0 
z
" id="DejaVuSans-49"/>
     <path d="M 47.015625 60.890625 
L 29.5 51.421875 
L 47.015625 41.890625 
L 44.1875 37.109375 
L 27.78125 47.015625 
L 27.78125 28.609375 
L 22.21875 28.609375 
L 22.21875 47.015625 
L 5.8125 37.109375 
L 2.984375 41.890625 
L 20.515625 51.421875 
L 2.984375 60.890625 
L 5.8125 65.71875 
L 22.21875 55.8125 
L 22.21875 74.21875 
L 27.78125 74.21875 
L 27.78125 55.8125 
L 44.1875 65.71875 
z
" id="DejaVuSans-42"/>
     <path d="M 59.515625 10.40625 
L 59.515625 29.984375 
L 43.40625 29.984375 
L 43.40625 38.09375 
L 69.28125 38.09375 
L 69.28125 6.78125 
Q 63.578125 2.734375 56.6875 0.65625 
Q 49.8125 -1.421875 42 -1.421875 
Q 24.90625 -1.421875 15.25 8.5625 
Q 5.609375 18.5625 5.609375 36.375 
Q 5.609375 54.25 15.25 64.234375 
Q 24.90625 74.21875 42 74.21875 
Q 49.125 74.21875 55.546875 72.453125 
Q 61.96875 70.703125 67.390625 67.28125 
L 67.390625 56.78125 
Q 61.921875 61.421875 55.765625 63.765625 
Q 49.609375 66.109375 42.828125 66.109375 
Q 29.4375 66.109375 22.71875 58.640625 
Q 16.015625 51.171875 16.015625 36.375 
Q 16.015625 21.625 22.71875 14.15625 
Q 29.4375 6.6875 42.828125 6.6875 
Q 48.046875 6.6875 52.140625 7.59375 
Q 56.25 8.5 59.515625 10.40625 
z
" id="DejaVuSans-71"/>
     <path d="M 54.890625 54.6875 
L 35.109375 28.078125 
L 55.90625 0 
L 45.3125 0 
L 29.390625 21.484375 
L 13.484375 0 
L 2.875 0 
L 24.125 28.609375 
L 4.6875 54.6875 
L 15.28125 54.6875 
L 29.78125 35.203125 
L 44.28125 54.6875 
z
" id="DejaVuSans-120"/>
     <path d="M 4.890625 31.390625 
L 31.203125 31.390625 
L 31.203125 23.390625 
L 4.890625 23.390625 
z
" id="DejaVuSans-45"/>
     <path d="M 11.71875 12.40625 
L 22.015625 12.40625 
L 22.015625 4 
L 14.015625 -11.625 
L 7.71875 -11.625 
L 11.71875 4 
z
" id="DejaVuSans-44"/>
     <path d="M 46 62.703125 
L 46 35.5 
L 73.1875 35.5 
L 73.1875 27.203125 
L 46 27.203125 
L 46 0 
L 37.796875 0 
L 37.796875 27.203125 
L 10.59375 27.203125 
L 10.59375 35.5 
L 37.796875 35.5 
L 37.796875 62.703125 
z
" id="DejaVuSans-43"/>
     <path d="M 9.8125 72.90625 
L 19.671875 72.90625 
L 19.671875 8.296875 
L 55.171875 8.296875 
L 55.171875 0 
L 9.8125 0 
z
" id="DejaVuSans-76"/>
     <path d="M 52 44.1875 
Q 55.375 50.25 60.0625 53.125 
Q 64.75 56 71.09375 56 
Q 79.640625 56 84.28125 50.015625 
Q 88.921875 44.046875 88.921875 33.015625 
L 88.921875 0 
L 79.890625 0 
L 79.890625 32.71875 
Q 79.890625 40.578125 77.09375 44.375 
Q 74.3125 48.1875 68.609375 48.1875 
Q 61.625 48.1875 57.5625 43.546875 
Q 53.515625 38.921875 53.515625 30.90625 
L 53.515625 0 
L 44.484375 0 
L 44.484375 32.71875 
Q 44.484375 40.625 41.703125 44.40625 
Q 38.921875 48.1875 33.109375 48.1875 
Q 26.21875 48.1875 22.15625 43.53125 
Q 18.109375 38.875 18.109375 30.90625 
L 18.109375 0 
L 9.078125 0 
L 9.078125 54.6875 
L 18.109375 54.6875 
L 18.109375 46.1875 
Q 21.1875 51.21875 25.484375 53.609375 
Q 29.78125 56 35.6875 56 
Q 41.65625 56 45.828125 52.96875 
Q 50 49.953125 52 44.1875 
z
" id="DejaVuSans-109"/>
     <path d="M 48.6875 27.296875 
Q 48.6875 37.203125 44.609375 42.84375 
Q 40.53125 48.484375 33.40625 48.484375 
Q 26.265625 48.484375 22.1875 42.84375 
Q 18.109375 37.203125 18.109375 27.296875 
Q 18.109375 17.390625 22.1875 11.75 
Q 26.265625 6.109375 33.40625 6.109375 
Q 40.53125 6.109375 44.609375 11.75 
Q 48.6875 17.390625 48.6875 27.296875 
z
M 18.109375 46.390625 
Q 20.953125 51.265625 25.265625 53.625 
Q 29.59375 56 35.59375 56 
Q 45.5625 56 51.78125 48.09375 
Q 58.015625 40.1875 58.015625 27.296875 
Q 58.015625 14.40625 51.78125 6.484375 
Q 45.5625 -1.421875 35.59375 -1.421875 
Q 29.59375 -1.421875 25.265625 0.953125 
Q 20.953125 3.328125 18.109375 8.203125 
L 18.109375 0 
L 9.078125 0 
L 9.078125 75.984375 
L 18.109375 75.984375 
z
" id="DejaVuSans-98"/>
    </defs>
    <g transform="translate(69.12 3.112687)scale(0.1 -0.1)">
     <use xlink:href="#DejaVuSans-70"/>
     <use x="57.441406" xlink:href="#DejaVuSans-117"/>
     <use x="120.820312" xlink:href="#DejaVuSans-110"/>
     <use x="184.199219" xlink:href="#DejaVuSans-99"/>
     <use x="239.179688" xlink:href="#DejaVuSans-116"/>
     <use x="278.388672" xlink:href="#DejaVuSans-105"/>
     <use x="306.171875" xlink:href="#DejaVuSans-111"/>
     <use x="367.353516" xlink:href="#DejaVuSans-110"/>
     <use x="430.732422" xlink:href="#DejaVuSans-32"/>
     <use x="462.519531" xlink:href="#DejaVuSans-40"/>
     <use x="501.533203" xlink:href="#DejaVuSans-48"/>
     <use x="565.15625" xlink:href="#DejaVuSans-47"/>
     <use x="598.847656" xlink:href="#DejaVuSans-48"/>
     <use x="662.470703" xlink:href="#DejaVuSans-41"/>
     <use x="701.484375" xlink:href="#DejaVuSans-58"/>
     <use x="735.175781" xlink:href="#DejaVuSans-32"/>
     <use x="766.962891" xlink:href="#DejaVuSans-121"/>
     <use x="826.142578" xlink:href="#DejaVuSans-32"/>
     <use x="857.929688" xlink:href="#DejaVuSans-61"/>
     <use x="941.71875" xlink:href="#DejaVuSans-32"/>
     <use x="973.505859" xlink:href="#DejaVuSans-65"/>
     <use x="1041.914062" xlink:href="#DejaVuSans-49"/>
     <use x="1105.537109" xlink:href="#DejaVuSans-42"/>
     <use x="1155.537109" xlink:href="#DejaVuSans-71"/>
     <use x="1233.027344" xlink:href="#DejaVuSans-40"/>
     <use x="1272.041016" xlink:href="#DejaVuSans-120"/>
     <use x="1331.220703" xlink:href="#DejaVuSans-45"/>
     <use x="1367.304688" xlink:href="#DejaVuSans-120"/>
     <use x="1426.484375" xlink:href="#DejaVuSans-48"/>
     <use x="1490.107422" xlink:href="#DejaVuSans-44"/>
     <use x="1521.894531" xlink:href="#DejaVuSans-32"/>
     <use x="1553.681641" xlink:href="#DejaVuSans-115"/>
     <use x="1605.78125" xlink:href="#DejaVuSans-41"/>
     <use x="1644.794922" xlink:href="#DejaVuSans-32"/>
     <use x="1676.582031" xlink:href="#DejaVuSans-43"/>
     <use x="1760.371094" xlink:href="#DejaVuSans-32"/>
     <use x="1792.158203" xlink:href="#DejaVuSans-65"/>
     <use x="1860.566406" xlink:href="#DejaVuSans-50"/>
     <use x="1924.189453" xlink:href="#DejaVuSans-42"/>
     <use x="1974.189453" xlink:href="#DejaVuSans-83"/>
     <use x="2037.666016" xlink:href="#DejaVuSans-40"/>
     <use x="2076.679688" xlink:href="#DejaVuSans-120"/>
     <use x="2135.859375" xlink:href="#DejaVuSans-45"/>
     <use x="2171.943359" xlink:href="#DejaVuSans-120"/>
     <use x="2231.123047" xlink:href="#DejaVuSans-48"/>
     <use x="2294.746094" xlink:href="#DejaVuSans-44"/>
     <use x="2326.533203" xlink:href="#DejaVuSans-32"/>
     <use x="2358.320312" xlink:href="#DejaVuSans-115"/>
     <use x="2410.419922" xlink:href="#DejaVuSans-41"/>
     <use x="2449.433594" xlink:href="#DejaVuSans-32"/>
     <use x="2481.220703" xlink:href="#DejaVuSans-43"/>
     <use x="2565.009766" xlink:href="#DejaVuSans-32"/>
     <use x="2596.796875" xlink:href="#DejaVuSans-76"/>
     <use x="2652.509766" xlink:href="#DejaVuSans-40"/>
     <use x="2691.523438" xlink:href="#DejaVuSans-120"/>
     <use x="2750.703125" xlink:href="#DejaVuSans-44"/>
     <use x="2782.490234" xlink:href="#DejaVuSans-109"/>
     <use x="2879.902344" xlink:href="#DejaVuSans-44"/>
     <use x="2911.689453" xlink:href="#DejaVuSans-98"/>
     <use x="2975.166016" xlink:href="#DejaVuSans-41"/>
    </g>
    <!-- Fit: A1=5215.0$\pm$19.0, x0=279.59$\pm$0.12, s=15.89$\pm$0.079, -->
    <defs>
     <path d="M 46 62.703125 
L 46 43.796875 
L 73.1875 43.796875 
L 73.1875 35.5 
L 46 35.5 
L 46 16.609375 
L 37.796875 16.609375 
L 37.796875 35.5 
L 10.59375 35.5 
L 10.59375 43.796875 
L 37.796875 43.796875 
L 37.796875 62.703125 
z
M 10.59375 8.296875 
L 73.1875 8.296875 
L 73.1875 0 
L 10.59375 0 
z
" id="DejaVuSans-177"/>
     <path d="M 10.984375 1.515625 
L 10.984375 10.5 
Q 14.703125 8.734375 18.5 7.8125 
Q 22.3125 6.890625 25.984375 6.890625 
Q 35.75 6.890625 40.890625 13.453125 
Q 46.046875 20.015625 46.78125 33.40625 
Q 43.953125 29.203125 39.59375 26.953125 
Q 35.25 24.703125 29.984375 24.703125 
Q 19.046875 24.703125 12.671875 31.3125 
Q 6.296875 37.9375 6.296875 49.421875 
Q 6.296875 60.640625 12.9375 67.421875 
Q 19.578125 74.21875 30.609375 74.21875 
Q 43.265625 74.21875 49.921875 64.515625 
Q 56.59375 54.828125 56.59375 36.375 
Q 56.59375 19.140625 48.40625 8.859375 
Q 40.234375 -1.421875 26.421875 -1.421875 
Q 22.703125 -1.421875 18.890625 -0.6875 
Q 15.09375 0.046875 10.984375 1.515625 
z
M 30.609375 32.421875 
Q 37.25 32.421875 41.125 36.953125 
Q 45.015625 41.5 45.015625 49.421875 
Q 45.015625 57.28125 41.125 61.84375 
Q 37.25 66.40625 30.609375 66.40625 
Q 23.96875 66.40625 20.09375 61.84375 
Q 16.21875 57.28125 16.21875 49.421875 
Q 16.21875 41.5 20.09375 36.953125 
Q 23.96875 32.421875 30.609375 32.421875 
z
" id="DejaVuSans-57"/>
     <path d="M 8.203125 72.90625 
L 55.078125 72.90625 
L 55.078125 68.703125 
L 28.609375 0 
L 18.3125 0 
L 43.21875 64.59375 
L 8.203125 64.59375 
z
" id="DejaVuSans-55"/>
     <path d="M 31.78125 34.625 
Q 24.75 34.625 20.71875 30.859375 
Q 16.703125 27.09375 16.703125 20.515625 
Q 16.703125 13.921875 20.71875 10.15625 
Q 24.75 6.390625 31.78125 6.390625 
Q 38.8125 6.390625 42.859375 10.171875 
Q 46.921875 13.96875 46.921875 20.515625 
Q 46.921875 27.09375 42.890625 30.859375 
Q 38.875 34.625 31.78125 34.625 
z
M 21.921875 38.8125 
Q 15.578125 40.375 12.03125 44.71875 
Q 8.5 49.078125 8.5 55.328125 
Q 8.5 64.0625 14.71875 69.140625 
Q 20.953125 74.21875 31.78125 74.21875 
Q 42.671875 74.21875 48.875 69.140625 
Q 55.078125 64.0625 55.078125 55.328125 
Q 55.078125 49.078125 51.53125 44.71875 
Q 48 40.375 41.703125 38.8125 
Q 48.828125 37.15625 52.796875 32.3125 
Q 56.78125 27.484375 56.78125 20.515625 
Q 56.78125 9.90625 50.3125 4.234375 
Q 43.84375 -1.421875 31.78125 -1.421875 
Q 19.734375 -1.421875 13.25 4.234375 
Q 6.78125 9.90625 6.78125 20.515625 
Q 6.78125 27.484375 10.78125 32.3125 
Q 14.796875 37.15625 21.921875 38.8125 
z
M 18.3125 54.390625 
Q 18.3125 48.734375 21.84375 45.5625 
Q 25.390625 42.390625 31.78125 42.390625 
Q 38.140625 42.390625 41.71875 45.5625 
Q 45.3125 48.734375 45.3125 54.390625 
Q 45.3125 60.0625 41.71875 63.234375 
Q 38.140625 66.40625 31.78125 66.40625 
Q 25.390625 66.40625 21.84375 63.234375 
Q 18.3125 60.0625 18.3125 54.390625 
z
" id="DejaVuSans-56"/>
    </defs>
    <g transform="translate(69.12 14.3105)scale(0.1 -0.1)">
     <use transform="translate(0 0.015625)" xlink:href="#DejaVuSans-70"/>
     <use transform="translate(57.519531 0.015625)" xlink:href="#DejaVuSans-105"/>
     <use transform="translate(85.302734 0.015625)" xlink:href="#DejaVuSans-116"/>
     <use transform="translate(124.511719 0.015625)" xlink:href="#DejaVuSans-58"/>
     <use transform="translate(158.203125 0.015625)" xlink:href="#DejaVuSans-32"/>
     <use transform="translate(189.990234 0.015625)" xlink:href="#DejaVuSans-65"/>
     <use transform="translate(258.398438 0.015625)" xlink:href="#DejaVuSans-49"/>
     <use transform="translate(322.021484 0.015625)" xlink:href="#DejaVuSans-61"/>
     <use transform="translate(405.810547 0.015625)" xlink:href="#DejaVuSans-53"/>
     <use transform="translate(469.433594 0.015625)" xlink:href="#DejaVuSans-50"/>
     <use transform="translate(533.056641 0.015625)" xlink:href="#DejaVuSans-49"/>
     <use transform="translate(596.679688 0.015625)" xlink:href="#DejaVuSans-53"/>
     <use transform="translate(660.302734 0.015625)" xlink:href="#DejaVuSans-46"/>
     <use transform="translate(692.089844 0.015625)" xlink:href="#DejaVuSans-48"/>
     <use transform="translate(755.712891 0.015625)" xlink:href="#DejaVuSans-177"/>
     <use transform="translate(839.501953 0.015625)" xlink:href="#DejaVuSans-49"/>
     <use transform="translate(903.125 0.015625)" xlink:href="#DejaVuSans-57"/>
     <use transform="translate(966.748047 0.015625)" xlink:href="#DejaVuSans-46"/>
     <use transform="translate(998.535156 0.015625)" xlink:href="#DejaVuSans-48"/>
     <use transform="translate(1062.158203 0.015625)" xlink:href="#DejaVuSans-44"/>
     <use transform="translate(1093.945312 0.015625)" xlink:href="#DejaVuSans-32"/>
     <use transform="translate(1125.732422 0.015625)" xlink:href="#DejaVuSans-120"/>
     <use transform="translate(1184.912109 0.015625)" xlink:href="#DejaVuSans-48"/>
     <use transform="translate(1248.535156 0.015625)" xlink:href="#DejaVuSans-61"/>
     <use transform="translate(1332.324219 0.015625)" xlink:href="#DejaVuSans-50"/>
     <use transform="translate(1395.947266 0.015625)" xlink:href="#DejaVuSans-55"/>
     <use transform="translate(1459.570312 0.015625)" xlink:href="#DejaVuSans-57"/>
     <use transform="translate(1523.193359 0.015625)" xlink:href="#DejaVuSans-46"/>
     <use transform="translate(1554.980469 0.015625)" xlink:href="#DejaVuSans-53"/>
     <use transform="translate(1618.525391 0.015625)" xlink:href="#DejaVuSans-57"/>
     <use transform="translate(1682.148438 0.015625)" xlink:href="#DejaVuSans-177"/>
     <use transform="translate(1765.9375 0.015625)" xlink:href="#DejaVuSans-48"/>
     <use transform="translate(1829.560547 0.015625)" xlink:href="#DejaVuSans-46"/>
     <use transform="translate(1861.347656 0.015625)" xlink:href="#DejaVuSans-49"/>
     <use transform="translate(1924.970703 0.015625)" xlink:href="#DejaVuSans-50"/>
     <use transform="translate(1988.59375 0.015625)" xlink:href="#DejaVuSans-44"/>
     <use transform="translate(2020.380859 0.015625)" xlink:href="#DejaVuSans-32"/>
     <use transform="translate(2052.167969 0.015625)" xlink:href="#DejaVuSans-115"/>
     <use transform="translate(2104.267578 0.015625)" xlink:href="#DejaVuSans-61"/>
     <use transform="translate(2188.056641 0.015625)" xlink:href="#DejaVuSans-49"/>
     <use transform="translate(2251.679688 0.015625)" xlink:href="#DejaVuSans-53"/>
     <use transform="translate(2315.302734 0.015625)" xlink:href="#DejaVuSans-46"/>
     <use transform="translate(2347.058594 0.015625)" xlink:href="#DejaVuSans-56"/>
     <use transform="translate(2410.681641 0.015625)" xlink:href="#DejaVuSans-57"/>
     <use transform="translate(2474.304688 0.015625)" xlink:href="#DejaVuSans-177"/>
     <use transform="translate(2558.09375 0.015625)" xlink:href="#DejaVuSans-48"/>
     <use transform="translate(2621.716797 0.015625)" xlink:href="#DejaVuSans-46"/>
     <use transform="translate(2653.503906 0.015625)" xlink:href="#DejaVuSans-48"/>
     <use transform="translate(2717.126953 0.015625)" xlink:href="#DejaVuSans-55"/>
     <use transform="translate(2780.75 0.015625)" xlink:href="#DejaVuSans-57"/>
     <use transform="translate(2844.373047 0.015625)" xlink:href="#DejaVuSans-44"/>
    </g>
    <!--       A2=4060.0$\pm$830.0, m=46.0$\pm$10.0, b=-14600.0$\pm$3300.0, -->
    <defs>
     <path d="M 37.796875 64.3125 
L 12.890625 25.390625 
L 37.796875 25.390625 
z
M 35.203125 72.90625 
L 47.609375 72.90625 
L 47.609375 25.390625 
L 58.015625 25.390625 
L 58.015625 17.1875 
L 47.609375 17.1875 
L 47.609375 0 
L 37.796875 0 
L 37.796875 17.1875 
L 4.890625 17.1875 
L 4.890625 26.703125 
z
" id="DejaVuSans-52"/>
     <path d="M 33.015625 40.375 
Q 26.375 40.375 22.484375 35.828125 
Q 18.609375 31.296875 18.609375 23.390625 
Q 18.609375 15.53125 22.484375 10.953125 
Q 26.375 6.390625 33.015625 6.390625 
Q 39.65625 6.390625 43.53125 10.953125 
Q 47.40625 15.53125 47.40625 23.390625 
Q 47.40625 31.296875 43.53125 35.828125 
Q 39.65625 40.375 33.015625 40.375 
z
M 52.59375 71.296875 
L 52.59375 62.3125 
Q 48.875 64.0625 45.09375 64.984375 
Q 41.3125 65.921875 37.59375 65.921875 
Q 27.828125 65.921875 22.671875 59.328125 
Q 17.53125 52.734375 16.796875 39.40625 
Q 19.671875 43.65625 24.015625 45.921875 
Q 28.375 48.1875 33.59375 48.1875 
Q 44.578125 48.1875 50.953125 41.515625 
Q 57.328125 34.859375 57.328125 23.390625 
Q 57.328125 12.15625 50.6875 5.359375 
Q 44.046875 -1.421875 33.015625 -1.421875 
Q 20.359375 -1.421875 13.671875 8.265625 
Q 6.984375 17.96875 6.984375 36.375 
Q 6.984375 53.65625 15.1875 63.9375 
Q 23.390625 74.21875 37.203125 74.21875 
Q 40.921875 74.21875 44.703125 73.484375 
Q 48.484375 72.75 52.59375 71.296875 
z
" id="DejaVuSans-54"/>
     <path d="M 40.578125 39.3125 
Q 47.65625 37.796875 51.625 33 
Q 55.609375 28.21875 55.609375 21.1875 
Q 55.609375 10.40625 48.1875 4.484375 
Q 40.765625 -1.421875 27.09375 -1.421875 
Q 22.515625 -1.421875 17.65625 -0.515625 
Q 12.796875 0.390625 7.625 2.203125 
L 7.625 11.71875 
Q 11.71875 9.328125 16.59375 8.109375 
Q 21.484375 6.890625 26.8125 6.890625 
Q 36.078125 6.890625 40.9375 10.546875 
Q 45.796875 14.203125 45.796875 21.1875 
Q 45.796875 27.640625 41.28125 31.265625 
Q 36.765625 34.90625 28.71875 34.90625 
L 20.21875 34.90625 
L 20.21875 43.015625 
L 29.109375 43.015625 
Q 36.375 43.015625 40.234375 45.921875 
Q 44.09375 48.828125 44.09375 54.296875 
Q 44.09375 59.90625 40.109375 62.90625 
Q 36.140625 65.921875 28.71875 65.921875 
Q 24.65625 65.921875 20.015625 65.03125 
Q 15.375 64.15625 9.8125 62.3125 
L 9.8125 71.09375 
Q 15.4375 72.65625 20.34375 73.4375 
Q 25.25 74.21875 29.59375 74.21875 
Q 40.828125 74.21875 47.359375 69.109375 
Q 53.90625 64.015625 53.90625 55.328125 
Q 53.90625 49.265625 50.4375 45.09375 
Q 46.96875 40.921875 40.578125 39.3125 
z
" id="DejaVuSans-51"/>
    </defs>
    <g transform="translate(69.12 25.508312)scale(0.1 -0.1)">
     <use transform="translate(0 0.015625)" xlink:href="#DejaVuSans-32"/>
     <use transform="translate(31.787109 0.015625)" xlink:href="#DejaVuSans-32"/>
     <use transform="translate(63.574219 0.015625)" xlink:href="#DejaVuSans-32"/>
     <use transform="translate(95.361328 0.015625)" xlink:href="#DejaVuSans-32"/>
     <use transform="translate(127.148438 0.015625)" xlink:href="#DejaVuSans-32"/>
     <use transform="translate(158.935547 0.015625)" xlink:href="#DejaVuSans-32"/>
     <use transform="translate(190.722656 0.015625)" xlink:href="#DejaVuSans-65"/>
     <use transform="translate(259.130859 0.015625)" xlink:href="#DejaVuSans-50"/>
     <use transform="translate(322.753906 0.015625)" xlink:href="#DejaVuSans-61"/>
     <use transform="translate(406.542969 0.015625)" xlink:href="#DejaVuSans-52"/>
     <use transform="translate(470.166016 0.015625)" xlink:href="#DejaVuSans-48"/>
     <use transform="translate(533.789062 0.015625)" xlink:href="#DejaVuSans-54"/>
     <use transform="translate(597.412109 0.015625)" xlink:href="#DejaVuSans-48"/>
     <use transform="translate(661.035156 0.015625)" xlink:href="#DejaVuSans-46"/>
     <use transform="translate(692.822266 0.015625)" xlink:href="#DejaVuSans-48"/>
     <use transform="translate(756.445312 0.015625)" xlink:href="#DejaVuSans-177"/>
     <use transform="translate(840.234375 0.015625)" xlink:href="#DejaVuSans-56"/>
     <use transform="translate(903.857422 0.015625)" xlink:href="#DejaVuSans-51"/>
     <use transform="translate(967.480469 0.015625)" xlink:href="#DejaVuSans-48"/>
     <use transform="translate(1031.103516 0.015625)" xlink:href="#DejaVuSans-46"/>
     <use transform="translate(1062.890625 0.015625)" xlink:href="#DejaVuSans-48"/>
     <use transform="translate(1126.513672 0.015625)" xlink:href="#DejaVuSans-44"/>
     <use transform="translate(1158.300781 0.015625)" xlink:href="#DejaVuSans-32"/>
     <use transform="translate(1190.087891 0.015625)" xlink:href="#DejaVuSans-109"/>
     <use transform="translate(1287.5 0.015625)" xlink:href="#DejaVuSans-61"/>
     <use transform="translate(1371.289062 0.015625)" xlink:href="#DejaVuSans-52"/>
     <use transform="translate(1434.912109 0.015625)" xlink:href="#DejaVuSans-54"/>
     <use transform="translate(1498.535156 0.015625)" xlink:href="#DejaVuSans-46"/>
     <use transform="translate(1530.322266 0.015625)" xlink:href="#DejaVuSans-48"/>
     <use transform="translate(1593.945312 0.015625)" xlink:href="#DejaVuSans-177"/>
     <use transform="translate(1677.734375 0.015625)" xlink:href="#DejaVuSans-49"/>
     <use transform="translate(1741.357422 0.015625)" xlink:href="#DejaVuSans-48"/>
     <use transform="translate(1804.980469 0.015625)" xlink:href="#DejaVuSans-46"/>
     <use transform="translate(1836.767578 0.015625)" xlink:href="#DejaVuSans-48"/>
     <use transform="translate(1900.390625 0.015625)" xlink:href="#DejaVuSans-44"/>
     <use transform="translate(1932.177734 0.015625)" xlink:href="#DejaVuSans-32"/>
     <use transform="translate(1963.964844 0.015625)" xlink:href="#DejaVuSans-98"/>
     <use transform="translate(2027.441406 0.015625)" xlink:href="#DejaVuSans-61"/>
     <use transform="translate(2111.230469 0.015625)" xlink:href="#DejaVuSans-45"/>
     <use transform="translate(2147.314453 0.015625)" xlink:href="#DejaVuSans-49"/>
     <use transform="translate(2210.9375 0.015625)" xlink:href="#DejaVuSans-52"/>
     <use transform="translate(2274.560547 0.015625)" xlink:href="#DejaVuSans-54"/>
     <use transform="translate(2338.183594 0.015625)" xlink:href="#DejaVuSans-48"/>
     <use transform="translate(2401.806641 0.015625)" xlink:href="#DejaVuSans-48"/>
     <use transform="translate(2465.429688 0.015625)" xlink:href="#DejaVuSans-46"/>
     <use transform="translate(2497.216797 0.015625)" xlink:href="#DejaVuSans-48"/>
     <use transform="translate(2560.839844 0.015625)" xlink:href="#DejaVuSans-177"/>
     <use transform="translate(2644.628906 0.015625)" xlink:href="#DejaVuSans-51"/>
     <use transform="translate(2708.251953 0.015625)" xlink:href="#DejaVuSans-51"/>
     <use transform="translate(2771.875 0.015625)" xlink:href="#DejaVuSans-48"/>
     <use transform="translate(2835.498047 0.015625)" xlink:href="#DejaVuSans-48"/>
     <use transform="translate(2899.121094 0.015625)" xlink:href="#DejaVuSans-46"/>
     <use transform="translate(2930.908203 0.015625)" xlink:href="#DejaVuSans-48"/>
     <use transform="translate(2994.53125 0.015625)" xlink:href="#DejaVuSans-44"/>
    </g>
    <!--       $\chi^2_r$=1.19$\pm$0.19 (54 DOF) -->
    <defs>
     <path d="M 30.03125 -12.203125 
L 26.421875 6.5 
L 6.15625 -20.84375 
L -4.4375 -20.84375 
L 24.265625 17.828125 
L 19.828125 40.828125 
Q 18.65625 46.96875 11.140625 46.96875 
L 8.734375 46.96875 
L 10.203125 54.6875 
L 13.625 54.59375 
Q 26.171875 54.25 27.734375 46.09375 
L 31.34375 27.390625 
L 51.609375 54.734375 
L 62.203125 54.734375 
L 33.5 16.0625 
L 37.9375 -6.9375 
Q 39.109375 -13.09375 46.625 -13.09375 
L 49.03125 -13.09375 
L 47.5625 -20.796875 
L 44.140625 -20.703125 
Q 31.59375 -20.359375 30.03125 -12.203125 
z
" id="DejaVuSans-Oblique-967"/>
     <path d="M 44.578125 46.390625 
Q 43.21875 47.125 41.453125 47.515625 
Q 39.703125 47.90625 37.703125 47.90625 
Q 30.515625 47.90625 25.140625 42.453125 
Q 19.78125 37.015625 18.015625 27.875 
L 12.5 0 
L 3.515625 0 
L 14.203125 54.6875 
L 23.1875 54.6875 
L 21.484375 46.1875 
Q 25.046875 50.921875 30 53.453125 
Q 34.96875 56 40.578125 56 
Q 42.046875 56 43.453125 55.828125 
Q 44.875 55.671875 46.296875 55.28125 
z
" id="DejaVuSans-Oblique-114"/>
     <path d="M 19.671875 64.796875 
L 19.671875 8.109375 
L 31.59375 8.109375 
Q 46.6875 8.109375 53.6875 14.9375 
Q 60.6875 21.78125 60.6875 36.53125 
Q 60.6875 51.171875 53.6875 57.984375 
Q 46.6875 64.796875 31.59375 64.796875 
z
M 9.8125 72.90625 
L 30.078125 72.90625 
Q 51.265625 72.90625 61.171875 64.09375 
Q 71.09375 55.28125 71.09375 36.53125 
Q 71.09375 17.671875 61.125 8.828125 
Q 51.171875 0 30.078125 0 
L 9.8125 0 
z
" id="DejaVuSans-68"/>
     <path d="M 39.40625 66.21875 
Q 28.65625 66.21875 22.328125 58.203125 
Q 16.015625 50.203125 16.015625 36.375 
Q 16.015625 22.609375 22.328125 14.59375 
Q 28.65625 6.59375 39.40625 6.59375 
Q 50.140625 6.59375 56.421875 14.59375 
Q 62.703125 22.609375 62.703125 36.375 
Q 62.703125 50.203125 56.421875 58.203125 
Q 50.140625 66.21875 39.40625 66.21875 
z
M 39.40625 74.21875 
Q 54.734375 74.21875 63.90625 63.9375 
Q 73.09375 53.65625 73.09375 36.375 
Q 73.09375 19.140625 63.90625 8.859375 
Q 54.734375 -1.421875 39.40625 -1.421875 
Q 24.03125 -1.421875 14.8125 8.828125 
Q 5.609375 19.09375 5.609375 36.375 
Q 5.609375 53.65625 14.8125 63.9375 
Q 24.03125 74.21875 39.40625 74.21875 
z
" id="DejaVuSans-79"/>
    </defs>
    <g transform="translate(69.12 38.508)scale(0.1 -0.1)">
     <use transform="translate(0 0.765625)" xlink:href="#DejaVuSans-32"/>
     <use transform="translate(31.787109 0.765625)" xlink:href="#DejaVuSans-32"/>
     <use transform="translate(63.574219 0.765625)" xlink:href="#DejaVuSans-32"/>
     <use transform="translate(95.361328 0.765625)" xlink:href="#DejaVuSans-32"/>
     <use transform="translate(127.148438 0.765625)" xlink:href="#DejaVuSans-32"/>
     <use transform="translate(158.935547 0.765625)" xlink:href="#DejaVuSans-32"/>
     <use transform="translate(190.722656 0.765625)" xlink:href="#DejaVuSans-Oblique-967"/>
     <use transform="translate(254.375052 39.046875)scale(0.7)" xlink:href="#DejaVuSans-50"/>
     <use transform="translate(249.902344 -26.578125)scale(0.7)" xlink:href="#DejaVuSans-Oblique-114"/>
     <use transform="translate(301.64556 0.765625)" xlink:href="#DejaVuSans-61"/>
     <use transform="translate(385.434622 0.765625)" xlink:href="#DejaVuSans-49"/>
     <use transform="translate(449.057669 0.765625)" xlink:href="#DejaVuSans-46"/>
     <use transform="translate(480.844779 0.765625)" xlink:href="#DejaVuSans-49"/>
     <use transform="translate(544.467826 0.765625)" xlink:href="#DejaVuSans-57"/>
     <use transform="translate(608.090872 0.765625)" xlink:href="#DejaVuSans-177"/>
     <use transform="translate(691.879935 0.765625)" xlink:href="#DejaVuSans-48"/>
     <use transform="translate(755.502982 0.765625)" xlink:href="#DejaVuSans-46"/>
     <use transform="translate(787.290091 0.765625)" xlink:href="#DejaVuSans-49"/>
     <use transform="translate(850.913138 0.765625)" xlink:href="#DejaVuSans-57"/>
     <use transform="translate(914.536185 0.765625)" xlink:href="#DejaVuSans-32"/>
     <use transform="translate(946.323294 0.765625)" xlink:href="#DejaVuSans-40"/>
     <use transform="translate(985.336966 0.765625)" xlink:href="#DejaVuSans-53"/>
     <use transform="translate(1048.960013 0.765625)" xlink:href="#DejaVuSans-52"/>
     <use transform="translate(1112.58306 0.765625)" xlink:href="#DejaVuSans-32"/>
     <use transform="translate(1144.370169 0.765625)" xlink:href="#DejaVuSans-68"/>
     <use transform="translate(1221.372122 0.765625)" xlink:href="#DejaVuSans-79"/>
     <use transform="translate(1300.08306 0.765625)" xlink:href="#DejaVuSans-70"/>
     <use transform="translate(1357.602591 0.765625)" xlink:href="#DejaVuSans-41"/>
    </g>
   </g>
  </g>
  <g id="axes_2">
   <g id="patch_7">
    <path d="M 69.12 311.04 
L 414.72 311.04 
L 414.72 103.68 
L 69.12 103.68 
z
" style="fill:#ffffff;"/>
   </g>
   <g id="matplotlib.axis_3">
    <g id="xtick_8">
     <g id="line2d_13">
      <g>
       <use style="stroke:#000000;stroke-width:0.8;" x="75.766154" xlink:href="#m8c16ca5fd3" y="311.04"/>
      </g>
     </g>
     <g id="text_5">
      <!-- 250 -->
      <g transform="translate(66.222404 325.638437)scale(0.1 -0.1)">
       <use xlink:href="#DejaVuSans-50"/>
       <use x="63.623047" xlink:href="#DejaVuSans-53"/>
       <use x="127.246094" xlink:href="#DejaVuSans-48"/>
      </g>
     </g>
    </g>
    <g id="xtick_9">
     <g id="line2d_14">
      <g>
       <use style="stroke:#000000;stroke-width:0.8;" x="132.089492" xlink:href="#m8c16ca5fd3" y="311.04"/>
      </g>
     </g>
     <g id="text_6">
      <!-- 260 -->
      <g transform="translate(122.545742 325.638437)scale(0.1 -0.1)">
       <use xlink:href="#DejaVuSans-50"/>
       <use x="63.623047" xlink:href="#DejaVuSans-54"/>
       <use x="127.246094" xlink:href="#DejaVuSans-48"/>
      </g>
     </g>
    </g>
    <g id="xtick_10">
     <g id="line2d_15">
      <g>
       <use style="stroke:#000000;stroke-width:0.8;" x="188.412829" xlink:href="#m8c16ca5fd3" y="311.04"/>
      </g>
     </g>
     <g id="text_7">
      <!-- 270 -->
      <g transform="translate(178.869079 325.638437)scale(0.1 -0.1)">
       <use xlink:href="#DejaVuSans-50"/>
       <use x="63.623047" xlink:href="#DejaVuSans-55"/>
       <use x="127.246094" xlink:href="#DejaVuSans-48"/>
      </g>
     </g>
    </g>
    <g id="xtick_11">
     <g id="line2d_16">
      <g>
       <use style="stroke:#000000;stroke-width:0.8;" x="244.736167" xlink:href="#m8c16ca5fd3" y="311.04"/>
      </g>
     </g>
     <g id="text_8">
      <!-- 280 -->
      <g transform="translate(235.192417 325.638437)scale(0.1 -0.1)">
       <use xlink:href="#DejaVuSans-50"/>
       <use x="63.623047" xlink:href="#DejaVuSans-56"/>
       <use x="127.246094" xlink:href="#DejaVuSans-48"/>
      </g>
     </g>
    </g>
    <g id="xtick_12">
     <g id="line2d_17">
      <g>
       <use style="stroke:#000000;stroke-width:0.8;" x="301.059505" xlink:href="#m8c16ca5fd3" y="311.04"/>
      </g>
     </g>
     <g id="text_9">
      <!-- 290 -->
      <g transform="translate(291.515755 325.638437)scale(0.1 -0.1)">
       <use xlink:href="#DejaVuSans-50"/>
       <use x="63.623047" xlink:href="#DejaVuSans-57"/>
       <use x="127.246094" xlink:href="#DejaVuSans-48"/>
      </g>
     </g>
    </g>
    <g id="xtick_13">
     <g id="line2d_18">
      <g>
       <use style="stroke:#000000;stroke-width:0.8;" x="357.382842" xlink:href="#m8c16ca5fd3" y="311.04"/>
      </g>
     </g>
     <g id="text_10">
      <!-- 300 -->
      <g transform="translate(347.839092 325.638437)scale(0.1 -0.1)">
       <use xlink:href="#DejaVuSans-51"/>
       <use x="63.623047" xlink:href="#DejaVuSans-48"/>
       <use x="127.246094" xlink:href="#DejaVuSans-48"/>
      </g>
     </g>
    </g>
    <g id="xtick_14">
     <g id="line2d_19">
      <g>
       <use style="stroke:#000000;stroke-width:0.8;" x="413.70618" xlink:href="#m8c16ca5fd3" y="311.04"/>
      </g>
     </g>
     <g id="text_11">
      <!-- 310 -->
      <g transform="translate(404.16243 325.638437)scale(0.1 -0.1)">
       <use xlink:href="#DejaVuSans-51"/>
       <use x="63.623047" xlink:href="#DejaVuSans-49"/>
       <use x="127.246094" xlink:href="#DejaVuSans-48"/>
      </g>
     </g>
    </g>
    <g id="text_12">
     <!-- Channel -->
     <defs>
      <path d="M 64.40625 67.28125 
L 64.40625 56.890625 
Q 59.421875 61.53125 53.78125 63.8125 
Q 48.140625 66.109375 41.796875 66.109375 
Q 29.296875 66.109375 22.65625 58.46875 
Q 16.015625 50.828125 16.015625 36.375 
Q 16.015625 21.96875 22.65625 14.328125 
Q 29.296875 6.6875 41.796875 6.6875 
Q 48.140625 6.6875 53.78125 8.984375 
Q 59.421875 11.28125 64.40625 15.921875 
L 64.40625 5.609375 
Q 59.234375 2.09375 53.4375 0.328125 
Q 47.65625 -1.421875 41.21875 -1.421875 
Q 24.65625 -1.421875 15.125 8.703125 
Q 5.609375 18.84375 5.609375 36.375 
Q 5.609375 53.953125 15.125 64.078125 
Q 24.65625 74.21875 41.21875 74.21875 
Q 47.75 74.21875 53.53125 72.484375 
Q 59.328125 70.75 64.40625 67.28125 
z
" id="DejaVuSans-67"/>
      <path d="M 54.890625 33.015625 
L 54.890625 0 
L 45.90625 0 
L 45.90625 32.71875 
Q 45.90625 40.484375 42.875 44.328125 
Q 39.84375 48.1875 33.796875 48.1875 
Q 26.515625 48.1875 22.3125 43.546875 
Q 18.109375 38.921875 18.109375 30.90625 
L 18.109375 0 
L 9.078125 0 
L 9.078125 75.984375 
L 18.109375 75.984375 
L 18.109375 46.1875 
Q 21.34375 51.125 25.703125 53.5625 
Q 30.078125 56 35.796875 56 
Q 45.21875 56 50.046875 50.171875 
Q 54.890625 44.34375 54.890625 33.015625 
z
" id="DejaVuSans-104"/>
     </defs>
     <g transform="translate(221.392656 339.316562)scale(0.1 -0.1)">
      <use xlink:href="#DejaVuSans-67"/>
      <use x="69.824219" xlink:href="#DejaVuSans-104"/>
      <use x="133.203125" xlink:href="#DejaVuSans-97"/>
      <use x="194.482422" xlink:href="#DejaVuSans-110"/>
      <use x="257.861328" xlink:href="#DejaVuSans-110"/>
      <use x="321.240234" xlink:href="#DejaVuSans-101"/>
      <use x="382.763672" xlink:href="#DejaVuSans-108"/>
     </g>
    </g>
   </g>
   <g id="matplotlib.axis_4">
    <g id="ytick_4">
     <g id="line2d_20">
      <g>
       <use style="stroke:#000000;stroke-width:0.8;" x="69.12" xlink:href="#m27a1d3b6b6" y="281.501372"/>
      </g>
     </g>
     <g id="text_13">
      <!-- 1000 -->
      <g transform="translate(36.67 285.300591)scale(0.1 -0.1)">
       <use xlink:href="#DejaVuSans-49"/>
       <use x="63.623047" xlink:href="#DejaVuSans-48"/>
       <use x="127.246094" xlink:href="#DejaVuSans-48"/>
       <use x="190.869141" xlink:href="#DejaVuSans-48"/>
      </g>
     </g>
    </g>
    <g id="ytick_5">
     <g id="line2d_21">
      <g>
       <use style="stroke:#000000;stroke-width:0.8;" x="69.12" xlink:href="#m27a1d3b6b6" y="244.372338"/>
      </g>
     </g>
     <g id="text_14">
      <!-- 2000 -->
      <g transform="translate(36.67 248.171557)scale(0.1 -0.1)">
       <use xlink:href="#DejaVuSans-50"/>
       <use x="63.623047" xlink:href="#DejaVuSans-48"/>
       <use x="127.246094" xlink:href="#DejaVuSans-48"/>
       <use x="190.869141" xlink:href="#DejaVuSans-48"/>
      </g>
     </g>
    </g>
    <g id="ytick_6">
     <g id="line2d_22">
      <g>
       <use style="stroke:#000000;stroke-width:0.8;" x="69.12" xlink:href="#m27a1d3b6b6" y="207.243303"/>
      </g>
     </g>
     <g id="text_15">
      <!-- 3000 -->
      <g transform="translate(36.67 211.042522)scale(0.1 -0.1)">
       <use xlink:href="#DejaVuSans-51"/>
       <use x="63.623047" xlink:href="#DejaVuSans-48"/>
       <use x="127.246094" xlink:href="#DejaVuSans-48"/>
       <use x="190.869141" xlink:href="#DejaVuSans-48"/>
      </g>
     </g>
    </g>
    <g id="ytick_7">
     <g id="line2d_23">
      <g>
       <use style="stroke:#000000;stroke-width:0.8;" x="69.12" xlink:href="#m27a1d3b6b6" y="170.114269"/>
      </g>
     </g>
     <g id="text_16">
      <!-- 4000 -->
      <g transform="translate(36.67 173.913488)scale(0.1 -0.1)">
       <use xlink:href="#DejaVuSans-52"/>
       <use x="63.623047" xlink:href="#DejaVuSans-48"/>
       <use x="127.246094" xlink:href="#DejaVuSans-48"/>
       <use x="190.869141" xlink:href="#DejaVuSans-48"/>
      </g>
     </g>
    </g>
    <g id="ytick_8">
     <g id="line2d_24">
      <g>
       <use style="stroke:#000000;stroke-width:0.8;" x="69.12" xlink:href="#m27a1d3b6b6" y="132.985235"/>
      </g>
     </g>
     <g id="text_17">
      <!-- 5000 -->
      <g transform="translate(36.67 136.784453)scale(0.1 -0.1)">
       <use xlink:href="#DejaVuSans-53"/>
       <use x="63.623047" xlink:href="#DejaVuSans-48"/>
       <use x="127.246094" xlink:href="#DejaVuSans-48"/>
       <use x="190.869141" xlink:href="#DejaVuSans-48"/>
      </g>
     </g>
    </g>
    <g id="text_18">
     <!-- Count -->
     <g transform="translate(30.590312 222.208438)rotate(-90)scale(0.1 -0.1)">
      <use xlink:href="#DejaVuSans-67"/>
      <use x="69.824219" xlink:href="#DejaVuSans-111"/>
      <use x="131.005859" xlink:href="#DejaVuSans-117"/>
      <use x="194.384766" xlink:href="#DejaVuSans-110"/>
      <use x="257.763672" xlink:href="#DejaVuSans-116"/>
     </g>
    </g>
   </g>
   <g id="LineCollection_2">
    <path clip-path="url(#p76be17b058)" d="M 75.766154 297.917035 
L 75.766154 296.125583 
" style="fill:none;stroke:#0000ff;stroke-width:1.5;"/>
    <path clip-path="url(#p76be17b058)" d="M 81.398488 297.917035 
L 81.398488 296.125583 
" style="fill:none;stroke:#0000ff;stroke-width:1.5;"/>
    <path clip-path="url(#p76be17b058)" d="M 87.030821 293.403851 
L 87.030821 291.430765 
" style="fill:none;stroke:#0000ff;stroke-width:1.5;"/>
    <path clip-path="url(#p76be17b058)" d="M 92.663155 291.253634 
L 92.663155 289.199757 
" style="fill:none;stroke:#0000ff;stroke-width:1.5;"/>
    <path clip-path="url(#p76be17b058)" d="M 98.295489 289.685552 
L 98.295489 287.574741 
" style="fill:none;stroke:#0000ff;stroke-width:1.5;"/>
    <path clip-path="url(#p76be17b058)" d="M 103.927823 284.392636 
L 103.927823 282.100238 
" style="fill:none;stroke:#0000ff;stroke-width:1.5;"/>
    <path clip-path="url(#p76be17b058)" d="M 109.560156 281.542555 
L 109.560156 279.158189 
" style="fill:none;stroke:#0000ff;stroke-width:1.5;"/>
    <path clip-path="url(#p76be17b058)" d="M 115.19249 278.142164 
L 115.19249 275.65258 
" style="fill:none;stroke:#0000ff;stroke-width:1.5;"/>
    <path clip-path="url(#p76be17b058)" d="M 120.824824 271.847823 
L 120.824824 269.174533 
" style="fill:none;stroke:#0000ff;stroke-width:1.5;"/>
    <path clip-path="url(#p76be17b058)" d="M 126.457158 268.18553 
L 126.457158 265.411019 
" style="fill:none;stroke:#0000ff;stroke-width:1.5;"/>
    <path clip-path="url(#p76be17b058)" d="M 132.089492 258.545635 
L 132.089492 255.521042 
" style="fill:none;stroke:#0000ff;stroke-width:1.5;"/>
    <path clip-path="url(#p76be17b058)" d="M 137.721825 251.685462 
L 137.721825 248.494956 
" style="fill:none;stroke:#0000ff;stroke-width:1.5;"/>
    <path clip-path="url(#p76be17b058)" d="M 143.354159 243.682899 
L 143.354159 240.309261 
" style="fill:none;stroke:#0000ff;stroke-width:1.5;"/>
    <path clip-path="url(#p76be17b058)" d="M 148.986493 236.924739 
L 148.986493 233.403936 
" style="fill:none;stroke:#0000ff;stroke-width:1.5;"/>
    <path clip-path="url(#p76be17b058)" d="M 154.618827 227.995089 
L 154.618827 224.288875 
" style="fill:none;stroke:#0000ff;stroke-width:1.5;"/>
    <path clip-path="url(#p76be17b058)" d="M 160.25116 221.451188 
L 160.25116 217.61484 
" style="fill:none;stroke:#0000ff;stroke-width:1.5;"/>
    <path clip-path="url(#p76be17b058)" d="M 165.883494 206.995851 
L 165.883494 202.886756 
" style="fill:none;stroke:#0000ff;stroke-width:1.5;"/>
    <path clip-path="url(#p76be17b058)" d="M 171.515828 200.592968 
L 171.515828 196.368735 
" style="fill:none;stroke:#0000ff;stroke-width:1.5;"/>
    <path clip-path="url(#p76be17b058)" d="M 177.148162 194.262179 
L 177.148162 189.927136 
" style="fill:none;stroke:#0000ff;stroke-width:1.5;"/>
    <path clip-path="url(#p76be17b058)" d="M 182.780495 177.69278 
L 182.780495 173.080404 
" style="fill:none;stroke:#0000ff;stroke-width:1.5;"/>
    <path clip-path="url(#p76be17b058)" d="M 188.412829 172.16783 
L 188.412829 167.466643 
" style="fill:none;stroke:#0000ff;stroke-width:1.5;"/>
    <path clip-path="url(#p76be17b058)" d="M 194.045163 155.588212 
L 194.045163 150.63013 
" style="fill:none;stroke:#0000ff;stroke-width:1.5;"/>
    <path clip-path="url(#p76be17b058)" d="M 199.677497 153.266538 
L 199.677497 148.273546 
" style="fill:none;stroke:#0000ff;stroke-width:1.5;"/>
    <path clip-path="url(#p76be17b058)" d="M 205.309831 149.544238 
L 205.309831 144.495781 
" style="fill:none;stroke:#0000ff;stroke-width:1.5;"/>
    <path clip-path="url(#p76be17b058)" d="M 210.942164 136.126782 
L 210.942164 130.8833 
" style="fill:none;stroke:#0000ff;stroke-width:1.5;"/>
    <path clip-path="url(#p76be17b058)" d="M 216.574498 130.449091 
L 216.574498 125.125249 
" style="fill:none;stroke:#0000ff;stroke-width:1.5;"/>
    <path clip-path="url(#p76be17b058)" d="M 222.206832 121.931442 
L 222.206832 116.489283 
" style="fill:none;stroke:#0000ff;stroke-width:1.5;"/>
    <path clip-path="url(#p76be17b058)" d="M 227.839166 123.111453 
L 227.839166 117.685531 
" style="fill:none;stroke:#0000ff;stroke-width:1.5;"/>
    <path clip-path="url(#p76be17b058)" d="M 233.471499 121.157047 
L 233.471499 115.704259 
" style="fill:none;stroke:#0000ff;stroke-width:1.5;"/>
    <path clip-path="url(#p76be17b058)" d="M 239.103833 113.228129 
L 239.103833 107.667692 
" style="fill:none;stroke:#0000ff;stroke-width:1.5;"/>
    <path clip-path="url(#p76be17b058)" d="M 244.736167 121.747064 
L 244.736167 116.302372 
" style="fill:none;stroke:#0000ff;stroke-width:1.5;"/>
    <path clip-path="url(#p76be17b058)" d="M 250.368501 124.438937 
L 250.368501 119.031338 
" style="fill:none;stroke:#0000ff;stroke-width:1.5;"/>
    <path clip-path="url(#p76be17b058)" d="M 256.000834 122.484576 
L 256.000834 117.050021 
" style="fill:none;stroke:#0000ff;stroke-width:1.5;"/>
    <path clip-path="url(#p76be17b058)" d="M 261.633168 121.710188 
L 261.633168 116.26499 
" style="fill:none;stroke:#0000ff;stroke-width:1.5;"/>
    <path clip-path="url(#p76be17b058)" d="M 267.265502 134.688983 
L 267.265502 129.425034 
" style="fill:none;stroke:#0000ff;stroke-width:1.5;"/>
    <path clip-path="url(#p76be17b058)" d="M 272.897836 145.932213 
L 272.897836 140.830516 
" style="fill:none;stroke:#0000ff;stroke-width:1.5;"/>
    <path clip-path="url(#p76be17b058)" d="M 278.530169 149.654806 
L 278.530169 144.607988 
" style="fill:none;stroke:#0000ff;stroke-width:1.5;"/>
    <path clip-path="url(#p76be17b058)" d="M 284.162503 155.661914 
L 284.162503 150.704945 
" style="fill:none;stroke:#0000ff;stroke-width:1.5;"/>
    <path clip-path="url(#p76be17b058)" d="M 289.794837 168.705106 
L 289.794837 163.94911 
" style="fill:none;stroke:#0000ff;stroke-width:1.5;"/>
    <path clip-path="url(#p76be17b058)" d="M 295.427171 179.460583 
L 295.427171 174.876989 
" style="fill:none;stroke:#0000ff;stroke-width:1.5;"/>
    <path clip-path="url(#p76be17b058)" d="M 301.059505 190.764924 
L 301.059505 186.369875 
" style="fill:none;stroke:#0000ff;stroke-width:1.5;"/>
    <path clip-path="url(#p76be17b058)" d="M 306.691838 199.415256 
L 306.691838 195.170188 
" style="fill:none;stroke:#0000ff;stroke-width:1.5;"/>
    <path clip-path="url(#p76be17b058)" d="M 312.324172 212.882098 
L 312.324172 208.8818 
" style="fill:none;stroke:#0000ff;stroke-width:1.5;"/>
    <path clip-path="url(#p76be17b058)" d="M 317.956506 223.951369 
L 317.956506 220.164207 
" style="fill:none;stroke:#0000ff;stroke-width:1.5;"/>
    <path clip-path="url(#p76be17b058)" d="M 323.58884 233.28731 
L 323.58884 229.689815 
" style="fill:none;stroke:#0000ff;stroke-width:1.5;"/>
    <path clip-path="url(#p76be17b058)" d="M 329.221173 240.818412 
L 329.221173 237.381618 
" style="fill:none;stroke:#0000ff;stroke-width:1.5;"/>
    <path clip-path="url(#p76be17b058)" d="M 334.853507 252.272598 
L 334.853507 249.095949 
" style="fill:none;stroke:#0000ff;stroke-width:1.5;"/>
    <path clip-path="url(#p76be17b058)" d="M 340.485841 261.442382 
L 340.485841 258.490682 
" style="fill:none;stroke:#0000ff;stroke-width:1.5;"/>
    <path clip-path="url(#p76be17b058)" d="M 346.118175 268.258794 
L 346.118175 265.486272 
" style="fill:none;stroke:#0000ff;stroke-width:1.5;"/>
    <path clip-path="url(#p76be17b058)" d="M 351.750508 273.019347 
L 351.750508 270.379267 
" style="fill:none;stroke:#0000ff;stroke-width:1.5;"/>
    <path clip-path="url(#p76be17b058)" d="M 357.382842 279.0199 
L 357.382842 276.557038 
" style="fill:none;stroke:#0000ff;stroke-width:1.5;"/>
    <path clip-path="url(#p76be17b058)" d="M 363.015176 286.328147 
L 363.015176 284.100405 
" style="fill:none;stroke:#0000ff;stroke-width:1.5;"/>
    <path clip-path="url(#p76be17b058)" d="M 368.64751 289.576123 
L 368.64751 287.461397 
" style="fill:none;stroke:#0000ff;stroke-width:1.5;"/>
    <path clip-path="url(#p76be17b058)" d="M 374.279844 293.440281 
L 374.279844 291.468593 
" style="fill:none;stroke:#0000ff;stroke-width:1.5;"/>
    <path clip-path="url(#p76be17b058)" d="M 379.912177 298.716781 
L 379.912177 296.959514 
" style="fill:none;stroke:#0000ff;stroke-width:1.5;"/>
    <path clip-path="url(#p76be17b058)" d="M 385.544511 300.823521 
L 385.544511 299.159742 
" style="fill:none;stroke:#0000ff;stroke-width:1.5;"/>
    <path clip-path="url(#p76be17b058)" d="M 391.176845 303.905796 
L 391.176845 302.389403 
" style="fill:none;stroke:#0000ff;stroke-width:1.5;"/>
    <path clip-path="url(#p76be17b058)" d="M 396.809179 304.883323 
L 396.809179 303.416844 
" style="fill:none;stroke:#0000ff;stroke-width:1.5;"/>
    <path clip-path="url(#p76be17b058)" d="M 402.441512 306.510531 
L 402.441512 305.131249 
" style="fill:none;stroke:#0000ff;stroke-width:1.5;"/>
    <path clip-path="url(#p76be17b058)" d="M 408.073846 307.052308 
L 408.073846 305.703343 
" style="fill:none;stroke:#0000ff;stroke-width:1.5;"/>
   </g>
   <g id="line2d_25">
    <path clip-path="url(#p76be17b058)" d="M 75.766154 297.973543 
L 81.42104 295.818919 
L 86.410644 293.686541 
L 91.067609 291.47047 
L 95.724574 289.007919 
L 100.048898 286.475855 
L 104.373222 283.68431 
L 108.697547 280.611247 
L 112.689231 277.506566 
L 116.680915 274.12893 
L 120.672599 270.464783 
L 124.664283 266.50269 
L 128.655967 262.233817 
L 132.647651 257.652406 
L 136.971975 252.334063 
L 141.296299 246.648954 
L 145.620624 240.605782 
L 150.277588 233.715161 
L 155.267193 225.924179 
L 160.589439 217.20183 
L 166.909605 206.395157 
L 175.225613 191.693074 
L 189.196507 166.953577 
L 194.851393 157.40876 
L 199.508358 149.947702 
L 203.832682 143.440181 
L 207.491726 138.312441 
L 210.818129 133.994834 
L 214.144532 130.040186 
L 217.138295 126.817929 
L 220.132058 123.937428 
L 222.793181 121.679984 
L 225.454304 119.720858 
L 227.782786 118.260149 
L 230.111268 117.042949 
L 232.439751 116.074867 
L 234.768233 115.360546 
L 237.096715 114.903628 
L 239.425198 114.70673 
L 241.42104 114.746134 
L 243.416881 114.978116 
L 245.745364 115.491854 
L 248.073846 116.266104 
L 250.402328 117.298499 
L 252.730811 118.585634 
L 255.059293 120.123083 
L 257.387775 121.905428 
L 260.048898 124.234044 
L 262.710021 126.863186 
L 265.703784 130.164636 
L 268.697547 133.810853 
L 272.02395 138.240014 
L 275.350353 143.035486 
L 279.009397 148.69215 
L 283.001081 155.263381 
L 287.658046 163.372023 
L 293.312931 173.710443 
L 300.963659 188.231733 
L 316.597755 218.043638 
L 322.917921 229.538375 
L 328.240166 238.764072 
L 333.229771 246.956812 
L 337.886736 254.156058 
L 342.21106 260.424652 
L 346.202744 265.83848 
L 350.194428 270.8851 
L 354.186112 275.56011 
L 357.845156 279.518981 
L 361.5042 283.168397 
L 365.163243 286.513693 
L 368.822287 289.562348 
L 372.481331 292.323672 
L 376.140374 294.808489 
L 379.799418 297.028843 
L 383.458462 298.997708 
L 387.117505 300.728722 
L 391.109189 302.362355 
L 395.100873 303.748158 
L 399.092557 304.904606 
L 403.416881 305.919684 
L 407.741206 306.709365 
L 408.073846 306.761396 
L 408.073846 306.761396 
" style="fill:none;stroke:#ff0000;stroke-linecap:square;stroke-width:1.5;"/>
   </g>
   <g id="line2d_26">
    <g clip-path="url(#p76be17b058)">
     <use style="fill:#0000ff;stroke:#0000ff;" x="75.766154" xlink:href="#m2a4e12c99e" y="297.021309"/>
     <use style="fill:#0000ff;stroke:#0000ff;" x="81.398488" xlink:href="#m2a4e12c99e" y="297.021309"/>
     <use style="fill:#0000ff;stroke:#0000ff;" x="87.030821" xlink:href="#m2a4e12c99e" y="292.417308"/>
     <use style="fill:#0000ff;stroke:#0000ff;" x="92.663155" xlink:href="#m2a4e12c99e" y="290.226695"/>
     <use style="fill:#0000ff;stroke:#0000ff;" x="98.295489" xlink:href="#m2a4e12c99e" y="288.630147"/>
     <use style="fill:#0000ff;stroke:#0000ff;" x="103.927823" xlink:href="#m2a4e12c99e" y="283.246437"/>
     <use style="fill:#0000ff;stroke:#0000ff;" x="109.560156" xlink:href="#m2a4e12c99e" y="280.350372"/>
     <use style="fill:#0000ff;stroke:#0000ff;" x="115.19249" xlink:href="#m2a4e12c99e" y="276.897372"/>
     <use style="fill:#0000ff;stroke:#0000ff;" x="120.824824" xlink:href="#m2a4e12c99e" y="270.511178"/>
     <use style="fill:#0000ff;stroke:#0000ff;" x="126.457158" xlink:href="#m2a4e12c99e" y="266.798275"/>
     <use style="fill:#0000ff;stroke:#0000ff;" x="132.089492" xlink:href="#m2a4e12c99e" y="257.033339"/>
     <use style="fill:#0000ff;stroke:#0000ff;" x="137.721825" xlink:href="#m2a4e12c99e" y="250.090209"/>
     <use style="fill:#0000ff;stroke:#0000ff;" x="143.354159" xlink:href="#m2a4e12c99e" y="241.99608"/>
     <use style="fill:#0000ff;stroke:#0000ff;" x="148.986493" xlink:href="#m2a4e12c99e" y="235.164337"/>
     <use style="fill:#0000ff;stroke:#0000ff;" x="154.618827" xlink:href="#m2a4e12c99e" y="226.141982"/>
     <use style="fill:#0000ff;stroke:#0000ff;" x="160.25116" xlink:href="#m2a4e12c99e" y="219.533014"/>
     <use style="fill:#0000ff;stroke:#0000ff;" x="165.883494" xlink:href="#m2a4e12c99e" y="204.941303"/>
     <use style="fill:#0000ff;stroke:#0000ff;" x="171.515828" xlink:href="#m2a4e12c99e" y="198.480851"/>
     <use style="fill:#0000ff;stroke:#0000ff;" x="177.148162" xlink:href="#m2a4e12c99e" y="192.094657"/>
     <use style="fill:#0000ff;stroke:#0000ff;" x="182.780495" xlink:href="#m2a4e12c99e" y="175.386592"/>
     <use style="fill:#0000ff;stroke:#0000ff;" x="188.412829" xlink:href="#m2a4e12c99e" y="169.817237"/>
     <use style="fill:#0000ff;stroke:#0000ff;" x="194.045163" xlink:href="#m2a4e12c99e" y="153.109171"/>
     <use style="fill:#0000ff;stroke:#0000ff;" x="199.677497" xlink:href="#m2a4e12c99e" y="150.770042"/>
     <use style="fill:#0000ff;stroke:#0000ff;" x="205.309831" xlink:href="#m2a4e12c99e" y="147.02001"/>
     <use style="fill:#0000ff;stroke:#0000ff;" x="210.942164" xlink:href="#m2a4e12c99e" y="133.505041"/>
     <use style="fill:#0000ff;stroke:#0000ff;" x="216.574498" xlink:href="#m2a4e12c99e" y="127.78717"/>
     <use style="fill:#0000ff;stroke:#0000ff;" x="222.206832" xlink:href="#m2a4e12c99e" y="119.210363"/>
     <use style="fill:#0000ff;stroke:#0000ff;" x="227.839166" xlink:href="#m2a4e12c99e" y="120.398492"/>
     <use style="fill:#0000ff;stroke:#0000ff;" x="233.471499" xlink:href="#m2a4e12c99e" y="118.430653"/>
     <use style="fill:#0000ff;stroke:#0000ff;" x="239.103833" xlink:href="#m2a4e12c99e" y="110.447911"/>
     <use style="fill:#0000ff;stroke:#0000ff;" x="244.736167" xlink:href="#m2a4e12c99e" y="119.024718"/>
     <use style="fill:#0000ff;stroke:#0000ff;" x="250.368501" xlink:href="#m2a4e12c99e" y="121.735137"/>
     <use style="fill:#0000ff;stroke:#0000ff;" x="256.000834" xlink:href="#m2a4e12c99e" y="119.767298"/>
     <use style="fill:#0000ff;stroke:#0000ff;" x="261.633168" xlink:href="#m2a4e12c99e" y="118.987589"/>
     <use style="fill:#0000ff;stroke:#0000ff;" x="267.265502" xlink:href="#m2a4e12c99e" y="132.057009"/>
     <use style="fill:#0000ff;stroke:#0000ff;" x="272.897836" xlink:href="#m2a4e12c99e" y="143.381364"/>
     <use style="fill:#0000ff;stroke:#0000ff;" x="278.530169" xlink:href="#m2a4e12c99e" y="147.131397"/>
     <use style="fill:#0000ff;stroke:#0000ff;" x="284.162503" xlink:href="#m2a4e12c99e" y="153.183429"/>
     <use style="fill:#0000ff;stroke:#0000ff;" x="289.794837" xlink:href="#m2a4e12c99e" y="166.327108"/>
     <use style="fill:#0000ff;stroke:#0000ff;" x="295.427171" xlink:href="#m2a4e12c99e" y="177.168786"/>
     <use style="fill:#0000ff;stroke:#0000ff;" x="301.059505" xlink:href="#m2a4e12c99e" y="188.567399"/>
     <use style="fill:#0000ff;stroke:#0000ff;" x="306.691838" xlink:href="#m2a4e12c99e" y="197.292722"/>
     <use style="fill:#0000ff;stroke:#0000ff;" x="312.324172" xlink:href="#m2a4e12c99e" y="210.881949"/>
     <use style="fill:#0000ff;stroke:#0000ff;" x="317.956506" xlink:href="#m2a4e12c99e" y="222.057788"/>
     <use style="fill:#0000ff;stroke:#0000ff;" x="323.58884" xlink:href="#m2a4e12c99e" y="231.488563"/>
     <use style="fill:#0000ff;stroke:#0000ff;" x="329.221173" xlink:href="#m2a4e12c99e" y="239.100015"/>
     <use style="fill:#0000ff;stroke:#0000ff;" x="334.853507" xlink:href="#m2a4e12c99e" y="250.684274"/>
     <use style="fill:#0000ff;stroke:#0000ff;" x="340.485841" xlink:href="#m2a4e12c99e" y="259.966532"/>
     <use style="fill:#0000ff;stroke:#0000ff;" x="346.118175" xlink:href="#m2a4e12c99e" y="266.872533"/>
     <use style="fill:#0000ff;stroke:#0000ff;" x="351.750508" xlink:href="#m2a4e12c99e" y="271.699307"/>
     <use style="fill:#0000ff;stroke:#0000ff;" x="357.382842" xlink:href="#m2a4e12c99e" y="277.788469"/>
     <use style="fill:#0000ff;stroke:#0000ff;" x="363.015176" xlink:href="#m2a4e12c99e" y="285.214276"/>
     <use style="fill:#0000ff;stroke:#0000ff;" x="368.64751" xlink:href="#m2a4e12c99e" y="288.51876"/>
     <use style="fill:#0000ff;stroke:#0000ff;" x="374.279844" xlink:href="#m2a4e12c99e" y="292.454437"/>
     <use style="fill:#0000ff;stroke:#0000ff;" x="379.912177" xlink:href="#m2a4e12c99e" y="297.838147"/>
     <use style="fill:#0000ff;stroke:#0000ff;" x="385.544511" xlink:href="#m2a4e12c99e" y="299.991631"/>
     <use style="fill:#0000ff;stroke:#0000ff;" x="391.176845" xlink:href="#m2a4e12c99e" y="303.147599"/>
     <use style="fill:#0000ff;stroke:#0000ff;" x="396.809179" xlink:href="#m2a4e12c99e" y="304.150083"/>
     <use style="fill:#0000ff;stroke:#0000ff;" x="402.441512" xlink:href="#m2a4e12c99e" y="305.82089"/>
     <use style="fill:#0000ff;stroke:#0000ff;" x="408.073846" xlink:href="#m2a4e12c99e" y="306.377825"/>
    </g>
   </g>
   <g id="patch_8">
    <path d="M 69.12 311.04 
L 69.12 103.68 
" style="fill:none;stroke:#000000;stroke-linecap:square;stroke-linejoin:miter;stroke-width:0.8;"/>
   </g>
   <g id="patch_9">
    <path d="M 414.72 311.04 
L 414.72 103.68 
" style="fill:none;stroke:#000000;stroke-linecap:square;stroke-linejoin:miter;stroke-width:0.8;"/>
   </g>
   <g id="patch_10">
    <path d="M 69.12 311.04 
L 414.72 311.04 
" style="fill:none;stroke:#000000;stroke-linecap:square;stroke-linejoin:miter;stroke-width:0.8;"/>
   </g>
   <g id="patch_11">
    <path d="M 69.12 103.68 
L 414.72 103.68 
" style="fill:none;stroke:#000000;stroke-linecap:square;stroke-linejoin:miter;stroke-width:0.8;"/>
   </g>
  </g>
 </g>
 <defs>
  <clipPath id="p6c893b6cc5">
   <rect height="51.84" width="345.6" x="69.12" y="44.928"/>
  </clipPath>
  <clipPath id="p76be17b058">
   <rect height="207.36" width="345.6" x="69.12" y="103.68"/>
  </clipPath>
 </defs>
</svg>
