<?xml version="1.0" encoding="utf-8" standalone="no"?>
<!DOCTYPE svg PUBLIC "-//W3C//DTD SVG 1.1//EN"
  "http://www.w3.org/Graphics/SVG/1.1/DTD/svg11.dtd">
<!-- Created with matplotlib (https://matplotlib.org/) -->
<svg height="345.6pt" version="1.1" viewBox="0 0 460.8 345.6" width="460.8pt" xmlns="http://www.w3.org/2000/svg" xmlns:xlink="http://www.w3.org/1999/xlink">
 <defs>
  <style type="text/css">
*{stroke-linecap:butt;stroke-linejoin:round;}
  </style>
 </defs>
 <g id="figure_1">
  <g id="patch_1">
   <path d="M 0 345.6 
L 460.8 345.6 
L 460.8 0 
L 0 0 
z
" style="fill:#ffffff;"/>
  </g>
  <g id="axes_1">
   <g id="patch_2">
    <path d="M 69.12 96.768 
L 414.72 96.768 
L 414.72 44.928 
L 69.12 44.928 
z
" style="fill:#ffffff;"/>
   </g>
   <g id="matplotlib.axis_1">
    <g id="xtick_1">
     <g id="line2d_1">
      <defs>
       <path d="M 0 0 
L 0 3.5 
" id="mc25a9c0e52" style="stroke:#000000;stroke-width:0.8;"/>
      </defs>
      <g>
       <use style="stroke:#000000;stroke-width:0.8;" x="98.295489" xlink:href="#mc25a9c0e52" y="96.768"/>
      </g>
     </g>
    </g>
    <g id="xtick_2">
     <g id="line2d_2">
      <g>
       <use style="stroke:#000000;stroke-width:0.8;" x="154.618827" xlink:href="#mc25a9c0e52" y="96.768"/>
      </g>
     </g>
    </g>
    <g id="xtick_3">
     <g id="line2d_3">
      <g>
       <use style="stroke:#000000;stroke-width:0.8;" x="210.942164" xlink:href="#mc25a9c0e52" y="96.768"/>
      </g>
     </g>
    </g>
    <g id="xtick_4">
     <g id="line2d_4">
      <g>
       <use style="stroke:#000000;stroke-width:0.8;" x="267.265502" xlink:href="#mc25a9c0e52" y="96.768"/>
      </g>
     </g>
    </g>
    <g id="xtick_5">
     <g id="line2d_5">
      <g>
       <use style="stroke:#000000;stroke-width:0.8;" x="323.58884" xlink:href="#mc25a9c0e52" y="96.768"/>
      </g>
     </g>
    </g>
    <g id="xtick_6">
     <g id="line2d_6">
      <g>
       <use style="stroke:#000000;stroke-width:0.8;" x="379.912177" xlink:href="#mc25a9c0e52" y="96.768"/>
      </g>
     </g>
    </g>
   </g>
   <g id="matplotlib.axis_2">
    <g id="ytick_1">
     <g id="line2d_7">
      <defs>
       <path d="M 0 0 
L -3.5 0 
" id="me6216bfcd5" style="stroke:#000000;stroke-width:0.8;"/>
      </defs>
      <g>
       <use style="stroke:#000000;stroke-width:0.8;" x="69.12" xlink:href="#me6216bfcd5" y="85.976828"/>
      </g>
     </g>
     <g id="text_1">
      <!-- −2.5 -->
      <defs>
       <path d="M 10.59375 35.5 
L 73.1875 35.5 
L 73.1875 27.203125 
L 10.59375 27.203125 
z
" id="DejaVuSans-8722"/>
       <path d="M 19.1875 8.296875 
L 53.609375 8.296875 
L 53.609375 0 
L 7.328125 0 
L 7.328125 8.296875 
Q 12.9375 14.109375 22.625 23.890625 
Q 32.328125 33.6875 34.8125 36.53125 
Q 39.546875 41.84375 41.421875 45.53125 
Q 43.3125 49.21875 43.3125 52.78125 
Q 43.3125 58.59375 39.234375 62.25 
Q 35.15625 65.921875 28.609375 65.921875 
Q 23.96875 65.921875 18.8125 64.3125 
Q 13.671875 62.703125 7.8125 59.421875 
L 7.8125 69.390625 
Q 13.765625 71.78125 18.9375 73 
Q 24.125 74.21875 28.421875 74.21875 
Q 39.75 74.21875 46.484375 68.546875 
Q 53.21875 62.890625 53.21875 53.421875 
Q 53.21875 48.921875 51.53125 44.890625 
Q 49.859375 40.875 45.40625 35.40625 
Q 44.1875 33.984375 37.640625 27.21875 
Q 31.109375 20.453125 19.1875 8.296875 
z
" id="DejaVuSans-50"/>
       <path d="M 10.6875 12.40625 
L 21 12.40625 
L 21 0 
L 10.6875 0 
z
" id="DejaVuSans-46"/>
       <path d="M 10.796875 72.90625 
L 49.515625 72.90625 
L 49.515625 64.59375 
L 19.828125 64.59375 
L 19.828125 46.734375 
Q 21.96875 47.46875 24.109375 47.828125 
Q 26.265625 48.1875 28.421875 48.1875 
Q 40.625 48.1875 47.75 41.5 
Q 54.890625 34.8125 54.890625 23.390625 
Q 54.890625 11.625 47.5625 5.09375 
Q 40.234375 -1.421875 26.90625 -1.421875 
Q 22.3125 -1.421875 17.546875 -0.640625 
Q 12.796875 0.140625 7.71875 1.703125 
L 7.71875 11.625 
Q 12.109375 9.234375 16.796875 8.0625 
Q 21.484375 6.890625 26.703125 6.890625 
Q 35.15625 6.890625 40.078125 11.328125 
Q 45.015625 15.765625 45.015625 23.390625 
Q 45.015625 31 40.078125 35.4375 
Q 35.15625 39.890625 26.703125 39.890625 
Q 22.75 39.890625 18.8125 39.015625 
Q 14.890625 38.140625 10.796875 36.28125 
z
" id="DejaVuSans-53"/>
      </defs>
      <g transform="translate(37.837187 89.776046)scale(0.1 -0.1)">
       <use xlink:href="#DejaVuSans-8722"/>
       <use x="83.789062" xlink:href="#DejaVuSans-50"/>
       <use x="147.412109" xlink:href="#DejaVuSans-46"/>
       <use x="179.199219" xlink:href="#DejaVuSans-53"/>
      </g>
     </g>
    </g>
    <g id="ytick_2">
     <g id="line2d_8">
      <g>
       <use style="stroke:#000000;stroke-width:0.8;" x="69.12" xlink:href="#me6216bfcd5" y="68.201558"/>
      </g>
     </g>
    </g>
    <g id="ytick_3">
     <g id="line2d_9">
      <g>
       <use style="stroke:#000000;stroke-width:0.8;" x="69.12" xlink:href="#me6216bfcd5" y="50.426288"/>
      </g>
     </g>
     <g id="text_2">
      <!-- 2.5 -->
      <g transform="translate(46.216875 54.225507)scale(0.1 -0.1)">
       <use xlink:href="#DejaVuSans-50"/>
       <use x="63.623047" xlink:href="#DejaVuSans-46"/>
       <use x="95.410156" xlink:href="#DejaVuSans-53"/>
      </g>
     </g>
    </g>
    <g id="text_3">
     <!-- Studentized -->
     <defs>
      <path d="M 53.515625 70.515625 
L 53.515625 60.890625 
Q 47.90625 63.578125 42.921875 64.890625 
Q 37.9375 66.21875 33.296875 66.21875 
Q 25.25 66.21875 20.875 63.09375 
Q 16.5 59.96875 16.5 54.203125 
Q 16.5 49.359375 19.40625 46.890625 
Q 22.3125 44.4375 30.421875 42.921875 
L 36.375 41.703125 
Q 47.40625 39.59375 52.65625 34.296875 
Q 57.90625 29 57.90625 20.125 
Q 57.90625 9.515625 50.796875 4.046875 
Q 43.703125 -1.421875 29.984375 -1.421875 
Q 24.8125 -1.421875 18.96875 -0.25 
Q 13.140625 0.921875 6.890625 3.21875 
L 6.890625 13.375 
Q 12.890625 10.015625 18.65625 8.296875 
Q 24.421875 6.59375 29.984375 6.59375 
Q 38.421875 6.59375 43.015625 9.90625 
Q 47.609375 13.234375 47.609375 19.390625 
Q 47.609375 24.75 44.3125 27.78125 
Q 41.015625 30.8125 33.5 32.328125 
L 27.484375 33.5 
Q 16.453125 35.6875 11.515625 40.375 
Q 6.59375 45.0625 6.59375 53.421875 
Q 6.59375 63.09375 13.40625 68.65625 
Q 20.21875 74.21875 32.171875 74.21875 
Q 37.3125 74.21875 42.625 73.28125 
Q 47.953125 72.359375 53.515625 70.515625 
z
" id="DejaVuSans-83"/>
      <path d="M 18.3125 70.21875 
L 18.3125 54.6875 
L 36.8125 54.6875 
L 36.8125 47.703125 
L 18.3125 47.703125 
L 18.3125 18.015625 
Q 18.3125 11.328125 20.140625 9.421875 
Q 21.96875 7.515625 27.59375 7.515625 
L 36.8125 7.515625 
L 36.8125 0 
L 27.59375 0 
Q 17.1875 0 13.234375 3.875 
Q 9.28125 7.765625 9.28125 18.015625 
L 9.28125 47.703125 
L 2.6875 47.703125 
L 2.6875 54.6875 
L 9.28125 54.6875 
L 9.28125 70.21875 
z
" id="DejaVuSans-116"/>
      <path d="M 8.5 21.578125 
L 8.5 54.6875 
L 17.484375 54.6875 
L 17.484375 21.921875 
Q 17.484375 14.15625 20.5 10.265625 
Q 23.53125 6.390625 29.59375 6.390625 
Q 36.859375 6.390625 41.078125 11.03125 
Q 45.3125 15.671875 45.3125 23.6875 
L 45.3125 54.6875 
L 54.296875 54.6875 
L 54.296875 0 
L 45.3125 0 
L 45.3125 8.40625 
Q 42.046875 3.421875 37.71875 1 
Q 33.40625 -1.421875 27.6875 -1.421875 
Q 18.265625 -1.421875 13.375 4.4375 
Q 8.5 10.296875 8.5 21.578125 
z
M 31.109375 56 
z
" id="DejaVuSans-117"/>
      <path d="M 45.40625 46.390625 
L 45.40625 75.984375 
L 54.390625 75.984375 
L 54.390625 0 
L 45.40625 0 
L 45.40625 8.203125 
Q 42.578125 3.328125 38.25 0.953125 
Q 33.9375 -1.421875 27.875 -1.421875 
Q 17.96875 -1.421875 11.734375 6.484375 
Q 5.515625 14.40625 5.515625 27.296875 
Q 5.515625 40.1875 11.734375 48.09375 
Q 17.96875 56 27.875 56 
Q 33.9375 56 38.25 53.625 
Q 42.578125 51.265625 45.40625 46.390625 
z
M 14.796875 27.296875 
Q 14.796875 17.390625 18.875 11.75 
Q 22.953125 6.109375 30.078125 6.109375 
Q 37.203125 6.109375 41.296875 11.75 
Q 45.40625 17.390625 45.40625 27.296875 
Q 45.40625 37.203125 41.296875 42.84375 
Q 37.203125 48.484375 30.078125 48.484375 
Q 22.953125 48.484375 18.875 42.84375 
Q 14.796875 37.203125 14.796875 27.296875 
z
" id="DejaVuSans-100"/>
      <path d="M 56.203125 29.59375 
L 56.203125 25.203125 
L 14.890625 25.203125 
Q 15.484375 15.921875 20.484375 11.0625 
Q 25.484375 6.203125 34.421875 6.203125 
Q 39.59375 6.203125 44.453125 7.46875 
Q 49.3125 8.734375 54.109375 11.28125 
L 54.109375 2.78125 
Q 49.265625 0.734375 44.1875 -0.34375 
Q 39.109375 -1.421875 33.890625 -1.421875 
Q 20.796875 -1.421875 13.15625 6.1875 
Q 5.515625 13.8125 5.515625 26.8125 
Q 5.515625 40.234375 12.765625 48.109375 
Q 20.015625 56 32.328125 56 
Q 43.359375 56 49.78125 48.890625 
Q 56.203125 41.796875 56.203125 29.59375 
z
M 47.21875 32.234375 
Q 47.125 39.59375 43.09375 43.984375 
Q 39.0625 48.390625 32.421875 48.390625 
Q 24.90625 48.390625 20.390625 44.140625 
Q 15.875 39.890625 15.1875 32.171875 
z
" id="DejaVuSans-101"/>
      <path d="M 54.890625 33.015625 
L 54.890625 0 
L 45.90625 0 
L 45.90625 32.71875 
Q 45.90625 40.484375 42.875 44.328125 
Q 39.84375 48.1875 33.796875 48.1875 
Q 26.515625 48.1875 22.3125 43.546875 
Q 18.109375 38.921875 18.109375 30.90625 
L 18.109375 0 
L 9.078125 0 
L 9.078125 54.6875 
L 18.109375 54.6875 
L 18.109375 46.1875 
Q 21.34375 51.125 25.703125 53.5625 
Q 30.078125 56 35.796875 56 
Q 45.21875 56 50.046875 50.171875 
Q 54.890625 44.34375 54.890625 33.015625 
z
" id="DejaVuSans-110"/>
      <path d="M 9.421875 54.6875 
L 18.40625 54.6875 
L 18.40625 0 
L 9.421875 0 
z
M 9.421875 75.984375 
L 18.40625 75.984375 
L 18.40625 64.59375 
L 9.421875 64.59375 
z
" id="DejaVuSans-105"/>
      <path d="M 5.515625 54.6875 
L 48.1875 54.6875 
L 48.1875 46.484375 
L 14.40625 7.171875 
L 48.1875 7.171875 
L 48.1875 0 
L 4.296875 0 
L 4.296875 8.203125 
L 38.09375 47.515625 
L 5.515625 47.515625 
z
" id="DejaVuSans-122"/>
     </defs>
     <g transform="translate(20.559687 100.794875)rotate(-90)scale(0.1 -0.1)">
      <use xlink:href="#DejaVuSans-83"/>
      <use x="63.476562" xlink:href="#DejaVuSans-116"/>
      <use x="102.685547" xlink:href="#DejaVuSans-117"/>
      <use x="166.064453" xlink:href="#DejaVuSans-100"/>
      <use x="229.541016" xlink:href="#DejaVuSans-101"/>
      <use x="291.064453" xlink:href="#DejaVuSans-110"/>
      <use x="354.443359" xlink:href="#DejaVuSans-116"/>
      <use x="393.652344" xlink:href="#DejaVuSans-105"/>
      <use x="421.435547" xlink:href="#DejaVuSans-122"/>
      <use x="473.925781" xlink:href="#DejaVuSans-101"/>
      <use x="535.449219" xlink:href="#DejaVuSans-100"/>
     </g>
     <!-- Residuals -->
     <defs>
      <path d="M 44.390625 34.1875 
Q 47.5625 33.109375 50.5625 29.59375 
Q 53.5625 26.078125 56.59375 19.921875 
L 66.609375 0 
L 56 0 
L 46.6875 18.703125 
Q 43.0625 26.03125 39.671875 28.421875 
Q 36.28125 30.8125 30.421875 30.8125 
L 19.671875 30.8125 
L 19.671875 0 
L 9.8125 0 
L 9.8125 72.90625 
L 32.078125 72.90625 
Q 44.578125 72.90625 50.734375 67.671875 
Q 56.890625 62.453125 56.890625 51.90625 
Q 56.890625 45.015625 53.6875 40.46875 
Q 50.484375 35.9375 44.390625 34.1875 
z
M 19.671875 64.796875 
L 19.671875 38.921875 
L 32.078125 38.921875 
Q 39.203125 38.921875 42.84375 42.21875 
Q 46.484375 45.515625 46.484375 51.90625 
Q 46.484375 58.296875 42.84375 61.546875 
Q 39.203125 64.796875 32.078125 64.796875 
z
" id="DejaVuSans-82"/>
      <path d="M 44.28125 53.078125 
L 44.28125 44.578125 
Q 40.484375 46.53125 36.375 47.5 
Q 32.28125 48.484375 27.875 48.484375 
Q 21.1875 48.484375 17.84375 46.4375 
Q 14.5 44.390625 14.5 40.28125 
Q 14.5 37.15625 16.890625 35.375 
Q 19.28125 33.59375 26.515625 31.984375 
L 29.59375 31.296875 
Q 39.15625 29.25 43.1875 25.515625 
Q 47.21875 21.78125 47.21875 15.09375 
Q 47.21875 7.46875 41.1875 3.015625 
Q 35.15625 -1.421875 24.609375 -1.421875 
Q 20.21875 -1.421875 15.453125 -0.5625 
Q 10.6875 0.296875 5.421875 2 
L 5.421875 11.28125 
Q 10.40625 8.6875 15.234375 7.390625 
Q 20.0625 6.109375 24.8125 6.109375 
Q 31.15625 6.109375 34.5625 8.28125 
Q 37.984375 10.453125 37.984375 14.40625 
Q 37.984375 18.0625 35.515625 20.015625 
Q 33.0625 21.96875 24.703125 23.78125 
L 21.578125 24.515625 
Q 13.234375 26.265625 9.515625 29.90625 
Q 5.8125 33.546875 5.8125 39.890625 
Q 5.8125 47.609375 11.28125 51.796875 
Q 16.75 56 26.8125 56 
Q 31.78125 56 36.171875 55.265625 
Q 40.578125 54.546875 44.28125 53.078125 
z
" id="DejaVuSans-115"/>
      <path d="M 34.28125 27.484375 
Q 23.390625 27.484375 19.1875 25 
Q 14.984375 22.515625 14.984375 16.5 
Q 14.984375 11.71875 18.140625 8.90625 
Q 21.296875 6.109375 26.703125 6.109375 
Q 34.1875 6.109375 38.703125 11.40625 
Q 43.21875 16.703125 43.21875 25.484375 
L 43.21875 27.484375 
z
M 52.203125 31.203125 
L 52.203125 0 
L 43.21875 0 
L 43.21875 8.296875 
Q 40.140625 3.328125 35.546875 0.953125 
Q 30.953125 -1.421875 24.3125 -1.421875 
Q 15.921875 -1.421875 10.953125 3.296875 
Q 6 8.015625 6 15.921875 
Q 6 25.140625 12.171875 29.828125 
Q 18.359375 34.515625 30.609375 34.515625 
L 43.21875 34.515625 
L 43.21875 35.40625 
Q 43.21875 41.609375 39.140625 45 
Q 35.0625 48.390625 27.6875 48.390625 
Q 23 48.390625 18.546875 47.265625 
Q 14.109375 46.140625 10.015625 43.890625 
L 10.015625 52.203125 
Q 14.9375 54.109375 19.578125 55.046875 
Q 24.21875 56 28.609375 56 
Q 40.484375 56 46.34375 49.84375 
Q 52.203125 43.703125 52.203125 31.203125 
z
" id="DejaVuSans-97"/>
      <path d="M 9.421875 75.984375 
L 18.40625 75.984375 
L 18.40625 0 
L 9.421875 0 
z
" id="DejaVuSans-108"/>
     </defs>
     <g transform="translate(31.7575 94.790188)rotate(-90)scale(0.1 -0.1)">
      <use xlink:href="#DejaVuSans-82"/>
      <use x="69.419922" xlink:href="#DejaVuSans-101"/>
      <use x="130.943359" xlink:href="#DejaVuSans-115"/>
      <use x="183.042969" xlink:href="#DejaVuSans-105"/>
      <use x="210.826172" xlink:href="#DejaVuSans-100"/>
      <use x="274.302734" xlink:href="#DejaVuSans-117"/>
      <use x="337.681641" xlink:href="#DejaVuSans-97"/>
      <use x="398.960938" xlink:href="#DejaVuSans-108"/>
      <use x="426.744141" xlink:href="#DejaVuSans-115"/>
     </g>
    </g>
   </g>
   <g id="LineCollection_1">
    <path clip-path="url(#p5cee60afe1)" d="M 75.766154 74.440343 
L 75.766154 60.220128 
" style="fill:none;stroke:#0000ff;stroke-width:1.5;"/>
    <path clip-path="url(#p5cee60afe1)" d="M 81.398488 61.514399 
L 81.398488 47.294183 
" style="fill:none;stroke:#0000ff;stroke-width:1.5;"/>
    <path clip-path="url(#p5cee60afe1)" d="M 87.030821 63.305911 
L 87.030821 49.085695 
" style="fill:none;stroke:#0000ff;stroke-width:1.5;"/>
    <path clip-path="url(#p5cee60afe1)" d="M 92.663155 68.896863 
L 92.663155 54.676648 
" style="fill:none;stroke:#0000ff;stroke-width:1.5;"/>
    <path clip-path="url(#p5cee60afe1)" d="M 98.295489 74.962377 
L 98.295489 60.742161 
" style="fill:none;stroke:#0000ff;stroke-width:1.5;"/>
    <path clip-path="url(#p5cee60afe1)" d="M 103.927823 81.492701 
L 103.927823 67.272485 
" style="fill:none;stroke:#0000ff;stroke-width:1.5;"/>
    <path clip-path="url(#p5cee60afe1)" d="M 109.560156 80.438575 
L 109.560156 66.21836 
" style="fill:none;stroke:#0000ff;stroke-width:1.5;"/>
    <path clip-path="url(#p5cee60afe1)" d="M 115.19249 65.840751 
L 115.19249 51.620535 
" style="fill:none;stroke:#0000ff;stroke-width:1.5;"/>
    <path clip-path="url(#p5cee60afe1)" d="M 120.824824 83.14078 
L 120.824824 68.920564 
" style="fill:none;stroke:#0000ff;stroke-width:1.5;"/>
    <path clip-path="url(#p5cee60afe1)" d="M 126.457158 68.289919 
L 126.457158 54.069703 
" style="fill:none;stroke:#0000ff;stroke-width:1.5;"/>
    <path clip-path="url(#p5cee60afe1)" d="M 132.089492 64.637767 
L 132.089492 50.417552 
" style="fill:none;stroke:#0000ff;stroke-width:1.5;"/>
    <path clip-path="url(#p5cee60afe1)" d="M 137.721825 74.375078 
L 137.721825 60.154863 
" style="fill:none;stroke:#0000ff;stroke-width:1.5;"/>
    <path clip-path="url(#p5cee60afe1)" d="M 143.354159 89.269855 
L 143.354159 75.049639 
" style="fill:none;stroke:#0000ff;stroke-width:1.5;"/>
    <path clip-path="url(#p5cee60afe1)" d="M 148.986493 77.647954 
L 148.986493 63.427738 
" style="fill:none;stroke:#0000ff;stroke-width:1.5;"/>
    <path clip-path="url(#p5cee60afe1)" d="M 154.618827 78.795527 
L 154.618827 64.575311 
" style="fill:none;stroke:#0000ff;stroke-width:1.5;"/>
    <path clip-path="url(#p5cee60afe1)" d="M 160.25116 75.541027 
L 160.25116 61.320811 
" style="fill:none;stroke:#0000ff;stroke-width:1.5;"/>
    <path clip-path="url(#p5cee60afe1)" d="M 165.883494 66.525896 
L 165.883494 52.30568 
" style="fill:none;stroke:#0000ff;stroke-width:1.5;"/>
    <path clip-path="url(#p5cee60afe1)" d="M 171.515828 70.891221 
L 171.515828 56.671005 
" style="fill:none;stroke:#0000ff;stroke-width:1.5;"/>
    <path clip-path="url(#p5cee60afe1)" d="M 177.148162 88.381034 
L 177.148162 74.160818 
" style="fill:none;stroke:#0000ff;stroke-width:1.5;"/>
    <path clip-path="url(#p5cee60afe1)" d="M 182.780495 79.800416 
L 182.780495 65.5802 
" style="fill:none;stroke:#0000ff;stroke-width:1.5;"/>
    <path clip-path="url(#p5cee60afe1)" d="M 188.412829 76.528281 
L 188.412829 62.308065 
" style="fill:none;stroke:#0000ff;stroke-width:1.5;"/>
    <path clip-path="url(#p5cee60afe1)" d="M 194.045163 75.079894 
L 194.045163 60.859679 
" style="fill:none;stroke:#0000ff;stroke-width:1.5;"/>
    <path clip-path="url(#p5cee60afe1)" d="M 199.677497 94.411636 
L 199.677497 80.191421 
" style="fill:none;stroke:#0000ff;stroke-width:1.5;"/>
    <path clip-path="url(#p5cee60afe1)" d="M 205.309831 65.270244 
L 205.309831 51.050028 
" style="fill:none;stroke:#0000ff;stroke-width:1.5;"/>
    <path clip-path="url(#p5cee60afe1)" d="M 210.942164 76.054177 
L 210.942164 61.833961 
" style="fill:none;stroke:#0000ff;stroke-width:1.5;"/>
    <path clip-path="url(#p5cee60afe1)" d="M 216.574498 72.652454 
L 216.574498 58.432238 
" style="fill:none;stroke:#0000ff;stroke-width:1.5;"/>
    <path clip-path="url(#p5cee60afe1)" d="M 222.206832 85.201951 
L 222.206832 70.981735 
" style="fill:none;stroke:#0000ff;stroke-width:1.5;"/>
    <path clip-path="url(#p5cee60afe1)" d="M 227.839166 78.735287 
L 227.839166 64.515071 
" style="fill:none;stroke:#0000ff;stroke-width:1.5;"/>
    <path clip-path="url(#p5cee60afe1)" d="M 233.471499 73.570074 
L 233.471499 59.349858 
" style="fill:none;stroke:#0000ff;stroke-width:1.5;"/>
    <path clip-path="url(#p5cee60afe1)" d="M 239.103833 69.522037 
L 239.103833 55.301822 
" style="fill:none;stroke:#0000ff;stroke-width:1.5;"/>
    <path clip-path="url(#p5cee60afe1)" d="M 244.736167 86.908425 
L 244.736167 72.688209 
" style="fill:none;stroke:#0000ff;stroke-width:1.5;"/>
    <path clip-path="url(#p5cee60afe1)" d="M 250.368501 69.218156 
L 250.368501 54.99794 
" style="fill:none;stroke:#0000ff;stroke-width:1.5;"/>
    <path clip-path="url(#p5cee60afe1)" d="M 256.000834 71.144503 
L 256.000834 56.924287 
" style="fill:none;stroke:#0000ff;stroke-width:1.5;"/>
    <path clip-path="url(#p5cee60afe1)" d="M 261.633168 72.238307 
L 261.633168 58.018091 
" style="fill:none;stroke:#0000ff;stroke-width:1.5;"/>
    <path clip-path="url(#p5cee60afe1)" d="M 267.265502 71.948022 
L 267.265502 57.727806 
" style="fill:none;stroke:#0000ff;stroke-width:1.5;"/>
    <path clip-path="url(#p5cee60afe1)" d="M 272.897836 75.804947 
L 272.897836 61.584731 
" style="fill:none;stroke:#0000ff;stroke-width:1.5;"/>
    <path clip-path="url(#p5cee60afe1)" d="M 278.530169 61.504579 
L 278.530169 47.284364 
" style="fill:none;stroke:#0000ff;stroke-width:1.5;"/>
    <path clip-path="url(#p5cee60afe1)" d="M 284.162503 76.976238 
L 284.162503 62.756023 
" style="fill:none;stroke:#0000ff;stroke-width:1.5;"/>
    <path clip-path="url(#p5cee60afe1)" d="M 289.794837 72.125076 
L 289.794837 57.90486 
" style="fill:none;stroke:#0000ff;stroke-width:1.5;"/>
    <path clip-path="url(#p5cee60afe1)" d="M 295.427171 69.546749 
L 295.427171 55.326533 
" style="fill:none;stroke:#0000ff;stroke-width:1.5;"/>
    <path clip-path="url(#p5cee60afe1)" d="M 301.059505 65.672738 
L 301.059505 51.452522 
" style="fill:none;stroke:#0000ff;stroke-width:1.5;"/>
    <path clip-path="url(#p5cee60afe1)" d="M 306.691838 68.482689 
L 306.691838 54.262473 
" style="fill:none;stroke:#0000ff;stroke-width:1.5;"/>
    <path clip-path="url(#p5cee60afe1)" d="M 312.324172 73.179082 
L 312.324172 58.958867 
" style="fill:none;stroke:#0000ff;stroke-width:1.5;"/>
    <path clip-path="url(#p5cee60afe1)" d="M 317.956506 67.057909 
L 317.956506 52.837693 
" style="fill:none;stroke:#0000ff;stroke-width:1.5;"/>
    <path clip-path="url(#p5cee60afe1)" d="M 323.58884 78.137872 
L 323.58884 63.917657 
" style="fill:none;stroke:#0000ff;stroke-width:1.5;"/>
    <path clip-path="url(#p5cee60afe1)" d="M 329.221173 80.340187 
L 329.221173 66.119971 
" style="fill:none;stroke:#0000ff;stroke-width:1.5;"/>
    <path clip-path="url(#p5cee60afe1)" d="M 334.853507 77.446617 
L 334.853507 63.226402 
" style="fill:none;stroke:#0000ff;stroke-width:1.5;"/>
    <path clip-path="url(#p5cee60afe1)" d="M 340.485841 71.140141 
L 340.485841 56.919925 
" style="fill:none;stroke:#0000ff;stroke-width:1.5;"/>
    <path clip-path="url(#p5cee60afe1)" d="M 346.118175 71.471321 
L 346.118175 57.251105 
" style="fill:none;stroke:#0000ff;stroke-width:1.5;"/>
    <path clip-path="url(#p5cee60afe1)" d="M 351.750508 76.600211 
L 351.750508 62.379995 
" style="fill:none;stroke:#0000ff;stroke-width:1.5;"/>
    <path clip-path="url(#p5cee60afe1)" d="M 357.382842 75.055198 
L 357.382842 60.834982 
" style="fill:none;stroke:#0000ff;stroke-width:1.5;"/>
    <path clip-path="url(#p5cee60afe1)" d="M 363.015176 75.15266 
L 363.015176 60.932444 
" style="fill:none;stroke:#0000ff;stroke-width:1.5;"/>
    <path clip-path="url(#p5cee60afe1)" d="M 368.64751 86.860586 
L 368.64751 72.64037 
" style="fill:none;stroke:#0000ff;stroke-width:1.5;"/>
    <path clip-path="url(#p5cee60afe1)" d="M 374.279844 77.498406 
L 374.279844 63.27819 
" style="fill:none;stroke:#0000ff;stroke-width:1.5;"/>
    <path clip-path="url(#p5cee60afe1)" d="M 379.912177 76.810959 
L 379.912177 62.590743 
" style="fill:none;stroke:#0000ff;stroke-width:1.5;"/>
    <path clip-path="url(#p5cee60afe1)" d="M 385.544511 80.490675 
L 385.544511 66.270459 
" style="fill:none;stroke:#0000ff;stroke-width:1.5;"/>
    <path clip-path="url(#p5cee60afe1)" d="M 391.176845 81.633743 
L 391.176845 67.413527 
" style="fill:none;stroke:#0000ff;stroke-width:1.5;"/>
    <path clip-path="url(#p5cee60afe1)" d="M 396.809179 90.602313 
L 396.809179 76.382098 
" style="fill:none;stroke:#0000ff;stroke-width:1.5;"/>
    <path clip-path="url(#p5cee60afe1)" d="M 402.441512 65.746737 
L 402.441512 51.526521 
" style="fill:none;stroke:#0000ff;stroke-width:1.5;"/>
    <path clip-path="url(#p5cee60afe1)" d="M 408.073846 77.41478 
L 408.073846 63.194564 
" style="fill:none;stroke:#0000ff;stroke-width:1.5;"/>
   </g>
   <g id="line2d_10">
    <path clip-path="url(#p5cee60afe1)" d="M 75.766154 68.201558 
L 408.073846 68.201558 
" style="fill:none;stroke:#ff0000;stroke-linecap:square;stroke-width:1.5;"/>
   </g>
   <g id="line2d_11">
    <defs>
     <path d="M 0 3 
C 0.795609 3 1.55874 2.683901 2.12132 2.12132 
C 2.683901 1.55874 3 0.795609 3 0 
C 3 -0.795609 2.683901 -1.55874 2.12132 -2.12132 
C 1.55874 -2.683901 0.795609 -3 0 -3 
C -0.795609 -3 -1.55874 -2.683901 -2.12132 -2.12132 
C -2.683901 -1.55874 -3 -0.795609 -3 0 
C -3 0.795609 -2.683901 1.55874 -2.12132 2.12132 
C -1.55874 2.683901 -0.795609 3 0 3 
z
" id="m845b508177" style="stroke:#0000ff;"/>
    </defs>
    <g clip-path="url(#p5cee60afe1)">
     <use style="fill:#0000ff;stroke:#0000ff;" x="75.766154" xlink:href="#m845b508177" y="67.330236"/>
     <use style="fill:#0000ff;stroke:#0000ff;" x="81.398488" xlink:href="#m845b508177" y="54.404291"/>
     <use style="fill:#0000ff;stroke:#0000ff;" x="87.030821" xlink:href="#m845b508177" y="56.195803"/>
     <use style="fill:#0000ff;stroke:#0000ff;" x="92.663155" xlink:href="#m845b508177" y="61.786756"/>
     <use style="fill:#0000ff;stroke:#0000ff;" x="98.295489" xlink:href="#m845b508177" y="67.852269"/>
     <use style="fill:#0000ff;stroke:#0000ff;" x="103.927823" xlink:href="#m845b508177" y="74.382593"/>
     <use style="fill:#0000ff;stroke:#0000ff;" x="109.560156" xlink:href="#m845b508177" y="73.328467"/>
     <use style="fill:#0000ff;stroke:#0000ff;" x="115.19249" xlink:href="#m845b508177" y="58.730643"/>
     <use style="fill:#0000ff;stroke:#0000ff;" x="120.824824" xlink:href="#m845b508177" y="76.030672"/>
     <use style="fill:#0000ff;stroke:#0000ff;" x="126.457158" xlink:href="#m845b508177" y="61.179811"/>
     <use style="fill:#0000ff;stroke:#0000ff;" x="132.089492" xlink:href="#m845b508177" y="57.527659"/>
     <use style="fill:#0000ff;stroke:#0000ff;" x="137.721825" xlink:href="#m845b508177" y="67.26497"/>
     <use style="fill:#0000ff;stroke:#0000ff;" x="143.354159" xlink:href="#m845b508177" y="82.159747"/>
     <use style="fill:#0000ff;stroke:#0000ff;" x="148.986493" xlink:href="#m845b508177" y="70.537846"/>
     <use style="fill:#0000ff;stroke:#0000ff;" x="154.618827" xlink:href="#m845b508177" y="71.685419"/>
     <use style="fill:#0000ff;stroke:#0000ff;" x="160.25116" xlink:href="#m845b508177" y="68.430919"/>
     <use style="fill:#0000ff;stroke:#0000ff;" x="165.883494" xlink:href="#m845b508177" y="59.415788"/>
     <use style="fill:#0000ff;stroke:#0000ff;" x="171.515828" xlink:href="#m845b508177" y="63.781113"/>
     <use style="fill:#0000ff;stroke:#0000ff;" x="177.148162" xlink:href="#m845b508177" y="81.270926"/>
     <use style="fill:#0000ff;stroke:#0000ff;" x="182.780495" xlink:href="#m845b508177" y="72.690308"/>
     <use style="fill:#0000ff;stroke:#0000ff;" x="188.412829" xlink:href="#m845b508177" y="69.418173"/>
     <use style="fill:#0000ff;stroke:#0000ff;" x="194.045163" xlink:href="#m845b508177" y="67.969787"/>
     <use style="fill:#0000ff;stroke:#0000ff;" x="199.677497" xlink:href="#m845b508177" y="87.301528"/>
     <use style="fill:#0000ff;stroke:#0000ff;" x="205.309831" xlink:href="#m845b508177" y="58.160136"/>
     <use style="fill:#0000ff;stroke:#0000ff;" x="210.942164" xlink:href="#m845b508177" y="68.944069"/>
     <use style="fill:#0000ff;stroke:#0000ff;" x="216.574498" xlink:href="#m845b508177" y="65.542346"/>
     <use style="fill:#0000ff;stroke:#0000ff;" x="222.206832" xlink:href="#m845b508177" y="78.091843"/>
     <use style="fill:#0000ff;stroke:#0000ff;" x="227.839166" xlink:href="#m845b508177" y="71.625179"/>
     <use style="fill:#0000ff;stroke:#0000ff;" x="233.471499" xlink:href="#m845b508177" y="66.459966"/>
     <use style="fill:#0000ff;stroke:#0000ff;" x="239.103833" xlink:href="#m845b508177" y="62.411929"/>
     <use style="fill:#0000ff;stroke:#0000ff;" x="244.736167" xlink:href="#m845b508177" y="79.798317"/>
     <use style="fill:#0000ff;stroke:#0000ff;" x="250.368501" xlink:href="#m845b508177" y="62.108048"/>
     <use style="fill:#0000ff;stroke:#0000ff;" x="256.000834" xlink:href="#m845b508177" y="64.034395"/>
     <use style="fill:#0000ff;stroke:#0000ff;" x="261.633168" xlink:href="#m845b508177" y="65.128199"/>
     <use style="fill:#0000ff;stroke:#0000ff;" x="267.265502" xlink:href="#m845b508177" y="64.837914"/>
     <use style="fill:#0000ff;stroke:#0000ff;" x="272.897836" xlink:href="#m845b508177" y="68.694839"/>
     <use style="fill:#0000ff;stroke:#0000ff;" x="278.530169" xlink:href="#m845b508177" y="54.394472"/>
     <use style="fill:#0000ff;stroke:#0000ff;" x="284.162503" xlink:href="#m845b508177" y="69.86613"/>
     <use style="fill:#0000ff;stroke:#0000ff;" x="289.794837" xlink:href="#m845b508177" y="65.014968"/>
     <use style="fill:#0000ff;stroke:#0000ff;" x="295.427171" xlink:href="#m845b508177" y="62.436641"/>
     <use style="fill:#0000ff;stroke:#0000ff;" x="301.059505" xlink:href="#m845b508177" y="58.56263"/>
     <use style="fill:#0000ff;stroke:#0000ff;" x="306.691838" xlink:href="#m845b508177" y="61.372581"/>
     <use style="fill:#0000ff;stroke:#0000ff;" x="312.324172" xlink:href="#m845b508177" y="66.068975"/>
     <use style="fill:#0000ff;stroke:#0000ff;" x="317.956506" xlink:href="#m845b508177" y="59.947801"/>
     <use style="fill:#0000ff;stroke:#0000ff;" x="323.58884" xlink:href="#m845b508177" y="71.027765"/>
     <use style="fill:#0000ff;stroke:#0000ff;" x="329.221173" xlink:href="#m845b508177" y="73.230079"/>
     <use style="fill:#0000ff;stroke:#0000ff;" x="334.853507" xlink:href="#m845b508177" y="70.336509"/>
     <use style="fill:#0000ff;stroke:#0000ff;" x="340.485841" xlink:href="#m845b508177" y="64.030033"/>
     <use style="fill:#0000ff;stroke:#0000ff;" x="346.118175" xlink:href="#m845b508177" y="64.361213"/>
     <use style="fill:#0000ff;stroke:#0000ff;" x="351.750508" xlink:href="#m845b508177" y="69.490103"/>
     <use style="fill:#0000ff;stroke:#0000ff;" x="357.382842" xlink:href="#m845b508177" y="67.94509"/>
     <use style="fill:#0000ff;stroke:#0000ff;" x="363.015176" xlink:href="#m845b508177" y="68.042552"/>
     <use style="fill:#0000ff;stroke:#0000ff;" x="368.64751" xlink:href="#m845b508177" y="79.750478"/>
     <use style="fill:#0000ff;stroke:#0000ff;" x="374.279844" xlink:href="#m845b508177" y="70.388298"/>
     <use style="fill:#0000ff;stroke:#0000ff;" x="379.912177" xlink:href="#m845b508177" y="69.700851"/>
     <use style="fill:#0000ff;stroke:#0000ff;" x="385.544511" xlink:href="#m845b508177" y="73.380567"/>
     <use style="fill:#0000ff;stroke:#0000ff;" x="391.176845" xlink:href="#m845b508177" y="74.523635"/>
     <use style="fill:#0000ff;stroke:#0000ff;" x="396.809179" xlink:href="#m845b508177" y="83.492206"/>
     <use style="fill:#0000ff;stroke:#0000ff;" x="402.441512" xlink:href="#m845b508177" y="58.636629"/>
     <use style="fill:#0000ff;stroke:#0000ff;" x="408.073846" xlink:href="#m845b508177" y="70.304672"/>
    </g>
   </g>
   <g id="patch_3">
    <path d="M 69.12 96.768 
L 69.12 44.928 
" style="fill:none;stroke:#000000;stroke-linecap:square;stroke-linejoin:miter;stroke-width:0.8;"/>
   </g>
   <g id="patch_4">
    <path d="M 414.72 96.768 
L 414.72 44.928 
" style="fill:none;stroke:#000000;stroke-linecap:square;stroke-linejoin:miter;stroke-width:0.8;"/>
   </g>
   <g id="patch_5">
    <path d="M 69.12 96.768 
L 414.72 96.768 
" style="fill:none;stroke:#000000;stroke-linecap:square;stroke-linejoin:miter;stroke-width:0.8;"/>
   </g>
   <g id="patch_6">
    <path d="M 69.12 44.928 
L 414.72 44.928 
" style="fill:none;stroke:#000000;stroke-linecap:square;stroke-linejoin:miter;stroke-width:0.8;"/>
   </g>
   <g id="text_4">
    <!-- Function (0/0): y = A*G(x-x0, sigma) -->
    <defs>
     <path d="M 9.8125 72.90625 
L 51.703125 72.90625 
L 51.703125 64.59375 
L 19.671875 64.59375 
L 19.671875 43.109375 
L 48.578125 43.109375 
L 48.578125 34.8125 
L 19.671875 34.8125 
L 19.671875 0 
L 9.8125 0 
z
" id="DejaVuSans-70"/>
     <path d="M 48.78125 52.59375 
L 48.78125 44.1875 
Q 44.96875 46.296875 41.140625 47.34375 
Q 37.3125 48.390625 33.40625 48.390625 
Q 24.65625 48.390625 19.8125 42.84375 
Q 14.984375 37.3125 14.984375 27.296875 
Q 14.984375 17.28125 19.8125 11.734375 
Q 24.65625 6.203125 33.40625 6.203125 
Q 37.3125 6.203125 41.140625 7.25 
Q 44.96875 8.296875 48.78125 10.40625 
L 48.78125 2.09375 
Q 45.015625 0.34375 40.984375 -0.53125 
Q 36.96875 -1.421875 32.421875 -1.421875 
Q 20.0625 -1.421875 12.78125 6.34375 
Q 5.515625 14.109375 5.515625 27.296875 
Q 5.515625 40.671875 12.859375 48.328125 
Q 20.21875 56 33.015625 56 
Q 37.15625 56 41.109375 55.140625 
Q 45.0625 54.296875 48.78125 52.59375 
z
" id="DejaVuSans-99"/>
     <path d="M 30.609375 48.390625 
Q 23.390625 48.390625 19.1875 42.75 
Q 14.984375 37.109375 14.984375 27.296875 
Q 14.984375 17.484375 19.15625 11.84375 
Q 23.34375 6.203125 30.609375 6.203125 
Q 37.796875 6.203125 41.984375 11.859375 
Q 46.1875 17.53125 46.1875 27.296875 
Q 46.1875 37.015625 41.984375 42.703125 
Q 37.796875 48.390625 30.609375 48.390625 
z
M 30.609375 56 
Q 42.328125 56 49.015625 48.375 
Q 55.71875 40.765625 55.71875 27.296875 
Q 55.71875 13.875 49.015625 6.21875 
Q 42.328125 -1.421875 30.609375 -1.421875 
Q 18.84375 -1.421875 12.171875 6.21875 
Q 5.515625 13.875 5.515625 27.296875 
Q 5.515625 40.765625 12.171875 48.375 
Q 18.84375 56 30.609375 56 
z
" id="DejaVuSans-111"/>
     <path id="DejaVuSans-32"/>
     <path d="M 31 75.875 
Q 24.46875 64.65625 21.28125 53.65625 
Q 18.109375 42.671875 18.109375 31.390625 
Q 18.109375 20.125 21.3125 9.0625 
Q 24.515625 -2 31 -13.1875 
L 23.1875 -13.1875 
Q 15.875 -1.703125 12.234375 9.375 
Q 8.59375 20.453125 8.59375 31.390625 
Q 8.59375 42.28125 12.203125 53.3125 
Q 15.828125 64.359375 23.1875 75.875 
z
" id="DejaVuSans-40"/>
     <path d="M 31.78125 66.40625 
Q 24.171875 66.40625 20.328125 58.90625 
Q 16.5 51.421875 16.5 36.375 
Q 16.5 21.390625 20.328125 13.890625 
Q 24.171875 6.390625 31.78125 6.390625 
Q 39.453125 6.390625 43.28125 13.890625 
Q 47.125 21.390625 47.125 36.375 
Q 47.125 51.421875 43.28125 58.90625 
Q 39.453125 66.40625 31.78125 66.40625 
z
M 31.78125 74.21875 
Q 44.046875 74.21875 50.515625 64.515625 
Q 56.984375 54.828125 56.984375 36.375 
Q 56.984375 17.96875 50.515625 8.265625 
Q 44.046875 -1.421875 31.78125 -1.421875 
Q 19.53125 -1.421875 13.0625 8.265625 
Q 6.59375 17.96875 6.59375 36.375 
Q 6.59375 54.828125 13.0625 64.515625 
Q 19.53125 74.21875 31.78125 74.21875 
z
" id="DejaVuSans-48"/>
     <path d="M 25.390625 72.90625 
L 33.6875 72.90625 
L 8.296875 -9.28125 
L 0 -9.28125 
z
" id="DejaVuSans-47"/>
     <path d="M 8.015625 75.875 
L 15.828125 75.875 
Q 23.140625 64.359375 26.78125 53.3125 
Q 30.421875 42.28125 30.421875 31.390625 
Q 30.421875 20.453125 26.78125 9.375 
Q 23.140625 -1.703125 15.828125 -13.1875 
L 8.015625 -13.1875 
Q 14.5 -2 17.703125 9.0625 
Q 20.90625 20.125 20.90625 31.390625 
Q 20.90625 42.671875 17.703125 53.65625 
Q 14.5 64.65625 8.015625 75.875 
z
" id="DejaVuSans-41"/>
     <path d="M 11.71875 12.40625 
L 22.015625 12.40625 
L 22.015625 0 
L 11.71875 0 
z
M 11.71875 51.703125 
L 22.015625 51.703125 
L 22.015625 39.3125 
L 11.71875 39.3125 
z
" id="DejaVuSans-58"/>
     <path d="M 32.171875 -5.078125 
Q 28.375 -14.84375 24.75 -17.8125 
Q 21.140625 -20.796875 15.09375 -20.796875 
L 7.90625 -20.796875 
L 7.90625 -13.28125 
L 13.1875 -13.28125 
Q 16.890625 -13.28125 18.9375 -11.515625 
Q 21 -9.765625 23.484375 -3.21875 
L 25.09375 0.875 
L 2.984375 54.6875 
L 12.5 54.6875 
L 29.59375 11.921875 
L 46.6875 54.6875 
L 56.203125 54.6875 
z
" id="DejaVuSans-121"/>
     <path d="M 10.59375 45.40625 
L 73.1875 45.40625 
L 73.1875 37.203125 
L 10.59375 37.203125 
z
M 10.59375 25.484375 
L 73.1875 25.484375 
L 73.1875 17.1875 
L 10.59375 17.1875 
z
" id="DejaVuSans-61"/>
     <path d="M 34.1875 63.1875 
L 20.796875 26.90625 
L 47.609375 26.90625 
z
M 28.609375 72.90625 
L 39.796875 72.90625 
L 67.578125 0 
L 57.328125 0 
L 50.6875 18.703125 
L 17.828125 18.703125 
L 11.1875 0 
L 0.78125 0 
z
" id="DejaVuSans-65"/>
     <path d="M 47.015625 60.890625 
L 29.5 51.421875 
L 47.015625 41.890625 
L 44.1875 37.109375 
L 27.78125 47.015625 
L 27.78125 28.609375 
L 22.21875 28.609375 
L 22.21875 47.015625 
L 5.8125 37.109375 
L 2.984375 41.890625 
L 20.515625 51.421875 
L 2.984375 60.890625 
L 5.8125 65.71875 
L 22.21875 55.8125 
L 22.21875 74.21875 
L 27.78125 74.21875 
L 27.78125 55.8125 
L 44.1875 65.71875 
z
" id="DejaVuSans-42"/>
     <path d="M 59.515625 10.40625 
L 59.515625 29.984375 
L 43.40625 29.984375 
L 43.40625 38.09375 
L 69.28125 38.09375 
L 69.28125 6.78125 
Q 63.578125 2.734375 56.6875 0.65625 
Q 49.8125 -1.421875 42 -1.421875 
Q 24.90625 -1.421875 15.25 8.5625 
Q 5.609375 18.5625 5.609375 36.375 
Q 5.609375 54.25 15.25 64.234375 
Q 24.90625 74.21875 42 74.21875 
Q 49.125 74.21875 55.546875 72.453125 
Q 61.96875 70.703125 67.390625 67.28125 
L 67.390625 56.78125 
Q 61.921875 61.421875 55.765625 63.765625 
Q 49.609375 66.109375 42.828125 66.109375 
Q 29.4375 66.109375 22.71875 58.640625 
Q 16.015625 51.171875 16.015625 36.375 
Q 16.015625 21.625 22.71875 14.15625 
Q 29.4375 6.6875 42.828125 6.6875 
Q 48.046875 6.6875 52.140625 7.59375 
Q 56.25 8.5 59.515625 10.40625 
z
" id="DejaVuSans-71"/>
     <path d="M 54.890625 54.6875 
L 35.109375 28.078125 
L 55.90625 0 
L 45.3125 0 
L 29.390625 21.484375 
L 13.484375 0 
L 2.875 0 
L 24.125 28.609375 
L 4.6875 54.6875 
L 15.28125 54.6875 
L 29.78125 35.203125 
L 44.28125 54.6875 
z
" id="DejaVuSans-120"/>
     <path d="M 4.890625 31.390625 
L 31.203125 31.390625 
L 31.203125 23.390625 
L 4.890625 23.390625 
z
" id="DejaVuSans-45"/>
     <path d="M 11.71875 12.40625 
L 22.015625 12.40625 
L 22.015625 4 
L 14.015625 -11.625 
L 7.71875 -11.625 
L 11.71875 4 
z
" id="DejaVuSans-44"/>
     <path d="M 45.40625 27.984375 
Q 45.40625 37.75 41.375 43.109375 
Q 37.359375 48.484375 30.078125 48.484375 
Q 22.859375 48.484375 18.828125 43.109375 
Q 14.796875 37.75 14.796875 27.984375 
Q 14.796875 18.265625 18.828125 12.890625 
Q 22.859375 7.515625 30.078125 7.515625 
Q 37.359375 7.515625 41.375 12.890625 
Q 45.40625 18.265625 45.40625 27.984375 
z
M 54.390625 6.78125 
Q 54.390625 -7.171875 48.1875 -13.984375 
Q 42 -20.796875 29.203125 -20.796875 
Q 24.46875 -20.796875 20.265625 -20.09375 
Q 16.0625 -19.390625 12.109375 -17.921875 
L 12.109375 -9.1875 
Q 16.0625 -11.328125 19.921875 -12.34375 
Q 23.78125 -13.375 27.78125 -13.375 
Q 36.625 -13.375 41.015625 -8.765625 
Q 45.40625 -4.15625 45.40625 5.171875 
L 45.40625 9.625 
Q 42.625 4.78125 38.28125 2.390625 
Q 33.9375 0 27.875 0 
Q 17.828125 0 11.671875 7.65625 
Q 5.515625 15.328125 5.515625 27.984375 
Q 5.515625 40.671875 11.671875 48.328125 
Q 17.828125 56 27.875 56 
Q 33.9375 56 38.28125 53.609375 
Q 42.625 51.21875 45.40625 46.390625 
L 45.40625 54.6875 
L 54.390625 54.6875 
z
" id="DejaVuSans-103"/>
     <path d="M 52 44.1875 
Q 55.375 50.25 60.0625 53.125 
Q 64.75 56 71.09375 56 
Q 79.640625 56 84.28125 50.015625 
Q 88.921875 44.046875 88.921875 33.015625 
L 88.921875 0 
L 79.890625 0 
L 79.890625 32.71875 
Q 79.890625 40.578125 77.09375 44.375 
Q 74.3125 48.1875 68.609375 48.1875 
Q 61.625 48.1875 57.5625 43.546875 
Q 53.515625 38.921875 53.515625 30.90625 
L 53.515625 0 
L 44.484375 0 
L 44.484375 32.71875 
Q 44.484375 40.625 41.703125 44.40625 
Q 38.921875 48.1875 33.109375 48.1875 
Q 26.21875 48.1875 22.15625 43.53125 
Q 18.109375 38.875 18.109375 30.90625 
L 18.109375 0 
L 9.078125 0 
L 9.078125 54.6875 
L 18.109375 54.6875 
L 18.109375 46.1875 
Q 21.1875 51.21875 25.484375 53.609375 
Q 29.78125 56 35.6875 56 
Q 41.65625 56 45.828125 52.96875 
Q 50 49.953125 52 44.1875 
z
" id="DejaVuSans-109"/>
    </defs>
    <g transform="translate(69.12 14.288313)scale(0.1 -0.1)">
     <use xlink:href="#DejaVuSans-70"/>
     <use x="57.441406" xlink:href="#DejaVuSans-117"/>
     <use x="120.820312" xlink:href="#DejaVuSans-110"/>
     <use x="184.199219" xlink:href="#DejaVuSans-99"/>
     <use x="239.179688" xlink:href="#DejaVuSans-116"/>
     <use x="278.388672" xlink:href="#DejaVuSans-105"/>
     <use x="306.171875" xlink:href="#DejaVuSans-111"/>
     <use x="367.353516" xlink:href="#DejaVuSans-110"/>
     <use x="430.732422" xlink:href="#DejaVuSans-32"/>
     <use x="462.519531" xlink:href="#DejaVuSans-40"/>
     <use x="501.533203" xlink:href="#DejaVuSans-48"/>
     <use x="565.15625" xlink:href="#DejaVuSans-47"/>
     <use x="598.847656" xlink:href="#DejaVuSans-48"/>
     <use x="662.470703" xlink:href="#DejaVuSans-41"/>
     <use x="701.484375" xlink:href="#DejaVuSans-58"/>
     <use x="735.175781" xlink:href="#DejaVuSans-32"/>
     <use x="766.962891" xlink:href="#DejaVuSans-121"/>
     <use x="826.142578" xlink:href="#DejaVuSans-32"/>
     <use x="857.929688" xlink:href="#DejaVuSans-61"/>
     <use x="941.71875" xlink:href="#DejaVuSans-32"/>
     <use x="973.505859" xlink:href="#DejaVuSans-65"/>
     <use x="1041.914062" xlink:href="#DejaVuSans-42"/>
     <use x="1091.914062" xlink:href="#DejaVuSans-71"/>
     <use x="1169.404297" xlink:href="#DejaVuSans-40"/>
     <use x="1208.417969" xlink:href="#DejaVuSans-120"/>
     <use x="1267.597656" xlink:href="#DejaVuSans-45"/>
     <use x="1303.681641" xlink:href="#DejaVuSans-120"/>
     <use x="1362.861328" xlink:href="#DejaVuSans-48"/>
     <use x="1426.484375" xlink:href="#DejaVuSans-44"/>
     <use x="1458.271484" xlink:href="#DejaVuSans-32"/>
     <use x="1490.058594" xlink:href="#DejaVuSans-115"/>
     <use x="1542.158203" xlink:href="#DejaVuSans-105"/>
     <use x="1569.941406" xlink:href="#DejaVuSans-103"/>
     <use x="1633.417969" xlink:href="#DejaVuSans-109"/>
     <use x="1730.830078" xlink:href="#DejaVuSans-97"/>
     <use x="1792.109375" xlink:href="#DejaVuSans-41"/>
    </g>
    <!-- Fit: x0=361.56$\pm$0.19, sigma=18.93$\pm$0.23, A=199.8$\pm$3.2, -->
    <defs>
     <path d="M 40.578125 39.3125 
Q 47.65625 37.796875 51.625 33 
Q 55.609375 28.21875 55.609375 21.1875 
Q 55.609375 10.40625 48.1875 4.484375 
Q 40.765625 -1.421875 27.09375 -1.421875 
Q 22.515625 -1.421875 17.65625 -0.515625 
Q 12.796875 0.390625 7.625 2.203125 
L 7.625 11.71875 
Q 11.71875 9.328125 16.59375 8.109375 
Q 21.484375 6.890625 26.8125 6.890625 
Q 36.078125 6.890625 40.9375 10.546875 
Q 45.796875 14.203125 45.796875 21.1875 
Q 45.796875 27.640625 41.28125 31.265625 
Q 36.765625 34.90625 28.71875 34.90625 
L 20.21875 34.90625 
L 20.21875 43.015625 
L 29.109375 43.015625 
Q 36.375 43.015625 40.234375 45.921875 
Q 44.09375 48.828125 44.09375 54.296875 
Q 44.09375 59.90625 40.109375 62.90625 
Q 36.140625 65.921875 28.71875 65.921875 
Q 24.65625 65.921875 20.015625 65.03125 
Q 15.375 64.15625 9.8125 62.3125 
L 9.8125 71.09375 
Q 15.4375 72.65625 20.34375 73.4375 
Q 25.25 74.21875 29.59375 74.21875 
Q 40.828125 74.21875 47.359375 69.109375 
Q 53.90625 64.015625 53.90625 55.328125 
Q 53.90625 49.265625 50.4375 45.09375 
Q 46.96875 40.921875 40.578125 39.3125 
z
" id="DejaVuSans-51"/>
     <path d="M 33.015625 40.375 
Q 26.375 40.375 22.484375 35.828125 
Q 18.609375 31.296875 18.609375 23.390625 
Q 18.609375 15.53125 22.484375 10.953125 
Q 26.375 6.390625 33.015625 6.390625 
Q 39.65625 6.390625 43.53125 10.953125 
Q 47.40625 15.53125 47.40625 23.390625 
Q 47.40625 31.296875 43.53125 35.828125 
Q 39.65625 40.375 33.015625 40.375 
z
M 52.59375 71.296875 
L 52.59375 62.3125 
Q 48.875 64.0625 45.09375 64.984375 
Q 41.3125 65.921875 37.59375 65.921875 
Q 27.828125 65.921875 22.671875 59.328125 
Q 17.53125 52.734375 16.796875 39.40625 
Q 19.671875 43.65625 24.015625 45.921875 
Q 28.375 48.1875 33.59375 48.1875 
Q 44.578125 48.1875 50.953125 41.515625 
Q 57.328125 34.859375 57.328125 23.390625 
Q 57.328125 12.15625 50.6875 5.359375 
Q 44.046875 -1.421875 33.015625 -1.421875 
Q 20.359375 -1.421875 13.671875 8.265625 
Q 6.984375 17.96875 6.984375 36.375 
Q 6.984375 53.65625 15.1875 63.9375 
Q 23.390625 74.21875 37.203125 74.21875 
Q 40.921875 74.21875 44.703125 73.484375 
Q 48.484375 72.75 52.59375 71.296875 
z
" id="DejaVuSans-54"/>
     <path d="M 12.40625 8.296875 
L 28.515625 8.296875 
L 28.515625 63.921875 
L 10.984375 60.40625 
L 10.984375 69.390625 
L 28.421875 72.90625 
L 38.28125 72.90625 
L 38.28125 8.296875 
L 54.390625 8.296875 
L 54.390625 0 
L 12.40625 0 
z
" id="DejaVuSans-49"/>
     <path d="M 46 62.703125 
L 46 43.796875 
L 73.1875 43.796875 
L 73.1875 35.5 
L 46 35.5 
L 46 16.609375 
L 37.796875 16.609375 
L 37.796875 35.5 
L 10.59375 35.5 
L 10.59375 43.796875 
L 37.796875 43.796875 
L 37.796875 62.703125 
z
M 10.59375 8.296875 
L 73.1875 8.296875 
L 73.1875 0 
L 10.59375 0 
z
" id="DejaVuSans-177"/>
     <path d="M 10.984375 1.515625 
L 10.984375 10.5 
Q 14.703125 8.734375 18.5 7.8125 
Q 22.3125 6.890625 25.984375 6.890625 
Q 35.75 6.890625 40.890625 13.453125 
Q 46.046875 20.015625 46.78125 33.40625 
Q 43.953125 29.203125 39.59375 26.953125 
Q 35.25 24.703125 29.984375 24.703125 
Q 19.046875 24.703125 12.671875 31.3125 
Q 6.296875 37.9375 6.296875 49.421875 
Q 6.296875 60.640625 12.9375 67.421875 
Q 19.578125 74.21875 30.609375 74.21875 
Q 43.265625 74.21875 49.921875 64.515625 
Q 56.59375 54.828125 56.59375 36.375 
Q 56.59375 19.140625 48.40625 8.859375 
Q 40.234375 -1.421875 26.421875 -1.421875 
Q 22.703125 -1.421875 18.890625 -0.6875 
Q 15.09375 0.046875 10.984375 1.515625 
z
M 30.609375 32.421875 
Q 37.25 32.421875 41.125 36.953125 
Q 45.015625 41.5 45.015625 49.421875 
Q 45.015625 57.28125 41.125 61.84375 
Q 37.25 66.40625 30.609375 66.40625 
Q 23.96875 66.40625 20.09375 61.84375 
Q 16.21875 57.28125 16.21875 49.421875 
Q 16.21875 41.5 20.09375 36.953125 
Q 23.96875 32.421875 30.609375 32.421875 
z
" id="DejaVuSans-57"/>
     <path d="M 31.78125 34.625 
Q 24.75 34.625 20.71875 30.859375 
Q 16.703125 27.09375 16.703125 20.515625 
Q 16.703125 13.921875 20.71875 10.15625 
Q 24.75 6.390625 31.78125 6.390625 
Q 38.8125 6.390625 42.859375 10.171875 
Q 46.921875 13.96875 46.921875 20.515625 
Q 46.921875 27.09375 42.890625 30.859375 
Q 38.875 34.625 31.78125 34.625 
z
M 21.921875 38.8125 
Q 15.578125 40.375 12.03125 44.71875 
Q 8.5 49.078125 8.5 55.328125 
Q 8.5 64.0625 14.71875 69.140625 
Q 20.953125 74.21875 31.78125 74.21875 
Q 42.671875 74.21875 48.875 69.140625 
Q 55.078125 64.0625 55.078125 55.328125 
Q 55.078125 49.078125 51.53125 44.71875 
Q 48 40.375 41.703125 38.8125 
Q 48.828125 37.15625 52.796875 32.3125 
Q 56.78125 27.484375 56.78125 20.515625 
Q 56.78125 9.90625 50.3125 4.234375 
Q 43.84375 -1.421875 31.78125 -1.421875 
Q 19.734375 -1.421875 13.25 4.234375 
Q 6.78125 9.90625 6.78125 20.515625 
Q 6.78125 27.484375 10.78125 32.3125 
Q 14.796875 37.15625 21.921875 38.8125 
z
M 18.3125 54.390625 
Q 18.3125 48.734375 21.84375 45.5625 
Q 25.390625 42.390625 31.78125 42.390625 
Q 38.140625 42.390625 41.71875 45.5625 
Q 45.3125 48.734375 45.3125 54.390625 
Q 45.3125 60.0625 41.71875 63.234375 
Q 38.140625 66.40625 31.78125 66.40625 
Q 25.390625 66.40625 21.84375 63.234375 
Q 18.3125 60.0625 18.3125 54.390625 
z
" id="DejaVuSans-56"/>
    </defs>
    <g transform="translate(69.12 25.488)scale(0.1 -0.1)">
     <use transform="translate(0 0.015625)" xlink:href="#DejaVuSans-70"/>
     <use transform="translate(57.519531 0.015625)" xlink:href="#DejaVuSans-105"/>
     <use transform="translate(85.302734 0.015625)" xlink:href="#DejaVuSans-116"/>
     <use transform="translate(124.511719 0.015625)" xlink:href="#DejaVuSans-58"/>
     <use transform="translate(158.203125 0.015625)" xlink:href="#DejaVuSans-32"/>
     <use transform="translate(189.990234 0.015625)" xlink:href="#DejaVuSans-120"/>
     <use transform="translate(249.169922 0.015625)" xlink:href="#DejaVuSans-48"/>
     <use transform="translate(312.792969 0.015625)" xlink:href="#DejaVuSans-61"/>
     <use transform="translate(396.582031 0.015625)" xlink:href="#DejaVuSans-51"/>
     <use transform="translate(460.205078 0.015625)" xlink:href="#DejaVuSans-54"/>
     <use transform="translate(523.828125 0.015625)" xlink:href="#DejaVuSans-49"/>
     <use transform="translate(587.451172 0.015625)" xlink:href="#DejaVuSans-46"/>
     <use transform="translate(619.238281 0.015625)" xlink:href="#DejaVuSans-53"/>
     <use transform="translate(682.861328 0.015625)" xlink:href="#DejaVuSans-54"/>
     <use transform="translate(746.484375 0.015625)" xlink:href="#DejaVuSans-177"/>
     <use transform="translate(830.273438 0.015625)" xlink:href="#DejaVuSans-48"/>
     <use transform="translate(893.896484 0.015625)" xlink:href="#DejaVuSans-46"/>
     <use transform="translate(925.683594 0.015625)" xlink:href="#DejaVuSans-49"/>
     <use transform="translate(989.306641 0.015625)" xlink:href="#DejaVuSans-57"/>
     <use transform="translate(1052.929688 0.015625)" xlink:href="#DejaVuSans-44"/>
     <use transform="translate(1084.716797 0.015625)" xlink:href="#DejaVuSans-32"/>
     <use transform="translate(1116.503906 0.015625)" xlink:href="#DejaVuSans-115"/>
     <use transform="translate(1168.603516 0.015625)" xlink:href="#DejaVuSans-105"/>
     <use transform="translate(1196.386719 0.015625)" xlink:href="#DejaVuSans-103"/>
     <use transform="translate(1259.863281 0.015625)" xlink:href="#DejaVuSans-109"/>
     <use transform="translate(1357.275391 0.015625)" xlink:href="#DejaVuSans-97"/>
     <use transform="translate(1418.554688 0.015625)" xlink:href="#DejaVuSans-61"/>
     <use transform="translate(1502.34375 0.015625)" xlink:href="#DejaVuSans-49"/>
     <use transform="translate(1565.966797 0.015625)" xlink:href="#DejaVuSans-56"/>
     <use transform="translate(1629.589844 0.015625)" xlink:href="#DejaVuSans-46"/>
     <use transform="translate(1661.376953 0.015625)" xlink:href="#DejaVuSans-57"/>
     <use transform="translate(1725 0.015625)" xlink:href="#DejaVuSans-51"/>
     <use transform="translate(1788.623047 0.015625)" xlink:href="#DejaVuSans-177"/>
     <use transform="translate(1872.412109 0.015625)" xlink:href="#DejaVuSans-48"/>
     <use transform="translate(1936.035156 0.015625)" xlink:href="#DejaVuSans-46"/>
     <use transform="translate(1967.744141 0.015625)" xlink:href="#DejaVuSans-50"/>
     <use transform="translate(2031.367188 0.015625)" xlink:href="#DejaVuSans-51"/>
     <use transform="translate(2094.990234 0.015625)" xlink:href="#DejaVuSans-44"/>
     <use transform="translate(2126.777344 0.015625)" xlink:href="#DejaVuSans-32"/>
     <use transform="translate(2158.564453 0.015625)" xlink:href="#DejaVuSans-65"/>
     <use transform="translate(2226.972656 0.015625)" xlink:href="#DejaVuSans-61"/>
     <use transform="translate(2310.761719 0.015625)" xlink:href="#DejaVuSans-49"/>
     <use transform="translate(2374.384766 0.015625)" xlink:href="#DejaVuSans-57"/>
     <use transform="translate(2438.007812 0.015625)" xlink:href="#DejaVuSans-57"/>
     <use transform="translate(2501.630859 0.015625)" xlink:href="#DejaVuSans-46"/>
     <use transform="translate(2533.386719 0.015625)" xlink:href="#DejaVuSans-56"/>
     <use transform="translate(2597.009766 0.015625)" xlink:href="#DejaVuSans-177"/>
     <use transform="translate(2680.798828 0.015625)" xlink:href="#DejaVuSans-51"/>
     <use transform="translate(2744.421875 0.015625)" xlink:href="#DejaVuSans-46"/>
     <use transform="translate(2776.130859 0.015625)" xlink:href="#DejaVuSans-50"/>
     <use transform="translate(2839.753906 0.015625)" xlink:href="#DejaVuSans-44"/>
    </g>
    <!--       $\chi^2_r$=1.09$\pm$0.19 (57 DOF) -->
    <defs>
     <path d="M 30.03125 -12.203125 
L 26.421875 6.5 
L 6.15625 -20.84375 
L -4.4375 -20.84375 
L 24.265625 17.828125 
L 19.828125 40.828125 
Q 18.65625 46.96875 11.140625 46.96875 
L 8.734375 46.96875 
L 10.203125 54.6875 
L 13.625 54.59375 
Q 26.171875 54.25 27.734375 46.09375 
L 31.34375 27.390625 
L 51.609375 54.734375 
L 62.203125 54.734375 
L 33.5 16.0625 
L 37.9375 -6.9375 
Q 39.109375 -13.09375 46.625 -13.09375 
L 49.03125 -13.09375 
L 47.5625 -20.796875 
L 44.140625 -20.703125 
Q 31.59375 -20.359375 30.03125 -12.203125 
z
" id="DejaVuSans-Oblique-967"/>
     <path d="M 44.578125 46.390625 
Q 43.21875 47.125 41.453125 47.515625 
Q 39.703125 47.90625 37.703125 47.90625 
Q 30.515625 47.90625 25.140625 42.453125 
Q 19.78125 37.015625 18.015625 27.875 
L 12.5 0 
L 3.515625 0 
L 14.203125 54.6875 
L 23.1875 54.6875 
L 21.484375 46.1875 
Q 25.046875 50.921875 30 53.453125 
Q 34.96875 56 40.578125 56 
Q 42.046875 56 43.453125 55.828125 
Q 44.875 55.671875 46.296875 55.28125 
z
" id="DejaVuSans-Oblique-114"/>
     <path d="M 8.203125 72.90625 
L 55.078125 72.90625 
L 55.078125 68.703125 
L 28.609375 0 
L 18.3125 0 
L 43.21875 64.59375 
L 8.203125 64.59375 
z
" id="DejaVuSans-55"/>
     <path d="M 19.671875 64.796875 
L 19.671875 8.109375 
L 31.59375 8.109375 
Q 46.6875 8.109375 53.6875 14.9375 
Q 60.6875 21.78125 60.6875 36.53125 
Q 60.6875 51.171875 53.6875 57.984375 
Q 46.6875 64.796875 31.59375 64.796875 
z
M 9.8125 72.90625 
L 30.078125 72.90625 
Q 51.265625 72.90625 61.171875 64.09375 
Q 71.09375 55.28125 71.09375 36.53125 
Q 71.09375 17.671875 61.125 8.828125 
Q 51.171875 0 30.078125 0 
L 9.8125 0 
z
" id="DejaVuSans-68"/>
     <path d="M 39.40625 66.21875 
Q 28.65625 66.21875 22.328125 58.203125 
Q 16.015625 50.203125 16.015625 36.375 
Q 16.015625 22.609375 22.328125 14.59375 
Q 28.65625 6.59375 39.40625 6.59375 
Q 50.140625 6.59375 56.421875 14.59375 
Q 62.703125 22.609375 62.703125 36.375 
Q 62.703125 50.203125 56.421875 58.203125 
Q 50.140625 66.21875 39.40625 66.21875 
z
M 39.40625 74.21875 
Q 54.734375 74.21875 63.90625 63.9375 
Q 73.09375 53.65625 73.09375 36.375 
Q 73.09375 19.140625 63.90625 8.859375 
Q 54.734375 -1.421875 39.40625 -1.421875 
Q 24.03125 -1.421875 14.8125 8.828125 
Q 5.609375 19.09375 5.609375 36.375 
Q 5.609375 53.65625 14.8125 63.9375 
Q 24.03125 74.21875 39.40625 74.21875 
z
" id="DejaVuSans-79"/>
    </defs>
    <g transform="translate(69.12 38.508)scale(0.1 -0.1)">
     <use transform="translate(0 0.765625)" xlink:href="#DejaVuSans-32"/>
     <use transform="translate(31.787109 0.765625)" xlink:href="#DejaVuSans-32"/>
     <use transform="translate(63.574219 0.765625)" xlink:href="#DejaVuSans-32"/>
     <use transform="translate(95.361328 0.765625)" xlink:href="#DejaVuSans-32"/>
     <use transform="translate(127.148438 0.765625)" xlink:href="#DejaVuSans-32"/>
     <use transform="translate(158.935547 0.765625)" xlink:href="#DejaVuSans-32"/>
     <use transform="translate(190.722656 0.765625)" xlink:href="#DejaVuSans-Oblique-967"/>
     <use transform="translate(254.375052 39.046875)scale(0.7)" xlink:href="#DejaVuSans-50"/>
     <use transform="translate(249.902344 -26.578125)scale(0.7)" xlink:href="#DejaVuSans-Oblique-114"/>
     <use transform="translate(301.64556 0.765625)" xlink:href="#DejaVuSans-61"/>
     <use transform="translate(385.434622 0.765625)" xlink:href="#DejaVuSans-49"/>
     <use transform="translate(449.057669 0.765625)" xlink:href="#DejaVuSans-46"/>
     <use transform="translate(480.844779 0.765625)" xlink:href="#DejaVuSans-48"/>
     <use transform="translate(544.467826 0.765625)" xlink:href="#DejaVuSans-57"/>
     <use transform="translate(608.090872 0.765625)" xlink:href="#DejaVuSans-177"/>
     <use transform="translate(691.879935 0.765625)" xlink:href="#DejaVuSans-48"/>
     <use transform="translate(755.502982 0.765625)" xlink:href="#DejaVuSans-46"/>
     <use transform="translate(787.290091 0.765625)" xlink:href="#DejaVuSans-49"/>
     <use transform="translate(850.913138 0.765625)" xlink:href="#DejaVuSans-57"/>
     <use transform="translate(914.536185 0.765625)" xlink:href="#DejaVuSans-32"/>
     <use transform="translate(946.323294 0.765625)" xlink:href="#DejaVuSans-40"/>
     <use transform="translate(985.336966 0.765625)" xlink:href="#DejaVuSans-53"/>
     <use transform="translate(1048.850638 0.765625)" xlink:href="#DejaVuSans-55"/>
     <use transform="translate(1112.473685 0.765625)" xlink:href="#DejaVuSans-32"/>
     <use transform="translate(1144.260794 0.765625)" xlink:href="#DejaVuSans-68"/>
     <use transform="translate(1221.262747 0.765625)" xlink:href="#DejaVuSans-79"/>
     <use transform="translate(1299.973685 0.765625)" xlink:href="#DejaVuSans-70"/>
     <use transform="translate(1357.493216 0.765625)" xlink:href="#DejaVuSans-41"/>
    </g>
   </g>
  </g>
  <g id="axes_2">
   <g id="patch_7">
    <path d="M 69.12 311.04 
L 414.72 311.04 
L 414.72 103.68 
L 69.12 103.68 
z
" style="fill:#ffffff;"/>
   </g>
   <g id="matplotlib.axis_3">
    <g id="xtick_7">
     <g id="line2d_12">
      <g>
       <use style="stroke:#000000;stroke-width:0.8;" x="98.295489" xlink:href="#mc25a9c0e52" y="311.04"/>
      </g>
     </g>
     <g id="text_5">
      <!-- 340 -->
      <defs>
       <path d="M 37.796875 64.3125 
L 12.890625 25.390625 
L 37.796875 25.390625 
z
M 35.203125 72.90625 
L 47.609375 72.90625 
L 47.609375 25.390625 
L 58.015625 25.390625 
L 58.015625 17.1875 
L 47.609375 17.1875 
L 47.609375 0 
L 37.796875 0 
L 37.796875 17.1875 
L 4.890625 17.1875 
L 4.890625 26.703125 
z
" id="DejaVuSans-52"/>
      </defs>
      <g transform="translate(88.751739 325.638437)scale(0.1 -0.1)">
       <use xlink:href="#DejaVuSans-51"/>
       <use x="63.623047" xlink:href="#DejaVuSans-52"/>
       <use x="127.246094" xlink:href="#DejaVuSans-48"/>
      </g>
     </g>
    </g>
    <g id="xtick_8">
     <g id="line2d_13">
      <g>
       <use style="stroke:#000000;stroke-width:0.8;" x="154.618827" xlink:href="#mc25a9c0e52" y="311.04"/>
      </g>
     </g>
     <g id="text_6">
      <!-- 350 -->
      <g transform="translate(145.075077 325.638437)scale(0.1 -0.1)">
       <use xlink:href="#DejaVuSans-51"/>
       <use x="63.623047" xlink:href="#DejaVuSans-53"/>
       <use x="127.246094" xlink:href="#DejaVuSans-48"/>
      </g>
     </g>
    </g>
    <g id="xtick_9">
     <g id="line2d_14">
      <g>
       <use style="stroke:#000000;stroke-width:0.8;" x="210.942164" xlink:href="#mc25a9c0e52" y="311.04"/>
      </g>
     </g>
     <g id="text_7">
      <!-- 360 -->
      <g transform="translate(201.398414 325.638437)scale(0.1 -0.1)">
       <use xlink:href="#DejaVuSans-51"/>
       <use x="63.623047" xlink:href="#DejaVuSans-54"/>
       <use x="127.246094" xlink:href="#DejaVuSans-48"/>
      </g>
     </g>
    </g>
    <g id="xtick_10">
     <g id="line2d_15">
      <g>
       <use style="stroke:#000000;stroke-width:0.8;" x="267.265502" xlink:href="#mc25a9c0e52" y="311.04"/>
      </g>
     </g>
     <g id="text_8">
      <!-- 370 -->
      <g transform="translate(257.721752 325.638437)scale(0.1 -0.1)">
       <use xlink:href="#DejaVuSans-51"/>
       <use x="63.623047" xlink:href="#DejaVuSans-55"/>
       <use x="127.246094" xlink:href="#DejaVuSans-48"/>
      </g>
     </g>
    </g>
    <g id="xtick_11">
     <g id="line2d_16">
      <g>
       <use style="stroke:#000000;stroke-width:0.8;" x="323.58884" xlink:href="#mc25a9c0e52" y="311.04"/>
      </g>
     </g>
     <g id="text_9">
      <!-- 380 -->
      <g transform="translate(314.04509 325.638437)scale(0.1 -0.1)">
       <use xlink:href="#DejaVuSans-51"/>
       <use x="63.623047" xlink:href="#DejaVuSans-56"/>
       <use x="127.246094" xlink:href="#DejaVuSans-48"/>
      </g>
     </g>
    </g>
    <g id="xtick_12">
     <g id="line2d_17">
      <g>
       <use style="stroke:#000000;stroke-width:0.8;" x="379.912177" xlink:href="#mc25a9c0e52" y="311.04"/>
      </g>
     </g>
     <g id="text_10">
      <!-- 390 -->
      <g transform="translate(370.368427 325.638437)scale(0.1 -0.1)">
       <use xlink:href="#DejaVuSans-51"/>
       <use x="63.623047" xlink:href="#DejaVuSans-57"/>
       <use x="127.246094" xlink:href="#DejaVuSans-48"/>
      </g>
     </g>
    </g>
    <g id="text_11">
     <!-- TBD -->
     <defs>
      <path d="M -0.296875 72.90625 
L 61.375 72.90625 
L 61.375 64.59375 
L 35.5 64.59375 
L 35.5 0 
L 25.59375 0 
L 25.59375 64.59375 
L -0.296875 64.59375 
z
" id="DejaVuSans-84"/>
      <path d="M 19.671875 34.8125 
L 19.671875 8.109375 
L 35.5 8.109375 
Q 43.453125 8.109375 47.28125 11.40625 
Q 51.125 14.703125 51.125 21.484375 
Q 51.125 28.328125 47.28125 31.5625 
Q 43.453125 34.8125 35.5 34.8125 
z
M 19.671875 64.796875 
L 19.671875 42.828125 
L 34.28125 42.828125 
Q 41.5 42.828125 45.03125 45.53125 
Q 48.578125 48.25 48.578125 53.8125 
Q 48.578125 59.328125 45.03125 62.0625 
Q 41.5 64.796875 34.28125 64.796875 
z
M 9.8125 72.90625 
L 35.015625 72.90625 
Q 46.296875 72.90625 52.390625 68.21875 
Q 58.5 63.53125 58.5 54.890625 
Q 58.5 48.1875 55.375 44.234375 
Q 52.25 40.28125 46.1875 39.3125 
Q 53.46875 37.75 57.5 32.78125 
Q 61.53125 27.828125 61.53125 20.40625 
Q 61.53125 10.640625 54.890625 5.3125 
Q 48.25 0 35.984375 0 
L 9.8125 0 
z
" id="DejaVuSans-66"/>
     </defs>
     <g transform="translate(231.585625 339.316562)scale(0.1 -0.1)">
      <use xlink:href="#DejaVuSans-84"/>
      <use x="61.083984" xlink:href="#DejaVuSans-66"/>
      <use x="129.6875" xlink:href="#DejaVuSans-68"/>
     </g>
    </g>
   </g>
   <g id="matplotlib.axis_4">
    <g id="ytick_4">
     <g id="line2d_18">
      <g>
       <use style="stroke:#000000;stroke-width:0.8;" x="69.12" xlink:href="#me6216bfcd5" y="310.87051"/>
      </g>
     </g>
     <g id="text_12">
      <!-- 0 -->
      <g transform="translate(55.7575 314.669729)scale(0.1 -0.1)">
       <use xlink:href="#DejaVuSans-48"/>
      </g>
     </g>
    </g>
    <g id="ytick_5">
     <g id="line2d_19">
      <g>
       <use style="stroke:#000000;stroke-width:0.8;" x="69.12" xlink:href="#me6216bfcd5" y="267.025947"/>
      </g>
     </g>
     <g id="text_13">
      <!-- 50 -->
      <g transform="translate(49.395 270.825166)scale(0.1 -0.1)">
       <use xlink:href="#DejaVuSans-53"/>
       <use x="63.623047" xlink:href="#DejaVuSans-48"/>
      </g>
     </g>
    </g>
    <g id="ytick_6">
     <g id="line2d_20">
      <g>
       <use style="stroke:#000000;stroke-width:0.8;" x="69.12" xlink:href="#me6216bfcd5" y="223.181384"/>
      </g>
     </g>
     <g id="text_14">
      <!-- 100 -->
      <g transform="translate(43.0325 226.980603)scale(0.1 -0.1)">
       <use xlink:href="#DejaVuSans-49"/>
       <use x="63.623047" xlink:href="#DejaVuSans-48"/>
       <use x="127.246094" xlink:href="#DejaVuSans-48"/>
      </g>
     </g>
    </g>
    <g id="ytick_7">
     <g id="line2d_21">
      <g>
       <use style="stroke:#000000;stroke-width:0.8;" x="69.12" xlink:href="#me6216bfcd5" y="179.336822"/>
      </g>
     </g>
     <g id="text_15">
      <!-- 150 -->
      <g transform="translate(43.0325 183.13604)scale(0.1 -0.1)">
       <use xlink:href="#DejaVuSans-49"/>
       <use x="63.623047" xlink:href="#DejaVuSans-53"/>
       <use x="127.246094" xlink:href="#DejaVuSans-48"/>
      </g>
     </g>
    </g>
    <g id="ytick_8">
     <g id="line2d_22">
      <g>
       <use style="stroke:#000000;stroke-width:0.8;" x="69.12" xlink:href="#me6216bfcd5" y="135.492259"/>
      </g>
     </g>
     <g id="text_16">
      <!-- 200 -->
      <g transform="translate(43.0325 139.291477)scale(0.1 -0.1)">
       <use xlink:href="#DejaVuSans-50"/>
       <use x="63.623047" xlink:href="#DejaVuSans-48"/>
       <use x="127.246094" xlink:href="#DejaVuSans-48"/>
      </g>
     </g>
    </g>
    <g id="text_17">
     <!-- TBD -->
     <g transform="translate(36.952813 217.694375)rotate(-90)scale(0.1 -0.1)">
      <use xlink:href="#DejaVuSans-84"/>
      <use x="61.083984" xlink:href="#DejaVuSans-66"/>
      <use x="129.6875" xlink:href="#DejaVuSans-68"/>
     </g>
    </g>
   </g>
   <g id="LineCollection_2">
    <path clip-path="url(#pbf63506c99)" d="M 75.766154 286.970456 
L 75.766154 276.895742 
" style="fill:none;stroke:#0000ff;stroke-width:1.5;"/>
    <path clip-path="url(#pbf63506c99)" d="M 81.398488 272.411312 
L 81.398488 259.8868 
" style="fill:none;stroke:#0000ff;stroke-width:1.5;"/>
    <path clip-path="url(#pbf63506c99)" d="M 87.030821 269.144691 
L 87.030821 256.138291 
" style="fill:none;stroke:#0000ff;stroke-width:1.5;"/>
    <path clip-path="url(#pbf63506c99)" d="M 92.663155 269.144691 
L 92.663155 256.138291 
" style="fill:none;stroke:#0000ff;stroke-width:1.5;"/>
    <path clip-path="url(#pbf63506c99)" d="M 98.295489 269.144691 
L 98.295489 256.138291 
" style="fill:none;stroke:#0000ff;stroke-width:1.5;"/>
    <path clip-path="url(#pbf63506c99)" d="M 103.927823 269.144691 
L 103.927823 256.138291 
" style="fill:none;stroke:#0000ff;stroke-width:1.5;"/>
    <path clip-path="url(#pbf63506c99)" d="M 109.560156 262.58647 
L 109.560156 248.666252 
" style="fill:none;stroke:#0000ff;stroke-width:1.5;"/>
    <path clip-path="url(#pbf63506c99)" d="M 115.19249 241.099764 
L 115.19249 224.554613 
" style="fill:none;stroke:#0000ff;stroke-width:1.5;"/>
    <path clip-path="url(#pbf63506c99)" d="M 120.824824 252.697767 
L 120.824824 237.509565 
" style="fill:none;stroke:#0000ff;stroke-width:1.5;"/>
    <path clip-path="url(#pbf63506c99)" d="M 126.457158 229.450185 
L 126.457158 211.651236 
" style="fill:none;stroke:#0000ff;stroke-width:1.5;"/>
    <path clip-path="url(#pbf63506c99)" d="M 132.089492 216.922819 
L 132.089492 197.871865 
" style="fill:none;stroke:#0000ff;stroke-width:1.5;"/>
    <path clip-path="url(#pbf63506c99)" d="M 137.721825 221.938834 
L 137.721825 203.378545 
" style="fill:none;stroke:#0000ff;stroke-width:1.5;"/>
    <path clip-path="url(#pbf63506c99)" d="M 143.354159 231.950297 
L 143.354159 214.412472 
" style="fill:none;stroke:#0000ff;stroke-width:1.5;"/>
    <path clip-path="url(#pbf63506c99)" d="M 148.986493 211.063045 
L 148.986493 191.455161 
" style="fill:none;stroke:#0000ff;stroke-width:1.5;"/>
    <path clip-path="url(#pbf63506c99)" d="M 154.618827 205.195578 
L 154.618827 185.046151 
" style="fill:none;stroke:#0000ff;stroke-width:1.5;"/>
    <path clip-path="url(#pbf63506c99)" d="M 160.25116 193.439904 
L 160.25116 172.248869 
" style="fill:none;stroke:#0000ff;stroke-width:1.5;"/>
    <path clip-path="url(#pbf63506c99)" d="M 165.883494 172.388946 
L 165.883494 149.455264 
" style="fill:none;stroke:#0000ff;stroke-width:1.5;"/>
    <path clip-path="url(#pbf63506c99)" d="M 171.515828 172.388946 
L 171.515828 149.455264 
" style="fill:none;stroke:#0000ff;stroke-width:1.5;"/>
    <path clip-path="url(#pbf63506c99)" d="M 177.148162 191.758447 
L 177.148162 170.422761 
" style="fill:none;stroke:#0000ff;stroke-width:1.5;"/>
    <path clip-path="url(#pbf63506c99)" d="M 182.780495 174.075474 
L 182.780495 151.276301 
" style="fill:none;stroke:#0000ff;stroke-width:1.5;"/>
    <path clip-path="url(#pbf63506c99)" d="M 188.412829 163.950558 
L 188.412829 140.355827 
" style="fill:none;stroke:#0000ff;stroke-width:1.5;"/>
    <path clip-path="url(#pbf63506c99)" d="M 194.045163 157.193324 
L 194.045163 133.082801 
" style="fill:none;stroke:#0000ff;stroke-width:1.5;"/>
    <path clip-path="url(#pbf63506c99)" d="M 199.677497 182.501978 
L 199.677497 160.387622 
" style="fill:none;stroke:#0000ff;stroke-width:1.5;"/>
    <path clip-path="url(#pbf63506c99)" d="M 205.309831 133.502522 
L 205.309831 107.667692 
" style="fill:none;stroke:#0000ff;stroke-width:1.5;"/>
    <path clip-path="url(#pbf63506c99)" d="M 210.942164 150.430688 
L 210.942164 125.815177 
" style="fill:none;stroke:#0000ff;stroke-width:1.5;"/>
    <path clip-path="url(#pbf63506c99)" d="M 216.574498 143.662974 
L 216.574498 118.55263 
" style="fill:none;stroke:#0000ff;stroke-width:1.5;"/>
    <path clip-path="url(#pbf63506c99)" d="M 222.206832 163.950558 
L 222.206832 140.355827 
" style="fill:none;stroke:#0000ff;stroke-width:1.5;"/>
    <path clip-path="url(#pbf63506c99)" d="M 227.839166 154.65795 
L 227.839166 130.356827 
" style="fill:none;stroke:#0000ff;stroke-width:1.5;"/>
    <path clip-path="url(#pbf63506c99)" d="M 233.471499 147.893374 
L 233.471499 123.091143 
" style="fill:none;stroke:#0000ff;stroke-width:1.5;"/>
    <path clip-path="url(#pbf63506c99)" d="M 239.103833 143.662974 
L 239.103833 118.55263 
" style="fill:none;stroke:#0000ff;stroke-width:1.5;"/>
    <path clip-path="url(#pbf63506c99)" d="M 244.736167 174.918589 
L 244.736167 152.186969 
" style="fill:none;stroke:#0000ff;stroke-width:1.5;"/>
    <path clip-path="url(#pbf63506c99)" d="M 250.368501 151.276301 
L 250.368501 126.723346 
" style="fill:none;stroke:#0000ff;stroke-width:1.5;"/>
    <path clip-path="url(#pbf63506c99)" d="M 256.000834 159.727939 
L 256.000834 135.809534 
" style="fill:none;stroke:#0000ff;stroke-width:1.5;"/>
    <path clip-path="url(#pbf63506c99)" d="M 261.633168 167.327037 
L 261.633168 143.994478 
" style="fill:none;stroke:#0000ff;stroke-width:1.5;"/>
    <path clip-path="url(#pbf63506c99)" d="M 267.265502 173.23226 
L 267.265502 150.365733 
" style="fill:none;stroke:#0000ff;stroke-width:1.5;"/>
    <path clip-path="url(#pbf63506c99)" d="M 272.897836 185.869573 
L 272.897836 164.035157 
" style="fill:none;stroke:#0000ff;stroke-width:1.5;"/>
    <path clip-path="url(#pbf63506c99)" d="M 278.530169 170.702026 
L 278.530169 147.634619 
" style="fill:none;stroke:#0000ff;stroke-width:1.5;"/>
    <path clip-path="url(#pbf63506c99)" d="M 284.162503 201.839521 
L 284.162503 181.387078 
" style="fill:none;stroke:#0000ff;stroke-width:1.5;"/>
    <path clip-path="url(#pbf63506c99)" d="M 289.794837 202.678746 
L 289.794837 182.301635 
" style="fill:none;stroke:#0000ff;stroke-width:1.5;"/>
    <path clip-path="url(#pbf63506c99)" d="M 295.427171 206.872745 
L 295.427171 186.876548 
" style="fill:none;stroke:#0000ff;stroke-width:1.5;"/>
    <path clip-path="url(#pbf63506c99)" d="M 301.059505 209.387383 
L 301.059505 189.623258 
" style="fill:none;stroke:#0000ff;stroke-width:1.5;"/>
    <path clip-path="url(#pbf63506c99)" d="M 306.691838 221.10328 
L 306.691838 202.460316 
" style="fill:none;stroke:#0000ff;stroke-width:1.5;"/>
    <path clip-path="url(#pbf63506c99)" d="M 312.324172 234.448436 
L 312.324172 217.175681 
" style="fill:none;stroke:#0000ff;stroke-width:1.5;"/>
    <path clip-path="url(#pbf63506c99)" d="M 317.956506 234.448436 
L 317.956506 217.175681 
" style="fill:none;stroke:#0000ff;stroke-width:1.5;"/>
    <path clip-path="url(#pbf63506c99)" d="M 323.58884 253.523861 
L 323.58884 238.437253 
" style="fill:none;stroke:#0000ff;stroke-width:1.5;"/>
    <path clip-path="url(#pbf63506c99)" d="M 329.221173 261.7646 
L 329.221173 247.73434 
" style="fill:none;stroke:#0000ff;stroke-width:1.5;"/>
    <path clip-path="url(#pbf63506c99)" d="M 334.853507 265.049405 
L 334.853507 251.464664 
" style="fill:none;stroke:#0000ff;stroke-width:1.5;"/>
    <path clip-path="url(#pbf63506c99)" d="M 340.485841 265.049405 
L 340.485841 251.464664 
" style="fill:none;stroke:#0000ff;stroke-width:1.5;"/>
    <path clip-path="url(#pbf63506c99)" d="M 346.118175 270.779138 
L 346.118175 258.011409 
" style="fill:none;stroke:#0000ff;stroke-width:1.5;"/>
    <path clip-path="url(#pbf63506c99)" d="M 351.750508 279.723982 
L 351.750508 268.358173 
" style="fill:none;stroke:#0000ff;stroke-width:1.5;"/>
    <path clip-path="url(#pbf63506c99)" d="M 357.382842 282.954163 
L 357.382842 272.143122 
" style="fill:none;stroke:#0000ff;stroke-width:1.5;"/>
    <path clip-path="url(#pbf63506c99)" d="M 363.015176 286.970456 
L 363.015176 276.895742 
" style="fill:none;stroke:#0000ff;stroke-width:1.5;"/>
    <path clip-path="url(#pbf63506c99)" d="M 368.64751 296.474214 
L 368.64751 288.437373 
" style="fill:none;stroke:#0000ff;stroke-width:1.5;"/>
    <path clip-path="url(#pbf63506c99)" d="M 374.279844 294.907434 
L 374.279844 286.496589 
" style="fill:none;stroke:#0000ff;stroke-width:1.5;"/>
    <path clip-path="url(#pbf63506c99)" d="M 379.912177 297.254262 
L 379.912177 289.411108 
" style="fill:none;stroke:#0000ff;stroke-width:1.5;"/>
    <path clip-path="url(#pbf63506c99)" d="M 385.544511 301.113327 
L 385.544511 294.320956 
" style="fill:none;stroke:#0000ff;stroke-width:1.5;"/>
    <path clip-path="url(#pbf63506c99)" d="M 391.176845 303.385456 
L 391.176845 297.310175 
" style="fill:none;stroke:#0000ff;stroke-width:1.5;"/>
    <path clip-path="url(#pbf63506c99)" d="M 396.809179 307.052308 
L 396.809179 302.412235 
" style="fill:none;stroke:#0000ff;stroke-width:1.5;"/>
    <path clip-path="url(#pbf63506c99)" d="M 402.441512 300.347815 
L 402.441512 293.332685 
" style="fill:none;stroke:#0000ff;stroke-width:1.5;"/>
    <path clip-path="url(#pbf63506c99)" d="M 408.073846 306.335603 
L 408.073846 301.375157 
" style="fill:none;stroke:#0000ff;stroke-width:1.5;"/>
   </g>
   <g id="line2d_23">
    <path clip-path="url(#pbf63506c99)" d="M 75.766154 282.550412 
L 80.423119 279.067399 
L 85.080083 275.29196 
L 89.737048 271.219826 
L 94.394012 266.849812 
L 99.050977 262.184188 
L 104.040582 256.864247 
L 109.030187 251.224686 
L 114.352432 244.877783 
L 120.007318 237.792512 
L 126.327484 229.512943 
L 133.645572 219.552173 
L 144.622703 204.179046 
L 157.263035 186.550675 
L 163.915842 177.643449 
L 169.570728 170.434287 
L 174.560333 164.43538 
L 178.884657 159.566179 
L 182.876341 155.382406 
L 186.868025 151.530011 
L 190.527069 148.315446 
L 193.853472 145.674708 
L 197.179875 143.317394 
L 200.173638 141.449142 
L 203.167401 139.829832 
L 206.161164 138.466967 
L 209.154927 137.366902 
L 211.81605 136.613881 
L 214.477173 136.075389 
L 217.138295 135.753431 
L 219.799418 135.649209 
L 222.460541 135.763111 
L 225.121663 136.094712 
L 227.782786 136.642775 
L 230.443909 137.405261 
L 233.105031 138.379336 
L 236.098794 139.723567 
L 239.092557 141.324738 
L 242.08632 143.175426 
L 245.412723 145.513991 
L 248.739127 148.13688 
L 252.06553 151.029469 
L 255.724574 154.50376 
L 259.716258 158.617182 
L 264.040582 163.418312 
L 268.697547 168.942462 
L 273.687152 175.207069 
L 279.674678 183.101157 
L 286.992765 193.140616 
L 314.934553 231.881013 
L 321.254719 240.059911 
L 326.909605 247.038512 
L 332.23185 253.273705 
L 337.221455 258.800973 
L 342.21106 264.003441 
L 346.868025 268.556495 
L 351.52499 272.812639 
L 356.181954 276.770969 
L 360.838919 280.433893 
L 365.495884 283.806757 
L 370.152848 286.89745 
L 374.809813 289.716013 
L 379.466778 292.274244 
L 384.123742 294.585329 
L 389.113347 296.8034 
L 394.102952 298.772444 
L 399.092557 300.511321 
L 404.414802 302.133813 
L 408.073846 303.12175 
L 408.073846 303.12175 
" style="fill:none;stroke:#ff0000;stroke-linecap:square;stroke-width:1.5;"/>
   </g>
   <g id="line2d_24">
    <g clip-path="url(#pbf63506c99)">
     <use style="fill:#0000ff;stroke:#0000ff;" x="75.766154" xlink:href="#m845b508177" y="281.933099"/>
     <use style="fill:#0000ff;stroke:#0000ff;" x="81.398488" xlink:href="#m845b508177" y="266.149056"/>
     <use style="fill:#0000ff;stroke:#0000ff;" x="87.030821" xlink:href="#m845b508177" y="262.641491"/>
     <use style="fill:#0000ff;stroke:#0000ff;" x="92.663155" xlink:href="#m845b508177" y="262.641491"/>
     <use style="fill:#0000ff;stroke:#0000ff;" x="98.295489" xlink:href="#m845b508177" y="262.641491"/>
     <use style="fill:#0000ff;stroke:#0000ff;" x="103.927823" xlink:href="#m845b508177" y="262.641491"/>
     <use style="fill:#0000ff;stroke:#0000ff;" x="109.560156" xlink:href="#m845b508177" y="255.626361"/>
     <use style="fill:#0000ff;stroke:#0000ff;" x="115.19249" xlink:href="#m845b508177" y="232.827188"/>
     <use style="fill:#0000ff;stroke:#0000ff;" x="120.824824" xlink:href="#m845b508177" y="245.103666"/>
     <use style="fill:#0000ff;stroke:#0000ff;" x="126.457158" xlink:href="#m845b508177" y="220.550711"/>
     <use style="fill:#0000ff;stroke:#0000ff;" x="132.089492" xlink:href="#m845b508177" y="207.397342"/>
     <use style="fill:#0000ff;stroke:#0000ff;" x="137.721825" xlink:href="#m845b508177" y="212.658689"/>
     <use style="fill:#0000ff;stroke:#0000ff;" x="143.354159" xlink:href="#m845b508177" y="223.181384"/>
     <use style="fill:#0000ff;stroke:#0000ff;" x="148.986493" xlink:href="#m845b508177" y="201.259103"/>
     <use style="fill:#0000ff;stroke:#0000ff;" x="154.618827" xlink:href="#m845b508177" y="195.120864"/>
     <use style="fill:#0000ff;stroke:#0000ff;" x="160.25116" xlink:href="#m845b508177" y="182.844387"/>
     <use style="fill:#0000ff;stroke:#0000ff;" x="165.883494" xlink:href="#m845b508177" y="160.922105"/>
     <use style="fill:#0000ff;stroke:#0000ff;" x="171.515828" xlink:href="#m845b508177" y="160.922105"/>
     <use style="fill:#0000ff;stroke:#0000ff;" x="177.148162" xlink:href="#m845b508177" y="181.090604"/>
     <use style="fill:#0000ff;stroke:#0000ff;" x="182.780495" xlink:href="#m845b508177" y="162.675888"/>
     <use style="fill:#0000ff;stroke:#0000ff;" x="188.412829" xlink:href="#m845b508177" y="152.153192"/>
     <use style="fill:#0000ff;stroke:#0000ff;" x="194.045163" xlink:href="#m845b508177" y="145.138062"/>
     <use style="fill:#0000ff;stroke:#0000ff;" x="199.677497" xlink:href="#m845b508177" y="171.4448"/>
     <use style="fill:#0000ff;stroke:#0000ff;" x="205.309831" xlink:href="#m845b508177" y="120.585107"/>
     <use style="fill:#0000ff;stroke:#0000ff;" x="210.942164" xlink:href="#m845b508177" y="138.122932"/>
     <use style="fill:#0000ff;stroke:#0000ff;" x="216.574498" xlink:href="#m845b508177" y="131.107802"/>
     <use style="fill:#0000ff;stroke:#0000ff;" x="222.206832" xlink:href="#m845b508177" y="152.153192"/>
     <use style="fill:#0000ff;stroke:#0000ff;" x="227.839166" xlink:href="#m845b508177" y="142.507389"/>
     <use style="fill:#0000ff;stroke:#0000ff;" x="233.471499" xlink:href="#m845b508177" y="135.492259"/>
     <use style="fill:#0000ff;stroke:#0000ff;" x="239.103833" xlink:href="#m845b508177" y="131.107802"/>
     <use style="fill:#0000ff;stroke:#0000ff;" x="244.736167" xlink:href="#m845b508177" y="163.552779"/>
     <use style="fill:#0000ff;stroke:#0000ff;" x="250.368501" xlink:href="#m845b508177" y="138.999824"/>
     <use style="fill:#0000ff;stroke:#0000ff;" x="256.000834" xlink:href="#m845b508177" y="147.768736"/>
     <use style="fill:#0000ff;stroke:#0000ff;" x="261.633168" xlink:href="#m845b508177" y="155.660758"/>
     <use style="fill:#0000ff;stroke:#0000ff;" x="267.265502" xlink:href="#m845b508177" y="161.798996"/>
     <use style="fill:#0000ff;stroke:#0000ff;" x="272.897836" xlink:href="#m845b508177" y="174.952365"/>
     <use style="fill:#0000ff;stroke:#0000ff;" x="278.530169" xlink:href="#m845b508177" y="159.168323"/>
     <use style="fill:#0000ff;stroke:#0000ff;" x="284.162503" xlink:href="#m845b508177" y="191.613299"/>
     <use style="fill:#0000ff;stroke:#0000ff;" x="289.794837" xlink:href="#m845b508177" y="192.49019"/>
     <use style="fill:#0000ff;stroke:#0000ff;" x="295.427171" xlink:href="#m845b508177" y="196.874647"/>
     <use style="fill:#0000ff;stroke:#0000ff;" x="301.059505" xlink:href="#m845b508177" y="199.50532"/>
     <use style="fill:#0000ff;stroke:#0000ff;" x="306.691838" xlink:href="#m845b508177" y="211.781798"/>
     <use style="fill:#0000ff;stroke:#0000ff;" x="312.324172" xlink:href="#m845b508177" y="225.812058"/>
     <use style="fill:#0000ff;stroke:#0000ff;" x="317.956506" xlink:href="#m845b508177" y="225.812058"/>
     <use style="fill:#0000ff;stroke:#0000ff;" x="323.58884" xlink:href="#m845b508177" y="245.980557"/>
     <use style="fill:#0000ff;stroke:#0000ff;" x="329.221173" xlink:href="#m845b508177" y="254.74947"/>
     <use style="fill:#0000ff;stroke:#0000ff;" x="334.853507" xlink:href="#m845b508177" y="258.257035"/>
     <use style="fill:#0000ff;stroke:#0000ff;" x="340.485841" xlink:href="#m845b508177" y="258.257035"/>
     <use style="fill:#0000ff;stroke:#0000ff;" x="346.118175" xlink:href="#m845b508177" y="264.395274"/>
     <use style="fill:#0000ff;stroke:#0000ff;" x="351.750508" xlink:href="#m845b508177" y="274.041077"/>
     <use style="fill:#0000ff;stroke:#0000ff;" x="357.382842" xlink:href="#m845b508177" y="277.548642"/>
     <use style="fill:#0000ff;stroke:#0000ff;" x="363.015176" xlink:href="#m845b508177" y="281.933099"/>
     <use style="fill:#0000ff;stroke:#0000ff;" x="368.64751" xlink:href="#m845b508177" y="292.455794"/>
     <use style="fill:#0000ff;stroke:#0000ff;" x="374.279844" xlink:href="#m845b508177" y="290.702011"/>
     <use style="fill:#0000ff;stroke:#0000ff;" x="379.912177" xlink:href="#m845b508177" y="293.332685"/>
     <use style="fill:#0000ff;stroke:#0000ff;" x="385.544511" xlink:href="#m845b508177" y="297.717141"/>
     <use style="fill:#0000ff;stroke:#0000ff;" x="391.176845" xlink:href="#m845b508177" y="300.347815"/>
     <use style="fill:#0000ff;stroke:#0000ff;" x="396.809179" xlink:href="#m845b508177" y="304.732271"/>
     <use style="fill:#0000ff;stroke:#0000ff;" x="402.441512" xlink:href="#m845b508177" y="296.84025"/>
     <use style="fill:#0000ff;stroke:#0000ff;" x="408.073846" xlink:href="#m845b508177" y="303.85538"/>
    </g>
   </g>
   <g id="patch_8">
    <path d="M 69.12 311.04 
L 69.12 103.68 
" style="fill:none;stroke:#000000;stroke-linecap:square;stroke-linejoin:miter;stroke-width:0.8;"/>
   </g>
   <g id="patch_9">
    <path d="M 414.72 311.04 
L 414.72 103.68 
" style="fill:none;stroke:#000000;stroke-linecap:square;stroke-linejoin:miter;stroke-width:0.8;"/>
   </g>
   <g id="patch_10">
    <path d="M 69.12 311.04 
L 414.72 311.04 
" style="fill:none;stroke:#000000;stroke-linecap:square;stroke-linejoin:miter;stroke-width:0.8;"/>
   </g>
   <g id="patch_11">
    <path d="M 69.12 103.68 
L 414.72 103.68 
" style="fill:none;stroke:#000000;stroke-linecap:square;stroke-linejoin:miter;stroke-width:0.8;"/>
   </g>
  </g>
 </g>
 <defs>
  <clipPath id="p5cee60afe1">
   <rect height="51.84" width="345.6" x="69.12" y="44.928"/>
  </clipPath>
  <clipPath id="pbf63506c99">
   <rect height="207.36" width="345.6" x="69.12" y="103.68"/>
  </clipPath>
 </defs>
</svg>
