<?xml version="1.0" encoding="utf-8" standalone="no"?>
<!DOCTYPE svg PUBLIC "-//W3C//DTD SVG 1.1//EN"
  "http://www.w3.org/Graphics/SVG/1.1/DTD/svg11.dtd">
<!-- Created with matplotlib (https://matplotlib.org/) -->
<svg height="345.6pt" version="1.1" viewBox="0 0 460.8 345.6" width="460.8pt" xmlns="http://www.w3.org/2000/svg" xmlns:xlink="http://www.w3.org/1999/xlink">
 <defs>
  <style type="text/css">
*{stroke-linecap:butt;stroke-linejoin:round;}
  </style>
 </defs>
 <g id="figure_1">
  <g id="patch_1">
   <path d="M 0 345.6 
L 460.8 345.6 
L 460.8 0 
L 0 0 
z
" style="fill:#ffffff;"/>
  </g>
  <g id="axes_1">
   <g id="patch_2">
    <path d="M 69.12 96.768 
L 414.72 96.768 
L 414.72 44.928 
L 69.12 44.928 
z
" style="fill:#ffffff;"/>
   </g>
   <g id="matplotlib.axis_1">
    <g id="xtick_1">
     <g id="line2d_1">
      <defs>
       <path d="M 0 0 
L 0 3.5 
" id="mf29bd5549b" style="stroke:#000000;stroke-width:0.8;"/>
      </defs>
      <g>
       <use style="stroke:#000000;stroke-width:0.8;" x="75.766154" xlink:href="#mf29bd5549b" y="96.768"/>
      </g>
     </g>
    </g>
    <g id="xtick_2">
     <g id="line2d_2">
      <g>
       <use style="stroke:#000000;stroke-width:0.8;" x="117.830419" xlink:href="#mf29bd5549b" y="96.768"/>
      </g>
     </g>
    </g>
    <g id="xtick_3">
     <g id="line2d_3">
      <g>
       <use style="stroke:#000000;stroke-width:0.8;" x="159.894684" xlink:href="#mf29bd5549b" y="96.768"/>
      </g>
     </g>
    </g>
    <g id="xtick_4">
     <g id="line2d_4">
      <g>
       <use style="stroke:#000000;stroke-width:0.8;" x="201.958948" xlink:href="#mf29bd5549b" y="96.768"/>
      </g>
     </g>
    </g>
    <g id="xtick_5">
     <g id="line2d_5">
      <g>
       <use style="stroke:#000000;stroke-width:0.8;" x="244.023213" xlink:href="#mf29bd5549b" y="96.768"/>
      </g>
     </g>
    </g>
    <g id="xtick_6">
     <g id="line2d_6">
      <g>
       <use style="stroke:#000000;stroke-width:0.8;" x="286.087478" xlink:href="#mf29bd5549b" y="96.768"/>
      </g>
     </g>
    </g>
    <g id="xtick_7">
     <g id="line2d_7">
      <g>
       <use style="stroke:#000000;stroke-width:0.8;" x="328.151743" xlink:href="#mf29bd5549b" y="96.768"/>
      </g>
     </g>
    </g>
    <g id="xtick_8">
     <g id="line2d_8">
      <g>
       <use style="stroke:#000000;stroke-width:0.8;" x="370.216008" xlink:href="#mf29bd5549b" y="96.768"/>
      </g>
     </g>
    </g>
    <g id="xtick_9">
     <g id="line2d_9">
      <g>
       <use style="stroke:#000000;stroke-width:0.8;" x="412.280273" xlink:href="#mf29bd5549b" y="96.768"/>
      </g>
     </g>
    </g>
   </g>
   <g id="matplotlib.axis_2">
    <g id="ytick_1">
     <g id="line2d_10">
      <defs>
       <path d="M 0 0 
L -3.5 0 
" id="m9233f7e9fc" style="stroke:#000000;stroke-width:0.8;"/>
      </defs>
      <g>
       <use style="stroke:#000000;stroke-width:0.8;" x="69.12" xlink:href="#m9233f7e9fc" y="92.193849"/>
      </g>
     </g>
     <g id="text_1">
      <!-- −2.5 -->
      <defs>
       <path d="M 10.59375 35.5 
L 73.1875 35.5 
L 73.1875 27.203125 
L 10.59375 27.203125 
z
" id="DejaVuSans-8722"/>
       <path d="M 19.1875 8.296875 
L 53.609375 8.296875 
L 53.609375 0 
L 7.328125 0 
L 7.328125 8.296875 
Q 12.9375 14.109375 22.625 23.890625 
Q 32.328125 33.6875 34.8125 36.53125 
Q 39.546875 41.84375 41.421875 45.53125 
Q 43.3125 49.21875 43.3125 52.78125 
Q 43.3125 58.59375 39.234375 62.25 
Q 35.15625 65.921875 28.609375 65.921875 
Q 23.96875 65.921875 18.8125 64.3125 
Q 13.671875 62.703125 7.8125 59.421875 
L 7.8125 69.390625 
Q 13.765625 71.78125 18.9375 73 
Q 24.125 74.21875 28.421875 74.21875 
Q 39.75 74.21875 46.484375 68.546875 
Q 53.21875 62.890625 53.21875 53.421875 
Q 53.21875 48.921875 51.53125 44.890625 
Q 49.859375 40.875 45.40625 35.40625 
Q 44.1875 33.984375 37.640625 27.21875 
Q 31.109375 20.453125 19.1875 8.296875 
z
" id="DejaVuSans-50"/>
       <path d="M 10.6875 12.40625 
L 21 12.40625 
L 21 0 
L 10.6875 0 
z
" id="DejaVuSans-46"/>
       <path d="M 10.796875 72.90625 
L 49.515625 72.90625 
L 49.515625 64.59375 
L 19.828125 64.59375 
L 19.828125 46.734375 
Q 21.96875 47.46875 24.109375 47.828125 
Q 26.265625 48.1875 28.421875 48.1875 
Q 40.625 48.1875 47.75 41.5 
Q 54.890625 34.8125 54.890625 23.390625 
Q 54.890625 11.625 47.5625 5.09375 
Q 40.234375 -1.421875 26.90625 -1.421875 
Q 22.3125 -1.421875 17.546875 -0.640625 
Q 12.796875 0.140625 7.71875 1.703125 
L 7.71875 11.625 
Q 12.109375 9.234375 16.796875 8.0625 
Q 21.484375 6.890625 26.703125 6.890625 
Q 35.15625 6.890625 40.078125 11.328125 
Q 45.015625 15.765625 45.015625 23.390625 
Q 45.015625 31 40.078125 35.4375 
Q 35.15625 39.890625 26.703125 39.890625 
Q 22.75 39.890625 18.8125 39.015625 
Q 14.890625 38.140625 10.796875 36.28125 
z
" id="DejaVuSans-53"/>
      </defs>
      <g transform="translate(37.837187 95.993068)scale(0.1 -0.1)">
       <use xlink:href="#DejaVuSans-8722"/>
       <use x="83.789062" xlink:href="#DejaVuSans-50"/>
       <use x="147.412109" xlink:href="#DejaVuSans-46"/>
       <use x="179.199219" xlink:href="#DejaVuSans-53"/>
      </g>
     </g>
    </g>
    <g id="ytick_2">
     <g id="line2d_11">
      <g>
       <use style="stroke:#000000;stroke-width:0.8;" x="69.12" xlink:href="#m9233f7e9fc" y="75.479977"/>
      </g>
     </g>
    </g>
    <g id="ytick_3">
     <g id="line2d_12">
      <g>
       <use style="stroke:#000000;stroke-width:0.8;" x="69.12" xlink:href="#m9233f7e9fc" y="58.766105"/>
      </g>
     </g>
     <g id="text_2">
      <!-- 2.5 -->
      <g transform="translate(46.216875 62.565323)scale(0.1 -0.1)">
       <use xlink:href="#DejaVuSans-50"/>
       <use x="63.623047" xlink:href="#DejaVuSans-46"/>
       <use x="95.410156" xlink:href="#DejaVuSans-53"/>
      </g>
     </g>
    </g>
    <g id="text_3">
     <!-- Studentized -->
     <defs>
      <path d="M 53.515625 70.515625 
L 53.515625 60.890625 
Q 47.90625 63.578125 42.921875 64.890625 
Q 37.9375 66.21875 33.296875 66.21875 
Q 25.25 66.21875 20.875 63.09375 
Q 16.5 59.96875 16.5 54.203125 
Q 16.5 49.359375 19.40625 46.890625 
Q 22.3125 44.4375 30.421875 42.921875 
L 36.375 41.703125 
Q 47.40625 39.59375 52.65625 34.296875 
Q 57.90625 29 57.90625 20.125 
Q 57.90625 9.515625 50.796875 4.046875 
Q 43.703125 -1.421875 29.984375 -1.421875 
Q 24.8125 -1.421875 18.96875 -0.25 
Q 13.140625 0.921875 6.890625 3.21875 
L 6.890625 13.375 
Q 12.890625 10.015625 18.65625 8.296875 
Q 24.421875 6.59375 29.984375 6.59375 
Q 38.421875 6.59375 43.015625 9.90625 
Q 47.609375 13.234375 47.609375 19.390625 
Q 47.609375 24.75 44.3125 27.78125 
Q 41.015625 30.8125 33.5 32.328125 
L 27.484375 33.5 
Q 16.453125 35.6875 11.515625 40.375 
Q 6.59375 45.0625 6.59375 53.421875 
Q 6.59375 63.09375 13.40625 68.65625 
Q 20.21875 74.21875 32.171875 74.21875 
Q 37.3125 74.21875 42.625 73.28125 
Q 47.953125 72.359375 53.515625 70.515625 
z
" id="DejaVuSans-83"/>
      <path d="M 18.3125 70.21875 
L 18.3125 54.6875 
L 36.8125 54.6875 
L 36.8125 47.703125 
L 18.3125 47.703125 
L 18.3125 18.015625 
Q 18.3125 11.328125 20.140625 9.421875 
Q 21.96875 7.515625 27.59375 7.515625 
L 36.8125 7.515625 
L 36.8125 0 
L 27.59375 0 
Q 17.1875 0 13.234375 3.875 
Q 9.28125 7.765625 9.28125 18.015625 
L 9.28125 47.703125 
L 2.6875 47.703125 
L 2.6875 54.6875 
L 9.28125 54.6875 
L 9.28125 70.21875 
z
" id="DejaVuSans-116"/>
      <path d="M 8.5 21.578125 
L 8.5 54.6875 
L 17.484375 54.6875 
L 17.484375 21.921875 
Q 17.484375 14.15625 20.5 10.265625 
Q 23.53125 6.390625 29.59375 6.390625 
Q 36.859375 6.390625 41.078125 11.03125 
Q 45.3125 15.671875 45.3125 23.6875 
L 45.3125 54.6875 
L 54.296875 54.6875 
L 54.296875 0 
L 45.3125 0 
L 45.3125 8.40625 
Q 42.046875 3.421875 37.71875 1 
Q 33.40625 -1.421875 27.6875 -1.421875 
Q 18.265625 -1.421875 13.375 4.4375 
Q 8.5 10.296875 8.5 21.578125 
z
M 31.109375 56 
z
" id="DejaVuSans-117"/>
      <path d="M 45.40625 46.390625 
L 45.40625 75.984375 
L 54.390625 75.984375 
L 54.390625 0 
L 45.40625 0 
L 45.40625 8.203125 
Q 42.578125 3.328125 38.25 0.953125 
Q 33.9375 -1.421875 27.875 -1.421875 
Q 17.96875 -1.421875 11.734375 6.484375 
Q 5.515625 14.40625 5.515625 27.296875 
Q 5.515625 40.1875 11.734375 48.09375 
Q 17.96875 56 27.875 56 
Q 33.9375 56 38.25 53.625 
Q 42.578125 51.265625 45.40625 46.390625 
z
M 14.796875 27.296875 
Q 14.796875 17.390625 18.875 11.75 
Q 22.953125 6.109375 30.078125 6.109375 
Q 37.203125 6.109375 41.296875 11.75 
Q 45.40625 17.390625 45.40625 27.296875 
Q 45.40625 37.203125 41.296875 42.84375 
Q 37.203125 48.484375 30.078125 48.484375 
Q 22.953125 48.484375 18.875 42.84375 
Q 14.796875 37.203125 14.796875 27.296875 
z
" id="DejaVuSans-100"/>
      <path d="M 56.203125 29.59375 
L 56.203125 25.203125 
L 14.890625 25.203125 
Q 15.484375 15.921875 20.484375 11.0625 
Q 25.484375 6.203125 34.421875 6.203125 
Q 39.59375 6.203125 44.453125 7.46875 
Q 49.3125 8.734375 54.109375 11.28125 
L 54.109375 2.78125 
Q 49.265625 0.734375 44.1875 -0.34375 
Q 39.109375 -1.421875 33.890625 -1.421875 
Q 20.796875 -1.421875 13.15625 6.1875 
Q 5.515625 13.8125 5.515625 26.8125 
Q 5.515625 40.234375 12.765625 48.109375 
Q 20.015625 56 32.328125 56 
Q 43.359375 56 49.78125 48.890625 
Q 56.203125 41.796875 56.203125 29.59375 
z
M 47.21875 32.234375 
Q 47.125 39.59375 43.09375 43.984375 
Q 39.0625 48.390625 32.421875 48.390625 
Q 24.90625 48.390625 20.390625 44.140625 
Q 15.875 39.890625 15.1875 32.171875 
z
" id="DejaVuSans-101"/>
      <path d="M 54.890625 33.015625 
L 54.890625 0 
L 45.90625 0 
L 45.90625 32.71875 
Q 45.90625 40.484375 42.875 44.328125 
Q 39.84375 48.1875 33.796875 48.1875 
Q 26.515625 48.1875 22.3125 43.546875 
Q 18.109375 38.921875 18.109375 30.90625 
L 18.109375 0 
L 9.078125 0 
L 9.078125 54.6875 
L 18.109375 54.6875 
L 18.109375 46.1875 
Q 21.34375 51.125 25.703125 53.5625 
Q 30.078125 56 35.796875 56 
Q 45.21875 56 50.046875 50.171875 
Q 54.890625 44.34375 54.890625 33.015625 
z
" id="DejaVuSans-110"/>
      <path d="M 9.421875 54.6875 
L 18.40625 54.6875 
L 18.40625 0 
L 9.421875 0 
z
M 9.421875 75.984375 
L 18.40625 75.984375 
L 18.40625 64.59375 
L 9.421875 64.59375 
z
" id="DejaVuSans-105"/>
      <path d="M 5.515625 54.6875 
L 48.1875 54.6875 
L 48.1875 46.484375 
L 14.40625 7.171875 
L 48.1875 7.171875 
L 48.1875 0 
L 4.296875 0 
L 4.296875 8.203125 
L 38.09375 47.515625 
L 5.515625 47.515625 
z
" id="DejaVuSans-122"/>
     </defs>
     <g transform="translate(20.559687 100.794875)rotate(-90)scale(0.1 -0.1)">
      <use xlink:href="#DejaVuSans-83"/>
      <use x="63.476562" xlink:href="#DejaVuSans-116"/>
      <use x="102.685547" xlink:href="#DejaVuSans-117"/>
      <use x="166.064453" xlink:href="#DejaVuSans-100"/>
      <use x="229.541016" xlink:href="#DejaVuSans-101"/>
      <use x="291.064453" xlink:href="#DejaVuSans-110"/>
      <use x="354.443359" xlink:href="#DejaVuSans-116"/>
      <use x="393.652344" xlink:href="#DejaVuSans-105"/>
      <use x="421.435547" xlink:href="#DejaVuSans-122"/>
      <use x="473.925781" xlink:href="#DejaVuSans-101"/>
      <use x="535.449219" xlink:href="#DejaVuSans-100"/>
     </g>
     <!-- Residuals -->
     <defs>
      <path d="M 44.390625 34.1875 
Q 47.5625 33.109375 50.5625 29.59375 
Q 53.5625 26.078125 56.59375 19.921875 
L 66.609375 0 
L 56 0 
L 46.6875 18.703125 
Q 43.0625 26.03125 39.671875 28.421875 
Q 36.28125 30.8125 30.421875 30.8125 
L 19.671875 30.8125 
L 19.671875 0 
L 9.8125 0 
L 9.8125 72.90625 
L 32.078125 72.90625 
Q 44.578125 72.90625 50.734375 67.671875 
Q 56.890625 62.453125 56.890625 51.90625 
Q 56.890625 45.015625 53.6875 40.46875 
Q 50.484375 35.9375 44.390625 34.1875 
z
M 19.671875 64.796875 
L 19.671875 38.921875 
L 32.078125 38.921875 
Q 39.203125 38.921875 42.84375 42.21875 
Q 46.484375 45.515625 46.484375 51.90625 
Q 46.484375 58.296875 42.84375 61.546875 
Q 39.203125 64.796875 32.078125 64.796875 
z
" id="DejaVuSans-82"/>
      <path d="M 44.28125 53.078125 
L 44.28125 44.578125 
Q 40.484375 46.53125 36.375 47.5 
Q 32.28125 48.484375 27.875 48.484375 
Q 21.1875 48.484375 17.84375 46.4375 
Q 14.5 44.390625 14.5 40.28125 
Q 14.5 37.15625 16.890625 35.375 
Q 19.28125 33.59375 26.515625 31.984375 
L 29.59375 31.296875 
Q 39.15625 29.25 43.1875 25.515625 
Q 47.21875 21.78125 47.21875 15.09375 
Q 47.21875 7.46875 41.1875 3.015625 
Q 35.15625 -1.421875 24.609375 -1.421875 
Q 20.21875 -1.421875 15.453125 -0.5625 
Q 10.6875 0.296875 5.421875 2 
L 5.421875 11.28125 
Q 10.40625 8.6875 15.234375 7.390625 
Q 20.0625 6.109375 24.8125 6.109375 
Q 31.15625 6.109375 34.5625 8.28125 
Q 37.984375 10.453125 37.984375 14.40625 
Q 37.984375 18.0625 35.515625 20.015625 
Q 33.0625 21.96875 24.703125 23.78125 
L 21.578125 24.515625 
Q 13.234375 26.265625 9.515625 29.90625 
Q 5.8125 33.546875 5.8125 39.890625 
Q 5.8125 47.609375 11.28125 51.796875 
Q 16.75 56 26.8125 56 
Q 31.78125 56 36.171875 55.265625 
Q 40.578125 54.546875 44.28125 53.078125 
z
" id="DejaVuSans-115"/>
      <path d="M 34.28125 27.484375 
Q 23.390625 27.484375 19.1875 25 
Q 14.984375 22.515625 14.984375 16.5 
Q 14.984375 11.71875 18.140625 8.90625 
Q 21.296875 6.109375 26.703125 6.109375 
Q 34.1875 6.109375 38.703125 11.40625 
Q 43.21875 16.703125 43.21875 25.484375 
L 43.21875 27.484375 
z
M 52.203125 31.203125 
L 52.203125 0 
L 43.21875 0 
L 43.21875 8.296875 
Q 40.140625 3.328125 35.546875 0.953125 
Q 30.953125 -1.421875 24.3125 -1.421875 
Q 15.921875 -1.421875 10.953125 3.296875 
Q 6 8.015625 6 15.921875 
Q 6 25.140625 12.171875 29.828125 
Q 18.359375 34.515625 30.609375 34.515625 
L 43.21875 34.515625 
L 43.21875 35.40625 
Q 43.21875 41.609375 39.140625 45 
Q 35.0625 48.390625 27.6875 48.390625 
Q 23 48.390625 18.546875 47.265625 
Q 14.109375 46.140625 10.015625 43.890625 
L 10.015625 52.203125 
Q 14.9375 54.109375 19.578125 55.046875 
Q 24.21875 56 28.609375 56 
Q 40.484375 56 46.34375 49.84375 
Q 52.203125 43.703125 52.203125 31.203125 
z
" id="DejaVuSans-97"/>
      <path d="M 9.421875 75.984375 
L 18.40625 75.984375 
L 18.40625 0 
L 9.421875 0 
z
" id="DejaVuSans-108"/>
     </defs>
     <g transform="translate(31.7575 94.790188)rotate(-90)scale(0.1 -0.1)">
      <use xlink:href="#DejaVuSans-82"/>
      <use x="69.419922" xlink:href="#DejaVuSans-101"/>
      <use x="130.943359" xlink:href="#DejaVuSans-115"/>
      <use x="183.042969" xlink:href="#DejaVuSans-105"/>
      <use x="210.826172" xlink:href="#DejaVuSans-100"/>
      <use x="274.302734" xlink:href="#DejaVuSans-117"/>
      <use x="337.681641" xlink:href="#DejaVuSans-97"/>
      <use x="398.960938" xlink:href="#DejaVuSans-108"/>
      <use x="426.744141" xlink:href="#DejaVuSans-115"/>
     </g>
    </g>
   </g>
   <g id="LineCollection_1">
    <path clip-path="url(#pc3e25267a0)" d="M 75.766154 65.653179 
L 75.766154 52.282081 
" style="fill:none;stroke:#0000ff;stroke-width:1.5;"/>
    <path clip-path="url(#pc3e25267a0)" d="M 79.97258 72.860143 
L 79.97258 59.489045 
" style="fill:none;stroke:#0000ff;stroke-width:1.5;"/>
    <path clip-path="url(#pc3e25267a0)" d="M 84.179007 80.025905 
L 84.179007 66.654807 
" style="fill:none;stroke:#0000ff;stroke-width:1.5;"/>
    <path clip-path="url(#pc3e25267a0)" d="M 88.385433 60.655462 
L 88.385433 47.284364 
" style="fill:none;stroke:#0000ff;stroke-width:1.5;"/>
    <path clip-path="url(#pc3e25267a0)" d="M 92.59186 83.290067 
L 92.59186 69.918969 
" style="fill:none;stroke:#0000ff;stroke-width:1.5;"/>
    <path clip-path="url(#pc3e25267a0)" d="M 96.798286 86.252877 
L 96.798286 72.88178 
" style="fill:none;stroke:#0000ff;stroke-width:1.5;"/>
    <path clip-path="url(#pc3e25267a0)" d="M 101.004713 80.801253 
L 101.004713 67.430155 
" style="fill:none;stroke:#0000ff;stroke-width:1.5;"/>
    <path clip-path="url(#pc3e25267a0)" d="M 105.211139 86.453687 
L 105.211139 73.082589 
" style="fill:none;stroke:#0000ff;stroke-width:1.5;"/>
    <path clip-path="url(#pc3e25267a0)" d="M 109.417566 73.739436 
L 109.417566 60.368338 
" style="fill:none;stroke:#0000ff;stroke-width:1.5;"/>
    <path clip-path="url(#pc3e25267a0)" d="M 113.623992 87.935761 
L 113.623992 74.564663 
" style="fill:none;stroke:#0000ff;stroke-width:1.5;"/>
    <path clip-path="url(#pc3e25267a0)" d="M 117.830419 80.50223 
L 117.830419 67.131132 
" style="fill:none;stroke:#0000ff;stroke-width:1.5;"/>
    <path clip-path="url(#pc3e25267a0)" d="M 122.036845 78.649752 
L 122.036845 65.278654 
" style="fill:none;stroke:#0000ff;stroke-width:1.5;"/>
    <path clip-path="url(#pc3e25267a0)" d="M 126.243272 89.745487 
L 126.243272 76.374389 
" style="fill:none;stroke:#0000ff;stroke-width:1.5;"/>
    <path clip-path="url(#pc3e25267a0)" d="M 130.449698 88.914129 
L 130.449698 75.543031 
" style="fill:none;stroke:#0000ff;stroke-width:1.5;"/>
    <path clip-path="url(#pc3e25267a0)" d="M 134.656125 82.779073 
L 134.656125 69.407975 
" style="fill:none;stroke:#0000ff;stroke-width:1.5;"/>
    <path clip-path="url(#pc3e25267a0)" d="M 138.862551 83.019317 
L 138.862551 69.648219 
" style="fill:none;stroke:#0000ff;stroke-width:1.5;"/>
    <path clip-path="url(#pc3e25267a0)" d="M 143.068978 79.503727 
L 143.068978 66.132629 
" style="fill:none;stroke:#0000ff;stroke-width:1.5;"/>
    <path clip-path="url(#pc3e25267a0)" d="M 147.275404 92.630975 
L 147.275404 79.259877 
" style="fill:none;stroke:#0000ff;stroke-width:1.5;"/>
    <path clip-path="url(#pc3e25267a0)" d="M 151.481831 88.562137 
L 151.481831 75.191039 
" style="fill:none;stroke:#0000ff;stroke-width:1.5;"/>
    <path clip-path="url(#pc3e25267a0)" d="M 155.688257 90.153474 
L 155.688257 76.782376 
" style="fill:none;stroke:#0000ff;stroke-width:1.5;"/>
    <path clip-path="url(#pc3e25267a0)" d="M 159.894684 88.716423 
L 159.894684 75.345325 
" style="fill:none;stroke:#0000ff;stroke-width:1.5;"/>
    <path clip-path="url(#pc3e25267a0)" d="M 164.10111 81.43725 
L 164.10111 68.066152 
" style="fill:none;stroke:#0000ff;stroke-width:1.5;"/>
    <path clip-path="url(#pc3e25267a0)" d="M 168.307537 77.046689 
L 168.307537 63.675591 
" style="fill:none;stroke:#0000ff;stroke-width:1.5;"/>
    <path clip-path="url(#pc3e25267a0)" d="M 172.513963 80.460204 
L 172.513963 67.089106 
" style="fill:none;stroke:#0000ff;stroke-width:1.5;"/>
    <path clip-path="url(#pc3e25267a0)" d="M 176.720389 86.675327 
L 176.720389 73.304229 
" style="fill:none;stroke:#0000ff;stroke-width:1.5;"/>
    <path clip-path="url(#pc3e25267a0)" d="M 180.926816 81.050014 
L 180.926816 67.678916 
" style="fill:none;stroke:#0000ff;stroke-width:1.5;"/>
    <path clip-path="url(#pc3e25267a0)" d="M 185.133242 89.667304 
L 185.133242 76.296207 
" style="fill:none;stroke:#0000ff;stroke-width:1.5;"/>
    <path clip-path="url(#pc3e25267a0)" d="M 189.339669 71.90434 
L 189.339669 58.533242 
" style="fill:none;stroke:#0000ff;stroke-width:1.5;"/>
    <path clip-path="url(#pc3e25267a0)" d="M 193.546095 92.736529 
L 193.546095 79.365431 
" style="fill:none;stroke:#0000ff;stroke-width:1.5;"/>
    <path clip-path="url(#pc3e25267a0)" d="M 197.752522 83.966466 
L 197.752522 70.595368 
" style="fill:none;stroke:#0000ff;stroke-width:1.5;"/>
    <path clip-path="url(#pc3e25267a0)" d="M 201.958948 86.381717 
L 201.958948 73.010619 
" style="fill:none;stroke:#0000ff;stroke-width:1.5;"/>
    <path clip-path="url(#pc3e25267a0)" d="M 206.165375 83.745119 
L 206.165375 70.374021 
" style="fill:none;stroke:#0000ff;stroke-width:1.5;"/>
    <path clip-path="url(#pc3e25267a0)" d="M 210.371801 84.064007 
L 210.371801 70.692909 
" style="fill:none;stroke:#0000ff;stroke-width:1.5;"/>
    <path clip-path="url(#pc3e25267a0)" d="M 214.578228 87.242219 
L 214.578228 73.871121 
" style="fill:none;stroke:#0000ff;stroke-width:1.5;"/>
    <path clip-path="url(#pc3e25267a0)" d="M 218.784654 75.681177 
L 218.784654 62.310079 
" style="fill:none;stroke:#0000ff;stroke-width:1.5;"/>
    <path clip-path="url(#pc3e25267a0)" d="M 222.991081 78.857201 
L 222.991081 65.486104 
" style="fill:none;stroke:#0000ff;stroke-width:1.5;"/>
    <path clip-path="url(#pc3e25267a0)" d="M 227.197507 75.176278 
L 227.197507 61.80518 
" style="fill:none;stroke:#0000ff;stroke-width:1.5;"/>
    <path clip-path="url(#pc3e25267a0)" d="M 231.403934 80.016795 
L 231.403934 66.645697 
" style="fill:none;stroke:#0000ff;stroke-width:1.5;"/>
    <path clip-path="url(#pc3e25267a0)" d="M 235.61036 77.189624 
L 235.61036 63.818526 
" style="fill:none;stroke:#0000ff;stroke-width:1.5;"/>
    <path clip-path="url(#pc3e25267a0)" d="M 239.816787 70.93092 
L 239.816787 57.559822 
" style="fill:none;stroke:#0000ff;stroke-width:1.5;"/>
    <path clip-path="url(#pc3e25267a0)" d="M 244.023213 77.125056 
L 244.023213 63.753958 
" style="fill:none;stroke:#0000ff;stroke-width:1.5;"/>
    <path clip-path="url(#pc3e25267a0)" d="M 248.22964 81.504117 
L 248.22964 68.133019 
" style="fill:none;stroke:#0000ff;stroke-width:1.5;"/>
    <path clip-path="url(#pc3e25267a0)" d="M 252.436066 80.342957 
L 252.436066 66.971859 
" style="fill:none;stroke:#0000ff;stroke-width:1.5;"/>
    <path clip-path="url(#pc3e25267a0)" d="M 256.642493 87.139373 
L 256.642493 73.768276 
" style="fill:none;stroke:#0000ff;stroke-width:1.5;"/>
    <path clip-path="url(#pc3e25267a0)" d="M 260.848919 91.507418 
L 260.848919 78.13632 
" style="fill:none;stroke:#0000ff;stroke-width:1.5;"/>
    <path clip-path="url(#pc3e25267a0)" d="M 265.055346 81.397708 
L 265.055346 68.02661 
" style="fill:none;stroke:#0000ff;stroke-width:1.5;"/>
    <path clip-path="url(#pc3e25267a0)" d="M 269.261772 84.298991 
L 269.261772 70.927893 
" style="fill:none;stroke:#0000ff;stroke-width:1.5;"/>
    <path clip-path="url(#pc3e25267a0)" d="M 273.468199 83.751078 
L 273.468199 70.37998 
" style="fill:none;stroke:#0000ff;stroke-width:1.5;"/>
    <path clip-path="url(#pc3e25267a0)" d="M 277.674625 75.003387 
L 277.674625 61.632289 
" style="fill:none;stroke:#0000ff;stroke-width:1.5;"/>
    <path clip-path="url(#pc3e25267a0)" d="M 281.881052 73.479962 
L 281.881052 60.108865 
" style="fill:none;stroke:#0000ff;stroke-width:1.5;"/>
    <path clip-path="url(#pc3e25267a0)" d="M 286.087478 81.521544 
L 286.087478 68.150446 
" style="fill:none;stroke:#0000ff;stroke-width:1.5;"/>
    <path clip-path="url(#pc3e25267a0)" d="M 290.293905 77.641885 
L 290.293905 64.270787 
" style="fill:none;stroke:#0000ff;stroke-width:1.5;"/>
    <path clip-path="url(#pc3e25267a0)" d="M 294.500331 83.481281 
L 294.500331 70.110183 
" style="fill:none;stroke:#0000ff;stroke-width:1.5;"/>
    <path clip-path="url(#pc3e25267a0)" d="M 298.706758 76.894434 
L 298.706758 63.523336 
" style="fill:none;stroke:#0000ff;stroke-width:1.5;"/>
    <path clip-path="url(#pc3e25267a0)" d="M 302.913184 94.411636 
L 302.913184 81.040538 
" style="fill:none;stroke:#0000ff;stroke-width:1.5;"/>
    <path clip-path="url(#pc3e25267a0)" d="M 307.119611 78.301405 
L 307.119611 64.930307 
" style="fill:none;stroke:#0000ff;stroke-width:1.5;"/>
    <path clip-path="url(#pc3e25267a0)" d="M 311.326037 87.053796 
L 311.326037 73.682698 
" style="fill:none;stroke:#0000ff;stroke-width:1.5;"/>
    <path clip-path="url(#pc3e25267a0)" d="M 315.532463 82.439394 
L 315.532463 69.068296 
" style="fill:none;stroke:#0000ff;stroke-width:1.5;"/>
    <path clip-path="url(#pc3e25267a0)" d="M 319.73889 77.370394 
L 319.73889 63.999296 
" style="fill:none;stroke:#0000ff;stroke-width:1.5;"/>
    <path clip-path="url(#pc3e25267a0)" d="M 323.945316 70.6288 
L 323.945316 57.257702 
" style="fill:none;stroke:#0000ff;stroke-width:1.5;"/>
    <path clip-path="url(#pc3e25267a0)" d="M 328.151743 81.538637 
L 328.151743 68.167539 
" style="fill:none;stroke:#0000ff;stroke-width:1.5;"/>
    <path clip-path="url(#pc3e25267a0)" d="M 332.358169 78.092945 
L 332.358169 64.721847 
" style="fill:none;stroke:#0000ff;stroke-width:1.5;"/>
    <path clip-path="url(#pc3e25267a0)" d="M 336.564596 85.127616 
L 336.564596 71.756519 
" style="fill:none;stroke:#0000ff;stroke-width:1.5;"/>
    <path clip-path="url(#pc3e25267a0)" d="M 340.771022 82.710697 
L 340.771022 69.339599 
" style="fill:none;stroke:#0000ff;stroke-width:1.5;"/>
    <path clip-path="url(#pc3e25267a0)" d="M 344.977449 88.274787 
L 344.977449 74.903689 
" style="fill:none;stroke:#0000ff;stroke-width:1.5;"/>
    <path clip-path="url(#pc3e25267a0)" d="M 349.183875 74.079837 
L 349.183875 60.708739 
" style="fill:none;stroke:#0000ff;stroke-width:1.5;"/>
    <path clip-path="url(#pc3e25267a0)" d="M 353.390302 90.672628 
L 353.390302 77.30153 
" style="fill:none;stroke:#0000ff;stroke-width:1.5;"/>
    <path clip-path="url(#pc3e25267a0)" d="M 357.596728 85.420519 
L 357.596728 72.049422 
" style="fill:none;stroke:#0000ff;stroke-width:1.5;"/>
    <path clip-path="url(#pc3e25267a0)" d="M 361.803155 86.591278 
L 361.803155 73.22018 
" style="fill:none;stroke:#0000ff;stroke-width:1.5;"/>
    <path clip-path="url(#pc3e25267a0)" d="M 366.009581 90.596349 
L 366.009581 77.225252 
" style="fill:none;stroke:#0000ff;stroke-width:1.5;"/>
    <path clip-path="url(#pc3e25267a0)" d="M 370.216008 78.812777 
L 370.216008 65.441679 
" style="fill:none;stroke:#0000ff;stroke-width:1.5;"/>
    <path clip-path="url(#pc3e25267a0)" d="M 374.422434 82.546913 
L 374.422434 69.175815 
" style="fill:none;stroke:#0000ff;stroke-width:1.5;"/>
    <path clip-path="url(#pc3e25267a0)" d="M 378.628861 78.275997 
L 378.628861 64.904899 
" style="fill:none;stroke:#0000ff;stroke-width:1.5;"/>
    <path clip-path="url(#pc3e25267a0)" d="M 382.835287 91.474686 
L 382.835287 78.103588 
" style="fill:none;stroke:#0000ff;stroke-width:1.5;"/>
    <path clip-path="url(#pc3e25267a0)" d="M 387.041714 81.157592 
L 387.041714 67.786494 
" style="fill:none;stroke:#0000ff;stroke-width:1.5;"/>
    <path clip-path="url(#pc3e25267a0)" d="M 391.24814 73.670141 
L 391.24814 60.299044 
" style="fill:none;stroke:#0000ff;stroke-width:1.5;"/>
    <path clip-path="url(#pc3e25267a0)" d="M 395.454567 89.622909 
L 395.454567 76.251812 
" style="fill:none;stroke:#0000ff;stroke-width:1.5;"/>
    <path clip-path="url(#pc3e25267a0)" d="M 399.660993 78.651338 
L 399.660993 65.280241 
" style="fill:none;stroke:#0000ff;stroke-width:1.5;"/>
    <path clip-path="url(#pc3e25267a0)" d="M 403.86742 84.654115 
L 403.86742 71.283017 
" style="fill:none;stroke:#0000ff;stroke-width:1.5;"/>
    <path clip-path="url(#pc3e25267a0)" d="M 408.073846 79.175038 
L 408.073846 65.803941 
" style="fill:none;stroke:#0000ff;stroke-width:1.5;"/>
   </g>
   <g id="line2d_13">
    <path clip-path="url(#pc3e25267a0)" d="M 75.766154 75.479977 
L 408.073846 75.479977 
" style="fill:none;stroke:#ff0000;stroke-linecap:square;stroke-width:1.5;"/>
   </g>
   <g id="line2d_14">
    <defs>
     <path d="M 0 3 
C 0.795609 3 1.55874 2.683901 2.12132 2.12132 
C 2.683901 1.55874 3 0.795609 3 0 
C 3 -0.795609 2.683901 -1.55874 2.12132 -2.12132 
C 1.55874 -2.683901 0.795609 -3 0 -3 
C -0.795609 -3 -1.55874 -2.683901 -2.12132 -2.12132 
C -2.683901 -1.55874 -3 -0.795609 -3 0 
C -3 0.795609 -2.683901 1.55874 -2.12132 2.12132 
C -1.55874 2.683901 -0.795609 3 0 3 
z
" id="m8ee6662336" style="stroke:#0000ff;"/>
    </defs>
    <g clip-path="url(#pc3e25267a0)">
     <use style="fill:#0000ff;stroke:#0000ff;" x="75.766154" xlink:href="#m8ee6662336" y="58.96763"/>
     <use style="fill:#0000ff;stroke:#0000ff;" x="79.97258" xlink:href="#m8ee6662336" y="66.174594"/>
     <use style="fill:#0000ff;stroke:#0000ff;" x="84.179007" xlink:href="#m8ee6662336" y="73.340356"/>
     <use style="fill:#0000ff;stroke:#0000ff;" x="88.385433" xlink:href="#m8ee6662336" y="53.969913"/>
     <use style="fill:#0000ff;stroke:#0000ff;" x="92.59186" xlink:href="#m8ee6662336" y="76.604518"/>
     <use style="fill:#0000ff;stroke:#0000ff;" x="96.798286" xlink:href="#m8ee6662336" y="79.567328"/>
     <use style="fill:#0000ff;stroke:#0000ff;" x="101.004713" xlink:href="#m8ee6662336" y="74.115704"/>
     <use style="fill:#0000ff;stroke:#0000ff;" x="105.211139" xlink:href="#m8ee6662336" y="79.768138"/>
     <use style="fill:#0000ff;stroke:#0000ff;" x="109.417566" xlink:href="#m8ee6662336" y="67.053887"/>
     <use style="fill:#0000ff;stroke:#0000ff;" x="113.623992" xlink:href="#m8ee6662336" y="81.250212"/>
     <use style="fill:#0000ff;stroke:#0000ff;" x="117.830419" xlink:href="#m8ee6662336" y="73.816681"/>
     <use style="fill:#0000ff;stroke:#0000ff;" x="122.036845" xlink:href="#m8ee6662336" y="71.964203"/>
     <use style="fill:#0000ff;stroke:#0000ff;" x="126.243272" xlink:href="#m8ee6662336" y="83.059938"/>
     <use style="fill:#0000ff;stroke:#0000ff;" x="130.449698" xlink:href="#m8ee6662336" y="82.22858"/>
     <use style="fill:#0000ff;stroke:#0000ff;" x="134.656125" xlink:href="#m8ee6662336" y="76.093524"/>
     <use style="fill:#0000ff;stroke:#0000ff;" x="138.862551" xlink:href="#m8ee6662336" y="76.333768"/>
     <use style="fill:#0000ff;stroke:#0000ff;" x="143.068978" xlink:href="#m8ee6662336" y="72.818178"/>
     <use style="fill:#0000ff;stroke:#0000ff;" x="147.275404" xlink:href="#m8ee6662336" y="85.945426"/>
     <use style="fill:#0000ff;stroke:#0000ff;" x="151.481831" xlink:href="#m8ee6662336" y="81.876588"/>
     <use style="fill:#0000ff;stroke:#0000ff;" x="155.688257" xlink:href="#m8ee6662336" y="83.467925"/>
     <use style="fill:#0000ff;stroke:#0000ff;" x="159.894684" xlink:href="#m8ee6662336" y="82.030874"/>
     <use style="fill:#0000ff;stroke:#0000ff;" x="164.10111" xlink:href="#m8ee6662336" y="74.751701"/>
     <use style="fill:#0000ff;stroke:#0000ff;" x="168.307537" xlink:href="#m8ee6662336" y="70.36114"/>
     <use style="fill:#0000ff;stroke:#0000ff;" x="172.513963" xlink:href="#m8ee6662336" y="73.774655"/>
     <use style="fill:#0000ff;stroke:#0000ff;" x="176.720389" xlink:href="#m8ee6662336" y="79.989778"/>
     <use style="fill:#0000ff;stroke:#0000ff;" x="180.926816" xlink:href="#m8ee6662336" y="74.364465"/>
     <use style="fill:#0000ff;stroke:#0000ff;" x="185.133242" xlink:href="#m8ee6662336" y="82.981755"/>
     <use style="fill:#0000ff;stroke:#0000ff;" x="189.339669" xlink:href="#m8ee6662336" y="65.218791"/>
     <use style="fill:#0000ff;stroke:#0000ff;" x="193.546095" xlink:href="#m8ee6662336" y="86.05098"/>
     <use style="fill:#0000ff;stroke:#0000ff;" x="197.752522" xlink:href="#m8ee6662336" y="77.280917"/>
     <use style="fill:#0000ff;stroke:#0000ff;" x="201.958948" xlink:href="#m8ee6662336" y="79.696168"/>
     <use style="fill:#0000ff;stroke:#0000ff;" x="206.165375" xlink:href="#m8ee6662336" y="77.05957"/>
     <use style="fill:#0000ff;stroke:#0000ff;" x="210.371801" xlink:href="#m8ee6662336" y="77.378458"/>
     <use style="fill:#0000ff;stroke:#0000ff;" x="214.578228" xlink:href="#m8ee6662336" y="80.55667"/>
     <use style="fill:#0000ff;stroke:#0000ff;" x="218.784654" xlink:href="#m8ee6662336" y="68.995628"/>
     <use style="fill:#0000ff;stroke:#0000ff;" x="222.991081" xlink:href="#m8ee6662336" y="72.171653"/>
     <use style="fill:#0000ff;stroke:#0000ff;" x="227.197507" xlink:href="#m8ee6662336" y="68.490729"/>
     <use style="fill:#0000ff;stroke:#0000ff;" x="231.403934" xlink:href="#m8ee6662336" y="73.331246"/>
     <use style="fill:#0000ff;stroke:#0000ff;" x="235.61036" xlink:href="#m8ee6662336" y="70.504075"/>
     <use style="fill:#0000ff;stroke:#0000ff;" x="239.816787" xlink:href="#m8ee6662336" y="64.245371"/>
     <use style="fill:#0000ff;stroke:#0000ff;" x="244.023213" xlink:href="#m8ee6662336" y="70.439507"/>
     <use style="fill:#0000ff;stroke:#0000ff;" x="248.22964" xlink:href="#m8ee6662336" y="74.818568"/>
     <use style="fill:#0000ff;stroke:#0000ff;" x="252.436066" xlink:href="#m8ee6662336" y="73.657408"/>
     <use style="fill:#0000ff;stroke:#0000ff;" x="256.642493" xlink:href="#m8ee6662336" y="80.453824"/>
     <use style="fill:#0000ff;stroke:#0000ff;" x="260.848919" xlink:href="#m8ee6662336" y="84.821869"/>
     <use style="fill:#0000ff;stroke:#0000ff;" x="265.055346" xlink:href="#m8ee6662336" y="74.712159"/>
     <use style="fill:#0000ff;stroke:#0000ff;" x="269.261772" xlink:href="#m8ee6662336" y="77.613442"/>
     <use style="fill:#0000ff;stroke:#0000ff;" x="273.468199" xlink:href="#m8ee6662336" y="77.065529"/>
     <use style="fill:#0000ff;stroke:#0000ff;" x="277.674625" xlink:href="#m8ee6662336" y="68.317838"/>
     <use style="fill:#0000ff;stroke:#0000ff;" x="281.881052" xlink:href="#m8ee6662336" y="66.794414"/>
     <use style="fill:#0000ff;stroke:#0000ff;" x="286.087478" xlink:href="#m8ee6662336" y="74.835995"/>
     <use style="fill:#0000ff;stroke:#0000ff;" x="290.293905" xlink:href="#m8ee6662336" y="70.956336"/>
     <use style="fill:#0000ff;stroke:#0000ff;" x="294.500331" xlink:href="#m8ee6662336" y="76.795732"/>
     <use style="fill:#0000ff;stroke:#0000ff;" x="298.706758" xlink:href="#m8ee6662336" y="70.208885"/>
     <use style="fill:#0000ff;stroke:#0000ff;" x="302.913184" xlink:href="#m8ee6662336" y="87.726087"/>
     <use style="fill:#0000ff;stroke:#0000ff;" x="307.119611" xlink:href="#m8ee6662336" y="71.615856"/>
     <use style="fill:#0000ff;stroke:#0000ff;" x="311.326037" xlink:href="#m8ee6662336" y="80.368247"/>
     <use style="fill:#0000ff;stroke:#0000ff;" x="315.532463" xlink:href="#m8ee6662336" y="75.753845"/>
     <use style="fill:#0000ff;stroke:#0000ff;" x="319.73889" xlink:href="#m8ee6662336" y="70.684845"/>
     <use style="fill:#0000ff;stroke:#0000ff;" x="323.945316" xlink:href="#m8ee6662336" y="63.943251"/>
     <use style="fill:#0000ff;stroke:#0000ff;" x="328.151743" xlink:href="#m8ee6662336" y="74.853088"/>
     <use style="fill:#0000ff;stroke:#0000ff;" x="332.358169" xlink:href="#m8ee6662336" y="71.407396"/>
     <use style="fill:#0000ff;stroke:#0000ff;" x="336.564596" xlink:href="#m8ee6662336" y="78.442067"/>
     <use style="fill:#0000ff;stroke:#0000ff;" x="340.771022" xlink:href="#m8ee6662336" y="76.025148"/>
     <use style="fill:#0000ff;stroke:#0000ff;" x="344.977449" xlink:href="#m8ee6662336" y="81.589238"/>
     <use style="fill:#0000ff;stroke:#0000ff;" x="349.183875" xlink:href="#m8ee6662336" y="67.394288"/>
     <use style="fill:#0000ff;stroke:#0000ff;" x="353.390302" xlink:href="#m8ee6662336" y="83.987079"/>
     <use style="fill:#0000ff;stroke:#0000ff;" x="357.596728" xlink:href="#m8ee6662336" y="78.73497"/>
     <use style="fill:#0000ff;stroke:#0000ff;" x="361.803155" xlink:href="#m8ee6662336" y="79.905729"/>
     <use style="fill:#0000ff;stroke:#0000ff;" x="366.009581" xlink:href="#m8ee6662336" y="83.910801"/>
     <use style="fill:#0000ff;stroke:#0000ff;" x="370.216008" xlink:href="#m8ee6662336" y="72.127228"/>
     <use style="fill:#0000ff;stroke:#0000ff;" x="374.422434" xlink:href="#m8ee6662336" y="75.861364"/>
     <use style="fill:#0000ff;stroke:#0000ff;" x="378.628861" xlink:href="#m8ee6662336" y="71.590448"/>
     <use style="fill:#0000ff;stroke:#0000ff;" x="382.835287" xlink:href="#m8ee6662336" y="84.789137"/>
     <use style="fill:#0000ff;stroke:#0000ff;" x="387.041714" xlink:href="#m8ee6662336" y="74.472043"/>
     <use style="fill:#0000ff;stroke:#0000ff;" x="391.24814" xlink:href="#m8ee6662336" y="66.984592"/>
     <use style="fill:#0000ff;stroke:#0000ff;" x="395.454567" xlink:href="#m8ee6662336" y="82.93736"/>
     <use style="fill:#0000ff;stroke:#0000ff;" x="399.660993" xlink:href="#m8ee6662336" y="71.96579"/>
     <use style="fill:#0000ff;stroke:#0000ff;" x="403.86742" xlink:href="#m8ee6662336" y="77.968566"/>
     <use style="fill:#0000ff;stroke:#0000ff;" x="408.073846" xlink:href="#m8ee6662336" y="72.48949"/>
    </g>
   </g>
   <g id="patch_3">
    <path d="M 69.12 96.768 
L 69.12 44.928 
" style="fill:none;stroke:#000000;stroke-linecap:square;stroke-linejoin:miter;stroke-width:0.8;"/>
   </g>
   <g id="patch_4">
    <path d="M 414.72 96.768 
L 414.72 44.928 
" style="fill:none;stroke:#000000;stroke-linecap:square;stroke-linejoin:miter;stroke-width:0.8;"/>
   </g>
   <g id="patch_5">
    <path d="M 69.12 96.768 
L 414.72 96.768 
" style="fill:none;stroke:#000000;stroke-linecap:square;stroke-linejoin:miter;stroke-width:0.8;"/>
   </g>
   <g id="patch_6">
    <path d="M 69.12 44.928 
L 414.72 44.928 
" style="fill:none;stroke:#000000;stroke-linecap:square;stroke-linejoin:miter;stroke-width:0.8;"/>
   </g>
   <g id="text_4">
    <!-- Function (0/0): y = A*G(x-x0, sigma) -->
    <defs>
     <path d="M 9.8125 72.90625 
L 51.703125 72.90625 
L 51.703125 64.59375 
L 19.671875 64.59375 
L 19.671875 43.109375 
L 48.578125 43.109375 
L 48.578125 34.8125 
L 19.671875 34.8125 
L 19.671875 0 
L 9.8125 0 
z
" id="DejaVuSans-70"/>
     <path d="M 48.78125 52.59375 
L 48.78125 44.1875 
Q 44.96875 46.296875 41.140625 47.34375 
Q 37.3125 48.390625 33.40625 48.390625 
Q 24.65625 48.390625 19.8125 42.84375 
Q 14.984375 37.3125 14.984375 27.296875 
Q 14.984375 17.28125 19.8125 11.734375 
Q 24.65625 6.203125 33.40625 6.203125 
Q 37.3125 6.203125 41.140625 7.25 
Q 44.96875 8.296875 48.78125 10.40625 
L 48.78125 2.09375 
Q 45.015625 0.34375 40.984375 -0.53125 
Q 36.96875 -1.421875 32.421875 -1.421875 
Q 20.0625 -1.421875 12.78125 6.34375 
Q 5.515625 14.109375 5.515625 27.296875 
Q 5.515625 40.671875 12.859375 48.328125 
Q 20.21875 56 33.015625 56 
Q 37.15625 56 41.109375 55.140625 
Q 45.0625 54.296875 48.78125 52.59375 
z
" id="DejaVuSans-99"/>
     <path d="M 30.609375 48.390625 
Q 23.390625 48.390625 19.1875 42.75 
Q 14.984375 37.109375 14.984375 27.296875 
Q 14.984375 17.484375 19.15625 11.84375 
Q 23.34375 6.203125 30.609375 6.203125 
Q 37.796875 6.203125 41.984375 11.859375 
Q 46.1875 17.53125 46.1875 27.296875 
Q 46.1875 37.015625 41.984375 42.703125 
Q 37.796875 48.390625 30.609375 48.390625 
z
M 30.609375 56 
Q 42.328125 56 49.015625 48.375 
Q 55.71875 40.765625 55.71875 27.296875 
Q 55.71875 13.875 49.015625 6.21875 
Q 42.328125 -1.421875 30.609375 -1.421875 
Q 18.84375 -1.421875 12.171875 6.21875 
Q 5.515625 13.875 5.515625 27.296875 
Q 5.515625 40.765625 12.171875 48.375 
Q 18.84375 56 30.609375 56 
z
" id="DejaVuSans-111"/>
     <path id="DejaVuSans-32"/>
     <path d="M 31 75.875 
Q 24.46875 64.65625 21.28125 53.65625 
Q 18.109375 42.671875 18.109375 31.390625 
Q 18.109375 20.125 21.3125 9.0625 
Q 24.515625 -2 31 -13.1875 
L 23.1875 -13.1875 
Q 15.875 -1.703125 12.234375 9.375 
Q 8.59375 20.453125 8.59375 31.390625 
Q 8.59375 42.28125 12.203125 53.3125 
Q 15.828125 64.359375 23.1875 75.875 
z
" id="DejaVuSans-40"/>
     <path d="M 31.78125 66.40625 
Q 24.171875 66.40625 20.328125 58.90625 
Q 16.5 51.421875 16.5 36.375 
Q 16.5 21.390625 20.328125 13.890625 
Q 24.171875 6.390625 31.78125 6.390625 
Q 39.453125 6.390625 43.28125 13.890625 
Q 47.125 21.390625 47.125 36.375 
Q 47.125 51.421875 43.28125 58.90625 
Q 39.453125 66.40625 31.78125 66.40625 
z
M 31.78125 74.21875 
Q 44.046875 74.21875 50.515625 64.515625 
Q 56.984375 54.828125 56.984375 36.375 
Q 56.984375 17.96875 50.515625 8.265625 
Q 44.046875 -1.421875 31.78125 -1.421875 
Q 19.53125 -1.421875 13.0625 8.265625 
Q 6.59375 17.96875 6.59375 36.375 
Q 6.59375 54.828125 13.0625 64.515625 
Q 19.53125 74.21875 31.78125 74.21875 
z
" id="DejaVuSans-48"/>
     <path d="M 25.390625 72.90625 
L 33.6875 72.90625 
L 8.296875 -9.28125 
L 0 -9.28125 
z
" id="DejaVuSans-47"/>
     <path d="M 8.015625 75.875 
L 15.828125 75.875 
Q 23.140625 64.359375 26.78125 53.3125 
Q 30.421875 42.28125 30.421875 31.390625 
Q 30.421875 20.453125 26.78125 9.375 
Q 23.140625 -1.703125 15.828125 -13.1875 
L 8.015625 -13.1875 
Q 14.5 -2 17.703125 9.0625 
Q 20.90625 20.125 20.90625 31.390625 
Q 20.90625 42.671875 17.703125 53.65625 
Q 14.5 64.65625 8.015625 75.875 
z
" id="DejaVuSans-41"/>
     <path d="M 11.71875 12.40625 
L 22.015625 12.40625 
L 22.015625 0 
L 11.71875 0 
z
M 11.71875 51.703125 
L 22.015625 51.703125 
L 22.015625 39.3125 
L 11.71875 39.3125 
z
" id="DejaVuSans-58"/>
     <path d="M 32.171875 -5.078125 
Q 28.375 -14.84375 24.75 -17.8125 
Q 21.140625 -20.796875 15.09375 -20.796875 
L 7.90625 -20.796875 
L 7.90625 -13.28125 
L 13.1875 -13.28125 
Q 16.890625 -13.28125 18.9375 -11.515625 
Q 21 -9.765625 23.484375 -3.21875 
L 25.09375 0.875 
L 2.984375 54.6875 
L 12.5 54.6875 
L 29.59375 11.921875 
L 46.6875 54.6875 
L 56.203125 54.6875 
z
" id="DejaVuSans-121"/>
     <path d="M 10.59375 45.40625 
L 73.1875 45.40625 
L 73.1875 37.203125 
L 10.59375 37.203125 
z
M 10.59375 25.484375 
L 73.1875 25.484375 
L 73.1875 17.1875 
L 10.59375 17.1875 
z
" id="DejaVuSans-61"/>
     <path d="M 34.1875 63.1875 
L 20.796875 26.90625 
L 47.609375 26.90625 
z
M 28.609375 72.90625 
L 39.796875 72.90625 
L 67.578125 0 
L 57.328125 0 
L 50.6875 18.703125 
L 17.828125 18.703125 
L 11.1875 0 
L 0.78125 0 
z
" id="DejaVuSans-65"/>
     <path d="M 47.015625 60.890625 
L 29.5 51.421875 
L 47.015625 41.890625 
L 44.1875 37.109375 
L 27.78125 47.015625 
L 27.78125 28.609375 
L 22.21875 28.609375 
L 22.21875 47.015625 
L 5.8125 37.109375 
L 2.984375 41.890625 
L 20.515625 51.421875 
L 2.984375 60.890625 
L 5.8125 65.71875 
L 22.21875 55.8125 
L 22.21875 74.21875 
L 27.78125 74.21875 
L 27.78125 55.8125 
L 44.1875 65.71875 
z
" id="DejaVuSans-42"/>
     <path d="M 59.515625 10.40625 
L 59.515625 29.984375 
L 43.40625 29.984375 
L 43.40625 38.09375 
L 69.28125 38.09375 
L 69.28125 6.78125 
Q 63.578125 2.734375 56.6875 0.65625 
Q 49.8125 -1.421875 42 -1.421875 
Q 24.90625 -1.421875 15.25 8.5625 
Q 5.609375 18.5625 5.609375 36.375 
Q 5.609375 54.25 15.25 64.234375 
Q 24.90625 74.21875 42 74.21875 
Q 49.125 74.21875 55.546875 72.453125 
Q 61.96875 70.703125 67.390625 67.28125 
L 67.390625 56.78125 
Q 61.921875 61.421875 55.765625 63.765625 
Q 49.609375 66.109375 42.828125 66.109375 
Q 29.4375 66.109375 22.71875 58.640625 
Q 16.015625 51.171875 16.015625 36.375 
Q 16.015625 21.625 22.71875 14.15625 
Q 29.4375 6.6875 42.828125 6.6875 
Q 48.046875 6.6875 52.140625 7.59375 
Q 56.25 8.5 59.515625 10.40625 
z
" id="DejaVuSans-71"/>
     <path d="M 54.890625 54.6875 
L 35.109375 28.078125 
L 55.90625 0 
L 45.3125 0 
L 29.390625 21.484375 
L 13.484375 0 
L 2.875 0 
L 24.125 28.609375 
L 4.6875 54.6875 
L 15.28125 54.6875 
L 29.78125 35.203125 
L 44.28125 54.6875 
z
" id="DejaVuSans-120"/>
     <path d="M 4.890625 31.390625 
L 31.203125 31.390625 
L 31.203125 23.390625 
L 4.890625 23.390625 
z
" id="DejaVuSans-45"/>
     <path d="M 11.71875 12.40625 
L 22.015625 12.40625 
L 22.015625 4 
L 14.015625 -11.625 
L 7.71875 -11.625 
L 11.71875 4 
z
" id="DejaVuSans-44"/>
     <path d="M 45.40625 27.984375 
Q 45.40625 37.75 41.375 43.109375 
Q 37.359375 48.484375 30.078125 48.484375 
Q 22.859375 48.484375 18.828125 43.109375 
Q 14.796875 37.75 14.796875 27.984375 
Q 14.796875 18.265625 18.828125 12.890625 
Q 22.859375 7.515625 30.078125 7.515625 
Q 37.359375 7.515625 41.375 12.890625 
Q 45.40625 18.265625 45.40625 27.984375 
z
M 54.390625 6.78125 
Q 54.390625 -7.171875 48.1875 -13.984375 
Q 42 -20.796875 29.203125 -20.796875 
Q 24.46875 -20.796875 20.265625 -20.09375 
Q 16.0625 -19.390625 12.109375 -17.921875 
L 12.109375 -9.1875 
Q 16.0625 -11.328125 19.921875 -12.34375 
Q 23.78125 -13.375 27.78125 -13.375 
Q 36.625 -13.375 41.015625 -8.765625 
Q 45.40625 -4.15625 45.40625 5.171875 
L 45.40625 9.625 
Q 42.625 4.78125 38.28125 2.390625 
Q 33.9375 0 27.875 0 
Q 17.828125 0 11.671875 7.65625 
Q 5.515625 15.328125 5.515625 27.984375 
Q 5.515625 40.671875 11.671875 48.328125 
Q 17.828125 56 27.875 56 
Q 33.9375 56 38.28125 53.609375 
Q 42.625 51.21875 45.40625 46.390625 
L 45.40625 54.6875 
L 54.390625 54.6875 
z
" id="DejaVuSans-103"/>
     <path d="M 52 44.1875 
Q 55.375 50.25 60.0625 53.125 
Q 64.75 56 71.09375 56 
Q 79.640625 56 84.28125 50.015625 
Q 88.921875 44.046875 88.921875 33.015625 
L 88.921875 0 
L 79.890625 0 
L 79.890625 32.71875 
Q 79.890625 40.578125 77.09375 44.375 
Q 74.3125 48.1875 68.609375 48.1875 
Q 61.625 48.1875 57.5625 43.546875 
Q 53.515625 38.921875 53.515625 30.90625 
L 53.515625 0 
L 44.484375 0 
L 44.484375 32.71875 
Q 44.484375 40.625 41.703125 44.40625 
Q 38.921875 48.1875 33.109375 48.1875 
Q 26.21875 48.1875 22.15625 43.53125 
Q 18.109375 38.875 18.109375 30.90625 
L 18.109375 0 
L 9.078125 0 
L 9.078125 54.6875 
L 18.109375 54.6875 
L 18.109375 46.1875 
Q 21.1875 51.21875 25.484375 53.609375 
Q 29.78125 56 35.6875 56 
Q 41.65625 56 45.828125 52.96875 
Q 50 49.953125 52 44.1875 
z
" id="DejaVuSans-109"/>
    </defs>
    <g transform="translate(69.12 14.288313)scale(0.1 -0.1)">
     <use xlink:href="#DejaVuSans-70"/>
     <use x="57.441406" xlink:href="#DejaVuSans-117"/>
     <use x="120.820312" xlink:href="#DejaVuSans-110"/>
     <use x="184.199219" xlink:href="#DejaVuSans-99"/>
     <use x="239.179688" xlink:href="#DejaVuSans-116"/>
     <use x="278.388672" xlink:href="#DejaVuSans-105"/>
     <use x="306.171875" xlink:href="#DejaVuSans-111"/>
     <use x="367.353516" xlink:href="#DejaVuSans-110"/>
     <use x="430.732422" xlink:href="#DejaVuSans-32"/>
     <use x="462.519531" xlink:href="#DejaVuSans-40"/>
     <use x="501.533203" xlink:href="#DejaVuSans-48"/>
     <use x="565.15625" xlink:href="#DejaVuSans-47"/>
     <use x="598.847656" xlink:href="#DejaVuSans-48"/>
     <use x="662.470703" xlink:href="#DejaVuSans-41"/>
     <use x="701.484375" xlink:href="#DejaVuSans-58"/>
     <use x="735.175781" xlink:href="#DejaVuSans-32"/>
     <use x="766.962891" xlink:href="#DejaVuSans-121"/>
     <use x="826.142578" xlink:href="#DejaVuSans-32"/>
     <use x="857.929688" xlink:href="#DejaVuSans-61"/>
     <use x="941.71875" xlink:href="#DejaVuSans-32"/>
     <use x="973.505859" xlink:href="#DejaVuSans-65"/>
     <use x="1041.914062" xlink:href="#DejaVuSans-42"/>
     <use x="1091.914062" xlink:href="#DejaVuSans-71"/>
     <use x="1169.404297" xlink:href="#DejaVuSans-40"/>
     <use x="1208.417969" xlink:href="#DejaVuSans-120"/>
     <use x="1267.597656" xlink:href="#DejaVuSans-45"/>
     <use x="1303.681641" xlink:href="#DejaVuSans-120"/>
     <use x="1362.861328" xlink:href="#DejaVuSans-48"/>
     <use x="1426.484375" xlink:href="#DejaVuSans-44"/>
     <use x="1458.271484" xlink:href="#DejaVuSans-32"/>
     <use x="1490.058594" xlink:href="#DejaVuSans-115"/>
     <use x="1542.158203" xlink:href="#DejaVuSans-105"/>
     <use x="1569.941406" xlink:href="#DejaVuSans-103"/>
     <use x="1633.417969" xlink:href="#DejaVuSans-109"/>
     <use x="1730.830078" xlink:href="#DejaVuSans-97"/>
     <use x="1792.109375" xlink:href="#DejaVuSans-41"/>
    </g>
    <!-- Fit: x0=699.94$\pm$0.14, sigma=28.61$\pm$0.19, A=590.4$\pm$4.6, -->
    <defs>
     <path d="M 33.015625 40.375 
Q 26.375 40.375 22.484375 35.828125 
Q 18.609375 31.296875 18.609375 23.390625 
Q 18.609375 15.53125 22.484375 10.953125 
Q 26.375 6.390625 33.015625 6.390625 
Q 39.65625 6.390625 43.53125 10.953125 
Q 47.40625 15.53125 47.40625 23.390625 
Q 47.40625 31.296875 43.53125 35.828125 
Q 39.65625 40.375 33.015625 40.375 
z
M 52.59375 71.296875 
L 52.59375 62.3125 
Q 48.875 64.0625 45.09375 64.984375 
Q 41.3125 65.921875 37.59375 65.921875 
Q 27.828125 65.921875 22.671875 59.328125 
Q 17.53125 52.734375 16.796875 39.40625 
Q 19.671875 43.65625 24.015625 45.921875 
Q 28.375 48.1875 33.59375 48.1875 
Q 44.578125 48.1875 50.953125 41.515625 
Q 57.328125 34.859375 57.328125 23.390625 
Q 57.328125 12.15625 50.6875 5.359375 
Q 44.046875 -1.421875 33.015625 -1.421875 
Q 20.359375 -1.421875 13.671875 8.265625 
Q 6.984375 17.96875 6.984375 36.375 
Q 6.984375 53.65625 15.1875 63.9375 
Q 23.390625 74.21875 37.203125 74.21875 
Q 40.921875 74.21875 44.703125 73.484375 
Q 48.484375 72.75 52.59375 71.296875 
z
" id="DejaVuSans-54"/>
     <path d="M 10.984375 1.515625 
L 10.984375 10.5 
Q 14.703125 8.734375 18.5 7.8125 
Q 22.3125 6.890625 25.984375 6.890625 
Q 35.75 6.890625 40.890625 13.453125 
Q 46.046875 20.015625 46.78125 33.40625 
Q 43.953125 29.203125 39.59375 26.953125 
Q 35.25 24.703125 29.984375 24.703125 
Q 19.046875 24.703125 12.671875 31.3125 
Q 6.296875 37.9375 6.296875 49.421875 
Q 6.296875 60.640625 12.9375 67.421875 
Q 19.578125 74.21875 30.609375 74.21875 
Q 43.265625 74.21875 49.921875 64.515625 
Q 56.59375 54.828125 56.59375 36.375 
Q 56.59375 19.140625 48.40625 8.859375 
Q 40.234375 -1.421875 26.421875 -1.421875 
Q 22.703125 -1.421875 18.890625 -0.6875 
Q 15.09375 0.046875 10.984375 1.515625 
z
M 30.609375 32.421875 
Q 37.25 32.421875 41.125 36.953125 
Q 45.015625 41.5 45.015625 49.421875 
Q 45.015625 57.28125 41.125 61.84375 
Q 37.25 66.40625 30.609375 66.40625 
Q 23.96875 66.40625 20.09375 61.84375 
Q 16.21875 57.28125 16.21875 49.421875 
Q 16.21875 41.5 20.09375 36.953125 
Q 23.96875 32.421875 30.609375 32.421875 
z
" id="DejaVuSans-57"/>
     <path d="M 37.796875 64.3125 
L 12.890625 25.390625 
L 37.796875 25.390625 
z
M 35.203125 72.90625 
L 47.609375 72.90625 
L 47.609375 25.390625 
L 58.015625 25.390625 
L 58.015625 17.1875 
L 47.609375 17.1875 
L 47.609375 0 
L 37.796875 0 
L 37.796875 17.1875 
L 4.890625 17.1875 
L 4.890625 26.703125 
z
" id="DejaVuSans-52"/>
     <path d="M 46 62.703125 
L 46 43.796875 
L 73.1875 43.796875 
L 73.1875 35.5 
L 46 35.5 
L 46 16.609375 
L 37.796875 16.609375 
L 37.796875 35.5 
L 10.59375 35.5 
L 10.59375 43.796875 
L 37.796875 43.796875 
L 37.796875 62.703125 
z
M 10.59375 8.296875 
L 73.1875 8.296875 
L 73.1875 0 
L 10.59375 0 
z
" id="DejaVuSans-177"/>
     <path d="M 12.40625 8.296875 
L 28.515625 8.296875 
L 28.515625 63.921875 
L 10.984375 60.40625 
L 10.984375 69.390625 
L 28.421875 72.90625 
L 38.28125 72.90625 
L 38.28125 8.296875 
L 54.390625 8.296875 
L 54.390625 0 
L 12.40625 0 
z
" id="DejaVuSans-49"/>
     <path d="M 31.78125 34.625 
Q 24.75 34.625 20.71875 30.859375 
Q 16.703125 27.09375 16.703125 20.515625 
Q 16.703125 13.921875 20.71875 10.15625 
Q 24.75 6.390625 31.78125 6.390625 
Q 38.8125 6.390625 42.859375 10.171875 
Q 46.921875 13.96875 46.921875 20.515625 
Q 46.921875 27.09375 42.890625 30.859375 
Q 38.875 34.625 31.78125 34.625 
z
M 21.921875 38.8125 
Q 15.578125 40.375 12.03125 44.71875 
Q 8.5 49.078125 8.5 55.328125 
Q 8.5 64.0625 14.71875 69.140625 
Q 20.953125 74.21875 31.78125 74.21875 
Q 42.671875 74.21875 48.875 69.140625 
Q 55.078125 64.0625 55.078125 55.328125 
Q 55.078125 49.078125 51.53125 44.71875 
Q 48 40.375 41.703125 38.8125 
Q 48.828125 37.15625 52.796875 32.3125 
Q 56.78125 27.484375 56.78125 20.515625 
Q 56.78125 9.90625 50.3125 4.234375 
Q 43.84375 -1.421875 31.78125 -1.421875 
Q 19.734375 -1.421875 13.25 4.234375 
Q 6.78125 9.90625 6.78125 20.515625 
Q 6.78125 27.484375 10.78125 32.3125 
Q 14.796875 37.15625 21.921875 38.8125 
z
M 18.3125 54.390625 
Q 18.3125 48.734375 21.84375 45.5625 
Q 25.390625 42.390625 31.78125 42.390625 
Q 38.140625 42.390625 41.71875 45.5625 
Q 45.3125 48.734375 45.3125 54.390625 
Q 45.3125 60.0625 41.71875 63.234375 
Q 38.140625 66.40625 31.78125 66.40625 
Q 25.390625 66.40625 21.84375 63.234375 
Q 18.3125 60.0625 18.3125 54.390625 
z
" id="DejaVuSans-56"/>
    </defs>
    <g transform="translate(69.12 25.488)scale(0.1 -0.1)">
     <use transform="translate(0 0.015625)" xlink:href="#DejaVuSans-70"/>
     <use transform="translate(57.519531 0.015625)" xlink:href="#DejaVuSans-105"/>
     <use transform="translate(85.302734 0.015625)" xlink:href="#DejaVuSans-116"/>
     <use transform="translate(124.511719 0.015625)" xlink:href="#DejaVuSans-58"/>
     <use transform="translate(158.203125 0.015625)" xlink:href="#DejaVuSans-32"/>
     <use transform="translate(189.990234 0.015625)" xlink:href="#DejaVuSans-120"/>
     <use transform="translate(249.169922 0.015625)" xlink:href="#DejaVuSans-48"/>
     <use transform="translate(312.792969 0.015625)" xlink:href="#DejaVuSans-61"/>
     <use transform="translate(396.582031 0.015625)" xlink:href="#DejaVuSans-54"/>
     <use transform="translate(460.205078 0.015625)" xlink:href="#DejaVuSans-57"/>
     <use transform="translate(523.828125 0.015625)" xlink:href="#DejaVuSans-57"/>
     <use transform="translate(587.451172 0.015625)" xlink:href="#DejaVuSans-46"/>
     <use transform="translate(619.238281 0.015625)" xlink:href="#DejaVuSans-57"/>
     <use transform="translate(682.861328 0.015625)" xlink:href="#DejaVuSans-52"/>
     <use transform="translate(746.484375 0.015625)" xlink:href="#DejaVuSans-177"/>
     <use transform="translate(830.273438 0.015625)" xlink:href="#DejaVuSans-48"/>
     <use transform="translate(893.896484 0.015625)" xlink:href="#DejaVuSans-46"/>
     <use transform="translate(925.683594 0.015625)" xlink:href="#DejaVuSans-49"/>
     <use transform="translate(989.306641 0.015625)" xlink:href="#DejaVuSans-52"/>
     <use transform="translate(1052.929688 0.015625)" xlink:href="#DejaVuSans-44"/>
     <use transform="translate(1084.716797 0.015625)" xlink:href="#DejaVuSans-32"/>
     <use transform="translate(1116.503906 0.015625)" xlink:href="#DejaVuSans-115"/>
     <use transform="translate(1168.603516 0.015625)" xlink:href="#DejaVuSans-105"/>
     <use transform="translate(1196.386719 0.015625)" xlink:href="#DejaVuSans-103"/>
     <use transform="translate(1259.863281 0.015625)" xlink:href="#DejaVuSans-109"/>
     <use transform="translate(1357.275391 0.015625)" xlink:href="#DejaVuSans-97"/>
     <use transform="translate(1418.554688 0.015625)" xlink:href="#DejaVuSans-61"/>
     <use transform="translate(1502.34375 0.015625)" xlink:href="#DejaVuSans-50"/>
     <use transform="translate(1565.966797 0.015625)" xlink:href="#DejaVuSans-56"/>
     <use transform="translate(1629.589844 0.015625)" xlink:href="#DejaVuSans-46"/>
     <use transform="translate(1661.376953 0.015625)" xlink:href="#DejaVuSans-54"/>
     <use transform="translate(1725 0.015625)" xlink:href="#DejaVuSans-49"/>
     <use transform="translate(1788.623047 0.015625)" xlink:href="#DejaVuSans-177"/>
     <use transform="translate(1872.412109 0.015625)" xlink:href="#DejaVuSans-48"/>
     <use transform="translate(1936.035156 0.015625)" xlink:href="#DejaVuSans-46"/>
     <use transform="translate(1967.822266 0.015625)" xlink:href="#DejaVuSans-49"/>
     <use transform="translate(2031.445312 0.015625)" xlink:href="#DejaVuSans-57"/>
     <use transform="translate(2095.068359 0.015625)" xlink:href="#DejaVuSans-44"/>
     <use transform="translate(2126.855469 0.015625)" xlink:href="#DejaVuSans-32"/>
     <use transform="translate(2158.642578 0.015625)" xlink:href="#DejaVuSans-65"/>
     <use transform="translate(2227.050781 0.015625)" xlink:href="#DejaVuSans-61"/>
     <use transform="translate(2310.839844 0.015625)" xlink:href="#DejaVuSans-53"/>
     <use transform="translate(2374.384766 0.015625)" xlink:href="#DejaVuSans-57"/>
     <use transform="translate(2438.007812 0.015625)" xlink:href="#DejaVuSans-48"/>
     <use transform="translate(2501.630859 0.015625)" xlink:href="#DejaVuSans-46"/>
     <use transform="translate(2533.417969 0.015625)" xlink:href="#DejaVuSans-52"/>
     <use transform="translate(2597.041016 0.015625)" xlink:href="#DejaVuSans-177"/>
     <use transform="translate(2680.830078 0.015625)" xlink:href="#DejaVuSans-52"/>
     <use transform="translate(2744.453125 0.015625)" xlink:href="#DejaVuSans-46"/>
     <use transform="translate(2776.240234 0.015625)" xlink:href="#DejaVuSans-54"/>
     <use transform="translate(2839.863281 0.015625)" xlink:href="#DejaVuSans-44"/>
    </g>
    <!--       $\chi^2_r$=0.94$\pm$0.16 (77 DOF) -->
    <defs>
     <path d="M 30.03125 -12.203125 
L 26.421875 6.5 
L 6.15625 -20.84375 
L -4.4375 -20.84375 
L 24.265625 17.828125 
L 19.828125 40.828125 
Q 18.65625 46.96875 11.140625 46.96875 
L 8.734375 46.96875 
L 10.203125 54.6875 
L 13.625 54.59375 
Q 26.171875 54.25 27.734375 46.09375 
L 31.34375 27.390625 
L 51.609375 54.734375 
L 62.203125 54.734375 
L 33.5 16.0625 
L 37.9375 -6.9375 
Q 39.109375 -13.09375 46.625 -13.09375 
L 49.03125 -13.09375 
L 47.5625 -20.796875 
L 44.140625 -20.703125 
Q 31.59375 -20.359375 30.03125 -12.203125 
z
" id="DejaVuSans-Oblique-967"/>
     <path d="M 44.578125 46.390625 
Q 43.21875 47.125 41.453125 47.515625 
Q 39.703125 47.90625 37.703125 47.90625 
Q 30.515625 47.90625 25.140625 42.453125 
Q 19.78125 37.015625 18.015625 27.875 
L 12.5 0 
L 3.515625 0 
L 14.203125 54.6875 
L 23.1875 54.6875 
L 21.484375 46.1875 
Q 25.046875 50.921875 30 53.453125 
Q 34.96875 56 40.578125 56 
Q 42.046875 56 43.453125 55.828125 
Q 44.875 55.671875 46.296875 55.28125 
z
" id="DejaVuSans-Oblique-114"/>
     <path d="M 8.203125 72.90625 
L 55.078125 72.90625 
L 55.078125 68.703125 
L 28.609375 0 
L 18.3125 0 
L 43.21875 64.59375 
L 8.203125 64.59375 
z
" id="DejaVuSans-55"/>
     <path d="M 19.671875 64.796875 
L 19.671875 8.109375 
L 31.59375 8.109375 
Q 46.6875 8.109375 53.6875 14.9375 
Q 60.6875 21.78125 60.6875 36.53125 
Q 60.6875 51.171875 53.6875 57.984375 
Q 46.6875 64.796875 31.59375 64.796875 
z
M 9.8125 72.90625 
L 30.078125 72.90625 
Q 51.265625 72.90625 61.171875 64.09375 
Q 71.09375 55.28125 71.09375 36.53125 
Q 71.09375 17.671875 61.125 8.828125 
Q 51.171875 0 30.078125 0 
L 9.8125 0 
z
" id="DejaVuSans-68"/>
     <path d="M 39.40625 66.21875 
Q 28.65625 66.21875 22.328125 58.203125 
Q 16.015625 50.203125 16.015625 36.375 
Q 16.015625 22.609375 22.328125 14.59375 
Q 28.65625 6.59375 39.40625 6.59375 
Q 50.140625 6.59375 56.421875 14.59375 
Q 62.703125 22.609375 62.703125 36.375 
Q 62.703125 50.203125 56.421875 58.203125 
Q 50.140625 66.21875 39.40625 66.21875 
z
M 39.40625 74.21875 
Q 54.734375 74.21875 63.90625 63.9375 
Q 73.09375 53.65625 73.09375 36.375 
Q 73.09375 19.140625 63.90625 8.859375 
Q 54.734375 -1.421875 39.40625 -1.421875 
Q 24.03125 -1.421875 14.8125 8.828125 
Q 5.609375 19.09375 5.609375 36.375 
Q 5.609375 53.65625 14.8125 63.9375 
Q 24.03125 74.21875 39.40625 74.21875 
z
" id="DejaVuSans-79"/>
    </defs>
    <g transform="translate(69.12 38.508)scale(0.1 -0.1)">
     <use transform="translate(0 0.765625)" xlink:href="#DejaVuSans-32"/>
     <use transform="translate(31.787109 0.765625)" xlink:href="#DejaVuSans-32"/>
     <use transform="translate(63.574219 0.765625)" xlink:href="#DejaVuSans-32"/>
     <use transform="translate(95.361328 0.765625)" xlink:href="#DejaVuSans-32"/>
     <use transform="translate(127.148438 0.765625)" xlink:href="#DejaVuSans-32"/>
     <use transform="translate(158.935547 0.765625)" xlink:href="#DejaVuSans-32"/>
     <use transform="translate(190.722656 0.765625)" xlink:href="#DejaVuSans-Oblique-967"/>
     <use transform="translate(254.375052 39.046875)scale(0.7)" xlink:href="#DejaVuSans-50"/>
     <use transform="translate(249.902344 -26.578125)scale(0.7)" xlink:href="#DejaVuSans-Oblique-114"/>
     <use transform="translate(301.64556 0.765625)" xlink:href="#DejaVuSans-61"/>
     <use transform="translate(385.434622 0.765625)" xlink:href="#DejaVuSans-48"/>
     <use transform="translate(449.057669 0.765625)" xlink:href="#DejaVuSans-46"/>
     <use transform="translate(480.844779 0.765625)" xlink:href="#DejaVuSans-57"/>
     <use transform="translate(544.467826 0.765625)" xlink:href="#DejaVuSans-52"/>
     <use transform="translate(608.090872 0.765625)" xlink:href="#DejaVuSans-177"/>
     <use transform="translate(691.879935 0.765625)" xlink:href="#DejaVuSans-48"/>
     <use transform="translate(755.502982 0.765625)" xlink:href="#DejaVuSans-46"/>
     <use transform="translate(787.290091 0.765625)" xlink:href="#DejaVuSans-49"/>
     <use transform="translate(850.913138 0.765625)" xlink:href="#DejaVuSans-54"/>
     <use transform="translate(914.536185 0.765625)" xlink:href="#DejaVuSans-32"/>
     <use transform="translate(946.323294 0.765625)" xlink:href="#DejaVuSans-40"/>
     <use transform="translate(985.336966 0.765625)" xlink:href="#DejaVuSans-55"/>
     <use transform="translate(1048.944388 0.765625)" xlink:href="#DejaVuSans-55"/>
     <use transform="translate(1112.567435 0.765625)" xlink:href="#DejaVuSans-32"/>
     <use transform="translate(1144.354544 0.765625)" xlink:href="#DejaVuSans-68"/>
     <use transform="translate(1221.356497 0.765625)" xlink:href="#DejaVuSans-79"/>
     <use transform="translate(1300.067435 0.765625)" xlink:href="#DejaVuSans-70"/>
     <use transform="translate(1357.586966 0.765625)" xlink:href="#DejaVuSans-41"/>
    </g>
   </g>
  </g>
  <g id="axes_2">
   <g id="patch_7">
    <path d="M 69.12 311.04 
L 414.72 311.04 
L 414.72 103.68 
L 69.12 103.68 
z
" style="fill:#ffffff;"/>
   </g>
   <g id="matplotlib.axis_3">
    <g id="xtick_10">
     <g id="line2d_15">
      <g>
       <use style="stroke:#000000;stroke-width:0.8;" x="75.766154" xlink:href="#mf29bd5549b" y="311.04"/>
      </g>
     </g>
     <g id="text_5">
      <!-- 660 -->
      <g transform="translate(66.222404 325.638437)scale(0.1 -0.1)">
       <use xlink:href="#DejaVuSans-54"/>
       <use x="63.623047" xlink:href="#DejaVuSans-54"/>
       <use x="127.246094" xlink:href="#DejaVuSans-48"/>
      </g>
     </g>
    </g>
    <g id="xtick_11">
     <g id="line2d_16">
      <g>
       <use style="stroke:#000000;stroke-width:0.8;" x="117.830419" xlink:href="#mf29bd5549b" y="311.04"/>
      </g>
     </g>
     <g id="text_6">
      <!-- 670 -->
      <g transform="translate(108.286669 325.638437)scale(0.1 -0.1)">
       <use xlink:href="#DejaVuSans-54"/>
       <use x="63.623047" xlink:href="#DejaVuSans-55"/>
       <use x="127.246094" xlink:href="#DejaVuSans-48"/>
      </g>
     </g>
    </g>
    <g id="xtick_12">
     <g id="line2d_17">
      <g>
       <use style="stroke:#000000;stroke-width:0.8;" x="159.894684" xlink:href="#mf29bd5549b" y="311.04"/>
      </g>
     </g>
     <g id="text_7">
      <!-- 680 -->
      <g transform="translate(150.350934 325.638437)scale(0.1 -0.1)">
       <use xlink:href="#DejaVuSans-54"/>
       <use x="63.623047" xlink:href="#DejaVuSans-56"/>
       <use x="127.246094" xlink:href="#DejaVuSans-48"/>
      </g>
     </g>
    </g>
    <g id="xtick_13">
     <g id="line2d_18">
      <g>
       <use style="stroke:#000000;stroke-width:0.8;" x="201.958948" xlink:href="#mf29bd5549b" y="311.04"/>
      </g>
     </g>
     <g id="text_8">
      <!-- 690 -->
      <g transform="translate(192.415198 325.638437)scale(0.1 -0.1)">
       <use xlink:href="#DejaVuSans-54"/>
       <use x="63.623047" xlink:href="#DejaVuSans-57"/>
       <use x="127.246094" xlink:href="#DejaVuSans-48"/>
      </g>
     </g>
    </g>
    <g id="xtick_14">
     <g id="line2d_19">
      <g>
       <use style="stroke:#000000;stroke-width:0.8;" x="244.023213" xlink:href="#mf29bd5549b" y="311.04"/>
      </g>
     </g>
     <g id="text_9">
      <!-- 700 -->
      <g transform="translate(234.479463 325.638437)scale(0.1 -0.1)">
       <use xlink:href="#DejaVuSans-55"/>
       <use x="63.623047" xlink:href="#DejaVuSans-48"/>
       <use x="127.246094" xlink:href="#DejaVuSans-48"/>
      </g>
     </g>
    </g>
    <g id="xtick_15">
     <g id="line2d_20">
      <g>
       <use style="stroke:#000000;stroke-width:0.8;" x="286.087478" xlink:href="#mf29bd5549b" y="311.04"/>
      </g>
     </g>
     <g id="text_10">
      <!-- 710 -->
      <g transform="translate(276.543728 325.638437)scale(0.1 -0.1)">
       <use xlink:href="#DejaVuSans-55"/>
       <use x="63.623047" xlink:href="#DejaVuSans-49"/>
       <use x="127.246094" xlink:href="#DejaVuSans-48"/>
      </g>
     </g>
    </g>
    <g id="xtick_16">
     <g id="line2d_21">
      <g>
       <use style="stroke:#000000;stroke-width:0.8;" x="328.151743" xlink:href="#mf29bd5549b" y="311.04"/>
      </g>
     </g>
     <g id="text_11">
      <!-- 720 -->
      <g transform="translate(318.607993 325.638437)scale(0.1 -0.1)">
       <use xlink:href="#DejaVuSans-55"/>
       <use x="63.623047" xlink:href="#DejaVuSans-50"/>
       <use x="127.246094" xlink:href="#DejaVuSans-48"/>
      </g>
     </g>
    </g>
    <g id="xtick_17">
     <g id="line2d_22">
      <g>
       <use style="stroke:#000000;stroke-width:0.8;" x="370.216008" xlink:href="#mf29bd5549b" y="311.04"/>
      </g>
     </g>
     <g id="text_12">
      <!-- 730 -->
      <defs>
       <path d="M 40.578125 39.3125 
Q 47.65625 37.796875 51.625 33 
Q 55.609375 28.21875 55.609375 21.1875 
Q 55.609375 10.40625 48.1875 4.484375 
Q 40.765625 -1.421875 27.09375 -1.421875 
Q 22.515625 -1.421875 17.65625 -0.515625 
Q 12.796875 0.390625 7.625 2.203125 
L 7.625 11.71875 
Q 11.71875 9.328125 16.59375 8.109375 
Q 21.484375 6.890625 26.8125 6.890625 
Q 36.078125 6.890625 40.9375 10.546875 
Q 45.796875 14.203125 45.796875 21.1875 
Q 45.796875 27.640625 41.28125 31.265625 
Q 36.765625 34.90625 28.71875 34.90625 
L 20.21875 34.90625 
L 20.21875 43.015625 
L 29.109375 43.015625 
Q 36.375 43.015625 40.234375 45.921875 
Q 44.09375 48.828125 44.09375 54.296875 
Q 44.09375 59.90625 40.109375 62.90625 
Q 36.140625 65.921875 28.71875 65.921875 
Q 24.65625 65.921875 20.015625 65.03125 
Q 15.375 64.15625 9.8125 62.3125 
L 9.8125 71.09375 
Q 15.4375 72.65625 20.34375 73.4375 
Q 25.25 74.21875 29.59375 74.21875 
Q 40.828125 74.21875 47.359375 69.109375 
Q 53.90625 64.015625 53.90625 55.328125 
Q 53.90625 49.265625 50.4375 45.09375 
Q 46.96875 40.921875 40.578125 39.3125 
z
" id="DejaVuSans-51"/>
      </defs>
      <g transform="translate(360.672258 325.638437)scale(0.1 -0.1)">
       <use xlink:href="#DejaVuSans-55"/>
       <use x="63.623047" xlink:href="#DejaVuSans-51"/>
       <use x="127.246094" xlink:href="#DejaVuSans-48"/>
      </g>
     </g>
    </g>
    <g id="xtick_18">
     <g id="line2d_23">
      <g>
       <use style="stroke:#000000;stroke-width:0.8;" x="412.280273" xlink:href="#mf29bd5549b" y="311.04"/>
      </g>
     </g>
     <g id="text_13">
      <!-- 740 -->
      <g transform="translate(402.736523 325.638437)scale(0.1 -0.1)">
       <use xlink:href="#DejaVuSans-55"/>
       <use x="63.623047" xlink:href="#DejaVuSans-52"/>
       <use x="127.246094" xlink:href="#DejaVuSans-48"/>
      </g>
     </g>
    </g>
    <g id="text_14">
     <!-- TBD -->
     <defs>
      <path d="M -0.296875 72.90625 
L 61.375 72.90625 
L 61.375 64.59375 
L 35.5 64.59375 
L 35.5 0 
L 25.59375 0 
L 25.59375 64.59375 
L -0.296875 64.59375 
z
" id="DejaVuSans-84"/>
      <path d="M 19.671875 34.8125 
L 19.671875 8.109375 
L 35.5 8.109375 
Q 43.453125 8.109375 47.28125 11.40625 
Q 51.125 14.703125 51.125 21.484375 
Q 51.125 28.328125 47.28125 31.5625 
Q 43.453125 34.8125 35.5 34.8125 
z
M 19.671875 64.796875 
L 19.671875 42.828125 
L 34.28125 42.828125 
Q 41.5 42.828125 45.03125 45.53125 
Q 48.578125 48.25 48.578125 53.8125 
Q 48.578125 59.328125 45.03125 62.0625 
Q 41.5 64.796875 34.28125 64.796875 
z
M 9.8125 72.90625 
L 35.015625 72.90625 
Q 46.296875 72.90625 52.390625 68.21875 
Q 58.5 63.53125 58.5 54.890625 
Q 58.5 48.1875 55.375 44.234375 
Q 52.25 40.28125 46.1875 39.3125 
Q 53.46875 37.75 57.5 32.78125 
Q 61.53125 27.828125 61.53125 20.40625 
Q 61.53125 10.640625 54.890625 5.3125 
Q 48.25 0 35.984375 0 
L 9.8125 0 
z
" id="DejaVuSans-66"/>
     </defs>
     <g transform="translate(231.585625 339.316562)scale(0.1 -0.1)">
      <use xlink:href="#DejaVuSans-84"/>
      <use x="61.083984" xlink:href="#DejaVuSans-66"/>
      <use x="129.6875" xlink:href="#DejaVuSans-68"/>
     </g>
    </g>
   </g>
   <g id="matplotlib.axis_4">
    <g id="ytick_4">
     <g id="line2d_24">
      <g>
       <use style="stroke:#000000;stroke-width:0.8;" x="69.12" xlink:href="#m9233f7e9fc" y="302.233741"/>
      </g>
     </g>
     <g id="text_15">
      <!-- 100 -->
      <g transform="translate(43.0325 306.03296)scale(0.1 -0.1)">
       <use xlink:href="#DejaVuSans-49"/>
       <use x="63.623047" xlink:href="#DejaVuSans-48"/>
       <use x="127.246094" xlink:href="#DejaVuSans-48"/>
      </g>
     </g>
    </g>
    <g id="ytick_5">
     <g id="line2d_25">
      <g>
       <use style="stroke:#000000;stroke-width:0.8;" x="69.12" xlink:href="#m9233f7e9fc" y="267.311426"/>
      </g>
     </g>
     <g id="text_16">
      <!-- 200 -->
      <g transform="translate(43.0325 271.110645)scale(0.1 -0.1)">
       <use xlink:href="#DejaVuSans-50"/>
       <use x="63.623047" xlink:href="#DejaVuSans-48"/>
       <use x="127.246094" xlink:href="#DejaVuSans-48"/>
      </g>
     </g>
    </g>
    <g id="ytick_6">
     <g id="line2d_26">
      <g>
       <use style="stroke:#000000;stroke-width:0.8;" x="69.12" xlink:href="#m9233f7e9fc" y="232.389111"/>
      </g>
     </g>
     <g id="text_17">
      <!-- 300 -->
      <g transform="translate(43.0325 236.18833)scale(0.1 -0.1)">
       <use xlink:href="#DejaVuSans-51"/>
       <use x="63.623047" xlink:href="#DejaVuSans-48"/>
       <use x="127.246094" xlink:href="#DejaVuSans-48"/>
      </g>
     </g>
    </g>
    <g id="ytick_7">
     <g id="line2d_27">
      <g>
       <use style="stroke:#000000;stroke-width:0.8;" x="69.12" xlink:href="#m9233f7e9fc" y="197.466797"/>
      </g>
     </g>
     <g id="text_18">
      <!-- 400 -->
      <g transform="translate(43.0325 201.266015)scale(0.1 -0.1)">
       <use xlink:href="#DejaVuSans-52"/>
       <use x="63.623047" xlink:href="#DejaVuSans-48"/>
       <use x="127.246094" xlink:href="#DejaVuSans-48"/>
      </g>
     </g>
    </g>
    <g id="ytick_8">
     <g id="line2d_28">
      <g>
       <use style="stroke:#000000;stroke-width:0.8;" x="69.12" xlink:href="#m9233f7e9fc" y="162.544482"/>
      </g>
     </g>
     <g id="text_19">
      <!-- 500 -->
      <g transform="translate(43.0325 166.3437)scale(0.1 -0.1)">
       <use xlink:href="#DejaVuSans-53"/>
       <use x="63.623047" xlink:href="#DejaVuSans-48"/>
       <use x="127.246094" xlink:href="#DejaVuSans-48"/>
      </g>
     </g>
    </g>
    <g id="ytick_9">
     <g id="line2d_29">
      <g>
       <use style="stroke:#000000;stroke-width:0.8;" x="69.12" xlink:href="#m9233f7e9fc" y="127.622167"/>
      </g>
     </g>
     <g id="text_20">
      <!-- 600 -->
      <g transform="translate(43.0325 131.421386)scale(0.1 -0.1)">
       <use xlink:href="#DejaVuSans-54"/>
       <use x="63.623047" xlink:href="#DejaVuSans-48"/>
       <use x="127.246094" xlink:href="#DejaVuSans-48"/>
      </g>
     </g>
    </g>
    <g id="text_21">
     <!-- TBD -->
     <g transform="translate(36.952813 217.694375)rotate(-90)scale(0.1 -0.1)">
      <use xlink:href="#DejaVuSans-84"/>
      <use x="61.083984" xlink:href="#DejaVuSans-66"/>
      <use x="129.6875" xlink:href="#DejaVuSans-68"/>
     </g>
    </g>
   </g>
   <g id="LineCollection_2">
    <path clip-path="url(#pafe4c2c894)" d="M 75.766154 302.404193 
L 75.766154 295.078826 
" style="fill:none;stroke:#0000ff;stroke-width:1.5;"/>
    <path clip-path="url(#pafe4c2c894)" d="M 79.97258 303.401571 
L 79.97258 296.176787 
" style="fill:none;stroke:#0000ff;stroke-width:1.5;"/>
    <path clip-path="url(#pafe4c2c894)" d="M 84.179007 304.066098 
L 84.179007 296.909153 
" style="fill:none;stroke:#0000ff;stroke-width:1.5;"/>
    <path clip-path="url(#pafe4c2c894)" d="M 88.385433 288.714686 
L 88.385433 280.132035 
" style="fill:none;stroke:#0000ff;stroke-width:1.5;"/>
    <path clip-path="url(#pafe4c2c894)" d="M 92.59186 299.074826 
L 92.59186 291.42373 
" style="fill:none;stroke:#0000ff;stroke-width:1.5;"/>
    <path clip-path="url(#pafe4c2c894)" d="M 96.798286 297.073959 
L 96.798286 289.233919 
" style="fill:none;stroke:#0000ff;stroke-width:1.5;"/>
    <path clip-path="url(#pafe4c2c894)" d="M 101.004713 290.054359 
L 101.004713 281.586147 
" style="fill:none;stroke:#0000ff;stroke-width:1.5;"/>
    <path clip-path="url(#pafe4c2c894)" d="M 105.211139 289.384619 
L 105.211139 280.858995 
" style="fill:none;stroke:#0000ff;stroke-width:1.5;"/>
    <path clip-path="url(#pafe4c2c894)" d="M 109.417566 276.626882 
L 109.417566 267.075772 
" style="fill:none;stroke:#0000ff;stroke-width:1.5;"/>
    <path clip-path="url(#pafe4c2c894)" d="M 113.623992 281.669693 
L 113.623992 272.509656 
" style="fill:none;stroke:#0000ff;stroke-width:1.5;"/>
    <path clip-path="url(#pafe4c2c894)" d="M 117.830419 271.913296 
L 117.830419 262.01111 
" style="fill:none;stroke:#0000ff;stroke-width:1.5;"/>
    <path clip-path="url(#pafe4c2c894)" d="M 122.036845 265.50678 
L 122.036845 255.147147 
" style="fill:none;stroke:#0000ff;stroke-width:1.5;"/>
    <path clip-path="url(#pafe4c2c894)" d="M 126.243272 268.542731 
L 126.243272 258.397212 
" style="fill:none;stroke:#0000ff;stroke-width:1.5;"/>
    <path clip-path="url(#pafe4c2c894)" d="M 130.449698 262.806332 
L 130.449698 252.260024 
" style="fill:none;stroke:#0000ff;stroke-width:1.5;"/>
    <path clip-path="url(#pafe4c2c894)" d="M 134.656125 252.665838 
L 134.656125 241.447129 
" style="fill:none;stroke:#0000ff;stroke-width:1.5;"/>
    <path clip-path="url(#pafe4c2c894)" d="M 138.862551 247.249585 
L 138.862551 235.688242 
" style="fill:none;stroke:#0000ff;stroke-width:1.5;"/>
    <path clip-path="url(#pafe4c2c894)" d="M 143.068978 238.437834 
L 143.068978 226.340389 
" style="fill:none;stroke:#0000ff;stroke-width:1.5;"/>
    <path clip-path="url(#pafe4c2c894)" d="M 147.275404 243.861895 
L 147.275404 232.091469 
" style="fill:none;stroke:#0000ff;stroke-width:1.5;"/>
    <path clip-path="url(#pafe4c2c894)" d="M 151.481831 234.706274 
L 151.481831 222.389039 
" style="fill:none;stroke:#0000ff;stroke-width:1.5;"/>
    <path clip-path="url(#pafe4c2c894)" d="M 155.688257 230.293772 
L 155.688257 217.721739 
" style="fill:none;stroke:#0000ff;stroke-width:1.5;"/>
    <path clip-path="url(#pafe4c2c894)" d="M 159.894684 223.160602 
L 159.894684 210.187538 
" style="fill:none;stroke:#0000ff;stroke-width:1.5;"/>
    <path clip-path="url(#pafe4c2c894)" d="M 164.10111 210.238022 
L 164.10111 196.569158 
" style="fill:none;stroke:#0000ff;stroke-width:1.5;"/>
    <path clip-path="url(#pafe4c2c894)" d="M 168.307537 199.683312 
L 168.307537 185.472033 
" style="fill:none;stroke:#0000ff;stroke-width:1.5;"/>
    <path clip-path="url(#pafe4c2c894)" d="M 172.513963 197.29857 
L 172.513963 182.96765 
" style="fill:none;stroke:#0000ff;stroke-width:1.5;"/>
    <path clip-path="url(#pafe4c2c894)" d="M 176.720389 197.979976 
L 176.720389 183.683137 
" style="fill:none;stroke:#0000ff;stroke-width:1.5;"/>
    <path clip-path="url(#pafe4c2c894)" d="M 180.926816 186.390764 
L 180.926816 171.525175 
" style="fill:none;stroke:#0000ff;stroke-width:1.5;"/>
    <path clip-path="url(#pafe4c2c894)" d="M 185.133242 190.141421 
L 185.133242 175.457428 
" style="fill:none;stroke:#0000ff;stroke-width:1.5;"/>
    <path clip-path="url(#pafe4c2c894)" d="M 189.339669 164.889736 
L 189.339669 149.024086 
" style="fill:none;stroke:#0000ff;stroke-width:1.5;"/>
    <path clip-path="url(#pafe4c2c894)" d="M 193.546095 183.321228 
L 193.546095 168.308694 
" style="fill:none;stroke:#0000ff;stroke-width:1.5;"/>
    <path clip-path="url(#pafe4c2c894)" d="M 197.752522 168.987629 
L 197.752522 153.307549 
" style="fill:none;stroke:#0000ff;stroke-width:1.5;"/>
    <path clip-path="url(#pafe4c2c894)" d="M 201.958948 167.280307 
L 201.958948 151.52264 
" style="fill:none;stroke:#0000ff;stroke-width:1.5;"/>
    <path clip-path="url(#pafe4c2c894)" d="M 206.165375 160.107508 
L 206.165375 144.028067 
" style="fill:none;stroke:#0000ff;stroke-width:1.5;"/>
    <path clip-path="url(#pafe4c2c894)" d="M 210.371801 156.690768 
L 210.371801 140.460343 
" style="fill:none;stroke:#0000ff;stroke-width:1.5;"/>
    <path clip-path="url(#pafe4c2c894)" d="M 214.578228 157.032474 
L 214.578228 140.817084 
" style="fill:none;stroke:#0000ff;stroke-width:1.5;"/>
    <path clip-path="url(#pafe4c2c894)" d="M 218.784654 139.939031 
L 218.784654 122.988212 
" style="fill:none;stroke:#0000ff;stroke-width:1.5;"/>
    <path clip-path="url(#pafe4c2c894)" d="M 222.991081 141.307095 
L 222.991081 124.413933 
" style="fill:none;stroke:#0000ff;stroke-width:1.5;"/>
    <path clip-path="url(#pafe4c2c894)" d="M 227.197507 134.465805 
L 227.197507 117.286297 
" style="fill:none;stroke:#0000ff;stroke-width:1.5;"/>
    <path clip-path="url(#pafe4c2c894)" d="M 231.403934 138.912918 
L 231.403934 121.918986 
" style="fill:none;stroke:#0000ff;stroke-width:1.5;"/>
    <path clip-path="url(#pafe4c2c894)" d="M 235.61036 134.123678 
L 235.61036 116.929978 
" style="fill:none;stroke:#0000ff;stroke-width:1.5;"/>
    <path clip-path="url(#pafe4c2c894)" d="M 239.816787 125.22636 
L 239.816787 107.667692 
" style="fill:none;stroke:#0000ff;stroke-width:1.5;"/>
    <path clip-path="url(#pafe4c2c894)" d="M 244.023213 133.097261 
L 244.023213 115.861056 
" style="fill:none;stroke:#0000ff;stroke-width:1.5;"/>
    <path clip-path="url(#pafe4c2c894)" d="M 248.22964 138.912918 
L 248.22964 121.918986 
" style="fill:none;stroke:#0000ff;stroke-width:1.5;"/>
    <path clip-path="url(#pafe4c2c894)" d="M 252.436066 138.228813 
L 252.436066 121.206199 
" style="fill:none;stroke:#0000ff;stroke-width:1.5;"/>
    <path clip-path="url(#pafe4c2c894)" d="M 256.642493 147.804036 
L 256.642493 131.187472 
" style="fill:none;stroke:#0000ff;stroke-width:1.5;"/>
    <path clip-path="url(#pafe4c2c894)" d="M 260.848919 154.640389 
L 260.848919 138.320044 
" style="fill:none;stroke:#0000ff;stroke-width:1.5;"/>
    <path clip-path="url(#pafe4c2c894)" d="M 265.055346 144.726822 
L 265.055346 127.978669 
" style="fill:none;stroke:#0000ff;stroke-width:1.5;"/>
    <path clip-path="url(#pafe4c2c894)" d="M 269.261772 150.880724 
L 269.261772 134.3968 
" style="fill:none;stroke:#0000ff;stroke-width:1.5;"/>
    <path clip-path="url(#pafe4c2c894)" d="M 273.468199 153.273333 
L 273.468199 136.893315 
" style="fill:none;stroke:#0000ff;stroke-width:1.5;"/>
    <path clip-path="url(#pafe4c2c894)" d="M 277.674625 146.094537 
L 277.674625 129.404739 
" style="fill:none;stroke:#0000ff;stroke-width:1.5;"/>
    <path clip-path="url(#pafe4c2c894)" d="M 281.881052 148.145917 
L 281.881052 131.544038 
" style="fill:none;stroke:#0000ff;stroke-width:1.5;"/>
    <path clip-path="url(#pafe4c2c894)" d="M 286.087478 162.157209 
L 286.087478 146.169043 
" style="fill:none;stroke:#0000ff;stroke-width:1.5;"/>
    <path clip-path="url(#pafe4c2c894)" d="M 290.293905 162.157209 
L 290.293905 146.169043 
" style="fill:none;stroke:#0000ff;stroke-width:1.5;"/>
    <path clip-path="url(#pafe4c2c894)" d="M 294.500331 173.767097 
L 294.500331 158.306329 
" style="fill:none;stroke:#0000ff;stroke-width:1.5;"/>
    <path clip-path="url(#pafe4c2c894)" d="M 298.706758 171.377556 
L 298.706758 155.806746 
" style="fill:none;stroke:#0000ff;stroke-width:1.5;"/>
    <path clip-path="url(#pafe4c2c894)" d="M 302.913184 195.594879 
L 302.913184 181.17911 
" style="fill:none;stroke:#0000ff;stroke-width:1.5;"/>
    <path clip-path="url(#pafe4c2c894)" d="M 307.119611 184.00341 
L 307.119611 169.023406 
" style="fill:none;stroke:#0000ff;stroke-width:1.5;"/>
    <path clip-path="url(#pafe4c2c894)" d="M 311.326037 199.002009 
L 311.326037 184.756444 
" style="fill:none;stroke:#0000ff;stroke-width:1.5;"/>
    <path clip-path="url(#pafe4c2c894)" d="M 315.532463 200.023949 
L 315.532463 185.829843 
" style="fill:none;stroke:#0000ff;stroke-width:1.5;"/>
    <path clip-path="url(#pafe4c2c894)" d="M 319.73889 200.70519 
L 319.73889 186.545494 
" style="fill:none;stroke:#0000ff;stroke-width:1.5;"/>
    <path clip-path="url(#pafe4c2c894)" d="M 323.945316 199.683312 
L 323.945316 185.472033 
" style="fill:none;stroke:#0000ff;stroke-width:1.5;"/>
    <path clip-path="url(#pafe4c2c894)" d="M 328.151743 217.041648 
L 328.151743 203.734458 
" style="fill:none;stroke:#0000ff;stroke-width:1.5;"/>
    <path clip-path="url(#pafe4c2c894)" d="M 332.358169 219.761706 
L 332.358169 206.60197 
" style="fill:none;stroke:#0000ff;stroke-width:1.5;"/>
    <path clip-path="url(#pafe4c2c894)" d="M 336.564596 232.330636 
L 336.564596 219.875554 
" style="fill:none;stroke:#0000ff;stroke-width:1.5;"/>
    <path clip-path="url(#pafe4c2c894)" d="M 340.771022 236.063433 
L 340.771022 223.825665 
" style="fill:none;stroke:#0000ff;stroke-width:1.5;"/>
    <path clip-path="url(#pafe4c2c894)" d="M 344.977449 246.572198 
L 344.977449 234.968736 
" style="fill:none;stroke:#0000ff;stroke-width:1.5;"/>
    <path clip-path="url(#pafe4c2c894)" d="M 349.183875 240.133332 
L 349.183875 228.137123 
" style="fill:none;stroke:#0000ff;stroke-width:1.5;"/>
    <path clip-path="url(#pafe4c2c894)" d="M 353.390302 259.428499 
L 353.390302 248.653394 
" style="fill:none;stroke:#0000ff;stroke-width:1.5;"/>
    <path clip-path="url(#pafe4c2c894)" d="M 357.596728 260.779926 
L 357.596728 250.095752 
" style="fill:none;stroke:#0000ff;stroke-width:1.5;"/>
    <path clip-path="url(#pafe4c2c894)" d="M 361.803155 266.856367 
L 361.803155 256.591345 
" style="fill:none;stroke:#0000ff;stroke-width:1.5;"/>
    <path clip-path="url(#pafe4c2c894)" d="M 366.009581 274.607551 
L 366.009581 264.904425 
" style="fill:none;stroke:#0000ff;stroke-width:1.5;"/>
    <path clip-path="url(#pafe4c2c894)" d="M 370.216008 271.239421 
L 370.216008 261.288093 
" style="fill:none;stroke:#0000ff;stroke-width:1.5;"/>
    <path clip-path="url(#pafe4c2c894)" d="M 374.422434 278.644983 
L 374.422434 269.248349 
" style="fill:none;stroke:#0000ff;stroke-width:1.5;"/>
    <path clip-path="url(#pafe4c2c894)" d="M 378.628861 280.32575 
L 378.628861 271.059813 
" style="fill:none;stroke:#0000ff;stroke-width:1.5;"/>
    <path clip-path="url(#pafe4c2c894)" d="M 382.835287 292.731318 
L 382.835287 284.496758 
" style="fill:none;stroke:#0000ff;stroke-width:1.5;"/>
    <path clip-path="url(#pafe4c2c894)" d="M 387.041714 290.723903 
L 387.041714 282.313496 
" style="fill:none;stroke:#0000ff;stroke-width:1.5;"/>
    <path clip-path="url(#pafe4c2c894)" d="M 391.24814 290.054359 
L 391.24814 281.586147 
" style="fill:none;stroke:#0000ff;stroke-width:1.5;"/>
    <path clip-path="url(#pafe4c2c894)" d="M 395.454567 302.736729 
L 395.454567 295.444736 
" style="fill:none;stroke:#0000ff;stroke-width:1.5;"/>
    <path clip-path="url(#pafe4c2c894)" d="M 399.660993 300.407419 
L 399.660993 292.884922 
" style="fill:none;stroke:#0000ff;stroke-width:1.5;"/>
    <path clip-path="url(#pafe4c2c894)" d="M 403.86742 306.72086 
L 403.86742 299.841961 
" style="fill:none;stroke:#0000ff;stroke-width:1.5;"/>
    <path clip-path="url(#pafe4c2c894)" d="M 408.073846 307.052308 
L 408.073846 300.20896 
" style="fill:none;stroke:#0000ff;stroke-width:1.5;"/>
   </g>
   <g id="line2d_30">
    <path clip-path="url(#pafe4c2c894)" d="M 75.766154 307.787812 
L 80.423119 304.486391 
L 85.080083 300.922495 
L 89.737048 297.089966 
L 94.394012 292.984516 
L 99.383617 288.280556 
L 104.373222 283.261226 
L 109.362827 277.930353 
L 114.685073 271.909313 
L 120.007318 265.556718 
L 125.662204 258.465962 
L 131.64973 250.608731 
L 138.302536 241.511839 
L 145.953264 230.669753 
L 156.597755 215.161948 
L 172.897131 191.413838 
L 180.215218 181.16996 
L 186.202744 173.159689 
L 191.52499 166.405754 
L 196.181954 160.834841 
L 200.506279 155.985609 
L 204.497963 151.816299 
L 208.489647 147.967682 
L 212.14869 144.741817 
L 215.807734 141.822352 
L 219.134137 139.44726 
L 222.460541 137.348761 
L 225.454304 135.704374 
L 228.448067 134.297628 
L 231.44183 133.133673 
L 234.435593 132.216791 
L 237.429356 131.550365 
L 240.423119 131.136859 
L 243.084241 130.982887 
L 245.745364 131.030428 
L 248.406486 131.279344 
L 251.067609 131.728905 
L 254.061372 132.472833 
L 257.055135 133.466271 
L 260.048898 134.705556 
L 263.042661 136.186138 
L 266.036424 137.902602 
L 269.362827 140.078818 
L 272.689231 142.528819 
L 276.015634 145.241766 
L 279.674678 148.515493 
L 283.333721 152.075808 
L 287.325405 156.264948 
L 291.64973 161.133763 
L 296.306694 166.723447 
L 301.296299 173.061707 
L 306.951185 180.612422 
L 313.603992 189.886786 
L 322.25264 202.363968 
L 347.200665 238.612313 
L 354.518753 248.716558 
L 360.838919 257.083062 
L 366.826445 264.647687 
L 372.481331 271.434058 
L 377.803576 277.481076 
L 383.125821 283.183205 
L 388.115426 288.207266 
L 393.105031 292.915989 
L 398.094636 297.308947 
L 403.084241 301.388844 
L 407.741206 304.919103 
L 408.073846 305.16117 
L 408.073846 305.16117 
" style="fill:none;stroke:#ff0000;stroke-linecap:square;stroke-width:1.5;"/>
   </g>
   <g id="line2d_31">
    <g clip-path="url(#pafe4c2c894)">
     <use style="fill:#0000ff;stroke:#0000ff;" x="75.766154" xlink:href="#m8ee6662336" y="298.74151"/>
     <use style="fill:#0000ff;stroke:#0000ff;" x="79.97258" xlink:href="#m8ee6662336" y="299.789179"/>
     <use style="fill:#0000ff;stroke:#0000ff;" x="84.179007" xlink:href="#m8ee6662336" y="300.487625"/>
     <use style="fill:#0000ff;stroke:#0000ff;" x="88.385433" xlink:href="#m8ee6662336" y="284.42336"/>
     <use style="fill:#0000ff;stroke:#0000ff;" x="92.59186" xlink:href="#m8ee6662336" y="295.249278"/>
     <use style="fill:#0000ff;stroke:#0000ff;" x="96.798286" xlink:href="#m8ee6662336" y="293.153939"/>
     <use style="fill:#0000ff;stroke:#0000ff;" x="101.004713" xlink:href="#m8ee6662336" y="285.820253"/>
     <use style="fill:#0000ff;stroke:#0000ff;" x="105.211139" xlink:href="#m8ee6662336" y="285.121807"/>
     <use style="fill:#0000ff;stroke:#0000ff;" x="109.417566" xlink:href="#m8ee6662336" y="271.851327"/>
     <use style="fill:#0000ff;stroke:#0000ff;" x="113.623992" xlink:href="#m8ee6662336" y="277.089674"/>
     <use style="fill:#0000ff;stroke:#0000ff;" x="117.830419" xlink:href="#m8ee6662336" y="266.962203"/>
     <use style="fill:#0000ff;stroke:#0000ff;" x="122.036845" xlink:href="#m8ee6662336" y="260.326963"/>
     <use style="fill:#0000ff;stroke:#0000ff;" x="126.243272" xlink:href="#m8ee6662336" y="263.469972"/>
     <use style="fill:#0000ff;stroke:#0000ff;" x="130.449698" xlink:href="#m8ee6662336" y="257.533178"/>
     <use style="fill:#0000ff;stroke:#0000ff;" x="134.656125" xlink:href="#m8ee6662336" y="247.056484"/>
     <use style="fill:#0000ff;stroke:#0000ff;" x="138.862551" xlink:href="#m8ee6662336" y="241.468913"/>
     <use style="fill:#0000ff;stroke:#0000ff;" x="143.068978" xlink:href="#m8ee6662336" y="232.389111"/>
     <use style="fill:#0000ff;stroke:#0000ff;" x="147.275404" xlink:href="#m8ee6662336" y="237.976682"/>
     <use style="fill:#0000ff;stroke:#0000ff;" x="151.481831" xlink:href="#m8ee6662336" y="228.547657"/>
     <use style="fill:#0000ff;stroke:#0000ff;" x="155.688257" xlink:href="#m8ee6662336" y="224.007756"/>
     <use style="fill:#0000ff;stroke:#0000ff;" x="159.894684" xlink:href="#m8ee6662336" y="216.67407"/>
     <use style="fill:#0000ff;stroke:#0000ff;" x="164.10111" xlink:href="#m8ee6662336" y="203.40359"/>
     <use style="fill:#0000ff;stroke:#0000ff;" x="168.307537" xlink:href="#m8ee6662336" y="192.577672"/>
     <use style="fill:#0000ff;stroke:#0000ff;" x="172.513963" xlink:href="#m8ee6662336" y="190.13311"/>
     <use style="fill:#0000ff;stroke:#0000ff;" x="176.720389" xlink:href="#m8ee6662336" y="190.831557"/>
     <use style="fill:#0000ff;stroke:#0000ff;" x="180.926816" xlink:href="#m8ee6662336" y="178.95797"/>
     <use style="fill:#0000ff;stroke:#0000ff;" x="185.133242" xlink:href="#m8ee6662336" y="182.799424"/>
     <use style="fill:#0000ff;stroke:#0000ff;" x="189.339669" xlink:href="#m8ee6662336" y="156.956911"/>
     <use style="fill:#0000ff;stroke:#0000ff;" x="193.546095" xlink:href="#m8ee6662336" y="175.814961"/>
     <use style="fill:#0000ff;stroke:#0000ff;" x="197.752522" xlink:href="#m8ee6662336" y="161.147589"/>
     <use style="fill:#0000ff;stroke:#0000ff;" x="201.958948" xlink:href="#m8ee6662336" y="159.401473"/>
     <use style="fill:#0000ff;stroke:#0000ff;" x="206.165375" xlink:href="#m8ee6662336" y="152.067787"/>
     <use style="fill:#0000ff;stroke:#0000ff;" x="210.371801" xlink:href="#m8ee6662336" y="148.575556"/>
     <use style="fill:#0000ff;stroke:#0000ff;" x="214.578228" xlink:href="#m8ee6662336" y="148.924779"/>
     <use style="fill:#0000ff;stroke:#0000ff;" x="218.784654" xlink:href="#m8ee6662336" y="131.463621"/>
     <use style="fill:#0000ff;stroke:#0000ff;" x="222.991081" xlink:href="#m8ee6662336" y="132.860514"/>
     <use style="fill:#0000ff;stroke:#0000ff;" x="227.197507" xlink:href="#m8ee6662336" y="125.876051"/>
     <use style="fill:#0000ff;stroke:#0000ff;" x="231.403934" xlink:href="#m8ee6662336" y="130.415952"/>
     <use style="fill:#0000ff;stroke:#0000ff;" x="235.61036" xlink:href="#m8ee6662336" y="125.526828"/>
     <use style="fill:#0000ff;stroke:#0000ff;" x="239.816787" xlink:href="#m8ee6662336" y="116.447026"/>
     <use style="fill:#0000ff;stroke:#0000ff;" x="244.023213" xlink:href="#m8ee6662336" y="124.479159"/>
     <use style="fill:#0000ff;stroke:#0000ff;" x="248.22964" xlink:href="#m8ee6662336" y="130.415952"/>
     <use style="fill:#0000ff;stroke:#0000ff;" x="252.436066" xlink:href="#m8ee6662336" y="129.717506"/>
     <use style="fill:#0000ff;stroke:#0000ff;" x="256.642493" xlink:href="#m8ee6662336" y="139.495754"/>
     <use style="fill:#0000ff;stroke:#0000ff;" x="260.848919" xlink:href="#m8ee6662336" y="146.480217"/>
     <use style="fill:#0000ff;stroke:#0000ff;" x="265.055346" xlink:href="#m8ee6662336" y="136.352746"/>
     <use style="fill:#0000ff;stroke:#0000ff;" x="269.261772" xlink:href="#m8ee6662336" y="142.638762"/>
     <use style="fill:#0000ff;stroke:#0000ff;" x="273.468199" xlink:href="#m8ee6662336" y="145.083324"/>
     <use style="fill:#0000ff;stroke:#0000ff;" x="277.674625" xlink:href="#m8ee6662336" y="137.749638"/>
     <use style="fill:#0000ff;stroke:#0000ff;" x="281.881052" xlink:href="#m8ee6662336" y="139.844977"/>
     <use style="fill:#0000ff;stroke:#0000ff;" x="286.087478" xlink:href="#m8ee6662336" y="154.163126"/>
     <use style="fill:#0000ff;stroke:#0000ff;" x="290.293905" xlink:href="#m8ee6662336" y="154.163126"/>
     <use style="fill:#0000ff;stroke:#0000ff;" x="294.500331" xlink:href="#m8ee6662336" y="166.036713"/>
     <use style="fill:#0000ff;stroke:#0000ff;" x="298.706758" xlink:href="#m8ee6662336" y="163.592151"/>
     <use style="fill:#0000ff;stroke:#0000ff;" x="302.913184" xlink:href="#m8ee6662336" y="188.386995"/>
     <use style="fill:#0000ff;stroke:#0000ff;" x="307.119611" xlink:href="#m8ee6662336" y="176.513408"/>
     <use style="fill:#0000ff;stroke:#0000ff;" x="311.326037" xlink:href="#m8ee6662336" y="191.879226"/>
     <use style="fill:#0000ff;stroke:#0000ff;" x="315.532463" xlink:href="#m8ee6662336" y="192.926896"/>
     <use style="fill:#0000ff;stroke:#0000ff;" x="319.73889" xlink:href="#m8ee6662336" y="193.625342"/>
     <use style="fill:#0000ff;stroke:#0000ff;" x="323.945316" xlink:href="#m8ee6662336" y="192.577672"/>
     <use style="fill:#0000ff;stroke:#0000ff;" x="328.151743" xlink:href="#m8ee6662336" y="210.388053"/>
     <use style="fill:#0000ff;stroke:#0000ff;" x="332.358169" xlink:href="#m8ee6662336" y="213.181838"/>
     <use style="fill:#0000ff;stroke:#0000ff;" x="336.564596" xlink:href="#m8ee6662336" y="226.103095"/>
     <use style="fill:#0000ff;stroke:#0000ff;" x="340.771022" xlink:href="#m8ee6662336" y="229.944549"/>
     <use style="fill:#0000ff;stroke:#0000ff;" x="344.977449" xlink:href="#m8ee6662336" y="240.770467"/>
     <use style="fill:#0000ff;stroke:#0000ff;" x="349.183875" xlink:href="#m8ee6662336" y="234.135227"/>
     <use style="fill:#0000ff;stroke:#0000ff;" x="353.390302" xlink:href="#m8ee6662336" y="254.040947"/>
     <use style="fill:#0000ff;stroke:#0000ff;" x="357.596728" xlink:href="#m8ee6662336" y="255.437839"/>
     <use style="fill:#0000ff;stroke:#0000ff;" x="361.803155" xlink:href="#m8ee6662336" y="261.723856"/>
     <use style="fill:#0000ff;stroke:#0000ff;" x="366.009581" xlink:href="#m8ee6662336" y="269.755988"/>
     <use style="fill:#0000ff;stroke:#0000ff;" x="370.216008" xlink:href="#m8ee6662336" y="266.263757"/>
     <use style="fill:#0000ff;stroke:#0000ff;" x="374.422434" xlink:href="#m8ee6662336" y="273.946666"/>
     <use style="fill:#0000ff;stroke:#0000ff;" x="378.628861" xlink:href="#m8ee6662336" y="275.692782"/>
     <use style="fill:#0000ff;stroke:#0000ff;" x="382.835287" xlink:href="#m8ee6662336" y="288.614038"/>
     <use style="fill:#0000ff;stroke:#0000ff;" x="387.041714" xlink:href="#m8ee6662336" y="286.518699"/>
     <use style="fill:#0000ff;stroke:#0000ff;" x="391.24814" xlink:href="#m8ee6662336" y="285.820253"/>
     <use style="fill:#0000ff;stroke:#0000ff;" x="395.454567" xlink:href="#m8ee6662336" y="299.090733"/>
     <use style="fill:#0000ff;stroke:#0000ff;" x="399.660993" xlink:href="#m8ee6662336" y="296.646171"/>
     <use style="fill:#0000ff;stroke:#0000ff;" x="403.86742" xlink:href="#m8ee6662336" y="303.28141"/>
     <use style="fill:#0000ff;stroke:#0000ff;" x="408.073846" xlink:href="#m8ee6662336" y="303.630634"/>
    </g>
   </g>
   <g id="patch_8">
    <path d="M 69.12 311.04 
L 69.12 103.68 
" style="fill:none;stroke:#000000;stroke-linecap:square;stroke-linejoin:miter;stroke-width:0.8;"/>
   </g>
   <g id="patch_9">
    <path d="M 414.72 311.04 
L 414.72 103.68 
" style="fill:none;stroke:#000000;stroke-linecap:square;stroke-linejoin:miter;stroke-width:0.8;"/>
   </g>
   <g id="patch_10">
    <path d="M 69.12 311.04 
L 414.72 311.04 
" style="fill:none;stroke:#000000;stroke-linecap:square;stroke-linejoin:miter;stroke-width:0.8;"/>
   </g>
   <g id="patch_11">
    <path d="M 69.12 103.68 
L 414.72 103.68 
" style="fill:none;stroke:#000000;stroke-linecap:square;stroke-linejoin:miter;stroke-width:0.8;"/>
   </g>
  </g>
 </g>
 <defs>
  <clipPath id="pc3e25267a0">
   <rect height="51.84" width="345.6" x="69.12" y="44.928"/>
  </clipPath>
  <clipPath id="pafe4c2c894">
   <rect height="207.36" width="345.6" x="69.12" y="103.68"/>
  </clipPath>
 </defs>
</svg>
