<?xml version="1.0" encoding="utf-8" standalone="no"?>
<!DOCTYPE svg PUBLIC "-//W3C//DTD SVG 1.1//EN"
  "http://www.w3.org/Graphics/SVG/1.1/DTD/svg11.dtd">
<!-- Created with matplotlib (https://matplotlib.org/) -->
<svg height="1289.52pt" version="1.1" viewBox="0 0 2160 1289.52" width="2160pt" xmlns="http://www.w3.org/2000/svg" xmlns:xlink="http://www.w3.org/1999/xlink">
 <defs>
  <style type="text/css">
*{stroke-linecap:butt;stroke-linejoin:round;}
  </style>
 </defs>
 <g id="figure_1">
  <g id="patch_1">
   <path d="M 0 1289.52 
L 2160 1289.52 
L 2160 0 
L 0 0 
z
" style="fill:#ffffff;"/>
  </g>
  <g id="axes_1">
   <g id="patch_2">
    <path d="M 324 1096.092 
L 1512 1096.092 
L 1512 128.952 
L 324 128.952 
z
" style="fill:#ffffff;"/>
   </g>
   <g id="matplotlib.axis_1">
    <g id="xtick_1">
     <g id="line2d_1">
      <defs>
       <path d="M 0 0 
L 0 3.5 
" id="m0e73136873" style="stroke:#000000;stroke-width:0.8;"/>
      </defs>
      <g>
       <use style="stroke:#000000;stroke-width:0.8;" x="346.846154" xlink:href="#m0e73136873" y="1096.092"/>
      </g>
     </g>
     <g id="text_1">
      <!-- 0 -->
      <defs>
       <path d="M 31.78125 66.40625 
Q 24.171875 66.40625 20.328125 58.90625 
Q 16.5 51.421875 16.5 36.375 
Q 16.5 21.390625 20.328125 13.890625 
Q 24.171875 6.390625 31.78125 6.390625 
Q 39.453125 6.390625 43.28125 13.890625 
Q 47.125 21.390625 47.125 36.375 
Q 47.125 51.421875 43.28125 58.90625 
Q 39.453125 66.40625 31.78125 66.40625 
z
M 31.78125 74.21875 
Q 44.046875 74.21875 50.515625 64.515625 
Q 56.984375 54.828125 56.984375 36.375 
Q 56.984375 17.96875 50.515625 8.265625 
Q 44.046875 -1.421875 31.78125 -1.421875 
Q 19.53125 -1.421875 13.0625 8.265625 
Q 6.59375 17.96875 6.59375 36.375 
Q 6.59375 54.828125 13.0625 64.515625 
Q 19.53125 74.21875 31.78125 74.21875 
z
" id="DejaVuSans-48"/>
      </defs>
      <g transform="translate(343.664904 1110.690437)scale(0.1 -0.1)">
       <use xlink:href="#DejaVuSans-48"/>
      </g>
     </g>
    </g>
    <g id="xtick_2">
     <g id="line2d_2">
      <g>
       <use style="stroke:#000000;stroke-width:0.8;" x="570.171216" xlink:href="#m0e73136873" y="1096.092"/>
      </g>
     </g>
     <g id="text_2">
      <!-- 200 -->
      <defs>
       <path d="M 19.1875 8.296875 
L 53.609375 8.296875 
L 53.609375 0 
L 7.328125 0 
L 7.328125 8.296875 
Q 12.9375 14.109375 22.625 23.890625 
Q 32.328125 33.6875 34.8125 36.53125 
Q 39.546875 41.84375 41.421875 45.53125 
Q 43.3125 49.21875 43.3125 52.78125 
Q 43.3125 58.59375 39.234375 62.25 
Q 35.15625 65.921875 28.609375 65.921875 
Q 23.96875 65.921875 18.8125 64.3125 
Q 13.671875 62.703125 7.8125 59.421875 
L 7.8125 69.390625 
Q 13.765625 71.78125 18.9375 73 
Q 24.125 74.21875 28.421875 74.21875 
Q 39.75 74.21875 46.484375 68.546875 
Q 53.21875 62.890625 53.21875 53.421875 
Q 53.21875 48.921875 51.53125 44.890625 
Q 49.859375 40.875 45.40625 35.40625 
Q 44.1875 33.984375 37.640625 27.21875 
Q 31.109375 20.453125 19.1875 8.296875 
z
" id="DejaVuSans-50"/>
      </defs>
      <g transform="translate(560.627466 1110.690437)scale(0.1 -0.1)">
       <use xlink:href="#DejaVuSans-50"/>
       <use x="63.623047" xlink:href="#DejaVuSans-48"/>
       <use x="127.246094" xlink:href="#DejaVuSans-48"/>
      </g>
     </g>
    </g>
    <g id="xtick_3">
     <g id="line2d_3">
      <g>
       <use style="stroke:#000000;stroke-width:0.8;" x="793.496278" xlink:href="#m0e73136873" y="1096.092"/>
      </g>
     </g>
     <g id="text_3">
      <!-- 400 -->
      <defs>
       <path d="M 37.796875 64.3125 
L 12.890625 25.390625 
L 37.796875 25.390625 
z
M 35.203125 72.90625 
L 47.609375 72.90625 
L 47.609375 25.390625 
L 58.015625 25.390625 
L 58.015625 17.1875 
L 47.609375 17.1875 
L 47.609375 0 
L 37.796875 0 
L 37.796875 17.1875 
L 4.890625 17.1875 
L 4.890625 26.703125 
z
" id="DejaVuSans-52"/>
      </defs>
      <g transform="translate(783.952528 1110.690437)scale(0.1 -0.1)">
       <use xlink:href="#DejaVuSans-52"/>
       <use x="63.623047" xlink:href="#DejaVuSans-48"/>
       <use x="127.246094" xlink:href="#DejaVuSans-48"/>
      </g>
     </g>
    </g>
    <g id="xtick_4">
     <g id="line2d_4">
      <g>
       <use style="stroke:#000000;stroke-width:0.8;" x="1016.82134" xlink:href="#m0e73136873" y="1096.092"/>
      </g>
     </g>
     <g id="text_4">
      <!-- 600 -->
      <defs>
       <path d="M 33.015625 40.375 
Q 26.375 40.375 22.484375 35.828125 
Q 18.609375 31.296875 18.609375 23.390625 
Q 18.609375 15.53125 22.484375 10.953125 
Q 26.375 6.390625 33.015625 6.390625 
Q 39.65625 6.390625 43.53125 10.953125 
Q 47.40625 15.53125 47.40625 23.390625 
Q 47.40625 31.296875 43.53125 35.828125 
Q 39.65625 40.375 33.015625 40.375 
z
M 52.59375 71.296875 
L 52.59375 62.3125 
Q 48.875 64.0625 45.09375 64.984375 
Q 41.3125 65.921875 37.59375 65.921875 
Q 27.828125 65.921875 22.671875 59.328125 
Q 17.53125 52.734375 16.796875 39.40625 
Q 19.671875 43.65625 24.015625 45.921875 
Q 28.375 48.1875 33.59375 48.1875 
Q 44.578125 48.1875 50.953125 41.515625 
Q 57.328125 34.859375 57.328125 23.390625 
Q 57.328125 12.15625 50.6875 5.359375 
Q 44.046875 -1.421875 33.015625 -1.421875 
Q 20.359375 -1.421875 13.671875 8.265625 
Q 6.984375 17.96875 6.984375 36.375 
Q 6.984375 53.65625 15.1875 63.9375 
Q 23.390625 74.21875 37.203125 74.21875 
Q 40.921875 74.21875 44.703125 73.484375 
Q 48.484375 72.75 52.59375 71.296875 
z
" id="DejaVuSans-54"/>
      </defs>
      <g transform="translate(1007.27759 1110.690437)scale(0.1 -0.1)">
       <use xlink:href="#DejaVuSans-54"/>
       <use x="63.623047" xlink:href="#DejaVuSans-48"/>
       <use x="127.246094" xlink:href="#DejaVuSans-48"/>
      </g>
     </g>
    </g>
    <g id="xtick_5">
     <g id="line2d_5">
      <g>
       <use style="stroke:#000000;stroke-width:0.8;" x="1240.146402" xlink:href="#m0e73136873" y="1096.092"/>
      </g>
     </g>
     <g id="text_5">
      <!-- 800 -->
      <defs>
       <path d="M 31.78125 34.625 
Q 24.75 34.625 20.71875 30.859375 
Q 16.703125 27.09375 16.703125 20.515625 
Q 16.703125 13.921875 20.71875 10.15625 
Q 24.75 6.390625 31.78125 6.390625 
Q 38.8125 6.390625 42.859375 10.171875 
Q 46.921875 13.96875 46.921875 20.515625 
Q 46.921875 27.09375 42.890625 30.859375 
Q 38.875 34.625 31.78125 34.625 
z
M 21.921875 38.8125 
Q 15.578125 40.375 12.03125 44.71875 
Q 8.5 49.078125 8.5 55.328125 
Q 8.5 64.0625 14.71875 69.140625 
Q 20.953125 74.21875 31.78125 74.21875 
Q 42.671875 74.21875 48.875 69.140625 
Q 55.078125 64.0625 55.078125 55.328125 
Q 55.078125 49.078125 51.53125 44.71875 
Q 48 40.375 41.703125 38.8125 
Q 48.828125 37.15625 52.796875 32.3125 
Q 56.78125 27.484375 56.78125 20.515625 
Q 56.78125 9.90625 50.3125 4.234375 
Q 43.84375 -1.421875 31.78125 -1.421875 
Q 19.734375 -1.421875 13.25 4.234375 
Q 6.78125 9.90625 6.78125 20.515625 
Q 6.78125 27.484375 10.78125 32.3125 
Q 14.796875 37.15625 21.921875 38.8125 
z
M 18.3125 54.390625 
Q 18.3125 48.734375 21.84375 45.5625 
Q 25.390625 42.390625 31.78125 42.390625 
Q 38.140625 42.390625 41.71875 45.5625 
Q 45.3125 48.734375 45.3125 54.390625 
Q 45.3125 60.0625 41.71875 63.234375 
Q 38.140625 66.40625 31.78125 66.40625 
Q 25.390625 66.40625 21.84375 63.234375 
Q 18.3125 60.0625 18.3125 54.390625 
z
" id="DejaVuSans-56"/>
      </defs>
      <g transform="translate(1230.602652 1110.690437)scale(0.1 -0.1)">
       <use xlink:href="#DejaVuSans-56"/>
       <use x="63.623047" xlink:href="#DejaVuSans-48"/>
       <use x="127.246094" xlink:href="#DejaVuSans-48"/>
      </g>
     </g>
    </g>
    <g id="xtick_6">
     <g id="line2d_6">
      <g>
       <use style="stroke:#000000;stroke-width:0.8;" x="1463.471464" xlink:href="#m0e73136873" y="1096.092"/>
      </g>
     </g>
     <g id="text_6">
      <!-- 1000 -->
      <defs>
       <path d="M 12.40625 8.296875 
L 28.515625 8.296875 
L 28.515625 63.921875 
L 10.984375 60.40625 
L 10.984375 69.390625 
L 28.421875 72.90625 
L 38.28125 72.90625 
L 38.28125 8.296875 
L 54.390625 8.296875 
L 54.390625 0 
L 12.40625 0 
z
" id="DejaVuSans-49"/>
      </defs>
      <g transform="translate(1450.746464 1110.690437)scale(0.1 -0.1)">
       <use xlink:href="#DejaVuSans-49"/>
       <use x="63.623047" xlink:href="#DejaVuSans-48"/>
       <use x="127.246094" xlink:href="#DejaVuSans-48"/>
       <use x="190.869141" xlink:href="#DejaVuSans-48"/>
      </g>
     </g>
    </g>
    <g id="text_7">
     <!-- Bin -->
     <defs>
      <path d="M 19.671875 34.8125 
L 19.671875 8.109375 
L 35.5 8.109375 
Q 43.453125 8.109375 47.28125 11.40625 
Q 51.125 14.703125 51.125 21.484375 
Q 51.125 28.328125 47.28125 31.5625 
Q 43.453125 34.8125 35.5 34.8125 
z
M 19.671875 64.796875 
L 19.671875 42.828125 
L 34.28125 42.828125 
Q 41.5 42.828125 45.03125 45.53125 
Q 48.578125 48.25 48.578125 53.8125 
Q 48.578125 59.328125 45.03125 62.0625 
Q 41.5 64.796875 34.28125 64.796875 
z
M 9.8125 72.90625 
L 35.015625 72.90625 
Q 46.296875 72.90625 52.390625 68.21875 
Q 58.5 63.53125 58.5 54.890625 
Q 58.5 48.1875 55.375 44.234375 
Q 52.25 40.28125 46.1875 39.3125 
Q 53.46875 37.75 57.5 32.78125 
Q 61.53125 27.828125 61.53125 20.40625 
Q 61.53125 10.640625 54.890625 5.3125 
Q 48.25 0 35.984375 0 
L 9.8125 0 
z
" id="DejaVuSans-66"/>
      <path d="M 9.421875 54.6875 
L 18.40625 54.6875 
L 18.40625 0 
L 9.421875 0 
z
M 9.421875 75.984375 
L 18.40625 75.984375 
L 18.40625 64.59375 
L 9.421875 64.59375 
z
" id="DejaVuSans-105"/>
      <path d="M 54.890625 33.015625 
L 54.890625 0 
L 45.90625 0 
L 45.90625 32.71875 
Q 45.90625 40.484375 42.875 44.328125 
Q 39.84375 48.1875 33.796875 48.1875 
Q 26.515625 48.1875 22.3125 43.546875 
Q 18.109375 38.921875 18.109375 30.90625 
L 18.109375 0 
L 9.078125 0 
L 9.078125 54.6875 
L 18.109375 54.6875 
L 18.109375 46.1875 
Q 21.34375 51.125 25.703125 53.5625 
Q 30.078125 56 35.796875 56 
Q 45.21875 56 50.046875 50.171875 
Q 54.890625 44.34375 54.890625 33.015625 
z
" id="DejaVuSans-110"/>
     </defs>
     <g transform="translate(910.011719 1124.368563)scale(0.1 -0.1)">
      <use xlink:href="#DejaVuSans-66"/>
      <use x="68.603516" xlink:href="#DejaVuSans-105"/>
      <use x="96.386719" xlink:href="#DejaVuSans-110"/>
     </g>
    </g>
   </g>
   <g id="matplotlib.axis_2">
    <g id="ytick_1">
     <g id="line2d_7">
      <defs>
       <path d="M 0 0 
L -3.5 0 
" id="mf78f68a0c3" style="stroke:#000000;stroke-width:0.8;"/>
      </defs>
      <g>
       <use style="stroke:#000000;stroke-width:0.8;" x="324" xlink:href="#mf78f68a0c3" y="1049.233905"/>
      </g>
     </g>
     <g id="text_8">
      <!-- −500 -->
      <defs>
       <path d="M 10.59375 35.5 
L 73.1875 35.5 
L 73.1875 27.203125 
L 10.59375 27.203125 
z
" id="DejaVuSans-8722"/>
       <path d="M 10.796875 72.90625 
L 49.515625 72.90625 
L 49.515625 64.59375 
L 19.828125 64.59375 
L 19.828125 46.734375 
Q 21.96875 47.46875 24.109375 47.828125 
Q 26.265625 48.1875 28.421875 48.1875 
Q 40.625 48.1875 47.75 41.5 
Q 54.890625 34.8125 54.890625 23.390625 
Q 54.890625 11.625 47.5625 5.09375 
Q 40.234375 -1.421875 26.90625 -1.421875 
Q 22.3125 -1.421875 17.546875 -0.640625 
Q 12.796875 0.140625 7.71875 1.703125 
L 7.71875 11.625 
Q 12.109375 9.234375 16.796875 8.0625 
Q 21.484375 6.890625 26.703125 6.890625 
Q 35.15625 6.890625 40.078125 11.328125 
Q 45.015625 15.765625 45.015625 23.390625 
Q 45.015625 31 40.078125 35.4375 
Q 35.15625 39.890625 26.703125 39.890625 
Q 22.75 39.890625 18.8125 39.015625 
Q 14.890625 38.140625 10.796875 36.28125 
z
" id="DejaVuSans-53"/>
      </defs>
      <g transform="translate(289.532812 1053.033123)scale(0.1 -0.1)">
       <use xlink:href="#DejaVuSans-8722"/>
       <use x="83.789062" xlink:href="#DejaVuSans-53"/>
       <use x="147.412109" xlink:href="#DejaVuSans-48"/>
       <use x="211.035156" xlink:href="#DejaVuSans-48"/>
      </g>
     </g>
    </g>
    <g id="ytick_2">
     <g id="line2d_8">
      <g>
       <use style="stroke:#000000;stroke-width:0.8;" x="324" xlink:href="#mf78f68a0c3" y="890.654401"/>
      </g>
     </g>
     <g id="text_9">
      <!-- 0 -->
      <g transform="translate(310.6375 894.45362)scale(0.1 -0.1)">
       <use xlink:href="#DejaVuSans-48"/>
      </g>
     </g>
    </g>
    <g id="ytick_3">
     <g id="line2d_9">
      <g>
       <use style="stroke:#000000;stroke-width:0.8;" x="324" xlink:href="#mf78f68a0c3" y="732.074897"/>
      </g>
     </g>
     <g id="text_10">
      <!-- 500 -->
      <g transform="translate(297.9125 735.874116)scale(0.1 -0.1)">
       <use xlink:href="#DejaVuSans-53"/>
       <use x="63.623047" xlink:href="#DejaVuSans-48"/>
       <use x="127.246094" xlink:href="#DejaVuSans-48"/>
      </g>
     </g>
    </g>
    <g id="ytick_4">
     <g id="line2d_10">
      <g>
       <use style="stroke:#000000;stroke-width:0.8;" x="324" xlink:href="#mf78f68a0c3" y="573.495393"/>
      </g>
     </g>
     <g id="text_11">
      <!-- 1000 -->
      <g transform="translate(291.55 577.294612)scale(0.1 -0.1)">
       <use xlink:href="#DejaVuSans-49"/>
       <use x="63.623047" xlink:href="#DejaVuSans-48"/>
       <use x="127.246094" xlink:href="#DejaVuSans-48"/>
       <use x="190.869141" xlink:href="#DejaVuSans-48"/>
      </g>
     </g>
    </g>
    <g id="ytick_5">
     <g id="line2d_11">
      <g>
       <use style="stroke:#000000;stroke-width:0.8;" x="324" xlink:href="#mf78f68a0c3" y="414.91589"/>
      </g>
     </g>
     <g id="text_12">
      <!-- 1500 -->
      <g transform="translate(291.55 418.715108)scale(0.1 -0.1)">
       <use xlink:href="#DejaVuSans-49"/>
       <use x="63.623047" xlink:href="#DejaVuSans-53"/>
       <use x="127.246094" xlink:href="#DejaVuSans-48"/>
       <use x="190.869141" xlink:href="#DejaVuSans-48"/>
      </g>
     </g>
    </g>
    <g id="ytick_6">
     <g id="line2d_12">
      <g>
       <use style="stroke:#000000;stroke-width:0.8;" x="324" xlink:href="#mf78f68a0c3" y="256.336386"/>
      </g>
     </g>
     <g id="text_13">
      <!-- 2000 -->
      <g transform="translate(291.55 260.135605)scale(0.1 -0.1)">
       <use xlink:href="#DejaVuSans-50"/>
       <use x="63.623047" xlink:href="#DejaVuSans-48"/>
       <use x="127.246094" xlink:href="#DejaVuSans-48"/>
       <use x="190.869141" xlink:href="#DejaVuSans-48"/>
      </g>
     </g>
    </g>
    <g id="text_14">
     <!-- Counts -->
     <defs>
      <path d="M 64.40625 67.28125 
L 64.40625 56.890625 
Q 59.421875 61.53125 53.78125 63.8125 
Q 48.140625 66.109375 41.796875 66.109375 
Q 29.296875 66.109375 22.65625 58.46875 
Q 16.015625 50.828125 16.015625 36.375 
Q 16.015625 21.96875 22.65625 14.328125 
Q 29.296875 6.6875 41.796875 6.6875 
Q 48.140625 6.6875 53.78125 8.984375 
Q 59.421875 11.28125 64.40625 15.921875 
L 64.40625 5.609375 
Q 59.234375 2.09375 53.4375 0.328125 
Q 47.65625 -1.421875 41.21875 -1.421875 
Q 24.65625 -1.421875 15.125 8.703125 
Q 5.609375 18.84375 5.609375 36.375 
Q 5.609375 53.953125 15.125 64.078125 
Q 24.65625 74.21875 41.21875 74.21875 
Q 47.75 74.21875 53.53125 72.484375 
Q 59.328125 70.75 64.40625 67.28125 
z
" id="DejaVuSans-67"/>
      <path d="M 30.609375 48.390625 
Q 23.390625 48.390625 19.1875 42.75 
Q 14.984375 37.109375 14.984375 27.296875 
Q 14.984375 17.484375 19.15625 11.84375 
Q 23.34375 6.203125 30.609375 6.203125 
Q 37.796875 6.203125 41.984375 11.859375 
Q 46.1875 17.53125 46.1875 27.296875 
Q 46.1875 37.015625 41.984375 42.703125 
Q 37.796875 48.390625 30.609375 48.390625 
z
M 30.609375 56 
Q 42.328125 56 49.015625 48.375 
Q 55.71875 40.765625 55.71875 27.296875 
Q 55.71875 13.875 49.015625 6.21875 
Q 42.328125 -1.421875 30.609375 -1.421875 
Q 18.84375 -1.421875 12.171875 6.21875 
Q 5.515625 13.875 5.515625 27.296875 
Q 5.515625 40.765625 12.171875 48.375 
Q 18.84375 56 30.609375 56 
z
" id="DejaVuSans-111"/>
      <path d="M 8.5 21.578125 
L 8.5 54.6875 
L 17.484375 54.6875 
L 17.484375 21.921875 
Q 17.484375 14.15625 20.5 10.265625 
Q 23.53125 6.390625 29.59375 6.390625 
Q 36.859375 6.390625 41.078125 11.03125 
Q 45.3125 15.671875 45.3125 23.6875 
L 45.3125 54.6875 
L 54.296875 54.6875 
L 54.296875 0 
L 45.3125 0 
L 45.3125 8.40625 
Q 42.046875 3.421875 37.71875 1 
Q 33.40625 -1.421875 27.6875 -1.421875 
Q 18.265625 -1.421875 13.375 4.4375 
Q 8.5 10.296875 8.5 21.578125 
z
M 31.109375 56 
z
" id="DejaVuSans-117"/>
      <path d="M 18.3125 70.21875 
L 18.3125 54.6875 
L 36.8125 54.6875 
L 36.8125 47.703125 
L 18.3125 47.703125 
L 18.3125 18.015625 
Q 18.3125 11.328125 20.140625 9.421875 
Q 21.96875 7.515625 27.59375 7.515625 
L 36.8125 7.515625 
L 36.8125 0 
L 27.59375 0 
Q 17.1875 0 13.234375 3.875 
Q 9.28125 7.765625 9.28125 18.015625 
L 9.28125 47.703125 
L 2.6875 47.703125 
L 2.6875 54.6875 
L 9.28125 54.6875 
L 9.28125 70.21875 
z
" id="DejaVuSans-116"/>
      <path d="M 44.28125 53.078125 
L 44.28125 44.578125 
Q 40.484375 46.53125 36.375 47.5 
Q 32.28125 48.484375 27.875 48.484375 
Q 21.1875 48.484375 17.84375 46.4375 
Q 14.5 44.390625 14.5 40.28125 
Q 14.5 37.15625 16.890625 35.375 
Q 19.28125 33.59375 26.515625 31.984375 
L 29.59375 31.296875 
Q 39.15625 29.25 43.1875 25.515625 
Q 47.21875 21.78125 47.21875 15.09375 
Q 47.21875 7.46875 41.1875 3.015625 
Q 35.15625 -1.421875 24.609375 -1.421875 
Q 20.21875 -1.421875 15.453125 -0.5625 
Q 10.6875 0.296875 5.421875 2 
L 5.421875 11.28125 
Q 10.40625 8.6875 15.234375 7.390625 
Q 20.0625 6.109375 24.8125 6.109375 
Q 31.15625 6.109375 34.5625 8.28125 
Q 37.984375 10.453125 37.984375 14.40625 
Q 37.984375 18.0625 35.515625 20.015625 
Q 33.0625 21.96875 24.703125 23.78125 
L 21.578125 24.515625 
Q 13.234375 26.265625 9.515625 29.90625 
Q 5.8125 33.546875 5.8125 39.890625 
Q 5.8125 47.609375 11.28125 51.796875 
Q 16.75 56 26.8125 56 
Q 31.78125 56 36.171875 55.265625 
Q 40.578125 54.546875 44.28125 53.078125 
z
" id="DejaVuSans-115"/>
     </defs>
     <g transform="translate(283.453125 629.975125)rotate(-90)scale(0.1 -0.1)">
      <use xlink:href="#DejaVuSans-67"/>
      <use x="69.824219" xlink:href="#DejaVuSans-111"/>
      <use x="131.005859" xlink:href="#DejaVuSans-117"/>
      <use x="194.384766" xlink:href="#DejaVuSans-110"/>
      <use x="257.763672" xlink:href="#DejaVuSans-116"/>
      <use x="296.972656" xlink:href="#DejaVuSans-115"/>
     </g>
    </g>
   </g>
   <g id="line2d_13">
    <path clip-path="url(#pbe7ea436d0)" d="M 346.846154 890.654401 
L 347.962779 890.654401 
L 349.079404 889.068606 
L 350.19603 890.654401 
L 354.662531 890.654401 
L 355.779156 853.229638 
L 356.895782 846.25214 
L 358.012407 749.835802 
L 359.129032 709.239449 
L 360.245658 707.653654 
L 361.362283 696.870247 
L 362.478908 708.605131 
L 363.595533 682.280933 
L 364.712159 662.617074 
L 365.828784 682.598092 
L 366.945409 671.497527 
L 368.062035 662.299915 
L 369.17866 680.06082 
L 370.295285 682.598092 
L 371.411911 680.06082 
L 372.528536 667.37446 
L 373.645161 668.643096 
L 374.761787 637.561513 
L 375.878412 617.897654 
L 376.995037 591.890616 
L 378.111663 586.498913 
L 380.344913 480.567804 
L 381.461538 425.064978 
L 382.578164 386.688738 
L 383.694789 326.111367 
L 384.811414 308.033304 
L 385.92804 262.679566 
L 387.044665 262.996725 
L 388.16129 300.421488 
L 389.277916 317.548074 
L 390.394541 355.289996 
L 391.511166 384.785784 
L 392.627792 397.154985 
L 393.744417 418.721798 
L 394.861042 453.292129 
L 395.977667 452.340652 
L 397.094293 479.616327 
L 398.210918 499.914504 
L 399.327543 510.69791 
L 400.444169 524.335747 
L 401.560794 521.798475 
L 402.677419 493.571323 
L 403.794045 488.496779 
L 404.91067 495.157118 
L 406.027295 490.716892 
L 407.143921 470.735875 
L 408.260546 460.269628 
L 410.493797 449.80338 
L 411.610422 441.874405 
L 412.727047 430.139522 
L 413.843672 405.718278 
L 416.076923 418.404639 
L 417.193548 434.896907 
L 418.310174 424.747819 
L 419.426799 405.401119 
L 420.543424 421.576229 
L 421.66005 401.595211 
L 422.776675 439.337133 
L 423.8933 443.4602 
L 425.009926 429.505204 
L 426.126551 432.993953 
L 427.243176 423.479183 
L 428.359801 410.792822 
L 429.476427 409.841345 
L 430.593052 422.527706 
L 431.709677 403.181006 
L 432.826303 409.524186 
L 433.942928 408.25555 
L 435.059553 328.014321 
L 436.176179 372.733742 
L 437.292804 360.047381 
L 438.409429 373.685219 
L 439.526055 335.626138 
L 440.64268 316.279438 
L 441.759305 303.593078 
L 442.875931 298.201375 
L 443.992556 262.362407 
L 445.109181 236.038209 
L 446.225806 232.232301 
L 447.342432 233.183778 
L 448.459057 167.849023 
L 449.575682 147.550846 
L 450.692308 160.554365 
L 451.808933 170.069136 
L 452.925558 167.849023 
L 454.042184 185.292768 
L 455.158809 200.833559 
L 456.275434 208.445376 
L 458.508685 286.78365 
L 459.62531 335.943297 
L 460.741935 376.222491 
L 461.858561 392.714759 
L 462.975186 447.900426 
L 464.091811 484.373712 
L 465.208437 475.810419 
L 466.325062 525.604383 
L 467.441687 521.798475 
L 468.558313 557.320284 
L 469.674938 567.786531 
L 471.908189 581.424369 
L 473.024814 603.30834 
L 474.141439 629.632538 
L 475.258065 606.162771 
L 476.37469 636.292877 
L 477.491315 639.781626 
L 478.60794 633.121287 
L 479.724566 644.85617 
L 480.841191 672.449004 
L 481.957816 660.396961 
L 483.074442 681.646615 
L 484.191067 671.497527 
L 485.307692 682.280933 
L 486.424318 688.941272 
L 487.540943 682.915251 
L 488.657568 689.258431 
L 489.774194 713.362516 
L 490.890819 700.993314 
L 492.007444 716.534106 
L 493.124069 700.993314 
L 494.240695 719.705696 
L 495.35732 718.119901 
L 496.473945 708.287972 
L 497.590571 720.657173 
L 498.707196 720.657173 
L 499.823821 724.78024 
L 500.940447 728.268989 
L 502.057072 730.171943 
L 503.173697 737.4666 
L 504.290323 727.317512 
L 505.406948 751.421597 
L 506.523573 730.806261 
L 507.640199 759.98489 
L 508.756824 752.055915 
L 509.873449 756.178982 
L 510.990074 736.197964 
L 512.1067 738.418077 
L 513.223325 748.567166 
L 514.33995 743.492621 
L 515.456576 737.783759 
L 516.573201 739.686713 
L 517.689826 754.276028 
L 518.806452 750.787279 
L 519.923077 760.302049 
L 521.039702 746.029893 
L 522.156328 758.081936 
L 523.272953 761.253526 
L 524.389578 761.887844 
L 525.506203 770.133978 
L 526.622829 761.570685 
L 527.739454 762.205003 
L 528.856079 761.570685 
L 529.972705 769.182501 
L 531.08933 765.059434 
L 532.205955 764.107957 
L 533.322581 779.648748 
L 534.439206 763.790798 
L 535.555831 762.839321 
L 536.672457 774.891363 
L 537.789082 767.279547 
L 538.905707 770.768296 
L 540.022333 768.865342 
L 541.138958 757.447618 
L 542.255583 765.376593 
L 543.372208 780.283066 
L 544.488834 769.816819 
L 545.605459 779.965907 
L 546.722084 772.354091 
L 547.83871 767.596706 
L 548.955335 767.279547 
L 550.07196 775.525681 
L 551.188586 772.988409 
L 552.305211 783.454656 
L 553.421836 781.234543 
L 554.538462 773.622727 
L 555.655087 768.548183 
L 556.771712 768.231024 
L 557.888337 777.428635 
L 559.004963 780.600225 
L 560.121588 772.036932 
L 561.238213 780.917384 
L 562.354839 786.943405 
L 563.471464 779.01443 
L 564.588089 779.648748 
L 565.704715 773.305568 
L 566.82134 778.062953 
L 567.937965 774.574204 
L 569.054591 778.062953 
L 570.171216 775.84284 
L 571.287841 772.988409 
L 572.404467 790.749314 
L 573.521092 772.988409 
L 574.637717 779.965907 
L 575.754342 775.525681 
L 576.870968 779.01443 
L 577.987593 770.451137 
L 579.104218 772.354091 
L 580.220844 774.891363 
L 581.337469 787.260564 
L 582.454094 788.84636 
L 583.57072 778.380112 
L 584.687345 781.868861 
L 585.80397 777.111476 
L 586.920596 787.894882 
L 588.037221 767.596706 
L 589.153846 779.01443 
L 590.270471 767.279547 
L 591.387097 773.939886 
L 592.503722 760.936367 
L 593.620347 754.276028 
L 594.736973 750.152961 
L 595.853598 764.107957 
L 596.970223 761.253526 
L 598.086849 753.324551 
L 599.203474 752.055915 
L 600.320099 753.958869 
L 601.436725 761.887844 
L 602.55335 741.589667 
L 603.669975 744.126939 
L 604.7866 731.440579 
L 605.903226 734.929328 
L 607.019851 730.171943 
L 608.136476 729.854784 
L 609.253102 738.418077 
L 610.369727 719.388537 
L 611.486352 711.459562 
L 612.602978 720.340014 
L 613.719603 711.459562 
L 614.836228 725.731717 
L 615.952854 714.631152 
L 617.069479 711.776721 
L 618.186104 708.605131 
L 619.30273 713.679675 
L 620.419355 709.556608 
L 621.53598 702.896268 
L 622.652605 706.385018 
L 623.769231 710.825244 
L 624.885856 697.504565 
L 626.002481 712.728198 
L 627.119107 683.23241 
L 628.235732 694.015816 
L 629.352357 713.045357 
L 630.468983 704.164904 
L 631.585608 713.679675 
L 632.702233 708.92229 
L 633.818859 708.287972 
L 634.935484 713.045357 
L 636.052109 697.821724 
L 637.168734 717.168424 
L 638.28536 713.996834 
L 639.401985 714.313993 
L 640.51861 703.530586 
L 641.635236 715.26547 
L 642.751861 739.369554 
L 643.868486 732.392056 
L 644.985112 733.977851 
L 646.101737 737.149441 
L 647.218362 746.981371 
L 648.334988 741.272508 
L 649.451613 752.055915 
L 650.568238 742.858303 
L 651.684864 746.981371 
L 652.801489 758.081936 
L 653.918114 745.712734 
L 655.034739 757.447618 
L 656.151365 757.764777 
L 657.26799 750.47012 
L 658.384615 744.761257 
L 659.501241 763.473639 
L 660.617866 764.107957 
L 661.734491 768.231024 
L 662.851117 772.988409 
L 663.967742 756.8133 
L 665.084367 771.085455 
L 666.200993 774.574204 
L 667.317618 769.816819 
L 668.434243 752.690233 
L 669.550868 749.835802 
L 670.667494 760.302049 
L 671.784119 756.178982 
L 672.900744 747.932848 
L 674.01737 746.029893 
L 675.133995 740.003872 
L 676.25062 730.806261 
L 677.367246 728.268989 
L 678.483871 718.754219 
L 679.600496 724.78024 
L 680.717122 720.657173 
L 681.833747 704.799222 
L 682.950372 722.560127 
L 684.066998 717.168424 
L 685.183623 712.728198 
L 686.300248 694.015816 
L 687.416873 705.7507 
L 688.533499 685.769682 
L 689.650124 707.653654 
L 690.766749 707.336495 
L 691.883375 717.802742 
L 693 712.728198 
L 694.116625 717.168424 
L 695.233251 700.993314 
L 696.349876 713.045357 
L 697.466501 721.60865 
L 698.583127 721.291491 
L 699.699752 724.463081 
L 700.816377 738.418077 
L 701.933002 745.712734 
L 703.049628 738.735236 
L 704.166253 746.664211 
L 706.399504 769.49966 
L 707.516129 784.088974 
L 708.632754 796.458176 
L 709.74938 800.581243 
L 710.866005 798.36113 
L 711.98263 800.264084 
L 713.099256 804.70431 
L 715.332506 828.808394 
L 716.449132 827.222599 
L 718.682382 838.957483 
L 719.799007 845.617822 
L 720.915633 839.591801 
L 722.032258 847.837935 
L 723.148883 850.692366 
L 724.265509 849.106571 
L 725.382134 850.375207 
L 726.498759 856.401228 
L 727.615385 861.475772 
L 728.73201 861.475772 
L 729.848635 863.695885 
L 730.965261 865.28168 
L 732.081886 862.11009 
L 733.198511 862.744408 
L 734.315136 868.136111 
L 735.431762 865.28168 
L 736.548387 869.404747 
L 737.665012 866.867475 
L 738.781638 871.942019 
L 739.898263 865.598839 
L 741.014888 866.233157 
L 742.131514 870.356224 
L 743.248139 870.990542 
L 744.364764 869.404747 
L 745.48139 868.45327 
L 746.598015 866.867475 
L 747.71464 872.576338 
L 748.831266 873.844974 
L 749.947891 869.087588 
L 751.064516 878.602359 
L 752.181141 874.479292 
L 753.297767 872.576338 
L 754.414392 876.699405 
L 755.531017 875.747928 
L 756.647643 876.065087 
L 757.764268 874.162133 
L 758.880893 875.430769 
L 759.997519 880.505313 
L 761.114144 881.773949 
L 762.230769 880.505313 
L 763.347395 883.359744 
L 764.46402 882.408267 
L 765.580645 880.505313 
L 766.69727 883.042585 
L 768.930521 885.579857 
L 770.047146 884.62838 
L 771.163772 887.165652 
L 772.280397 886.848493 
L 773.397022 884.62838 
L 774.513648 884.62838 
L 775.630273 885.262698 
L 776.746898 888.117129 
L 777.863524 888.117129 
L 778.980149 887.165652 
L 780.096774 889.385765 
L 781.2134 887.165652 
L 782.330025 886.531334 
L 783.44665 887.165652 
L 784.563275 888.751447 
L 785.679901 887.165652 
L 786.796526 888.751447 
L 787.913151 888.117129 
L 789.029777 889.702924 
L 790.146402 888.751447 
L 791.263027 889.385765 
L 792.379653 887.482811 
L 793.496278 887.79997 
L 794.612903 890.020083 
L 795.729529 889.385765 
L 796.846154 889.068606 
L 797.962779 887.79997 
L 799.079404 889.068606 
L 800.19603 889.068606 
L 801.312655 888.751447 
L 802.42928 889.068606 
L 803.545906 887.79997 
L 804.662531 889.068606 
L 805.779156 889.702924 
L 808.012407 889.702924 
L 809.129032 888.434288 
L 810.245658 887.79997 
L 811.362283 889.068606 
L 812.478908 888.434288 
L 813.595533 889.068606 
L 815.828784 887.79997 
L 816.945409 888.434288 
L 818.062035 889.385765 
L 819.17866 890.020083 
L 820.295285 888.751447 
L 821.411911 889.385765 
L 822.528536 888.434288 
L 823.645161 889.068606 
L 824.761787 887.482811 
L 825.878412 889.702924 
L 826.995037 889.702924 
L 828.111663 889.385765 
L 829.228288 889.385765 
L 830.344913 887.79997 
L 831.461538 889.385765 
L 832.578164 889.068606 
L 833.694789 888.117129 
L 834.811414 889.385765 
L 835.92804 889.385765 
L 837.044665 889.702924 
L 838.16129 889.068606 
L 839.277916 887.79997 
L 840.394541 889.702924 
L 841.511166 888.751447 
L 842.627792 888.434288 
L 843.744417 888.434288 
L 844.861042 888.117129 
L 845.977667 888.751447 
L 847.094293 889.068606 
L 848.210918 889.702924 
L 849.327543 890.020083 
L 850.444169 890.020083 
L 851.560794 888.117129 
L 852.677419 890.337242 
L 853.794045 888.751447 
L 854.91067 888.751447 
L 856.027295 888.434288 
L 857.143921 890.020083 
L 858.260546 889.385765 
L 859.377171 888.434288 
L 860.493797 890.337242 
L 861.610422 888.434288 
L 862.727047 890.337242 
L 863.843672 888.434288 
L 864.960298 890.337242 
L 866.076923 890.337242 
L 867.193548 888.434288 
L 868.310174 888.434288 
L 869.426799 889.385765 
L 871.66005 889.385765 
L 872.776675 888.117129 
L 873.8933 888.751447 
L 875.009926 889.068606 
L 876.126551 889.702924 
L 877.243176 888.751447 
L 878.359801 889.068606 
L 879.476427 889.702924 
L 880.593052 889.702924 
L 881.709677 889.068606 
L 882.826303 888.751447 
L 883.942928 888.751447 
L 885.059553 889.702924 
L 886.176179 888.751447 
L 887.292804 888.751447 
L 888.409429 889.385765 
L 889.526055 888.117129 
L 890.64268 889.702924 
L 891.759305 889.385765 
L 892.875931 888.117129 
L 893.992556 887.165652 
L 895.109181 890.020083 
L 896.225806 888.117129 
L 897.342432 889.385765 
L 898.459057 888.751447 
L 899.575682 888.751447 
L 900.692308 889.702924 
L 901.808933 889.385765 
L 902.925558 887.79997 
L 904.042184 888.751447 
L 905.158809 890.020083 
L 906.275434 889.068606 
L 907.39206 888.751447 
L 908.508685 890.020083 
L 909.62531 888.751447 
L 910.741935 889.068606 
L 911.858561 889.068606 
L 912.975186 889.702924 
L 915.208437 888.434288 
L 916.325062 889.385765 
L 917.441687 889.702924 
L 918.558313 889.068606 
L 919.674938 889.702924 
L 920.791563 889.068606 
L 921.908189 889.385765 
L 923.024814 890.337242 
L 924.141439 890.020083 
L 925.258065 888.117129 
L 926.37469 889.068606 
L 928.60794 889.702924 
L 929.724566 889.702924 
L 930.841191 888.751447 
L 931.957816 888.434288 
L 933.074442 889.702924 
L 934.191067 888.751447 
L 935.307692 888.117129 
L 936.424318 888.751447 
L 937.540943 888.117129 
L 938.657568 889.385765 
L 939.774194 888.751447 
L 940.890819 888.434288 
L 942.007444 889.068606 
L 943.124069 888.751447 
L 944.240695 887.79997 
L 945.35732 888.751447 
L 946.473945 889.385765 
L 947.590571 889.385765 
L 948.707196 887.79997 
L 949.823821 888.751447 
L 950.940447 888.117129 
L 952.057072 890.020083 
L 953.173697 889.385765 
L 954.290323 889.385765 
L 955.406948 890.337242 
L 957.640199 889.068606 
L 958.756824 889.702924 
L 959.873449 888.751447 
L 962.1067 890.654401 
L 963.223325 890.337242 
L 964.33995 888.434288 
L 965.456576 889.702924 
L 966.573201 890.020083 
L 967.689826 889.385765 
L 968.806452 890.020083 
L 969.923077 889.385765 
L 971.039702 889.068606 
L 972.156328 888.434288 
L 973.272953 889.385765 
L 974.389578 890.020083 
L 975.506203 889.385765 
L 976.622829 888.434288 
L 977.739454 889.702924 
L 978.856079 889.385765 
L 979.972705 889.385765 
L 981.08933 888.434288 
L 982.205955 889.068606 
L 983.322581 889.385765 
L 984.439206 890.020083 
L 985.555831 889.702924 
L 986.672457 888.434288 
L 987.789082 889.385765 
L 988.905707 889.385765 
L 990.022333 890.020083 
L 991.138958 888.751447 
L 992.255583 889.385765 
L 993.372208 889.385765 
L 994.488834 888.117129 
L 995.605459 890.020083 
L 996.722084 889.702924 
L 997.83871 889.702924 
L 998.955335 887.79997 
L 1000.07196 889.068606 
L 1001.188586 889.068606 
L 1003.421836 889.702924 
L 1006.771712 888.751447 
L 1007.888337 889.068606 
L 1009.004963 887.165652 
L 1010.121588 888.751447 
L 1011.238213 889.068606 
L 1012.354839 889.702924 
L 1013.471464 889.068606 
L 1014.588089 889.385765 
L 1015.704715 889.068606 
L 1016.82134 889.702924 
L 1017.937965 889.702924 
L 1019.054591 888.117129 
L 1021.287841 889.385765 
L 1022.404467 889.385765 
L 1023.521092 889.068606 
L 1024.637717 888.434288 
L 1025.754342 890.337242 
L 1026.870968 889.385765 
L 1027.987593 889.385765 
L 1029.104218 890.020083 
L 1030.220844 889.068606 
L 1031.337469 889.068606 
L 1032.454094 890.337242 
L 1033.57072 889.385765 
L 1034.687345 889.702924 
L 1036.920596 889.068606 
L 1038.037221 889.702924 
L 1039.153846 890.020083 
L 1040.270471 889.702924 
L 1041.387097 890.337242 
L 1042.503722 889.385765 
L 1043.620347 889.702924 
L 1044.736973 889.068606 
L 1045.853598 889.702924 
L 1046.970223 890.654401 
L 1049.203474 890.020083 
L 1050.320099 890.337242 
L 1051.436725 889.702924 
L 1052.55335 890.020083 
L 1054.7866 888.751447 
L 1055.903226 889.702924 
L 1057.019851 888.751447 
L 1058.136476 889.702924 
L 1059.253102 890.337242 
L 1060.369727 890.020083 
L 1061.486352 890.337242 
L 1062.602978 889.385765 
L 1063.719603 889.702924 
L 1064.836228 889.068606 
L 1065.952854 890.337242 
L 1068.186104 889.702924 
L 1069.30273 888.751447 
L 1070.419355 890.337242 
L 1071.53598 889.702924 
L 1073.769231 889.702924 
L 1074.885856 889.385765 
L 1076.002481 890.654401 
L 1077.119107 889.702924 
L 1078.235732 889.702924 
L 1079.352357 890.337242 
L 1080.468983 888.751447 
L 1081.585608 889.068606 
L 1082.702233 890.020083 
L 1083.818859 890.337242 
L 1084.935484 889.385765 
L 1086.052109 890.337242 
L 1087.168734 889.702924 
L 1088.28536 890.654401 
L 1089.401985 890.337242 
L 1090.51861 889.385765 
L 1091.635236 890.337242 
L 1092.751861 889.068606 
L 1093.868486 889.702924 
L 1094.985112 889.702924 
L 1096.101737 889.068606 
L 1097.218362 888.751447 
L 1098.334988 890.337242 
L 1100.568238 890.337242 
L 1101.684864 890.654401 
L 1102.801489 889.385765 
L 1103.918114 888.751447 
L 1105.034739 889.702924 
L 1106.151365 890.337242 
L 1107.26799 890.020083 
L 1108.384615 890.337242 
L 1109.501241 889.702924 
L 1110.617866 890.020083 
L 1111.734491 890.654401 
L 1112.851117 889.385765 
L 1113.967742 889.702924 
L 1115.084367 890.337242 
L 1116.200993 890.020083 
L 1117.317618 890.654401 
L 1118.434243 889.385765 
L 1119.550868 889.702924 
L 1120.667494 890.337242 
L 1122.900744 890.337242 
L 1124.01737 890.654401 
L 1125.133995 889.385765 
L 1126.25062 890.020083 
L 1127.367246 889.385765 
L 1128.483871 889.702924 
L 1129.600496 890.337242 
L 1130.717122 890.020083 
L 1131.833747 890.337242 
L 1132.950372 889.702924 
L 1134.066998 890.020083 
L 1138.533499 890.020083 
L 1139.650124 890.337242 
L 1140.766749 890.337242 
L 1141.883375 889.385765 
L 1143 890.020083 
L 1144.116625 890.020083 
L 1145.233251 890.654401 
L 1146.349876 890.020083 
L 1147.466501 890.020083 
L 1149.699752 890.654401 
L 1150.816377 890.020083 
L 1151.933002 889.702924 
L 1153.049628 890.020083 
L 1154.166253 889.702924 
L 1156.399504 890.337242 
L 1157.516129 890.337242 
L 1158.632754 890.020083 
L 1159.74938 890.654401 
L 1160.866005 889.702924 
L 1161.98263 890.654401 
L 1164.215881 890.020083 
L 1165.332506 890.020083 
L 1166.449132 889.702924 
L 1167.565757 890.020083 
L 1168.682382 890.654401 
L 1169.799007 890.020083 
L 1173.148883 890.020083 
L 1174.265509 890.337242 
L 1175.382134 890.020083 
L 1176.498759 890.654401 
L 1177.615385 890.020083 
L 1178.73201 889.702924 
L 1179.848635 889.702924 
L 1180.965261 890.337242 
L 1182.081886 890.020083 
L 1183.198511 888.751447 
L 1184.315136 890.337242 
L 1185.431762 890.020083 
L 1186.548387 890.020083 
L 1187.665012 889.702924 
L 1188.781638 890.337242 
L 1189.898263 889.702924 
L 1191.014888 890.020083 
L 1192.131514 889.068606 
L 1193.248139 889.702924 
L 1194.364764 890.654401 
L 1195.48139 890.654401 
L 1196.598015 890.020083 
L 1198.831266 889.385765 
L 1199.947891 888.751447 
L 1201.064516 890.020083 
L 1202.181141 889.702924 
L 1203.297767 889.068606 
L 1204.414392 890.654401 
L 1205.531017 890.337242 
L 1206.647643 890.654401 
L 1207.764268 889.702924 
L 1208.880893 889.385765 
L 1209.997519 889.702924 
L 1211.114144 889.702924 
L 1212.230769 889.068606 
L 1213.347395 889.702924 
L 1214.46402 888.751447 
L 1215.580645 889.385765 
L 1216.69727 889.068606 
L 1217.813896 889.385765 
L 1218.930521 889.385765 
L 1220.047146 890.020083 
L 1221.163772 889.385765 
L 1222.280397 889.385765 
L 1223.397022 889.702924 
L 1224.513648 890.654401 
L 1225.630273 889.702924 
L 1226.746898 890.654401 
L 1227.863524 890.020083 
L 1228.980149 889.068606 
L 1230.096774 887.79997 
L 1231.2134 889.702924 
L 1232.330025 890.020083 
L 1233.44665 887.79997 
L 1234.563275 889.385765 
L 1235.679901 889.702924 
L 1236.796526 887.165652 
L 1237.913151 889.702924 
L 1239.029777 889.702924 
L 1240.146402 888.117129 
L 1241.263027 889.385765 
L 1242.379653 888.434288 
L 1243.496278 889.385765 
L 1244.612903 889.385765 
L 1245.729529 888.434288 
L 1247.962779 889.068606 
L 1249.079404 890.337242 
L 1250.19603 887.79997 
L 1251.312655 890.020083 
L 1252.42928 890.020083 
L 1253.545906 889.385765 
L 1254.662531 890.020083 
L 1255.779156 889.385765 
L 1258.012407 889.385765 
L 1259.129032 890.337242 
L 1260.245658 890.337242 
L 1262.478908 889.068606 
L 1263.595533 890.337242 
L 1264.712159 890.337242 
L 1265.828784 889.702924 
L 1268.062035 889.702924 
L 1269.17866 889.385765 
L 1270.295285 889.385765 
L 1271.411911 889.702924 
L 1272.528536 890.337242 
L 1273.645161 890.337242 
L 1274.761787 890.020083 
L 1275.878412 889.385765 
L 1276.995037 889.702924 
L 1278.111663 890.337242 
L 1279.228288 890.337242 
L 1280.344913 890.654401 
L 1281.461538 890.337242 
L 1283.694789 890.337242 
L 1284.811414 890.020083 
L 1285.92804 890.337242 
L 1288.16129 890.337242 
L 1290.394541 889.702924 
L 1291.511166 889.702924 
L 1292.627792 890.654401 
L 1293.744417 890.020083 
L 1295.977667 890.654401 
L 1297.094293 890.654401 
L 1298.210918 890.337242 
L 1299.327543 890.654401 
L 1300.444169 890.337242 
L 1301.560794 890.337242 
L 1302.677419 890.654401 
L 1303.794045 890.337242 
L 1304.91067 890.337242 
L 1306.027295 890.654401 
L 1309.377171 890.654401 
L 1310.493797 890.337242 
L 1311.610422 889.702924 
L 1312.727047 890.654401 
L 1313.843672 890.337242 
L 1314.960298 890.654401 
L 1316.076923 890.337242 
L 1317.193548 890.337242 
L 1318.310174 890.654401 
L 1319.426799 890.337242 
L 1321.66005 890.337242 
L 1322.776675 890.654401 
L 1323.8933 890.654401 
L 1325.009926 890.020083 
L 1326.126551 890.337242 
L 1327.243176 890.337242 
L 1328.359801 890.020083 
L 1330.593052 890.654401 
L 1331.709677 890.654401 
L 1332.826303 890.337242 
L 1335.059553 890.337242 
L 1336.176179 890.654401 
L 1339.526055 890.654401 
L 1340.64268 890.337242 
L 1342.875931 890.337242 
L 1343.992556 890.654401 
L 1356.275434 890.654401 
L 1357.39206 890.337242 
L 1358.508685 890.654401 
L 1360.741935 890.654401 
L 1361.858561 890.337242 
L 1362.975186 890.654401 
L 1371.908189 890.654401 
L 1373.024814 890.337242 
L 1374.141439 890.654401 
L 1375.258065 890.020083 
L 1376.37469 890.654401 
L 1377.491315 890.337242 
L 1378.60794 890.654401 
L 1383.074442 890.654401 
L 1384.191067 890.020083 
L 1385.307692 890.337242 
L 1386.424318 890.337242 
L 1387.540943 890.654401 
L 1389.774194 890.654401 
L 1390.890819 890.337242 
L 1392.007444 890.654401 
L 1393.124069 890.337242 
L 1394.240695 890.654401 
L 1395.35732 890.337242 
L 1396.473945 890.337242 
L 1397.590571 890.654401 
L 1398.707196 890.654401 
L 1399.823821 890.337242 
L 1400.940447 890.654401 
L 1409.873449 890.654401 
L 1410.990074 890.337242 
L 1412.1067 890.654401 
L 1413.223325 890.654401 
L 1414.33995 890.337242 
L 1415.456576 890.337242 
L 1416.573201 889.385765 
L 1417.689826 890.337242 
L 1418.806452 890.654401 
L 1422.156328 890.654401 
L 1423.272953 890.337242 
L 1424.389578 890.654401 
L 1425.506203 890.654401 
L 1426.622829 890.337242 
L 1427.739454 890.337242 
L 1428.856079 890.654401 
L 1429.972705 890.337242 
L 1431.08933 890.654401 
L 1432.205955 890.020083 
L 1433.322581 890.654401 
L 1440.022333 890.654401 
L 1441.138958 890.337242 
L 1442.255583 890.654401 
L 1443.372208 890.654401 
L 1445.605459 890.020083 
L 1447.83871 890.654401 
L 1448.955335 890.337242 
L 1451.188586 890.337242 
L 1452.305211 890.654401 
L 1454.538462 890.654401 
L 1455.655087 890.020083 
L 1456.771712 890.337242 
L 1457.888337 890.020083 
L 1459.004963 890.654401 
L 1460.121588 890.654401 
L 1461.238213 890.337242 
L 1462.354839 890.654401 
L 1464.588089 890.654401 
L 1465.704715 890.337242 
L 1466.82134 890.337242 
L 1467.937965 890.654401 
L 1470.171216 890.654401 
L 1471.287841 890.337242 
L 1472.404467 890.654401 
L 1482.454094 890.654401 
L 1483.57072 890.337242 
L 1484.687345 890.337242 
L 1485.80397 890.654401 
L 1489.153846 890.654401 
L 1489.153846 890.654401 
" style="fill:none;stroke:#1f77b4;stroke-linecap:square;stroke-width:1.5;"/>
   </g>
   <g id="line2d_14">
    <path clip-path="url(#pbe7ea436d0)" d="M 346.846154 890.654401 
L 633.818859 890.564996 
L 639.401985 890.308457 
L 642.751861 889.925325 
L 644.985112 889.488644 
L 647.218362 888.831191 
L 649.451613 887.865339 
L 651.684864 886.481167 
L 652.801489 885.591758 
L 653.918114 884.546666 
L 655.034739 883.326472 
L 656.151365 881.910996 
L 657.26799 880.279639 
L 658.384615 878.411793 
L 659.501241 876.287338 
L 660.617866 873.887212 
L 661.734491 871.194045 
L 662.851117 868.19286 
L 665.084367 861.222943 
L 667.317618 852.933941 
L 669.550868 843.368123 
L 671.784119 832.673329 
L 675.133995 815.127841 
L 679.600496 791.214731 
L 681.833747 780.277272 
L 684.066998 770.817251 
L 685.183623 766.818941 
L 686.300248 763.392968 
L 687.416873 760.593477 
L 688.533499 758.465467 
L 689.650124 757.043588 
L 690.766749 756.351204 
L 691.883375 756.399751 
L 693 757.188427 
L 694.116625 758.70421 
L 695.233251 760.922218 
L 696.349876 763.806389 
L 697.466501 767.310452 
L 698.583127 771.379169 
L 700.816377 780.953593 
L 703.049628 791.966856 
L 707.516129 815.915578 
L 710.866005 833.402397 
L 713.099256 844.030187 
L 715.332506 853.51582 
L 717.565757 861.718831 
L 719.799007 868.603226 
L 722.032258 874.217331 
L 723.148883 876.580383 
L 724.265509 878.670174 
L 725.382134 880.50594 
L 726.498759 882.107895 
L 727.615385 883.496672 
L 728.73201 884.692838 
L 729.848635 885.71649 
L 732.081886 887.322407 
L 734.315136 888.455234 
L 736.548387 889.234673 
L 738.781638 889.757912 
L 742.131514 890.222841 
L 746.598015 890.503713 
L 753.297767 890.628063 
L 774.513648 890.654373 
L 1489.153846 890.654401 
L 1489.153846 890.654401 
" style="fill:none;stroke:#ff7f0e;stroke-linecap:square;stroke-width:1.5;"/>
   </g>
   <g id="line2d_15">
    <path clip-path="url(#pbe7ea436d0)" d="M 346.846154 842.935565 
L 562.354839 843.045585 
L 586.920596 843.283681 
L 601.436725 843.620284 
L 612.602978 844.082647 
L 621.53598 844.660872 
L 629.352357 845.389117 
L 636.052109 846.236318 
L 641.635236 847.141452 
L 647.218362 848.265012 
L 652.801489 849.642455 
L 657.26799 850.948852 
L 661.734491 852.450676 
L 666.200993 854.154438 
L 670.667494 856.058481 
L 676.25062 858.701058 
L 681.833747 861.588858 
L 689.650124 865.895442 
L 701.933002 872.672121 
L 707.516129 875.510164 
L 713.099256 878.089555 
L 717.565757 879.937708 
L 722.032258 881.584157 
L 726.498759 883.029778 
L 730.965261 884.282979 
L 736.548387 885.600015 
L 742.131514 886.671035 
L 747.71464 887.531717 
L 754.414392 888.335598 
L 762.230769 889.025286 
L 771.163772 889.57203 
L 782.330025 890.00867 
L 796.846154 890.326239 
L 818.062035 890.533041 
L 856.027295 890.634053 
L 996.722084 890.654374 
L 1489.153846 890.654401 
L 1489.153846 890.654401 
" style="fill:none;stroke:#2ca02c;stroke-linecap:square;stroke-width:1.5;"/>
   </g>
   <g id="line2d_16">
    <path clip-path="url(#pbe7ea436d0)" d="M 346.846154 778.346122 
L 494.240695 817.767543 
L 529.972705 827.111666 
L 543.372208 830.425415 
L 550.07196 831.887603 
L 554.538462 832.689432 
L 559.004963 833.251921 
L 562.354839 833.439783 
L 565.704715 833.348209 
L 567.937965 833.089351 
L 570.171216 832.638328 
L 572.404467 831.963411 
L 574.637717 831.031244 
L 576.870968 829.807805 
L 579.104218 828.259643 
L 581.337469 826.355404 
L 583.57072 824.067597 
L 585.80397 821.374567 
L 588.037221 818.262587 
L 590.270471 814.727969 
L 592.503722 810.779074 
L 594.736973 806.438077 
L 598.086849 799.277475 
L 601.436725 791.516267 
L 611.486352 767.700297 
L 613.719603 763.032078 
L 615.952854 758.857427 
L 618.186104 755.292864 
L 619.30273 753.772738 
L 620.419355 752.443327 
L 621.53598 751.315201 
L 622.652605 750.39767 
L 623.769231 749.698687 
L 624.885856 749.22475 
L 626.002481 748.98083 
L 627.119107 748.970317 
L 628.235732 749.194979 
L 629.352357 749.654939 
L 630.468983 750.348678 
L 631.585608 751.273051 
L 632.702233 752.423324 
L 633.818859 753.793231 
L 634.935484 755.375041 
L 637.168734 759.136698 
L 639.401985 763.620961 
L 641.635236 768.724165 
L 643.868486 774.330785 
L 647.218362 783.415705 
L 658.384615 814.735802 
L 661.734491 823.178259 
L 663.967742 828.356854 
L 666.200993 833.138034 
L 668.434243 837.506075 
L 670.667494 841.458285 
L 672.900744 845.003107 
L 675.133995 848.158061 
L 677.367246 850.947619 
L 679.600496 853.401162 
L 681.833747 855.551097 
L 684.066998 857.43119 
L 686.300248 859.075175 
L 688.533499 860.515638 
L 691.883375 862.360997 
L 695.233251 863.908878 
L 698.583127 865.236538 
L 703.049628 866.769441 
L 708.632754 868.450696 
L 717.565757 870.888147 
L 831.461538 901.070599 
L 1131.833747 981.636105 
L 1489.153846 1077.493154 
L 1489.153846 1077.493154 
" style="fill:none;stroke:#d62728;stroke-linecap:square;stroke-width:1.5;"/>
   </g>
   <g id="patch_3">
    <path d="M 324 1096.092 
L 324 128.952 
" style="fill:none;stroke:#000000;stroke-linecap:square;stroke-linejoin:miter;stroke-width:0.8;"/>
   </g>
   <g id="patch_4">
    <path d="M 1512 1096.092 
L 1512 128.952 
" style="fill:none;stroke:#000000;stroke-linecap:square;stroke-linejoin:miter;stroke-width:0.8;"/>
   </g>
   <g id="patch_5">
    <path d="M 324 1096.092 
L 1512 1096.092 
" style="fill:none;stroke:#000000;stroke-linecap:square;stroke-linejoin:miter;stroke-width:0.8;"/>
   </g>
   <g id="patch_6">
    <path d="M 324 128.952 
L 1512 128.952 
" style="fill:none;stroke:#000000;stroke-linecap:square;stroke-linejoin:miter;stroke-width:0.8;"/>
   </g>
   <g id="text_15">
    <!--  -->
    <g transform="translate(2106 94.65095)scale(0.08 -0.08)"/>
    <!-- Plot created Wed Apr  3 16:15:52 2019 -->
    <defs>
     <path d="M 19.671875 64.796875 
L 19.671875 37.40625 
L 32.078125 37.40625 
Q 38.96875 37.40625 42.71875 40.96875 
Q 46.484375 44.53125 46.484375 51.125 
Q 46.484375 57.671875 42.71875 61.234375 
Q 38.96875 64.796875 32.078125 64.796875 
z
M 9.8125 72.90625 
L 32.078125 72.90625 
Q 44.34375 72.90625 50.609375 67.359375 
Q 56.890625 61.8125 56.890625 51.125 
Q 56.890625 40.328125 50.609375 34.8125 
Q 44.34375 29.296875 32.078125 29.296875 
L 19.671875 29.296875 
L 19.671875 0 
L 9.8125 0 
z
" id="DejaVuSans-80"/>
     <path d="M 9.421875 75.984375 
L 18.40625 75.984375 
L 18.40625 0 
L 9.421875 0 
z
" id="DejaVuSans-108"/>
     <path id="DejaVuSans-32"/>
     <path d="M 48.78125 52.59375 
L 48.78125 44.1875 
Q 44.96875 46.296875 41.140625 47.34375 
Q 37.3125 48.390625 33.40625 48.390625 
Q 24.65625 48.390625 19.8125 42.84375 
Q 14.984375 37.3125 14.984375 27.296875 
Q 14.984375 17.28125 19.8125 11.734375 
Q 24.65625 6.203125 33.40625 6.203125 
Q 37.3125 6.203125 41.140625 7.25 
Q 44.96875 8.296875 48.78125 10.40625 
L 48.78125 2.09375 
Q 45.015625 0.34375 40.984375 -0.53125 
Q 36.96875 -1.421875 32.421875 -1.421875 
Q 20.0625 -1.421875 12.78125 6.34375 
Q 5.515625 14.109375 5.515625 27.296875 
Q 5.515625 40.671875 12.859375 48.328125 
Q 20.21875 56 33.015625 56 
Q 37.15625 56 41.109375 55.140625 
Q 45.0625 54.296875 48.78125 52.59375 
z
" id="DejaVuSans-99"/>
     <path d="M 41.109375 46.296875 
Q 39.59375 47.171875 37.8125 47.578125 
Q 36.03125 48 33.890625 48 
Q 26.265625 48 22.1875 43.046875 
Q 18.109375 38.09375 18.109375 28.8125 
L 18.109375 0 
L 9.078125 0 
L 9.078125 54.6875 
L 18.109375 54.6875 
L 18.109375 46.1875 
Q 20.953125 51.171875 25.484375 53.578125 
Q 30.03125 56 36.53125 56 
Q 37.453125 56 38.578125 55.875 
Q 39.703125 55.765625 41.0625 55.515625 
z
" id="DejaVuSans-114"/>
     <path d="M 56.203125 29.59375 
L 56.203125 25.203125 
L 14.890625 25.203125 
Q 15.484375 15.921875 20.484375 11.0625 
Q 25.484375 6.203125 34.421875 6.203125 
Q 39.59375 6.203125 44.453125 7.46875 
Q 49.3125 8.734375 54.109375 11.28125 
L 54.109375 2.78125 
Q 49.265625 0.734375 44.1875 -0.34375 
Q 39.109375 -1.421875 33.890625 -1.421875 
Q 20.796875 -1.421875 13.15625 6.1875 
Q 5.515625 13.8125 5.515625 26.8125 
Q 5.515625 40.234375 12.765625 48.109375 
Q 20.015625 56 32.328125 56 
Q 43.359375 56 49.78125 48.890625 
Q 56.203125 41.796875 56.203125 29.59375 
z
M 47.21875 32.234375 
Q 47.125 39.59375 43.09375 43.984375 
Q 39.0625 48.390625 32.421875 48.390625 
Q 24.90625 48.390625 20.390625 44.140625 
Q 15.875 39.890625 15.1875 32.171875 
z
" id="DejaVuSans-101"/>
     <path d="M 34.28125 27.484375 
Q 23.390625 27.484375 19.1875 25 
Q 14.984375 22.515625 14.984375 16.5 
Q 14.984375 11.71875 18.140625 8.90625 
Q 21.296875 6.109375 26.703125 6.109375 
Q 34.1875 6.109375 38.703125 11.40625 
Q 43.21875 16.703125 43.21875 25.484375 
L 43.21875 27.484375 
z
M 52.203125 31.203125 
L 52.203125 0 
L 43.21875 0 
L 43.21875 8.296875 
Q 40.140625 3.328125 35.546875 0.953125 
Q 30.953125 -1.421875 24.3125 -1.421875 
Q 15.921875 -1.421875 10.953125 3.296875 
Q 6 8.015625 6 15.921875 
Q 6 25.140625 12.171875 29.828125 
Q 18.359375 34.515625 30.609375 34.515625 
L 43.21875 34.515625 
L 43.21875 35.40625 
Q 43.21875 41.609375 39.140625 45 
Q 35.0625 48.390625 27.6875 48.390625 
Q 23 48.390625 18.546875 47.265625 
Q 14.109375 46.140625 10.015625 43.890625 
L 10.015625 52.203125 
Q 14.9375 54.109375 19.578125 55.046875 
Q 24.21875 56 28.609375 56 
Q 40.484375 56 46.34375 49.84375 
Q 52.203125 43.703125 52.203125 31.203125 
z
" id="DejaVuSans-97"/>
     <path d="M 45.40625 46.390625 
L 45.40625 75.984375 
L 54.390625 75.984375 
L 54.390625 0 
L 45.40625 0 
L 45.40625 8.203125 
Q 42.578125 3.328125 38.25 0.953125 
Q 33.9375 -1.421875 27.875 -1.421875 
Q 17.96875 -1.421875 11.734375 6.484375 
Q 5.515625 14.40625 5.515625 27.296875 
Q 5.515625 40.1875 11.734375 48.09375 
Q 17.96875 56 27.875 56 
Q 33.9375 56 38.25 53.625 
Q 42.578125 51.265625 45.40625 46.390625 
z
M 14.796875 27.296875 
Q 14.796875 17.390625 18.875 11.75 
Q 22.953125 6.109375 30.078125 6.109375 
Q 37.203125 6.109375 41.296875 11.75 
Q 45.40625 17.390625 45.40625 27.296875 
Q 45.40625 37.203125 41.296875 42.84375 
Q 37.203125 48.484375 30.078125 48.484375 
Q 22.953125 48.484375 18.875 42.84375 
Q 14.796875 37.203125 14.796875 27.296875 
z
" id="DejaVuSans-100"/>
     <path d="M 3.328125 72.90625 
L 13.28125 72.90625 
L 28.609375 11.28125 
L 43.890625 72.90625 
L 54.984375 72.90625 
L 70.3125 11.28125 
L 85.59375 72.90625 
L 95.609375 72.90625 
L 77.296875 0 
L 64.890625 0 
L 49.515625 63.28125 
L 33.984375 0 
L 21.578125 0 
z
" id="DejaVuSans-87"/>
     <path d="M 34.1875 63.1875 
L 20.796875 26.90625 
L 47.609375 26.90625 
z
M 28.609375 72.90625 
L 39.796875 72.90625 
L 67.578125 0 
L 57.328125 0 
L 50.6875 18.703125 
L 17.828125 18.703125 
L 11.1875 0 
L 0.78125 0 
z
" id="DejaVuSans-65"/>
     <path d="M 18.109375 8.203125 
L 18.109375 -20.796875 
L 9.078125 -20.796875 
L 9.078125 54.6875 
L 18.109375 54.6875 
L 18.109375 46.390625 
Q 20.953125 51.265625 25.265625 53.625 
Q 29.59375 56 35.59375 56 
Q 45.5625 56 51.78125 48.09375 
Q 58.015625 40.1875 58.015625 27.296875 
Q 58.015625 14.40625 51.78125 6.484375 
Q 45.5625 -1.421875 35.59375 -1.421875 
Q 29.59375 -1.421875 25.265625 0.953125 
Q 20.953125 3.328125 18.109375 8.203125 
z
M 48.6875 27.296875 
Q 48.6875 37.203125 44.609375 42.84375 
Q 40.53125 48.484375 33.40625 48.484375 
Q 26.265625 48.484375 22.1875 42.84375 
Q 18.109375 37.203125 18.109375 27.296875 
Q 18.109375 17.390625 22.1875 11.75 
Q 26.265625 6.109375 33.40625 6.109375 
Q 40.53125 6.109375 44.609375 11.75 
Q 48.6875 17.390625 48.6875 27.296875 
z
" id="DejaVuSans-112"/>
     <path d="M 40.578125 39.3125 
Q 47.65625 37.796875 51.625 33 
Q 55.609375 28.21875 55.609375 21.1875 
Q 55.609375 10.40625 48.1875 4.484375 
Q 40.765625 -1.421875 27.09375 -1.421875 
Q 22.515625 -1.421875 17.65625 -0.515625 
Q 12.796875 0.390625 7.625 2.203125 
L 7.625 11.71875 
Q 11.71875 9.328125 16.59375 8.109375 
Q 21.484375 6.890625 26.8125 6.890625 
Q 36.078125 6.890625 40.9375 10.546875 
Q 45.796875 14.203125 45.796875 21.1875 
Q 45.796875 27.640625 41.28125 31.265625 
Q 36.765625 34.90625 28.71875 34.90625 
L 20.21875 34.90625 
L 20.21875 43.015625 
L 29.109375 43.015625 
Q 36.375 43.015625 40.234375 45.921875 
Q 44.09375 48.828125 44.09375 54.296875 
Q 44.09375 59.90625 40.109375 62.90625 
Q 36.140625 65.921875 28.71875 65.921875 
Q 24.65625 65.921875 20.015625 65.03125 
Q 15.375 64.15625 9.8125 62.3125 
L 9.8125 71.09375 
Q 15.4375 72.65625 20.34375 73.4375 
Q 25.25 74.21875 29.59375 74.21875 
Q 40.828125 74.21875 47.359375 69.109375 
Q 53.90625 64.015625 53.90625 55.328125 
Q 53.90625 49.265625 50.4375 45.09375 
Q 46.96875 40.921875 40.578125 39.3125 
z
" id="DejaVuSans-51"/>
     <path d="M 11.71875 12.40625 
L 22.015625 12.40625 
L 22.015625 0 
L 11.71875 0 
z
M 11.71875 51.703125 
L 22.015625 51.703125 
L 22.015625 39.3125 
L 11.71875 39.3125 
z
" id="DejaVuSans-58"/>
     <path d="M 10.984375 1.515625 
L 10.984375 10.5 
Q 14.703125 8.734375 18.5 7.8125 
Q 22.3125 6.890625 25.984375 6.890625 
Q 35.75 6.890625 40.890625 13.453125 
Q 46.046875 20.015625 46.78125 33.40625 
Q 43.953125 29.203125 39.59375 26.953125 
Q 35.25 24.703125 29.984375 24.703125 
Q 19.046875 24.703125 12.671875 31.3125 
Q 6.296875 37.9375 6.296875 49.421875 
Q 6.296875 60.640625 12.9375 67.421875 
Q 19.578125 74.21875 30.609375 74.21875 
Q 43.265625 74.21875 49.921875 64.515625 
Q 56.59375 54.828125 56.59375 36.375 
Q 56.59375 19.140625 48.40625 8.859375 
Q 40.234375 -1.421875 26.421875 -1.421875 
Q 22.703125 -1.421875 18.890625 -0.6875 
Q 15.09375 0.046875 10.984375 1.515625 
z
M 30.609375 32.421875 
Q 37.25 32.421875 41.125 36.953125 
Q 45.015625 41.5 45.015625 49.421875 
Q 45.015625 57.28125 41.125 61.84375 
Q 37.25 66.40625 30.609375 66.40625 
Q 23.96875 66.40625 20.09375 61.84375 
Q 16.21875 57.28125 16.21875 49.421875 
Q 16.21875 41.5 20.09375 36.953125 
Q 23.96875 32.421875 30.609375 32.421875 
z
" id="DejaVuSans-57"/>
    </defs>
    <g transform="translate(1949.3525 103.6092)scale(0.08 -0.08)">
     <use xlink:href="#DejaVuSans-80"/>
     <use x="60.302734" xlink:href="#DejaVuSans-108"/>
     <use x="88.085938" xlink:href="#DejaVuSans-111"/>
     <use x="149.267578" xlink:href="#DejaVuSans-116"/>
     <use x="188.476562" xlink:href="#DejaVuSans-32"/>
     <use x="220.263672" xlink:href="#DejaVuSans-99"/>
     <use x="275.244141" xlink:href="#DejaVuSans-114"/>
     <use x="316.326172" xlink:href="#DejaVuSans-101"/>
     <use x="377.849609" xlink:href="#DejaVuSans-97"/>
     <use x="439.128906" xlink:href="#DejaVuSans-116"/>
     <use x="478.337891" xlink:href="#DejaVuSans-101"/>
     <use x="539.861328" xlink:href="#DejaVuSans-100"/>
     <use x="603.337891" xlink:href="#DejaVuSans-32"/>
     <use x="635.125" xlink:href="#DejaVuSans-87"/>
     <use x="733.923828" xlink:href="#DejaVuSans-101"/>
     <use x="795.447266" xlink:href="#DejaVuSans-100"/>
     <use x="858.923828" xlink:href="#DejaVuSans-32"/>
     <use x="890.710938" xlink:href="#DejaVuSans-65"/>
     <use x="959.119141" xlink:href="#DejaVuSans-112"/>
     <use x="1022.595703" xlink:href="#DejaVuSans-114"/>
     <use x="1063.708984" xlink:href="#DejaVuSans-32"/>
     <use x="1095.496094" xlink:href="#DejaVuSans-32"/>
     <use x="1127.283203" xlink:href="#DejaVuSans-51"/>
     <use x="1190.90625" xlink:href="#DejaVuSans-32"/>
     <use x="1222.693359" xlink:href="#DejaVuSans-49"/>
     <use x="1286.316406" xlink:href="#DejaVuSans-54"/>
     <use x="1349.939453" xlink:href="#DejaVuSans-58"/>
     <use x="1383.630859" xlink:href="#DejaVuSans-49"/>
     <use x="1447.253906" xlink:href="#DejaVuSans-53"/>
     <use x="1510.876953" xlink:href="#DejaVuSans-58"/>
     <use x="1544.568359" xlink:href="#DejaVuSans-53"/>
     <use x="1608.191406" xlink:href="#DejaVuSans-50"/>
     <use x="1671.814453" xlink:href="#DejaVuSans-32"/>
     <use x="1703.601562" xlink:href="#DejaVuSans-50"/>
     <use x="1767.224609" xlink:href="#DejaVuSans-48"/>
     <use x="1830.847656" xlink:href="#DejaVuSans-49"/>
     <use x="1894.470703" xlink:href="#DejaVuSans-57"/>
    </g>
   </g>
   <g id="legend_1">
    <g id="patch_7">
     <path d="M 1525.28 1096.092 
L 1569.66 1096.092 
Q 1571.06 1096.092 1571.06 1094.692 
L 1571.06 1059.61325 
Q 1571.06 1058.21325 1569.66 1058.21325 
L 1525.28 1058.21325 
Q 1523.88 1058.21325 1523.88 1059.61325 
L 1523.88 1094.692 
Q 1523.88 1096.092 1525.28 1096.092 
z
" style="fill:#ffffff;opacity:0.8;stroke:#cccccc;stroke-linejoin:miter;"/>
    </g>
    <g id="line2d_17">
     <path d="M 1524.02 1061.222156 
L 1538.02 1061.222156 
" style="fill:none;stroke:#1f77b4;stroke-linecap:square;stroke-width:1.5;"/>
    </g>
    <g id="line2d_18"/>
    <g id="text_16">
     <!-- 0: None -->
     <defs>
      <path d="M 9.8125 72.90625 
L 23.09375 72.90625 
L 55.421875 11.921875 
L 55.421875 72.90625 
L 64.984375 72.90625 
L 64.984375 0 
L 51.703125 0 
L 19.390625 60.984375 
L 19.390625 0 
L 9.8125 0 
z
" id="DejaVuSans-78"/>
     </defs>
     <g transform="translate(1543.62 1063.672156)scale(0.07 -0.07)">
      <use xlink:href="#DejaVuSans-48"/>
      <use x="63.623047" xlink:href="#DejaVuSans-58"/>
      <use x="97.314453" xlink:href="#DejaVuSans-32"/>
      <use x="129.101562" xlink:href="#DejaVuSans-78"/>
      <use x="203.90625" xlink:href="#DejaVuSans-111"/>
      <use x="265.087891" xlink:href="#DejaVuSans-110"/>
      <use x="328.466797" xlink:href="#DejaVuSans-101"/>
     </g>
    </g>
    <g id="line2d_19">
     <path d="M 1524.02 1071.496844 
L 1538.02 1071.496844 
" style="fill:none;stroke:#ff7f0e;stroke-linecap:square;stroke-width:1.5;"/>
    </g>
    <g id="line2d_20"/>
    <g id="text_17">
     <!-- 1: None -->
     <g transform="translate(1543.62 1073.946844)scale(0.07 -0.07)">
      <use xlink:href="#DejaVuSans-49"/>
      <use x="63.623047" xlink:href="#DejaVuSans-58"/>
      <use x="97.314453" xlink:href="#DejaVuSans-32"/>
      <use x="129.101562" xlink:href="#DejaVuSans-78"/>
      <use x="203.90625" xlink:href="#DejaVuSans-111"/>
      <use x="265.087891" xlink:href="#DejaVuSans-110"/>
      <use x="328.466797" xlink:href="#DejaVuSans-101"/>
     </g>
    </g>
    <g id="line2d_21">
     <path d="M 1524.02 1081.771531 
L 1538.02 1081.771531 
" style="fill:none;stroke:#2ca02c;stroke-linecap:square;stroke-width:1.5;"/>
    </g>
    <g id="line2d_22"/>
    <g id="text_18">
     <!-- 2: None -->
     <g transform="translate(1543.62 1084.221531)scale(0.07 -0.07)">
      <use xlink:href="#DejaVuSans-50"/>
      <use x="63.623047" xlink:href="#DejaVuSans-58"/>
      <use x="97.314453" xlink:href="#DejaVuSans-32"/>
      <use x="129.101562" xlink:href="#DejaVuSans-78"/>
      <use x="203.90625" xlink:href="#DejaVuSans-111"/>
      <use x="265.087891" xlink:href="#DejaVuSans-110"/>
      <use x="328.466797" xlink:href="#DejaVuSans-101"/>
     </g>
    </g>
    <g id="line2d_23">
     <path d="M 1524.02 1092.046219 
L 1538.02 1092.046219 
" style="fill:none;stroke:#d62728;stroke-linecap:square;stroke-width:1.5;"/>
    </g>
    <g id="line2d_24"/>
    <g id="text_19">
     <!-- 3: None -->
     <g transform="translate(1543.62 1094.496219)scale(0.07 -0.07)">
      <use xlink:href="#DejaVuSans-51"/>
      <use x="63.623047" xlink:href="#DejaVuSans-58"/>
      <use x="97.314453" xlink:href="#DejaVuSans-32"/>
      <use x="129.101562" xlink:href="#DejaVuSans-78"/>
      <use x="203.90625" xlink:href="#DejaVuSans-111"/>
      <use x="265.087891" xlink:href="#DejaVuSans-110"/>
      <use x="328.466797" xlink:href="#DejaVuSans-101"/>
     </g>
    </g>
   </g>
  </g>
 </g>
 <defs>
  <clipPath id="pbe7ea436d0">
   <rect height="967.14" width="1188" x="324" y="128.952"/>
  </clipPath>
 </defs>
</svg>
