<?xml version="1.0" encoding="utf-8" standalone="no"?>
<!DOCTYPE svg PUBLIC "-//W3C//DTD SVG 1.1//EN"
  "http://www.w3.org/Graphics/SVG/1.1/DTD/svg11.dtd">
<!-- Created with matplotlib (https://matplotlib.org/) -->
<svg height="307.44pt" version="1.1" viewBox="0 0 498.24 307.44" width="498.24pt" xmlns="http://www.w3.org/2000/svg" xmlns:xlink="http://www.w3.org/1999/xlink">
 <defs>
  <style type="text/css">
*{stroke-linecap:butt;stroke-linejoin:round;}
  </style>
 </defs>
 <g id="figure_1">
  <g id="patch_1">
   <path d="M 0 307.44 
L 498.24 307.44 
L 498.24 0 
L 0 0 
z
" style="fill:#ffffff;"/>
  </g>
  <g id="axes_1">
   <g id="patch_2">
    <path d="M 74.736 261.324 
L 348.768 261.324 
L 348.768 30.744 
L 74.736 30.744 
z
" style="fill:#ffffff;"/>
   </g>
   <g id="matplotlib.axis_1">
    <g id="xtick_1">
     <g id="line2d_1">
      <defs>
       <path d="M 0 0 
L 0 3.5 
" id="m704f087142" style="stroke:#000000;stroke-width:0.8;"/>
      </defs>
      <g>
       <use style="stroke:#000000;stroke-width:0.8;" x="83.106833" xlink:href="#m704f087142" y="261.324"/>
      </g>
     </g>
     <g id="text_1">
      <!-- −0.010 -->
      <defs>
       <path d="M 10.59375 35.5 
L 73.1875 35.5 
L 73.1875 27.203125 
L 10.59375 27.203125 
z
" id="DejaVuSans-8722"/>
       <path d="M 31.78125 66.40625 
Q 24.171875 66.40625 20.328125 58.90625 
Q 16.5 51.421875 16.5 36.375 
Q 16.5 21.390625 20.328125 13.890625 
Q 24.171875 6.390625 31.78125 6.390625 
Q 39.453125 6.390625 43.28125 13.890625 
Q 47.125 21.390625 47.125 36.375 
Q 47.125 51.421875 43.28125 58.90625 
Q 39.453125 66.40625 31.78125 66.40625 
z
M 31.78125 74.21875 
Q 44.046875 74.21875 50.515625 64.515625 
Q 56.984375 54.828125 56.984375 36.375 
Q 56.984375 17.96875 50.515625 8.265625 
Q 44.046875 -1.421875 31.78125 -1.421875 
Q 19.53125 -1.421875 13.0625 8.265625 
Q 6.59375 17.96875 6.59375 36.375 
Q 6.59375 54.828125 13.0625 64.515625 
Q 19.53125 74.21875 31.78125 74.21875 
z
" id="DejaVuSans-48"/>
       <path d="M 10.6875 12.40625 
L 21 12.40625 
L 21 0 
L 10.6875 0 
z
" id="DejaVuSans-46"/>
       <path d="M 12.40625 8.296875 
L 28.515625 8.296875 
L 28.515625 63.921875 
L 10.984375 60.40625 
L 10.984375 69.390625 
L 28.421875 72.90625 
L 38.28125 72.90625 
L 38.28125 8.296875 
L 54.390625 8.296875 
L 54.390625 0 
L 12.40625 0 
z
" id="DejaVuSans-49"/>
      </defs>
      <g transform="translate(64.602927 275.922437)scale(0.1 -0.1)">
       <use xlink:href="#DejaVuSans-8722"/>
       <use x="83.789062" xlink:href="#DejaVuSans-48"/>
       <use x="147.412109" xlink:href="#DejaVuSans-46"/>
       <use x="179.199219" xlink:href="#DejaVuSans-48"/>
       <use x="242.822266" xlink:href="#DejaVuSans-49"/>
       <use x="306.445312" xlink:href="#DejaVuSans-48"/>
      </g>
     </g>
    </g>
    <g id="xtick_2">
     <g id="line2d_2">
      <g>
       <use style="stroke:#000000;stroke-width:0.8;" x="142.358346" xlink:href="#m704f087142" y="261.324"/>
      </g>
     </g>
     <g id="text_2">
      <!-- −0.005 -->
      <defs>
       <path d="M 10.796875 72.90625 
L 49.515625 72.90625 
L 49.515625 64.59375 
L 19.828125 64.59375 
L 19.828125 46.734375 
Q 21.96875 47.46875 24.109375 47.828125 
Q 26.265625 48.1875 28.421875 48.1875 
Q 40.625 48.1875 47.75 41.5 
Q 54.890625 34.8125 54.890625 23.390625 
Q 54.890625 11.625 47.5625 5.09375 
Q 40.234375 -1.421875 26.90625 -1.421875 
Q 22.3125 -1.421875 17.546875 -0.640625 
Q 12.796875 0.140625 7.71875 1.703125 
L 7.71875 11.625 
Q 12.109375 9.234375 16.796875 8.0625 
Q 21.484375 6.890625 26.703125 6.890625 
Q 35.15625 6.890625 40.078125 11.328125 
Q 45.015625 15.765625 45.015625 23.390625 
Q 45.015625 31 40.078125 35.4375 
Q 35.15625 39.890625 26.703125 39.890625 
Q 22.75 39.890625 18.8125 39.015625 
Q 14.890625 38.140625 10.796875 36.28125 
z
" id="DejaVuSans-53"/>
      </defs>
      <g transform="translate(123.85444 275.922437)scale(0.1 -0.1)">
       <use xlink:href="#DejaVuSans-8722"/>
       <use x="83.789062" xlink:href="#DejaVuSans-48"/>
       <use x="147.412109" xlink:href="#DejaVuSans-46"/>
       <use x="179.199219" xlink:href="#DejaVuSans-48"/>
       <use x="242.822266" xlink:href="#DejaVuSans-48"/>
       <use x="306.445312" xlink:href="#DejaVuSans-53"/>
      </g>
     </g>
    </g>
    <g id="xtick_3">
     <g id="line2d_3">
      <g>
       <use style="stroke:#000000;stroke-width:0.8;" x="201.609859" xlink:href="#m704f087142" y="261.324"/>
      </g>
     </g>
     <g id="text_3">
      <!-- 0.000 -->
      <g transform="translate(187.295797 275.922437)scale(0.1 -0.1)">
       <use xlink:href="#DejaVuSans-48"/>
       <use x="63.623047" xlink:href="#DejaVuSans-46"/>
       <use x="95.410156" xlink:href="#DejaVuSans-48"/>
       <use x="159.033203" xlink:href="#DejaVuSans-48"/>
       <use x="222.65625" xlink:href="#DejaVuSans-48"/>
      </g>
     </g>
    </g>
    <g id="xtick_4">
     <g id="line2d_4">
      <g>
       <use style="stroke:#000000;stroke-width:0.8;" x="260.861372" xlink:href="#m704f087142" y="261.324"/>
      </g>
     </g>
     <g id="text_4">
      <!-- 0.005 -->
      <g transform="translate(246.54731 275.922437)scale(0.1 -0.1)">
       <use xlink:href="#DejaVuSans-48"/>
       <use x="63.623047" xlink:href="#DejaVuSans-46"/>
       <use x="95.410156" xlink:href="#DejaVuSans-48"/>
       <use x="159.033203" xlink:href="#DejaVuSans-48"/>
       <use x="222.65625" xlink:href="#DejaVuSans-53"/>
      </g>
     </g>
    </g>
    <g id="xtick_5">
     <g id="line2d_5">
      <g>
       <use style="stroke:#000000;stroke-width:0.8;" x="320.112885" xlink:href="#m704f087142" y="261.324"/>
      </g>
     </g>
     <g id="text_5">
      <!-- 0.010 -->
      <g transform="translate(305.798823 275.922437)scale(0.1 -0.1)">
       <use xlink:href="#DejaVuSans-48"/>
       <use x="63.623047" xlink:href="#DejaVuSans-46"/>
       <use x="95.410156" xlink:href="#DejaVuSans-48"/>
       <use x="159.033203" xlink:href="#DejaVuSans-49"/>
       <use x="222.65625" xlink:href="#DejaVuSans-48"/>
      </g>
     </g>
    </g>
    <g id="text_6">
     <!-- Distance -->
     <defs>
      <path d="M 19.671875 64.796875 
L 19.671875 8.109375 
L 31.59375 8.109375 
Q 46.6875 8.109375 53.6875 14.9375 
Q 60.6875 21.78125 60.6875 36.53125 
Q 60.6875 51.171875 53.6875 57.984375 
Q 46.6875 64.796875 31.59375 64.796875 
z
M 9.8125 72.90625 
L 30.078125 72.90625 
Q 51.265625 72.90625 61.171875 64.09375 
Q 71.09375 55.28125 71.09375 36.53125 
Q 71.09375 17.671875 61.125 8.828125 
Q 51.171875 0 30.078125 0 
L 9.8125 0 
z
" id="DejaVuSans-68"/>
      <path d="M 9.421875 54.6875 
L 18.40625 54.6875 
L 18.40625 0 
L 9.421875 0 
z
M 9.421875 75.984375 
L 18.40625 75.984375 
L 18.40625 64.59375 
L 9.421875 64.59375 
z
" id="DejaVuSans-105"/>
      <path d="M 44.28125 53.078125 
L 44.28125 44.578125 
Q 40.484375 46.53125 36.375 47.5 
Q 32.28125 48.484375 27.875 48.484375 
Q 21.1875 48.484375 17.84375 46.4375 
Q 14.5 44.390625 14.5 40.28125 
Q 14.5 37.15625 16.890625 35.375 
Q 19.28125 33.59375 26.515625 31.984375 
L 29.59375 31.296875 
Q 39.15625 29.25 43.1875 25.515625 
Q 47.21875 21.78125 47.21875 15.09375 
Q 47.21875 7.46875 41.1875 3.015625 
Q 35.15625 -1.421875 24.609375 -1.421875 
Q 20.21875 -1.421875 15.453125 -0.5625 
Q 10.6875 0.296875 5.421875 2 
L 5.421875 11.28125 
Q 10.40625 8.6875 15.234375 7.390625 
Q 20.0625 6.109375 24.8125 6.109375 
Q 31.15625 6.109375 34.5625 8.28125 
Q 37.984375 10.453125 37.984375 14.40625 
Q 37.984375 18.0625 35.515625 20.015625 
Q 33.0625 21.96875 24.703125 23.78125 
L 21.578125 24.515625 
Q 13.234375 26.265625 9.515625 29.90625 
Q 5.8125 33.546875 5.8125 39.890625 
Q 5.8125 47.609375 11.28125 51.796875 
Q 16.75 56 26.8125 56 
Q 31.78125 56 36.171875 55.265625 
Q 40.578125 54.546875 44.28125 53.078125 
z
" id="DejaVuSans-115"/>
      <path d="M 18.3125 70.21875 
L 18.3125 54.6875 
L 36.8125 54.6875 
L 36.8125 47.703125 
L 18.3125 47.703125 
L 18.3125 18.015625 
Q 18.3125 11.328125 20.140625 9.421875 
Q 21.96875 7.515625 27.59375 7.515625 
L 36.8125 7.515625 
L 36.8125 0 
L 27.59375 0 
Q 17.1875 0 13.234375 3.875 
Q 9.28125 7.765625 9.28125 18.015625 
L 9.28125 47.703125 
L 2.6875 47.703125 
L 2.6875 54.6875 
L 9.28125 54.6875 
L 9.28125 70.21875 
z
" id="DejaVuSans-116"/>
      <path d="M 34.28125 27.484375 
Q 23.390625 27.484375 19.1875 25 
Q 14.984375 22.515625 14.984375 16.5 
Q 14.984375 11.71875 18.140625 8.90625 
Q 21.296875 6.109375 26.703125 6.109375 
Q 34.1875 6.109375 38.703125 11.40625 
Q 43.21875 16.703125 43.21875 25.484375 
L 43.21875 27.484375 
z
M 52.203125 31.203125 
L 52.203125 0 
L 43.21875 0 
L 43.21875 8.296875 
Q 40.140625 3.328125 35.546875 0.953125 
Q 30.953125 -1.421875 24.3125 -1.421875 
Q 15.921875 -1.421875 10.953125 3.296875 
Q 6 8.015625 6 15.921875 
Q 6 25.140625 12.171875 29.828125 
Q 18.359375 34.515625 30.609375 34.515625 
L 43.21875 34.515625 
L 43.21875 35.40625 
Q 43.21875 41.609375 39.140625 45 
Q 35.0625 48.390625 27.6875 48.390625 
Q 23 48.390625 18.546875 47.265625 
Q 14.109375 46.140625 10.015625 43.890625 
L 10.015625 52.203125 
Q 14.9375 54.109375 19.578125 55.046875 
Q 24.21875 56 28.609375 56 
Q 40.484375 56 46.34375 49.84375 
Q 52.203125 43.703125 52.203125 31.203125 
z
" id="DejaVuSans-97"/>
      <path d="M 54.890625 33.015625 
L 54.890625 0 
L 45.90625 0 
L 45.90625 32.71875 
Q 45.90625 40.484375 42.875 44.328125 
Q 39.84375 48.1875 33.796875 48.1875 
Q 26.515625 48.1875 22.3125 43.546875 
Q 18.109375 38.921875 18.109375 30.90625 
L 18.109375 0 
L 9.078125 0 
L 9.078125 54.6875 
L 18.109375 54.6875 
L 18.109375 46.1875 
Q 21.34375 51.125 25.703125 53.5625 
Q 30.078125 56 35.796875 56 
Q 45.21875 56 50.046875 50.171875 
Q 54.890625 44.34375 54.890625 33.015625 
z
" id="DejaVuSans-110"/>
      <path d="M 48.78125 52.59375 
L 48.78125 44.1875 
Q 44.96875 46.296875 41.140625 47.34375 
Q 37.3125 48.390625 33.40625 48.390625 
Q 24.65625 48.390625 19.8125 42.84375 
Q 14.984375 37.3125 14.984375 27.296875 
Q 14.984375 17.28125 19.8125 11.734375 
Q 24.65625 6.203125 33.40625 6.203125 
Q 37.3125 6.203125 41.140625 7.25 
Q 44.96875 8.296875 48.78125 10.40625 
L 48.78125 2.09375 
Q 45.015625 0.34375 40.984375 -0.53125 
Q 36.96875 -1.421875 32.421875 -1.421875 
Q 20.0625 -1.421875 12.78125 6.34375 
Q 5.515625 14.109375 5.515625 27.296875 
Q 5.515625 40.671875 12.859375 48.328125 
Q 20.21875 56 33.015625 56 
Q 37.15625 56 41.109375 55.140625 
Q 45.0625 54.296875 48.78125 52.59375 
z
" id="DejaVuSans-99"/>
      <path d="M 56.203125 29.59375 
L 56.203125 25.203125 
L 14.890625 25.203125 
Q 15.484375 15.921875 20.484375 11.0625 
Q 25.484375 6.203125 34.421875 6.203125 
Q 39.59375 6.203125 44.453125 7.46875 
Q 49.3125 8.734375 54.109375 11.28125 
L 54.109375 2.78125 
Q 49.265625 0.734375 44.1875 -0.34375 
Q 39.109375 -1.421875 33.890625 -1.421875 
Q 20.796875 -1.421875 13.15625 6.1875 
Q 5.515625 13.8125 5.515625 26.8125 
Q 5.515625 40.234375 12.765625 48.109375 
Q 20.015625 56 32.328125 56 
Q 43.359375 56 49.78125 48.890625 
Q 56.203125 41.796875 56.203125 29.59375 
z
M 47.21875 32.234375 
Q 47.125 39.59375 43.09375 43.984375 
Q 39.0625 48.390625 32.421875 48.390625 
Q 24.90625 48.390625 20.390625 44.140625 
Q 15.875 39.890625 15.1875 32.171875 
z
" id="DejaVuSans-101"/>
     </defs>
     <g transform="translate(189.8895 289.600562)scale(0.1 -0.1)">
      <use xlink:href="#DejaVuSans-68"/>
      <use x="77.001953" xlink:href="#DejaVuSans-105"/>
      <use x="104.785156" xlink:href="#DejaVuSans-115"/>
      <use x="156.884766" xlink:href="#DejaVuSans-116"/>
      <use x="196.09375" xlink:href="#DejaVuSans-97"/>
      <use x="257.373047" xlink:href="#DejaVuSans-110"/>
      <use x="320.751953" xlink:href="#DejaVuSans-99"/>
      <use x="375.732422" xlink:href="#DejaVuSans-101"/>
     </g>
    </g>
   </g>
   <g id="matplotlib.axis_2">
    <g id="ytick_1">
     <g id="line2d_6">
      <defs>
       <path d="M 0 0 
L -3.5 0 
" id="mddb0fcb1df" style="stroke:#000000;stroke-width:0.8;"/>
      </defs>
      <g>
       <use style="stroke:#000000;stroke-width:0.8;" x="74.736" xlink:href="#mddb0fcb1df" y="256.889769"/>
      </g>
     </g>
     <g id="text_7">
      <!-- 0.00 -->
      <g transform="translate(45.470375 260.688988)scale(0.1 -0.1)">
       <use xlink:href="#DejaVuSans-48"/>
       <use x="63.623047" xlink:href="#DejaVuSans-46"/>
       <use x="95.410156" xlink:href="#DejaVuSans-48"/>
       <use x="159.033203" xlink:href="#DejaVuSans-48"/>
      </g>
     </g>
    </g>
    <g id="ytick_2">
     <g id="line2d_7">
      <g>
       <use style="stroke:#000000;stroke-width:0.8;" x="74.736" xlink:href="#mddb0fcb1df" y="221.955153"/>
      </g>
     </g>
     <g id="text_8">
      <!-- 0.01 -->
      <g transform="translate(45.470375 225.754371)scale(0.1 -0.1)">
       <use xlink:href="#DejaVuSans-48"/>
       <use x="63.623047" xlink:href="#DejaVuSans-46"/>
       <use x="95.410156" xlink:href="#DejaVuSans-48"/>
       <use x="159.033203" xlink:href="#DejaVuSans-49"/>
      </g>
     </g>
    </g>
    <g id="ytick_3">
     <g id="line2d_8">
      <g>
       <use style="stroke:#000000;stroke-width:0.8;" x="74.736" xlink:href="#mddb0fcb1df" y="187.020536"/>
      </g>
     </g>
     <g id="text_9">
      <!-- 0.02 -->
      <defs>
       <path d="M 19.1875 8.296875 
L 53.609375 8.296875 
L 53.609375 0 
L 7.328125 0 
L 7.328125 8.296875 
Q 12.9375 14.109375 22.625 23.890625 
Q 32.328125 33.6875 34.8125 36.53125 
Q 39.546875 41.84375 41.421875 45.53125 
Q 43.3125 49.21875 43.3125 52.78125 
Q 43.3125 58.59375 39.234375 62.25 
Q 35.15625 65.921875 28.609375 65.921875 
Q 23.96875 65.921875 18.8125 64.3125 
Q 13.671875 62.703125 7.8125 59.421875 
L 7.8125 69.390625 
Q 13.765625 71.78125 18.9375 73 
Q 24.125 74.21875 28.421875 74.21875 
Q 39.75 74.21875 46.484375 68.546875 
Q 53.21875 62.890625 53.21875 53.421875 
Q 53.21875 48.921875 51.53125 44.890625 
Q 49.859375 40.875 45.40625 35.40625 
Q 44.1875 33.984375 37.640625 27.21875 
Q 31.109375 20.453125 19.1875 8.296875 
z
" id="DejaVuSans-50"/>
      </defs>
      <g transform="translate(45.470375 190.819755)scale(0.1 -0.1)">
       <use xlink:href="#DejaVuSans-48"/>
       <use x="63.623047" xlink:href="#DejaVuSans-46"/>
       <use x="95.410156" xlink:href="#DejaVuSans-48"/>
       <use x="159.033203" xlink:href="#DejaVuSans-50"/>
      </g>
     </g>
    </g>
    <g id="ytick_4">
     <g id="line2d_9">
      <g>
       <use style="stroke:#000000;stroke-width:0.8;" x="74.736" xlink:href="#mddb0fcb1df" y="152.08592"/>
      </g>
     </g>
     <g id="text_10">
      <!-- 0.03 -->
      <defs>
       <path d="M 40.578125 39.3125 
Q 47.65625 37.796875 51.625 33 
Q 55.609375 28.21875 55.609375 21.1875 
Q 55.609375 10.40625 48.1875 4.484375 
Q 40.765625 -1.421875 27.09375 -1.421875 
Q 22.515625 -1.421875 17.65625 -0.515625 
Q 12.796875 0.390625 7.625 2.203125 
L 7.625 11.71875 
Q 11.71875 9.328125 16.59375 8.109375 
Q 21.484375 6.890625 26.8125 6.890625 
Q 36.078125 6.890625 40.9375 10.546875 
Q 45.796875 14.203125 45.796875 21.1875 
Q 45.796875 27.640625 41.28125 31.265625 
Q 36.765625 34.90625 28.71875 34.90625 
L 20.21875 34.90625 
L 20.21875 43.015625 
L 29.109375 43.015625 
Q 36.375 43.015625 40.234375 45.921875 
Q 44.09375 48.828125 44.09375 54.296875 
Q 44.09375 59.90625 40.109375 62.90625 
Q 36.140625 65.921875 28.71875 65.921875 
Q 24.65625 65.921875 20.015625 65.03125 
Q 15.375 64.15625 9.8125 62.3125 
L 9.8125 71.09375 
Q 15.4375 72.65625 20.34375 73.4375 
Q 25.25 74.21875 29.59375 74.21875 
Q 40.828125 74.21875 47.359375 69.109375 
Q 53.90625 64.015625 53.90625 55.328125 
Q 53.90625 49.265625 50.4375 45.09375 
Q 46.96875 40.921875 40.578125 39.3125 
z
" id="DejaVuSans-51"/>
      </defs>
      <g transform="translate(45.470375 155.885138)scale(0.1 -0.1)">
       <use xlink:href="#DejaVuSans-48"/>
       <use x="63.623047" xlink:href="#DejaVuSans-46"/>
       <use x="95.410156" xlink:href="#DejaVuSans-48"/>
       <use x="159.033203" xlink:href="#DejaVuSans-51"/>
      </g>
     </g>
    </g>
    <g id="ytick_5">
     <g id="line2d_10">
      <g>
       <use style="stroke:#000000;stroke-width:0.8;" x="74.736" xlink:href="#mddb0fcb1df" y="117.151303"/>
      </g>
     </g>
     <g id="text_11">
      <!-- 0.04 -->
      <defs>
       <path d="M 37.796875 64.3125 
L 12.890625 25.390625 
L 37.796875 25.390625 
z
M 35.203125 72.90625 
L 47.609375 72.90625 
L 47.609375 25.390625 
L 58.015625 25.390625 
L 58.015625 17.1875 
L 47.609375 17.1875 
L 47.609375 0 
L 37.796875 0 
L 37.796875 17.1875 
L 4.890625 17.1875 
L 4.890625 26.703125 
z
" id="DejaVuSans-52"/>
      </defs>
      <g transform="translate(45.470375 120.950522)scale(0.1 -0.1)">
       <use xlink:href="#DejaVuSans-48"/>
       <use x="63.623047" xlink:href="#DejaVuSans-46"/>
       <use x="95.410156" xlink:href="#DejaVuSans-48"/>
       <use x="159.033203" xlink:href="#DejaVuSans-52"/>
      </g>
     </g>
    </g>
    <g id="ytick_6">
     <g id="line2d_11">
      <g>
       <use style="stroke:#000000;stroke-width:0.8;" x="74.736" xlink:href="#mddb0fcb1df" y="82.216687"/>
      </g>
     </g>
     <g id="text_12">
      <!-- 0.05 -->
      <g transform="translate(45.470375 86.015905)scale(0.1 -0.1)">
       <use xlink:href="#DejaVuSans-48"/>
       <use x="63.623047" xlink:href="#DejaVuSans-46"/>
       <use x="95.410156" xlink:href="#DejaVuSans-48"/>
       <use x="159.033203" xlink:href="#DejaVuSans-53"/>
      </g>
     </g>
    </g>
    <g id="ytick_7">
     <g id="line2d_12">
      <g>
       <use style="stroke:#000000;stroke-width:0.8;" x="74.736" xlink:href="#mddb0fcb1df" y="47.28207"/>
      </g>
     </g>
     <g id="text_13">
      <!-- 0.06 -->
      <defs>
       <path d="M 33.015625 40.375 
Q 26.375 40.375 22.484375 35.828125 
Q 18.609375 31.296875 18.609375 23.390625 
Q 18.609375 15.53125 22.484375 10.953125 
Q 26.375 6.390625 33.015625 6.390625 
Q 39.65625 6.390625 43.53125 10.953125 
Q 47.40625 15.53125 47.40625 23.390625 
Q 47.40625 31.296875 43.53125 35.828125 
Q 39.65625 40.375 33.015625 40.375 
z
M 52.59375 71.296875 
L 52.59375 62.3125 
Q 48.875 64.0625 45.09375 64.984375 
Q 41.3125 65.921875 37.59375 65.921875 
Q 27.828125 65.921875 22.671875 59.328125 
Q 17.53125 52.734375 16.796875 39.40625 
Q 19.671875 43.65625 24.015625 45.921875 
Q 28.375 48.1875 33.59375 48.1875 
Q 44.578125 48.1875 50.953125 41.515625 
Q 57.328125 34.859375 57.328125 23.390625 
Q 57.328125 12.15625 50.6875 5.359375 
Q 44.046875 -1.421875 33.015625 -1.421875 
Q 20.359375 -1.421875 13.671875 8.265625 
Q 6.984375 17.96875 6.984375 36.375 
Q 6.984375 53.65625 15.1875 63.9375 
Q 23.390625 74.21875 37.203125 74.21875 
Q 40.921875 74.21875 44.703125 73.484375 
Q 48.484375 72.75 52.59375 71.296875 
z
" id="DejaVuSans-54"/>
      </defs>
      <g transform="translate(45.470375 51.081289)scale(0.1 -0.1)">
       <use xlink:href="#DejaVuSans-48"/>
       <use x="63.623047" xlink:href="#DejaVuSans-46"/>
       <use x="95.410156" xlink:href="#DejaVuSans-48"/>
       <use x="159.033203" xlink:href="#DejaVuSans-54"/>
      </g>
     </g>
    </g>
    <g id="text_14">
     <!-- Intensity -->
     <defs>
      <path d="M 9.8125 72.90625 
L 19.671875 72.90625 
L 19.671875 0 
L 9.8125 0 
z
" id="DejaVuSans-73"/>
      <path d="M 32.171875 -5.078125 
Q 28.375 -14.84375 24.75 -17.8125 
Q 21.140625 -20.796875 15.09375 -20.796875 
L 7.90625 -20.796875 
L 7.90625 -13.28125 
L 13.1875 -13.28125 
Q 16.890625 -13.28125 18.9375 -11.515625 
Q 21 -9.765625 23.484375 -3.21875 
L 25.09375 0.875 
L 2.984375 54.6875 
L 12.5 54.6875 
L 29.59375 11.921875 
L 46.6875 54.6875 
L 56.203125 54.6875 
z
" id="DejaVuSans-121"/>
     </defs>
     <g transform="translate(39.390687 167.7965)rotate(-90)scale(0.1 -0.1)">
      <use xlink:href="#DejaVuSans-73"/>
      <use x="29.492188" xlink:href="#DejaVuSans-110"/>
      <use x="92.871094" xlink:href="#DejaVuSans-116"/>
      <use x="132.080078" xlink:href="#DejaVuSans-101"/>
      <use x="193.603516" xlink:href="#DejaVuSans-110"/>
      <use x="256.982422" xlink:href="#DejaVuSans-115"/>
      <use x="309.082031" xlink:href="#DejaVuSans-105"/>
      <use x="336.865234" xlink:href="#DejaVuSans-116"/>
      <use x="376.074219" xlink:href="#DejaVuSans-121"/>
     </g>
    </g>
   </g>
   <g id="line2d_13">
    <defs>
     <path d="M 0 2 
C 0.530406 2 1.03916 1.789267 1.414214 1.414214 
C 1.789267 1.03916 2 0.530406 2 0 
C 2 -0.530406 1.789267 -1.03916 1.414214 -1.414214 
C 1.03916 -1.789267 0.530406 -2 0 -2 
C -0.530406 -2 -1.03916 -1.789267 -1.414214 -1.414214 
C -1.789267 -1.03916 -2 -0.530406 -2 0 
C -2 0.530406 -1.789267 1.03916 -1.414214 1.414214 
C -1.03916 1.789267 -0.530406 2 0 2 
z
" id="mf2db358f1b" style="stroke:#ff0000;"/>
    </defs>
    <g clip-path="url(#pe3428c2dd7)">
     <use style="fill:#ff0000;stroke:#ff0000;" x="198.610429" xlink:href="#mf2db358f1b" y="92.369494"/>
     <use style="fill:#ff0000;stroke:#ff0000;" x="205.829397" xlink:href="#mf2db358f1b" y="95.326929"/>
    </g>
   </g>
   <g id="line2d_14">
    <path clip-path="url(#pe3428c2dd7)" d="M 80.005846 254.392347 
L 80.107522 256.11006 
L 80.15836 255.863905 
L 80.209197 256.114026 
L 80.260035 255.980721 
L 80.310873 255.875287 
L 80.361711 256.372931 
L 80.412549 255.611742 
L 80.463386 256.179216 
L 80.514224 256.326886 
L 80.565062 256.296137 
L 80.819251 255.181599 
L 80.870089 255.91968 
L 80.920927 255.632746 
L 80.971764 255.520072 
L 81.07344 255.923361 
L 81.225953 255.073048 
L 81.276791 256.200982 
L 81.327629 256.159374 
L 81.378467 255.944114 
L 81.480142 255.988887 
L 81.581818 255.911166 
L 81.632656 255.292368 
L 81.734331 256.180019 
L 81.785169 256.067649 
L 81.886845 256.594642 
L 81.937682 256.486601 
L 82.039358 255.480577 
L 82.090196 256.282401 
L 82.141034 255.819889 
L 82.344385 254.75778 
L 82.547736 255.35448 
L 82.751087 255.637808 
L 82.852763 254.695966 
L 83.005276 255.879018 
L 83.259465 254.817288 
L 83.411979 256.00203 
L 83.462816 255.818924 
L 83.564492 256.296637 
L 83.666168 254.545907 
L 83.717005 255.626858 
L 83.818681 256.023793 
L 83.869519 255.896226 
L 84.022032 255.459313 
L 84.07287 254.952638 
L 84.123708 255.30662 
L 84.174546 255.398248 
L 84.276221 255.941365 
L 84.479572 255.06751 
L 84.53041 255.859504 
L 84.581248 255.815915 
L 84.682924 255.085136 
L 84.733761 255.341972 
L 84.784599 255.436934 
L 84.835437 255.328751 
L 84.886275 255.036747 
L 85.038788 256.025034 
L 85.242139 255.263364 
L 85.292977 255.028954 
L 85.343815 255.288918 
L 85.394653 255.283563 
L 85.445491 255.581096 
L 85.496328 255.483225 
L 85.69968 254.842622 
L 85.852193 255.939058 
L 85.953869 255.19329 
L 86.004706 255.450211 
L 86.055544 255.572616 
L 86.106382 254.906538 
L 86.15722 255.472909 
L 86.208058 255.169393 
L 86.258895 255.28596 
L 86.360571 255.729512 
L 86.411409 255.582353 
L 86.462247 255.473335 
L 86.513084 254.840377 
L 86.563922 255.124136 
L 86.665598 256.161828 
L 86.716436 255.993529 
L 86.919787 254.858573 
L 87.123138 256.004602 
L 87.173976 256.19051 
L 87.224813 256.14311 
L 87.326489 255.268601 
L 87.479002 256.191036 
L 87.580678 256.889769 
L 87.733191 255.349958 
L 87.834867 255.55088 
L 88.038218 255.637499 
L 88.139894 255.107206 
L 88.292407 256.39782 
L 88.343245 256.292247 
L 88.394083 256.476948 
L 88.444921 256.367948 
L 88.546596 255.373678 
L 88.648272 256.272327 
L 88.69911 256.160255 
L 88.902461 255.934885 
L 88.953299 255.366271 
L 89.004136 255.699952 
L 89.309163 256.702054 
L 89.360001 256.184895 
L 89.410839 256.390238 
L 89.461677 256.396146 
L 89.512514 256.848136 
L 89.563352 256.807308 
L 89.766703 255.162994 
L 89.970055 256.640363 
L 90.07173 255.734678 
L 90.122568 256.092408 
L 90.173406 255.85037 
L 90.224244 256.42398 
L 90.275081 256.161416 
L 90.427595 255.907612 
L 90.580108 254.994695 
L 90.681784 256.022282 
L 90.732622 255.864979 
L 90.834297 255.78954 
L 90.986811 254.419033 
L 91.139324 255.168013 
L 91.190162 255.257035 
L 91.291837 254.033453 
L 91.393513 254.125741 
L 91.495189 255.065475 
L 91.546026 254.913084 
L 91.647702 254.686434 
L 91.800215 253.610018 
L 91.901891 254.538304 
L 91.952729 254.289659 
L 92.003567 254.241887 
L 92.054404 254.407112 
L 92.206918 253.948111 
L 92.359431 255.255563 
L 92.410269 255.205227 
L 92.61362 254.129309 
L 92.664458 254.86758 
L 92.715296 254.796137 
L 92.766133 254.604287 
L 92.867809 255.098596 
L 92.918647 254.941741 
L 92.969485 254.898338 
L 93.020322 254.041756 
L 93.07116 254.605554 
L 93.172836 254.70199 
L 93.274511 255.24363 
L 93.325349 255.200705 
L 93.376187 255.35352 
L 93.427025 254.598013 
L 93.477863 254.99696 
L 93.579538 254.983095 
L 93.681214 255.142101 
L 93.782889 254.638825 
L 93.833727 254.22652 
L 93.935403 255.570275 
L 93.986241 255.549168 
L 94.189592 255.236 
L 94.24043 254.689715 
L 94.392943 255.972995 
L 94.443781 256.145101 
L 94.494619 256.042246 
L 94.596294 255.569433 
L 94.647132 254.605183 
L 94.69797 255.399674 
L 94.850483 255.791819 
L 95.053834 254.75224 
L 95.104672 255.609253 
L 95.15551 255.399149 
L 95.206348 255.062313 
L 95.257186 255.446449 
L 95.308023 255.460429 
L 95.409699 255.227556 
L 95.460537 254.258987 
L 95.511375 254.88404 
L 95.663888 254.385002 
L 95.714726 254.458684 
L 95.816401 254.603804 
L 95.867239 254.199288 
L 95.918077 254.528019 
L 95.968915 254.556026 
L 96.019753 254.797861 
L 96.273942 253.703055 
L 96.324779 254.296885 
L 96.375617 254.27484 
L 96.477293 253.679861 
L 96.528131 253.748207 
L 96.578968 254.022586 
L 96.629806 253.912725 
L 96.680644 252.746526 
L 96.731482 253.324011 
L 96.883995 254.441304 
L 96.934833 254.344315 
L 97.087346 252.839693 
L 97.138184 253.581082 
L 97.392373 253.963707 
L 97.443211 253.852823 
L 97.494049 252.790022 
L 97.544887 253.344176 
L 97.646562 253.937921 
L 97.6974 253.885466 
L 97.748238 253.843831 
L 97.900751 252.869549 
L 98.002427 253.665634 
L 98.053264 253.562862 
L 98.15494 253.708347 
L 98.307453 253.361984 
L 98.358291 253.769071 
L 98.409129 253.655844 
L 98.663318 252.699103 
L 98.714156 252.09392 
L 98.815831 253.148153 
L 98.866669 253.050573 
L 99.019183 253.38552 
L 99.07002 253.213411 
L 99.120858 252.814585 
L 99.222534 253.839508 
L 99.273372 253.691163 
L 99.324209 253.714827 
L 99.375047 253.60397 
L 99.527561 252.649122 
L 99.680074 253.806184 
L 99.730912 253.801778 
L 99.934263 252.911983 
L 100.086776 253.296165 
L 100.137614 253.48531 
L 100.188452 253.399173 
L 100.340965 252.074653 
L 100.391803 252.554466 
L 100.442641 252.63095 
L 100.544317 253.224686 
L 100.747668 252.285045 
L 100.798506 252.852635 
L 100.900181 252.80096 
L 100.951019 253.029897 
L 101.001857 252.939564 
L 101.052695 252.840959 
L 101.357721 254.051269 
L 101.15437 252.790215 
L 101.408559 253.989171 
L 101.561073 252.949606 
L 101.662748 253.081313 
L 101.713586 252.922382 
L 101.815262 253.494759 
L 101.866099 253.242795 
L 101.967775 252.424048 
L 102.018613 252.967479 
L 102.171126 252.903012 
L 102.374477 252.078744 
L 102.425315 252.611221 
L 102.526991 252.537266 
L 102.577829 252.549818 
L 102.730342 252.960149 
L 102.78118 252.37749 
L 102.832018 253.101107 
L 102.882855 252.921944 
L 103.137044 252.602032 
L 103.187882 251.78557 
L 103.23872 252.420619 
L 103.340395 252.615606 
L 103.391233 252.501699 
L 103.594584 251.472829 
L 103.645422 251.751249 
L 103.69626 251.869506 
L 103.797936 252.579498 
L 103.848773 252.506412 
L 103.899611 252.494879 
L 104.001287 251.815239 
L 104.052125 252.51276 
L 104.102962 252.419883 
L 104.1538 252.246831 
L 104.204638 252.668732 
L 104.255476 252.485431 
L 104.306314 252.011356 
L 104.357151 252.333952 
L 104.407989 252.235952 
L 104.560503 253.33434 
L 104.61134 253.2663 
L 104.814692 252.285029 
L 104.865529 252.767843 
L 104.916367 252.365438 
L 104.967205 252.276243 
L 105.068881 252.946482 
L 105.221394 252.129429 
L 105.424745 253.629607 
L 105.475583 253.714493 
L 105.577259 253.036408 
L 105.628096 252.289284 
L 105.678934 253.150849 
L 105.831448 253.547733 
L 105.882285 253.432652 
L 105.933123 253.538392 
L 105.983961 253.528555 
L 106.034799 253.077599 
L 106.085637 253.531376 
L 106.187312 253.944989 
L 106.23815 254.21184 
L 106.441501 252.985781 
L 106.644852 254.300659 
L 106.848204 252.880115 
L 106.899041 253.588502 
L 106.949879 253.410073 
L 107.000717 253.099602 
L 107.051555 253.313203 
L 107.204068 253.267754 
L 107.356582 252.565545 
L 107.458257 253.099001 
L 107.509095 253.009383 
L 107.661608 252.082946 
L 107.712446 253.148054 
L 107.814122 252.971159 
L 107.915797 253.45956 
L 108.068311 252.304036 
L 108.119149 252.784951 
L 108.169986 252.550295 
L 108.373338 251.511363 
L 108.424175 251.637248 
L 108.475013 251.24933 
L 108.525851 251.71403 
L 108.627526 251.874853 
L 108.678364 251.296597 
L 108.729202 251.37437 
L 108.78004 251.553361 
L 108.830878 251.369928 
L 108.881715 250.970256 
L 108.983391 252.037137 
L 109.034229 252.018535 
L 109.135904 252.40382 
L 109.186742 252.321382 
L 109.23758 252.436492 
L 109.288418 252.093083 
L 109.339256 252.766242 
L 109.390093 252.627999 
L 109.593445 252.367265 
L 109.644282 252.22721 
L 109.69512 251.377403 
L 109.796796 252.604647 
L 110.000147 251.809224 
L 110.050985 251.80726 
L 110.101823 251.011563 
L 110.15266 251.564691 
L 110.254336 251.529975 
L 110.305174 251.879308 
L 110.356012 251.800188 
L 110.508525 250.708125 
L 110.559363 251.321233 
L 110.610201 251.174423 
L 110.661038 251.062568 
L 110.711876 251.574012 
L 110.762714 251.377408 
L 110.915227 249.898348 
L 111.016903 251.495335 
L 111.067741 251.44845 
L 111.169416 250.728918 
L 111.220254 250.962851 
L 111.271092 251.340244 
L 111.32193 250.717336 
L 111.372768 251.24404 
L 111.626957 250.469103 
L 111.728632 249.562791 
L 111.77947 250.042958 
L 111.830308 250.084671 
L 111.881146 249.991363 
L 112.135335 248.925376 
L 112.186172 249.495088 
L 112.23701 249.301249 
L 112.338686 249.212268 
L 112.389524 249.32845 
L 112.440361 249.175703 
L 112.491199 249.128508 
L 112.542037 247.82166 
L 112.592875 248.479436 
L 112.643713 248.689068 
L 112.69455 248.614725 
L 112.745388 248.101065 
L 112.796226 248.271525 
L 112.847064 248.417878 
L 112.897902 248.209205 
L 112.948739 247.473001 
L 113.050415 248.571886 
L 113.101253 248.446562 
L 113.152091 248.603592 
L 113.253766 247.998781 
L 113.355442 247.932139 
L 113.457117 248.770458 
L 113.507955 248.818873 
L 113.558793 248.709373 
L 113.609631 248.947978 
L 113.660469 248.814194 
L 113.762144 247.816565 
L 113.86382 248.920466 
L 113.914658 248.738474 
L 114.168846 247.608369 
L 114.32136 248.964121 
L 114.372198 248.929644 
L 114.524711 248.38554 
L 114.575549 247.4874 
L 114.626387 247.945554 
L 114.7789 248.386841 
L 114.829738 248.217327 
L 114.880576 248.160806 
L 114.931413 248.284818 
L 114.982251 247.447443 
L 115.033089 248.107456 
L 115.134765 248.230866 
L 115.23644 248.52648 
L 115.388954 247.491106 
L 115.490629 248.575715 
L 115.541467 248.495464 
L 115.795656 247.325932 
L 115.897332 248.215171 
L 115.948169 248.040808 
L 115.999007 247.667568 
L 116.049845 247.737271 
L 116.100683 247.788656 
L 116.202358 247.09676 
L 116.40571 248.333069 
L 116.456547 248.344232 
L 116.609061 247.309217 
L 116.761574 248.625047 
L 116.86325 248.685719 
L 116.914088 248.565062 
L 117.015763 247.032106 
L 117.066601 247.783364 
L 117.168277 247.902265 
L 117.269952 248.382461 
L 117.422466 247.430585 
L 117.473303 248.117503 
L 117.574979 248.097806 
L 117.625817 248.329357 
L 117.676655 248.288979 
L 117.77833 247.59243 
L 117.829168 246.932645 
L 117.880006 247.462851 
L 118.083357 246.664673 
L 118.185033 246.731253 
L 118.23587 246.28861 
L 118.286708 247.052636 
L 118.388384 246.948932 
L 118.439222 247.080808 
L 118.490059 246.993468 
L 118.642573 246.45826 
L 118.795086 246.957236 
L 118.998437 245.999484 
L 119.049275 245.640923 
L 119.100113 246.460527 
L 119.150951 246.130651 
L 119.201789 245.995884 
L 119.252626 246.079764 
L 119.303464 246.165225 
L 119.455978 244.812899 
L 119.506815 245.516453 
L 119.557653 245.404325 
L 119.811842 244.504422 
L 119.86268 243.911286 
L 119.913518 244.408652 
L 120.015193 245.429353 
L 120.066031 245.404638 
L 120.269382 244.088269 
L 120.32022 244.619154 
L 120.371058 244.576578 
L 120.472733 244.948083 
L 120.676085 243.949141 
L 120.828598 244.846535 
L 120.879436 244.838688 
L 121.031949 245.437419 
L 121.082787 244.914775 
L 121.133625 245.581323 
L 121.184463 245.478451 
L 121.2353 245.408368 
L 121.336976 245.556294 
L 121.489489 245.125702 
L 121.540327 246.163932 
L 121.591165 246.013788 
L 121.794516 245.133414 
L 122.099543 246.128135 
L 122.150381 246.219124 
L 122.302894 245.254825 
L 122.353732 245.663688 
L 122.40457 245.637726 
L 122.506245 246.503173 
L 122.557083 246.266475 
L 122.709597 245.360905 
L 122.760434 245.8377 
L 122.811272 245.827885 
L 122.86211 245.740878 
L 122.963786 246.123366 
L 123.116299 245.157647 
L 123.268812 246.226675 
L 123.31965 246.254179 
L 123.472164 245.672955 
L 123.523001 244.962562 
L 123.573839 245.63158 
L 123.726353 245.64165 
L 123.77719 245.584945 
L 123.929704 244.822901 
L 124.031379 245.761047 
L 124.082217 245.530535 
L 124.285568 245.027232 
L 124.336406 244.667519 
L 124.387244 245.044811 
L 124.438082 245.045912 
L 124.692271 243.880245 
L 124.743109 243.153934 
L 124.793946 243.743508 
L 124.895622 243.825545 
L 124.997297 244.629927 
L 125.149811 243.748003 
L 125.200649 244.889787 
L 125.251486 244.715741 
L 125.302324 244.468009 
L 125.353162 244.687233 
L 125.404 244.709936 
L 125.556513 244.138719 
L 125.658189 244.909154 
L 125.709027 244.819633 
L 125.810702 244.804409 
L 125.963216 243.745232 
L 126.064891 244.519337 
L 126.115729 244.453313 
L 126.217405 244.641797 
L 126.369918 243.427977 
L 126.420756 244.096634 
L 126.624107 244.400503 
L 126.674945 244.212575 
L 126.725783 244.198111 
L 126.77662 243.071297 
L 126.827458 243.388098 
L 126.929134 244.130415 
L 126.979972 244.082892 
L 127.183323 242.812913 
L 127.335836 244.139092 
L 127.48835 243.383269 
L 127.539187 243.472361 
L 127.590025 242.632218 
L 127.640863 243.170526 
L 127.793376 244.101418 
L 127.94589 242.723037 
L 127.996728 242.785078 
L 128.098403 243.365875 
L 128.149241 243.191443 
L 128.250917 243.582197 
L 128.301754 243.535961 
L 128.352592 243.743302 
L 128.505106 243.196573 
L 128.555943 243.20251 
L 128.606781 243.432299 
L 128.657619 243.365909 
L 128.708457 243.177704 
L 128.759295 243.212638 
L 128.810132 242.103011 
L 128.86097 242.524198 
L 128.911808 242.566599 
L 128.962646 242.839149 
L 129.013484 242.582769 
L 129.165997 242.018879 
L 129.216835 241.329172 
L 129.267673 242.140577 
L 129.369348 241.76394 
L 129.420186 241.987526 
L 129.521862 241.165674 
L 129.623537 241.276044 
L 129.776051 242.487811 
L 129.826888 242.454699 
L 129.928564 242.084612 
L 129.979402 242.189287 
L 130.03024 241.690212 
L 130.081077 241.786399 
L 130.233591 241.907054 
L 130.284429 242.128867 
L 130.335266 242.009489 
L 130.436942 241.30542 
L 130.48778 242.173967 
L 130.589455 242.140014 
L 130.640293 242.346178 
L 130.691131 242.170543 
L 130.843644 241.397678 
L 131.046995 242.680637 
L 131.250347 242.014096 
L 131.453698 243.484569 
L 131.504536 243.459239 
L 131.657049 242.905139 
L 131.758725 243.702779 
L 131.809562 243.688292 
L 131.911238 243.79344 
L 132.063751 243.009013 
L 132.216265 244.079981 
L 132.31794 244.0468 
L 132.470454 243.080378 
L 132.521292 243.529702 
L 132.622967 243.252441 
L 132.724643 243.69819 
L 132.877156 242.345191 
L 132.927994 243.047199 
L 133.131345 242.574869 
L 133.283859 241.182859 
L 133.334696 241.42647 
L 133.436372 241.011169 
L 133.48721 241.120832 
L 133.588885 240.117704 
L 133.995588 237.690195 
L 134.046426 238.048749 
L 134.097263 237.461817 
L 134.198939 237.479745 
L 134.351452 237.267308 
L 134.503966 236.145318 
L 134.656479 237.224264 
L 134.707317 237.148925 
L 134.808993 236.891992 
L 134.910668 236.251352 
L 135.063182 236.917588 
L 135.164857 236.783241 
L 135.317371 236.222229 
L 135.469884 237.259589 
L 135.622397 236.977198 
L 135.724073 236.324486 
L 135.825748 237.105628 
L 135.876586 236.889476 
L 135.978262 236.817877 
L 136.0291 236.947895 
L 136.130775 236.325003 
L 136.283289 236.964549 
L 136.384964 237.189339 
L 136.435802 236.789663 
L 136.48664 236.991198 
L 136.537478 236.873474 
L 136.689991 237.799224 
L 136.791667 238.242692 
L 136.94418 237.691288 
L 137.096693 238.872889 
L 137.249207 238.246268 
L 137.350882 238.279596 
L 137.503396 239.047656 
L 137.554234 239.403831 
L 137.605071 239.139779 
L 137.655909 238.813674 
L 137.757585 238.83155 
L 137.85926 240.007457 
L 137.910098 239.853488 
L 137.960936 239.950322 
L 138.164287 239.147163 
L 138.265963 239.880564 
L 138.316801 239.746049 
L 138.469314 239.482034 
L 138.520152 239.626081 
L 138.57099 238.944147 
L 138.621827 239.74751 
L 138.672665 239.538945 
L 138.723503 239.60559 
L 138.774341 239.911081 
L 138.825179 239.737583 
L 138.977692 238.802441 
L 139.130205 239.007713 
L 139.181043 239.145552 
L 139.231881 239.064087 
L 139.384394 238.244865 
L 139.587746 239.352805 
L 139.638583 239.372811 
L 139.791097 237.942689 
L 139.892772 238.195183 
L 139.994448 238.473388 
L 140.045286 238.561872 
L 140.197799 236.950151 
L 140.248637 237.133461 
L 140.299475 237.27267 
L 140.40115 238.177218 
L 140.451988 237.763636 
L 140.604502 237.308987 
L 140.706177 238.089307 
L 140.757015 237.923192 
L 140.858691 238.293945 
L 141.011204 236.88119 
L 141.062042 237.426705 
L 141.163717 237.503189 
L 141.265393 237.727026 
L 141.316231 237.643921 
L 141.367068 237.591093 
L 141.417906 237.225305 
L 141.57042 237.966413 
L 141.621257 238.13477 
L 141.773771 237.04557 
L 141.824609 236.556666 
L 141.875446 237.071165 
L 142.078798 237.454621 
L 142.180473 237.383796 
L 142.231311 236.699282 
L 142.282149 237.213644 
L 142.332987 237.023594 
L 142.383824 237.122786 
L 142.434662 237.379279 
L 142.4855 237.294024 
L 142.638013 236.483754 
L 142.790527 237.127912 
L 142.841365 237.378994 
L 142.892202 237.309294 
L 143.044716 236.270899 
L 143.197229 236.517329 
L 143.298905 236.661558 
L 143.756445 234.751224 
L 143.807283 234.80268 
L 143.858121 233.966151 
L 143.908958 234.564132 
L 144.010634 234.119132 
L 144.061472 234.178761 
L 144.11231 234.07382 
L 144.264823 233.169046 
L 144.366499 233.945064 
L 144.417336 233.86961 
L 144.519012 233.850698 
L 144.671525 233.088969 
L 144.824039 233.923455 
L 144.874877 234.256569 
L 144.925714 233.893992 
L 145.078228 232.810028 
L 145.281579 233.937796 
L 145.332417 233.924663 
L 145.48493 232.892939 
L 145.688281 234.220706 
L 145.739119 234.176029 
L 145.891633 233.355982 
L 146.094984 234.721587 
L 146.196659 234.525469 
L 146.247497 234.577501 
L 146.298335 233.832343 
L 146.349173 234.151304 
L 146.400011 234.190661 
L 146.552524 235.161757 
L 146.705037 234.748383 
L 146.755875 235.366081 
L 146.806713 235.150978 
L 146.908388 235.094768 
L 146.959226 235.054854 
L 147.11174 234.49831 
L 147.162577 235.426002 
L 147.213415 235.325725 
L 147.264253 235.060826 
L 147.365929 235.628951 
L 147.518442 234.729413 
L 147.670955 235.35922 
L 147.721793 235.430485 
L 147.772631 235.314823 
L 147.925144 234.198914 
L 147.975982 234.685882 
L 148.02682 234.602251 
L 148.077658 234.711567 
L 148.230171 234.429391 
L 148.331847 233.111289 
L 148.382685 233.768704 
L 148.433522 233.745301 
L 148.535198 234.24156 
L 148.586036 234.183374 
L 148.738549 233.4388 
L 148.891063 234.988311 
L 148.9419 235.185972 
L 148.992738 235.048923 
L 149.145252 234.044112 
L 149.196089 234.707046 
L 149.246927 234.521797 
L 149.806143 233.193986 
L 149.958656 231.846981 
L 150.060332 232.092207 
L 150.11117 232.448942 
L 150.365359 229.899041 
L 150.517872 230.587779 
L 150.772061 228.705358 
L 150.822899 229.360373 
L 150.873737 229.114624 
L 150.924575 229.17742 
L 151.02625 228.641019 
L 151.178764 227.891437 
L 151.229601 228.674748 
L 151.280439 228.575455 
L 151.382115 228.372801 
L 151.432953 228.577289 
L 151.48379 228.386195 
L 151.585466 227.924084 
L 151.737979 228.697712 
L 151.839655 228.934258 
L 151.992168 228.175048 
L 152.093844 228.667505 
L 152.144682 228.554845 
L 152.246357 228.069249 
L 152.398871 227.097258 
L 152.551384 228.267798 
L 152.703897 227.885032 
L 152.754735 227.980584 
L 152.805573 227.370269 
L 152.856411 227.738616 
L 153.008924 228.206666 
L 153.059762 228.131686 
L 153.212275 227.746097 
L 153.263113 228.744614 
L 153.364789 228.619792 
L 153.466464 229.048261 
L 153.618978 228.076737 
L 153.771491 228.651757 
L 153.822329 228.616926 
L 153.873167 228.740276 
L 154.02568 227.380269 
L 154.076518 228.252376 
L 154.178194 228.172774 
L 154.229031 228.20655 
L 154.432383 227.298552 
L 154.48322 228.078922 
L 154.584896 227.933302 
L 154.686572 228.131538 
L 154.839085 226.278577 
L 154.889923 226.990684 
L 155.093274 226.377751 
L 155.245787 224.112214 
L 155.296625 224.53378 
L 155.347463 224.388063 
L 155.499976 224.751222 
L 155.65249 224.190485 
L 155.703328 224.896185 
L 155.805003 224.833958 
L 155.855841 225.28966 
L 155.906679 225.198654 
L 156.059192 224.405143 
L 156.11003 224.98302 
L 156.160868 224.452324 
L 156.465895 222.646318 
L 156.618408 223.721233 
L 156.720084 223.380295 
L 156.974273 221.521399 
L 157.126786 221.883669 
L 157.279299 220.096305 
L 157.330137 220.863645 
L 157.380975 220.855711 
L 157.431813 221.007058 
L 157.686002 220.071713 
L 157.838515 220.886868 
L 157.940191 221.367767 
L 158.092704 220.070616 
L 158.143542 220.797345 
L 158.19438 220.67317 
L 158.245217 220.575055 
L 158.346893 220.893896 
L 158.499406 220.451176 
L 158.65192 221.322383 
L 158.702758 221.487789 
L 158.804433 220.814836 
L 158.855271 221.111275 
L 158.906109 221.060716 
L 158.956947 221.682065 
L 159.058622 221.633453 
L 159.10946 221.756878 
L 159.160298 221.631661 
L 159.211136 221.566823 
L 159.261973 221.829305 
L 159.312811 221.341515 
L 159.465325 222.686616 
L 159.516162 222.677093 
L 159.567 222.873148 
L 159.617838 222.828639 
L 159.719514 221.886586 
L 159.872027 223.126189 
L 160.126216 221.47715 
L 160.177054 222.208747 
L 160.227892 221.868446 
L 160.329567 221.472591 
L 160.380405 221.677795 
L 160.532918 220.245736 
L 160.583756 221.122823 
L 160.634594 220.79605 
L 160.685432 220.890061 
L 160.939621 218.784519 
L 160.990459 219.374226 
L 161.244648 216.923814 
L 161.295485 216.807478 
L 161.346323 215.620743 
L 161.397161 216.33679 
L 162.10889 213.487079 
L 162.159728 212.292643 
L 162.210566 213.239179 
L 162.261404 212.958048 
L 162.312241 213.175395 
L 162.413917 212.834986 
L 162.56643 211.155271 
L 162.617268 211.9199 
L 162.668106 211.608126 
L 162.820619 211.895838 
L 162.973133 211.088179 
L 163.125646 212.406324 
L 163.227322 212.198095 
L 163.379835 211.431144 
L 163.583186 212.841986 
L 163.7357 212.98861 
L 163.786537 212.831887 
L 163.939051 214.248056 
L 164.040726 214.627258 
L 164.19324 214.147986 
L 164.244078 215.041349 
L 164.294915 214.765962 
L 164.447429 214.77174 
L 164.599942 213.84087 
L 164.65078 214.698936 
L 164.752456 214.588472 
L 164.955807 213.526789 
L 165.006645 212.58983 
L 165.057482 213.347143 
L 165.209996 213.042644 
L 165.260834 212.948988 
L 165.413347 211.320542 
L 165.464185 212.138935 
L 165.515023 211.736248 
L 165.667536 212.011347 
L 165.820049 210.942655 
L 165.972563 211.861209 
L 166.175914 211.460022 
L 166.226752 211.025882 
L 166.430103 212.599718 
L 166.785968 213.820937 
L 166.887643 213.660778 
L 167.040157 212.166429 
L 167.19267 213.646532 
L 167.294346 213.411351 
L 167.446859 212.295784 
L 167.497697 213.10875 
L 167.548535 212.164472 
L 167.599372 212.084534 
L 167.853561 210.05309 
L 167.904399 210.922682 
L 168.006075 210.765627 
L 168.158588 210.30182 
L 168.209426 210.434106 
L 168.260264 209.693935 
L 168.311102 210.435928 
L 168.361939 210.17664 
L 168.412777 210.640047 
L 168.463615 210.570379 
L 168.514453 210.341812 
L 168.666966 208.648207 
L 168.717804 209.355754 
L 168.768642 208.851959 
L 168.819479 208.869982 
L 168.971993 208.370628 
L 169.022831 208.50961 
L 169.073668 207.781246 
L 169.175344 207.915958 
L 169.327857 208.203268 
L 169.480371 206.749979 
L 169.531209 207.61805 
L 169.582046 207.119368 
L 169.632884 207.439265 
L 169.683722 207.230194 
L 169.73456 207.357515 
L 169.887073 206.437835 
L 169.937911 206.963637 
L 170.090424 205.891162 
L 170.141262 205.95649 
L 170.293776 204.242102 
L 170.344613 204.781569 
L 170.497127 203.812866 
L 170.547965 203.914746 
L 170.700478 202.006066 
L 170.751316 203.035362 
L 170.852991 202.976844 
L 170.903829 202.903378 
L 171.513883 198.794942 
L 171.564721 199.440377 
L 171.615558 198.949697 
L 171.666396 199.143834 
L 172.022261 196.815161 
L 172.073099 197.355084 
L 172.327288 194.898678 
L 172.378125 195.622148 
L 172.530639 194.520985 
L 172.581477 194.456342 
L 172.73399 192.962162 
L 172.784828 194.016323 
L 172.886503 193.96118 
L 173.039017 193.074378 
L 173.089855 193.57755 
L 173.242368 192.838715 
L 173.293206 193.157791 
L 173.344044 193.09172 
L 173.394881 192.983809 
L 173.547395 191.319433 
L 173.598233 192.133995 
L 173.64907 191.535505 
L 173.699908 191.860416 
L 173.954097 189.779623 
L 174.004935 190.528512 
L 174.055773 189.61069 
L 174.10661 190.096568 
L 174.157448 189.784964 
L 174.208286 190.208695 
L 174.360799 188.365899 
L 174.411637 189.157968 
L 174.462475 188.226329 
L 174.513313 188.424659 
L 174.716664 186.423966 
L 174.869177 184.329033 
L 174.920015 184.637523 
L 175.174204 181.375498 
L 175.225042 181.955548 
L 175.377555 180.366916 
L 175.428393 180.473935 
L 175.580907 178.195728 
L 175.631744 178.838417 
L 175.784258 177.415926 
L 175.835096 177.935597 
L 175.987609 176.636424 
L 176.140122 177.989492 
L 176.343474 179.042795 
L 176.394311 178.321796 
L 176.445149 179.046157 
L 176.495987 178.741424 
L 176.6485 179.756755 
L 176.801014 179.101882 
L 176.953527 180.6365 
L 177.055203 181.316138 
L 177.156878 181.133662 
L 177.207716 180.805639 
L 177.411067 183.279575 
L 177.461905 183.499579 
L 177.614419 182.945973 
L 177.766932 184.355963 
L 177.81777 184.098402 
L 177.868608 184.428713 
L 178.021121 182.255182 
L 178.071959 182.984176 
L 178.122797 182.175436 
L 178.173634 182.545564 
L 178.427823 179.747286 
L 178.478661 180.299914 
L 178.631175 178.629199 
L 178.682012 178.598003 
L 178.834526 176.854061 
L 178.885364 177.252779 
L 179.037877 176.048286 
L 179.088715 175.876836 
L 179.241228 173.819721 
L 179.292066 174.467972 
L 179.546255 171.501402 
L 179.597093 171.508878 
L 179.749606 169.629025 
L 179.800444 170.056092 
L 179.851282 169.578515 
L 179.902119 169.983229 
L 180.054633 169.228683 
L 180.105471 169.904107 
L 180.156308 169.141499 
L 180.207146 169.710511 
L 180.257984 169.143397 
L 180.308822 169.530301 
L 180.461335 168.100728 
L 180.512173 168.924388 
L 180.613849 168.785174 
L 180.664686 168.132418 
L 180.715524 168.922339 
L 180.766362 168.294239 
L 180.868038 166.924515 
L 181.020551 168.860845 
L 181.122227 168.884361 
L 181.173064 168.313389 
L 181.27474 168.38781 
L 181.325578 169.292838 
L 181.376416 168.441327 
L 181.528929 169.277233 
L 181.681442 167.423929 
L 181.73228 168.656761 
L 181.783118 167.885574 
L 181.833956 167.995566 
L 181.986469 166.917626 
L 182.037307 167.162641 
L 182.18982 165.536671 
L 182.240658 165.870836 
L 182.291496 165.620103 
L 182.342334 165.674124 
L 182.494847 164.132911 
L 182.545685 165.263003 
L 182.647361 165.196209 
L 182.90155 163.171013 
L 183.054063 164.5122 
L 183.308252 162.598689 
L 183.35909 163.532255 
L 183.409928 162.594038 
L 183.460765 163.013115 
L 183.714954 160.038284 
L 183.765792 160.802983 
L 183.918306 158.341068 
L 183.969143 158.700242 
L 184.121657 156.341812 
L 184.172495 156.951529 
L 184.325008 155.700964 
L 184.375846 155.74585 
L 184.528359 153.132245 
L 184.579197 153.875837 
L 184.73171 151.318804 
L 184.782548 151.492854 
L 184.935061 148.636429 
L 184.985899 149.451315 
L 185.138413 147.454295 
L 185.18925 147.503129 
L 185.341764 146.162405 
L 185.392602 146.416838 
L 185.443439 145.628413 
L 185.494277 146.106435 
L 185.595953 145.941378 
L 185.748466 144.121552 
L 185.799304 144.683621 
L 185.850142 144.268607 
L 185.90098 144.394413 
L 186.053493 143.571888 
L 186.104331 143.615475 
L 186.155169 143.004848 
L 186.206006 143.638388 
L 186.256844 143.221738 
L 186.307682 143.344768 
L 186.409358 143.433556 
L 186.511033 143.184648 
L 186.561871 142.591048 
L 186.714384 144.181629 
L 186.765222 144.119954 
L 186.917736 144.604084 
L 186.968573 143.526599 
L 187.070249 143.532891 
L 187.121087 144.204707 
L 187.375276 139.894305 
L 187.426114 140.830606 
L 187.476951 139.881415 
L 187.527789 140.750573 
L 187.781978 136.880803 
L 187.832816 137.790498 
L 187.985329 135.868732 
L 188.036167 135.649258 
L 188.290356 131.838225 
L 188.341194 131.984366 
L 188.595383 127.691939 
L 188.646221 128.69819 
L 188.697059 127.864292 
L 188.747896 127.948652 
L 188.90041 126.38558 
L 188.951248 126.295331 
L 189.103761 123.792494 
L 189.154599 124.007989 
L 189.307112 121.955124 
L 189.35795 122.073376 
L 189.408788 120.802346 
L 189.459626 121.972805 
L 189.612139 120.997245 
L 189.662977 121.568318 
L 189.81549 119.971179 
L 189.968004 121.475305 
L 190.018841 121.396395 
L 190.171355 122.733665 
L 190.222192 122.315658 
L 190.425544 125.143525 
L 190.883084 129.603938 
L 190.933922 129.831358 
L 191.086435 132.393726 
L 191.137273 132.190107 
L 191.289786 133.111569 
L 191.4423 131.490764 
L 191.493137 132.332541 
L 192.204867 114.381807 
L 192.459056 106.147069 
L 193.018271 92.082735 
L 193.27246 85.575778 
L 193.323298 85.40799 
L 193.577487 78.48873 
L 193.628325 78.418477 
L 193.882514 71.658277 
L 193.933352 72.445927 
L 194.085865 69.074853 
L 194.136703 69.159443 
L 194.289216 65.710882 
L 194.340054 66.487902 
L 194.390892 65.30373 
L 194.44173 66.213181 
L 194.543405 66.261383 
L 194.594243 65.66845 
L 195.102621 70.407306 
L 195.305972 74.617746 
L 195.407648 75.58321 
L 195.458486 75.413609 
L 195.560161 75.973187 
L 195.610999 75.687733 
L 195.661837 75.501691 
L 195.865188 71.991153 
L 196.017701 69.686963 
L 196.068539 69.577016 
L 196.27189 65.99536 
L 196.322728 65.601341 
L 196.373566 66.224146 
L 196.475242 66.107796 
L 196.526079 66.092408 
L 196.576917 66.248605 
L 196.627755 65.982502 
L 196.729431 66.024947 
L 197.034457 70.560426 
L 197.186971 72.709067 
L 197.847862 86.18438 
L 197.8987 86.124752 
L 197.949538 86.127934 
L 198.102051 88.267801 
L 198.152889 88.325831 
L 198.305402 89.665765 
L 198.35624 88.880292 
L 198.610429 92.369494 
L 198.661267 92.007444 
L 198.915456 83.982182 
L 199.220483 68.615316 
L 199.474672 59.448257 
L 200.084725 52.054483 
L 200.135563 52.332832 
L 200.389752 48.665309 
L 200.44059 49.26854 
L 200.593103 46.99926 
L 200.643941 46.670807 
L 200.796455 43.186654 
L 200.847292 43.691437 
L 200.999806 40.112607 
L 201.050643 39.81866 
L 201.203157 36.735336 
L 201.253995 37.406543 
L 201.406508 36.184548 
L 201.457346 36.296308 
L 201.609859 35.178231 
L 201.762373 36.65709 
L 201.864048 36.509432 
L 202.016562 35.650015 
L 202.169075 38.002659 
L 202.219913 37.623594 
L 202.270751 38.053212 
L 202.423264 37.851672 
L 202.575777 39.819802 
L 202.931642 43.181409 
L 203.389182 50.404305 
L 203.44002 50.596792 
L 203.592533 52.103272 
L 203.643371 52.195796 
L 203.999236 58.944559 
L 204.050074 59.164092 
L 204.304263 63.817976 
L 204.405938 64.525317 
L 204.863478 69.203188 
L 205.06683 72.848697 
L 205.422694 81.359333 
L 205.829397 95.326929 
L 205.880234 95.039111 
L 205.931072 94.340326 
L 206.236099 85.389687 
L 206.591963 77.106215 
L 206.642801 77.417627 
L 206.89699 74.46425 
L 206.947828 75.513846 
L 207.049504 75.33763 
L 207.151179 75.16035 
L 207.303693 73.565356 
L 207.35453 74.476979 
L 207.507044 71.574119 
L 207.557882 71.592034 
L 207.710395 68.499623 
L 207.761233 69.229518 
L 207.913746 68.430622 
L 208.015422 67.429523 
L 208.06626 67.702299 
L 208.117097 67.569377 
L 208.167935 68.217996 
L 208.269611 68.124639 
L 208.5238 66.51702 
L 208.727151 68.119193 
L 208.828827 68.541694 
L 208.930502 67.966152 
L 209.184691 71.539338 
L 209.337205 70.451735 
L 209.388042 71.785513 
L 209.43888 70.721092 
L 209.489718 70.946698 
L 209.743907 68.100487 
L 209.794745 68.787446 
L 209.947258 67.075042 
L 210.048934 65.656102 
L 210.150609 65.938276 
L 210.201447 66.682542 
L 210.303123 65.275227 
L 210.353961 65.411894 
L 210.404798 66.08075 
L 210.455636 65.534056 
L 210.506474 65.678207 
L 210.557312 64.943917 
L 210.709825 66.064569 
L 210.760663 65.836176 
L 210.913176 67.335949 
L 210.964014 67.350044 
L 211.218203 72.878719 
L 211.269041 73.311217 
L 212.946688 118.129981 
L 213.200877 121.034984 
L 213.658417 126.944529 
L 213.709255 126.671479 
L 213.760093 127.152283 
L 213.810931 126.49946 
L 213.861769 127.326822 
L 213.912606 126.226267 
L 213.963444 127.087374 
L 214.014282 126.699726 
L 214.06512 127.459882 
L 214.115958 126.560637 
L 214.166795 126.864086 
L 214.217633 126.346508 
L 214.370147 127.956637 
L 214.420984 127.438221 
L 214.471822 128.1139 
L 214.624336 126.819404 
L 214.776849 129.673338 
L 214.827687 129.715876 
L 215.183551 133.731256 
L 215.996956 146.538472 
L 216.301983 152.971674 
L 216.60701 156.712091 
L 216.657848 156.596434 
L 216.861199 158.415814 
L 217.013712 159.235011 
L 217.06455 158.802794 
L 217.217063 159.536343 
L 217.471252 157.096663 
L 217.52209 157.971618 
L 217.572928 157.36057 
L 217.623766 157.697352 
L 217.776279 156.249229 
L 217.827117 156.309167 
L 217.877955 155.004409 
L 217.97963 155.072536 
L 218.030468 155.383215 
L 218.081306 155.014824 
L 218.132144 155.303624 
L 218.284657 154.113028 
L 218.335495 155.227753 
L 218.386333 154.649766 
L 218.538846 155.077067 
L 218.691359 153.96227 
L 218.843873 155.198465 
L 218.894711 155.028872 
L 218.945548 155.302674 
L 219.098062 154.15723 
L 219.1489 155.05698 
L 219.250575 154.933963 
L 219.403089 153.937047 
L 219.453926 154.448924 
L 219.504764 153.658012 
L 219.555602 154.74426 
L 219.60644 153.950124 
L 219.657278 154.340831 
L 219.708115 153.967007 
L 219.758953 153.961048 
L 219.911467 153.178432 
L 219.962304 154.06951 
L 220.06398 154.050564 
L 220.114818 154.037354 
L 220.165656 153.899226 
L 220.318169 153.293255 
L 220.470682 154.123283 
L 220.674034 154.518514 
L 220.724871 154.33024 
L 220.928223 156.458469 
L 221.080736 157.244138 
L 221.131574 156.940134 
L 221.334925 159.988176 
L 221.538276 161.515659 
L 221.894141 166.149005 
L 221.944979 166.063976 
L 222.14833 168.87115 
L 222.60587 172.554265 
L 222.656708 172.395953 
L 222.707545 172.695354 
L 222.758383 172.16351 
L 222.910897 173.958666 
L 222.961734 173.840783 
L 223.114248 174.315084 
L 223.165086 174.153683 
L 223.317599 175.915092 
L 223.470112 175.72269 
L 223.52095 175.774818 
L 223.571788 174.977953 
L 223.622626 176.091807 
L 223.673464 175.296443 
L 223.724301 175.570235 
L 223.775139 175.378591 
L 223.825977 175.493463 
L 223.97849 173.84362 
L 224.029328 174.86008 
L 224.080166 173.976195 
L 224.131004 174.590349 
L 224.385193 171.633816 
L 224.436031 172.370419 
L 224.486868 171.536039 
L 224.639382 171.832698 
L 224.69022 171.347814 
L 224.791895 171.365953 
L 224.944409 171.86365 
L 225.096922 171.457561 
L 225.14776 171.683622 
L 225.198598 171.100684 
L 225.351111 172.311656 
L 225.452787 172.40418 
L 225.503624 171.784941 
L 225.554462 171.648299 
L 225.6053 170.885674 
L 225.656138 171.872718 
L 225.757813 171.779731 
L 225.808651 171.55506 
L 225.859489 172.17037 
L 225.910327 171.611393 
L 225.961165 171.840712 
L 226.012002 170.974945 
L 226.06284 171.921717 
L 226.113678 171.435933 
L 226.164516 171.924735 
L 226.317029 171.854362 
L 226.672894 175.032734 
L 226.774569 175.404067 
L 226.825407 175.298957 
L 227.028758 177.773611 
L 227.181272 178.3042 
L 227.23211 178.007687 
L 227.384623 179.230173 
L 227.537136 180.438268 
L 227.587974 180.398114 
L 227.638812 180.016525 
L 227.842163 182.597801 
L 227.994677 182.953447 
L 228.045514 182.658907 
L 228.198028 183.549938 
L 228.299703 183.898907 
L 228.452217 182.77617 
L 228.503054 183.755439 
L 228.553892 183.373978 
L 228.655568 183.559635 
L 228.757243 183.244949 
L 228.808081 183.556932 
L 228.858919 182.958213 
L 229.011432 184.14772 
L 229.214784 184.429212 
L 229.265621 184.216157 
L 229.418135 185.658655 
L 229.468973 185.624229 
L 229.51981 186.018026 
L 229.570648 185.626265 
L 229.621486 185.589432 
L 229.672324 185.339175 
L 229.824837 186.72366 
L 229.875675 186.753007 
L 229.977351 186.730218 
L 230.028188 187.203085 
L 230.079026 186.978578 
L 230.23154 188.582634 
L 230.587404 191.579213 
L 231.197458 196.318403 
L 231.299133 196.588119 
L 231.502485 198.817128 
L 231.553322 198.805511 
L 231.705836 198.585408 
L 231.858349 199.849773 
L 231.909187 199.884256 
L 232.0617 200.476626 
L 232.112538 200.098379 
L 232.265052 201.437668 
L 232.315889 201.209711 
L 232.366727 201.477016 
L 232.519241 200.7431 
L 232.671754 202.035171 
L 232.824267 201.084957 
L 232.925943 201.189199 
L 232.976781 201.833486 
L 233.027619 201.453635 
L 233.078456 201.680887 
L 233.332645 200.112605 
L 233.485159 201.281414 
L 233.586834 201.468227 
L 233.637672 201.035133 
L 233.68851 201.428219 
L 233.739348 201.142757 
L 233.942699 203.008718 
L 234.400239 205.90893 
L 234.451077 205.543213 
L 234.552752 205.222824 
L 234.705266 206.863534 
L 234.908617 206.758024 
L 234.959455 206.012492 
L 235.010293 206.837341 
L 235.06113 206.647213 
L 235.213644 207.51623 
L 235.366157 206.882548 
L 235.518671 207.716842 
L 235.620346 207.844777 
L 235.77286 206.79384 
L 235.925373 207.486235 
L 235.976211 207.434899 
L 236.027049 207.553422 
L 236.179562 206.896349 
L 236.2304 207.890787 
L 236.281238 207.756064 
L 236.332075 207.560036 
L 236.382913 207.665222 
L 236.535427 208.085237 
L 236.586264 207.417111 
L 236.637102 208.301789 
L 236.68794 208.057397 
L 236.738778 207.855422 
L 236.840453 208.445202 
L 236.891291 208.231475 
L 236.942129 208.240844 
L 236.992967 207.619748 
L 237.196318 209.505749 
L 237.297994 209.611843 
L 237.399669 210.142957 
L 237.60302 212.065646 
L 237.806372 211.590445 
L 237.958885 212.510955 
L 238.060561 212.933301 
L 238.213074 212.370413 
L 238.263912 213.21913 
L 238.31475 212.545479 
L 238.416425 212.475662 
L 238.467263 212.772883 
L 238.619776 211.504657 
L 238.670614 212.260784 
L 238.721452 211.867686 
L 238.924803 211.245028 
L 238.975641 211.549706 
L 239.026479 210.747398 
L 239.077316 211.711854 
L 239.128154 211.268751 
L 239.178992 211.324123 
L 239.22983 211.156554 
L 239.280668 211.405681 
L 239.433181 210.381804 
L 239.484019 211.331701 
L 239.585694 211.262469 
L 239.636532 211.227437 
L 239.68737 211.396738 
L 239.839883 209.872186 
L 239.890721 210.501839 
L 239.941559 210.509029 
L 240.043235 210.791967 
L 240.094072 210.691884 
L 240.246586 209.583482 
L 240.399099 210.730984 
L 240.449937 210.322438 
L 240.500775 210.338441 
L 240.551613 210.436301 
L 240.60245 210.394631 
L 240.653288 209.687863 
L 240.704126 210.448136 
L 240.754964 210.150146 
L 240.805802 210.269548 
L 240.907477 210.145112 
L 241.059991 209.061426 
L 241.212504 209.90093 
L 241.415855 209.473695 
L 241.466693 208.694321 
L 241.517531 209.421887 
L 241.568369 209.134035 
L 241.619206 209.567418 
L 241.670044 209.19787 
L 241.720882 209.338376 
L 241.77172 208.873173 
L 241.822558 208.955865 
L 241.873395 209.059344 
L 242.076747 211.286598 
L 243.347692 219.411846 
L 243.449367 219.304799 
L 243.500205 219.205963 
L 243.652718 220.73509 
L 243.703556 220.884323 
L 243.754394 220.731544 
L 243.906907 219.654576 
L 244.059421 220.368585 
L 244.211934 220.358426 
L 244.31361 219.787034 
L 244.466123 220.740981 
L 244.720312 218.668565 
L 244.77115 219.14534 
L 244.821988 218.686542 
L 244.872825 218.756645 
L 245.025339 217.884741 
L 245.127014 217.119935 
L 245.177852 217.920751 
L 245.279528 217.900182 
L 245.635392 215.7998 
L 245.787906 216.141911 
L 245.940419 215.155889 
L 246.092933 216.612363 
L 246.14377 216.423775 
L 246.194608 216.607929 
L 246.296284 216.762737 
L 246.347122 216.587194 
L 246.499635 217.989917 
L 246.550473 218.334962 
L 246.601311 218.250402 
L 246.753824 217.067924 
L 246.804662 217.878879 
L 246.8555 217.501528 
L 247.058851 217.280915 
L 247.109689 217.512507 
L 247.160526 216.687961 
L 247.211364 217.632775 
L 247.414715 219.133884 
L 247.465553 218.806105 
L 247.567229 218.21306 
L 247.719742 219.279595 
L 247.77058 219.396818 
L 247.821418 219.272174 
L 247.872256 218.938918 
L 247.923093 219.325082 
L 247.973931 219.126996 
L 248.177282 220.969104 
L 248.329796 221.049651 
L 248.380634 220.880499 
L 248.583985 222.428823 
L 248.634823 222.503482 
L 248.68566 222.168309 
L 248.736498 222.557439 
L 248.787336 222.371693 
L 248.838174 222.92854 
L 248.939849 222.912261 
L 249.041525 223.214037 
L 249.092363 223.045087 
L 249.194038 222.465189 
L 249.244876 223.697564 
L 249.346552 223.548214 
L 249.448227 224.348206 
L 249.499065 224.177283 
L 249.549903 224.21889 
L 249.600741 223.831435 
L 249.753254 224.924046 
L 249.85493 224.776817 
L 250.007443 223.721179 
L 250.159956 225.23112 
L 250.210794 225.555376 
L 250.261632 225.405826 
L 250.414145 224.634857 
L 250.617497 225.70926 
L 250.668334 225.821571 
L 250.77001 225.32198 
L 250.820848 225.566264 
L 250.973361 226.188445 
L 251.024199 226.495368 
L 251.075037 226.133734 
L 251.22755 225.225752 
L 251.278388 225.861416 
L 251.329226 225.642978 
L 251.380064 225.518745 
L 251.430901 225.85911 
L 251.481739 225.742655 
L 251.634253 224.640026 
L 251.735928 225.557009 
L 251.786766 225.502521 
L 251.837604 225.658018 
L 251.939279 225.098303 
L 252.091793 225.93184 
L 252.193468 225.875056 
L 252.345982 225.117678 
L 252.447657 224.345841 
L 252.498495 225.207474 
L 252.600171 225.19337 
L 252.701846 225.845922 
L 252.85436 224.993745 
L 253.006873 225.503248 
L 253.057711 225.26174 
L 253.108549 225.47526 
L 253.261062 224.951007 
L 253.413576 226.348461 
L 253.464413 226.30285 
L 253.515251 226.791564 
L 253.566089 226.544803 
L 253.616927 226.414279 
L 253.667765 225.724572 
L 253.718602 226.407462 
L 253.820278 226.21116 
L 253.921954 226.484095 
L 254.074467 225.255039 
L 254.277818 226.50076 
L 254.328656 226.545308 
L 254.481169 225.606439 
L 254.633683 226.802029 
L 254.735358 226.806284 
L 254.887872 225.325432 
L 255.040385 225.904809 
L 255.294574 223.978391 
L 255.39625 224.536547 
L 255.447087 224.525431 
L 255.650439 223.510884 
L 255.701276 222.650679 
L 255.752114 223.455569 
L 256.006303 223.506434 
L 256.057141 223.780356 
L 256.107979 223.167413 
L 256.158817 223.877952 
L 256.362168 223.873589 
L 256.514681 223.387072 
L 256.667195 224.309051 
L 256.718032 224.518512 
L 256.76887 224.44246 
L 256.819708 224.319254 
L 256.870546 224.487511 
L 256.921384 224.204809 
L 256.972221 224.944209 
L 257.023059 224.535938 
L 257.073897 224.510137 
L 257.175573 225.037112 
L 257.328086 224.02295 
L 257.480599 225.431587 
L 257.582275 225.821711 
L 257.734788 225.146821 
L 257.785626 225.723476 
L 257.836464 225.63991 
L 257.93814 225.464794 
L 258.039815 225.640259 
L 258.141491 225.336603 
L 258.344842 226.705765 
L 258.39568 226.720406 
L 258.548193 225.98431 
L 258.700707 226.86869 
L 258.802382 227.11607 
L 258.85322 227.091004 
L 258.904058 226.892218 
L 258.954896 226.120829 
L 259.056571 227.354908 
L 259.107409 227.288394 
L 259.412436 228.12163 
L 259.564949 228.897376 
L 259.615787 228.793313 
L 259.717463 228.51748 
L 259.7683 228.143733 
L 259.971652 229.605384 
L 260.073327 229.320096 
L 260.124165 229.429481 
L 260.175003 228.56877 
L 260.225841 229.354772 
L 260.93757 232.368759 
L 260.988407 231.973401 
L 261.039245 232.388798 
L 261.344272 233.428487 
L 261.39511 233.467723 
L 261.598461 234.782324 
L 261.649299 234.795841 
L 261.801812 234.010645 
L 261.903488 235.128047 
L 261.954326 235.004975 
L 262.005163 234.900408 
L 262.056001 235.007122 
L 262.157677 235.220178 
L 262.208515 234.737588 
L 262.361028 235.637201 
L 262.462704 235.647629 
L 262.564379 235.487978 
L 262.615217 234.837308 
L 262.666055 235.487036 
L 263.021919 233.523494 
L 263.072757 234.020403 
L 263.123595 233.844304 
L 263.174433 233.523519 
L 263.225271 233.716055 
L 263.276108 233.910612 
L 263.428622 233.19284 
L 263.581135 233.917044 
L 263.733649 233.042307 
L 263.835324 231.980488 
L 263.886162 232.553784 
L 264.140351 233.21482 
L 264.191189 233.003564 
L 264.242027 232.090164 
L 264.292864 232.708728 
L 264.343702 232.721486 
L 264.445378 233.15936 
L 264.496216 233.060608 
L 264.648729 232.215428 
L 264.750405 233.07593 
L 264.902918 232.416373 
L 265.055431 232.464745 
L 265.207945 233.574528 
L 265.258783 233.543201 
L 265.462134 231.840503 
L 265.512972 232.728565 
L 265.563809 232.665344 
L 265.767161 232.172335 
L 265.817998 232.409247 
L 265.868836 231.906686 
L 266.02135 232.989912 
L 266.072187 233.042686 
L 266.173863 232.716747 
L 266.47889 234.683448 
L 266.529727 234.343684 
L 266.682241 233.429506 
L 266.885592 234.154786 
L 266.987268 233.977632 
L 267.038105 233.901433 
L 267.088943 233.579155 
L 267.241457 234.557282 
L 267.292294 234.708005 
L 267.343132 234.652955 
L 267.495646 233.874331 
L 267.597321 234.928334 
L 267.648159 234.817745 
L 267.749835 234.966518 
L 267.902348 234.159909 
L 267.953186 234.894272 
L 268.054861 234.837871 
L 268.156537 235.022757 
L 268.30905 234.262167 
L 268.359888 235.05539 
L 268.461564 234.991347 
L 268.614077 234.777452 
L 268.664915 234.900385 
L 268.715753 234.579127 
L 268.817428 235.881822 
L 268.868266 235.697387 
L 268.919104 235.842277 
L 268.969942 235.81149 
L 269.122455 235.051167 
L 269.173293 236.018132 
L 269.274969 235.986264 
L 269.376644 236.356804 
L 269.529158 235.261043 
L 269.579995 236.348789 
L 269.681671 236.172083 
L 269.732509 236.433339 
L 269.783347 236.369308 
L 269.885022 235.984104 
L 269.93586 234.822481 
L 269.986698 235.290521 
L 270.240887 236.008167 
L 270.342562 235.695814 
L 270.495076 236.490202 
L 270.545914 236.592096 
L 270.647589 236.308505 
L 270.698427 236.486169 
L 270.749265 236.144618 
L 270.800103 236.643612 
L 270.901778 236.583521 
L 270.952616 236.740421 
L 271.155967 236.165915 
L 271.308481 236.95267 
L 271.359318 237.033623 
L 271.562669 236.213261 
L 271.613507 237.019748 
L 271.664345 236.680734 
L 271.715183 236.655464 
L 271.766021 237.25345 
L 271.816858 236.952065 
L 271.969372 236.024951 
L 272.02021 236.67211 
L 272.071047 236.116466 
L 272.121885 235.896819 
L 272.223561 236.594926 
L 272.274399 236.333402 
L 272.325236 236.479793 
L 272.376074 235.945341 
L 272.426912 236.25722 
L 272.579425 236.707336 
L 272.681101 235.88032 
L 272.731939 235.897375 
L 272.782777 235.649177 
L 272.93529 236.699856 
L 272.986128 236.601171 
L 273.087803 235.768005 
L 273.138641 236.150304 
L 273.189479 235.762391 
L 273.240317 236.15908 
L 273.341992 235.795138 
L 273.443668 236.781997 
L 273.494506 236.452265 
L 273.545344 236.167306 
L 273.596181 236.288379 
L 273.748695 237.266251 
L 273.85037 237.956312 
L 274.002884 237.142098 
L 274.206235 238.690296 
L 274.257073 238.88989 
L 274.307911 238.669992 
L 274.358748 238.47445 
L 274.409586 238.536425 
L 274.5621 239.724157 
L 274.612937 240.096905 
L 274.663775 240.049275 
L 274.816289 239.491745 
L 275.01964 241.117417 
L 275.070478 241.207503 
L 275.222991 240.152986 
L 275.426342 241.589866 
L 275.629693 240.875108 
L 275.833045 242.430487 
L 275.883882 242.330432 
L 276.036396 241.069164 
L 276.188909 242.411058 
L 276.290585 242.49752 
L 276.443098 241.577656 
L 276.544774 242.457053 
L 276.595612 242.404479 
L 276.646449 242.524219 
L 276.697287 242.41776 
L 276.849801 242.203321 
L 276.900638 243.089565 
L 276.951476 242.926733 
L 277.154827 242.541122 
L 277.205665 242.460562 
L 277.256503 241.901686 
L 277.307341 242.45414 
L 277.409016 242.168738 
L 277.459854 242.560223 
L 277.510692 242.550514 
L 277.663205 242.113612 
L 277.815719 242.7377 
L 277.866556 242.866381 
L 277.917394 242.799071 
L 278.069908 241.303042 
L 278.120745 241.96371 
L 278.273259 242.923349 
L 278.324097 242.907516 
L 278.425772 242.112431 
L 278.47661 241.448775 
L 278.629123 242.567771 
L 278.679961 242.706925 
L 278.730799 242.663725 
L 278.781637 242.450006 
L 278.832475 242.817432 
L 278.883312 242.470771 
L 278.93415 242.454839 
L 278.984988 241.925496 
L 279.035826 242.161505 
L 279.137501 242.714749 
L 279.188339 242.327218 
L 279.290015 241.413554 
L 279.39169 242.786422 
L 279.442528 242.727609 
L 279.645879 241.536523 
L 279.696717 240.420824 
L 279.747555 241.034246 
L 279.900068 241.974905 
L 280.10342 240.685097 
L 280.154257 241.212738 
L 280.205095 241.097668 
L 280.510122 239.640809 
L 280.56096 240.513524 
L 280.611798 240.171483 
L 280.662635 240.126648 
L 280.916824 238.829984 
L 280.967662 239.134598 
L 281.069338 238.610682 
L 281.171013 238.912446 
L 281.323527 237.942523 
L 281.425202 239.071059 
L 281.730229 237.573847 
L 281.93358 238.808534 
L 282.086094 238.763602 
L 282.136932 238.316294 
L 282.340283 240.339114 
L 282.543634 239.380901 
L 282.594472 239.723459 
L 282.797823 241.102866 
L 282.848661 241.213761 
L 282.950336 240.595263 
L 283.001174 241.551935 
L 283.10285 241.391867 
L 283.204525 242.322546 
L 283.255363 242.260951 
L 283.306201 242.311026 
L 283.357039 241.887434 
L 283.458714 243.154387 
L 283.509552 243.105863 
L 283.611228 243.334332 
L 283.662065 243.196168 
L 283.814579 243.765632 
L 283.865417 243.809415 
L 283.916254 243.507825 
L 283.967092 243.682964 
L 284.01793 243.832487 
L 284.170443 242.673022 
L 284.272119 243.884353 
L 284.322957 243.797491 
L 284.424632 244.070397 
L 284.577146 243.494616 
L 284.678821 244.805105 
L 284.729659 244.650303 
L 284.780497 244.856551 
L 284.831335 244.765049 
L 284.983848 243.664005 
L 285.136362 244.397294 
L 285.187199 244.357001 
L 285.390551 243.468264 
L 285.64474 244.905944 
L 285.797253 243.37605 
L 285.949766 245.049054 
L 286.000604 245.595902 
L 286.051442 245.518781 
L 286.203955 244.475187 
L 286.356469 244.91357 
L 286.407307 244.946079 
L 286.508982 245.571533 
L 286.610658 244.10708 
L 286.763171 245.836183 
L 286.966522 246.334896 
L 287.01736 245.60667 
L 287.119036 247.066709 
L 287.169874 247.032866 
L 287.220711 247.128167 
L 287.424063 246.077077 
L 287.576576 247.247036 
L 287.627414 247.192803 
L 287.830765 246.456282 
L 287.881603 247.149 
L 287.93244 247.111934 
L 288.237467 245.292575 
L 288.389981 246.182972 
L 288.593332 245.607423 
L 288.64417 245.15851 
L 288.745845 245.83009 
L 288.796683 245.755555 
L 288.847521 245.736423 
L 288.898359 245.99398 
L 288.949196 245.889908 
L 289.050872 244.548805 
L 289.10171 245.256076 
L 289.152548 245.229013 
L 289.254223 245.467462 
L 289.457574 243.37487 
L 289.610088 244.810771 
L 289.711763 244.981867 
L 289.813439 244.182682 
L 289.864277 243.313713 
L 289.915115 244.218666 
L 289.965952 244.28372 
L 290.01679 244.167878 
L 290.067628 244.234234 
L 290.169304 244.116688 
L 290.220141 244.069408 
L 290.270979 243.518386 
L 290.372655 243.538949 
L 290.423493 243.659771 
L 290.525168 244.191374 
L 290.677682 242.471075 
L 290.779357 243.845595 
L 290.830195 243.804053 
L 290.881033 244.077478 
L 290.931871 244.020557 
L 290.982708 243.976327 
L 291.084384 243.9039 
L 291.135222 244.555302 
L 291.236897 245.047833 
L 291.338573 245.771149 
L 291.389411 245.527758 
L 291.491086 244.364827 
L 291.541924 244.869507 
L 291.6436 245.944658 
L 291.694438 245.771956 
L 291.745275 245.837033 
L 291.897789 244.444761 
L 291.999464 245.576028 
L 292.050302 245.513294 
L 292.253653 246.513259 
L 292.304491 246.030006 
L 292.406167 247.061042 
L 292.457005 246.949797 
L 292.609518 247.84235 
L 292.660356 247.819798 
L 292.711194 246.556109 
L 292.762031 247.356939 
L 292.863707 248.164674 
L 292.914545 247.987933 
L 293.117896 246.667677 
L 293.270409 247.78863 
L 293.47376 247.235021 
L 293.524598 246.356488 
L 293.575436 246.953157 
L 293.677112 246.75395 
L 293.778787 247.243281 
L 293.931301 246.57351 
L 293.982138 247.291331 
L 294.032976 246.757653 
L 294.083814 246.616695 
L 294.18549 247.320051 
L 294.338003 245.869133 
L 294.388841 246.58539 
L 294.439679 246.548787 
L 294.490516 246.429864 
L 294.541354 246.562526 
L 294.64303 246.593884 
L 294.693868 246.528182 
L 294.744705 245.993125 
L 294.897219 247.01709 
L 294.948057 247.133016 
L 295.151408 246.358829 
L 295.354759 247.134858 
L 295.55811 245.459227 
L 295.761461 246.769215 
L 295.964813 245.875554 
L 296.01565 246.875374 
L 296.066488 246.650106 
L 296.117326 246.625832 
L 296.168164 247.176572 
L 296.219002 246.977945 
L 296.269839 246.368013 
L 296.320677 246.676414 
L 296.371515 246.599909 
L 296.574866 248.255076 
L 296.778217 246.91609 
L 296.930731 248.293012 
L 297.18492 246.729843 
L 297.286595 248.056343 
L 297.439109 246.972615 
L 297.540784 247.583162 
L 297.591622 246.971149 
L 297.64246 247.802772 
L 297.693298 247.746576 
L 297.794973 247.28559 
L 297.845811 247.369002 
L 297.947487 247.991424 
L 297.998325 247.430079 
L 298.049162 248.091795 
L 298.150838 247.903144 
L 298.252514 248.553599 
L 298.405027 246.718213 
L 298.455865 247.256235 
L 298.608378 248.120424 
L 298.811729 246.676887 
L 298.913405 247.789143 
L 298.964243 247.523637 
L 299.116756 247.55747 
L 299.167594 247.478086 
L 299.218432 246.955386 
L 299.269269 247.363645 
L 299.370945 247.086494 
L 299.421783 247.634627 
L 299.472621 247.49679 
L 299.625134 247.121554 
L 299.675972 248.299734 
L 299.72681 248.084286 
L 299.777647 248.040874 
L 299.828485 248.518118 
L 299.879323 248.378148 
L 300.031836 247.29427 
L 300.082674 248.209939 
L 300.133512 248.013836 
L 300.18435 247.944473 
L 300.286025 248.417074 
L 300.438539 247.476894 
L 300.489377 248.155765 
L 300.540214 247.983894 
L 300.591052 247.945687 
L 300.64189 248.136668 
L 300.845241 246.557759 
L 300.946917 247.737543 
L 300.997755 247.638931 
L 301.201106 248.085622 
L 301.251944 247.820437 
L 301.353619 248.404408 
L 301.658646 246.616095 
L 301.861997 248.0986 
L 302.014511 247.193142 
L 302.065348 246.467618 
L 302.116186 247.303076 
L 302.217862 246.895394 
L 302.2687 247.410482 
L 302.319537 247.141319 
L 302.370375 246.755072 
L 302.421213 246.966432 
L 302.472051 246.8721 
L 302.624564 247.463332 
L 302.675402 247.453836 
L 302.878753 246.356959 
L 303.031267 246.748674 
L 303.234618 247.173231 
L 303.285456 246.597947 
L 303.336293 247.068478 
L 303.387131 247.036453 
L 303.488807 247.300992 
L 303.692158 246.115579 
L 303.844671 246.758454 
L 304.048022 247.50584 
L 304.09886 246.953777 
L 304.302211 248.802888 
L 304.403887 248.622161 
L 304.5564 249.354803 
L 304.607238 249.032097 
L 304.658076 249.199215 
L 304.708914 249.682001 
L 304.759752 249.615025 
L 304.912265 248.662649 
L 304.963103 249.336748 
L 305.013941 249.163183 
L 305.064778 249.132362 
L 305.26813 249.854027 
L 305.318967 249.554287 
L 305.522319 250.669147 
L 305.623994 250.061218 
L 305.878183 251.900711 
L 305.929021 251.60801 
L 306.132372 250.466626 
L 306.234048 251.768039 
L 306.284886 251.544075 
L 306.335723 251.59416 
L 306.437399 250.730831 
L 306.539075 250.765342 
L 306.589912 251.256721 
L 306.691588 251.240815 
L 306.793264 251.479317 
L 306.945777 250.4406 
L 307.047453 251.484018 
L 307.09829 251.448365 
L 307.149128 251.677391 
L 307.199966 251.530073 
L 307.352479 250.427391 
L 307.403317 251.429565 
L 307.504993 251.265352 
L 307.708344 251.345896 
L 307.759182 250.431843 
L 307.81002 251.061866 
L 307.911695 251.564564 
L 307.962533 251.420565 
L 308.115046 250.791044 
L 308.165884 250.232476 
L 308.216722 250.876655 
L 308.26756 250.838523 
L 308.369235 251.769104 
L 308.420073 251.466697 
L 308.572587 250.049258 
L 308.775938 251.260438 
L 308.826776 251.30197 
L 308.979289 249.934943 
L 309.030127 250.705051 
L 309.080965 250.575694 
L 309.233478 251.566095 
L 309.385991 250.080429 
L 309.589342 252.125803 
L 309.792694 251.35683 
L 309.843531 251.778194 
L 309.894369 251.691734 
L 309.945207 251.564962 
L 310.046883 251.966288 
L 310.199396 250.765638 
L 310.250234 251.168613 
L 310.351909 252.00234 
L 310.402747 251.602621 
L 310.453585 250.995498 
L 310.504423 251.182065 
L 310.555261 251.564064 
L 310.606098 250.742342 
L 310.656936 251.428762 
L 310.758612 251.17254 
L 310.860287 251.679651 
L 311.012801 250.510963 
L 311.063639 251.700745 
L 311.165314 251.554314 
L 311.216152 252.209352 
L 311.26699 252.109193 
L 311.470341 250.938205 
L 311.521179 250.985895 
L 311.572017 251.521022 
L 311.622854 251.482122 
L 311.775368 250.362204 
L 311.826206 250.452982 
L 311.978719 251.653235 
L 312.029557 251.754179 
L 312.080395 251.695853 
L 312.232908 251.021083 
L 312.283746 251.770376 
L 312.334584 251.741887 
L 312.537935 250.924904 
L 312.588773 250.939113 
L 312.63961 250.753807 
L 312.690448 251.701386 
L 312.741286 251.589498 
L 312.792124 251.144503 
L 312.842962 251.239681 
L 312.893799 251.51854 
L 312.944637 251.413905 
L 313.046313 250.236604 
L 313.097151 251.010717 
L 313.147988 251.109731 
L 313.249664 250.470427 
L 313.35134 250.776377 
L 313.402177 250.855082 
L 313.453015 250.277692 
L 313.503853 250.735844 
L 313.554691 250.646031 
L 313.605529 250.74145 
L 313.656366 250.785201 
L 313.707204 250.654498 
L 313.961393 252.028505 
L 314.26642 249.287704 
L 314.418933 250.925278 
L 314.469771 250.69952 
L 314.520609 250.880168 
L 314.622285 251.297112 
L 314.673122 250.42625 
L 314.72396 251.237924 
L 314.825636 251.010421 
L 314.876474 251.42626 
L 314.927311 251.061518 
L 315.079825 250.44789 
L 315.232338 251.5397 
L 315.283176 251.794832 
L 315.334014 251.738435 
L 315.486527 250.5792 
L 315.537365 251.643928 
L 315.588203 251.552471 
L 315.63904 251.335353 
L 315.689878 251.581416 
L 315.893229 250.755289 
L 315.994905 251.599296 
L 316.096581 251.048652 
L 316.147418 251.096339 
L 316.249094 251.125461 
L 316.299932 250.128223 
L 316.35077 250.954211 
L 316.401607 251.213463 
L 316.452445 250.88844 
L 316.503283 251.069335 
L 316.554121 251.125969 
L 316.655796 250.53605 
L 316.706634 249.837924 
L 316.859148 251.126659 
L 316.960823 251.659961 
L 317.113337 250.4913 
L 317.164174 251.374309 
L 317.215012 251.214836 
L 317.26585 251.193038 
L 317.367526 252.104924 
L 317.520039 250.288172 
L 317.672552 252.244242 
L 317.72339 252.351643 
L 317.825066 250.95711 
L 317.926741 251.124079 
L 317.977579 251.937939 
L 318.028417 251.696054 
L 318.130093 251.640525 
L 318.231768 251.101052 
L 318.282606 251.320712 
L 318.384282 252.983413 
L 318.435119 252.419332 
L 318.485957 251.866809 
L 318.587633 253.048645 
L 318.740146 251.325247 
L 318.89266 253.34231 
L 318.943497 253.257614 
L 319.096011 251.878207 
L 319.146849 251.891328 
L 319.197686 252.798646 
L 319.248524 252.413197 
L 319.299362 252.120539 
L 319.3502 252.316868 
L 319.401038 252.245159 
L 319.553551 251.291425 
L 319.756902 252.393011 
L 319.80774 252.651167 
L 319.960253 251.049902 
L 320.112767 252.508788 
L 320.214442 252.898944 
L 320.366956 250.535896 
L 320.417793 251.645472 
L 320.468631 251.648538 
L 320.519469 251.782962 
L 320.570307 252.305332 
L 320.621145 251.872696 
L 320.773658 251.284245 
L 320.824496 252.114934 
L 320.875334 251.999798 
L 320.977009 251.467865 
L 321.078685 251.804104 
L 321.129523 251.676464 
L 321.18036 250.596771 
L 321.231198 251.134457 
L 321.434549 252.381931 
L 321.536225 251.823781 
L 321.587063 250.835025 
L 321.637901 251.636142 
L 321.89209 252.108815 
L 321.942927 252.448226 
L 321.993765 251.889961 
L 322.146279 253.57413 
L 322.400468 252.012381 
L 322.451305 252.90621 
L 322.502143 252.666921 
L 322.552981 252.60475 
L 322.603819 252.876942 
L 322.705494 252.497366 
L 322.756332 252.717094 
L 322.80717 251.83048 
L 322.858008 252.496517 
L 322.959683 252.935618 
L 323.213872 251.4174 
L 323.366386 253.061644 
L 323.569737 253.605694 
L 323.671413 252.012724 
L 323.72225 252.413892 
L 323.823926 253.410287 
L 323.874764 253.232884 
L 323.976439 253.483194 
L 324.027277 252.406764 
L 324.078115 253.031621 
L 324.128953 252.87687 
L 324.179791 252.971487 
L 324.230628 253.204242 
L 324.281466 252.990916 
L 324.43398 252.515819 
L 324.484817 253.109753 
L 324.535655 252.880893 
L 324.586493 252.74966 
L 324.637331 252.811804 
L 324.789844 252.990907 
L 324.840682 252.64281 
L 324.942358 253.735974 
L 324.993195 253.432759 
L 325.094871 253.65664 
L 325.247384 252.076307 
L 325.298222 253.31503 
L 325.34906 253.223568 
L 325.552411 252.839157 
L 325.603249 253.011739 
L 325.654087 252.107287 
L 325.704925 252.890837 
L 325.908276 253.603873 
L 325.959113 253.51765 
L 326.009951 253.198793 
L 326.060789 252.069985 
L 326.111627 253.013559 
L 326.162465 252.961721 
L 326.213302 253.117744 
L 326.26414 253.750803 
L 326.314978 253.378716 
L 326.365816 252.687606 
L 326.467491 252.817043 
L 326.518329 253.620128 
L 326.620005 253.582966 
L 326.72168 253.983127 
L 326.874194 252.427693 
L 327.026707 253.320975 
L 327.077545 253.602333 
L 327.128383 253.521725 
L 327.230058 252.768616 
L 327.280896 251.846014 
L 327.331734 252.249807 
L 327.484247 253.763607 
L 327.535085 253.523285 
L 327.687599 252.821706 
L 327.89095 254.489184 
L 327.941788 254.342751 
L 328.094301 253.24125 
L 328.145139 253.714424 
L 328.195977 253.00932 
L 328.246814 253.13223 
L 328.34849 253.791457 
L 328.399328 253.775084 
L 328.450166 254.021546 
L 328.501003 253.468162 
L 328.551841 253.93322 
L 328.602679 253.995205 
L 328.704355 254.571766 
L 328.755192 254.435019 
L 328.907706 254.130314 
L 329.060219 255.080904 
L 329.111057 254.994546 
L 329.314408 252.90982 
L 329.365246 253.619155 
L 329.466922 253.795155 
L 329.568597 254.354995 
L 329.619435 254.264758 
L 329.721111 252.737206 
L 329.924462 255.262141 
L 330.127813 253.609942 
L 330.229489 253.647783 
L 330.331164 254.250917 
L 330.43284 253.738658 
L 330.483678 254.005937 
L 330.534515 253.415972 
L 330.585353 254.560601 
L 330.687029 254.489547 
L 330.737867 254.877113 
L 330.788704 254.792181 
L 330.941218 253.701489 
L 330.992056 254.676376 
L 331.042893 254.209784 
L 331.093731 254.115013 
L 331.144569 254.26063 
L 331.195407 254.047414 
L 331.246244 253.33203 
L 331.297082 253.657592 
L 331.34792 253.590121 
L 331.449596 254.769269 
L 331.500433 254.744183 
L 331.551271 255.079401 
L 331.602109 254.894362 
L 331.856298 253.834486 
L 331.957974 254.914141 
L 332.008811 254.602868 
L 332.161325 252.762124 
L 332.263 254.322471 
L 332.313838 254.153661 
L 332.415514 254.454476 
L 332.466352 254.435138 
L 332.517189 254.402238 
L 332.568027 253.910639 
L 332.669703 255.334612 
L 332.720541 254.940784 
L 332.771378 254.710014 
L 332.873054 255.541627 
L 332.97473 253.581284 
L 333.025567 254.639625 
L 333.076405 254.707362 
L 333.178081 255.520268 
L 333.228919 255.184146 
L 333.381432 254.090276 
L 333.533945 255.39322 
L 333.584783 255.814479 
L 333.635621 255.52228 
L 333.788134 253.742075 
L 333.991486 255.233531 
L 334.042323 255.200411 
L 334.194837 253.978796 
L 334.34735 255.722464 
L 334.449026 256.136454 
L 334.550701 255.747814 
L 334.601539 254.517253 
L 334.652377 255.525492 
L 334.703215 255.767195 
L 334.754053 255.633818 
L 335.008242 254.183121 
L 335.059079 255.17394 
L 335.109917 254.774259 
L 335.160755 254.779296 
L 335.211593 255.519326 
L 335.262431 255.256669 
L 335.414944 254.264265 
L 335.465782 255.061378 
L 335.51662 254.765623 
L 335.567457 254.575656 
L 335.618295 254.762417 
L 335.770809 254.296675 
L 335.821646 253.818321 
L 335.97416 254.533699 
L 336.075835 254.986785 
L 336.126673 254.94395 
L 336.177511 254.581932 
L 336.228349 253.258186 
L 336.279187 254.393496 
L 336.330024 254.448878 
L 336.4317 253.841315 
L 336.482538 253.87545 
L 336.635051 253.005969 
L 336.736727 254.047502 
L 336.787564 253.984135 
L 336.990916 253.288192 
L 337.041753 252.644039 
L 337.092591 253.22734 
L 337.194267 253.968278 
L 337.245105 253.905737 
L 337.34678 253.096389 
L 337.397618 253.345735 
L 337.448456 253.044796 
L 337.600969 254.118681 
L 337.753483 253.190031 
L 337.855158 251.721688 
L 338.058509 253.863465 
L 338.261861 252.839597 
L 338.363536 253.788323 
L 338.414374 253.369648 
L 338.465212 253.509128 
L 338.617725 253.954224 
L 338.668563 253.289163 
L 338.719401 254.011818 
L 338.770239 253.948802 
L 338.871914 254.835563 
L 338.922752 254.595107 
L 338.97359 254.400683 
L 339.024428 254.678491 
L 339.075265 254.1789 
L 339.126103 254.731056 
L 339.227779 254.590936 
L 339.278617 254.994582 
L 339.329454 254.574095 
L 339.481968 254.171705 
L 339.583643 255.594989 
L 339.634481 255.148433 
L 339.685319 255.416262 
L 339.837832 255.125631 
L 339.88867 254.135401 
L 339.990346 255.350531 
L 340.041184 255.333664 
L 340.142859 255.822713 
L 340.193697 255.237513 
L 340.244535 255.750218 
L 340.498724 256.353585 
L 340.549562 256.309978 
L 340.702075 255.077565 
L 340.854588 256.14338 
L 340.905426 256.274976 
L 341.108777 254.646271 
L 341.261291 255.886313 
L 341.312129 256.411766 
L 341.362966 256.146793 
L 341.51548 254.829006 
L 341.718831 256.579078 
L 341.922182 254.723564 
L 341.97302 255.535661 
L 342.227209 255.196488 
L 342.278047 255.239029 
L 342.328884 254.472843 
L 342.379722 255.624666 
L 342.481398 255.453377 
L 342.532236 256.032169 
L 342.583073 255.821729 
L 342.735587 255.126851 
L 342.786425 256.128554 
L 342.8881 256.011841 
L 342.989776 256.425326 
L 343.040614 256.347051 
L 343.091451 256.252442 
L 343.142289 255.205792 
L 343.193127 256.170724 
L 343.243965 256.324382 
L 343.294803 256.225428 
L 343.396478 256.13591 
L 343.498154 255.74572 
L 343.498154 255.74572 
" style="fill:none;stroke:#1f77b4;stroke-linecap:square;stroke-width:1.5;"/>
   </g>
   <g id="patch_3">
    <path d="M 74.736 261.324 
L 74.736 30.744 
" style="fill:none;stroke:#000000;stroke-linecap:square;stroke-linejoin:miter;stroke-width:0.8;"/>
   </g>
   <g id="patch_4">
    <path d="M 348.768 261.324 
L 348.768 30.744 
" style="fill:none;stroke:#000000;stroke-linecap:square;stroke-linejoin:miter;stroke-width:0.8;"/>
   </g>
   <g id="patch_5">
    <path d="M 74.736 261.324 
L 348.768 261.324 
" style="fill:none;stroke:#000000;stroke-linecap:square;stroke-linejoin:miter;stroke-width:0.8;"/>
   </g>
   <g id="patch_6">
    <path d="M 74.736 30.744 
L 348.768 30.744 
" style="fill:none;stroke:#000000;stroke-linecap:square;stroke-linejoin:miter;stroke-width:0.8;"/>
   </g>
   <g id="text_15">
    <!--  -->
    <g transform="translate(485.784 11.17415)scale(0.08 -0.08)"/>
    <!-- Plot created Sun Mar 10 21:42:24 2019 -->
    <defs>
     <path d="M 19.671875 64.796875 
L 19.671875 37.40625 
L 32.078125 37.40625 
Q 38.96875 37.40625 42.71875 40.96875 
Q 46.484375 44.53125 46.484375 51.125 
Q 46.484375 57.671875 42.71875 61.234375 
Q 38.96875 64.796875 32.078125 64.796875 
z
M 9.8125 72.90625 
L 32.078125 72.90625 
Q 44.34375 72.90625 50.609375 67.359375 
Q 56.890625 61.8125 56.890625 51.125 
Q 56.890625 40.328125 50.609375 34.8125 
Q 44.34375 29.296875 32.078125 29.296875 
L 19.671875 29.296875 
L 19.671875 0 
L 9.8125 0 
z
" id="DejaVuSans-80"/>
     <path d="M 9.421875 75.984375 
L 18.40625 75.984375 
L 18.40625 0 
L 9.421875 0 
z
" id="DejaVuSans-108"/>
     <path d="M 30.609375 48.390625 
Q 23.390625 48.390625 19.1875 42.75 
Q 14.984375 37.109375 14.984375 27.296875 
Q 14.984375 17.484375 19.15625 11.84375 
Q 23.34375 6.203125 30.609375 6.203125 
Q 37.796875 6.203125 41.984375 11.859375 
Q 46.1875 17.53125 46.1875 27.296875 
Q 46.1875 37.015625 41.984375 42.703125 
Q 37.796875 48.390625 30.609375 48.390625 
z
M 30.609375 56 
Q 42.328125 56 49.015625 48.375 
Q 55.71875 40.765625 55.71875 27.296875 
Q 55.71875 13.875 49.015625 6.21875 
Q 42.328125 -1.421875 30.609375 -1.421875 
Q 18.84375 -1.421875 12.171875 6.21875 
Q 5.515625 13.875 5.515625 27.296875 
Q 5.515625 40.765625 12.171875 48.375 
Q 18.84375 56 30.609375 56 
z
" id="DejaVuSans-111"/>
     <path id="DejaVuSans-32"/>
     <path d="M 41.109375 46.296875 
Q 39.59375 47.171875 37.8125 47.578125 
Q 36.03125 48 33.890625 48 
Q 26.265625 48 22.1875 43.046875 
Q 18.109375 38.09375 18.109375 28.8125 
L 18.109375 0 
L 9.078125 0 
L 9.078125 54.6875 
L 18.109375 54.6875 
L 18.109375 46.1875 
Q 20.953125 51.171875 25.484375 53.578125 
Q 30.03125 56 36.53125 56 
Q 37.453125 56 38.578125 55.875 
Q 39.703125 55.765625 41.0625 55.515625 
z
" id="DejaVuSans-114"/>
     <path d="M 45.40625 46.390625 
L 45.40625 75.984375 
L 54.390625 75.984375 
L 54.390625 0 
L 45.40625 0 
L 45.40625 8.203125 
Q 42.578125 3.328125 38.25 0.953125 
Q 33.9375 -1.421875 27.875 -1.421875 
Q 17.96875 -1.421875 11.734375 6.484375 
Q 5.515625 14.40625 5.515625 27.296875 
Q 5.515625 40.1875 11.734375 48.09375 
Q 17.96875 56 27.875 56 
Q 33.9375 56 38.25 53.625 
Q 42.578125 51.265625 45.40625 46.390625 
z
M 14.796875 27.296875 
Q 14.796875 17.390625 18.875 11.75 
Q 22.953125 6.109375 30.078125 6.109375 
Q 37.203125 6.109375 41.296875 11.75 
Q 45.40625 17.390625 45.40625 27.296875 
Q 45.40625 37.203125 41.296875 42.84375 
Q 37.203125 48.484375 30.078125 48.484375 
Q 22.953125 48.484375 18.875 42.84375 
Q 14.796875 37.203125 14.796875 27.296875 
z
" id="DejaVuSans-100"/>
     <path d="M 53.515625 70.515625 
L 53.515625 60.890625 
Q 47.90625 63.578125 42.921875 64.890625 
Q 37.9375 66.21875 33.296875 66.21875 
Q 25.25 66.21875 20.875 63.09375 
Q 16.5 59.96875 16.5 54.203125 
Q 16.5 49.359375 19.40625 46.890625 
Q 22.3125 44.4375 30.421875 42.921875 
L 36.375 41.703125 
Q 47.40625 39.59375 52.65625 34.296875 
Q 57.90625 29 57.90625 20.125 
Q 57.90625 9.515625 50.796875 4.046875 
Q 43.703125 -1.421875 29.984375 -1.421875 
Q 24.8125 -1.421875 18.96875 -0.25 
Q 13.140625 0.921875 6.890625 3.21875 
L 6.890625 13.375 
Q 12.890625 10.015625 18.65625 8.296875 
Q 24.421875 6.59375 29.984375 6.59375 
Q 38.421875 6.59375 43.015625 9.90625 
Q 47.609375 13.234375 47.609375 19.390625 
Q 47.609375 24.75 44.3125 27.78125 
Q 41.015625 30.8125 33.5 32.328125 
L 27.484375 33.5 
Q 16.453125 35.6875 11.515625 40.375 
Q 6.59375 45.0625 6.59375 53.421875 
Q 6.59375 63.09375 13.40625 68.65625 
Q 20.21875 74.21875 32.171875 74.21875 
Q 37.3125 74.21875 42.625 73.28125 
Q 47.953125 72.359375 53.515625 70.515625 
z
" id="DejaVuSans-83"/>
     <path d="M 8.5 21.578125 
L 8.5 54.6875 
L 17.484375 54.6875 
L 17.484375 21.921875 
Q 17.484375 14.15625 20.5 10.265625 
Q 23.53125 6.390625 29.59375 6.390625 
Q 36.859375 6.390625 41.078125 11.03125 
Q 45.3125 15.671875 45.3125 23.6875 
L 45.3125 54.6875 
L 54.296875 54.6875 
L 54.296875 0 
L 45.3125 0 
L 45.3125 8.40625 
Q 42.046875 3.421875 37.71875 1 
Q 33.40625 -1.421875 27.6875 -1.421875 
Q 18.265625 -1.421875 13.375 4.4375 
Q 8.5 10.296875 8.5 21.578125 
z
M 31.109375 56 
z
" id="DejaVuSans-117"/>
     <path d="M 9.8125 72.90625 
L 24.515625 72.90625 
L 43.109375 23.296875 
L 61.8125 72.90625 
L 76.515625 72.90625 
L 76.515625 0 
L 66.890625 0 
L 66.890625 64.015625 
L 48.09375 14.015625 
L 38.1875 14.015625 
L 19.390625 64.015625 
L 19.390625 0 
L 9.8125 0 
z
" id="DejaVuSans-77"/>
     <path d="M 11.71875 12.40625 
L 22.015625 12.40625 
L 22.015625 0 
L 11.71875 0 
z
M 11.71875 51.703125 
L 22.015625 51.703125 
L 22.015625 39.3125 
L 11.71875 39.3125 
z
" id="DejaVuSans-58"/>
     <path d="M 10.984375 1.515625 
L 10.984375 10.5 
Q 14.703125 8.734375 18.5 7.8125 
Q 22.3125 6.890625 25.984375 6.890625 
Q 35.75 6.890625 40.890625 13.453125 
Q 46.046875 20.015625 46.78125 33.40625 
Q 43.953125 29.203125 39.59375 26.953125 
Q 35.25 24.703125 29.984375 24.703125 
Q 19.046875 24.703125 12.671875 31.3125 
Q 6.296875 37.9375 6.296875 49.421875 
Q 6.296875 60.640625 12.9375 67.421875 
Q 19.578125 74.21875 30.609375 74.21875 
Q 43.265625 74.21875 49.921875 64.515625 
Q 56.59375 54.828125 56.59375 36.375 
Q 56.59375 19.140625 48.40625 8.859375 
Q 40.234375 -1.421875 26.421875 -1.421875 
Q 22.703125 -1.421875 18.890625 -0.6875 
Q 15.09375 0.046875 10.984375 1.515625 
z
M 30.609375 32.421875 
Q 37.25 32.421875 41.125 36.953125 
Q 45.015625 41.5 45.015625 49.421875 
Q 45.015625 57.28125 41.125 61.84375 
Q 37.25 66.40625 30.609375 66.40625 
Q 23.96875 66.40625 20.09375 61.84375 
Q 16.21875 57.28125 16.21875 49.421875 
Q 16.21875 41.5 20.09375 36.953125 
Q 23.96875 32.421875 30.609375 32.421875 
z
" id="DejaVuSans-57"/>
    </defs>
    <g transform="translate(328.0215 20.1324)scale(0.08 -0.08)">
     <use xlink:href="#DejaVuSans-80"/>
     <use x="60.302734" xlink:href="#DejaVuSans-108"/>
     <use x="88.085938" xlink:href="#DejaVuSans-111"/>
     <use x="149.267578" xlink:href="#DejaVuSans-116"/>
     <use x="188.476562" xlink:href="#DejaVuSans-32"/>
     <use x="220.263672" xlink:href="#DejaVuSans-99"/>
     <use x="275.244141" xlink:href="#DejaVuSans-114"/>
     <use x="316.326172" xlink:href="#DejaVuSans-101"/>
     <use x="377.849609" xlink:href="#DejaVuSans-97"/>
     <use x="439.128906" xlink:href="#DejaVuSans-116"/>
     <use x="478.337891" xlink:href="#DejaVuSans-101"/>
     <use x="539.861328" xlink:href="#DejaVuSans-100"/>
     <use x="603.337891" xlink:href="#DejaVuSans-32"/>
     <use x="635.125" xlink:href="#DejaVuSans-83"/>
     <use x="698.601562" xlink:href="#DejaVuSans-117"/>
     <use x="761.980469" xlink:href="#DejaVuSans-110"/>
     <use x="825.359375" xlink:href="#DejaVuSans-32"/>
     <use x="857.146484" xlink:href="#DejaVuSans-77"/>
     <use x="943.425781" xlink:href="#DejaVuSans-97"/>
     <use x="1004.705078" xlink:href="#DejaVuSans-114"/>
     <use x="1045.818359" xlink:href="#DejaVuSans-32"/>
     <use x="1077.605469" xlink:href="#DejaVuSans-49"/>
     <use x="1141.228516" xlink:href="#DejaVuSans-48"/>
     <use x="1204.851562" xlink:href="#DejaVuSans-32"/>
     <use x="1236.638672" xlink:href="#DejaVuSans-50"/>
     <use x="1300.261719" xlink:href="#DejaVuSans-49"/>
     <use x="1363.884766" xlink:href="#DejaVuSans-58"/>
     <use x="1397.576172" xlink:href="#DejaVuSans-52"/>
     <use x="1461.199219" xlink:href="#DejaVuSans-50"/>
     <use x="1524.822266" xlink:href="#DejaVuSans-58"/>
     <use x="1558.513672" xlink:href="#DejaVuSans-50"/>
     <use x="1622.136719" xlink:href="#DejaVuSans-52"/>
     <use x="1685.759766" xlink:href="#DejaVuSans-32"/>
     <use x="1717.546875" xlink:href="#DejaVuSans-50"/>
     <use x="1781.169922" xlink:href="#DejaVuSans-48"/>
     <use x="1844.792969" xlink:href="#DejaVuSans-49"/>
     <use x="1908.416016" xlink:href="#DejaVuSans-57"/>
    </g>
   </g>
   <g id="legend_1">
    <g id="patch_7">
     <path d="M 352.90832 261.324 
L 397.28832 261.324 
Q 398.68832 261.324 398.68832 259.924 
L 398.68832 255.669312 
Q 398.68832 254.269312 397.28832 254.269312 
L 352.90832 254.269312 
Q 351.50832 254.269312 351.50832 255.669312 
L 351.50832 259.924 
Q 351.50832 261.324 352.90832 261.324 
z
" style="fill:#ffffff;opacity:0.8;stroke:#cccccc;stroke-linejoin:miter;"/>
    </g>
    <g id="line2d_15">
     <path d="M 351.64832 257.278219 
L 365.64832 257.278219 
" style="fill:none;stroke:#1f77b4;stroke-linecap:square;stroke-width:1.5;"/>
    </g>
    <g id="line2d_16"/>
    <g id="text_16">
     <!-- 0: None -->
     <defs>
      <path d="M 9.8125 72.90625 
L 23.09375 72.90625 
L 55.421875 11.921875 
L 55.421875 72.90625 
L 64.984375 72.90625 
L 64.984375 0 
L 51.703125 0 
L 19.390625 60.984375 
L 19.390625 0 
L 9.8125 0 
z
" id="DejaVuSans-78"/>
     </defs>
     <g transform="translate(371.24832 259.728219)scale(0.07 -0.07)">
      <use xlink:href="#DejaVuSans-48"/>
      <use x="63.623047" xlink:href="#DejaVuSans-58"/>
      <use x="97.314453" xlink:href="#DejaVuSans-32"/>
      <use x="129.101562" xlink:href="#DejaVuSans-78"/>
      <use x="203.90625" xlink:href="#DejaVuSans-111"/>
      <use x="265.087891" xlink:href="#DejaVuSans-110"/>
      <use x="328.466797" xlink:href="#DejaVuSans-101"/>
     </g>
    </g>
   </g>
  </g>
 </g>
 <defs>
  <clipPath id="pe3428c2dd7">
   <rect height="230.58" width="274.032" x="74.736" y="30.744"/>
  </clipPath>
 </defs>
</svg>
