<?xml version="1.0" encoding="utf-8" standalone="no"?>
<!DOCTYPE svg PUBLIC "-//W3C//DTD SVG 1.1//EN"
  "http://www.w3.org/Graphics/SVG/1.1/DTD/svg11.dtd">
<!-- Created with matplotlib (http://matplotlib.org/) -->
<svg height="445pt" version="1.1" viewBox="0 0 844 445" width="844pt" xmlns="http://www.w3.org/2000/svg" xmlns:xlink="http://www.w3.org/1999/xlink">
 <defs>
  <style type="text/css">
*{stroke-linecap:butt;stroke-linejoin:round;}
  </style>
 </defs>
 <g id="figure_1">
  <g id="patch_1">
   <path d="M 0 445.68 
L 844.56 445.68 
L 844.56 0 
L 0 0 
z
" style="fill:#ffffff;"/>
  </g>
  <g id="axes_1">
   <g id="patch_2">
    <path d="M 126.684 378.828 
L 591.192 378.828 
L 591.192 44.568 
L 126.684 44.568 
z
" style="fill:#ffffff;"/>
   </g>
   <g id="matplotlib.axis_1">
    <g id="xtick_1">
     <g id="line2d_1">
      <defs>
       <path d="M 0 0 
L 0 3.5 
" id="m2f42d5662a" style="stroke:#000000;stroke-width:0.8;"/>
      </defs>
      <g>
       <use style="stroke:#000000;stroke-width:0.8;" x="135.641296" xlink:href="#m2f42d5662a" y="378.828"/>
      </g>
     </g>
     <g id="text_1">
      <!-- 0 -->
      <defs>
       <path d="M 31.78125 66.40625 
Q 24.171875 66.40625 20.328125 58.90625 
Q 16.5 51.421875 16.5 36.375 
Q 16.5 21.390625 20.328125 13.890625 
Q 24.171875 6.390625 31.78125 6.390625 
Q 39.453125 6.390625 43.28125 13.890625 
Q 47.125 21.390625 47.125 36.375 
Q 47.125 51.421875 43.28125 58.90625 
Q 39.453125 66.40625 31.78125 66.40625 
z
M 31.78125 74.21875 
Q 44.046875 74.21875 50.515625 64.515625 
Q 56.984375 54.828125 56.984375 36.375 
Q 56.984375 17.96875 50.515625 8.265625 
Q 44.046875 -1.421875 31.78125 -1.421875 
Q 19.53125 -1.421875 13.0625 8.265625 
Q 6.59375 17.96875 6.59375 36.375 
Q 6.59375 54.828125 13.0625 64.515625 
Q 19.53125 74.21875 31.78125 74.21875 
z
" id="DejaVuSans-30"/>
      </defs>
      <g transform="translate(132.460046 393.426438)scale(0.1 -0.1)">
       <use xlink:href="#DejaVuSans-30"/>
      </g>
     </g>
    </g>
    <g id="xtick_2">
     <g id="line2d_2">
      <g>
       <use style="stroke:#000000;stroke-width:0.8;" x="196.396656" xlink:href="#m2f42d5662a" y="378.828"/>
      </g>
     </g>
     <g id="text_2">
      <!-- 250 -->
      <defs>
       <path d="M 19.1875 8.296875 
L 53.609375 8.296875 
L 53.609375 0 
L 7.328125 0 
L 7.328125 8.296875 
Q 12.9375 14.109375 22.625 23.890625 
Q 32.328125 33.6875 34.8125 36.53125 
Q 39.546875 41.84375 41.421875 45.53125 
Q 43.3125 49.21875 43.3125 52.78125 
Q 43.3125 58.59375 39.234375 62.25 
Q 35.15625 65.921875 28.609375 65.921875 
Q 23.96875 65.921875 18.8125 64.3125 
Q 13.671875 62.703125 7.8125 59.421875 
L 7.8125 69.390625 
Q 13.765625 71.78125 18.9375 73 
Q 24.125 74.21875 28.421875 74.21875 
Q 39.75 74.21875 46.484375 68.546875 
Q 53.21875 62.890625 53.21875 53.421875 
Q 53.21875 48.921875 51.53125 44.890625 
Q 49.859375 40.875 45.40625 35.40625 
Q 44.1875 33.984375 37.640625 27.21875 
Q 31.109375 20.453125 19.1875 8.296875 
z
" id="DejaVuSans-32"/>
       <path d="M 10.796875 72.90625 
L 49.515625 72.90625 
L 49.515625 64.59375 
L 19.828125 64.59375 
L 19.828125 46.734375 
Q 21.96875 47.46875 24.109375 47.828125 
Q 26.265625 48.1875 28.421875 48.1875 
Q 40.625 48.1875 47.75 41.5 
Q 54.890625 34.8125 54.890625 23.390625 
Q 54.890625 11.625 47.5625 5.09375 
Q 40.234375 -1.421875 26.90625 -1.421875 
Q 22.3125 -1.421875 17.546875 -0.640625 
Q 12.796875 0.140625 7.71875 1.703125 
L 7.71875 11.625 
Q 12.109375 9.234375 16.796875 8.0625 
Q 21.484375 6.890625 26.703125 6.890625 
Q 35.15625 6.890625 40.078125 11.328125 
Q 45.015625 15.765625 45.015625 23.390625 
Q 45.015625 31 40.078125 35.4375 
Q 35.15625 39.890625 26.703125 39.890625 
Q 22.75 39.890625 18.8125 39.015625 
Q 14.890625 38.140625 10.796875 36.28125 
z
" id="DejaVuSans-35"/>
      </defs>
      <g transform="translate(186.852906 393.426438)scale(0.1 -0.1)">
       <use xlink:href="#DejaVuSans-32"/>
       <use x="63.623047" xlink:href="#DejaVuSans-35"/>
       <use x="127.246094" xlink:href="#DejaVuSans-30"/>
      </g>
     </g>
    </g>
    <g id="xtick_3">
     <g id="line2d_3">
      <g>
       <use style="stroke:#000000;stroke-width:0.8;" x="257.152017" xlink:href="#m2f42d5662a" y="378.828"/>
      </g>
     </g>
     <g id="text_3">
      <!-- 500 -->
      <g transform="translate(247.608267 393.426438)scale(0.1 -0.1)">
       <use xlink:href="#DejaVuSans-35"/>
       <use x="63.623047" xlink:href="#DejaVuSans-30"/>
       <use x="127.246094" xlink:href="#DejaVuSans-30"/>
      </g>
     </g>
    </g>
    <g id="xtick_4">
     <g id="line2d_4">
      <g>
       <use style="stroke:#000000;stroke-width:0.8;" x="317.907377" xlink:href="#m2f42d5662a" y="378.828"/>
      </g>
     </g>
     <g id="text_4">
      <!-- 750 -->
      <defs>
       <path d="M 8.203125 72.90625 
L 55.078125 72.90625 
L 55.078125 68.703125 
L 28.609375 0 
L 18.3125 0 
L 43.21875 64.59375 
L 8.203125 64.59375 
z
" id="DejaVuSans-37"/>
      </defs>
      <g transform="translate(308.363627 393.426438)scale(0.1 -0.1)">
       <use xlink:href="#DejaVuSans-37"/>
       <use x="63.623047" xlink:href="#DejaVuSans-35"/>
       <use x="127.246094" xlink:href="#DejaVuSans-30"/>
      </g>
     </g>
    </g>
    <g id="xtick_5">
     <g id="line2d_5">
      <g>
       <use style="stroke:#000000;stroke-width:0.8;" x="378.662737" xlink:href="#m2f42d5662a" y="378.828"/>
      </g>
     </g>
     <g id="text_5">
      <!-- 1000 -->
      <defs>
       <path d="M 12.40625 8.296875 
L 28.515625 8.296875 
L 28.515625 63.921875 
L 10.984375 60.40625 
L 10.984375 69.390625 
L 28.421875 72.90625 
L 38.28125 72.90625 
L 38.28125 8.296875 
L 54.390625 8.296875 
L 54.390625 0 
L 12.40625 0 
z
" id="DejaVuSans-31"/>
      </defs>
      <g transform="translate(365.937737 393.426438)scale(0.1 -0.1)">
       <use xlink:href="#DejaVuSans-31"/>
       <use x="63.623047" xlink:href="#DejaVuSans-30"/>
       <use x="127.246094" xlink:href="#DejaVuSans-30"/>
       <use x="190.869141" xlink:href="#DejaVuSans-30"/>
      </g>
     </g>
    </g>
    <g id="xtick_6">
     <g id="line2d_6">
      <g>
       <use style="stroke:#000000;stroke-width:0.8;" x="439.418098" xlink:href="#m2f42d5662a" y="378.828"/>
      </g>
     </g>
     <g id="text_6">
      <!-- 1250 -->
      <g transform="translate(426.693098 393.426438)scale(0.1 -0.1)">
       <use xlink:href="#DejaVuSans-31"/>
       <use x="63.623047" xlink:href="#DejaVuSans-32"/>
       <use x="127.246094" xlink:href="#DejaVuSans-35"/>
       <use x="190.869141" xlink:href="#DejaVuSans-30"/>
      </g>
     </g>
    </g>
    <g id="xtick_7">
     <g id="line2d_7">
      <g>
       <use style="stroke:#000000;stroke-width:0.8;" x="500.173458" xlink:href="#m2f42d5662a" y="378.828"/>
      </g>
     </g>
     <g id="text_7">
      <!-- 1500 -->
      <g transform="translate(487.448458 393.426438)scale(0.1 -0.1)">
       <use xlink:href="#DejaVuSans-31"/>
       <use x="63.623047" xlink:href="#DejaVuSans-35"/>
       <use x="127.246094" xlink:href="#DejaVuSans-30"/>
       <use x="190.869141" xlink:href="#DejaVuSans-30"/>
      </g>
     </g>
    </g>
    <g id="xtick_8">
     <g id="line2d_8">
      <g>
       <use style="stroke:#000000;stroke-width:0.8;" x="560.928818" xlink:href="#m2f42d5662a" y="378.828"/>
      </g>
     </g>
     <g id="text_8">
      <!-- 1750 -->
      <g transform="translate(548.203818 393.426438)scale(0.1 -0.1)">
       <use xlink:href="#DejaVuSans-31"/>
       <use x="63.623047" xlink:href="#DejaVuSans-37"/>
       <use x="127.246094" xlink:href="#DejaVuSans-35"/>
       <use x="190.869141" xlink:href="#DejaVuSans-30"/>
      </g>
     </g>
    </g>
    <g id="text_9">
     <!-- Bin -->
     <defs>
      <path d="M 19.671875 34.8125 
L 19.671875 8.109375 
L 35.5 8.109375 
Q 43.453125 8.109375 47.28125 11.40625 
Q 51.125 14.703125 51.125 21.484375 
Q 51.125 28.328125 47.28125 31.5625 
Q 43.453125 34.8125 35.5 34.8125 
z
M 19.671875 64.796875 
L 19.671875 42.828125 
L 34.28125 42.828125 
Q 41.5 42.828125 45.03125 45.53125 
Q 48.578125 48.25 48.578125 53.8125 
Q 48.578125 59.328125 45.03125 62.0625 
Q 41.5 64.796875 34.28125 64.796875 
z
M 9.8125 72.90625 
L 35.015625 72.90625 
Q 46.296875 72.90625 52.390625 68.21875 
Q 58.5 63.53125 58.5 54.890625 
Q 58.5 48.1875 55.375 44.234375 
Q 52.25 40.28125 46.1875 39.3125 
Q 53.46875 37.75 57.5 32.78125 
Q 61.53125 27.828125 61.53125 20.40625 
Q 61.53125 10.640625 54.890625 5.3125 
Q 48.25 0 35.984375 0 
L 9.8125 0 
z
" id="DejaVuSans-42"/>
      <path d="M 9.421875 54.6875 
L 18.40625 54.6875 
L 18.40625 0 
L 9.421875 0 
z
M 9.421875 75.984375 
L 18.40625 75.984375 
L 18.40625 64.59375 
L 9.421875 64.59375 
z
" id="DejaVuSans-69"/>
      <path d="M 54.890625 33.015625 
L 54.890625 0 
L 45.90625 0 
L 45.90625 32.71875 
Q 45.90625 40.484375 42.875 44.328125 
Q 39.84375 48.1875 33.796875 48.1875 
Q 26.515625 48.1875 22.3125 43.546875 
Q 18.109375 38.921875 18.109375 30.90625 
L 18.109375 0 
L 9.078125 0 
L 9.078125 54.6875 
L 18.109375 54.6875 
L 18.109375 46.1875 
Q 21.34375 51.125 25.703125 53.5625 
Q 30.078125 56 35.796875 56 
Q 45.21875 56 50.046875 50.171875 
Q 54.890625 44.34375 54.890625 33.015625 
z
" id="DejaVuSans-6e"/>
     </defs>
     <g transform="translate(350.949719 407.104562)scale(0.1 -0.1)">
      <use xlink:href="#DejaVuSans-42"/>
      <use x="68.603516" xlink:href="#DejaVuSans-69"/>
      <use x="96.386719" xlink:href="#DejaVuSans-6e"/>
     </g>
    </g>
   </g>
   <g id="matplotlib.axis_2">
    <g id="ytick_1">
     <g id="line2d_9">
      <defs>
       <path d="M 0 0 
L -3.5 0 
" id="mb309657910" style="stroke:#000000;stroke-width:0.8;"/>
      </defs>
      <g>
       <use style="stroke:#000000;stroke-width:0.8;" x="126.684" xlink:href="#mb309657910" y="372.399923"/>
      </g>
     </g>
     <g id="text_10">
      <!-- 0 -->
      <g transform="translate(113.3215 376.199142)scale(0.1 -0.1)">
       <use xlink:href="#DejaVuSans-30"/>
      </g>
     </g>
    </g>
    <g id="ytick_2">
     <g id="line2d_10">
      <g>
       <use style="stroke:#000000;stroke-width:0.8;" x="126.684" xlink:href="#mb309657910" y="329.477401"/>
      </g>
     </g>
     <g id="text_11">
      <!-- 250 -->
      <g transform="translate(100.5965 333.27662)scale(0.1 -0.1)">
       <use xlink:href="#DejaVuSans-32"/>
       <use x="63.623047" xlink:href="#DejaVuSans-35"/>
       <use x="127.246094" xlink:href="#DejaVuSans-30"/>
      </g>
     </g>
    </g>
    <g id="ytick_3">
     <g id="line2d_11">
      <g>
       <use style="stroke:#000000;stroke-width:0.8;" x="126.684" xlink:href="#mb309657910" y="286.554879"/>
      </g>
     </g>
     <g id="text_12">
      <!-- 500 -->
      <g transform="translate(100.5965 290.354097)scale(0.1 -0.1)">
       <use xlink:href="#DejaVuSans-35"/>
       <use x="63.623047" xlink:href="#DejaVuSans-30"/>
       <use x="127.246094" xlink:href="#DejaVuSans-30"/>
      </g>
     </g>
    </g>
    <g id="ytick_4">
     <g id="line2d_12">
      <g>
       <use style="stroke:#000000;stroke-width:0.8;" x="126.684" xlink:href="#mb309657910" y="243.632357"/>
      </g>
     </g>
     <g id="text_13">
      <!-- 750 -->
      <g transform="translate(100.5965 247.431575)scale(0.1 -0.1)">
       <use xlink:href="#DejaVuSans-37"/>
       <use x="63.623047" xlink:href="#DejaVuSans-35"/>
       <use x="127.246094" xlink:href="#DejaVuSans-30"/>
      </g>
     </g>
    </g>
    <g id="ytick_5">
     <g id="line2d_13">
      <g>
       <use style="stroke:#000000;stroke-width:0.8;" x="126.684" xlink:href="#mb309657910" y="200.709834"/>
      </g>
     </g>
     <g id="text_14">
      <!-- 1000 -->
      <g transform="translate(94.234 204.509053)scale(0.1 -0.1)">
       <use xlink:href="#DejaVuSans-31"/>
       <use x="63.623047" xlink:href="#DejaVuSans-30"/>
       <use x="127.246094" xlink:href="#DejaVuSans-30"/>
       <use x="190.869141" xlink:href="#DejaVuSans-30"/>
      </g>
     </g>
    </g>
    <g id="ytick_6">
     <g id="line2d_14">
      <g>
       <use style="stroke:#000000;stroke-width:0.8;" x="126.684" xlink:href="#mb309657910" y="157.787312"/>
      </g>
     </g>
     <g id="text_15">
      <!-- 1250 -->
      <g transform="translate(94.234 161.586531)scale(0.1 -0.1)">
       <use xlink:href="#DejaVuSans-31"/>
       <use x="63.623047" xlink:href="#DejaVuSans-32"/>
       <use x="127.246094" xlink:href="#DejaVuSans-35"/>
       <use x="190.869141" xlink:href="#DejaVuSans-30"/>
      </g>
     </g>
    </g>
    <g id="ytick_7">
     <g id="line2d_15">
      <g>
       <use style="stroke:#000000;stroke-width:0.8;" x="126.684" xlink:href="#mb309657910" y="114.86479"/>
      </g>
     </g>
     <g id="text_16">
      <!-- 1500 -->
      <g transform="translate(94.234 118.664009)scale(0.1 -0.1)">
       <use xlink:href="#DejaVuSans-31"/>
       <use x="63.623047" xlink:href="#DejaVuSans-35"/>
       <use x="127.246094" xlink:href="#DejaVuSans-30"/>
       <use x="190.869141" xlink:href="#DejaVuSans-30"/>
      </g>
     </g>
    </g>
    <g id="ytick_8">
     <g id="line2d_16">
      <g>
       <use style="stroke:#000000;stroke-width:0.8;" x="126.684" xlink:href="#mb309657910" y="71.942268"/>
      </g>
     </g>
     <g id="text_17">
      <!-- 1750 -->
      <g transform="translate(94.234 75.741487)scale(0.1 -0.1)">
       <use xlink:href="#DejaVuSans-31"/>
       <use x="63.623047" xlink:href="#DejaVuSans-37"/>
       <use x="127.246094" xlink:href="#DejaVuSans-35"/>
       <use x="190.869141" xlink:href="#DejaVuSans-30"/>
      </g>
     </g>
    </g>
    <g id="text_18">
     <!-- Counts -->
     <defs>
      <path d="M 64.40625 67.28125 
L 64.40625 56.890625 
Q 59.421875 61.53125 53.78125 63.8125 
Q 48.140625 66.109375 41.796875 66.109375 
Q 29.296875 66.109375 22.65625 58.46875 
Q 16.015625 50.828125 16.015625 36.375 
Q 16.015625 21.96875 22.65625 14.328125 
Q 29.296875 6.6875 41.796875 6.6875 
Q 48.140625 6.6875 53.78125 8.984375 
Q 59.421875 11.28125 64.40625 15.921875 
L 64.40625 5.609375 
Q 59.234375 2.09375 53.4375 0.328125 
Q 47.65625 -1.421875 41.21875 -1.421875 
Q 24.65625 -1.421875 15.125 8.703125 
Q 5.609375 18.84375 5.609375 36.375 
Q 5.609375 53.953125 15.125 64.078125 
Q 24.65625 74.21875 41.21875 74.21875 
Q 47.75 74.21875 53.53125 72.484375 
Q 59.328125 70.75 64.40625 67.28125 
z
" id="DejaVuSans-43"/>
      <path d="M 30.609375 48.390625 
Q 23.390625 48.390625 19.1875 42.75 
Q 14.984375 37.109375 14.984375 27.296875 
Q 14.984375 17.484375 19.15625 11.84375 
Q 23.34375 6.203125 30.609375 6.203125 
Q 37.796875 6.203125 41.984375 11.859375 
Q 46.1875 17.53125 46.1875 27.296875 
Q 46.1875 37.015625 41.984375 42.703125 
Q 37.796875 48.390625 30.609375 48.390625 
z
M 30.609375 56 
Q 42.328125 56 49.015625 48.375 
Q 55.71875 40.765625 55.71875 27.296875 
Q 55.71875 13.875 49.015625 6.21875 
Q 42.328125 -1.421875 30.609375 -1.421875 
Q 18.84375 -1.421875 12.171875 6.21875 
Q 5.515625 13.875 5.515625 27.296875 
Q 5.515625 40.765625 12.171875 48.375 
Q 18.84375 56 30.609375 56 
z
" id="DejaVuSans-6f"/>
      <path d="M 8.5 21.578125 
L 8.5 54.6875 
L 17.484375 54.6875 
L 17.484375 21.921875 
Q 17.484375 14.15625 20.5 10.265625 
Q 23.53125 6.390625 29.59375 6.390625 
Q 36.859375 6.390625 41.078125 11.03125 
Q 45.3125 15.671875 45.3125 23.6875 
L 45.3125 54.6875 
L 54.296875 54.6875 
L 54.296875 0 
L 45.3125 0 
L 45.3125 8.40625 
Q 42.046875 3.421875 37.71875 1 
Q 33.40625 -1.421875 27.6875 -1.421875 
Q 18.265625 -1.421875 13.375 4.4375 
Q 8.5 10.296875 8.5 21.578125 
z
M 31.109375 56 
z
" id="DejaVuSans-75"/>
      <path d="M 18.3125 70.21875 
L 18.3125 54.6875 
L 36.8125 54.6875 
L 36.8125 47.703125 
L 18.3125 47.703125 
L 18.3125 18.015625 
Q 18.3125 11.328125 20.140625 9.421875 
Q 21.96875 7.515625 27.59375 7.515625 
L 36.8125 7.515625 
L 36.8125 0 
L 27.59375 0 
Q 17.1875 0 13.234375 3.875 
Q 9.28125 7.765625 9.28125 18.015625 
L 9.28125 47.703125 
L 2.6875 47.703125 
L 2.6875 54.6875 
L 9.28125 54.6875 
L 9.28125 70.21875 
z
" id="DejaVuSans-74"/>
      <path d="M 44.28125 53.078125 
L 44.28125 44.578125 
Q 40.484375 46.53125 36.375 47.5 
Q 32.28125 48.484375 27.875 48.484375 
Q 21.1875 48.484375 17.84375 46.4375 
Q 14.5 44.390625 14.5 40.28125 
Q 14.5 37.15625 16.890625 35.375 
Q 19.28125 33.59375 26.515625 31.984375 
L 29.59375 31.296875 
Q 39.15625 29.25 43.1875 25.515625 
Q 47.21875 21.78125 47.21875 15.09375 
Q 47.21875 7.46875 41.1875 3.015625 
Q 35.15625 -1.421875 24.609375 -1.421875 
Q 20.21875 -1.421875 15.453125 -0.5625 
Q 10.6875 0.296875 5.421875 2 
L 5.421875 11.28125 
Q 10.40625 8.6875 15.234375 7.390625 
Q 20.0625 6.109375 24.8125 6.109375 
Q 31.15625 6.109375 34.5625 8.28125 
Q 37.984375 10.453125 37.984375 14.40625 
Q 37.984375 18.0625 35.515625 20.015625 
Q 33.0625 21.96875 24.703125 23.78125 
L 21.578125 24.515625 
Q 13.234375 26.265625 9.515625 29.90625 
Q 5.8125 33.546875 5.8125 39.890625 
Q 5.8125 47.609375 11.28125 51.796875 
Q 16.75 56 26.8125 56 
Q 31.78125 56 36.171875 55.265625 
Q 40.578125 54.546875 44.28125 53.078125 
z
" id="DejaVuSans-73"/>
     </defs>
     <g transform="translate(88.154312 229.151125)rotate(-90)scale(0.1 -0.1)">
      <use xlink:href="#DejaVuSans-43"/>
      <use x="69.824219" xlink:href="#DejaVuSans-6f"/>
      <use x="131.005859" xlink:href="#DejaVuSans-75"/>
      <use x="194.384766" xlink:href="#DejaVuSans-6e"/>
      <use x="257.763672" xlink:href="#DejaVuSans-74"/>
      <use x="296.972656" xlink:href="#DejaVuSans-73"/>
     </g>
    </g>
   </g>
   <g id="line2d_17">
    <path clip-path="url(#p19d1288efd)" d="M 135.616846 372.399923 
L 136.053447 372.056543 
L 136.926648 372.399923 
L 138.67305 372.399923 
L 139.10965 357.634575 
L 139.546251 353.685703 
L 139.982851 304.238958 
L 140.419452 288.78685 
L 140.856052 292.907412 
L 141.292653 290.160371 
L 141.729253 288.78685 
L 142.165854 271.961221 
L 142.602454 284.322908 
L 143.039055 277.111924 
L 143.475655 273.849812 
L 143.912256 273.506432 
L 144.348856 280.030655 
L 144.785457 279.343895 
L 145.222057 282.434317 
L 145.658658 278.142064 
L 146.095258 276.596854 
L 146.968459 270.24432 
L 147.40506 263.205027 
L 147.84166 259.256155 
L 148.714861 235.734612 
L 150.897864 130.316898 
L 151.334464 127.054786 
L 151.771065 125.509575 
L 152.644266 136.497741 
L 153.080866 158.817453 
L 153.517467 165.169986 
L 153.954067 182.682375 
L 154.390667 185.086036 
L 154.827268 184.399276 
L 155.263868 185.944487 
L 155.700469 202.083355 
L 156.137069 206.203917 
L 156.57367 199.679694 
L 157.01027 207.234058 
L 157.883471 196.589272 
L 158.320072 193.842231 
L 158.756672 195.730822 
L 159.629873 173.75449 
L 160.066474 180.793784 
L 160.503074 177.188292 
L 161.376275 166.200126 
L 162.249476 157.787312 
L 162.686077 162.594635 
L 163.559278 160.706044 
L 163.995878 158.302382 
L 164.432479 165.856746 
L 164.869079 169.977308 
L 165.30568 164.826606 
L 165.74228 164.311536 
L 166.178881 167.230267 
L 166.615481 167.401957 
L 167.052082 177.703362 
L 167.488682 162.766325 
L 167.925283 160.019283 
L 168.361883 165.341676 
L 168.798484 161.049424 
L 169.235084 171.694209 
L 169.671685 160.877734 
L 170.108285 146.799146 
L 170.544886 144.223795 
L 170.981486 149.889568 
L 171.418087 133.063939 
L 171.854687 131.690419 
L 173.164489 115.03648 
L 173.601089 96.32226 
L 174.03769 108.683947 
L 174.910891 78.981561 
L 175.347491 61.297482 
L 175.784092 72.285648 
L 176.220692 54.258189 
L 176.657293 54.086499 
L 177.093893 53.743118 
L 177.530494 50.996077 
L 177.967094 68.851846 
L 178.403695 64.216214 
L 178.840295 78.294801 
L 179.276896 100.957893 
L 179.713496 109.370707 
L 180.150097 144.738865 
L 180.586697 141.133374 
L 181.023298 161.221114 
L 181.459898 191.61026 
L 181.896499 190.580119 
L 182.7697 212.38476 
L 183.2063 231.61405 
L 183.642901 232.129121 
L 184.952702 253.933762 
L 185.389303 252.560241 
L 185.825903 262.174886 
L 186.262504 259.427845 
L 186.699104 261.316436 
L 187.135705 268.184039 
L 187.572305 266.123758 
L 188.008906 279.172205 
L 188.445506 279.687275 
L 188.882107 282.090936 
L 189.318707 277.970374 
L 189.755308 276.425163 
L 190.191908 283.121077 
L 190.628509 278.485445 
L 191.065109 268.8708 
L 191.50171 279.000515 
L 191.93831 283.979527 
L 192.374911 276.940234 
L 192.811511 284.151217 
L 193.248112 286.211499 
L 193.684712 292.392342 
L 194.121313 291.705581 
L 194.557913 291.362201 
L 194.994514 289.6453 
L 195.431114 297.886425 
L 195.867715 296.341214 
L 196.304315 292.564032 
L 196.740916 297.371354 
L 197.177516 292.220652 
L 197.614117 296.512904 
L 198.050717 298.744875 
L 198.487318 291.877271 
L 198.923918 302.350367 
L 199.360519 295.311073 
L 199.797119 301.491916 
L 200.23372 295.826143 
L 200.67032 298.916565 
L 201.106921 299.088255 
L 201.543521 295.826143 
L 201.980122 302.522057 
L 202.416722 297.714734 
L 202.853323 305.269098 
L 203.289923 300.805156 
L 204.163124 304.754028 
L 204.599725 304.925718 
L 205.036325 303.380507 
L 205.472926 300.976846 
L 205.909526 306.814309 
L 206.346127 305.440788 
L 206.782727 305.955859 
L 207.655928 307.50107 
L 208.092529 303.037127 
L 208.529129 303.380507 
L 208.96573 314.025293 
L 209.40233 315.913884 
L 209.838931 314.540363 
L 210.275531 309.904731 
L 210.712132 307.329379 
L 211.148732 311.621632 
L 211.585333 311.278251 
L 212.021933 310.763181 
L 212.458533 306.985999 
L 212.895134 313.166842 
L 213.331734 312.480082 
L 213.768335 315.055433 
L 214.204935 313.166842 
L 214.641536 314.540363 
L 215.078136 312.651772 
L 215.514737 313.338533 
L 215.951337 313.510223 
L 216.387938 320.034446 
L 216.824538 310.591491 
L 217.261139 311.278251 
L 217.697739 311.449942 
L 218.13434 319.519376 
L 218.57094 323.468248 
L 219.007541 315.227124 
L 219.444141 313.681913 
L 220.317342 317.459095 
L 220.753943 311.965012 
L 221.190543 316.085574 
L 221.627144 319.004305 
L 222.063744 317.974165 
L 222.500345 314.883743 
L 222.936945 319.519376 
L 223.373546 314.196983 
L 223.810146 320.892896 
L 224.246747 316.772334 
L 224.683347 321.407967 
L 225.119948 319.519376 
L 225.556548 314.540363 
L 225.993149 316.257264 
L 226.429749 328.10388 
L 226.86635 317.115714 
L 227.30295 319.004305 
L 227.739551 322.266417 
L 228.176151 307.84445 
L 228.612752 322.609797 
L 229.049352 319.175996 
L 229.485953 317.802475 
L 229.922553 323.296558 
L 230.359154 318.317545 
L 230.795754 317.802475 
L 231.232355 317.802475 
L 231.668955 319.004305 
L 232.105556 315.742194 
L 232.542156 314.025293 
L 232.978757 319.004305 
L 233.415357 320.721206 
L 233.851958 318.660925 
L 234.288558 320.377826 
L 234.725159 320.892896 
L 235.161759 317.459095 
L 235.59836 316.600644 
L 236.03496 313.681913 
L 236.471561 318.832615 
L 236.908161 317.974165 
L 237.344762 317.630785 
L 237.781362 307.84445 
L 238.217963 314.540363 
L 238.654563 307.67276 
L 239.091164 306.985999 
L 239.527764 309.21797 
L 239.964365 300.633466 
L 240.400965 304.582338 
L 240.837566 306.299239 
L 241.274166 295.654453 
L 241.710767 304.067268 
L 242.147367 298.573185 
L 242.583968 291.190511 
L 243.020568 297.199664 
L 243.457169 289.98868 
L 243.893769 290.503751 
L 244.33037 292.392342 
L 244.76697 293.079102 
L 245.203571 283.807837 
L 245.640171 282.434317 
L 246.076772 286.726569 
L 246.513372 285.696428 
L 247.386573 278.485445 
L 247.823174 289.81699 
L 248.259774 280.202345 
L 249.132975 279.858965 
L 249.569576 282.262626 
L 250.006176 285.524738 
L 250.442777 279.172205 
L 250.879377 278.485445 
L 251.315978 276.596854 
L 251.752578 279.343895 
L 253.06238 284.151217 
L 253.49898 276.081783 
L 253.935581 280.889106 
L 254.372181 287.069949 
L 255.245382 276.425163 
L 255.681983 286.726569 
L 256.118583 287.928399 
L 256.555184 285.696428 
L 256.991784 286.383189 
L 257.428385 295.654453 
L 257.864985 296.856284 
L 258.301586 298.744875 
L 258.738186 293.422482 
L 259.174787 293.937553 
L 259.611387 296.341214 
L 260.047988 301.148536 
L 260.484588 296.684594 
L 261.79439 310.591491 
L 262.23099 311.621632 
L 262.667591 307.84445 
L 263.104191 308.01614 
L 263.540792 308.53121 
L 263.977392 308.35952 
L 264.413993 309.389661 
L 264.850593 316.772334 
L 265.287194 314.712053 
L 265.723794 314.196983 
L 266.160395 308.53121 
L 266.596995 312.823462 
L 267.033596 306.985999 
L 267.470196 310.248111 
L 268.343397 302.522057 
L 268.779998 303.380507 
L 269.216598 303.380507 
L 269.653199 298.744875 
L 270.089799 301.148536 
L 270.5264 285.353048 
L 270.963 282.262626 
L 271.3996 286.554879 
L 271.836201 285.868118 
L 272.272801 278.657135 
L 272.709402 277.455304 
L 273.582603 268.355729 
L 274.019203 266.295448 
L 274.455804 271.617841 
L 275.329005 257.367564 
L 275.765605 270.41601 
L 276.202206 262.174886 
L 276.638806 267.325589 
L 277.075407 263.033337 
L 277.512007 262.861646 
L 277.948608 264.921928 
L 278.385208 265.093618 
L 278.821809 270.24432 
L 279.258409 269.90094 
L 279.69501 268.184039 
L 280.13161 280.030655 
L 280.568211 275.910093 
L 281.004811 284.666288 
L 281.441412 290.503751 
L 281.878012 285.868118 
L 282.314613 299.603325 
L 282.751213 301.835297 
L 283.187814 306.299239 
L 283.624414 307.329379 
L 284.061015 313.338533 
L 284.497615 315.398814 
L 285.370816 325.356839 
L 285.807417 323.811628 
L 286.244017 334.971484 
L 286.680618 336.001624 
L 287.990419 349.736831 
L 288.42702 350.938662 
L 288.86362 349.393451 
L 289.300221 353.857393 
L 290.610022 362.956968 
L 291.046623 363.300348 
L 291.483223 362.613588 
L 291.919824 361.411757 
L 292.356424 364.673869 
L 292.793025 364.158799 
L 293.229625 365.8757 
L 293.666226 368.451051 
L 294.102826 367.24922 
L 294.539427 368.622741 
L 294.976027 367.420911 
L 295.412628 368.451051 
L 295.849228 368.794431 
L 296.285829 369.824572 
L 296.722429 368.622741 
L 297.15903 370.167952 
L 298.032231 369.309501 
L 298.468831 370.511332 
L 299.342032 368.622741 
L 299.778633 370.683022 
L 300.215233 370.854712 
L 300.651834 370.511332 
L 301.088434 370.683022 
L 301.525035 371.026402 
L 301.961635 370.854712 
L 302.398236 371.198092 
L 302.834836 370.854712 
L 303.271437 371.369783 
L 303.708037 370.683022 
L 304.144638 370.339642 
L 304.581238 371.026402 
L 305.017839 370.854712 
L 305.454439 371.198092 
L 305.89104 370.683022 
L 306.32764 371.026402 
L 306.764241 372.056543 
L 307.200841 371.884853 
L 307.637442 371.541473 
L 308.074042 371.884853 
L 308.947243 371.884853 
L 309.383844 371.369783 
L 309.820444 371.198092 
L 310.257045 371.541473 
L 310.693645 370.854712 
L 311.566846 371.713163 
L 312.003447 371.026402 
L 312.440047 371.884853 
L 312.876648 370.683022 
L 313.313248 372.056543 
L 313.749849 371.369783 
L 314.62305 372.056543 
L 315.05965 371.884853 
L 315.496251 371.026402 
L 315.932851 371.198092 
L 316.369452 371.713163 
L 316.806052 371.713163 
L 317.242653 371.369783 
L 317.679253 371.541473 
L 318.115854 370.683022 
L 318.552454 371.884853 
L 318.989055 370.854712 
L 319.425655 371.884853 
L 319.862256 371.369783 
L 320.298856 371.541473 
L 320.735457 371.198092 
L 321.608658 371.884853 
L 322.045258 371.369783 
L 322.481859 371.713163 
L 322.918459 370.854712 
L 324.228261 371.369783 
L 324.664861 371.884853 
L 325.101462 371.198092 
L 325.538062 372.056543 
L 325.974663 371.369783 
L 326.411263 371.884853 
L 326.847864 371.369783 
L 327.284464 372.399923 
L 327.721065 372.056543 
L 328.157665 370.854712 
L 328.594266 372.056543 
L 329.030866 371.541473 
L 329.467467 371.713163 
L 329.904067 370.683022 
L 330.340667 371.713163 
L 330.777268 371.198092 
L 331.213868 371.713163 
L 332.087069 371.026402 
L 332.52367 371.713163 
L 332.96027 371.884853 
L 333.396871 371.369783 
L 333.833471 371.369783 
L 334.270072 372.056543 
L 334.706672 371.713163 
L 335.143273 370.854712 
L 335.579873 371.713163 
L 336.016474 371.198092 
L 336.453074 371.198092 
L 337.326275 372.056543 
L 338.199476 371.713163 
L 338.636077 371.198092 
L 339.072677 372.056543 
L 339.509278 371.884853 
L 339.945878 371.541473 
L 340.382479 371.713163 
L 340.819079 371.369783 
L 341.25568 372.056543 
L 341.69228 371.369783 
L 342.128881 371.884853 
L 342.565481 371.713163 
L 343.002082 371.369783 
L 343.438682 371.198092 
L 343.875283 372.228233 
L 344.311883 371.198092 
L 345.185084 372.056543 
L 345.621685 371.713163 
L 346.494886 372.056543 
L 346.931486 371.541473 
L 347.368087 371.884853 
L 347.804687 371.198092 
L 348.241288 371.026402 
L 348.677888 371.884853 
L 349.114489 371.026402 
L 349.551089 371.369783 
L 349.98769 371.884853 
L 350.42429 371.369783 
L 350.860891 371.713163 
L 351.297491 371.541473 
L 351.734092 372.056543 
L 352.170692 371.198092 
L 352.607293 371.884853 
L 353.043893 371.713163 
L 353.480494 371.369783 
L 353.917094 371.198092 
L 354.353695 370.854712 
L 354.790295 371.884853 
L 355.226896 371.713163 
L 355.663496 371.884853 
L 356.100097 372.228233 
L 356.536697 371.713163 
L 356.973298 371.713163 
L 357.409898 371.884853 
L 357.846499 371.884853 
L 358.283099 371.713163 
L 358.7197 371.713163 
L 359.1563 371.884853 
L 359.592901 371.713163 
L 360.029501 371.369783 
L 360.466102 371.541473 
L 360.902702 371.369783 
L 361.339303 371.541473 
L 361.775903 371.541473 
L 362.212504 371.369783 
L 363.085705 372.056543 
L 363.522305 372.228233 
L 363.958906 371.369783 
L 364.395506 371.369783 
L 364.832107 371.713163 
L 365.268707 371.026402 
L 365.705308 371.713163 
L 366.141908 371.713163 
L 366.578509 371.884853 
L 367.015109 371.713163 
L 367.45171 371.369783 
L 367.88831 372.056543 
L 368.324911 372.228233 
L 368.761511 371.713163 
L 369.198112 371.541473 
L 369.634712 372.399923 
L 370.507913 371.713163 
L 370.944514 372.056543 
L 371.381114 371.369783 
L 371.817715 371.713163 
L 372.254315 372.228233 
L 372.690916 372.056543 
L 373.564117 371.369783 
L 374.000717 371.713163 
L 374.437318 371.369783 
L 374.873918 371.713163 
L 375.310519 371.713163 
L 375.747119 371.541473 
L 376.18372 371.884853 
L 376.62032 371.884853 
L 377.056921 371.541473 
L 377.493521 371.026402 
L 377.930122 372.056543 
L 378.366722 371.884853 
L 378.803323 371.884853 
L 379.239923 372.399923 
L 379.676524 371.026402 
L 380.113124 372.056543 
L 380.549725 371.541473 
L 380.986325 371.541473 
L 381.422926 372.056543 
L 381.859526 371.884853 
L 382.296127 371.884853 
L 382.732727 371.541473 
L 383.169328 371.369783 
L 384.042529 372.399923 
L 384.479129 372.056543 
L 384.91573 372.056543 
L 385.35233 371.884853 
L 385.788931 372.399923 
L 386.225531 371.884853 
L 386.662132 372.056543 
L 387.098732 371.369783 
L 387.535333 372.056543 
L 387.971933 371.884853 
L 388.408533 371.884853 
L 388.845134 372.399923 
L 389.281734 371.713163 
L 389.718335 371.541473 
L 390.154935 371.713163 
L 390.591536 371.713163 
L 391.028136 371.369783 
L 391.464737 371.369783 
L 391.901337 372.056543 
L 392.337938 371.713163 
L 392.774538 371.026402 
L 393.211139 371.198092 
L 393.647739 372.056543 
L 394.52094 371.369783 
L 394.957541 372.056543 
L 395.394141 371.541473 
L 395.830742 372.056543 
L 396.267342 371.541473 
L 396.703943 371.884853 
L 397.140543 371.026402 
L 397.577144 371.713163 
L 398.450345 372.056543 
L 398.886945 371.884853 
L 399.323546 371.884853 
L 399.760146 372.056543 
L 400.196747 371.884853 
L 400.633347 371.884853 
L 401.069948 372.056543 
L 401.506548 372.056543 
L 401.943149 372.228233 
L 402.379749 371.884853 
L 402.81635 372.228233 
L 403.25295 371.541473 
L 404.126151 371.884853 
L 404.562752 371.884853 
L 404.999352 372.228233 
L 405.435953 371.713163 
L 405.872553 372.056543 
L 406.309154 372.056543 
L 406.745754 371.884853 
L 407.182355 372.228233 
L 407.618955 371.884853 
L 408.055556 371.884853 
L 408.492156 372.056543 
L 408.928757 372.056543 
L 409.365357 371.026402 
L 409.801958 372.228233 
L 410.238558 372.399923 
L 410.675159 371.713163 
L 411.111759 372.056543 
L 411.98496 372.056543 
L 412.421561 371.713163 
L 412.858161 372.228233 
L 413.294762 371.713163 
L 413.731362 371.884853 
L 414.167963 371.713163 
L 414.604563 372.399923 
L 415.041164 372.056543 
L 415.477764 372.056543 
L 415.914365 371.884853 
L 416.350965 372.056543 
L 416.787566 371.713163 
L 417.224166 371.541473 
L 417.660767 372.056543 
L 418.533968 371.713163 
L 418.970568 371.884853 
L 419.407169 371.541473 
L 419.843769 372.399923 
L 420.28037 372.056543 
L 421.153571 371.198092 
L 422.026772 372.228233 
L 422.463372 371.884853 
L 422.899973 371.884853 
L 423.336573 372.399923 
L 423.773174 372.228233 
L 424.209774 371.541473 
L 424.646375 371.541473 
L 425.082975 371.884853 
L 425.519576 372.399923 
L 425.956176 371.884853 
L 426.392777 371.884853 
L 426.829377 372.399923 
L 427.265978 371.713163 
L 427.702578 372.056543 
L 428.139179 371.713163 
L 428.575779 371.713163 
L 429.01238 371.884853 
L 429.44898 371.541473 
L 429.885581 371.713163 
L 430.322181 371.541473 
L 430.758782 372.228233 
L 431.195382 371.884853 
L 431.631983 372.056543 
L 432.068583 371.713163 
L 432.505184 371.713163 
L 432.941784 372.399923 
L 433.378385 372.399923 
L 433.814985 371.541473 
L 434.251586 372.056543 
L 434.688186 372.056543 
L 435.124787 371.713163 
L 435.561387 372.399923 
L 435.997988 372.228233 
L 436.434588 371.713163 
L 436.871189 371.884853 
L 437.307789 371.884853 
L 437.74439 372.228233 
L 438.18099 372.056543 
L 438.617591 372.399923 
L 439.054191 372.228233 
L 439.490792 371.713163 
L 439.927392 372.056543 
L 440.363993 371.884853 
L 440.800593 372.399923 
L 441.673794 372.056543 
L 442.546995 372.056543 
L 442.983596 371.713163 
L 443.420196 372.399923 
L 443.856797 372.228233 
L 444.293397 371.713163 
L 444.729998 372.056543 
L 445.166598 371.713163 
L 445.603199 371.884853 
L 446.039799 372.228233 
L 446.4764 372.056543 
L 446.913 372.399923 
L 447.3496 372.228233 
L 448.222801 372.228233 
L 448.659402 372.056543 
L 449.096002 371.541473 
L 449.532603 372.228233 
L 450.405804 372.228233 
L 450.842404 372.056543 
L 451.279005 372.228233 
L 453.462007 372.228233 
L 454.335208 371.884853 
L 454.771809 372.399923 
L 455.208409 372.056543 
L 455.64501 372.399923 
L 456.518211 372.056543 
L 456.954811 372.228233 
L 457.391412 371.884853 
L 457.828012 372.399923 
L 458.264613 372.056543 
L 459.137814 372.399923 
L 459.574414 372.399923 
L 460.011015 372.228233 
L 460.447615 372.399923 
L 461.320816 372.056543 
L 461.757417 372.056543 
L 462.194017 372.399923 
L 462.630618 371.713163 
L 463.067218 371.713163 
L 463.503819 372.399923 
L 463.940419 372.228233 
L 464.37702 371.884853 
L 464.81362 372.056543 
L 465.250221 372.056543 
L 465.686821 372.228233 
L 466.560022 372.228233 
L 466.996623 372.056543 
L 467.869824 372.399923 
L 468.306424 372.228233 
L 469.616226 372.228233 
L 470.052826 371.884853 
L 470.489427 371.884853 
L 470.926027 372.399923 
L 471.362628 372.399923 
L 471.799228 371.541473 
L 472.235829 371.713163 
L 472.672429 372.228233 
L 473.10903 372.056543 
L 473.54563 372.228233 
L 473.982231 371.884853 
L 474.418831 372.228233 
L 474.855432 372.056543 
L 475.292032 371.713163 
L 476.165233 372.056543 
L 476.601834 371.713163 
L 477.038434 371.713163 
L 477.475035 371.198092 
L 477.911635 372.056543 
L 478.348236 372.228233 
L 478.784836 371.884853 
L 479.221437 371.713163 
L 479.658037 372.228233 
L 480.094638 371.541473 
L 480.531238 371.713163 
L 480.967839 372.056543 
L 481.404439 372.056543 
L 481.84104 372.228233 
L 482.27764 371.026402 
L 482.714241 371.884853 
L 483.150841 372.056543 
L 483.587442 371.198092 
L 484.024042 371.884853 
L 484.460643 371.369783 
L 484.897243 372.056543 
L 485.333844 371.713163 
L 485.770444 371.198092 
L 486.207045 371.026402 
L 486.643645 372.056543 
L 487.080246 371.026402 
L 487.516846 372.056543 
L 487.953447 371.713163 
L 488.390047 371.713163 
L 489.263248 372.056543 
L 489.699849 371.884853 
L 490.136449 371.369783 
L 490.57305 371.884853 
L 491.00965 371.541473 
L 491.446251 371.541473 
L 491.882851 371.884853 
L 492.319452 371.198092 
L 492.756052 372.056543 
L 493.192653 372.056543 
L 494.065854 371.713163 
L 494.502454 371.713163 
L 494.939055 372.056543 
L 495.375655 371.884853 
L 495.812256 371.369783 
L 496.248856 371.198092 
L 497.122057 372.056543 
L 497.558658 372.399923 
L 497.995258 372.228233 
L 498.431859 371.884853 
L 498.868459 372.056543 
L 499.30506 371.884853 
L 499.74166 372.399923 
L 500.178261 372.228233 
L 500.614861 372.399923 
L 501.051462 372.228233 
L 501.488062 371.884853 
L 501.924663 372.228233 
L 502.361263 371.884853 
L 502.797864 372.056543 
L 503.671065 372.056543 
L 504.107665 372.399923 
L 504.544266 372.228233 
L 504.980866 372.399923 
L 505.417467 372.056543 
L 505.854067 372.399923 
L 506.290667 372.399923 
L 506.727268 372.056543 
L 507.600469 372.399923 
L 508.037069 372.228233 
L 508.47367 371.884853 
L 508.91027 372.399923 
L 509.346871 372.056543 
L 510.220072 372.399923 
L 511.093273 372.056543 
L 511.529873 372.228233 
L 511.966474 371.884853 
L 512.403074 372.399923 
L 512.839675 372.399923 
L 513.712876 372.056543 
L 514.149476 372.399923 
L 515.459278 372.399923 
L 515.895878 372.228233 
L 516.332479 372.399923 
L 516.769079 372.228233 
L 517.20568 372.399923 
L 517.64228 372.228233 
L 518.078881 372.399923 
L 518.515481 372.056543 
L 518.952082 372.399923 
L 521.571685 372.399923 
L 522.008285 372.228233 
L 522.444886 372.399923 
L 522.881486 372.228233 
L 523.318087 372.399923 
L 525.064489 372.399923 
L 525.501089 372.228233 
L 526.37429 372.228233 
L 526.810891 372.399923 
L 528.120692 372.399923 
L 528.557293 372.228233 
L 529.430494 372.228233 
L 529.867094 372.399923 
L 530.740295 372.399923 
L 531.176896 372.228233 
L 531.613496 372.399923 
L 532.050097 372.228233 
L 532.486697 372.399923 
L 532.923298 372.228233 
L 533.359898 372.399923 
L 534.6697 372.399923 
L 535.1063 372.228233 
L 535.979501 372.228233 
L 536.416102 372.399923 
L 536.852702 372.228233 
L 537.289303 372.399923 
L 537.725903 372.399923 
L 538.162504 372.228233 
L 538.599104 372.399923 
L 539.035705 372.228233 
L 539.472305 372.399923 
L 539.908906 372.228233 
L 540.345506 372.399923 
L 540.782107 372.399923 
L 541.218707 372.228233 
L 541.655308 372.399923 
L 542.091908 372.228233 
L 542.528509 372.399923 
L 542.965109 372.228233 
L 543.40171 372.399923 
L 543.83831 372.228233 
L 544.274911 372.399923 
L 544.711511 372.228233 
L 545.148112 372.399923 
L 545.584712 372.399923 
L 546.021313 372.228233 
L 546.457913 372.228233 
L 546.894514 372.399923 
L 548.640916 372.399923 
L 549.077516 372.228233 
L 549.514117 372.399923 
L 549.950717 371.713163 
L 550.387318 372.228233 
L 551.260519 372.228233 
L 551.697119 372.399923 
L 553.006921 372.399923 
L 553.443521 372.228233 
L 553.880122 372.228233 
L 554.316722 372.399923 
L 554.753323 372.228233 
L 555.189923 372.228233 
L 555.626524 372.399923 
L 556.936325 372.399923 
L 557.372926 372.228233 
L 557.809526 372.399923 
L 559.555928 372.399923 
L 559.992529 372.228233 
L 560.429129 372.399923 
L 561.738931 372.399923 
L 562.175531 372.228233 
L 562.612132 372.399923 
L 563.048732 372.228233 
L 563.485333 372.228233 
L 563.921933 372.399923 
L 564.795134 372.399923 
L 565.231734 372.228233 
L 565.668335 372.399923 
L 566.104935 372.399923 
L 566.541536 372.228233 
L 566.978136 372.228233 
L 567.414737 372.399923 
L 568.724538 372.399923 
L 569.161139 372.056543 
L 569.597739 372.056543 
L 570.03434 372.399923 
L 570.47094 372.228233 
L 570.907541 372.399923 
L 571.780742 372.399923 
L 572.217342 372.056543 
L 572.653943 372.228233 
L 573.963744 372.228233 
L 574.400345 372.399923 
L 574.836945 372.399923 
L 575.273546 371.884853 
L 575.710146 372.228233 
L 576.146747 372.399923 
L 576.583347 372.228233 
L 577.456548 372.228233 
L 577.893149 372.399923 
L 578.329749 372.228233 
L 578.76635 372.399923 
L 580.949352 372.399923 
L 581.385953 372.228233 
L 581.822553 372.399923 
L 582.259154 372.399923 
L 582.259154 372.399923 
" style="fill:none;stroke:#1f77b4;stroke-linecap:square;stroke-width:1.5;"/>
   </g>
   <g id="line2d_18">
    <path clip-path="url(#p19d1288efd)" d="M 135.616846 350.44141 
L 173.601089 350.645182 
L 189.318707 350.932776 
L 200.23372 351.344576 
L 216.824538 352.098383 
L 219.007541 351.9117 
L 220.753943 351.580553 
L 222.500345 351.018551 
L 223.810146 350.399568 
L 225.119948 349.571258 
L 226.429749 348.495396 
L 227.739551 347.133543 
L 229.049352 345.449309 
L 230.359154 343.411107 
L 231.668955 340.995312 
L 232.978757 338.189642 
L 234.725159 333.848989 
L 236.471561 328.877649 
L 238.654563 321.967936 
L 244.33037 303.481887 
L 246.076772 298.834344 
L 247.386573 296.025298 
L 248.259774 294.541608 
L 249.132975 293.403978 
L 250.006176 292.636311 
L 250.879377 292.256435 
L 251.752578 292.275577 
L 252.625779 292.698027 
L 253.49898 293.521008 
L 254.372181 294.734741 
L 255.245382 296.322723 
L 256.555184 299.355071 
L 257.864985 303.077272 
L 259.611387 308.900526 
L 261.79439 317.09885 
L 267.033596 337.308521 
L 269.216598 344.679666 
L 270.963 349.816903 
L 272.709402 354.218118 
L 274.455804 357.886826 
L 275.765605 360.184044 
L 277.075407 362.124792 
L 278.385208 363.745035 
L 279.69501 365.083484 
L 281.441412 366.497058 
L 283.187814 367.566741 
L 284.934216 368.370609 
L 287.117218 369.100553 
L 289.736821 369.701722 
L 293.229625 370.224337 
L 298.032231 370.677864 
L 305.017839 371.094474 
L 315.05965 371.454814 
L 329.030866 371.712849 
L 351.734092 371.878672 
L 409.365357 372.005418 
L 582.259154 372.260753 
L 582.259154 372.260753 
" style="fill:none;stroke:#ff7f0e;stroke-linecap:square;stroke-width:1.5;"/>
   </g>
   <g id="line2d_19">
    <path clip-path="url(#p19d1288efd)" d="M 135.616846 360.151537 
L 238.654563 360.258488 
L 248.259774 360.489514 
L 254.372181 360.842005 
L 259.174787 361.337665 
L 263.104191 361.958272 
L 266.596995 362.715649 
L 270.089799 363.683133 
L 274.455804 365.150287 
L 285.370816 369.002675 
L 288.86362 369.943725 
L 292.356424 370.674905 
L 296.285829 371.270479 
L 300.651834 371.710045 
L 306.32764 372.044337 
L 314.186449 372.260894 
L 327.721065 372.372932 
L 370.507913 372.399775 
L 582.259154 372.399923 
L 582.259154 372.399923 
" style="fill:none;stroke:#2ca02c;stroke-linecap:square;stroke-width:1.5;"/>
   </g>
   <g id="line2d_20">
    <path clip-path="url(#p19d1288efd)" d="M 135.616846 372.399923 
L 256.118583 372.292706 
L 257.864985 372.089547 
L 259.174787 371.750813 
L 260.047988 371.367971 
L 260.921189 370.796023 
L 261.79439 369.962834 
L 262.667591 368.779646 
L 263.540792 367.142308 
L 264.413993 364.935227 
L 265.287194 362.038678 
L 266.160395 358.33983 
L 267.033596 353.747258 
L 267.906797 348.208021 
L 269.216598 338.151189 
L 270.963 322.100684 
L 274.019203 293.128951 
L 274.892404 286.606338 
L 275.765605 281.623745 
L 276.202206 279.813652 
L 276.638806 278.499963 
L 277.075407 277.704644 
L 277.512007 277.441092 
L 277.948608 277.713764 
L 278.385208 278.518049 
L 278.821809 279.8404 
L 279.69501 283.942933 
L 280.568211 289.75434 
L 281.878012 300.862762 
L 286.244017 341.784588 
L 287.553819 351.144422 
L 288.42702 356.198738 
L 289.300221 360.327383 
L 290.173422 363.605103 
L 291.046623 366.136212 
L 291.919824 368.038654 
L 292.793025 369.431194 
L 293.666226 370.424298 
L 294.539427 371.114592 
L 295.412628 371.582396 
L 296.722429 372.002445 
L 298.468831 372.25953 
L 301.088434 372.375051 
L 309.820444 372.399905 
L 582.259154 372.399923 
L 582.259154 372.399923 
" style="fill:none;stroke:#d62728;stroke-linecap:square;stroke-width:1.5;"/>
   </g>
   <g id="patch_3">
    <path d="M 126.684 378.828 
L 126.684 44.568 
" style="fill:none;stroke:#000000;stroke-linecap:square;stroke-linejoin:miter;stroke-width:0.8;"/>
   </g>
   <g id="patch_4">
    <path d="M 591.192 378.828 
L 591.192 44.568 
" style="fill:none;stroke:#000000;stroke-linecap:square;stroke-linejoin:miter;stroke-width:0.8;"/>
   </g>
   <g id="patch_5">
    <path d="M 126.684 378.828 
L 591.192 378.828 
" style="fill:none;stroke:#000000;stroke-linecap:square;stroke-linejoin:miter;stroke-width:0.8;"/>
   </g>
   <g id="patch_6">
    <path d="M 126.684 44.568 
L 591.192 44.568 
" style="fill:none;stroke:#000000;stroke-linecap:square;stroke-linejoin:miter;stroke-width:0.8;"/>
   </g>
   <g id="text_19">
    <!--  -->
    <g transform="translate(823.446 22.92455)scale(0.08 -0.08)"/>
    <!-- Plot created Fri Apr  5 17:46:12 2019 -->
    <defs>
     <path d="M 19.671875 64.796875 
L 19.671875 37.40625 
L 32.078125 37.40625 
Q 38.96875 37.40625 42.71875 40.96875 
Q 46.484375 44.53125 46.484375 51.125 
Q 46.484375 57.671875 42.71875 61.234375 
Q 38.96875 64.796875 32.078125 64.796875 
z
M 9.8125 72.90625 
L 32.078125 72.90625 
Q 44.34375 72.90625 50.609375 67.359375 
Q 56.890625 61.8125 56.890625 51.125 
Q 56.890625 40.328125 50.609375 34.8125 
Q 44.34375 29.296875 32.078125 29.296875 
L 19.671875 29.296875 
L 19.671875 0 
L 9.8125 0 
z
" id="DejaVuSans-50"/>
     <path d="M 9.421875 75.984375 
L 18.40625 75.984375 
L 18.40625 0 
L 9.421875 0 
z
" id="DejaVuSans-6c"/>
     <path id="DejaVuSans-20"/>
     <path d="M 48.78125 52.59375 
L 48.78125 44.1875 
Q 44.96875 46.296875 41.140625 47.34375 
Q 37.3125 48.390625 33.40625 48.390625 
Q 24.65625 48.390625 19.8125 42.84375 
Q 14.984375 37.3125 14.984375 27.296875 
Q 14.984375 17.28125 19.8125 11.734375 
Q 24.65625 6.203125 33.40625 6.203125 
Q 37.3125 6.203125 41.140625 7.25 
Q 44.96875 8.296875 48.78125 10.40625 
L 48.78125 2.09375 
Q 45.015625 0.34375 40.984375 -0.53125 
Q 36.96875 -1.421875 32.421875 -1.421875 
Q 20.0625 -1.421875 12.78125 6.34375 
Q 5.515625 14.109375 5.515625 27.296875 
Q 5.515625 40.671875 12.859375 48.328125 
Q 20.21875 56 33.015625 56 
Q 37.15625 56 41.109375 55.140625 
Q 45.0625 54.296875 48.78125 52.59375 
z
" id="DejaVuSans-63"/>
     <path d="M 41.109375 46.296875 
Q 39.59375 47.171875 37.8125 47.578125 
Q 36.03125 48 33.890625 48 
Q 26.265625 48 22.1875 43.046875 
Q 18.109375 38.09375 18.109375 28.8125 
L 18.109375 0 
L 9.078125 0 
L 9.078125 54.6875 
L 18.109375 54.6875 
L 18.109375 46.1875 
Q 20.953125 51.171875 25.484375 53.578125 
Q 30.03125 56 36.53125 56 
Q 37.453125 56 38.578125 55.875 
Q 39.703125 55.765625 41.0625 55.515625 
z
" id="DejaVuSans-72"/>
     <path d="M 56.203125 29.59375 
L 56.203125 25.203125 
L 14.890625 25.203125 
Q 15.484375 15.921875 20.484375 11.0625 
Q 25.484375 6.203125 34.421875 6.203125 
Q 39.59375 6.203125 44.453125 7.46875 
Q 49.3125 8.734375 54.109375 11.28125 
L 54.109375 2.78125 
Q 49.265625 0.734375 44.1875 -0.34375 
Q 39.109375 -1.421875 33.890625 -1.421875 
Q 20.796875 -1.421875 13.15625 6.1875 
Q 5.515625 13.8125 5.515625 26.8125 
Q 5.515625 40.234375 12.765625 48.109375 
Q 20.015625 56 32.328125 56 
Q 43.359375 56 49.78125 48.890625 
Q 56.203125 41.796875 56.203125 29.59375 
z
M 47.21875 32.234375 
Q 47.125 39.59375 43.09375 43.984375 
Q 39.0625 48.390625 32.421875 48.390625 
Q 24.90625 48.390625 20.390625 44.140625 
Q 15.875 39.890625 15.1875 32.171875 
z
" id="DejaVuSans-65"/>
     <path d="M 34.28125 27.484375 
Q 23.390625 27.484375 19.1875 25 
Q 14.984375 22.515625 14.984375 16.5 
Q 14.984375 11.71875 18.140625 8.90625 
Q 21.296875 6.109375 26.703125 6.109375 
Q 34.1875 6.109375 38.703125 11.40625 
Q 43.21875 16.703125 43.21875 25.484375 
L 43.21875 27.484375 
z
M 52.203125 31.203125 
L 52.203125 0 
L 43.21875 0 
L 43.21875 8.296875 
Q 40.140625 3.328125 35.546875 0.953125 
Q 30.953125 -1.421875 24.3125 -1.421875 
Q 15.921875 -1.421875 10.953125 3.296875 
Q 6 8.015625 6 15.921875 
Q 6 25.140625 12.171875 29.828125 
Q 18.359375 34.515625 30.609375 34.515625 
L 43.21875 34.515625 
L 43.21875 35.40625 
Q 43.21875 41.609375 39.140625 45 
Q 35.0625 48.390625 27.6875 48.390625 
Q 23 48.390625 18.546875 47.265625 
Q 14.109375 46.140625 10.015625 43.890625 
L 10.015625 52.203125 
Q 14.9375 54.109375 19.578125 55.046875 
Q 24.21875 56 28.609375 56 
Q 40.484375 56 46.34375 49.84375 
Q 52.203125 43.703125 52.203125 31.203125 
z
" id="DejaVuSans-61"/>
     <path d="M 45.40625 46.390625 
L 45.40625 75.984375 
L 54.390625 75.984375 
L 54.390625 0 
L 45.40625 0 
L 45.40625 8.203125 
Q 42.578125 3.328125 38.25 0.953125 
Q 33.9375 -1.421875 27.875 -1.421875 
Q 17.96875 -1.421875 11.734375 6.484375 
Q 5.515625 14.40625 5.515625 27.296875 
Q 5.515625 40.1875 11.734375 48.09375 
Q 17.96875 56 27.875 56 
Q 33.9375 56 38.25 53.625 
Q 42.578125 51.265625 45.40625 46.390625 
z
M 14.796875 27.296875 
Q 14.796875 17.390625 18.875 11.75 
Q 22.953125 6.109375 30.078125 6.109375 
Q 37.203125 6.109375 41.296875 11.75 
Q 45.40625 17.390625 45.40625 27.296875 
Q 45.40625 37.203125 41.296875 42.84375 
Q 37.203125 48.484375 30.078125 48.484375 
Q 22.953125 48.484375 18.875 42.84375 
Q 14.796875 37.203125 14.796875 27.296875 
z
" id="DejaVuSans-64"/>
     <path d="M 9.8125 72.90625 
L 51.703125 72.90625 
L 51.703125 64.59375 
L 19.671875 64.59375 
L 19.671875 43.109375 
L 48.578125 43.109375 
L 48.578125 34.8125 
L 19.671875 34.8125 
L 19.671875 0 
L 9.8125 0 
z
" id="DejaVuSans-46"/>
     <path d="M 34.1875 63.1875 
L 20.796875 26.90625 
L 47.609375 26.90625 
z
M 28.609375 72.90625 
L 39.796875 72.90625 
L 67.578125 0 
L 57.328125 0 
L 50.6875 18.703125 
L 17.828125 18.703125 
L 11.1875 0 
L 0.78125 0 
z
" id="DejaVuSans-41"/>
     <path d="M 18.109375 8.203125 
L 18.109375 -20.796875 
L 9.078125 -20.796875 
L 9.078125 54.6875 
L 18.109375 54.6875 
L 18.109375 46.390625 
Q 20.953125 51.265625 25.265625 53.625 
Q 29.59375 56 35.59375 56 
Q 45.5625 56 51.78125 48.09375 
Q 58.015625 40.1875 58.015625 27.296875 
Q 58.015625 14.40625 51.78125 6.484375 
Q 45.5625 -1.421875 35.59375 -1.421875 
Q 29.59375 -1.421875 25.265625 0.953125 
Q 20.953125 3.328125 18.109375 8.203125 
z
M 48.6875 27.296875 
Q 48.6875 37.203125 44.609375 42.84375 
Q 40.53125 48.484375 33.40625 48.484375 
Q 26.265625 48.484375 22.1875 42.84375 
Q 18.109375 37.203125 18.109375 27.296875 
Q 18.109375 17.390625 22.1875 11.75 
Q 26.265625 6.109375 33.40625 6.109375 
Q 40.53125 6.109375 44.609375 11.75 
Q 48.6875 17.390625 48.6875 27.296875 
z
" id="DejaVuSans-70"/>
     <path d="M 11.71875 12.40625 
L 22.015625 12.40625 
L 22.015625 0 
L 11.71875 0 
z
M 11.71875 51.703125 
L 22.015625 51.703125 
L 22.015625 39.3125 
L 11.71875 39.3125 
z
" id="DejaVuSans-3a"/>
     <path d="M 37.796875 64.3125 
L 12.890625 25.390625 
L 37.796875 25.390625 
z
M 35.203125 72.90625 
L 47.609375 72.90625 
L 47.609375 25.390625 
L 58.015625 25.390625 
L 58.015625 17.1875 
L 47.609375 17.1875 
L 47.609375 0 
L 37.796875 0 
L 37.796875 17.1875 
L 4.890625 17.1875 
L 4.890625 26.703125 
z
" id="DejaVuSans-34"/>
     <path d="M 33.015625 40.375 
Q 26.375 40.375 22.484375 35.828125 
Q 18.609375 31.296875 18.609375 23.390625 
Q 18.609375 15.53125 22.484375 10.953125 
Q 26.375 6.390625 33.015625 6.390625 
Q 39.65625 6.390625 43.53125 10.953125 
Q 47.40625 15.53125 47.40625 23.390625 
Q 47.40625 31.296875 43.53125 35.828125 
Q 39.65625 40.375 33.015625 40.375 
z
M 52.59375 71.296875 
L 52.59375 62.3125 
Q 48.875 64.0625 45.09375 64.984375 
Q 41.3125 65.921875 37.59375 65.921875 
Q 27.828125 65.921875 22.671875 59.328125 
Q 17.53125 52.734375 16.796875 39.40625 
Q 19.671875 43.65625 24.015625 45.921875 
Q 28.375 48.1875 33.59375 48.1875 
Q 44.578125 48.1875 50.953125 41.515625 
Q 57.328125 34.859375 57.328125 23.390625 
Q 57.328125 12.15625 50.6875 5.359375 
Q 44.046875 -1.421875 33.015625 -1.421875 
Q 20.359375 -1.421875 13.671875 8.265625 
Q 6.984375 17.96875 6.984375 36.375 
Q 6.984375 53.65625 15.1875 63.9375 
Q 23.390625 74.21875 37.203125 74.21875 
Q 40.921875 74.21875 44.703125 73.484375 
Q 48.484375 72.75 52.59375 71.296875 
z
" id="DejaVuSans-36"/>
     <path d="M 10.984375 1.515625 
L 10.984375 10.5 
Q 14.703125 8.734375 18.5 7.8125 
Q 22.3125 6.890625 25.984375 6.890625 
Q 35.75 6.890625 40.890625 13.453125 
Q 46.046875 20.015625 46.78125 33.40625 
Q 43.953125 29.203125 39.59375 26.953125 
Q 35.25 24.703125 29.984375 24.703125 
Q 19.046875 24.703125 12.671875 31.3125 
Q 6.296875 37.9375 6.296875 49.421875 
Q 6.296875 60.640625 12.9375 67.421875 
Q 19.578125 74.21875 30.609375 74.21875 
Q 43.265625 74.21875 49.921875 64.515625 
Q 56.59375 54.828125 56.59375 36.375 
Q 56.59375 19.140625 48.40625 8.859375 
Q 40.234375 -1.421875 26.421875 -1.421875 
Q 22.703125 -1.421875 18.890625 -0.6875 
Q 15.09375 0.046875 10.984375 1.515625 
z
M 30.609375 32.421875 
Q 37.25 32.421875 41.125 36.953125 
Q 45.015625 41.5 45.015625 49.421875 
Q 45.015625 57.28125 41.125 61.84375 
Q 37.25 66.40625 30.609375 66.40625 
Q 23.96875 66.40625 20.09375 61.84375 
Q 16.21875 57.28125 16.21875 49.421875 
Q 16.21875 41.5 20.09375 36.953125 
Q 23.96875 32.421875 30.609375 32.421875 
z
" id="DejaVuSans-39"/>
    </defs>
    <g transform="translate(674.59975 31.8828)scale(0.08 -0.08)">
     <use xlink:href="#DejaVuSans-50"/>
     <use x="60.302734" xlink:href="#DejaVuSans-6c"/>
     <use x="88.085938" xlink:href="#DejaVuSans-6f"/>
     <use x="149.267578" xlink:href="#DejaVuSans-74"/>
     <use x="188.476562" xlink:href="#DejaVuSans-20"/>
     <use x="220.263672" xlink:href="#DejaVuSans-63"/>
     <use x="275.244141" xlink:href="#DejaVuSans-72"/>
     <use x="316.326172" xlink:href="#DejaVuSans-65"/>
     <use x="377.849609" xlink:href="#DejaVuSans-61"/>
     <use x="439.128906" xlink:href="#DejaVuSans-74"/>
     <use x="478.337891" xlink:href="#DejaVuSans-65"/>
     <use x="539.861328" xlink:href="#DejaVuSans-64"/>
     <use x="603.337891" xlink:href="#DejaVuSans-20"/>
     <use x="635.125" xlink:href="#DejaVuSans-46"/>
     <use x="692.535156" xlink:href="#DejaVuSans-72"/>
     <use x="733.648438" xlink:href="#DejaVuSans-69"/>
     <use x="761.431641" xlink:href="#DejaVuSans-20"/>
     <use x="793.21875" xlink:href="#DejaVuSans-41"/>
     <use x="861.626953" xlink:href="#DejaVuSans-70"/>
     <use x="925.103516" xlink:href="#DejaVuSans-72"/>
     <use x="966.216797" xlink:href="#DejaVuSans-20"/>
     <use x="998.003906" xlink:href="#DejaVuSans-20"/>
     <use x="1029.791016" xlink:href="#DejaVuSans-35"/>
     <use x="1093.414062" xlink:href="#DejaVuSans-20"/>
     <use x="1125.201172" xlink:href="#DejaVuSans-31"/>
     <use x="1188.824219" xlink:href="#DejaVuSans-37"/>
     <use x="1252.447266" xlink:href="#DejaVuSans-3a"/>
     <use x="1286.138672" xlink:href="#DejaVuSans-34"/>
     <use x="1349.761719" xlink:href="#DejaVuSans-36"/>
     <use x="1413.384766" xlink:href="#DejaVuSans-3a"/>
     <use x="1447.076172" xlink:href="#DejaVuSans-31"/>
     <use x="1510.699219" xlink:href="#DejaVuSans-32"/>
     <use x="1574.322266" xlink:href="#DejaVuSans-20"/>
     <use x="1606.109375" xlink:href="#DejaVuSans-32"/>
     <use x="1669.732422" xlink:href="#DejaVuSans-30"/>
     <use x="1733.355469" xlink:href="#DejaVuSans-31"/>
     <use x="1796.978516" xlink:href="#DejaVuSans-39"/>
    </g>
   </g>
   <g id="legend_1">
    <g id="patch_7">
     <path d="M 597.23708 378.828 
L 671.667861 378.828 
Q 673.067861 378.828 673.067861 377.428 
L 673.067861 342.34925 
Q 673.067861 340.94925 671.667861 340.94925 
L 597.23708 340.94925 
Q 595.83708 340.94925 595.83708 342.34925 
L 595.83708 377.428 
Q 595.83708 378.828 597.23708 378.828 
z
" style="fill:#ffffff;opacity:0.8;stroke:#cccccc;stroke-linejoin:miter;"/>
    </g>
    <g id="line2d_21">
     <path d="M 595.97708 343.958156 
L 609.97708 343.958156 
" style="fill:none;stroke:#1f77b4;stroke-linecap:square;stroke-width:1.5;"/>
    </g>
    <g id="line2d_22"/>
    <g id="text_20">
     <!-- 0: Rod -->
     <defs>
      <path d="M 44.390625 34.1875 
Q 47.5625 33.109375 50.5625 29.59375 
Q 53.5625 26.078125 56.59375 19.921875 
L 66.609375 0 
L 56 0 
L 46.6875 18.703125 
Q 43.0625 26.03125 39.671875 28.421875 
Q 36.28125 30.8125 30.421875 30.8125 
L 19.671875 30.8125 
L 19.671875 0 
L 9.8125 0 
L 9.8125 72.90625 
L 32.078125 72.90625 
Q 44.578125 72.90625 50.734375 67.671875 
Q 56.890625 62.453125 56.890625 51.90625 
Q 56.890625 45.015625 53.6875 40.46875 
Q 50.484375 35.9375 44.390625 34.1875 
z
M 19.671875 64.796875 
L 19.671875 38.921875 
L 32.078125 38.921875 
Q 39.203125 38.921875 42.84375 42.21875 
Q 46.484375 45.515625 46.484375 51.90625 
Q 46.484375 58.296875 42.84375 61.546875 
Q 39.203125 64.796875 32.078125 64.796875 
z
" id="DejaVuSans-52"/>
     </defs>
     <g transform="translate(615.57708 346.408156)scale(0.07 -0.07)">
      <use xlink:href="#DejaVuSans-30"/>
      <use x="63.623047" xlink:href="#DejaVuSans-3a"/>
      <use x="97.314453" xlink:href="#DejaVuSans-20"/>
      <use x="129.101562" xlink:href="#DejaVuSans-52"/>
      <use x="198.521484" xlink:href="#DejaVuSans-6f"/>
      <use x="259.703125" xlink:href="#DejaVuSans-64"/>
     </g>
    </g>
    <g id="line2d_23">
     <path d="M 595.97708 354.232844 
L 609.97708 354.232844 
" style="fill:none;stroke:#ff7f0e;stroke-linecap:square;stroke-width:1.5;"/>
    </g>
    <g id="line2d_24"/>
    <g id="text_21">
     <!-- 1: background -->
     <defs>
      <path d="M 48.6875 27.296875 
Q 48.6875 37.203125 44.609375 42.84375 
Q 40.53125 48.484375 33.40625 48.484375 
Q 26.265625 48.484375 22.1875 42.84375 
Q 18.109375 37.203125 18.109375 27.296875 
Q 18.109375 17.390625 22.1875 11.75 
Q 26.265625 6.109375 33.40625 6.109375 
Q 40.53125 6.109375 44.609375 11.75 
Q 48.6875 17.390625 48.6875 27.296875 
z
M 18.109375 46.390625 
Q 20.953125 51.265625 25.265625 53.625 
Q 29.59375 56 35.59375 56 
Q 45.5625 56 51.78125 48.09375 
Q 58.015625 40.1875 58.015625 27.296875 
Q 58.015625 14.40625 51.78125 6.484375 
Q 45.5625 -1.421875 35.59375 -1.421875 
Q 29.59375 -1.421875 25.265625 0.953125 
Q 20.953125 3.328125 18.109375 8.203125 
L 18.109375 0 
L 9.078125 0 
L 9.078125 75.984375 
L 18.109375 75.984375 
z
" id="DejaVuSans-62"/>
      <path d="M 9.078125 75.984375 
L 18.109375 75.984375 
L 18.109375 31.109375 
L 44.921875 54.6875 
L 56.390625 54.6875 
L 27.390625 29.109375 
L 57.625 0 
L 45.90625 0 
L 18.109375 26.703125 
L 18.109375 0 
L 9.078125 0 
z
" id="DejaVuSans-6b"/>
      <path d="M 45.40625 27.984375 
Q 45.40625 37.75 41.375 43.109375 
Q 37.359375 48.484375 30.078125 48.484375 
Q 22.859375 48.484375 18.828125 43.109375 
Q 14.796875 37.75 14.796875 27.984375 
Q 14.796875 18.265625 18.828125 12.890625 
Q 22.859375 7.515625 30.078125 7.515625 
Q 37.359375 7.515625 41.375 12.890625 
Q 45.40625 18.265625 45.40625 27.984375 
z
M 54.390625 6.78125 
Q 54.390625 -7.171875 48.1875 -13.984375 
Q 42 -20.796875 29.203125 -20.796875 
Q 24.46875 -20.796875 20.265625 -20.09375 
Q 16.0625 -19.390625 12.109375 -17.921875 
L 12.109375 -9.1875 
Q 16.0625 -11.328125 19.921875 -12.34375 
Q 23.78125 -13.375 27.78125 -13.375 
Q 36.625 -13.375 41.015625 -8.765625 
Q 45.40625 -4.15625 45.40625 5.171875 
L 45.40625 9.625 
Q 42.625 4.78125 38.28125 2.390625 
Q 33.9375 0 27.875 0 
Q 17.828125 0 11.671875 7.65625 
Q 5.515625 15.328125 5.515625 27.984375 
Q 5.515625 40.671875 11.671875 48.328125 
Q 17.828125 56 27.875 56 
Q 33.9375 56 38.28125 53.609375 
Q 42.625 51.21875 45.40625 46.390625 
L 45.40625 54.6875 
L 54.390625 54.6875 
z
" id="DejaVuSans-67"/>
     </defs>
     <g transform="translate(615.57708 356.682844)scale(0.07 -0.07)">
      <use xlink:href="#DejaVuSans-31"/>
      <use x="63.623047" xlink:href="#DejaVuSans-3a"/>
      <use x="97.314453" xlink:href="#DejaVuSans-20"/>
      <use x="129.101562" xlink:href="#DejaVuSans-62"/>
      <use x="192.578125" xlink:href="#DejaVuSans-61"/>
      <use x="253.857422" xlink:href="#DejaVuSans-63"/>
      <use x="308.837891" xlink:href="#DejaVuSans-6b"/>
      <use x="366.748047" xlink:href="#DejaVuSans-67"/>
      <use x="430.224609" xlink:href="#DejaVuSans-72"/>
      <use x="471.306641" xlink:href="#DejaVuSans-6f"/>
      <use x="532.488281" xlink:href="#DejaVuSans-75"/>
      <use x="595.867188" xlink:href="#DejaVuSans-6e"/>
      <use x="659.246094" xlink:href="#DejaVuSans-64"/>
     </g>
    </g>
    <g id="line2d_25">
     <path d="M 595.97708 364.507531 
L 609.97708 364.507531 
" style="fill:none;stroke:#2ca02c;stroke-linecap:square;stroke-width:1.5;"/>
    </g>
    <g id="line2d_26"/>
    <g id="text_22">
     <!-- 2: Step Function -->
     <defs>
      <path d="M 53.515625 70.515625 
L 53.515625 60.890625 
Q 47.90625 63.578125 42.921875 64.890625 
Q 37.9375 66.21875 33.296875 66.21875 
Q 25.25 66.21875 20.875 63.09375 
Q 16.5 59.96875 16.5 54.203125 
Q 16.5 49.359375 19.40625 46.890625 
Q 22.3125 44.4375 30.421875 42.921875 
L 36.375 41.703125 
Q 47.40625 39.59375 52.65625 34.296875 
Q 57.90625 29 57.90625 20.125 
Q 57.90625 9.515625 50.796875 4.046875 
Q 43.703125 -1.421875 29.984375 -1.421875 
Q 24.8125 -1.421875 18.96875 -0.25 
Q 13.140625 0.921875 6.890625 3.21875 
L 6.890625 13.375 
Q 12.890625 10.015625 18.65625 8.296875 
Q 24.421875 6.59375 29.984375 6.59375 
Q 38.421875 6.59375 43.015625 9.90625 
Q 47.609375 13.234375 47.609375 19.390625 
Q 47.609375 24.75 44.3125 27.78125 
Q 41.015625 30.8125 33.5 32.328125 
L 27.484375 33.5 
Q 16.453125 35.6875 11.515625 40.375 
Q 6.59375 45.0625 6.59375 53.421875 
Q 6.59375 63.09375 13.40625 68.65625 
Q 20.21875 74.21875 32.171875 74.21875 
Q 37.3125 74.21875 42.625 73.28125 
Q 47.953125 72.359375 53.515625 70.515625 
z
" id="DejaVuSans-53"/>
     </defs>
     <g transform="translate(615.57708 366.957531)scale(0.07 -0.07)">
      <use xlink:href="#DejaVuSans-32"/>
      <use x="63.623047" xlink:href="#DejaVuSans-3a"/>
      <use x="97.314453" xlink:href="#DejaVuSans-20"/>
      <use x="129.101562" xlink:href="#DejaVuSans-53"/>
      <use x="192.578125" xlink:href="#DejaVuSans-74"/>
      <use x="231.787109" xlink:href="#DejaVuSans-65"/>
      <use x="293.310547" xlink:href="#DejaVuSans-70"/>
      <use x="356.787109" xlink:href="#DejaVuSans-20"/>
      <use x="388.574219" xlink:href="#DejaVuSans-46"/>
      <use x="446.015625" xlink:href="#DejaVuSans-75"/>
      <use x="509.394531" xlink:href="#DejaVuSans-6e"/>
      <use x="572.773438" xlink:href="#DejaVuSans-63"/>
      <use x="627.753906" xlink:href="#DejaVuSans-74"/>
      <use x="666.962891" xlink:href="#DejaVuSans-69"/>
      <use x="694.746094" xlink:href="#DejaVuSans-6f"/>
      <use x="755.927734" xlink:href="#DejaVuSans-6e"/>
     </g>
    </g>
    <g id="line2d_27">
     <path d="M 595.97708 374.782219 
L 609.97708 374.782219 
" style="fill:none;stroke:#d62728;stroke-linecap:square;stroke-width:1.5;"/>
    </g>
    <g id="line2d_28"/>
    <g id="text_23">
     <!-- 3: Gaussian -->
     <defs>
      <path d="M 40.578125 39.3125 
Q 47.65625 37.796875 51.625 33 
Q 55.609375 28.21875 55.609375 21.1875 
Q 55.609375 10.40625 48.1875 4.484375 
Q 40.765625 -1.421875 27.09375 -1.421875 
Q 22.515625 -1.421875 17.65625 -0.515625 
Q 12.796875 0.390625 7.625 2.203125 
L 7.625 11.71875 
Q 11.71875 9.328125 16.59375 8.109375 
Q 21.484375 6.890625 26.8125 6.890625 
Q 36.078125 6.890625 40.9375 10.546875 
Q 45.796875 14.203125 45.796875 21.1875 
Q 45.796875 27.640625 41.28125 31.265625 
Q 36.765625 34.90625 28.71875 34.90625 
L 20.21875 34.90625 
L 20.21875 43.015625 
L 29.109375 43.015625 
Q 36.375 43.015625 40.234375 45.921875 
Q 44.09375 48.828125 44.09375 54.296875 
Q 44.09375 59.90625 40.109375 62.90625 
Q 36.140625 65.921875 28.71875 65.921875 
Q 24.65625 65.921875 20.015625 65.03125 
Q 15.375 64.15625 9.8125 62.3125 
L 9.8125 71.09375 
Q 15.4375 72.65625 20.34375 73.4375 
Q 25.25 74.21875 29.59375 74.21875 
Q 40.828125 74.21875 47.359375 69.109375 
Q 53.90625 64.015625 53.90625 55.328125 
Q 53.90625 49.265625 50.4375 45.09375 
Q 46.96875 40.921875 40.578125 39.3125 
z
" id="DejaVuSans-33"/>
      <path d="M 59.515625 10.40625 
L 59.515625 29.984375 
L 43.40625 29.984375 
L 43.40625 38.09375 
L 69.28125 38.09375 
L 69.28125 6.78125 
Q 63.578125 2.734375 56.6875 0.65625 
Q 49.8125 -1.421875 42 -1.421875 
Q 24.90625 -1.421875 15.25 8.5625 
Q 5.609375 18.5625 5.609375 36.375 
Q 5.609375 54.25 15.25 64.234375 
Q 24.90625 74.21875 42 74.21875 
Q 49.125 74.21875 55.546875 72.453125 
Q 61.96875 70.703125 67.390625 67.28125 
L 67.390625 56.78125 
Q 61.921875 61.421875 55.765625 63.765625 
Q 49.609375 66.109375 42.828125 66.109375 
Q 29.4375 66.109375 22.71875 58.640625 
Q 16.015625 51.171875 16.015625 36.375 
Q 16.015625 21.625 22.71875 14.15625 
Q 29.4375 6.6875 42.828125 6.6875 
Q 48.046875 6.6875 52.140625 7.59375 
Q 56.25 8.5 59.515625 10.40625 
z
" id="DejaVuSans-47"/>
     </defs>
     <g transform="translate(615.57708 377.232219)scale(0.07 -0.07)">
      <use xlink:href="#DejaVuSans-33"/>
      <use x="63.623047" xlink:href="#DejaVuSans-3a"/>
      <use x="97.314453" xlink:href="#DejaVuSans-20"/>
      <use x="129.101562" xlink:href="#DejaVuSans-47"/>
      <use x="206.591797" xlink:href="#DejaVuSans-61"/>
      <use x="267.871094" xlink:href="#DejaVuSans-75"/>
      <use x="331.25" xlink:href="#DejaVuSans-73"/>
      <use x="383.349609" xlink:href="#DejaVuSans-73"/>
      <use x="435.449219" xlink:href="#DejaVuSans-69"/>
      <use x="463.232422" xlink:href="#DejaVuSans-61"/>
      <use x="524.511719" xlink:href="#DejaVuSans-6e"/>
     </g>
    </g>
   </g>
  </g>
 </g>
 <defs>
  <clipPath id="p19d1288efd">
   <rect height="334.26" width="464.508" x="126.684" y="44.568"/>
  </clipPath>
 </defs>
</svg>
