<?xml version="1.0" encoding="utf-8" standalone="no"?>
<!DOCTYPE svg PUBLIC "-//W3C//DTD SVG 1.1//EN"
  "http://www.w3.org/Graphics/SVG/1.1/DTD/svg11.dtd">
<!-- Created with matplotlib (http://matplotlib.org/) -->
<svg height="526pt" version="1.1" viewBox="0 0 921 526" width="921pt" xmlns="http://www.w3.org/2000/svg" xmlns:xlink="http://www.w3.org/1999/xlink">
 <defs>
  <style type="text/css">
*{stroke-linecap:butt;stroke-linejoin:round;}
  </style>
 </defs>
 <g id="figure_1">
  <g id="patch_1">
   <path d="M 0 526.32 
L 921.6 526.32 
L 921.6 0 
L 0 0 
z
" style="fill:#ffffff;"/>
  </g>
  <g id="axes_1">
   <g id="patch_2">
    <path d="M 138.24 447.372 
L 645.12 447.372 
L 645.12 52.632 
L 138.24 52.632 
z
" style="fill:#ffffff;"/>
   </g>
   <g id="matplotlib.axis_1">
    <g id="xtick_1">
     <g id="line2d_1">
      <defs>
       <path d="M 0 0 
L 0 3.5 
" id="md0162adf7d" style="stroke:#000000;stroke-width:0.8;"/>
      </defs>
      <g>
       <use style="stroke:#000000;stroke-width:0.8;" x="147.987692" xlink:href="#md0162adf7d" y="447.372"/>
      </g>
     </g>
     <g id="text_1">
      <!-- 48 -->
      <defs>
       <path d="M 37.796875 64.3125 
L 12.890625 25.390625 
L 37.796875 25.390625 
z
M 35.203125 72.90625 
L 47.609375 72.90625 
L 47.609375 25.390625 
L 58.015625 25.390625 
L 58.015625 17.1875 
L 47.609375 17.1875 
L 47.609375 0 
L 37.796875 0 
L 37.796875 17.1875 
L 4.890625 17.1875 
L 4.890625 26.703125 
z
" id="DejaVuSans-34"/>
       <path d="M 31.78125 34.625 
Q 24.75 34.625 20.71875 30.859375 
Q 16.703125 27.09375 16.703125 20.515625 
Q 16.703125 13.921875 20.71875 10.15625 
Q 24.75 6.390625 31.78125 6.390625 
Q 38.8125 6.390625 42.859375 10.171875 
Q 46.921875 13.96875 46.921875 20.515625 
Q 46.921875 27.09375 42.890625 30.859375 
Q 38.875 34.625 31.78125 34.625 
M 21.921875 38.8125 
Q 15.578125 40.375 12.03125 44.71875 
Q 8.5 49.078125 8.5 55.328125 
Q 8.5 64.0625 14.71875 69.140625 
Q 20.953125 74.21875 31.78125 74.21875 
Q 42.671875 74.21875 48.875 69.140625 
Q 55.078125 64.0625 55.078125 55.328125 
Q 55.078125 49.078125 51.53125 44.71875 
Q 48 40.375 41.703125 38.8125 
Q 48.828125 37.15625 52.796875 32.3125 
Q 56.78125 27.484375 56.78125 20.515625 
Q 56.78125 9.90625 50.3125 4.234375 
Q 43.84375 -1.421875 31.78125 -1.421875 
Q 19.734375 -1.421875 13.25 4.234375 
Q 6.78125 9.90625 6.78125 20.515625 
Q 6.78125 27.484375 10.78125 32.3125 
Q 14.796875 37.15625 21.921875 38.8125 
M 18.3125 54.390625 
Q 18.3125 48.734375 21.84375 45.5625 
Q 25.390625 42.390625 31.78125 42.390625 
Q 38.140625 42.390625 41.71875 45.5625 
Q 45.3125 48.734375 45.3125 54.390625 
Q 45.3125 60.0625 41.71875 63.234375 
Q 38.140625 66.40625 31.78125 66.40625 
Q 25.390625 66.40625 21.84375 63.234375 
Q 18.3125 60.0625 18.3125 54.390625 
" id="DejaVuSans-38"/>
      </defs>
      <g transform="translate(141.625192 461.970437)scale(0.1 -0.1)">
       <use xlink:href="#DejaVuSans-34"/>
       <use x="63.623047" xlink:href="#DejaVuSans-38"/>
      </g>
     </g>
    </g>
    <g id="xtick_2">
     <g id="line2d_2">
      <g>
       <use style="stroke:#000000;stroke-width:0.8;" x="229.901073" xlink:href="#md0162adf7d" y="447.372"/>
      </g>
     </g>
     <g id="text_2">
      <!-- 49 -->
      <defs>
       <path d="M 10.984375 1.515625 
L 10.984375 10.5 
Q 14.703125 8.734375 18.5 7.8125 
Q 22.3125 6.890625 25.984375 6.890625 
Q 35.75 6.890625 40.890625 13.453125 
Q 46.046875 20.015625 46.78125 33.40625 
Q 43.953125 29.203125 39.59375 26.953125 
Q 35.25 24.703125 29.984375 24.703125 
Q 19.046875 24.703125 12.671875 31.3125 
Q 6.296875 37.9375 6.296875 49.421875 
Q 6.296875 60.640625 12.9375 67.421875 
Q 19.578125 74.21875 30.609375 74.21875 
Q 43.265625 74.21875 49.921875 64.515625 
Q 56.59375 54.828125 56.59375 36.375 
Q 56.59375 19.140625 48.40625 8.859375 
Q 40.234375 -1.421875 26.421875 -1.421875 
Q 22.703125 -1.421875 18.890625 -0.6875 
Q 15.09375 0.046875 10.984375 1.515625 
M 30.609375 32.421875 
Q 37.25 32.421875 41.125 36.953125 
Q 45.015625 41.5 45.015625 49.421875 
Q 45.015625 57.28125 41.125 61.84375 
Q 37.25 66.40625 30.609375 66.40625 
Q 23.96875 66.40625 20.09375 61.84375 
Q 16.21875 57.28125 16.21875 49.421875 
Q 16.21875 41.5 20.09375 36.953125 
Q 23.96875 32.421875 30.609375 32.421875 
" id="DejaVuSans-39"/>
      </defs>
      <g transform="translate(223.538573 461.970437)scale(0.1 -0.1)">
       <use xlink:href="#DejaVuSans-34"/>
       <use x="63.623047" xlink:href="#DejaVuSans-39"/>
      </g>
     </g>
    </g>
    <g id="xtick_3">
     <g id="line2d_3">
      <g>
       <use style="stroke:#000000;stroke-width:0.8;" x="311.814454" xlink:href="#md0162adf7d" y="447.372"/>
      </g>
     </g>
     <g id="text_3">
      <!-- 50 -->
      <defs>
       <path d="M 10.796875 72.90625 
L 49.515625 72.90625 
L 49.515625 64.59375 
L 19.828125 64.59375 
L 19.828125 46.734375 
Q 21.96875 47.46875 24.109375 47.828125 
Q 26.265625 48.1875 28.421875 48.1875 
Q 40.625 48.1875 47.75 41.5 
Q 54.890625 34.8125 54.890625 23.390625 
Q 54.890625 11.625 47.5625 5.09375 
Q 40.234375 -1.421875 26.90625 -1.421875 
Q 22.3125 -1.421875 17.546875 -0.640625 
Q 12.796875 0.140625 7.71875 1.703125 
L 7.71875 11.625 
Q 12.109375 9.234375 16.796875 8.0625 
Q 21.484375 6.890625 26.703125 6.890625 
Q 35.15625 6.890625 40.078125 11.328125 
Q 45.015625 15.765625 45.015625 23.390625 
Q 45.015625 31 40.078125 35.4375 
Q 35.15625 39.890625 26.703125 39.890625 
Q 22.75 39.890625 18.8125 39.015625 
Q 14.890625 38.140625 10.796875 36.28125 
z
" id="DejaVuSans-35"/>
       <path d="M 31.78125 66.40625 
Q 24.171875 66.40625 20.328125 58.90625 
Q 16.5 51.421875 16.5 36.375 
Q 16.5 21.390625 20.328125 13.890625 
Q 24.171875 6.390625 31.78125 6.390625 
Q 39.453125 6.390625 43.28125 13.890625 
Q 47.125 21.390625 47.125 36.375 
Q 47.125 51.421875 43.28125 58.90625 
Q 39.453125 66.40625 31.78125 66.40625 
M 31.78125 74.21875 
Q 44.046875 74.21875 50.515625 64.515625 
Q 56.984375 54.828125 56.984375 36.375 
Q 56.984375 17.96875 50.515625 8.265625 
Q 44.046875 -1.421875 31.78125 -1.421875 
Q 19.53125 -1.421875 13.0625 8.265625 
Q 6.59375 17.96875 6.59375 36.375 
Q 6.59375 54.828125 13.0625 64.515625 
Q 19.53125 74.21875 31.78125 74.21875 
" id="DejaVuSans-30"/>
      </defs>
      <g transform="translate(305.451954 461.970437)scale(0.1 -0.1)">
       <use xlink:href="#DejaVuSans-35"/>
       <use x="63.623047" xlink:href="#DejaVuSans-30"/>
      </g>
     </g>
    </g>
    <g id="xtick_4">
     <g id="line2d_4">
      <g>
       <use style="stroke:#000000;stroke-width:0.8;" x="393.727835" xlink:href="#md0162adf7d" y="447.372"/>
      </g>
     </g>
     <g id="text_4">
      <!-- 51 -->
      <defs>
       <path d="M 12.40625 8.296875 
L 28.515625 8.296875 
L 28.515625 63.921875 
L 10.984375 60.40625 
L 10.984375 69.390625 
L 28.421875 72.90625 
L 38.28125 72.90625 
L 38.28125 8.296875 
L 54.390625 8.296875 
L 54.390625 0 
L 12.40625 0 
z
" id="DejaVuSans-31"/>
      </defs>
      <g transform="translate(387.365335 461.970437)scale(0.1 -0.1)">
       <use xlink:href="#DejaVuSans-35"/>
       <use x="63.623047" xlink:href="#DejaVuSans-31"/>
      </g>
     </g>
    </g>
    <g id="xtick_5">
     <g id="line2d_5">
      <g>
       <use style="stroke:#000000;stroke-width:0.8;" x="475.641215" xlink:href="#md0162adf7d" y="447.372"/>
      </g>
     </g>
     <g id="text_5">
      <!-- 52 -->
      <defs>
       <path d="M 19.1875 8.296875 
L 53.609375 8.296875 
L 53.609375 0 
L 7.328125 0 
L 7.328125 8.296875 
Q 12.9375 14.109375 22.625 23.890625 
Q 32.328125 33.6875 34.8125 36.53125 
Q 39.546875 41.84375 41.421875 45.53125 
Q 43.3125 49.21875 43.3125 52.78125 
Q 43.3125 58.59375 39.234375 62.25 
Q 35.15625 65.921875 28.609375 65.921875 
Q 23.96875 65.921875 18.8125 64.3125 
Q 13.671875 62.703125 7.8125 59.421875 
L 7.8125 69.390625 
Q 13.765625 71.78125 18.9375 73 
Q 24.125 74.21875 28.421875 74.21875 
Q 39.75 74.21875 46.484375 68.546875 
Q 53.21875 62.890625 53.21875 53.421875 
Q 53.21875 48.921875 51.53125 44.890625 
Q 49.859375 40.875 45.40625 35.40625 
Q 44.1875 33.984375 37.640625 27.21875 
Q 31.109375 20.453125 19.1875 8.296875 
" id="DejaVuSans-32"/>
      </defs>
      <g transform="translate(469.278715 461.970437)scale(0.1 -0.1)">
       <use xlink:href="#DejaVuSans-35"/>
       <use x="63.623047" xlink:href="#DejaVuSans-32"/>
      </g>
     </g>
    </g>
    <g id="xtick_6">
     <g id="line2d_6">
      <g>
       <use style="stroke:#000000;stroke-width:0.8;" x="557.554596" xlink:href="#md0162adf7d" y="447.372"/>
      </g>
     </g>
     <g id="text_6">
      <!-- 53 -->
      <defs>
       <path d="M 40.578125 39.3125 
Q 47.65625 37.796875 51.625 33 
Q 55.609375 28.21875 55.609375 21.1875 
Q 55.609375 10.40625 48.1875 4.484375 
Q 40.765625 -1.421875 27.09375 -1.421875 
Q 22.515625 -1.421875 17.65625 -0.515625 
Q 12.796875 0.390625 7.625 2.203125 
L 7.625 11.71875 
Q 11.71875 9.328125 16.59375 8.109375 
Q 21.484375 6.890625 26.8125 6.890625 
Q 36.078125 6.890625 40.9375 10.546875 
Q 45.796875 14.203125 45.796875 21.1875 
Q 45.796875 27.640625 41.28125 31.265625 
Q 36.765625 34.90625 28.71875 34.90625 
L 20.21875 34.90625 
L 20.21875 43.015625 
L 29.109375 43.015625 
Q 36.375 43.015625 40.234375 45.921875 
Q 44.09375 48.828125 44.09375 54.296875 
Q 44.09375 59.90625 40.109375 62.90625 
Q 36.140625 65.921875 28.71875 65.921875 
Q 24.65625 65.921875 20.015625 65.03125 
Q 15.375 64.15625 9.8125 62.3125 
L 9.8125 71.09375 
Q 15.4375 72.65625 20.34375 73.4375 
Q 25.25 74.21875 29.59375 74.21875 
Q 40.828125 74.21875 47.359375 69.109375 
Q 53.90625 64.015625 53.90625 55.328125 
Q 53.90625 49.265625 50.4375 45.09375 
Q 46.96875 40.921875 40.578125 39.3125 
" id="DejaVuSans-33"/>
      </defs>
      <g transform="translate(551.192096 461.970437)scale(0.1 -0.1)">
       <use xlink:href="#DejaVuSans-35"/>
       <use x="63.623047" xlink:href="#DejaVuSans-33"/>
      </g>
     </g>
    </g>
    <g id="xtick_7">
     <g id="line2d_7">
      <g>
       <use style="stroke:#000000;stroke-width:0.8;" x="639.467977" xlink:href="#md0162adf7d" y="447.372"/>
      </g>
     </g>
     <g id="text_7">
      <!-- 54 -->
      <g transform="translate(633.105477 461.970437)scale(0.1 -0.1)">
       <use xlink:href="#DejaVuSans-35"/>
       <use x="63.623047" xlink:href="#DejaVuSans-34"/>
      </g>
     </g>
    </g>
    <g id="text_8">
     <!-- 2$\theta$ -->
     <defs>
      <path d="M 45.515625 34.671875 
L 14.453125 34.671875 
Q 12.359375 20.0625 14.5 13.875 
Q 17.1875 6.25 24.46875 6.25 
Q 31.78125 6.25 37.359375 13.921875 
Q 42.234375 20.65625 45.515625 34.671875 
M 47.015625 42.96875 
Q 48.34375 56.84375 46.625 61.71875 
Q 43.953125 69.4375 36.765625 69.4375 
Q 29.296875 69.4375 23.828125 61.8125 
Q 19.53125 55.671875 16.15625 42.96875 
z
M 38.1875 76.765625 
Q 49.90625 76.765625 54.59375 66.40625 
Q 59.28125 56.109375 55.71875 37.84375 
Q 52.203125 19.625 43.453125 9.28125 
Q 34.765625 -1.125 23.046875 -1.125 
Q 11.28125 -1.125 6.640625 9.28125 
Q 2 19.625 5.515625 37.84375 
Q 9.078125 56.109375 17.71875 66.40625 
Q 26.421875 76.765625 38.1875 76.765625 
" id="DejaVuSans-Oblique-3b8"/>
     </defs>
     <g transform="translate(385.43 475.648562)scale(0.1 -0.1)">
      <use transform="translate(0 0.234375)" xlink:href="#DejaVuSans-32"/>
      <use transform="translate(63.623047 0.234375)" xlink:href="#DejaVuSans-Oblique-3b8"/>
     </g>
    </g>
   </g>
   <g id="matplotlib.axis_2">
    <g id="ytick_1">
     <g id="line2d_8">
      <defs>
       <path d="M 0 0 
L -3.5 0 
" id="mfdc0db5dfe" style="stroke:#000000;stroke-width:0.8;"/>
      </defs>
      <g>
       <use style="stroke:#000000;stroke-width:0.8;" x="138.24" xlink:href="#mfdc0db5dfe" y="439.780846"/>
      </g>
     </g>
     <g id="text_9">
      <!-- 0 -->
      <g transform="translate(124.8775 443.580065)scale(0.1 -0.1)">
       <use xlink:href="#DejaVuSans-30"/>
      </g>
     </g>
    </g>
    <g id="ytick_2">
     <g id="line2d_9">
      <g>
       <use style="stroke:#000000;stroke-width:0.8;" x="138.24" xlink:href="#mfdc0db5dfe" y="370.895603"/>
      </g>
     </g>
     <g id="text_10">
      <!-- 200 -->
      <g transform="translate(112.1525 374.694821)scale(0.1 -0.1)">
       <use xlink:href="#DejaVuSans-32"/>
       <use x="63.623047" xlink:href="#DejaVuSans-30"/>
       <use x="127.246094" xlink:href="#DejaVuSans-30"/>
      </g>
     </g>
    </g>
    <g id="ytick_3">
     <g id="line2d_10">
      <g>
       <use style="stroke:#000000;stroke-width:0.8;" x="138.24" xlink:href="#mfdc0db5dfe" y="302.010359"/>
      </g>
     </g>
     <g id="text_11">
      <!-- 400 -->
      <g transform="translate(112.1525 305.809578)scale(0.1 -0.1)">
       <use xlink:href="#DejaVuSans-34"/>
       <use x="63.623047" xlink:href="#DejaVuSans-30"/>
       <use x="127.246094" xlink:href="#DejaVuSans-30"/>
      </g>
     </g>
    </g>
    <g id="ytick_4">
     <g id="line2d_11">
      <g>
       <use style="stroke:#000000;stroke-width:0.8;" x="138.24" xlink:href="#mfdc0db5dfe" y="233.125115"/>
      </g>
     </g>
     <g id="text_12">
      <!-- 600 -->
      <defs>
       <path d="M 33.015625 40.375 
Q 26.375 40.375 22.484375 35.828125 
Q 18.609375 31.296875 18.609375 23.390625 
Q 18.609375 15.53125 22.484375 10.953125 
Q 26.375 6.390625 33.015625 6.390625 
Q 39.65625 6.390625 43.53125 10.953125 
Q 47.40625 15.53125 47.40625 23.390625 
Q 47.40625 31.296875 43.53125 35.828125 
Q 39.65625 40.375 33.015625 40.375 
M 52.59375 71.296875 
L 52.59375 62.3125 
Q 48.875 64.0625 45.09375 64.984375 
Q 41.3125 65.921875 37.59375 65.921875 
Q 27.828125 65.921875 22.671875 59.328125 
Q 17.53125 52.734375 16.796875 39.40625 
Q 19.671875 43.65625 24.015625 45.921875 
Q 28.375 48.1875 33.59375 48.1875 
Q 44.578125 48.1875 50.953125 41.515625 
Q 57.328125 34.859375 57.328125 23.390625 
Q 57.328125 12.15625 50.6875 5.359375 
Q 44.046875 -1.421875 33.015625 -1.421875 
Q 20.359375 -1.421875 13.671875 8.265625 
Q 6.984375 17.96875 6.984375 36.375 
Q 6.984375 53.65625 15.1875 63.9375 
Q 23.390625 74.21875 37.203125 74.21875 
Q 40.921875 74.21875 44.703125 73.484375 
Q 48.484375 72.75 52.59375 71.296875 
" id="DejaVuSans-36"/>
      </defs>
      <g transform="translate(112.1525 236.924334)scale(0.1 -0.1)">
       <use xlink:href="#DejaVuSans-36"/>
       <use x="63.623047" xlink:href="#DejaVuSans-30"/>
       <use x="127.246094" xlink:href="#DejaVuSans-30"/>
      </g>
     </g>
    </g>
    <g id="ytick_5">
     <g id="line2d_12">
      <g>
       <use style="stroke:#000000;stroke-width:0.8;" x="138.24" xlink:href="#mfdc0db5dfe" y="164.239872"/>
      </g>
     </g>
     <g id="text_13">
      <!-- 800 -->
      <g transform="translate(112.1525 168.03909)scale(0.1 -0.1)">
       <use xlink:href="#DejaVuSans-38"/>
       <use x="63.623047" xlink:href="#DejaVuSans-30"/>
       <use x="127.246094" xlink:href="#DejaVuSans-30"/>
      </g>
     </g>
    </g>
    <g id="ytick_6">
     <g id="line2d_13">
      <g>
       <use style="stroke:#000000;stroke-width:0.8;" x="138.24" xlink:href="#mfdc0db5dfe" y="95.354628"/>
      </g>
     </g>
     <g id="text_14">
      <!-- 1000 -->
      <g transform="translate(105.79 99.153847)scale(0.1 -0.1)">
       <use xlink:href="#DejaVuSans-31"/>
       <use x="63.623047" xlink:href="#DejaVuSans-30"/>
       <use x="127.246094" xlink:href="#DejaVuSans-30"/>
       <use x="190.869141" xlink:href="#DejaVuSans-30"/>
      </g>
     </g>
    </g>
    <g id="text_15">
     <!-- Intensity [Counts] -->
     <defs>
      <path d="M 9.8125 72.90625 
L 19.671875 72.90625 
L 19.671875 0 
L 9.8125 0 
z
" id="DejaVuSans-49"/>
      <path d="M 54.890625 33.015625 
L 54.890625 0 
L 45.90625 0 
L 45.90625 32.71875 
Q 45.90625 40.484375 42.875 44.328125 
Q 39.84375 48.1875 33.796875 48.1875 
Q 26.515625 48.1875 22.3125 43.546875 
Q 18.109375 38.921875 18.109375 30.90625 
L 18.109375 0 
L 9.078125 0 
L 9.078125 54.6875 
L 18.109375 54.6875 
L 18.109375 46.1875 
Q 21.34375 51.125 25.703125 53.5625 
Q 30.078125 56 35.796875 56 
Q 45.21875 56 50.046875 50.171875 
Q 54.890625 44.34375 54.890625 33.015625 
" id="DejaVuSans-6e"/>
      <path d="M 18.3125 70.21875 
L 18.3125 54.6875 
L 36.8125 54.6875 
L 36.8125 47.703125 
L 18.3125 47.703125 
L 18.3125 18.015625 
Q 18.3125 11.328125 20.140625 9.421875 
Q 21.96875 7.515625 27.59375 7.515625 
L 36.8125 7.515625 
L 36.8125 0 
L 27.59375 0 
Q 17.1875 0 13.234375 3.875 
Q 9.28125 7.765625 9.28125 18.015625 
L 9.28125 47.703125 
L 2.6875 47.703125 
L 2.6875 54.6875 
L 9.28125 54.6875 
L 9.28125 70.21875 
z
" id="DejaVuSans-74"/>
      <path d="M 56.203125 29.59375 
L 56.203125 25.203125 
L 14.890625 25.203125 
Q 15.484375 15.921875 20.484375 11.0625 
Q 25.484375 6.203125 34.421875 6.203125 
Q 39.59375 6.203125 44.453125 7.46875 
Q 49.3125 8.734375 54.109375 11.28125 
L 54.109375 2.78125 
Q 49.265625 0.734375 44.1875 -0.34375 
Q 39.109375 -1.421875 33.890625 -1.421875 
Q 20.796875 -1.421875 13.15625 6.1875 
Q 5.515625 13.8125 5.515625 26.8125 
Q 5.515625 40.234375 12.765625 48.109375 
Q 20.015625 56 32.328125 56 
Q 43.359375 56 49.78125 48.890625 
Q 56.203125 41.796875 56.203125 29.59375 
M 47.21875 32.234375 
Q 47.125 39.59375 43.09375 43.984375 
Q 39.0625 48.390625 32.421875 48.390625 
Q 24.90625 48.390625 20.390625 44.140625 
Q 15.875 39.890625 15.1875 32.171875 
z
" id="DejaVuSans-65"/>
      <path d="M 44.28125 53.078125 
L 44.28125 44.578125 
Q 40.484375 46.53125 36.375 47.5 
Q 32.28125 48.484375 27.875 48.484375 
Q 21.1875 48.484375 17.84375 46.4375 
Q 14.5 44.390625 14.5 40.28125 
Q 14.5 37.15625 16.890625 35.375 
Q 19.28125 33.59375 26.515625 31.984375 
L 29.59375 31.296875 
Q 39.15625 29.25 43.1875 25.515625 
Q 47.21875 21.78125 47.21875 15.09375 
Q 47.21875 7.46875 41.1875 3.015625 
Q 35.15625 -1.421875 24.609375 -1.421875 
Q 20.21875 -1.421875 15.453125 -0.5625 
Q 10.6875 0.296875 5.421875 2 
L 5.421875 11.28125 
Q 10.40625 8.6875 15.234375 7.390625 
Q 20.0625 6.109375 24.8125 6.109375 
Q 31.15625 6.109375 34.5625 8.28125 
Q 37.984375 10.453125 37.984375 14.40625 
Q 37.984375 18.0625 35.515625 20.015625 
Q 33.0625 21.96875 24.703125 23.78125 
L 21.578125 24.515625 
Q 13.234375 26.265625 9.515625 29.90625 
Q 5.8125 33.546875 5.8125 39.890625 
Q 5.8125 47.609375 11.28125 51.796875 
Q 16.75 56 26.8125 56 
Q 31.78125 56 36.171875 55.265625 
Q 40.578125 54.546875 44.28125 53.078125 
" id="DejaVuSans-73"/>
      <path d="M 9.421875 54.6875 
L 18.40625 54.6875 
L 18.40625 0 
L 9.421875 0 
z
M 9.421875 75.984375 
L 18.40625 75.984375 
L 18.40625 64.59375 
L 9.421875 64.59375 
z
" id="DejaVuSans-69"/>
      <path d="M 32.171875 -5.078125 
Q 28.375 -14.84375 24.75 -17.8125 
Q 21.140625 -20.796875 15.09375 -20.796875 
L 7.90625 -20.796875 
L 7.90625 -13.28125 
L 13.1875 -13.28125 
Q 16.890625 -13.28125 18.9375 -11.515625 
Q 21 -9.765625 23.484375 -3.21875 
L 25.09375 0.875 
L 2.984375 54.6875 
L 12.5 54.6875 
L 29.59375 11.921875 
L 46.6875 54.6875 
L 56.203125 54.6875 
z
" id="DejaVuSans-79"/>
      <path id="DejaVuSans-20"/>
      <path d="M 8.59375 75.984375 
L 29.296875 75.984375 
L 29.296875 69 
L 17.578125 69 
L 17.578125 -6.203125 
L 29.296875 -6.203125 
L 29.296875 -13.1875 
L 8.59375 -13.1875 
z
" id="DejaVuSans-5b"/>
      <path d="M 64.40625 67.28125 
L 64.40625 56.890625 
Q 59.421875 61.53125 53.78125 63.8125 
Q 48.140625 66.109375 41.796875 66.109375 
Q 29.296875 66.109375 22.65625 58.46875 
Q 16.015625 50.828125 16.015625 36.375 
Q 16.015625 21.96875 22.65625 14.328125 
Q 29.296875 6.6875 41.796875 6.6875 
Q 48.140625 6.6875 53.78125 8.984375 
Q 59.421875 11.28125 64.40625 15.921875 
L 64.40625 5.609375 
Q 59.234375 2.09375 53.4375 0.328125 
Q 47.65625 -1.421875 41.21875 -1.421875 
Q 24.65625 -1.421875 15.125 8.703125 
Q 5.609375 18.84375 5.609375 36.375 
Q 5.609375 53.953125 15.125 64.078125 
Q 24.65625 74.21875 41.21875 74.21875 
Q 47.75 74.21875 53.53125 72.484375 
Q 59.328125 70.75 64.40625 67.28125 
" id="DejaVuSans-43"/>
      <path d="M 30.609375 48.390625 
Q 23.390625 48.390625 19.1875 42.75 
Q 14.984375 37.109375 14.984375 27.296875 
Q 14.984375 17.484375 19.15625 11.84375 
Q 23.34375 6.203125 30.609375 6.203125 
Q 37.796875 6.203125 41.984375 11.859375 
Q 46.1875 17.53125 46.1875 27.296875 
Q 46.1875 37.015625 41.984375 42.703125 
Q 37.796875 48.390625 30.609375 48.390625 
M 30.609375 56 
Q 42.328125 56 49.015625 48.375 
Q 55.71875 40.765625 55.71875 27.296875 
Q 55.71875 13.875 49.015625 6.21875 
Q 42.328125 -1.421875 30.609375 -1.421875 
Q 18.84375 -1.421875 12.171875 6.21875 
Q 5.515625 13.875 5.515625 27.296875 
Q 5.515625 40.765625 12.171875 48.375 
Q 18.84375 56 30.609375 56 
" id="DejaVuSans-6f"/>
      <path d="M 8.5 21.578125 
L 8.5 54.6875 
L 17.484375 54.6875 
L 17.484375 21.921875 
Q 17.484375 14.15625 20.5 10.265625 
Q 23.53125 6.390625 29.59375 6.390625 
Q 36.859375 6.390625 41.078125 11.03125 
Q 45.3125 15.671875 45.3125 23.6875 
L 45.3125 54.6875 
L 54.296875 54.6875 
L 54.296875 0 
L 45.3125 0 
L 45.3125 8.40625 
Q 42.046875 3.421875 37.71875 1 
Q 33.40625 -1.421875 27.6875 -1.421875 
Q 18.265625 -1.421875 13.375 4.4375 
Q 8.5 10.296875 8.5 21.578125 
M 31.109375 56 
z
" id="DejaVuSans-75"/>
      <path d="M 30.421875 75.984375 
L 30.421875 -13.1875 
L 9.71875 -13.1875 
L 9.71875 -6.203125 
L 21.390625 -6.203125 
L 21.390625 69 
L 9.71875 69 
L 9.71875 75.984375 
z
" id="DejaVuSans-5d"/>
     </defs>
     <g transform="translate(99.710313 294.70825)rotate(-90)scale(0.1 -0.1)">
      <use xlink:href="#DejaVuSans-49"/>
      <use x="29.492188" xlink:href="#DejaVuSans-6e"/>
      <use x="92.871094" xlink:href="#DejaVuSans-74"/>
      <use x="132.080078" xlink:href="#DejaVuSans-65"/>
      <use x="193.603516" xlink:href="#DejaVuSans-6e"/>
      <use x="256.982422" xlink:href="#DejaVuSans-73"/>
      <use x="309.082031" xlink:href="#DejaVuSans-69"/>
      <use x="336.865234" xlink:href="#DejaVuSans-74"/>
      <use x="376.074219" xlink:href="#DejaVuSans-79"/>
      <use x="435.253906" xlink:href="#DejaVuSans-20"/>
      <use x="467.041016" xlink:href="#DejaVuSans-5b"/>
      <use x="506.054688" xlink:href="#DejaVuSans-43"/>
      <use x="575.878906" xlink:href="#DejaVuSans-6f"/>
      <use x="637.060547" xlink:href="#DejaVuSans-75"/>
      <use x="700.439453" xlink:href="#DejaVuSans-6e"/>
      <use x="763.818359" xlink:href="#DejaVuSans-74"/>
      <use x="803.027344" xlink:href="#DejaVuSans-73"/>
      <use x="855.126953" xlink:href="#DejaVuSans-5d"/>
     </g>
    </g>
   </g>
   <g id="line2d_14">
    <path clip-path="url(#pd3bd120706)" d="M 147.987692 437.714289 
L 152.083361 438.747567 
L 156.17903 437.714289 
L 160.274699 438.058715 
L 164.370368 438.058715 
L 168.466037 437.714289 
L 172.561707 438.403141 
L 176.657376 437.714289 
L 180.753045 438.403141 
L 184.848714 437.369863 
L 188.944383 436.68101 
L 193.040052 438.058715 
L 197.135721 436.68101 
L 201.23139 437.369863 
L 205.327059 435.303305 
L 209.422728 435.992158 
L 213.518397 437.025436 
L 217.614066 437.714289 
L 221.709735 438.403141 
L 225.805404 435.992158 
L 229.901073 436.68101 
L 233.996742 436.68101 
L 238.092411 437.025436 
L 242.18808 434.614453 
L 246.283749 435.992158 
L 250.379418 434.614453 
L 254.475087 434.614453 
L 258.570756 435.992158 
L 262.666425 437.714289 
L 266.762094 435.303305 
L 270.857763 438.058715 
L 274.953432 435.303305 
L 279.049101 435.303305 
L 283.144771 437.025436 
L 287.24044 435.303305 
L 291.336109 433.9256 
L 295.431778 432.203469 
L 299.527447 431.170191 
L 303.623116 431.859043 
L 307.718785 427.381502 
L 311.814454 426.348224 
L 315.910123 425.314945 
L 320.005792 424.626093 
L 324.101461 414.637732 
L 328.19713 405.682651 
L 332.292799 400.516257 
L 336.388468 381.572815 
L 340.484137 362.284947 
L 344.579806 333.697571 
L 348.675475 319.920522 
L 352.771144 292.366425 
L 356.866813 293.055277 
L 360.962482 291.333146 
L 365.058151 330.597735 
L 369.15382 351.263308 
L 373.249489 368.140193 
L 377.345158 389.150192 
L 381.440827 403.960519 
L 385.536496 408.782487 
L 389.632165 418.770847 
L 393.727835 423.592814 
L 397.823504 425.659371 
L 401.919173 429.792486 
L 406.014842 430.481338 
L 410.110511 431.859043 
L 414.20618 434.614453 
L 418.301849 432.892322 
L 422.397518 437.025436 
L 426.493187 434.958879 
L 430.588856 433.581174 
L 434.684525 433.581174 
L 438.780194 436.336584 
L 442.875863 437.714289 
L 446.971532 436.336584 
L 451.067201 437.714289 
L 455.16287 434.958879 
L 459.258539 437.025436 
L 463.354208 437.025436 
L 467.449877 438.403141 
L 471.545546 437.025436 
L 475.641215 437.025436 
L 479.736884 437.369863 
L 483.832553 437.025436 
L 487.928222 438.403141 
L 492.023891 437.369863 
L 496.11956 438.403141 
L 500.215229 437.714289 
L 504.310899 437.369863 
L 508.406568 437.714289 
L 512.502237 437.369863 
L 516.597906 439.091994 
L 520.693575 437.714289 
L 524.789244 438.058715 
L 528.884913 438.058715 
L 532.980582 436.336584 
L 537.076251 439.780846 
L 541.17192 438.403141 
L 545.267589 438.058715 
L 549.363258 439.091994 
L 553.458927 439.091994 
L 557.554596 438.747567 
L 561.650265 437.714289 
L 565.745934 437.369863 
L 569.841603 438.747567 
L 573.937272 438.747567 
L 578.032941 438.403141 
L 582.12861 438.058715 
L 586.224279 437.025436 
L 590.319948 438.058715 
L 594.415617 438.058715 
L 598.511286 438.747567 
L 602.606955 438.058715 
L 606.702624 438.403141 
L 610.798293 438.403141 
L 614.893963 438.747567 
L 618.989632 437.025436 
L 623.085301 439.43642 
L 627.18097 438.058715 
L 631.276639 436.68101 
L 635.372308 438.403141 
" style="fill:none;stroke:#1f77b4;stroke-linecap:square;stroke-width:1.5;"/>
   </g>
   <g id="line2d_15">
    <path clip-path="url(#pd3bd120706)" d="M 147.987692 385.70593 
L 152.083361 386.050356 
L 156.17903 386.050356 
L 160.274699 387.083635 
L 164.370368 385.70593 
L 168.466037 384.672651 
L 172.561707 385.017077 
L 176.657376 386.739209 
L 180.753045 387.083635 
L 184.848714 386.739209 
L 188.944383 385.70593 
L 193.040052 387.772487 
L 197.135721 384.672651 
L 201.23139 385.361504 
L 205.327059 385.70593 
L 209.422728 383.983799 
L 213.518397 386.739209 
L 217.614066 383.639373 
L 221.709735 386.050356 
L 225.805404 384.328225 
L 229.901073 384.672651 
L 233.996742 383.983799 
L 238.092411 385.017077 
L 242.18808 383.294946 
L 246.283749 381.917242 
L 250.379418 381.917242 
L 254.475087 385.017077 
L 258.570756 383.639373 
L 262.666425 383.639373 
L 266.762094 387.083635 
L 270.857763 383.294946 
L 274.953432 383.294946 
L 279.049101 383.294946 
L 283.144771 383.983799 
L 287.24044 383.639373 
L 291.336109 383.639373 
L 295.431778 382.606094 
L 299.527447 383.639373 
L 303.623116 383.294946 
L 307.718785 384.328225 
L 311.814454 381.572815 
L 315.910123 381.572815 
L 320.005792 383.294946 
L 324.101461 380.19511 
L 328.19713 381.572815 
L 332.292799 382.261668 
L 336.388468 380.539537 
L 340.484137 376.061996 
L 344.579806 373.995439 
L 348.675475 368.484619 
L 352.771144 370.551176 
L 356.866813 362.284947 
L 360.962482 356.774128 
L 365.058151 346.785767 
L 369.15382 321.98708 
L 373.249489 323.709211 
L 377.345158 303.388064 
L 381.440827 293.399703 
L 385.536496 288.577736 
L 389.632165 280.655933 
L 393.727835 289.611015 
L 397.823504 292.366425 
L 401.919173 311.654293 
L 406.014842 332.319866 
L 410.110511 345.408062 
L 414.20618 348.163472 
L 418.301849 362.284947 
L 422.397518 365.040357 
L 426.493187 367.106914 
L 430.588856 376.406422 
L 434.684525 375.71757 
L 438.780194 380.883963 
L 442.875863 381.917242 
L 446.971532 382.95052 
L 451.067201 385.70593 
L 455.16287 379.161832 
L 459.258539 383.294946 
L 463.354208 385.361504 
L 467.449877 385.017077 
L 471.545546 383.639373 
L 475.641215 384.328225 
L 479.736884 383.639373 
L 483.832553 385.361504 
L 487.928222 382.606094 
L 492.023891 385.361504 
L 496.11956 384.672651 
L 500.215229 385.70593 
L 504.310899 386.050356 
L 508.406568 386.050356 
L 512.502237 382.95052 
L 516.597906 385.70593 
L 520.693575 386.050356 
L 524.789244 385.017077 
L 528.884913 385.017077 
L 532.980582 387.083635 
L 537.076251 385.70593 
L 541.17192 384.672651 
L 545.267589 386.050356 
L 549.363258 387.083635 
L 553.458927 386.739209 
L 557.554596 385.70593 
L 561.650265 386.050356 
L 565.745934 386.739209 
L 569.841603 386.394782 
L 573.937272 386.394782 
L 578.032941 385.361504 
L 582.12861 385.017077 
L 586.224279 385.017077 
L 590.319948 386.050356 
L 594.415617 384.672651 
L 598.511286 386.739209 
L 602.606955 384.672651 
L 606.702624 385.017077 
L 610.798293 384.672651 
L 614.893963 386.050356 
L 618.989632 387.083635 
L 623.085301 385.017077 
L 627.18097 385.361504 
L 631.276639 386.394782 
L 635.372308 385.361504 
" style="fill:none;stroke:#ff7f0e;stroke-linecap:square;stroke-width:1.5;"/>
   </g>
   <g id="line2d_16">
    <path clip-path="url(#pd3bd120706)" d="M 147.987692 334.73085 
L 152.083361 333.353145 
L 156.17903 334.041997 
L 160.274699 333.008719 
L 164.370368 333.353145 
L 168.466037 333.697571 
L 172.561707 334.386423 
L 176.657376 334.386423 
L 180.753045 332.664292 
L 184.848714 334.73085 
L 188.944383 333.697571 
L 193.040052 332.319866 
L 197.135721 332.319866 
L 201.23139 334.041997 
L 205.327059 331.286587 
L 209.422728 333.353145 
L 213.518397 331.97544 
L 217.614066 334.73085 
L 221.709735 330.597735 
L 225.805404 331.631014 
L 229.901073 332.664292 
L 233.996742 332.664292 
L 238.092411 332.664292 
L 242.18808 334.041997 
L 246.283749 334.041997 
L 250.379418 333.353145 
L 254.475087 334.041997 
L 258.570756 331.97544 
L 262.666425 331.631014 
L 266.762094 333.697571 
L 270.857763 331.97544 
L 274.953432 331.631014 
L 279.049101 332.664292 
L 283.144771 331.97544 
L 287.24044 332.664292 
L 291.336109 333.353145 
L 295.431778 332.664292 
L 299.527447 331.286587 
L 303.623116 333.008719 
L 307.718785 330.597735 
L 311.814454 333.008719 
L 315.910123 332.664292 
L 320.005792 330.253309 
L 324.101461 333.353145 
L 328.19713 332.664292 
L 332.292799 330.942161 
L 336.388468 331.97544 
L 340.484137 328.875604 
L 344.579806 330.253309 
L 348.675475 329.908883 
L 352.771144 331.97544 
L 356.866813 328.531178 
L 360.962482 325.431342 
L 365.058151 327.842325 
L 369.15382 326.46462 
L 373.249489 323.020358 
L 377.345158 319.576096 
L 381.440827 315.098555 
L 385.536496 310.965441 
L 389.632165 309.932162 
L 393.727835 293.74413 
L 397.823504 290.299868 
L 401.919173 289.266589 
L 406.014842 273.078557 
L 410.110511 270.323147 
L 414.20618 249.657574 
L 418.301849 248.968721 
L 422.397518 255.168393 
L 426.493187 253.790688 
L 430.588856 252.75741 
L 434.684525 281.689212 
L 438.780194 286.511179 
L 442.875863 290.644294 
L 446.971532 301.321506 
L 451.067201 309.24331 
L 455.16287 315.787408 
L 459.258539 322.675932 
L 463.354208 322.331506 
L 467.449877 326.46462 
L 471.545546 325.431342 
L 475.641215 328.531178 
L 479.736884 328.531178 
L 483.832553 329.564456 
L 487.928222 330.253309 
L 492.023891 328.531178 
L 496.11956 331.286587 
L 500.215229 330.942161 
L 504.310899 332.319866 
L 508.406568 331.97544 
L 512.502237 333.353145 
L 516.597906 330.253309 
L 520.693575 332.664292 
L 524.789244 331.286587 
L 528.884913 334.041997 
L 532.980582 331.97544 
L 537.076251 334.386423 
L 541.17192 333.697571 
L 545.267589 333.353145 
L 549.363258 334.386423 
L 553.458927 333.008719 
L 557.554596 333.353145 
L 561.650265 333.008719 
L 565.745934 334.041997 
L 569.841603 334.386423 
L 573.937272 333.697571 
L 578.032941 334.73085 
L 582.12861 332.664292 
L 586.224279 334.73085 
L 590.319948 334.386423 
L 594.415617 334.041997 
L 598.511286 331.97544 
L 602.606955 333.697571 
L 606.702624 333.353145 
L 610.798293 334.73085 
L 614.893963 332.664292 
L 618.989632 334.386423 
L 623.085301 335.075276 
L 627.18097 333.008719 
L 631.276639 335.075276 
L 635.372308 333.353145 
" style="fill:none;stroke:#2ca02c;stroke-linecap:square;stroke-width:1.5;"/>
   </g>
   <g id="line2d_17">
    <path clip-path="url(#pd3bd120706)" d="M 147.987692 282.033638 
L 152.083361 281.344786 
L 156.17903 283.066917 
L 160.274699 281.344786 
L 164.370368 282.033638 
L 168.466037 281.00036 
L 172.561707 282.033638 
L 176.657376 281.344786 
L 180.753045 283.755769 
L 184.848714 281.344786 
L 188.944383 281.689212 
L 193.040052 281.00036 
L 197.135721 283.066917 
L 201.23139 281.344786 
L 205.327059 281.689212 
L 209.422728 282.378064 
L 213.518397 281.344786 
L 217.614066 281.689212 
L 221.709735 282.033638 
L 225.805404 279.278229 
L 229.901073 282.722491 
L 233.996742 281.689212 
L 238.092411 281.344786 
L 242.18808 282.033638 
L 246.283749 280.655933 
L 250.379418 281.689212 
L 254.475087 283.755769 
L 258.570756 281.689212 
L 262.666425 280.655933 
L 266.762094 281.344786 
L 270.857763 282.033638 
L 274.953432 282.033638 
L 279.049101 281.00036 
L 283.144771 281.344786 
L 287.24044 282.722491 
L 291.336109 282.033638 
L 295.431778 282.033638 
L 299.527447 279.967081 
L 303.623116 281.689212 
L 307.718785 278.589376 
L 311.814454 279.278229 
L 315.910123 283.411343 
L 320.005792 279.622655 
L 324.101461 281.00036 
L 328.19713 281.00036 
L 332.292799 281.00036 
L 336.388468 279.278229 
L 340.484137 281.689212 
L 344.579806 276.522819 
L 348.675475 280.311507 
L 352.771144 281.00036 
L 356.866813 279.622655 
L 360.962482 278.933802 
L 365.058151 278.589376 
L 369.15382 279.967081 
L 373.249489 277.211671 
L 377.345158 277.556097 
L 381.440827 278.933802 
L 385.536496 279.622655 
L 389.632165 277.556097 
L 393.727835 275.145114 
L 397.823504 272.045278 
L 401.919173 269.289868 
L 406.014842 266.190032 
L 410.110511 265.156754 
L 414.20618 264.812327 
L 418.301849 250.002 
L 422.397518 240.01364 
L 426.493187 223.825607 
L 430.588856 218.659214 
L 434.684525 203.504461 
L 438.780194 201.093477 
L 442.875863 183.183314 
L 446.971532 198.338067 
L 451.067201 177.328068 
L 455.16287 203.504461 
L 459.258539 207.293149 
L 463.354208 228.303148 
L 467.449877 243.802328 
L 471.545546 259.645934 
L 475.641215 261.023639 
L 479.736884 262.401344 
L 483.832553 267.912163 
L 487.928222 271.700852 
L 492.023891 272.73413 
L 496.11956 273.078557 
L 500.215229 278.24495 
L 504.310899 279.278229 
L 508.406568 278.589376 
L 512.502237 279.278229 
L 516.597906 279.967081 
L 520.693575 279.622655 
L 524.789244 280.655933 
L 528.884913 279.278229 
L 532.980582 281.689212 
L 537.076251 279.967081 
L 541.17192 279.278229 
L 545.267589 279.278229 
L 549.363258 281.00036 
L 553.458927 280.655933 
L 557.554596 281.344786 
L 561.650265 279.967081 
L 565.745934 279.967081 
L 569.841603 282.722491 
L 573.937272 281.344786 
L 578.032941 281.00036 
L 582.12861 279.622655 
L 586.224279 282.378064 
L 590.319948 282.378064 
L 594.415617 282.378064 
L 598.511286 280.311507 
L 602.606955 280.655933 
L 606.702624 281.689212 
L 610.798293 280.655933 
L 614.893963 282.722491 
L 618.989632 282.378064 
L 623.085301 281.689212 
L 627.18097 281.00036 
L 631.276639 281.344786 
L 635.372308 282.033638 
" style="fill:none;stroke:#d62728;stroke-linecap:square;stroke-width:1.5;"/>
   </g>
   <g id="line2d_18">
    <path clip-path="url(#pd3bd120706)" d="M 147.987692 230.025279 
L 152.083361 229.680853 
L 156.17903 229.336427 
L 160.274699 228.992001 
L 164.370368 229.680853 
L 168.466037 230.025279 
L 172.561707 228.992001 
L 176.657376 228.992001 
L 180.753045 229.336427 
L 184.848714 228.303148 
L 188.944383 228.992001 
L 193.040052 228.647574 
L 197.135721 228.992001 
L 201.23139 229.336427 
L 205.327059 229.680853 
L 209.422728 231.74741 
L 213.518397 230.714132 
L 217.614066 228.647574 
L 221.709735 230.025279 
L 225.805404 228.992001 
L 229.901073 228.647574 
L 233.996742 230.369706 
L 238.092411 228.647574 
L 242.18808 228.992001 
L 246.283749 227.958722 
L 250.379418 230.369706 
L 254.475087 228.992001 
L 258.570756 228.303148 
L 262.666425 229.336427 
L 266.762094 231.402984 
L 270.857763 229.680853 
L 274.953432 230.369706 
L 279.049101 228.992001 
L 283.144771 228.992001 
L 287.24044 229.336427 
L 291.336109 229.336427 
L 295.431778 231.058558 
L 299.527447 230.025279 
L 303.623116 229.336427 
L 307.718785 230.369706 
L 311.814454 228.647574 
L 315.910123 230.025279 
L 320.005792 228.647574 
L 324.101461 230.714132 
L 328.19713 228.303148 
L 332.292799 227.958722 
L 336.388468 227.614296 
L 340.484137 227.958722 
L 344.579806 229.336427 
L 348.675475 227.614296 
L 352.771144 229.336427 
L 356.866813 228.303148 
L 360.962482 228.647574 
L 365.058151 226.581017 
L 369.15382 230.025279 
L 373.249489 227.958722 
L 377.345158 226.925443 
L 381.440827 226.925443 
L 385.536496 229.336427 
L 389.632165 228.303148 
L 393.727835 226.925443 
L 397.823504 224.51446 
L 401.919173 229.336427 
L 406.014842 223.136755 
L 410.110511 225.892165 
L 414.20618 224.170034 
L 418.301849 225.547739 
L 422.397518 224.858886 
L 426.493187 221.414624 
L 430.588856 220.725771 
L 434.684525 215.559378 
L 438.780194 219.00364 
L 442.875863 206.25987 
L 446.971532 194.204953 
L 451.067201 184.905445 
L 455.16287 155.629216 
L 459.258539 140.818889 
L 463.354208 95.354628 
L 467.449877 71.244793 
L 471.545546 60.223154 
L 475.641215 90.188235 
L 479.736884 120.153316 
L 483.832553 142.885446 
L 487.928222 159.417905 
L 492.023891 188.349707 
L 496.11956 204.882165 
L 500.215229 204.537739 
L 504.310899 205.915444 
L 508.406568 218.314788 
L 512.502237 222.103476 
L 516.597906 221.414624 
L 520.693575 223.136755 
L 524.789244 227.958722 
L 528.884913 228.303148 
L 532.980582 223.136755 
L 537.076251 225.547739 
L 541.17192 228.992001 
L 545.267589 226.925443 
L 549.363258 228.992001 
L 553.458927 226.236591 
L 557.554596 227.614296 
L 561.650265 226.581017 
L 565.745934 228.303148 
L 569.841603 228.647574 
L 573.937272 227.614296 
L 578.032941 226.581017 
L 582.12861 228.647574 
L 586.224279 230.714132 
L 590.319948 228.992001 
L 594.415617 230.025279 
L 598.511286 229.336427 
L 602.606955 227.26987 
L 606.702624 231.058558 
L 610.798293 228.647574 
L 614.893963 227.614296 
L 618.989632 229.680853 
L 623.085301 228.303148 
L 627.18097 227.614296 
L 631.276639 228.303148 
L 635.372308 230.714132 
" style="fill:none;stroke:#9467bd;stroke-linecap:square;stroke-width:1.5;"/>
   </g>
   <g id="patch_3">
    <path d="M 138.24 447.372 
L 138.24 52.632 
" style="fill:none;stroke:#000000;stroke-linecap:square;stroke-linejoin:miter;stroke-width:0.8;"/>
   </g>
   <g id="patch_4">
    <path d="M 645.12 447.372 
L 645.12 52.632 
" style="fill:none;stroke:#000000;stroke-linecap:square;stroke-linejoin:miter;stroke-width:0.8;"/>
   </g>
   <g id="patch_5">
    <path d="M 138.24 447.372 
L 645.12 447.372 
" style="fill:none;stroke:#000000;stroke-linecap:square;stroke-linejoin:miter;stroke-width:0.8;"/>
   </g>
   <g id="patch_6">
    <path d="M 138.24 52.632 
L 645.12 52.632 
" style="fill:none;stroke:#000000;stroke-linecap:square;stroke-linejoin:miter;stroke-width:0.8;"/>
   </g>
   <g id="text_16">
    <!--  -->
    <g transform="translate(898.56 29.77895)scale(0.08 -0.08)"/>
    <!-- Plot created Wed Jan 16 15:44:59 2019 -->
    <defs>
     <path d="M 19.671875 64.796875 
L 19.671875 37.40625 
L 32.078125 37.40625 
Q 38.96875 37.40625 42.71875 40.96875 
Q 46.484375 44.53125 46.484375 51.125 
Q 46.484375 57.671875 42.71875 61.234375 
Q 38.96875 64.796875 32.078125 64.796875 
z
M 9.8125 72.90625 
L 32.078125 72.90625 
Q 44.34375 72.90625 50.609375 67.359375 
Q 56.890625 61.8125 56.890625 51.125 
Q 56.890625 40.328125 50.609375 34.8125 
Q 44.34375 29.296875 32.078125 29.296875 
L 19.671875 29.296875 
L 19.671875 0 
L 9.8125 0 
z
" id="DejaVuSans-50"/>
     <path d="M 9.421875 75.984375 
L 18.40625 75.984375 
L 18.40625 0 
L 9.421875 0 
z
" id="DejaVuSans-6c"/>
     <path d="M 48.78125 52.59375 
L 48.78125 44.1875 
Q 44.96875 46.296875 41.140625 47.34375 
Q 37.3125 48.390625 33.40625 48.390625 
Q 24.65625 48.390625 19.8125 42.84375 
Q 14.984375 37.3125 14.984375 27.296875 
Q 14.984375 17.28125 19.8125 11.734375 
Q 24.65625 6.203125 33.40625 6.203125 
Q 37.3125 6.203125 41.140625 7.25 
Q 44.96875 8.296875 48.78125 10.40625 
L 48.78125 2.09375 
Q 45.015625 0.34375 40.984375 -0.53125 
Q 36.96875 -1.421875 32.421875 -1.421875 
Q 20.0625 -1.421875 12.78125 6.34375 
Q 5.515625 14.109375 5.515625 27.296875 
Q 5.515625 40.671875 12.859375 48.328125 
Q 20.21875 56 33.015625 56 
Q 37.15625 56 41.109375 55.140625 
Q 45.0625 54.296875 48.78125 52.59375 
" id="DejaVuSans-63"/>
     <path d="M 41.109375 46.296875 
Q 39.59375 47.171875 37.8125 47.578125 
Q 36.03125 48 33.890625 48 
Q 26.265625 48 22.1875 43.046875 
Q 18.109375 38.09375 18.109375 28.8125 
L 18.109375 0 
L 9.078125 0 
L 9.078125 54.6875 
L 18.109375 54.6875 
L 18.109375 46.1875 
Q 20.953125 51.171875 25.484375 53.578125 
Q 30.03125 56 36.53125 56 
Q 37.453125 56 38.578125 55.875 
Q 39.703125 55.765625 41.0625 55.515625 
z
" id="DejaVuSans-72"/>
     <path d="M 34.28125 27.484375 
Q 23.390625 27.484375 19.1875 25 
Q 14.984375 22.515625 14.984375 16.5 
Q 14.984375 11.71875 18.140625 8.90625 
Q 21.296875 6.109375 26.703125 6.109375 
Q 34.1875 6.109375 38.703125 11.40625 
Q 43.21875 16.703125 43.21875 25.484375 
L 43.21875 27.484375 
z
M 52.203125 31.203125 
L 52.203125 0 
L 43.21875 0 
L 43.21875 8.296875 
Q 40.140625 3.328125 35.546875 0.953125 
Q 30.953125 -1.421875 24.3125 -1.421875 
Q 15.921875 -1.421875 10.953125 3.296875 
Q 6 8.015625 6 15.921875 
Q 6 25.140625 12.171875 29.828125 
Q 18.359375 34.515625 30.609375 34.515625 
L 43.21875 34.515625 
L 43.21875 35.40625 
Q 43.21875 41.609375 39.140625 45 
Q 35.0625 48.390625 27.6875 48.390625 
Q 23 48.390625 18.546875 47.265625 
Q 14.109375 46.140625 10.015625 43.890625 
L 10.015625 52.203125 
Q 14.9375 54.109375 19.578125 55.046875 
Q 24.21875 56 28.609375 56 
Q 40.484375 56 46.34375 49.84375 
Q 52.203125 43.703125 52.203125 31.203125 
" id="DejaVuSans-61"/>
     <path d="M 45.40625 46.390625 
L 45.40625 75.984375 
L 54.390625 75.984375 
L 54.390625 0 
L 45.40625 0 
L 45.40625 8.203125 
Q 42.578125 3.328125 38.25 0.953125 
Q 33.9375 -1.421875 27.875 -1.421875 
Q 17.96875 -1.421875 11.734375 6.484375 
Q 5.515625 14.40625 5.515625 27.296875 
Q 5.515625 40.1875 11.734375 48.09375 
Q 17.96875 56 27.875 56 
Q 33.9375 56 38.25 53.625 
Q 42.578125 51.265625 45.40625 46.390625 
M 14.796875 27.296875 
Q 14.796875 17.390625 18.875 11.75 
Q 22.953125 6.109375 30.078125 6.109375 
Q 37.203125 6.109375 41.296875 11.75 
Q 45.40625 17.390625 45.40625 27.296875 
Q 45.40625 37.203125 41.296875 42.84375 
Q 37.203125 48.484375 30.078125 48.484375 
Q 22.953125 48.484375 18.875 42.84375 
Q 14.796875 37.203125 14.796875 27.296875 
" id="DejaVuSans-64"/>
     <path d="M 3.328125 72.90625 
L 13.28125 72.90625 
L 28.609375 11.28125 
L 43.890625 72.90625 
L 54.984375 72.90625 
L 70.3125 11.28125 
L 85.59375 72.90625 
L 95.609375 72.90625 
L 77.296875 0 
L 64.890625 0 
L 49.515625 63.28125 
L 33.984375 0 
L 21.578125 0 
z
" id="DejaVuSans-57"/>
     <path d="M 9.8125 72.90625 
L 19.671875 72.90625 
L 19.671875 5.078125 
Q 19.671875 -8.109375 14.671875 -14.0625 
Q 9.671875 -20.015625 -1.421875 -20.015625 
L -5.171875 -20.015625 
L -5.171875 -11.71875 
L -2.09375 -11.71875 
Q 4.4375 -11.71875 7.125 -8.046875 
Q 9.8125 -4.390625 9.8125 5.078125 
z
" id="DejaVuSans-4a"/>
     <path d="M 11.71875 12.40625 
L 22.015625 12.40625 
L 22.015625 0 
L 11.71875 0 
z
M 11.71875 51.703125 
L 22.015625 51.703125 
L 22.015625 39.3125 
L 11.71875 39.3125 
z
" id="DejaVuSans-3a"/>
    </defs>
    <g transform="translate(740.8725 38.7372)scale(0.08 -0.08)">
     <use xlink:href="#DejaVuSans-50"/>
     <use x="60.302734" xlink:href="#DejaVuSans-6c"/>
     <use x="88.085938" xlink:href="#DejaVuSans-6f"/>
     <use x="149.267578" xlink:href="#DejaVuSans-74"/>
     <use x="188.476562" xlink:href="#DejaVuSans-20"/>
     <use x="220.263672" xlink:href="#DejaVuSans-63"/>
     <use x="275.244141" xlink:href="#DejaVuSans-72"/>
     <use x="316.326172" xlink:href="#DejaVuSans-65"/>
     <use x="377.849609" xlink:href="#DejaVuSans-61"/>
     <use x="439.128906" xlink:href="#DejaVuSans-74"/>
     <use x="478.337891" xlink:href="#DejaVuSans-65"/>
     <use x="539.861328" xlink:href="#DejaVuSans-64"/>
     <use x="603.337891" xlink:href="#DejaVuSans-20"/>
     <use x="635.125" xlink:href="#DejaVuSans-57"/>
     <use x="733.923828" xlink:href="#DejaVuSans-65"/>
     <use x="795.447266" xlink:href="#DejaVuSans-64"/>
     <use x="858.923828" xlink:href="#DejaVuSans-20"/>
     <use x="890.710938" xlink:href="#DejaVuSans-4a"/>
     <use x="920.203125" xlink:href="#DejaVuSans-61"/>
     <use x="981.482422" xlink:href="#DejaVuSans-6e"/>
     <use x="1044.861328" xlink:href="#DejaVuSans-20"/>
     <use x="1076.648438" xlink:href="#DejaVuSans-31"/>
     <use x="1140.271484" xlink:href="#DejaVuSans-36"/>
     <use x="1203.894531" xlink:href="#DejaVuSans-20"/>
     <use x="1235.681641" xlink:href="#DejaVuSans-31"/>
     <use x="1299.304688" xlink:href="#DejaVuSans-35"/>
     <use x="1362.927734" xlink:href="#DejaVuSans-3a"/>
     <use x="1396.619141" xlink:href="#DejaVuSans-34"/>
     <use x="1460.242188" xlink:href="#DejaVuSans-34"/>
     <use x="1523.865234" xlink:href="#DejaVuSans-3a"/>
     <use x="1557.556641" xlink:href="#DejaVuSans-35"/>
     <use x="1621.179688" xlink:href="#DejaVuSans-39"/>
     <use x="1684.802734" xlink:href="#DejaVuSans-20"/>
     <use x="1716.589844" xlink:href="#DejaVuSans-32"/>
     <use x="1780.212891" xlink:href="#DejaVuSans-30"/>
     <use x="1843.835938" xlink:href="#DejaVuSans-31"/>
     <use x="1907.458984" xlink:href="#DejaVuSans-39"/>
    </g>
   </g>
   <g id="legend_1">
    <g id="patch_7">
     <path d="M 651.5888 447.372 
L 736.75255 447.372 
Q 738.15255 447.372 738.15255 445.972 
L 738.15255 400.618562 
Q 738.15255 399.218562 736.75255 399.218562 
L 651.5888 399.218562 
Q 650.1888 399.218562 650.1888 400.618562 
L 650.1888 445.972 
Q 650.1888 447.372 651.5888 447.372 
z
" style="fill:#ffffff;opacity:0.8;stroke:#cccccc;stroke-linejoin:miter;"/>
    </g>
    <g id="line2d_19">
     <path d="M 650.3288 402.227469 
L 664.3288 402.227469 
" style="fill:none;stroke:#1f77b4;stroke-linecap:square;stroke-width:1.5;"/>
    </g>
    <g id="line2d_20"/>
    <g id="text_17">
     <!-- 0: Cu 100% - Ni 0% -->
     <defs>
      <path d="M 72.703125 32.078125 
Q 68.453125 32.078125 66.03125 28.46875 
Q 63.625 24.859375 63.625 18.40625 
Q 63.625 12.0625 66.03125 8.421875 
Q 68.453125 4.78125 72.703125 4.78125 
Q 76.859375 4.78125 79.265625 8.421875 
Q 81.6875 12.0625 81.6875 18.40625 
Q 81.6875 24.8125 79.265625 28.4375 
Q 76.859375 32.078125 72.703125 32.078125 
M 72.703125 38.28125 
Q 80.421875 38.28125 84.953125 32.90625 
Q 89.5 27.546875 89.5 18.40625 
Q 89.5 9.28125 84.9375 3.921875 
Q 80.375 -1.421875 72.703125 -1.421875 
Q 64.890625 -1.421875 60.34375 3.921875 
Q 55.8125 9.28125 55.8125 18.40625 
Q 55.8125 27.59375 60.375 32.9375 
Q 64.9375 38.28125 72.703125 38.28125 
M 22.3125 68.015625 
Q 18.109375 68.015625 15.6875 64.375 
Q 13.28125 60.75 13.28125 54.390625 
Q 13.28125 47.953125 15.671875 44.328125 
Q 18.0625 40.71875 22.3125 40.71875 
Q 26.5625 40.71875 28.96875 44.328125 
Q 31.390625 47.953125 31.390625 54.390625 
Q 31.390625 60.6875 28.953125 64.34375 
Q 26.515625 68.015625 22.3125 68.015625 
M 66.40625 74.21875 
L 74.21875 74.21875 
L 28.609375 -1.421875 
L 20.796875 -1.421875 
z
M 22.3125 74.21875 
Q 30.03125 74.21875 34.609375 68.875 
Q 39.203125 63.53125 39.203125 54.390625 
Q 39.203125 45.171875 34.640625 39.84375 
Q 30.078125 34.515625 22.3125 34.515625 
Q 14.546875 34.515625 10.03125 39.859375 
Q 5.515625 45.21875 5.515625 54.390625 
Q 5.515625 63.484375 10.046875 68.84375 
Q 14.59375 74.21875 22.3125 74.21875 
" id="DejaVuSans-25"/>
      <path d="M 4.890625 31.390625 
L 31.203125 31.390625 
L 31.203125 23.390625 
L 4.890625 23.390625 
z
" id="DejaVuSans-2d"/>
      <path d="M 9.8125 72.90625 
L 23.09375 72.90625 
L 55.421875 11.921875 
L 55.421875 72.90625 
L 64.984375 72.90625 
L 64.984375 0 
L 51.703125 0 
L 19.390625 60.984375 
L 19.390625 0 
L 9.8125 0 
z
" id="DejaVuSans-4e"/>
     </defs>
     <g transform="translate(669.9288 404.677469)scale(0.07 -0.07)">
      <use xlink:href="#DejaVuSans-30"/>
      <use x="63.623047" xlink:href="#DejaVuSans-3a"/>
      <use x="97.314453" xlink:href="#DejaVuSans-20"/>
      <use x="129.101562" xlink:href="#DejaVuSans-43"/>
      <use x="198.925781" xlink:href="#DejaVuSans-75"/>
      <use x="262.304688" xlink:href="#DejaVuSans-20"/>
      <use x="294.091797" xlink:href="#DejaVuSans-31"/>
      <use x="357.714844" xlink:href="#DejaVuSans-30"/>
      <use x="421.337891" xlink:href="#DejaVuSans-30"/>
      <use x="484.960938" xlink:href="#DejaVuSans-25"/>
      <use x="579.980469" xlink:href="#DejaVuSans-20"/>
      <use x="611.767578" xlink:href="#DejaVuSans-2d"/>
      <use x="647.851562" xlink:href="#DejaVuSans-20"/>
      <use x="679.638672" xlink:href="#DejaVuSans-4e"/>
      <use x="754.443359" xlink:href="#DejaVuSans-69"/>
      <use x="782.226562" xlink:href="#DejaVuSans-20"/>
      <use x="814.013672" xlink:href="#DejaVuSans-30"/>
      <use x="877.636719" xlink:href="#DejaVuSans-25"/>
     </g>
    </g>
    <g id="line2d_21">
     <path d="M 650.3288 412.502156 
L 664.3288 412.502156 
" style="fill:none;stroke:#ff7f0e;stroke-linecap:square;stroke-width:1.5;"/>
    </g>
    <g id="line2d_22"/>
    <g id="text_18">
     <!-- 1: Cu 75% - Ni 25% -->
     <defs>
      <path d="M 8.203125 72.90625 
L 55.078125 72.90625 
L 55.078125 68.703125 
L 28.609375 0 
L 18.3125 0 
L 43.21875 64.59375 
L 8.203125 64.59375 
z
" id="DejaVuSans-37"/>
     </defs>
     <g transform="translate(669.9288 414.952156)scale(0.07 -0.07)">
      <use xlink:href="#DejaVuSans-31"/>
      <use x="63.623047" xlink:href="#DejaVuSans-3a"/>
      <use x="97.314453" xlink:href="#DejaVuSans-20"/>
      <use x="129.101562" xlink:href="#DejaVuSans-43"/>
      <use x="198.925781" xlink:href="#DejaVuSans-75"/>
      <use x="262.304688" xlink:href="#DejaVuSans-20"/>
      <use x="294.091797" xlink:href="#DejaVuSans-37"/>
      <use x="357.714844" xlink:href="#DejaVuSans-35"/>
      <use x="421.337891" xlink:href="#DejaVuSans-25"/>
      <use x="516.357422" xlink:href="#DejaVuSans-20"/>
      <use x="548.144531" xlink:href="#DejaVuSans-2d"/>
      <use x="584.228516" xlink:href="#DejaVuSans-20"/>
      <use x="616.015625" xlink:href="#DejaVuSans-4e"/>
      <use x="690.820312" xlink:href="#DejaVuSans-69"/>
      <use x="718.603516" xlink:href="#DejaVuSans-20"/>
      <use x="750.390625" xlink:href="#DejaVuSans-32"/>
      <use x="814.013672" xlink:href="#DejaVuSans-35"/>
      <use x="877.636719" xlink:href="#DejaVuSans-25"/>
     </g>
    </g>
    <g id="line2d_23">
     <path d="M 650.3288 422.776844 
L 664.3288 422.776844 
" style="fill:none;stroke:#2ca02c;stroke-linecap:square;stroke-width:1.5;"/>
    </g>
    <g id="line2d_24"/>
    <g id="text_19">
     <!-- 2: Cu 50% - Ni 50% -->
     <g transform="translate(669.9288 425.226844)scale(0.07 -0.07)">
      <use xlink:href="#DejaVuSans-32"/>
      <use x="63.623047" xlink:href="#DejaVuSans-3a"/>
      <use x="97.314453" xlink:href="#DejaVuSans-20"/>
      <use x="129.101562" xlink:href="#DejaVuSans-43"/>
      <use x="198.925781" xlink:href="#DejaVuSans-75"/>
      <use x="262.304688" xlink:href="#DejaVuSans-20"/>
      <use x="294.091797" xlink:href="#DejaVuSans-35"/>
      <use x="357.714844" xlink:href="#DejaVuSans-30"/>
      <use x="421.337891" xlink:href="#DejaVuSans-25"/>
      <use x="516.357422" xlink:href="#DejaVuSans-20"/>
      <use x="548.144531" xlink:href="#DejaVuSans-2d"/>
      <use x="584.228516" xlink:href="#DejaVuSans-20"/>
      <use x="616.015625" xlink:href="#DejaVuSans-4e"/>
      <use x="690.820312" xlink:href="#DejaVuSans-69"/>
      <use x="718.603516" xlink:href="#DejaVuSans-20"/>
      <use x="750.390625" xlink:href="#DejaVuSans-35"/>
      <use x="814.013672" xlink:href="#DejaVuSans-30"/>
      <use x="877.636719" xlink:href="#DejaVuSans-25"/>
     </g>
    </g>
    <g id="line2d_25">
     <path d="M 650.3288 433.051531 
L 664.3288 433.051531 
" style="fill:none;stroke:#d62728;stroke-linecap:square;stroke-width:1.5;"/>
    </g>
    <g id="line2d_26"/>
    <g id="text_20">
     <!-- 3: Cu 25% - Ni 75% -->
     <g transform="translate(669.9288 435.501531)scale(0.07 -0.07)">
      <use xlink:href="#DejaVuSans-33"/>
      <use x="63.623047" xlink:href="#DejaVuSans-3a"/>
      <use x="97.314453" xlink:href="#DejaVuSans-20"/>
      <use x="129.101562" xlink:href="#DejaVuSans-43"/>
      <use x="198.925781" xlink:href="#DejaVuSans-75"/>
      <use x="262.304688" xlink:href="#DejaVuSans-20"/>
      <use x="294.091797" xlink:href="#DejaVuSans-32"/>
      <use x="357.714844" xlink:href="#DejaVuSans-35"/>
      <use x="421.337891" xlink:href="#DejaVuSans-25"/>
      <use x="516.357422" xlink:href="#DejaVuSans-20"/>
      <use x="548.144531" xlink:href="#DejaVuSans-2d"/>
      <use x="584.228516" xlink:href="#DejaVuSans-20"/>
      <use x="616.015625" xlink:href="#DejaVuSans-4e"/>
      <use x="690.820312" xlink:href="#DejaVuSans-69"/>
      <use x="718.603516" xlink:href="#DejaVuSans-20"/>
      <use x="750.390625" xlink:href="#DejaVuSans-37"/>
      <use x="814.013672" xlink:href="#DejaVuSans-35"/>
      <use x="877.636719" xlink:href="#DejaVuSans-25"/>
     </g>
    </g>
    <g id="line2d_27">
     <path d="M 650.3288 443.326219 
L 664.3288 443.326219 
" style="fill:none;stroke:#9467bd;stroke-linecap:square;stroke-width:1.5;"/>
    </g>
    <g id="line2d_28"/>
    <g id="text_21">
     <!-- 4: Cu 0% - Ni 100% -->
     <g transform="translate(669.9288 445.776219)scale(0.07 -0.07)">
      <use xlink:href="#DejaVuSans-34"/>
      <use x="63.623047" xlink:href="#DejaVuSans-3a"/>
      <use x="97.314453" xlink:href="#DejaVuSans-20"/>
      <use x="129.101562" xlink:href="#DejaVuSans-43"/>
      <use x="198.925781" xlink:href="#DejaVuSans-75"/>
      <use x="262.304688" xlink:href="#DejaVuSans-20"/>
      <use x="294.091797" xlink:href="#DejaVuSans-30"/>
      <use x="357.714844" xlink:href="#DejaVuSans-25"/>
      <use x="452.734375" xlink:href="#DejaVuSans-20"/>
      <use x="484.521484" xlink:href="#DejaVuSans-2d"/>
      <use x="520.605469" xlink:href="#DejaVuSans-20"/>
      <use x="552.392578" xlink:href="#DejaVuSans-4e"/>
      <use x="627.197266" xlink:href="#DejaVuSans-69"/>
      <use x="654.980469" xlink:href="#DejaVuSans-20"/>
      <use x="686.767578" xlink:href="#DejaVuSans-31"/>
      <use x="750.390625" xlink:href="#DejaVuSans-30"/>
      <use x="814.013672" xlink:href="#DejaVuSans-30"/>
      <use x="877.636719" xlink:href="#DejaVuSans-25"/>
     </g>
    </g>
   </g>
  </g>
 </g>
 <defs>
  <clipPath id="pd3bd120706">
   <rect height="394.74" width="506.88" x="138.24" y="52.632"/>
  </clipPath>
 </defs>
</svg>
