<?xml version="1.0" encoding="utf-8" standalone="no"?>
<!DOCTYPE svg PUBLIC "-//W3C//DTD SVG 1.1//EN"
  "http://www.w3.org/Graphics/SVG/1.1/DTD/svg11.dtd">
<!-- Created with matplotlib (http://matplotlib.org/) -->
<svg height="526pt" version="1.1" viewBox="0 0 921 526" width="921pt" xmlns="http://www.w3.org/2000/svg" xmlns:xlink="http://www.w3.org/1999/xlink">
 <defs>
  <style type="text/css">
*{stroke-linecap:butt;stroke-linejoin:round;}
  </style>
 </defs>
 <g id="figure_1">
  <g id="patch_1">
   <path d="M 0 526.32 
L 921.6 526.32 
L 921.6 0 
L 0 0 
z
" style="fill:#ffffff;"/>
  </g>
  <g id="axes_1">
   <g id="patch_2">
    <path d="M 138.24 447.372 
L 645.12 447.372 
L 645.12 52.632 
L 138.24 52.632 
z
" style="fill:#ffffff;"/>
   </g>
   <g id="matplotlib.axis_1">
    <g id="xtick_1">
     <g id="line2d_1">
      <defs>
       <path d="M 0 0 
L 0 3.5 
" id="m8f0bc4824b" style="stroke:#000000;stroke-width:0.8;"/>
      </defs>
      <g>
       <use style="stroke:#000000;stroke-width:0.8;" x="147.987692" xlink:href="#m8f0bc4824b" y="447.372"/>
      </g>
     </g>
     <g id="text_1">
      <!-- 42.0 -->
      <defs>
       <path d="M 37.796875 64.3125 
L 12.890625 25.390625 
L 37.796875 25.390625 
z
M 35.203125 72.90625 
L 47.609375 72.90625 
L 47.609375 25.390625 
L 58.015625 25.390625 
L 58.015625 17.1875 
L 47.609375 17.1875 
L 47.609375 0 
L 37.796875 0 
L 37.796875 17.1875 
L 4.890625 17.1875 
L 4.890625 26.703125 
z
" id="DejaVuSans-34"/>
       <path d="M 19.1875 8.296875 
L 53.609375 8.296875 
L 53.609375 0 
L 7.328125 0 
L 7.328125 8.296875 
Q 12.9375 14.109375 22.625 23.890625 
Q 32.328125 33.6875 34.8125 36.53125 
Q 39.546875 41.84375 41.421875 45.53125 
Q 43.3125 49.21875 43.3125 52.78125 
Q 43.3125 58.59375 39.234375 62.25 
Q 35.15625 65.921875 28.609375 65.921875 
Q 23.96875 65.921875 18.8125 64.3125 
Q 13.671875 62.703125 7.8125 59.421875 
L 7.8125 69.390625 
Q 13.765625 71.78125 18.9375 73 
Q 24.125 74.21875 28.421875 74.21875 
Q 39.75 74.21875 46.484375 68.546875 
Q 53.21875 62.890625 53.21875 53.421875 
Q 53.21875 48.921875 51.53125 44.890625 
Q 49.859375 40.875 45.40625 35.40625 
Q 44.1875 33.984375 37.640625 27.21875 
Q 31.109375 20.453125 19.1875 8.296875 
" id="DejaVuSans-32"/>
       <path d="M 10.6875 12.40625 
L 21 12.40625 
L 21 0 
L 10.6875 0 
z
" id="DejaVuSans-2e"/>
       <path d="M 31.78125 66.40625 
Q 24.171875 66.40625 20.328125 58.90625 
Q 16.5 51.421875 16.5 36.375 
Q 16.5 21.390625 20.328125 13.890625 
Q 24.171875 6.390625 31.78125 6.390625 
Q 39.453125 6.390625 43.28125 13.890625 
Q 47.125 21.390625 47.125 36.375 
Q 47.125 51.421875 43.28125 58.90625 
Q 39.453125 66.40625 31.78125 66.40625 
M 31.78125 74.21875 
Q 44.046875 74.21875 50.515625 64.515625 
Q 56.984375 54.828125 56.984375 36.375 
Q 56.984375 17.96875 50.515625 8.265625 
Q 44.046875 -1.421875 31.78125 -1.421875 
Q 19.53125 -1.421875 13.0625 8.265625 
Q 6.59375 17.96875 6.59375 36.375 
Q 6.59375 54.828125 13.0625 64.515625 
Q 19.53125 74.21875 31.78125 74.21875 
" id="DejaVuSans-30"/>
      </defs>
      <g transform="translate(136.85488 461.970437)scale(0.1 -0.1)">
       <use xlink:href="#DejaVuSans-34"/>
       <use x="63.623047" xlink:href="#DejaVuSans-32"/>
       <use x="127.246094" xlink:href="#DejaVuSans-2e"/>
       <use x="159.033203" xlink:href="#DejaVuSans-30"/>
      </g>
     </g>
    </g>
    <g id="xtick_2">
     <g id="line2d_2">
      <g>
       <use style="stroke:#000000;stroke-width:0.8;" x="209.681947" xlink:href="#m8f0bc4824b" y="447.372"/>
      </g>
     </g>
     <g id="text_2">
      <!-- 42.5 -->
      <defs>
       <path d="M 10.796875 72.90625 
L 49.515625 72.90625 
L 49.515625 64.59375 
L 19.828125 64.59375 
L 19.828125 46.734375 
Q 21.96875 47.46875 24.109375 47.828125 
Q 26.265625 48.1875 28.421875 48.1875 
Q 40.625 48.1875 47.75 41.5 
Q 54.890625 34.8125 54.890625 23.390625 
Q 54.890625 11.625 47.5625 5.09375 
Q 40.234375 -1.421875 26.90625 -1.421875 
Q 22.3125 -1.421875 17.546875 -0.640625 
Q 12.796875 0.140625 7.71875 1.703125 
L 7.71875 11.625 
Q 12.109375 9.234375 16.796875 8.0625 
Q 21.484375 6.890625 26.703125 6.890625 
Q 35.15625 6.890625 40.078125 11.328125 
Q 45.015625 15.765625 45.015625 23.390625 
Q 45.015625 31 40.078125 35.4375 
Q 35.15625 39.890625 26.703125 39.890625 
Q 22.75 39.890625 18.8125 39.015625 
Q 14.890625 38.140625 10.796875 36.28125 
z
" id="DejaVuSans-35"/>
      </defs>
      <g transform="translate(198.549135 461.970437)scale(0.1 -0.1)">
       <use xlink:href="#DejaVuSans-34"/>
       <use x="63.623047" xlink:href="#DejaVuSans-32"/>
       <use x="127.246094" xlink:href="#DejaVuSans-2e"/>
       <use x="159.033203" xlink:href="#DejaVuSans-35"/>
      </g>
     </g>
    </g>
    <g id="xtick_3">
     <g id="line2d_3">
      <g>
       <use style="stroke:#000000;stroke-width:0.8;" x="271.376203" xlink:href="#m8f0bc4824b" y="447.372"/>
      </g>
     </g>
     <g id="text_3">
      <!-- 43.0 -->
      <defs>
       <path d="M 40.578125 39.3125 
Q 47.65625 37.796875 51.625 33 
Q 55.609375 28.21875 55.609375 21.1875 
Q 55.609375 10.40625 48.1875 4.484375 
Q 40.765625 -1.421875 27.09375 -1.421875 
Q 22.515625 -1.421875 17.65625 -0.515625 
Q 12.796875 0.390625 7.625 2.203125 
L 7.625 11.71875 
Q 11.71875 9.328125 16.59375 8.109375 
Q 21.484375 6.890625 26.8125 6.890625 
Q 36.078125 6.890625 40.9375 10.546875 
Q 45.796875 14.203125 45.796875 21.1875 
Q 45.796875 27.640625 41.28125 31.265625 
Q 36.765625 34.90625 28.71875 34.90625 
L 20.21875 34.90625 
L 20.21875 43.015625 
L 29.109375 43.015625 
Q 36.375 43.015625 40.234375 45.921875 
Q 44.09375 48.828125 44.09375 54.296875 
Q 44.09375 59.90625 40.109375 62.90625 
Q 36.140625 65.921875 28.71875 65.921875 
Q 24.65625 65.921875 20.015625 65.03125 
Q 15.375 64.15625 9.8125 62.3125 
L 9.8125 71.09375 
Q 15.4375 72.65625 20.34375 73.4375 
Q 25.25 74.21875 29.59375 74.21875 
Q 40.828125 74.21875 47.359375 69.109375 
Q 53.90625 64.015625 53.90625 55.328125 
Q 53.90625 49.265625 50.4375 45.09375 
Q 46.96875 40.921875 40.578125 39.3125 
" id="DejaVuSans-33"/>
      </defs>
      <g transform="translate(260.24339 461.970437)scale(0.1 -0.1)">
       <use xlink:href="#DejaVuSans-34"/>
       <use x="63.623047" xlink:href="#DejaVuSans-33"/>
       <use x="127.246094" xlink:href="#DejaVuSans-2e"/>
       <use x="159.033203" xlink:href="#DejaVuSans-30"/>
      </g>
     </g>
    </g>
    <g id="xtick_4">
     <g id="line2d_4">
      <g>
       <use style="stroke:#000000;stroke-width:0.8;" x="333.070458" xlink:href="#m8f0bc4824b" y="447.372"/>
      </g>
     </g>
     <g id="text_4">
      <!-- 43.5 -->
      <g transform="translate(321.937645 461.970437)scale(0.1 -0.1)">
       <use xlink:href="#DejaVuSans-34"/>
       <use x="63.623047" xlink:href="#DejaVuSans-33"/>
       <use x="127.246094" xlink:href="#DejaVuSans-2e"/>
       <use x="159.033203" xlink:href="#DejaVuSans-35"/>
      </g>
     </g>
    </g>
    <g id="xtick_5">
     <g id="line2d_5">
      <g>
       <use style="stroke:#000000;stroke-width:0.8;" x="394.764713" xlink:href="#m8f0bc4824b" y="447.372"/>
      </g>
     </g>
     <g id="text_5">
      <!-- 44.0 -->
      <g transform="translate(383.6319 461.970437)scale(0.1 -0.1)">
       <use xlink:href="#DejaVuSans-34"/>
       <use x="63.623047" xlink:href="#DejaVuSans-34"/>
       <use x="127.246094" xlink:href="#DejaVuSans-2e"/>
       <use x="159.033203" xlink:href="#DejaVuSans-30"/>
      </g>
     </g>
    </g>
    <g id="xtick_6">
     <g id="line2d_6">
      <g>
       <use style="stroke:#000000;stroke-width:0.8;" x="456.458968" xlink:href="#m8f0bc4824b" y="447.372"/>
      </g>
     </g>
     <g id="text_6">
      <!-- 44.5 -->
      <g transform="translate(445.326155 461.970437)scale(0.1 -0.1)">
       <use xlink:href="#DejaVuSans-34"/>
       <use x="63.623047" xlink:href="#DejaVuSans-34"/>
       <use x="127.246094" xlink:href="#DejaVuSans-2e"/>
       <use x="159.033203" xlink:href="#DejaVuSans-35"/>
      </g>
     </g>
    </g>
    <g id="xtick_7">
     <g id="line2d_7">
      <g>
       <use style="stroke:#000000;stroke-width:0.8;" x="518.153223" xlink:href="#m8f0bc4824b" y="447.372"/>
      </g>
     </g>
     <g id="text_7">
      <!-- 45.0 -->
      <g transform="translate(507.02041 461.970437)scale(0.1 -0.1)">
       <use xlink:href="#DejaVuSans-34"/>
       <use x="63.623047" xlink:href="#DejaVuSans-35"/>
       <use x="127.246094" xlink:href="#DejaVuSans-2e"/>
       <use x="159.033203" xlink:href="#DejaVuSans-30"/>
      </g>
     </g>
    </g>
    <g id="xtick_8">
     <g id="line2d_8">
      <g>
       <use style="stroke:#000000;stroke-width:0.8;" x="579.847478" xlink:href="#m8f0bc4824b" y="447.372"/>
      </g>
     </g>
     <g id="text_8">
      <!-- 45.5 -->
      <g transform="translate(568.714666 461.970437)scale(0.1 -0.1)">
       <use xlink:href="#DejaVuSans-34"/>
       <use x="63.623047" xlink:href="#DejaVuSans-35"/>
       <use x="127.246094" xlink:href="#DejaVuSans-2e"/>
       <use x="159.033203" xlink:href="#DejaVuSans-35"/>
      </g>
     </g>
    </g>
    <g id="xtick_9">
     <g id="line2d_9">
      <g>
       <use style="stroke:#000000;stroke-width:0.8;" x="641.541733" xlink:href="#m8f0bc4824b" y="447.372"/>
      </g>
     </g>
     <g id="text_9">
      <!-- 46.0 -->
      <defs>
       <path d="M 33.015625 40.375 
Q 26.375 40.375 22.484375 35.828125 
Q 18.609375 31.296875 18.609375 23.390625 
Q 18.609375 15.53125 22.484375 10.953125 
Q 26.375 6.390625 33.015625 6.390625 
Q 39.65625 6.390625 43.53125 10.953125 
Q 47.40625 15.53125 47.40625 23.390625 
Q 47.40625 31.296875 43.53125 35.828125 
Q 39.65625 40.375 33.015625 40.375 
M 52.59375 71.296875 
L 52.59375 62.3125 
Q 48.875 64.0625 45.09375 64.984375 
Q 41.3125 65.921875 37.59375 65.921875 
Q 27.828125 65.921875 22.671875 59.328125 
Q 17.53125 52.734375 16.796875 39.40625 
Q 19.671875 43.65625 24.015625 45.921875 
Q 28.375 48.1875 33.59375 48.1875 
Q 44.578125 48.1875 50.953125 41.515625 
Q 57.328125 34.859375 57.328125 23.390625 
Q 57.328125 12.15625 50.6875 5.359375 
Q 44.046875 -1.421875 33.015625 -1.421875 
Q 20.359375 -1.421875 13.671875 8.265625 
Q 6.984375 17.96875 6.984375 36.375 
Q 6.984375 53.65625 15.1875 63.9375 
Q 23.390625 74.21875 37.203125 74.21875 
Q 40.921875 74.21875 44.703125 73.484375 
Q 48.484375 72.75 52.59375 71.296875 
" id="DejaVuSans-36"/>
      </defs>
      <g transform="translate(630.408921 461.970437)scale(0.1 -0.1)">
       <use xlink:href="#DejaVuSans-34"/>
       <use x="63.623047" xlink:href="#DejaVuSans-36"/>
       <use x="127.246094" xlink:href="#DejaVuSans-2e"/>
       <use x="159.033203" xlink:href="#DejaVuSans-30"/>
      </g>
     </g>
    </g>
    <g id="text_10">
     <!-- 2$\theta$ -->
     <defs>
      <path d="M 45.515625 34.671875 
L 14.453125 34.671875 
Q 12.359375 20.0625 14.5 13.875 
Q 17.1875 6.25 24.46875 6.25 
Q 31.78125 6.25 37.359375 13.921875 
Q 42.234375 20.65625 45.515625 34.671875 
M 47.015625 42.96875 
Q 48.34375 56.84375 46.625 61.71875 
Q 43.953125 69.4375 36.765625 69.4375 
Q 29.296875 69.4375 23.828125 61.8125 
Q 19.53125 55.671875 16.15625 42.96875 
z
M 38.1875 76.765625 
Q 49.90625 76.765625 54.59375 66.40625 
Q 59.28125 56.109375 55.71875 37.84375 
Q 52.203125 19.625 43.453125 9.28125 
Q 34.765625 -1.125 23.046875 -1.125 
Q 11.28125 -1.125 6.640625 9.28125 
Q 2 19.625 5.515625 37.84375 
Q 9.078125 56.109375 17.71875 66.40625 
Q 26.421875 76.765625 38.1875 76.765625 
" id="DejaVuSans-Oblique-3b8"/>
     </defs>
     <g transform="translate(385.43 475.648562)scale(0.1 -0.1)">
      <use transform="translate(0 0.234375)" xlink:href="#DejaVuSans-32"/>
      <use transform="translate(63.623047 0.234375)" xlink:href="#DejaVuSans-Oblique-3b8"/>
     </g>
    </g>
   </g>
   <g id="matplotlib.axis_2">
    <g id="ytick_1">
     <g id="line2d_10">
      <defs>
       <path d="M 0 0 
L -3.5 0 
" id="m4b51e32d37" style="stroke:#000000;stroke-width:0.8;"/>
      </defs>
      <g>
       <use style="stroke:#000000;stroke-width:0.8;" x="138.24" xlink:href="#m4b51e32d37" y="440.352182"/>
      </g>
     </g>
     <g id="text_11">
      <!-- 0 -->
      <g transform="translate(124.8775 444.151401)scale(0.1 -0.1)">
       <use xlink:href="#DejaVuSans-30"/>
      </g>
     </g>
    </g>
    <g id="ytick_2">
     <g id="line2d_11">
      <g>
       <use style="stroke:#000000;stroke-width:0.8;" x="138.24" xlink:href="#m4b51e32d37" y="392.740831"/>
      </g>
     </g>
     <g id="text_12">
      <!-- 250 -->
      <g transform="translate(112.1525 396.54005)scale(0.1 -0.1)">
       <use xlink:href="#DejaVuSans-32"/>
       <use x="63.623047" xlink:href="#DejaVuSans-35"/>
       <use x="127.246094" xlink:href="#DejaVuSans-30"/>
      </g>
     </g>
    </g>
    <g id="ytick_3">
     <g id="line2d_12">
      <g>
       <use style="stroke:#000000;stroke-width:0.8;" x="138.24" xlink:href="#m4b51e32d37" y="345.12948"/>
      </g>
     </g>
     <g id="text_13">
      <!-- 500 -->
      <g transform="translate(112.1525 348.928699)scale(0.1 -0.1)">
       <use xlink:href="#DejaVuSans-35"/>
       <use x="63.623047" xlink:href="#DejaVuSans-30"/>
       <use x="127.246094" xlink:href="#DejaVuSans-30"/>
      </g>
     </g>
    </g>
    <g id="ytick_4">
     <g id="line2d_13">
      <g>
       <use style="stroke:#000000;stroke-width:0.8;" x="138.24" xlink:href="#m4b51e32d37" y="297.518129"/>
      </g>
     </g>
     <g id="text_14">
      <!-- 750 -->
      <defs>
       <path d="M 8.203125 72.90625 
L 55.078125 72.90625 
L 55.078125 68.703125 
L 28.609375 0 
L 18.3125 0 
L 43.21875 64.59375 
L 8.203125 64.59375 
z
" id="DejaVuSans-37"/>
      </defs>
      <g transform="translate(112.1525 301.317347)scale(0.1 -0.1)">
       <use xlink:href="#DejaVuSans-37"/>
       <use x="63.623047" xlink:href="#DejaVuSans-35"/>
       <use x="127.246094" xlink:href="#DejaVuSans-30"/>
      </g>
     </g>
    </g>
    <g id="ytick_5">
     <g id="line2d_14">
      <g>
       <use style="stroke:#000000;stroke-width:0.8;" x="138.24" xlink:href="#m4b51e32d37" y="249.906777"/>
      </g>
     </g>
     <g id="text_15">
      <!-- 1000 -->
      <defs>
       <path d="M 12.40625 8.296875 
L 28.515625 8.296875 
L 28.515625 63.921875 
L 10.984375 60.40625 
L 10.984375 69.390625 
L 28.421875 72.90625 
L 38.28125 72.90625 
L 38.28125 8.296875 
L 54.390625 8.296875 
L 54.390625 0 
L 12.40625 0 
z
" id="DejaVuSans-31"/>
      </defs>
      <g transform="translate(105.79 253.705996)scale(0.1 -0.1)">
       <use xlink:href="#DejaVuSans-31"/>
       <use x="63.623047" xlink:href="#DejaVuSans-30"/>
       <use x="127.246094" xlink:href="#DejaVuSans-30"/>
       <use x="190.869141" xlink:href="#DejaVuSans-30"/>
      </g>
     </g>
    </g>
    <g id="ytick_6">
     <g id="line2d_15">
      <g>
       <use style="stroke:#000000;stroke-width:0.8;" x="138.24" xlink:href="#m4b51e32d37" y="202.295426"/>
      </g>
     </g>
     <g id="text_16">
      <!-- 1250 -->
      <g transform="translate(105.79 206.094645)scale(0.1 -0.1)">
       <use xlink:href="#DejaVuSans-31"/>
       <use x="63.623047" xlink:href="#DejaVuSans-32"/>
       <use x="127.246094" xlink:href="#DejaVuSans-35"/>
       <use x="190.869141" xlink:href="#DejaVuSans-30"/>
      </g>
     </g>
    </g>
    <g id="ytick_7">
     <g id="line2d_16">
      <g>
       <use style="stroke:#000000;stroke-width:0.8;" x="138.24" xlink:href="#m4b51e32d37" y="154.684075"/>
      </g>
     </g>
     <g id="text_17">
      <!-- 1500 -->
      <g transform="translate(105.79 158.483294)scale(0.1 -0.1)">
       <use xlink:href="#DejaVuSans-31"/>
       <use x="63.623047" xlink:href="#DejaVuSans-35"/>
       <use x="127.246094" xlink:href="#DejaVuSans-30"/>
       <use x="190.869141" xlink:href="#DejaVuSans-30"/>
      </g>
     </g>
    </g>
    <g id="ytick_8">
     <g id="line2d_17">
      <g>
       <use style="stroke:#000000;stroke-width:0.8;" x="138.24" xlink:href="#m4b51e32d37" y="107.072723"/>
      </g>
     </g>
     <g id="text_18">
      <!-- 1750 -->
      <g transform="translate(105.79 110.871942)scale(0.1 -0.1)">
       <use xlink:href="#DejaVuSans-31"/>
       <use x="63.623047" xlink:href="#DejaVuSans-37"/>
       <use x="127.246094" xlink:href="#DejaVuSans-35"/>
       <use x="190.869141" xlink:href="#DejaVuSans-30"/>
      </g>
     </g>
    </g>
    <g id="ytick_9">
     <g id="line2d_18">
      <g>
       <use style="stroke:#000000;stroke-width:0.8;" x="138.24" xlink:href="#m4b51e32d37" y="59.461372"/>
      </g>
     </g>
     <g id="text_19">
      <!-- 2000 -->
      <g transform="translate(105.79 63.260591)scale(0.1 -0.1)">
       <use xlink:href="#DejaVuSans-32"/>
       <use x="63.623047" xlink:href="#DejaVuSans-30"/>
       <use x="127.246094" xlink:href="#DejaVuSans-30"/>
       <use x="190.869141" xlink:href="#DejaVuSans-30"/>
      </g>
     </g>
    </g>
    <g id="text_20">
     <!-- Intensity [Counts] -->
     <defs>
      <path d="M 9.8125 72.90625 
L 19.671875 72.90625 
L 19.671875 0 
L 9.8125 0 
z
" id="DejaVuSans-49"/>
      <path d="M 54.890625 33.015625 
L 54.890625 0 
L 45.90625 0 
L 45.90625 32.71875 
Q 45.90625 40.484375 42.875 44.328125 
Q 39.84375 48.1875 33.796875 48.1875 
Q 26.515625 48.1875 22.3125 43.546875 
Q 18.109375 38.921875 18.109375 30.90625 
L 18.109375 0 
L 9.078125 0 
L 9.078125 54.6875 
L 18.109375 54.6875 
L 18.109375 46.1875 
Q 21.34375 51.125 25.703125 53.5625 
Q 30.078125 56 35.796875 56 
Q 45.21875 56 50.046875 50.171875 
Q 54.890625 44.34375 54.890625 33.015625 
" id="DejaVuSans-6e"/>
      <path d="M 18.3125 70.21875 
L 18.3125 54.6875 
L 36.8125 54.6875 
L 36.8125 47.703125 
L 18.3125 47.703125 
L 18.3125 18.015625 
Q 18.3125 11.328125 20.140625 9.421875 
Q 21.96875 7.515625 27.59375 7.515625 
L 36.8125 7.515625 
L 36.8125 0 
L 27.59375 0 
Q 17.1875 0 13.234375 3.875 
Q 9.28125 7.765625 9.28125 18.015625 
L 9.28125 47.703125 
L 2.6875 47.703125 
L 2.6875 54.6875 
L 9.28125 54.6875 
L 9.28125 70.21875 
z
" id="DejaVuSans-74"/>
      <path d="M 56.203125 29.59375 
L 56.203125 25.203125 
L 14.890625 25.203125 
Q 15.484375 15.921875 20.484375 11.0625 
Q 25.484375 6.203125 34.421875 6.203125 
Q 39.59375 6.203125 44.453125 7.46875 
Q 49.3125 8.734375 54.109375 11.28125 
L 54.109375 2.78125 
Q 49.265625 0.734375 44.1875 -0.34375 
Q 39.109375 -1.421875 33.890625 -1.421875 
Q 20.796875 -1.421875 13.15625 6.1875 
Q 5.515625 13.8125 5.515625 26.8125 
Q 5.515625 40.234375 12.765625 48.109375 
Q 20.015625 56 32.328125 56 
Q 43.359375 56 49.78125 48.890625 
Q 56.203125 41.796875 56.203125 29.59375 
M 47.21875 32.234375 
Q 47.125 39.59375 43.09375 43.984375 
Q 39.0625 48.390625 32.421875 48.390625 
Q 24.90625 48.390625 20.390625 44.140625 
Q 15.875 39.890625 15.1875 32.171875 
z
" id="DejaVuSans-65"/>
      <path d="M 44.28125 53.078125 
L 44.28125 44.578125 
Q 40.484375 46.53125 36.375 47.5 
Q 32.28125 48.484375 27.875 48.484375 
Q 21.1875 48.484375 17.84375 46.4375 
Q 14.5 44.390625 14.5 40.28125 
Q 14.5 37.15625 16.890625 35.375 
Q 19.28125 33.59375 26.515625 31.984375 
L 29.59375 31.296875 
Q 39.15625 29.25 43.1875 25.515625 
Q 47.21875 21.78125 47.21875 15.09375 
Q 47.21875 7.46875 41.1875 3.015625 
Q 35.15625 -1.421875 24.609375 -1.421875 
Q 20.21875 -1.421875 15.453125 -0.5625 
Q 10.6875 0.296875 5.421875 2 
L 5.421875 11.28125 
Q 10.40625 8.6875 15.234375 7.390625 
Q 20.0625 6.109375 24.8125 6.109375 
Q 31.15625 6.109375 34.5625 8.28125 
Q 37.984375 10.453125 37.984375 14.40625 
Q 37.984375 18.0625 35.515625 20.015625 
Q 33.0625 21.96875 24.703125 23.78125 
L 21.578125 24.515625 
Q 13.234375 26.265625 9.515625 29.90625 
Q 5.8125 33.546875 5.8125 39.890625 
Q 5.8125 47.609375 11.28125 51.796875 
Q 16.75 56 26.8125 56 
Q 31.78125 56 36.171875 55.265625 
Q 40.578125 54.546875 44.28125 53.078125 
" id="DejaVuSans-73"/>
      <path d="M 9.421875 54.6875 
L 18.40625 54.6875 
L 18.40625 0 
L 9.421875 0 
z
M 9.421875 75.984375 
L 18.40625 75.984375 
L 18.40625 64.59375 
L 9.421875 64.59375 
z
" id="DejaVuSans-69"/>
      <path d="M 32.171875 -5.078125 
Q 28.375 -14.84375 24.75 -17.8125 
Q 21.140625 -20.796875 15.09375 -20.796875 
L 7.90625 -20.796875 
L 7.90625 -13.28125 
L 13.1875 -13.28125 
Q 16.890625 -13.28125 18.9375 -11.515625 
Q 21 -9.765625 23.484375 -3.21875 
L 25.09375 0.875 
L 2.984375 54.6875 
L 12.5 54.6875 
L 29.59375 11.921875 
L 46.6875 54.6875 
L 56.203125 54.6875 
z
" id="DejaVuSans-79"/>
      <path id="DejaVuSans-20"/>
      <path d="M 8.59375 75.984375 
L 29.296875 75.984375 
L 29.296875 69 
L 17.578125 69 
L 17.578125 -6.203125 
L 29.296875 -6.203125 
L 29.296875 -13.1875 
L 8.59375 -13.1875 
z
" id="DejaVuSans-5b"/>
      <path d="M 64.40625 67.28125 
L 64.40625 56.890625 
Q 59.421875 61.53125 53.78125 63.8125 
Q 48.140625 66.109375 41.796875 66.109375 
Q 29.296875 66.109375 22.65625 58.46875 
Q 16.015625 50.828125 16.015625 36.375 
Q 16.015625 21.96875 22.65625 14.328125 
Q 29.296875 6.6875 41.796875 6.6875 
Q 48.140625 6.6875 53.78125 8.984375 
Q 59.421875 11.28125 64.40625 15.921875 
L 64.40625 5.609375 
Q 59.234375 2.09375 53.4375 0.328125 
Q 47.65625 -1.421875 41.21875 -1.421875 
Q 24.65625 -1.421875 15.125 8.703125 
Q 5.609375 18.84375 5.609375 36.375 
Q 5.609375 53.953125 15.125 64.078125 
Q 24.65625 74.21875 41.21875 74.21875 
Q 47.75 74.21875 53.53125 72.484375 
Q 59.328125 70.75 64.40625 67.28125 
" id="DejaVuSans-43"/>
      <path d="M 30.609375 48.390625 
Q 23.390625 48.390625 19.1875 42.75 
Q 14.984375 37.109375 14.984375 27.296875 
Q 14.984375 17.484375 19.15625 11.84375 
Q 23.34375 6.203125 30.609375 6.203125 
Q 37.796875 6.203125 41.984375 11.859375 
Q 46.1875 17.53125 46.1875 27.296875 
Q 46.1875 37.015625 41.984375 42.703125 
Q 37.796875 48.390625 30.609375 48.390625 
M 30.609375 56 
Q 42.328125 56 49.015625 48.375 
Q 55.71875 40.765625 55.71875 27.296875 
Q 55.71875 13.875 49.015625 6.21875 
Q 42.328125 -1.421875 30.609375 -1.421875 
Q 18.84375 -1.421875 12.171875 6.21875 
Q 5.515625 13.875 5.515625 27.296875 
Q 5.515625 40.765625 12.171875 48.375 
Q 18.84375 56 30.609375 56 
" id="DejaVuSans-6f"/>
      <path d="M 8.5 21.578125 
L 8.5 54.6875 
L 17.484375 54.6875 
L 17.484375 21.921875 
Q 17.484375 14.15625 20.5 10.265625 
Q 23.53125 6.390625 29.59375 6.390625 
Q 36.859375 6.390625 41.078125 11.03125 
Q 45.3125 15.671875 45.3125 23.6875 
L 45.3125 54.6875 
L 54.296875 54.6875 
L 54.296875 0 
L 45.3125 0 
L 45.3125 8.40625 
Q 42.046875 3.421875 37.71875 1 
Q 33.40625 -1.421875 27.6875 -1.421875 
Q 18.265625 -1.421875 13.375 4.4375 
Q 8.5 10.296875 8.5 21.578125 
M 31.109375 56 
z
" id="DejaVuSans-75"/>
      <path d="M 30.421875 75.984375 
L 30.421875 -13.1875 
L 9.71875 -13.1875 
L 9.71875 -6.203125 
L 21.390625 -6.203125 
L 21.390625 69 
L 9.71875 69 
L 9.71875 75.984375 
z
" id="DejaVuSans-5d"/>
     </defs>
     <g transform="translate(99.710313 294.70825)rotate(-90)scale(0.1 -0.1)">
      <use xlink:href="#DejaVuSans-49"/>
      <use x="29.492188" xlink:href="#DejaVuSans-6e"/>
      <use x="92.871094" xlink:href="#DejaVuSans-74"/>
      <use x="132.080078" xlink:href="#DejaVuSans-65"/>
      <use x="193.603516" xlink:href="#DejaVuSans-6e"/>
      <use x="256.982422" xlink:href="#DejaVuSans-73"/>
      <use x="309.082031" xlink:href="#DejaVuSans-69"/>
      <use x="336.865234" xlink:href="#DejaVuSans-74"/>
      <use x="376.074219" xlink:href="#DejaVuSans-79"/>
      <use x="435.253906" xlink:href="#DejaVuSans-20"/>
      <use x="467.041016" xlink:href="#DejaVuSans-5b"/>
      <use x="506.054688" xlink:href="#DejaVuSans-43"/>
      <use x="575.878906" xlink:href="#DejaVuSans-6f"/>
      <use x="637.060547" xlink:href="#DejaVuSans-75"/>
      <use x="700.439453" xlink:href="#DejaVuSans-6e"/>
      <use x="763.818359" xlink:href="#DejaVuSans-74"/>
      <use x="803.027344" xlink:href="#DejaVuSans-73"/>
      <use x="855.126953" xlink:href="#DejaVuSans-5d"/>
     </g>
    </g>
   </g>
   <g id="line2d_19">
    <path clip-path="url(#pd1b1653034)" d="M 147.987692 437.11461 
L 154.157118 438.638174 
L 160.326543 439.019065 
L 166.495969 438.447728 
L 172.665394 436.352829 
L 178.83482 437.495501 
L 185.004245 437.305056 
L 191.173671 436.543274 
L 197.343096 437.495501 
L 203.512522 437.495501 
L 209.681947 437.495501 
L 215.851373 437.11461 
L 222.020798 435.781493 
L 228.190224 436.352829 
L 234.359649 436.162383 
L 240.529075 435.210156 
L 246.6985 434.067484 
L 252.867926 435.210156 
L 259.037352 432.543921 
L 265.206777 431.401248 
L 271.376203 432.353475 
L 277.545628 424.164323 
L 283.715054 416.165616 
L 289.884479 408.5478 
L 296.053905 385.694351 
L 302.22333 355.984868 
L 308.392756 299.993919 
L 314.562181 224.387093 
L 320.731607 188.583357 
L 326.901032 193.154047 
L 333.070458 239.813171 
L 339.239883 300.565255 
L 345.409309 351.033287 
L 351.578734 389.693705 
L 357.74816 410.452254 
L 363.917585 422.831205 
L 370.087011 428.163676 
L 376.256436 430.258576 
L 382.425862 430.829912 
L 388.595287 434.448375 
L 394.764713 434.63882 
L 400.934138 435.210156 
L 407.103564 436.924165 
L 413.272989 436.162383 
L 419.442415 436.352829 
L 425.61184 438.447728 
L 431.781266 437.305056 
L 437.950691 438.447728 
L 444.120117 437.876392 
L 450.289542 438.447728 
L 456.458968 438.257283 
L 462.628393 438.257283 
L 468.797819 438.447728 
L 474.967244 437.876392 
L 481.13667 437.876392 
L 487.306095 439.590401 
L 493.475521 439.019065 
L 499.644946 439.20951 
L 505.814372 438.828619 
L 511.983797 439.399955 
L 518.153223 437.876392 
L 524.322648 438.638174 
L 530.492074 439.590401 
L 536.6615 439.780846 
L 542.830925 439.399955 
L 549.000351 439.20951 
L 555.169776 439.019065 
L 561.339202 439.399955 
L 567.508627 438.066838 
L 573.678053 438.828619 
L 579.847478 439.019065 
L 586.016904 438.447728 
L 592.186329 439.20951 
L 598.355755 439.590401 
L 604.52518 439.780846 
L 610.694606 439.20951 
L 616.864031 439.20951 
L 623.033457 438.828619 
L 629.202882 439.399955 
L 635.372308 439.399955 
" style="fill:none;stroke:#1f77b4;stroke-linecap:square;stroke-width:1.5;"/>
   </g>
   <g id="line2d_20">
    <path clip-path="url(#pd1b1653034)" d="M 147.987692 410.642699 
L 154.157118 410.071363 
L 160.326543 410.261808 
L 166.495969 408.357354 
L 172.665394 409.880918 
L 178.83482 410.452254 
L 185.004245 409.880918 
L 191.173671 409.119136 
L 197.343096 409.880918 
L 203.512522 409.690472 
L 209.681947 408.738245 
L 215.851373 409.690472 
L 222.020798 408.738245 
L 228.190224 407.786018 
L 234.359649 409.119136 
L 240.529075 408.357354 
L 246.6985 408.928691 
L 252.867926 406.4529 
L 259.037352 407.214682 
L 265.206777 406.072009 
L 271.376203 407.786018 
L 277.545628 406.833791 
L 283.715054 406.643346 
L 289.884479 405.500673 
L 296.053905 402.643992 
L 302.22333 398.835084 
L 308.392756 398.644639 
L 314.562181 388.551032 
L 320.731607 386.456133 
L 326.901032 376.552972 
L 333.070458 362.269566 
L 339.239883 327.037166 
L 345.409309 287.043631 
L 351.578734 250.287668 
L 357.74816 224.196648 
L 363.917585 221.911303 
L 370.087011 238.480053 
L 376.256436 274.855125 
L 382.425862 317.705342 
L 388.595287 349.319279 
L 394.764713 365.126247 
L 400.934138 387.40836 
L 407.103564 396.168848 
L 413.272989 399.596866 
L 419.442415 402.643992 
L 425.61184 404.738892 
L 431.781266 403.215328 
L 437.950691 406.833791 
L 444.120117 405.881564 
L 450.289542 407.214682 
L 456.458968 407.595573 
L 462.628393 408.5478 
L 468.797819 407.214682 
L 474.967244 407.024236 
L 481.13667 408.738245 
L 487.306095 408.738245 
L 493.475521 408.166909 
L 499.644946 408.738245 
L 505.814372 408.928691 
L 511.983797 409.500027 
L 518.153223 408.928691 
L 524.322648 408.738245 
L 530.492074 409.500027 
L 536.6615 410.071363 
L 542.830925 410.642699 
L 549.000351 410.261808 
L 555.169776 409.690472 
L 561.339202 408.928691 
L 567.508627 409.500027 
L 573.678053 411.02359 
L 579.847478 409.880918 
L 586.016904 410.261808 
L 592.186329 410.833145 
L 598.355755 409.500027 
L 604.52518 410.833145 
L 610.694606 410.642699 
L 616.864031 410.071363 
L 623.033457 409.309581 
L 629.202882 410.642699 
L 635.372308 410.452254 
" style="fill:none;stroke:#ff7f0e;stroke-linecap:square;stroke-width:1.5;"/>
   </g>
   <g id="line2d_21">
    <path clip-path="url(#pd1b1653034)" d="M 147.987692 379.790544 
L 154.157118 381.694998 
L 160.326543 381.504552 
L 166.495969 382.075888 
L 172.665394 381.314107 
L 178.83482 380.742771 
L 185.004245 381.504552 
L 191.173671 381.123661 
L 197.343096 380.36188 
L 203.512522 381.314107 
L 209.681947 380.933216 
L 215.851373 381.123661 
L 222.020798 379.790544 
L 228.190224 380.36188 
L 234.359649 379.980989 
L 240.529075 379.790544 
L 246.6985 379.980989 
L 252.867926 379.790544 
L 259.037352 380.171434 
L 265.206777 379.980989 
L 271.376203 379.409653 
L 277.545628 379.409653 
L 283.715054 379.790544 
L 289.884479 377.505199 
L 296.053905 377.314753 
L 302.22333 377.124308 
L 308.392756 378.076535 
L 314.562181 377.695644 
L 320.731607 376.362526 
L 326.901032 374.838963 
L 333.070458 373.696291 
L 339.239883 370.458719 
L 345.409309 369.125601 
L 351.578734 368.554265 
L 357.74816 361.317339 
L 363.917585 348.747943 
L 370.087011 333.893201 
L 376.256436 314.46777 
L 382.425862 293.518775 
L 388.595287 269.332209 
L 394.764713 251.620786 
L 400.934138 234.290254 
L 407.103564 228.005556 
L 413.272989 252.573013 
L 419.442415 269.332209 
L 425.61184 298.089465 
L 431.781266 330.655629 
L 437.950691 350.08106 
L 444.120117 357.508431 
L 450.289542 368.173374 
L 456.458968 370.83961 
L 462.628393 376.552972 
L 468.797819 375.029408 
L 474.967244 377.124308 
L 481.13667 377.314753 
L 487.306095 377.505199 
L 493.475521 377.314753 
L 499.644946 379.600098 
L 505.814372 379.790544 
L 511.983797 380.933216 
L 518.153223 380.36188 
L 524.322648 378.647871 
L 530.492074 379.409653 
L 536.6615 380.171434 
L 542.830925 381.314107 
L 549.000351 379.980989 
L 555.169776 381.694998 
L 561.339202 379.980989 
L 567.508627 380.36188 
L 573.678053 380.933216 
L 579.847478 380.742771 
L 586.016904 380.552325 
L 592.186329 381.314107 
L 598.355755 381.123661 
L 604.52518 380.552325 
L 610.694606 380.552325 
L 616.864031 380.742771 
L 623.033457 381.694998 
L 629.202882 381.314107 
L 635.372308 380.933216 
" style="fill:none;stroke:#2ca02c;stroke-linecap:square;stroke-width:1.5;"/>
   </g>
   <g id="line2d_22">
    <path clip-path="url(#pd1b1653034)" d="M 147.987692 352.556851 
L 154.157118 353.318632 
L 160.326543 353.509078 
L 166.495969 352.747296 
L 172.665394 353.128187 
L 178.83482 354.270859 
L 185.004245 352.937741 
L 191.173671 351.795069 
L 197.343096 352.747296 
L 203.512522 352.747296 
L 209.681947 352.747296 
L 215.851373 352.366405 
L 222.020798 353.509078 
L 228.190224 353.128187 
L 234.359649 352.17596 
L 240.529075 352.937741 
L 246.6985 353.128187 
L 252.867926 352.366405 
L 259.037352 351.604624 
L 265.206777 351.795069 
L 271.376203 351.414178 
L 277.545628 352.17596 
L 283.715054 352.366405 
L 289.884479 350.842842 
L 296.053905 352.937741 
L 302.22333 349.509724 
L 308.392756 351.223733 
L 314.562181 350.271506 
L 320.731607 349.319279 
L 326.901032 350.08106 
L 333.070458 348.938388 
L 339.239883 348.747943 
L 345.409309 349.128833 
L 351.578734 349.70017 
L 357.74816 348.367052 
L 363.917585 349.70017 
L 370.087011 346.462598 
L 376.256436 341.891908 
L 382.425862 344.367698 
L 388.595287 336.749882 
L 394.764713 331.417411 
L 400.934138 318.467123 
L 407.103564 300.565255 
L 413.272989 268.570427 
L 419.442415 233.718918 
L 425.61184 200.390972 
L 431.781266 170.681489 
L 437.950691 170.300598 
L 444.120117 210.103688 
L 450.289542 235.432927 
L 456.458968 274.855125 
L 462.628393 305.516836 
L 468.797819 319.609796 
L 474.967244 329.512957 
L 481.13667 341.130126 
L 487.306095 343.225026 
L 493.475521 345.700816 
L 499.644946 348.367052 
L 505.814372 347.033934 
L 511.983797 349.509724 
L 518.153223 348.747943 
L 524.322648 348.747943 
L 530.492074 350.842842 
L 536.6615 351.795069 
L 542.830925 351.223733 
L 549.000351 352.17596 
L 555.169776 352.17596 
L 561.339202 351.033287 
L 567.508627 352.17596 
L 573.678053 351.795069 
L 579.847478 351.604624 
L 586.016904 352.556851 
L 592.186329 352.747296 
L 598.355755 352.17596 
L 604.52518 352.366405 
L 610.694606 352.17596 
L 616.864031 352.747296 
L 623.033457 352.937741 
L 629.202882 353.128187 
L 635.372308 352.556851 
" style="fill:none;stroke:#d62728;stroke-linecap:square;stroke-width:1.5;"/>
   </g>
   <g id="line2d_23">
    <path clip-path="url(#pd1b1653034)" d="M 147.987692 323.037813 
L 154.157118 323.609149 
L 160.326543 324.180485 
L 166.495969 324.751821 
L 172.665394 324.180485 
L 178.83482 323.228258 
L 185.004245 323.799594 
L 191.173671 324.561376 
L 197.343096 324.180485 
L 203.512522 324.180485 
L 209.681947 323.037813 
L 215.851373 321.704695 
L 222.020798 323.418704 
L 228.190224 322.847367 
L 234.359649 323.799594 
L 240.529075 323.228258 
L 246.6985 322.656922 
L 252.867926 322.656922 
L 259.037352 324.370931 
L 265.206777 322.466477 
L 271.376203 322.656922 
L 277.545628 322.847367 
L 283.715054 323.799594 
L 289.884479 323.99004 
L 296.053905 323.228258 
L 302.22333 322.847367 
L 308.392756 323.418704 
L 314.562181 323.418704 
L 320.731607 323.037813 
L 326.901032 322.466477 
L 333.070458 322.276031 
L 339.239883 321.323804 
L 345.409309 321.133359 
L 351.578734 322.466477 
L 357.74816 321.704695 
L 363.917585 322.085586 
L 370.087011 322.466477 
L 376.256436 321.89514 
L 382.425862 321.133359 
L 388.595287 321.704695 
L 394.764713 319.038459 
L 400.934138 319.038459 
L 407.103564 318.657569 
L 413.272989 314.086879 
L 419.442415 317.324451 
L 425.61184 307.992626 
L 431.781266 298.851246 
L 437.950691 285.329623 
L 444.120117 259.238602 
L 450.289542 196.201173 
L 456.458968 124.784146 
L 462.628393 60.223154 
L 468.797819 64.984289 
L 474.967244 108.024951 
L 481.13667 146.494922 
L 487.306095 218.29284 
L 493.475521 260.381275 
L 499.644946 295.423229 
L 505.814372 298.089465 
L 511.983797 311.611089 
L 518.153223 313.705988 
L 524.322648 316.372224 
L 530.492074 317.705342 
L 536.6615 318.276678 
L 542.830925 321.51425 
L 549.000351 320.752468 
L 555.169776 320.562023 
L 561.339202 321.704695 
L 567.508627 322.466477 
L 573.678053 321.704695 
L 579.847478 322.847367 
L 586.016904 323.228258 
L 592.186329 322.085586 
L 598.355755 323.418704 
L 604.52518 324.561376 
L 610.694606 322.847367 
L 616.864031 322.276031 
L 623.033457 322.847367 
L 629.202882 323.609149 
L 635.372308 323.799594 
" style="fill:none;stroke:#9467bd;stroke-linecap:square;stroke-width:1.5;"/>
   </g>
   <g id="patch_3">
    <path d="M 138.24 447.372 
L 138.24 52.632 
" style="fill:none;stroke:#000000;stroke-linecap:square;stroke-linejoin:miter;stroke-width:0.8;"/>
   </g>
   <g id="patch_4">
    <path d="M 645.12 447.372 
L 645.12 52.632 
" style="fill:none;stroke:#000000;stroke-linecap:square;stroke-linejoin:miter;stroke-width:0.8;"/>
   </g>
   <g id="patch_5">
    <path d="M 138.24 447.372 
L 645.12 447.372 
" style="fill:none;stroke:#000000;stroke-linecap:square;stroke-linejoin:miter;stroke-width:0.8;"/>
   </g>
   <g id="patch_6">
    <path d="M 138.24 52.632 
L 645.12 52.632 
" style="fill:none;stroke:#000000;stroke-linecap:square;stroke-linejoin:miter;stroke-width:0.8;"/>
   </g>
   <g id="text_21">
    <!--  -->
    <g transform="translate(898.56 29.77895)scale(0.08 -0.08)"/>
    <!-- Plot created Wed Jan 16 15:44:02 2019 -->
    <defs>
     <path d="M 19.671875 64.796875 
L 19.671875 37.40625 
L 32.078125 37.40625 
Q 38.96875 37.40625 42.71875 40.96875 
Q 46.484375 44.53125 46.484375 51.125 
Q 46.484375 57.671875 42.71875 61.234375 
Q 38.96875 64.796875 32.078125 64.796875 
z
M 9.8125 72.90625 
L 32.078125 72.90625 
Q 44.34375 72.90625 50.609375 67.359375 
Q 56.890625 61.8125 56.890625 51.125 
Q 56.890625 40.328125 50.609375 34.8125 
Q 44.34375 29.296875 32.078125 29.296875 
L 19.671875 29.296875 
L 19.671875 0 
L 9.8125 0 
z
" id="DejaVuSans-50"/>
     <path d="M 9.421875 75.984375 
L 18.40625 75.984375 
L 18.40625 0 
L 9.421875 0 
z
" id="DejaVuSans-6c"/>
     <path d="M 48.78125 52.59375 
L 48.78125 44.1875 
Q 44.96875 46.296875 41.140625 47.34375 
Q 37.3125 48.390625 33.40625 48.390625 
Q 24.65625 48.390625 19.8125 42.84375 
Q 14.984375 37.3125 14.984375 27.296875 
Q 14.984375 17.28125 19.8125 11.734375 
Q 24.65625 6.203125 33.40625 6.203125 
Q 37.3125 6.203125 41.140625 7.25 
Q 44.96875 8.296875 48.78125 10.40625 
L 48.78125 2.09375 
Q 45.015625 0.34375 40.984375 -0.53125 
Q 36.96875 -1.421875 32.421875 -1.421875 
Q 20.0625 -1.421875 12.78125 6.34375 
Q 5.515625 14.109375 5.515625 27.296875 
Q 5.515625 40.671875 12.859375 48.328125 
Q 20.21875 56 33.015625 56 
Q 37.15625 56 41.109375 55.140625 
Q 45.0625 54.296875 48.78125 52.59375 
" id="DejaVuSans-63"/>
     <path d="M 41.109375 46.296875 
Q 39.59375 47.171875 37.8125 47.578125 
Q 36.03125 48 33.890625 48 
Q 26.265625 48 22.1875 43.046875 
Q 18.109375 38.09375 18.109375 28.8125 
L 18.109375 0 
L 9.078125 0 
L 9.078125 54.6875 
L 18.109375 54.6875 
L 18.109375 46.1875 
Q 20.953125 51.171875 25.484375 53.578125 
Q 30.03125 56 36.53125 56 
Q 37.453125 56 38.578125 55.875 
Q 39.703125 55.765625 41.0625 55.515625 
z
" id="DejaVuSans-72"/>
     <path d="M 34.28125 27.484375 
Q 23.390625 27.484375 19.1875 25 
Q 14.984375 22.515625 14.984375 16.5 
Q 14.984375 11.71875 18.140625 8.90625 
Q 21.296875 6.109375 26.703125 6.109375 
Q 34.1875 6.109375 38.703125 11.40625 
Q 43.21875 16.703125 43.21875 25.484375 
L 43.21875 27.484375 
z
M 52.203125 31.203125 
L 52.203125 0 
L 43.21875 0 
L 43.21875 8.296875 
Q 40.140625 3.328125 35.546875 0.953125 
Q 30.953125 -1.421875 24.3125 -1.421875 
Q 15.921875 -1.421875 10.953125 3.296875 
Q 6 8.015625 6 15.921875 
Q 6 25.140625 12.171875 29.828125 
Q 18.359375 34.515625 30.609375 34.515625 
L 43.21875 34.515625 
L 43.21875 35.40625 
Q 43.21875 41.609375 39.140625 45 
Q 35.0625 48.390625 27.6875 48.390625 
Q 23 48.390625 18.546875 47.265625 
Q 14.109375 46.140625 10.015625 43.890625 
L 10.015625 52.203125 
Q 14.9375 54.109375 19.578125 55.046875 
Q 24.21875 56 28.609375 56 
Q 40.484375 56 46.34375 49.84375 
Q 52.203125 43.703125 52.203125 31.203125 
" id="DejaVuSans-61"/>
     <path d="M 45.40625 46.390625 
L 45.40625 75.984375 
L 54.390625 75.984375 
L 54.390625 0 
L 45.40625 0 
L 45.40625 8.203125 
Q 42.578125 3.328125 38.25 0.953125 
Q 33.9375 -1.421875 27.875 -1.421875 
Q 17.96875 -1.421875 11.734375 6.484375 
Q 5.515625 14.40625 5.515625 27.296875 
Q 5.515625 40.1875 11.734375 48.09375 
Q 17.96875 56 27.875 56 
Q 33.9375 56 38.25 53.625 
Q 42.578125 51.265625 45.40625 46.390625 
M 14.796875 27.296875 
Q 14.796875 17.390625 18.875 11.75 
Q 22.953125 6.109375 30.078125 6.109375 
Q 37.203125 6.109375 41.296875 11.75 
Q 45.40625 17.390625 45.40625 27.296875 
Q 45.40625 37.203125 41.296875 42.84375 
Q 37.203125 48.484375 30.078125 48.484375 
Q 22.953125 48.484375 18.875 42.84375 
Q 14.796875 37.203125 14.796875 27.296875 
" id="DejaVuSans-64"/>
     <path d="M 3.328125 72.90625 
L 13.28125 72.90625 
L 28.609375 11.28125 
L 43.890625 72.90625 
L 54.984375 72.90625 
L 70.3125 11.28125 
L 85.59375 72.90625 
L 95.609375 72.90625 
L 77.296875 0 
L 64.890625 0 
L 49.515625 63.28125 
L 33.984375 0 
L 21.578125 0 
z
" id="DejaVuSans-57"/>
     <path d="M 9.8125 72.90625 
L 19.671875 72.90625 
L 19.671875 5.078125 
Q 19.671875 -8.109375 14.671875 -14.0625 
Q 9.671875 -20.015625 -1.421875 -20.015625 
L -5.171875 -20.015625 
L -5.171875 -11.71875 
L -2.09375 -11.71875 
Q 4.4375 -11.71875 7.125 -8.046875 
Q 9.8125 -4.390625 9.8125 5.078125 
z
" id="DejaVuSans-4a"/>
     <path d="M 11.71875 12.40625 
L 22.015625 12.40625 
L 22.015625 0 
L 11.71875 0 
z
M 11.71875 51.703125 
L 22.015625 51.703125 
L 22.015625 39.3125 
L 11.71875 39.3125 
z
" id="DejaVuSans-3a"/>
     <path d="M 10.984375 1.515625 
L 10.984375 10.5 
Q 14.703125 8.734375 18.5 7.8125 
Q 22.3125 6.890625 25.984375 6.890625 
Q 35.75 6.890625 40.890625 13.453125 
Q 46.046875 20.015625 46.78125 33.40625 
Q 43.953125 29.203125 39.59375 26.953125 
Q 35.25 24.703125 29.984375 24.703125 
Q 19.046875 24.703125 12.671875 31.3125 
Q 6.296875 37.9375 6.296875 49.421875 
Q 6.296875 60.640625 12.9375 67.421875 
Q 19.578125 74.21875 30.609375 74.21875 
Q 43.265625 74.21875 49.921875 64.515625 
Q 56.59375 54.828125 56.59375 36.375 
Q 56.59375 19.140625 48.40625 8.859375 
Q 40.234375 -1.421875 26.421875 -1.421875 
Q 22.703125 -1.421875 18.890625 -0.6875 
Q 15.09375 0.046875 10.984375 1.515625 
M 30.609375 32.421875 
Q 37.25 32.421875 41.125 36.953125 
Q 45.015625 41.5 45.015625 49.421875 
Q 45.015625 57.28125 41.125 61.84375 
Q 37.25 66.40625 30.609375 66.40625 
Q 23.96875 66.40625 20.09375 61.84375 
Q 16.21875 57.28125 16.21875 49.421875 
Q 16.21875 41.5 20.09375 36.953125 
Q 23.96875 32.421875 30.609375 32.421875 
" id="DejaVuSans-39"/>
    </defs>
    <g transform="translate(740.8725 38.7372)scale(0.08 -0.08)">
     <use xlink:href="#DejaVuSans-50"/>
     <use x="60.302734" xlink:href="#DejaVuSans-6c"/>
     <use x="88.085938" xlink:href="#DejaVuSans-6f"/>
     <use x="149.267578" xlink:href="#DejaVuSans-74"/>
     <use x="188.476562" xlink:href="#DejaVuSans-20"/>
     <use x="220.263672" xlink:href="#DejaVuSans-63"/>
     <use x="275.244141" xlink:href="#DejaVuSans-72"/>
     <use x="316.326172" xlink:href="#DejaVuSans-65"/>
     <use x="377.849609" xlink:href="#DejaVuSans-61"/>
     <use x="439.128906" xlink:href="#DejaVuSans-74"/>
     <use x="478.337891" xlink:href="#DejaVuSans-65"/>
     <use x="539.861328" xlink:href="#DejaVuSans-64"/>
     <use x="603.337891" xlink:href="#DejaVuSans-20"/>
     <use x="635.125" xlink:href="#DejaVuSans-57"/>
     <use x="733.923828" xlink:href="#DejaVuSans-65"/>
     <use x="795.447266" xlink:href="#DejaVuSans-64"/>
     <use x="858.923828" xlink:href="#DejaVuSans-20"/>
     <use x="890.710938" xlink:href="#DejaVuSans-4a"/>
     <use x="920.203125" xlink:href="#DejaVuSans-61"/>
     <use x="981.482422" xlink:href="#DejaVuSans-6e"/>
     <use x="1044.861328" xlink:href="#DejaVuSans-20"/>
     <use x="1076.648438" xlink:href="#DejaVuSans-31"/>
     <use x="1140.271484" xlink:href="#DejaVuSans-36"/>
     <use x="1203.894531" xlink:href="#DejaVuSans-20"/>
     <use x="1235.681641" xlink:href="#DejaVuSans-31"/>
     <use x="1299.304688" xlink:href="#DejaVuSans-35"/>
     <use x="1362.927734" xlink:href="#DejaVuSans-3a"/>
     <use x="1396.619141" xlink:href="#DejaVuSans-34"/>
     <use x="1460.242188" xlink:href="#DejaVuSans-34"/>
     <use x="1523.865234" xlink:href="#DejaVuSans-3a"/>
     <use x="1557.556641" xlink:href="#DejaVuSans-30"/>
     <use x="1621.179688" xlink:href="#DejaVuSans-32"/>
     <use x="1684.802734" xlink:href="#DejaVuSans-20"/>
     <use x="1716.589844" xlink:href="#DejaVuSans-32"/>
     <use x="1780.212891" xlink:href="#DejaVuSans-30"/>
     <use x="1843.835938" xlink:href="#DejaVuSans-31"/>
     <use x="1907.458984" xlink:href="#DejaVuSans-39"/>
    </g>
   </g>
   <g id="legend_1">
    <g id="patch_7">
     <path d="M 651.5888 447.372 
L 736.75255 447.372 
Q 738.15255 447.372 738.15255 445.972 
L 738.15255 400.618562 
Q 738.15255 399.218562 736.75255 399.218562 
L 651.5888 399.218562 
Q 650.1888 399.218562 650.1888 400.618562 
L 650.1888 445.972 
Q 650.1888 447.372 651.5888 447.372 
z
" style="fill:#ffffff;opacity:0.8;stroke:#cccccc;stroke-linejoin:miter;"/>
    </g>
    <g id="line2d_24">
     <path d="M 650.3288 402.227469 
L 664.3288 402.227469 
" style="fill:none;stroke:#1f77b4;stroke-linecap:square;stroke-width:1.5;"/>
    </g>
    <g id="line2d_25"/>
    <g id="text_22">
     <!-- 0: Cu 100% - Ni 0% -->
     <defs>
      <path d="M 72.703125 32.078125 
Q 68.453125 32.078125 66.03125 28.46875 
Q 63.625 24.859375 63.625 18.40625 
Q 63.625 12.0625 66.03125 8.421875 
Q 68.453125 4.78125 72.703125 4.78125 
Q 76.859375 4.78125 79.265625 8.421875 
Q 81.6875 12.0625 81.6875 18.40625 
Q 81.6875 24.8125 79.265625 28.4375 
Q 76.859375 32.078125 72.703125 32.078125 
M 72.703125 38.28125 
Q 80.421875 38.28125 84.953125 32.90625 
Q 89.5 27.546875 89.5 18.40625 
Q 89.5 9.28125 84.9375 3.921875 
Q 80.375 -1.421875 72.703125 -1.421875 
Q 64.890625 -1.421875 60.34375 3.921875 
Q 55.8125 9.28125 55.8125 18.40625 
Q 55.8125 27.59375 60.375 32.9375 
Q 64.9375 38.28125 72.703125 38.28125 
M 22.3125 68.015625 
Q 18.109375 68.015625 15.6875 64.375 
Q 13.28125 60.75 13.28125 54.390625 
Q 13.28125 47.953125 15.671875 44.328125 
Q 18.0625 40.71875 22.3125 40.71875 
Q 26.5625 40.71875 28.96875 44.328125 
Q 31.390625 47.953125 31.390625 54.390625 
Q 31.390625 60.6875 28.953125 64.34375 
Q 26.515625 68.015625 22.3125 68.015625 
M 66.40625 74.21875 
L 74.21875 74.21875 
L 28.609375 -1.421875 
L 20.796875 -1.421875 
z
M 22.3125 74.21875 
Q 30.03125 74.21875 34.609375 68.875 
Q 39.203125 63.53125 39.203125 54.390625 
Q 39.203125 45.171875 34.640625 39.84375 
Q 30.078125 34.515625 22.3125 34.515625 
Q 14.546875 34.515625 10.03125 39.859375 
Q 5.515625 45.21875 5.515625 54.390625 
Q 5.515625 63.484375 10.046875 68.84375 
Q 14.59375 74.21875 22.3125 74.21875 
" id="DejaVuSans-25"/>
      <path d="M 4.890625 31.390625 
L 31.203125 31.390625 
L 31.203125 23.390625 
L 4.890625 23.390625 
z
" id="DejaVuSans-2d"/>
      <path d="M 9.8125 72.90625 
L 23.09375 72.90625 
L 55.421875 11.921875 
L 55.421875 72.90625 
L 64.984375 72.90625 
L 64.984375 0 
L 51.703125 0 
L 19.390625 60.984375 
L 19.390625 0 
L 9.8125 0 
z
" id="DejaVuSans-4e"/>
     </defs>
     <g transform="translate(669.9288 404.677469)scale(0.07 -0.07)">
      <use xlink:href="#DejaVuSans-30"/>
      <use x="63.623047" xlink:href="#DejaVuSans-3a"/>
      <use x="97.314453" xlink:href="#DejaVuSans-20"/>
      <use x="129.101562" xlink:href="#DejaVuSans-43"/>
      <use x="198.925781" xlink:href="#DejaVuSans-75"/>
      <use x="262.304688" xlink:href="#DejaVuSans-20"/>
      <use x="294.091797" xlink:href="#DejaVuSans-31"/>
      <use x="357.714844" xlink:href="#DejaVuSans-30"/>
      <use x="421.337891" xlink:href="#DejaVuSans-30"/>
      <use x="484.960938" xlink:href="#DejaVuSans-25"/>
      <use x="579.980469" xlink:href="#DejaVuSans-20"/>
      <use x="611.767578" xlink:href="#DejaVuSans-2d"/>
      <use x="647.851562" xlink:href="#DejaVuSans-20"/>
      <use x="679.638672" xlink:href="#DejaVuSans-4e"/>
      <use x="754.443359" xlink:href="#DejaVuSans-69"/>
      <use x="782.226562" xlink:href="#DejaVuSans-20"/>
      <use x="814.013672" xlink:href="#DejaVuSans-30"/>
      <use x="877.636719" xlink:href="#DejaVuSans-25"/>
     </g>
    </g>
    <g id="line2d_26">
     <path d="M 650.3288 412.502156 
L 664.3288 412.502156 
" style="fill:none;stroke:#ff7f0e;stroke-linecap:square;stroke-width:1.5;"/>
    </g>
    <g id="line2d_27"/>
    <g id="text_23">
     <!-- 1: Cu 75% - Ni 25% -->
     <g transform="translate(669.9288 414.952156)scale(0.07 -0.07)">
      <use xlink:href="#DejaVuSans-31"/>
      <use x="63.623047" xlink:href="#DejaVuSans-3a"/>
      <use x="97.314453" xlink:href="#DejaVuSans-20"/>
      <use x="129.101562" xlink:href="#DejaVuSans-43"/>
      <use x="198.925781" xlink:href="#DejaVuSans-75"/>
      <use x="262.304688" xlink:href="#DejaVuSans-20"/>
      <use x="294.091797" xlink:href="#DejaVuSans-37"/>
      <use x="357.714844" xlink:href="#DejaVuSans-35"/>
      <use x="421.337891" xlink:href="#DejaVuSans-25"/>
      <use x="516.357422" xlink:href="#DejaVuSans-20"/>
      <use x="548.144531" xlink:href="#DejaVuSans-2d"/>
      <use x="584.228516" xlink:href="#DejaVuSans-20"/>
      <use x="616.015625" xlink:href="#DejaVuSans-4e"/>
      <use x="690.820312" xlink:href="#DejaVuSans-69"/>
      <use x="718.603516" xlink:href="#DejaVuSans-20"/>
      <use x="750.390625" xlink:href="#DejaVuSans-32"/>
      <use x="814.013672" xlink:href="#DejaVuSans-35"/>
      <use x="877.636719" xlink:href="#DejaVuSans-25"/>
     </g>
    </g>
    <g id="line2d_28">
     <path d="M 650.3288 422.776844 
L 664.3288 422.776844 
" style="fill:none;stroke:#2ca02c;stroke-linecap:square;stroke-width:1.5;"/>
    </g>
    <g id="line2d_29"/>
    <g id="text_24">
     <!-- 2: Cu 50% - Ni 50% -->
     <g transform="translate(669.9288 425.226844)scale(0.07 -0.07)">
      <use xlink:href="#DejaVuSans-32"/>
      <use x="63.623047" xlink:href="#DejaVuSans-3a"/>
      <use x="97.314453" xlink:href="#DejaVuSans-20"/>
      <use x="129.101562" xlink:href="#DejaVuSans-43"/>
      <use x="198.925781" xlink:href="#DejaVuSans-75"/>
      <use x="262.304688" xlink:href="#DejaVuSans-20"/>
      <use x="294.091797" xlink:href="#DejaVuSans-35"/>
      <use x="357.714844" xlink:href="#DejaVuSans-30"/>
      <use x="421.337891" xlink:href="#DejaVuSans-25"/>
      <use x="516.357422" xlink:href="#DejaVuSans-20"/>
      <use x="548.144531" xlink:href="#DejaVuSans-2d"/>
      <use x="584.228516" xlink:href="#DejaVuSans-20"/>
      <use x="616.015625" xlink:href="#DejaVuSans-4e"/>
      <use x="690.820312" xlink:href="#DejaVuSans-69"/>
      <use x="718.603516" xlink:href="#DejaVuSans-20"/>
      <use x="750.390625" xlink:href="#DejaVuSans-35"/>
      <use x="814.013672" xlink:href="#DejaVuSans-30"/>
      <use x="877.636719" xlink:href="#DejaVuSans-25"/>
     </g>
    </g>
    <g id="line2d_30">
     <path d="M 650.3288 433.051531 
L 664.3288 433.051531 
" style="fill:none;stroke:#d62728;stroke-linecap:square;stroke-width:1.5;"/>
    </g>
    <g id="line2d_31"/>
    <g id="text_25">
     <!-- 3: Cu 25% - Ni 75% -->
     <g transform="translate(669.9288 435.501531)scale(0.07 -0.07)">
      <use xlink:href="#DejaVuSans-33"/>
      <use x="63.623047" xlink:href="#DejaVuSans-3a"/>
      <use x="97.314453" xlink:href="#DejaVuSans-20"/>
      <use x="129.101562" xlink:href="#DejaVuSans-43"/>
      <use x="198.925781" xlink:href="#DejaVuSans-75"/>
      <use x="262.304688" xlink:href="#DejaVuSans-20"/>
      <use x="294.091797" xlink:href="#DejaVuSans-32"/>
      <use x="357.714844" xlink:href="#DejaVuSans-35"/>
      <use x="421.337891" xlink:href="#DejaVuSans-25"/>
      <use x="516.357422" xlink:href="#DejaVuSans-20"/>
      <use x="548.144531" xlink:href="#DejaVuSans-2d"/>
      <use x="584.228516" xlink:href="#DejaVuSans-20"/>
      <use x="616.015625" xlink:href="#DejaVuSans-4e"/>
      <use x="690.820312" xlink:href="#DejaVuSans-69"/>
      <use x="718.603516" xlink:href="#DejaVuSans-20"/>
      <use x="750.390625" xlink:href="#DejaVuSans-37"/>
      <use x="814.013672" xlink:href="#DejaVuSans-35"/>
      <use x="877.636719" xlink:href="#DejaVuSans-25"/>
     </g>
    </g>
    <g id="line2d_32">
     <path d="M 650.3288 443.326219 
L 664.3288 443.326219 
" style="fill:none;stroke:#9467bd;stroke-linecap:square;stroke-width:1.5;"/>
    </g>
    <g id="line2d_33"/>
    <g id="text_26">
     <!-- 4: Cu 0% - Ni 100% -->
     <g transform="translate(669.9288 445.776219)scale(0.07 -0.07)">
      <use xlink:href="#DejaVuSans-34"/>
      <use x="63.623047" xlink:href="#DejaVuSans-3a"/>
      <use x="97.314453" xlink:href="#DejaVuSans-20"/>
      <use x="129.101562" xlink:href="#DejaVuSans-43"/>
      <use x="198.925781" xlink:href="#DejaVuSans-75"/>
      <use x="262.304688" xlink:href="#DejaVuSans-20"/>
      <use x="294.091797" xlink:href="#DejaVuSans-30"/>
      <use x="357.714844" xlink:href="#DejaVuSans-25"/>
      <use x="452.734375" xlink:href="#DejaVuSans-20"/>
      <use x="484.521484" xlink:href="#DejaVuSans-2d"/>
      <use x="520.605469" xlink:href="#DejaVuSans-20"/>
      <use x="552.392578" xlink:href="#DejaVuSans-4e"/>
      <use x="627.197266" xlink:href="#DejaVuSans-69"/>
      <use x="654.980469" xlink:href="#DejaVuSans-20"/>
      <use x="686.767578" xlink:href="#DejaVuSans-31"/>
      <use x="750.390625" xlink:href="#DejaVuSans-30"/>
      <use x="814.013672" xlink:href="#DejaVuSans-30"/>
      <use x="877.636719" xlink:href="#DejaVuSans-25"/>
     </g>
    </g>
   </g>
  </g>
 </g>
 <defs>
  <clipPath id="pd1b1653034">
   <rect height="394.74" width="506.88" x="138.24" y="52.632"/>
  </clipPath>
 </defs>
</svg>
